<?xml version="1.0" encoding="utf-8"?>
<!-- Generator: Adobe Illustrator 15.1.0, SVG Export Plug-In . SVG Version: 6.00 Build 0)  -->
<!DOCTYPE svg PUBLIC "-//W3C//DTD SVG 1.1//EN" "http://www.w3.org/Graphics/SVG/1.1/DTD/svg11.dtd">
<svg version="1.1" id="Layer_1" xmlns="http://www.w3.org/2000/svg" xmlns:xlink="http://www.w3.org/1999/xlink" x="0px" y="0px"
	 width="114px" height="226.161px" viewBox="0 0 114 226.161" enable-background="new 0 0 114 226.161" xml:space="preserve">
<polygon fill="#E87411" points="0,0 0,226.161 0.184,226.161 56.562,193 113.889,225.731 113.455,226.161 114,226.161 114,0 "/>
<g>
	<path fill="#FFFFFF" d="M93.195,100.29v-0.338h-0.082c-0.615-2.264-2.779-3.938-5.363-3.938v3.938h-0.01l0.135,56.979
		c0,0-8.029-2.593-15.283-5.75c-8.383-3.647-15.086,0.321-15.7,0.704v0.037c0,0-0.021-0.014-0.028-0.02
		c-0.007,0.006-0.03,0.02-0.03,0.02v-0.037c-0.613-0.383-7.316-4.354-15.698-0.704c-7.256,3.157-15.286,5.75-15.286,5.75
		l0.137-56.979h-0.028v-4.236c-2.553,0-4.677,1.824-5.149,4.236h-0.094v0.909c-0.001,0.035-0.006,0.069-0.006,0.104
		s0.005,0.068,0.006,0.103v61.317h72.484v-60.152c0.062-0.314,0.1-0.639,0.1-0.971C93.295,100.929,93.258,100.604,93.195,100.29z"/>
	<g>
		<path fill="#FFFFFF" d="M38.941,132.161c1.675,2.993,3.604,5.858,5.748,8.569l12.293-11.959l12.333,11.985
			c2.125-2.68,4.043-5.534,5.736-8.549l-18.069-17.391L38.941,132.161z"/>
		<path fill="#FFFFFF" d="M83.051,95.401c-2.115,0.645-4.367,0.995-6.701,0.995c-8.252,0-15.461-4.338-19.344-10.788
			c-3.893,6.45-11.1,10.788-19.348,10.788c-2.333,0-4.586-0.353-6.698-0.989c-0.55,6.291-0.153,12.508,1.099,18.485h49.857
			C83.215,107.659,83.574,101.446,83.051,95.401"/>
	</g>
</g>
</svg>
