<?xml version="1.0" encoding="utf-8"?>
<!-- Generator: Adobe Illustrator 15.1.0, SVG Export Plug-In . SVG Version: 6.00 Build 0)  -->
<!DOCTYPE svg PUBLIC "-//W3C//DTD SVG 1.1//EN" "http://www.w3.org/Graphics/SVG/1.1/DTD/svg11.dtd">
<svg version="1.1" id="Layer_1" xmlns="http://www.w3.org/2000/svg" xmlns:xlink="http://www.w3.org/1999/xlink" x="0px" y="0px"
	 width="441.8px" height="48.968px" viewBox="0 0 441.8 48.968" enable-background="new 0 0 441.8 48.968" xml:space="preserve">
<polygon fill="#E87411" points="0,0 0,48.968 0.046,48.968 14.113,41.789 28.416,48.876 28.308,48.968 28.443,48.968 28.443,0 "/>
<g>
	<path fill="#FFFFFF" d="M23.252,17.564v-0.086h-0.02c-0.154-0.564-0.693-0.982-1.338-0.982v0.982H21.89l0.035,14.216
		c0,0-2.004-0.646-3.814-1.435c-2.092-0.909-3.764,0.08-3.917,0.177v0.01c0,0-0.005-0.004-0.007-0.006
		c-0.002,0.002-0.008,0.006-0.008,0.006v-0.01c-0.153-0.097-1.825-1.086-3.917-0.177c-1.81,0.787-3.813,1.435-3.813,1.435
		l0.033-14.216H6.476v-1.057c-0.638,0-1.167,0.455-1.284,1.057H5.167v0.229c0,0.008-0.001,0.018-0.001,0.025
		c0,0.007,0.001,0.018,0.001,0.025v15.298h18.085V18.049c0.016-0.08,0.025-0.16,0.025-0.242S23.268,17.641,23.252,17.564z"/>
	<g>
		<path fill="#FFFFFF" d="M9.716,25.516c0.418,0.746,0.899,1.46,1.435,2.138l3.066-2.985l3.078,2.991
			c0.529-0.668,1.008-1.379,1.432-2.132l-4.51-4.338L9.716,25.516z"/>
		<path fill="#FFFFFF" d="M20.722,16.344c-0.528,0.16-1.09,0.248-1.673,0.248c-2.059,0-3.857-1.082-4.826-2.691
			c-0.971,1.609-2.77,2.691-4.827,2.691c-0.581,0-1.144-0.088-1.671-0.246c-0.137,1.57-0.038,3.119,0.273,4.611h12.44
			C20.762,19.402,20.852,17.852,20.722,16.344"/>
	</g>
</g>
<g>
	<path fill="#FFFFFF" d="M47.106,29.052c-0.415,0-1.991,0-2.374,0c-0.63,0-1.509-0.031-1.641-0.049
		c-0.316-0.033-0.449-0.332-0.498-0.68c-0.167-1.212-0.516-2.738-1.046-3.566c-0.398-0.615-0.697-0.863-1.311-1.211
		c-0.415-0.232-0.663-0.268-0.88-0.268c-0.133,0-0.299,0-0.431,0.018l0.017,3.832c0,0.58,0.299,0.979,0.713,1.178
		c0.183,0.035,0.598,0.133,0.93,0.168c0.032,0.066,0.066,0.23,0.066,0.348c0,0.068-0.034,0.182-0.066,0.248
		c-0.946,0-1.842-0.049-2.904-0.049c-0.531,0-3.069,0.049-3.302,0.049c-0.032-0.082-0.065-0.215-0.065-0.266
		c0-0.082,0.033-0.248,0.082-0.33c0.333-0.018,0.73-0.084,0.946-0.117c0.481-0.199,0.63-0.697,0.681-1.111
		c0.082-0.631,0.065-2.586,0.065-4.28c0-2.338-0.017-3.699-0.099-4.23c-0.166-0.365-0.299-0.598-0.697-0.896
		c-0.266-0.051-0.78-0.115-1.062-0.148c-0.016-0.066-0.033-0.232-0.033-0.299s0.033-0.199,0.084-0.316
		c0.099,0,0.73,0.035,0.979,0.035c0.581,0,2.023,0.033,2.273,0.033c0.828,0,2.57-0.117,3.815-0.117c0.88,0,1.593,0.066,1.991,0.184
		c1.211,0.381,2.074,1.674,2.074,3.018c0,0.896-0.365,1.66-1.029,2.158c-0.314,0.25-0.597,0.465-1.824,0.613
		c-0.316,0.033-0.433,0.051-0.681,0.1c0.198,0.084,0.415,0.166,0.681,0.266c0.58,0.199,1.094,0.414,1.244,0.549
		c0.398,0.365,0.879,1.145,1.227,1.973c0.25,0.632,0.498,1.144,0.714,1.907c0.067,0.117,0.2,0.315,0.282,0.416
		c0.249,0.182,0.93,0.215,1.096,0.215c0.049,0.066,0.082,0.264,0.082,0.348S47.172,28.987,47.106,29.052z M42.012,18.568
		c-0.464-0.781-1.028-0.896-2.322-0.896c-0.348,0-0.646,0.051-0.697,0.1c-0.049,0.051-0.1,0.166-0.1,0.365v3.053l0.018,1.41
		c0.199,0.035,0.447,0.035,0.613,0.035c0.614,0,1.029-0.051,1.361-0.135c0.812-0.199,1.51-1.377,1.51-2.406
		C42.395,19.531,42.277,19.016,42.012,18.568z"/>
	<path fill="#FFFFFF" d="M61.406,29.052c-1.078,0-2.404-0.049-3.434-0.049c-0.631,0-1.36,0.033-1.643,0.033h-1.244
		c-0.083-0.066-0.1-0.232-0.116-0.297c0-0.068,0.017-0.199,0.099-0.302c0.647-0.03,0.996-0.099,1.229-0.215
		c0.148-0.166,0.232-0.479,0.232-0.812c-0.066-0.25-0.199-0.648-0.432-1.311c-0.133-0.398-0.266-0.73-0.382-1.012
		c-0.066-0.117-0.216-0.381-0.349-0.482c-0.696,0.016-2.555-0.016-3.717,0.033c-0.099,0.184-0.182,0.398-0.248,0.613l-0.631,1.939
		c0.066,0.549,0.249,0.914,0.481,1.129c0.149,0.066,0.598,0.133,1.013,0.166c0.049,0.082,0.082,0.215,0.066,0.281
		c0,0.068-0.018,0.199-0.066,0.299h-0.449c-0.597,0-1.244-0.066-1.873-0.066c-0.582,0-1.594,0.033-1.941,0.033
		c-0.051-0.082-0.067-0.182-0.067-0.266c0.017-0.066,0.05-0.23,0.067-0.314c0.713-0.199,1.476-0.383,1.74-0.979
		c0.498-1.21,0.383-0.896,1.18-3.001c0.812-2.16,1.41-3.668,1.774-4.531c0.464-1.062,0.696-1.658,0.747-1.775
		c0.166-0.447,0.365-0.83,0.514-0.961c0.1-0.117,0.448-0.232,0.58-0.232c0.167,0,0.848,0.133,0.947,0.264
		c0.032,0.051,0.1,0.184,0.148,0.316l0.73,1.809l2.488,6.205c0.315,0.764,0.465,1.11,0.746,1.773
		c0.134,0.332,0.332,0.714,0.432,0.798c0.083,0.065,0.946,0.297,1.377,0.364c0.033,0.064,0.084,0.216,0.1,0.281
		C61.506,28.854,61.457,29.003,61.406,29.052z M54.837,22.949c-0.266-0.73-0.83-2.141-1.146-2.887c-0.049-0.1-0.1-0.217-0.148-0.332
		c-0.183,0.447-0.398,0.945-0.714,1.725c-0.464,1.18-0.847,2.256-0.913,2.488h2.008c0.465,0,0.93,0,1.229-0.066
		C55.052,23.529,54.986,23.314,54.837,22.949z"/>
	<path fill="#FFFFFF" d="M75.476,29.052c-0.415,0-1.991,0-2.372,0c-0.631,0-1.511-0.031-1.643-0.049
		c-0.316-0.033-0.449-0.332-0.498-0.68c-0.166-1.212-0.515-2.738-1.045-3.566c-0.398-0.615-0.697-0.863-1.311-1.211
		c-0.416-0.232-0.664-0.268-0.881-0.268c-0.132,0-0.298,0-0.431,0.018l0.017,3.832c0,0.58,0.299,0.979,0.713,1.178
		c0.184,0.035,0.598,0.133,0.93,0.168c0.033,0.066,0.066,0.23,0.066,0.348c0,0.068-0.033,0.182-0.066,0.248
		c-0.946,0-1.842-0.049-2.903-0.049c-0.531,0-3.069,0.049-3.302,0.049c-0.033-0.082-0.066-0.215-0.066-0.266
		c0-0.082,0.033-0.248,0.083-0.33c0.332-0.018,0.729-0.084,0.946-0.117c0.48-0.199,0.629-0.697,0.68-1.111
		c0.083-0.631,0.066-2.586,0.066-4.28c0-2.338-0.018-3.699-0.1-4.23c-0.166-0.365-0.299-0.598-0.697-0.896
		c-0.266-0.051-0.78-0.115-1.062-0.148c-0.017-0.066-0.032-0.232-0.032-0.299s0.032-0.199,0.082-0.316c0.1,0,0.73,0.035,0.979,0.035
		c0.581,0,2.025,0.033,2.273,0.033c0.83,0,2.572-0.117,3.816-0.117c0.879,0,1.592,0.066,1.99,0.184
		c1.212,0.381,2.074,1.674,2.074,3.018c0,0.896-0.365,1.66-1.029,2.158c-0.314,0.25-0.596,0.465-1.824,0.613
		c-0.315,0.033-0.432,0.051-0.68,0.1c0.198,0.084,0.414,0.166,0.68,0.266c0.58,0.199,1.095,0.414,1.244,0.549
		c0.398,0.365,0.879,1.145,1.228,1.973c0.249,0.632,0.498,1.144,0.714,1.907c0.066,0.117,0.199,0.315,0.282,0.416
		c0.249,0.182,0.929,0.215,1.095,0.215c0.05,0.066,0.083,0.264,0.083,0.348S75.542,28.987,75.476,29.052z M70.383,18.568
		c-0.465-0.781-1.029-0.896-2.324-0.896c-0.348,0-0.646,0.051-0.697,0.1c-0.049,0.051-0.099,0.166-0.099,0.365v3.053l0.017,1.41
		c0.199,0.035,0.447,0.035,0.614,0.035c0.614,0,1.028-0.051,1.359-0.135c0.813-0.199,1.511-1.377,1.511-2.406
		C70.764,19.531,70.646,19.016,70.383,18.568z"/>
	<path fill="#FFFFFF" d="M88.367,28.804c-0.018,0.15-0.018,0.184-0.067,0.266c-0.165,0.051-0.314,0.033-0.447,0.033
		c-3.353,0-4.878-0.1-5.409-0.1c-0.963,0-1.76-0.033-2.174-0.033c-0.448,0-2.406,0.051-2.937,0.051h-0.548
		c-0.049-0.084-0.082-0.199-0.082-0.299c0-0.102,0.033-0.266,0.082-0.365c0.664-0.033,1.344-0.133,1.494-0.248
		c0.1-0.15,0.332-0.93,0.365-1.576c0.016-0.412,0.032-1.427,0.032-2.124V20.99c0-0.764-0.017-1.725-0.05-2.074
		c-0.149-0.795-0.365-0.879-0.598-1.078c-0.231-0.133-1.012-0.115-1.211-0.182c-0.05-0.066-0.082-0.248-0.082-0.332
		c0-0.066,0.032-0.199,0.082-0.266h0.564c0.431,0,1.277,0.033,2.273,0.033c0.68,0,2.289-0.018,3.069-0.018
		c1.442,0,1.825-0.016,2.771-0.016c0.664,0,1.294,0.033,1.428,0.033c0.331,0,0.364,0.051,0.381,0.215
		c0.033,0.416,0.1,1.727,0.1,2.74c-0.133,0.064-0.149,0.098-0.25,0.098c-0.082,0-0.248,0-0.348-0.033
		c-0.48-0.812-0.963-1.576-1.593-2.057c-0.249-0.199-0.597-0.301-1.062-0.332c-0.15,0-0.598-0.018-1.56-0.018
		c-0.765,0-0.847,0.018-0.995,0.033c-0.018,0.15-0.051,0.365-0.066,0.564c-0.018,0.299-0.051,0.812-0.051,2.406v1.543h0.348
		c0.233,0,0.665-0.051,0.963-0.133c0.448-0.133,0.879-0.447,1.129-0.863c0.033-0.051,0.216-0.746,0.266-0.979
		c0.1-0.051,0.314-0.051,0.432-0.051c0.165,0,0.265,0.033,0.332,0.066c-0.051,0.6-0.167,1.742-0.167,2.572
		c0,0.664,0.1,1.875,0.1,2.322c-0.116,0.066-0.199,0.084-0.331,0.084c-0.133,0-0.35-0.018-0.432-0.066
		c-0.033-0.232-0.133-1.145-0.281-1.376c-0.168-0.266-0.332-0.514-0.748-0.697c-0.447-0.199-0.846-0.232-1.012-0.232h-0.613v3.634
		c0,0.762,0.066,0.762,0.183,1.043c0.116,0.268,0.381,0.664,0.63,0.715c0.148,0.033,0.563,0.084,1.096,0.084h1.326
		c0.615,0,0.996-0.033,1.244-0.184c0.448-0.266,1.262-1.293,1.826-2.57c0.115-0.033,0.248-0.033,0.365-0.033
		c0.133,0,0.165,0,0.248,0.051c0.017,0.148,0.017,0.248,0.017,0.482C88.399,27.46,88.399,28.474,88.367,28.804z"/>
	<path fill="#FFFFFF" d="M105.853,28.274c-0.747,0.694-1.659,0.812-2.854,0.795l-5.01-0.065c-0.448,0-1.892,0.033-2.357,0.033
		c-0.314,0-0.613,0-0.68-0.017c-0.032-0.065-0.05-0.231-0.05-0.299s0.018-0.216,0.083-0.332c0.963,0,1.693-0.183,1.759-0.433
		c0.1-0.348,0.2-0.93,0.249-1.459c0.018-0.447,0.051-1.79,0.051-3.334c0-1.393-0.084-3.717-0.1-3.883
		c-0.018-0.248-0.051-0.529-0.101-0.746c-0.083-0.314-0.314-0.68-0.779-0.748c-0.398-0.049-0.929-0.115-1.179-0.148
		c-0.033-0.098-0.049-0.23-0.049-0.299c0-0.1,0.016-0.182,0.065-0.266c0.083-0.016,0.267-0.016,0.398-0.016h3.933
		c1.013,0,2.156-0.049,2.838-0.049c0.912,0,1.725,0.115,2.205,0.348c1.112,0.514,1.611,1.428,1.611,2.705
		c0,1.045-0.399,1.809-1.096,2.123c-0.217,0.1-0.83,0.266-1.129,0.348c-0.083,0.016-0.299,0.066-0.299,0.133
		c0,0.1,0.283,0.115,0.481,0.15c0.266,0.049,1.013,0.199,1.211,0.281c0.299,0.117,0.995,0.582,1.312,1.18
		c0.281,0.496,0.432,1.062,0.432,1.69C106.799,26.914,106.467,27.692,105.853,28.274z M103.547,24.477
		c-0.481-0.863-0.979-1.08-1.959-1.295c-0.231-0.051-0.613-0.117-1.111-0.117c-0.348,0-0.631,0.018-0.68,0.082
		c0,0.035-0.018,0.234-0.018,0.564v2.937c0,0.48,0.018,0.598,0.051,0.797c0.166,0.365,0.48,0.68,0.829,0.912
		c0.134,0.033,0.515,0.051,0.697,0.051c0.979,0,1.327-0.184,1.809-0.664c0.431-0.465,0.663-1.145,0.663-2.105
		C103.828,25.188,103.729,24.791,103.547,24.477z M102.701,18.668c-0.267-0.498-0.648-0.779-1.162-0.896
		c-0.232-0.066-0.564-0.1-0.945-0.1c-0.217,0-0.482,0.018-0.73,0.018c-0.018,0.516-0.051,2.57-0.051,2.57c0,0.582,0,1.014,0,1.311
		c0,0.465,0.018,0.781,0.051,0.814c0.017,0.033,0.231,0.033,0.48,0.033c0.681,0,1.76-0.184,1.958-0.348
		c0.083-0.066,0.183-0.166,0.282-0.35c0.299-0.498,0.447-1.045,0.447-1.627C103.031,19.58,102.916,19.082,102.701,18.668z"/>
	<path fill="#FFFFFF" d="M120.133,27.278c-0.613,0.681-1.394,1.229-2.306,1.576c-0.813,0.313-1.644,0.479-2.522,0.479
		c-1.443,0-2.688-0.397-3.783-1.192c-1.443-1.078-2.372-2.954-2.372-4.862c0-1.193,0.332-2.338,0.962-3.367
		c0.979-1.643,3.17-3.086,5.592-3.086c1.095,0,2.124,0.283,3.152,0.846c1.924,1.062,2.953,2.855,2.953,5.178
		C121.809,24.592,121.211,26.102,120.133,27.278z M117.859,18.686c-0.497-0.715-1.359-1.145-2.256-1.145
		c-0.582,0-1.162,0.182-1.727,0.646c-1.061,0.879-1.658,2.705-1.658,5.01c0,1.561,0.348,3.351,0.979,4.312
		c0.465,0.748,1.277,1.111,2.207,1.111c0.68,0,1.278-0.197,1.759-0.597c0.946-0.778,1.643-2.985,1.643-5.491
		C118.806,20.809,118.49,19.547,117.859,18.686z"/>
	<path fill="#FFFFFF" d="M134.748,27.278c-0.613,0.681-1.393,1.229-2.305,1.576c-0.812,0.313-1.643,0.479-2.522,0.479
		c-1.444,0-2.688-0.397-3.783-1.192c-1.443-1.078-2.372-2.954-2.372-4.862c0-1.193,0.332-2.338,0.962-3.367
		c0.979-1.643,3.169-3.086,5.592-3.086c1.095,0,2.124,0.283,3.152,0.846c1.925,1.062,2.953,2.855,2.953,5.178
		C136.425,24.592,135.828,26.102,134.748,27.278z M132.476,18.686c-0.497-0.715-1.36-1.145-2.256-1.145
		c-0.581,0-1.161,0.182-1.726,0.646c-1.062,0.879-1.66,2.705-1.66,5.01c0,1.561,0.35,3.351,0.98,4.312
		c0.464,0.748,1.277,1.111,2.206,1.111c0.681,0,1.277-0.197,1.759-0.597c0.945-0.778,1.643-2.985,1.643-5.491
		C133.422,20.809,133.107,19.547,132.476,18.686z"/>
	<path fill="#FFFFFF" d="M152.352,29.021h-0.564c-0.763,0-1.891-0.018-2.77-0.018c-0.582,0-2.107,0.065-2.556,0.065h-0.431
		c-0.051-0.049-0.084-0.198-0.084-0.267c0-0.062,0.033-0.247,0.066-0.312c0.332-0.066,0.979-0.281,1.277-0.466
		c-0.132-0.183-0.414-0.597-1.029-1.228l-2.67-2.788c-0.133-0.133-0.283-0.281-0.365-0.281c-0.083,0-0.199,0.049-0.232,0.1
		l0.066,3.3c0.018,0.631,0.266,0.945,0.597,1.146c0.101,0.065,0.581,0.183,1.112,0.199c0.049,0.049,0.1,0.196,0.1,0.297
		c0,0.084-0.017,0.231-0.066,0.315h-0.581c-0.647,0-1.958-0.065-2.555-0.065c-0.78,0-2.04,0.049-2.688,0.049h-0.713
		c-0.05-0.082-0.05-0.229-0.05-0.299c0-0.065,0.033-0.215,0.065-0.297c0.863-0.084,1.428-0.25,1.645-0.433
		c0.215-0.383,0.248-1.229,0.248-2.619l0.016-5.293c0-0.598-0.016-1.162-0.049-1.344c-0.1-0.465-0.283-0.682-0.614-0.896
		c-0.165-0.117-0.929-0.166-1.146-0.199c-0.065-0.082-0.082-0.199-0.082-0.316c0-0.082,0.017-0.264,0.082-0.314h0.316
		c0.598,0,1.791,0.051,2.406,0.051c0.53,0,1.691-0.018,2.554-0.018h0.962c0.051,0.082,0.101,0.199,0.101,0.266
		s-0.017,0.232-0.033,0.314c-0.614,0.082-0.946,0.166-1.146,0.217c-0.298,0.266-0.414,0.48-0.53,0.846l-0.017,4.43
		c0.232-0.232,0.896-0.93,1.228-1.26c0.73-0.699,1.36-1.328,1.825-1.875c0.714-0.764,1.178-1.277,1.327-1.461
		c0.066-0.1,0.083-0.182,0.083-0.281c-0.017-0.201-0.1-0.266-0.281-0.365c-0.266-0.135-0.863-0.232-1.013-0.266
		c-0.065-0.084-0.05-0.232-0.05-0.316c0-0.082,0.018-0.182,0.066-0.266c0.646,0,1.129,0.051,1.609,0.051
		c0.182,0,1.692-0.033,2.322-0.033h0.498c0.051,0.018,0.083,0.199,0.083,0.266s-0.032,0.25-0.05,0.299
		c-0.764,0.182-1.709,0.43-2.455,1.195l-2.854,2.887c-0.066,0.064-0.084,0.115-0.184,0.229c0.133,0.15,0.383,0.432,0.697,0.732
		c0.365,0.348,0.913,0.945,1.643,1.656c0.863,0.849,1.527,1.526,2.008,2.04c0.498,0.531,0.896,0.965,1.427,1.461
		c0.183,0.184,0.647,0.498,1.427,0.58c0.033,0.068,0.084,0.232,0.084,0.283C152.436,28.771,152.401,28.937,152.352,29.021z"/>
	<path fill="#FFFFFF" d="M158.688,29.285c-1.046,0-1.892-0.08-3.053-0.664c-0.166-0.08-0.432-0.23-0.531-0.23
		c-0.116,0-0.481,0.23-0.847,0.531c-0.231,0-0.713-0.166-0.762-0.332c0.033-0.266,0.182-0.863,0.182-1.676
		c0-0.332-0.066-1.51-0.066-1.727c0.117-0.064,0.217-0.098,0.315-0.098c0.116,0,0.349,0,0.464,0.033
		c0.167,0.646,0.797,1.654,1.179,2.17c0.647,0.896,1.858,1.277,2.604,1.277c0.697,0,1.328-0.197,1.742-0.68
		c0.465-0.514,0.664-0.963,0.664-1.477c0-0.797-0.414-1.358-1.742-1.839c-0.299-0.1-2.522-0.748-3.003-0.963
		c-0.714-0.299-1.228-0.715-1.593-1.262c-0.398-0.646-0.598-1.361-0.598-2.074c0-1.891,1.643-3.367,3.899-3.367
		c1.046,0,1.94,0.1,3.119,0.996c0.232-0.217,0.464-0.449,0.714-0.6c0.248,0,0.58,0.033,0.729,0.234
		c-0.05,0.297-0.149,1.176-0.149,1.607c0,0.498,0.083,0.996,0.133,1.412c-0.1,0.082-0.216,0.164-0.365,0.164
		c-0.05,0-0.348-0.016-0.397-0.033c-0.365-0.846-0.714-1.275-1.112-1.857c-0.48-0.713-1.261-1.195-2.207-1.195
		c-1.062,0-2.023,0.83-2.023,1.727c0,0.58,0.531,1.326,0.896,1.51c0.547,0.266,1.393,0.547,2.422,0.812
		c0.879,0.232,1.525,0.48,1.875,0.697c1.277,0.713,1.875,1.676,1.875,3.202C163.053,28.009,161.21,29.285,158.688,29.285z"/>
	<path fill="#FFFFFF" d="M179.194,29.069h-0.646c-0.415,0-0.896-0.049-1.378-0.049c-0.779,0-1.775,0.049-2.156,0.049
		c-0.051-0.032-0.066-0.114-0.066-0.198c0-0.066,0.016-0.131,0.049-0.199c0.797-0.033,1.129-0.164,1.129-0.496
		c0-0.133-0.017-0.398-0.266-1.062c-0.232-0.596-0.365-0.878-0.432-1.027c-0.033-0.049-0.049-0.082-0.232-0.082h-2.588
		c-0.166,0.197-0.382,0.775-0.613,1.572c-0.051,0.201-0.051,0.4-0.051,0.467c0,0.265,0.25,0.578,1.162,0.597
		c0.049,0.103,0.066,0.166,0.066,0.231c0,0.051,0,0.117-0.033,0.182h-0.216c-0.614,0-0.796-0.03-1.427-0.03
		c-0.432,0-1.443,0.03-1.775,0.03c-0.033-0.062-0.05-0.098-0.05-0.161c0-0.067,0-0.119,0.05-0.22c0.48-0.1,0.945-0.248,1.178-0.598
		c0.133-0.199,0.564-0.961,1.045-2.138c0.449-1.096,1.013-2.488,1.262-3.07c0.332-0.713,0.447-0.945,0.564-1.193
		c0.183-0.365,0.365-0.73,0.447-0.863c0.066-0.1,0.232-0.148,0.315-0.148c0.134,0,0.299,0.082,0.364,0.164
		c0.084,0.15,0.167,0.316,0.2,0.414c0.464,1.129,0.846,2.143,1.442,3.553c0.299,0.712,0.449,1.16,0.781,1.908
		c0.215,0.463,0.364,0.811,0.58,1.241c0.314,0.615,0.812,0.632,1.294,0.746c0.034,0.067,0.083,0.117,0.083,0.203
		C179.277,28.955,179.244,29.003,179.194,29.069z M174.002,22.549h-0.018c-0.166,0.316-0.48,1.031-0.598,1.328
		c-0.431,1.064-0.58,1.428-0.663,1.578h2.456C174.996,24.973,174.367,23.463,174.002,22.549z"/>
	<path fill="#FFFFFF" d="M190.742,21.256c-0.83,0.033-1.561,0.482-1.561,1.826l-0.016,4.229c0,0.166,0.065,1.358,0.065,1.823
		c-0.116,0.084-0.265,0.136-0.331,0.136c-0.051,0-0.116-0.052-0.217-0.136l-5.807-6.252l0.066,1.277l0.017,2.303
		c0,0.185,0.033,0.615,0.066,0.931c0.05,0.517,0.199,0.696,0.415,0.881c0.298,0.248,0.779,0.332,1.111,0.363
		c0.033,0.065,0.05,0.133,0.05,0.184c0,0.033-0.017,0.134-0.067,0.216h-0.629c-0.531,0-0.946-0.017-1.51-0.017
		c-0.365,0-0.863,0.03-1.228,0.03h-0.267c-0.017-0.049-0.033-0.147-0.033-0.182c0-0.049,0-0.115,0.05-0.215
		c0.415-0.035,1.062-0.232,1.311-0.564c0.101-0.217,0.134-0.598,0.134-0.996v-2.951c0-0.48-0.018-0.713-0.033-1.178
		c-0.018-0.381-0.101-0.664-0.283-0.895c-0.033-0.051-0.215-0.25-0.414-0.432c-0.183-0.166-0.646-0.299-0.93-0.416
		c-0.033-0.066-0.049-0.166-0.049-0.182c0-0.051,0.016-0.148,0.049-0.217h0.216c0.167,0,1.062,0.051,1.743,0.051h0.396
		c0.084,0.033,0.217,0.115,0.267,0.166l4.298,4.693c0.33,0.367,0.746,0.848,0.979,1.146v-3.384c0-0.465-0.033-0.779-0.05-0.947
		c-0.033-0.348-0.116-0.645-0.249-0.877c-0.133-0.217-0.93-0.332-1.344-0.416c-0.033-0.082-0.051-0.182-0.051-0.248
		c0-0.049,0-0.1,0.033-0.184h0.25c0.398,0,1.044,0.068,1.443,0.068c0.979,0,1.293-0.033,1.791-0.033h0.316
		c0.033,0.064,0.049,0.148,0.049,0.197C190.791,21.09,190.775,21.189,190.742,21.256z"/>
	<path fill="#FFFFFF" d="M201.625,27.429c-0.914,1.258-1.958,1.641-3.949,1.641c-0.398,0-1.095-0.033-1.908-0.033
		c-1.775,0-2.107,0.033-2.521,0.033h-0.199c-0.033-0.066-0.051-0.133-0.051-0.199c0-0.049,0-0.115,0.051-0.215
		c0.847-0.035,1.145-0.182,1.327-0.48c0.05-0.065,0.183-0.416,0.183-1.178v-1.908c0-1.759-0.066-2.489-0.083-2.722
		c-0.05-0.48-0.05-1.061-1.394-1.061c-0.017-0.084-0.05-0.166-0.05-0.232c0-0.066,0.017-0.115,0.067-0.199h0.596
		c0.299,0,0.714,0.018,0.996,0.018c0.415,0,1.957-0.1,2.904-0.1c1.111,0,2.023,0.264,2.671,0.613
		c1.394,0.729,2.056,2.273,2.056,3.699C202.32,25.869,202.09,26.748,201.625,27.429z M199.219,22.053
		c-0.646-0.482-1.41-0.746-2.438-0.746c-0.315,0-0.415,0.033-0.631,0.066l-0.017,0.115v5.739c0,0.465,0.066,0.765,0.248,0.963
		c0.233,0.267,0.465,0.397,0.848,0.397c1.045,0,1.809-0.299,2.389-0.996c0.598-0.68,0.912-1.508,0.912-2.568
		C200.529,23.68,200.131,22.732,199.219,22.053z"/>
	<path fill="#FFFFFF" d="M215.312,29.285c-1.046,0-1.892-0.08-3.054-0.664c-0.165-0.08-0.432-0.23-0.529-0.23
		c-0.117,0-0.482,0.23-0.848,0.531c-0.232,0-0.713-0.166-0.764-0.332c0.034-0.266,0.184-0.863,0.184-1.676
		c0-0.332-0.066-1.51-0.066-1.727c0.115-0.064,0.217-0.098,0.315-0.098c0.116,0,0.348,0,0.465,0.033
		c0.166,0.646,0.796,1.654,1.178,2.17c0.647,0.896,1.858,1.277,2.604,1.277c0.697,0,1.327-0.197,1.742-0.68
		c0.465-0.514,0.664-0.963,0.664-1.477c0-0.797-0.416-1.358-1.742-1.839c-0.299-0.1-2.521-0.748-3.004-0.963
		c-0.713-0.299-1.228-0.715-1.592-1.262c-0.398-0.646-0.598-1.361-0.598-2.074c0-1.891,1.643-3.367,3.898-3.367
		c1.046,0,1.941,0.1,3.12,0.996c0.231-0.217,0.464-0.449,0.713-0.6c0.249,0,0.581,0.033,0.729,0.234
		c-0.05,0.297-0.148,1.176-0.148,1.607c0,0.498,0.082,0.996,0.132,1.412c-0.099,0.082-0.215,0.164-0.364,0.164
		c-0.05,0-0.349-0.016-0.398-0.033c-0.365-0.846-0.713-1.275-1.111-1.857c-0.48-0.713-1.261-1.195-2.207-1.195
		c-1.062,0-2.024,0.83-2.024,1.727c0,0.58,0.531,1.326,0.897,1.51c0.547,0.266,1.393,0.547,2.422,0.812
		c0.879,0.232,1.525,0.48,1.875,0.697c1.276,0.713,1.875,1.676,1.875,3.202C219.676,28.009,217.834,29.285,215.312,29.285z"/>
	<path fill="#FFFFFF" d="M230.89,23.131c-0.516,0.166-1.161,0.299-1.926,0.299c-0.58,0-1.643-0.033-2.637-0.1l0.049,3.649
		c0,0.498,0.166,0.778,0.332,0.979c0.314,0.365,1.062,0.465,1.56,0.531c0.035,0.065,0.035,0.196,0.035,0.299
		c0,0.082,0,0.198-0.052,0.264h-0.414c-0.614,0-2.125-0.064-3.602-0.064c-0.597,0-2.156,0.064-2.688,0.064
		c-0.033-0.082-0.049-0.098-0.049-0.23c0-0.15,0.016-0.266,0.031-0.348c0.35-0.035,0.715-0.117,0.963-0.168
		c0.547-0.164,0.879-0.68,0.945-1.178c0.049-0.398,0.066-2.237,0.066-5.739c0-1.26-0.033-1.99-0.084-2.57
		c-0.101-0.482-0.166-0.697-0.446-0.947c-0.332-0.084-0.847-0.166-1.162-0.264c-0.05-0.084-0.05-0.268-0.05-0.334
		c0-0.064,0.033-0.182,0.083-0.264c0.514,0,1.442,0.064,2.058,0.064c0.879,0,2.87-0.098,4.146-0.098
		c1.461,0,2.424,0.148,2.972,0.381c1.062,0.48,1.774,1.643,1.774,2.887C232.798,21.521,232.068,22.682,230.89,23.131z
		 M229.462,18.586c-0.332-0.697-1.027-0.979-2.156-0.979c-0.48,0-0.764,0.064-0.963,0.082l-0.016,4.859
		c0,0.086,0.082,0.102,0.215,0.117c0.101,0.016,0.365,0.035,0.713,0.035c0.83,0,1.377-0.168,1.728-0.449
		c0.547-0.48,0.847-1.229,0.847-2.074C229.828,19.596,229.695,19.033,229.462,18.586z"/>
	<path fill="#FFFFFF" d="M246.085,28.804c-0.016,0.15-0.016,0.184-0.063,0.266c-0.167,0.051-0.315,0.033-0.448,0.033
		c-3.353,0-4.879-0.1-5.408-0.1c-0.963,0-1.761-0.033-2.174-0.033c-0.449,0-2.406,0.051-2.938,0.051h-0.549
		c-0.049-0.084-0.082-0.199-0.082-0.299c0-0.102,0.033-0.266,0.082-0.365c0.664-0.033,1.345-0.133,1.494-0.248
		c0.1-0.15,0.332-0.93,0.364-1.576c0.019-0.412,0.032-1.427,0.032-2.124V20.99c0-0.764-0.016-1.725-0.049-2.074
		c-0.148-0.795-0.365-0.879-0.598-1.078c-0.23-0.133-1.013-0.115-1.211-0.182c-0.05-0.066-0.082-0.248-0.082-0.332
		c0-0.066,0.033-0.199,0.082-0.266h0.563c0.433,0,1.278,0.033,2.272,0.033c0.68,0,2.289-0.018,3.069-0.018
		c1.442,0,1.825-0.016,2.771-0.016c0.664,0,1.295,0.033,1.427,0.033c0.332,0,0.364,0.051,0.383,0.215
		c0.033,0.416,0.101,1.727,0.101,2.74c-0.133,0.064-0.15,0.098-0.25,0.098c-0.084,0-0.248,0-0.349-0.033
		c-0.481-0.812-0.962-1.576-1.594-2.057c-0.248-0.199-0.597-0.301-1.062-0.332c-0.148,0-0.597-0.018-1.56-0.018
		c-0.763,0-0.847,0.018-0.996,0.033c-0.017,0.15-0.05,0.365-0.067,0.564c-0.016,0.299-0.049,0.812-0.049,2.406v1.543h0.35
		c0.232,0,0.664-0.051,0.963-0.133c0.447-0.133,0.879-0.447,1.128-0.863c0.032-0.051,0.216-0.746,0.266-0.979
		c0.101-0.051,0.314-0.051,0.433-0.051c0.164,0,0.265,0.033,0.33,0.066c-0.049,0.6-0.166,1.742-0.166,2.572
		c0,0.664,0.101,1.875,0.101,2.322c-0.115,0.066-0.198,0.084-0.331,0.084s-0.35-0.018-0.432-0.066
		c-0.033-0.232-0.133-1.145-0.283-1.376c-0.165-0.266-0.331-0.514-0.746-0.697c-0.448-0.199-0.846-0.232-1.012-0.232h-0.613v3.634
		c0,0.762,0.064,0.762,0.182,1.043c0.116,0.268,0.383,0.664,0.631,0.715c0.148,0.033,0.564,0.084,1.097,0.084h1.325
		c0.615,0,0.996-0.033,1.244-0.184c0.449-0.266,1.262-1.293,1.826-2.57c0.115-0.033,0.248-0.033,0.364-0.033
		c0.132,0,0.167,0,0.249,0.051c0.018,0.148,0.018,0.248,0.018,0.482C246.121,27.46,246.121,28.474,246.085,28.804z"/>
	<path fill="#FFFFFF" d="M258.214,27.509c-0.748,1.014-2.225,1.775-4.248,1.775c-1.608,0-2.952-0.445-3.864-1.109
		c-1.442-1.096-2.354-2.838-2.354-4.96c0-1.992,0.629-3.586,1.772-4.713c1.047-1.045,2.424-1.625,4.165-1.625
		c1.893,0,2.754,0.514,3.684,1.178c0.231-0.283,0.315-0.498,0.563-0.682c0.217,0.018,0.549,0.084,0.647,0.184
		c0,0.314-0.133,1.129-0.133,1.625c0,0.398,0.166,1.693,0.182,1.875c-0.065,0.066-0.297,0.148-0.397,0.148
		c-0.149,0-0.299-0.031-0.364-0.049c-0.267-0.879-0.562-1.643-0.846-2.023c-0.682-0.879-1.577-1.494-2.654-1.494
		c-1.295,0-2.357,0.615-3.087,2.539c-0.315,0.715-0.497,1.693-0.497,2.904c0,1.275,0.313,2.47,0.53,3.02
		c0.397,1.026,1.627,2.188,3.353,2.188c1.244,0,2.338-0.531,3.334-1.94c0.033,0,0.082-0.017,0.117-0.017
		c0.381,0,0.514,0.248,0.562,0.396C258.544,27.013,258.514,27.112,258.214,27.509z"/>
	<path fill="#FFFFFF" d="M266.858,29.037h-0.548c-0.547,0-2.273-0.05-2.521-0.05c-0.863,0-2.521,0.082-3.187,0.082h-0.282
		c0-0.082-0.031-0.147-0.031-0.28c0-0.066,0.017-0.281,0.049-0.351c1.211-0.082,1.41-0.381,1.608-0.547
		c0.116-0.216,0.199-0.599,0.234-0.994c0.015-0.581,0.048-1.659,0.048-2.14c0-0.963-0.016-2.123-0.033-2.955
		c-0.015-1.525-0.033-2.207-0.05-2.521c-0.065-0.896-0.349-1.26-0.548-1.41c-0.114-0.084-0.48-0.166-1.293-0.232
		c-0.018-0.082-0.035-0.248-0.035-0.314c0-0.15,0.035-0.215,0.084-0.283h0.365c0.73,0.018,2.357,0.068,2.703,0.068
		c0.564,0,2.19-0.084,2.889-0.084h0.48c0.035,0.033,0.082,0.166,0.082,0.266c0,0.066-0.016,0.25-0.047,0.316
		c-0.533,0.064-1.164,0.131-1.479,0.43c-0.115,0.1-0.3,0.449-0.3,0.896v4.082c0,1.541,0.018,3.185,0.035,3.981
		c0.114,0.596,0.297,0.961,0.562,1.276c0.299,0.065,0.979,0.134,1.227,0.147c0.034,0.066,0.051,0.248,0.051,0.332
		C266.923,28.821,266.908,28.955,266.858,29.037z"/>
	<path fill="#FFFFFF" d="M281.541,29.052c-1.078,0-2.406-0.049-3.436-0.049c-0.629,0-1.359,0.033-1.643,0.033h-1.244
		c-0.084-0.066-0.1-0.232-0.115-0.297c0-0.068,0.016-0.199,0.1-0.302c0.646-0.03,0.994-0.099,1.229-0.215
		c0.148-0.166,0.23-0.479,0.23-0.812c-0.065-0.25-0.199-0.648-0.432-1.311c-0.132-0.398-0.266-0.73-0.381-1.012
		c-0.066-0.117-0.215-0.381-0.35-0.482c-0.695,0.016-2.556-0.016-3.715,0.033c-0.102,0.184-0.184,0.398-0.25,0.613l-0.631,1.939
		c0.067,0.549,0.25,0.914,0.48,1.129c0.148,0.066,0.599,0.133,1.013,0.166c0.049,0.082,0.084,0.215,0.067,0.281
		c0,0.068-0.02,0.199-0.067,0.299h-0.446c-0.599,0-1.246-0.066-1.875-0.066c-0.582,0-1.593,0.033-1.941,0.033
		c-0.051-0.082-0.066-0.182-0.066-0.266c0.016-0.066,0.051-0.23,0.066-0.314c0.714-0.199,1.477-0.383,1.742-0.979
		c0.498-1.21,0.381-0.896,1.178-3.001c0.812-2.16,1.41-3.668,1.775-4.531c0.465-1.062,0.696-1.658,0.746-1.775
		c0.166-0.447,0.364-0.83,0.514-0.961c0.102-0.117,0.449-0.232,0.582-0.232c0.166,0,0.847,0.133,0.945,0.264
		c0.032,0.051,0.1,0.184,0.148,0.316l0.729,1.809l2.49,6.205c0.314,0.764,0.463,1.11,0.746,1.773
		c0.132,0.332,0.332,0.714,0.432,0.798c0.082,0.065,0.945,0.297,1.377,0.364c0.033,0.064,0.084,0.216,0.101,0.281
		C281.641,28.854,281.589,29.003,281.541,29.052z M274.971,22.949c-0.267-0.73-0.83-2.141-1.146-2.887
		c-0.051-0.1-0.1-0.217-0.15-0.332c-0.182,0.447-0.396,0.945-0.713,1.725c-0.465,1.18-0.846,2.256-0.912,2.488h2.009
		c0.464,0,0.928,0,1.228-0.066C275.186,23.529,275.119,23.314,274.971,22.949z"/>
	<path fill="#FFFFFF" d="M294.182,28.49c-0.033,0.465-0.05,0.514-0.349,0.514c-0.348,0-2.588,0.049-4.844,0.049
		c-1.295,0-2.307-0.016-3.353-0.016c-0.714,0-1.892,0.051-2.472,0.051h-0.334c-0.031-0.066-0.049-0.217-0.049-0.283
		c0-0.082,0.032-0.232,0.049-0.297c0.398-0.117,1.113-0.283,1.528-0.482c0.132-0.232,0.216-0.73,0.229-1.326
		c0-0.283,0.018-0.912,0.018-2.222c0-0.533-0.031-2.092-0.083-4.299c-0.017-0.846-0.049-1.492-0.101-1.658
		c-0.082-0.25-0.215-0.531-0.547-0.682c-0.264-0.066-0.646-0.051-1.045-0.148c-0.033-0.066-0.051-0.25-0.051-0.332
		c0-0.117,0.033-0.199,0.084-0.266l6.256-0.018c0.049,0.035,0.065,0.199,0.065,0.283c0,0.082-0.017,0.25-0.065,0.299
		c-0.765,0.033-1.711,0.016-1.711,1.26v1.893l0.101,6.204c0,0.314,0.3,0.779,0.53,0.979c0.332,0.283,0.73,0.432,1.41,0.432
		c0.963,0,1.277-0.198,2.025-0.58c0.928-0.479,1.594-1.559,2.073-2.719c0.083-0.033,0.249-0.051,0.331-0.051
		c0.133,0,0.232,0.018,0.332,0.082c0.018,0.631,0.018,1.623,0.018,1.824C294.232,27.46,294.216,27.976,294.182,28.49z"/>
	<path fill="#FFFFFF" d="M311.634,27.509c-0.746,1.014-2.221,1.775-4.248,1.775c-1.607,0-2.952-0.445-3.864-1.109
		c-1.442-1.096-2.354-2.838-2.354-4.96c0-1.992,0.631-3.586,1.774-4.713c1.045-1.045,2.423-1.625,4.165-1.625
		c1.891,0,2.754,0.514,3.684,1.178c0.232-0.283,0.312-0.498,0.562-0.682c0.217,0.018,0.549,0.084,0.646,0.184
		c0,0.314-0.131,1.129-0.131,1.625c0,0.398,0.164,1.693,0.182,1.875c-0.066,0.066-0.299,0.148-0.396,0.148
		c-0.148,0-0.301-0.031-0.365-0.049c-0.266-0.879-0.564-1.643-0.848-2.023c-0.68-0.879-1.574-1.494-2.654-1.494
		c-1.293,0-2.355,0.615-3.086,2.539c-0.316,0.715-0.498,1.693-0.498,2.904c0,1.275,0.315,2.47,0.53,3.02
		c0.397,1.026,1.628,2.188,3.353,2.188c1.246,0,2.34-0.531,3.336-1.94c0.033,0,0.084-0.017,0.115-0.017
		c0.383,0,0.516,0.248,0.562,0.396C311.968,27.013,311.933,27.112,311.634,27.509z"/>
	<path fill="#FFFFFF" d="M324.875,27.278c-0.613,0.681-1.395,1.229-2.307,1.576c-0.814,0.313-1.643,0.479-2.521,0.479
		c-1.443,0-2.688-0.397-3.783-1.192c-1.441-1.078-2.373-2.954-2.373-4.862c0-1.193,0.332-2.338,0.963-3.367
		c0.98-1.643,3.17-3.086,5.592-3.086c1.096,0,2.125,0.283,3.152,0.846c1.926,1.062,2.951,2.855,2.951,5.178
		C326.548,24.592,325.953,26.102,324.875,27.278z M322.601,18.686c-0.498-0.715-1.359-1.145-2.256-1.145
		c-0.582,0-1.162,0.182-1.727,0.646c-1.062,0.879-1.658,2.705-1.658,5.01c0,1.561,0.348,3.351,0.979,4.312
		c0.465,0.748,1.277,1.111,2.207,1.111c0.68,0,1.277-0.197,1.758-0.597c0.945-0.778,1.643-2.985,1.643-5.491
		C323.546,20.809,323.232,19.547,322.601,18.686z"/>
	<path fill="#FFFFFF" d="M339.873,28.49c-0.035,0.465-0.051,0.514-0.35,0.514c-0.348,0-2.588,0.049-4.846,0.049
		c-1.293,0-2.307-0.016-3.352-0.016c-0.713,0-1.891,0.051-2.473,0.051h-0.33c-0.033-0.066-0.051-0.217-0.051-0.283
		c0-0.082,0.031-0.232,0.051-0.297c0.396-0.117,1.111-0.283,1.525-0.482c0.131-0.232,0.215-0.73,0.23-1.326
		c0-0.283,0.018-0.912,0.018-2.222c0-0.533-0.033-2.092-0.082-4.299c-0.016-0.846-0.049-1.492-0.1-1.658
		c-0.084-0.25-0.217-0.531-0.549-0.682c-0.264-0.066-0.646-0.051-1.045-0.148c-0.033-0.066-0.051-0.25-0.051-0.332
		c0-0.117,0.033-0.199,0.082-0.266l6.258-0.018c0.049,0.035,0.064,0.199,0.064,0.283c0,0.082-0.016,0.25-0.064,0.299
		c-0.764,0.033-1.711,0.016-1.711,1.26v1.893l0.1,6.204c0,0.314,0.301,0.779,0.533,0.979c0.33,0.283,0.73,0.432,1.408,0.432
		c0.963,0,1.277-0.198,2.025-0.58c0.928-0.479,1.592-1.559,2.072-2.719c0.084-0.033,0.25-0.051,0.334-0.051
		c0.131,0,0.23,0.018,0.33,0.082c0.018,0.631,0.018,1.623,0.018,1.824C339.921,27.46,339.906,27.976,339.873,28.49z"/>
	<path fill="#FFFFFF" d="M352.945,28.49c-0.033,0.465-0.049,0.514-0.348,0.514c-0.35,0-2.588,0.049-4.846,0.049
		c-1.295,0-2.307-0.016-3.352-0.016c-0.715,0-1.893,0.051-2.473,0.051h-0.332c-0.033-0.066-0.049-0.217-0.049-0.283
		c0-0.082,0.033-0.232,0.049-0.297c0.396-0.117,1.111-0.283,1.527-0.482c0.131-0.232,0.215-0.73,0.23-1.326
		c0-0.283,0.018-0.912,0.018-2.222c0-0.533-0.033-2.092-0.084-4.299c-0.018-0.846-0.049-1.492-0.1-1.658
		c-0.082-0.25-0.215-0.531-0.547-0.682c-0.266-0.066-0.648-0.051-1.047-0.148c-0.033-0.066-0.049-0.25-0.049-0.332
		c0-0.117,0.033-0.199,0.084-0.266l6.256-0.018c0.047,0.035,0.064,0.199,0.064,0.283c0,0.082-0.02,0.25-0.064,0.299
		c-0.766,0.033-1.711,0.016-1.711,1.26v1.893l0.1,6.204c0,0.314,0.299,0.779,0.531,0.979c0.332,0.283,0.73,0.432,1.41,0.432
		c0.963,0,1.277-0.198,2.023-0.58c0.93-0.479,1.594-1.559,2.072-2.719c0.082-0.033,0.25-0.051,0.334-0.051
		c0.133,0,0.23,0.018,0.33,0.082c0.02,0.631,0.02,1.623,0.02,1.824C352.996,27.46,352.978,27.976,352.945,28.49z"/>
	<path fill="#FFFFFF" d="M366.101,28.804c-0.016,0.15-0.016,0.184-0.064,0.266c-0.168,0.051-0.314,0.033-0.447,0.033
		c-3.354,0-4.879-0.1-5.41-0.1c-0.963,0-1.76-0.033-2.174-0.033c-0.447,0-2.406,0.051-2.936,0.051h-0.547
		c-0.053-0.084-0.086-0.199-0.086-0.299c0-0.102,0.033-0.266,0.086-0.365c0.66-0.033,1.342-0.133,1.49-0.248
		c0.102-0.15,0.332-0.93,0.365-1.576c0.02-0.412,0.033-1.427,0.033-2.124V20.99c0-0.764-0.016-1.725-0.049-2.074
		c-0.15-0.795-0.365-0.879-0.598-1.078c-0.232-0.133-1.012-0.115-1.211-0.182c-0.051-0.066-0.084-0.248-0.084-0.332
		c0-0.066,0.033-0.199,0.084-0.266h0.562c0.432,0,1.277,0.033,2.273,0.033c0.68,0,2.289-0.018,3.068-0.018
		c1.443,0,1.824-0.016,2.771-0.016c0.664,0,1.295,0.033,1.426,0.033c0.334,0,0.367,0.051,0.385,0.215
		c0.031,0.416,0.098,1.727,0.098,2.74c-0.133,0.064-0.148,0.098-0.248,0.098c-0.084,0-0.25,0-0.35-0.033
		c-0.48-0.812-0.961-1.576-1.592-2.057c-0.25-0.199-0.598-0.301-1.062-0.332c-0.148,0-0.598-0.018-1.561-0.018
		c-0.762,0-0.846,0.018-0.994,0.033c-0.018,0.15-0.051,0.365-0.066,0.564c-0.018,0.299-0.051,0.812-0.051,2.406v1.543h0.35
		c0.23,0,0.662-0.051,0.963-0.133c0.447-0.133,0.879-0.447,1.129-0.863c0.033-0.051,0.215-0.746,0.264-0.979
		c0.102-0.051,0.316-0.051,0.434-0.051c0.164,0,0.266,0.033,0.33,0.066c-0.049,0.6-0.166,1.742-0.166,2.572
		c0,0.664,0.102,1.875,0.102,2.322c-0.115,0.066-0.199,0.084-0.332,0.084s-0.348-0.018-0.432-0.066
		c-0.033-0.232-0.133-1.145-0.281-1.376c-0.166-0.266-0.332-0.514-0.748-0.697c-0.447-0.199-0.846-0.232-1.012-0.232h-0.613v3.634
		c0,0.762,0.066,0.762,0.182,1.043c0.117,0.268,0.383,0.664,0.631,0.715c0.148,0.033,0.564,0.084,1.098,0.084h1.324
		c0.615,0,0.996-0.033,1.246-0.184c0.447-0.266,1.26-1.293,1.822-2.57c0.119-0.033,0.25-0.033,0.365-0.033
		c0.135,0,0.168,0,0.25,0.051c0.018,0.148,0.018,0.248,0.018,0.482C366.134,27.46,366.134,28.474,366.101,28.804z"/>
	<path fill="#FFFFFF" d="M378.228,27.509c-0.746,1.014-2.223,1.775-4.246,1.775c-1.609,0-2.953-0.445-3.867-1.109
		c-1.443-1.096-2.355-2.838-2.355-4.96c0-1.992,0.631-3.586,1.775-4.713c1.045-1.045,2.422-1.625,4.166-1.625
		c1.889,0,2.754,0.514,3.684,1.178c0.23-0.283,0.312-0.498,0.562-0.682c0.215,0.018,0.549,0.084,0.646,0.184
		c0,0.314-0.133,1.129-0.133,1.625c0,0.398,0.166,1.693,0.182,1.875c-0.064,0.066-0.299,0.148-0.396,0.148
		c-0.148,0-0.299-0.031-0.365-0.049c-0.266-0.879-0.562-1.643-0.846-2.023c-0.682-0.879-1.576-1.494-2.656-1.494
		c-1.293,0-2.354,0.615-3.084,2.539c-0.316,0.715-0.5,1.693-0.5,2.904c0,1.275,0.318,2.47,0.533,3.02
		c0.396,1.026,1.625,2.188,3.35,2.188c1.246,0,2.342-0.531,3.336-1.94c0.033,0,0.084-0.017,0.117-0.017
		c0.381,0,0.514,0.248,0.564,0.396C378.56,27.013,378.527,27.112,378.228,27.509z"/>
	<path fill="#FFFFFF" d="M392.328,20.824c-0.1,0-0.184,0-0.283-0.031c-0.299-0.781-0.596-1.428-0.877-1.811
		c-0.449-0.596-0.947-0.979-1.977-1.26c-0.498-0.018-1.012,0-1.244,0c0,2.871-0.018,3.916-0.018,5.459
		c0,1.193,0.018,1.875,0.033,3.665c0,0.581,0.1,1.062,0.148,1.243c0.465,0.349,1.527,0.316,1.709,0.316
		c0.051,0.082,0.066,0.199,0.066,0.297c0,0.084,0,0.266-0.051,0.348h-0.465c-1.012,0-2.553-0.049-3.035-0.049
		c-0.598,0-2.041,0.066-2.654,0.066h-0.646c-0.018-0.066-0.018-0.199-0.018-0.266c0-0.133,0-0.264,0.051-0.381
		c1.99-0.082,1.908-0.432,1.975-0.896c0.033-0.264,0.051-1.357,0.051-3.798c0-2.82,0-3.336-0.018-4.529
		c-0.018-0.697-0.033-1.277-0.049-1.461c-0.268,0-1.229,0.016-1.729,0.066c-0.879,0.449-1.576,1.262-2.322,2.771
		c-0.064,0.033-0.299,0.033-0.363,0.033c-0.082,0-0.199-0.016-0.268-0.066v-3.17c0-0.23,0.068-0.281,0.283-0.281h1.229
		c0.93,0,2.621,0.033,4.68,0.033c2.652,0,5.258-0.066,5.756-0.066c0.25,0,0.348,0.066,0.348,0.314v3.387
		C392.609,20.793,392.392,20.824,392.328,20.824z"/>
	<path fill="#FFFFFF" d="M400.656,29.037h-0.547c-0.549,0-2.275-0.05-2.523-0.05c-0.863,0-2.521,0.082-3.186,0.082h-0.283
		c0-0.082-0.033-0.147-0.033-0.28c0-0.066,0.018-0.281,0.051-0.351c1.211-0.082,1.41-0.381,1.609-0.547
		c0.115-0.216,0.199-0.599,0.23-0.994c0.018-0.581,0.053-1.659,0.053-2.14c0-0.963-0.018-2.123-0.035-2.955
		c-0.018-1.525-0.031-2.207-0.049-2.521c-0.066-0.896-0.35-1.26-0.549-1.41c-0.113-0.084-0.48-0.166-1.293-0.232
		c-0.018-0.082-0.031-0.248-0.031-0.314c0-0.15,0.031-0.215,0.082-0.283h0.365c0.729,0.018,2.354,0.068,2.703,0.068
		c0.564,0,2.189-0.084,2.889-0.084h0.479c0.033,0.033,0.082,0.166,0.082,0.266c0,0.066-0.016,0.25-0.049,0.316
		c-0.531,0.064-1.162,0.131-1.477,0.43c-0.117,0.1-0.299,0.449-0.299,0.896v4.082c0,1.541,0.018,3.185,0.033,3.981
		c0.115,0.596,0.297,0.961,0.562,1.276c0.299,0.065,0.98,0.134,1.229,0.147c0.033,0.066,0.049,0.248,0.049,0.332
		C400.72,28.821,400.705,28.955,400.656,29.037z"/>
	<path fill="#FFFFFF" d="M413.462,27.278c-0.613,0.681-1.393,1.229-2.307,1.576c-0.812,0.313-1.643,0.479-2.521,0.479
		c-1.441,0-2.688-0.397-3.783-1.192c-1.443-1.078-2.373-2.954-2.373-4.862c0-1.193,0.332-2.338,0.965-3.367
		c0.979-1.643,3.166-3.086,5.59-3.086c1.096,0,2.123,0.283,3.152,0.846c1.926,1.062,2.953,2.855,2.953,5.178
		C415.14,24.592,414.542,26.102,413.462,27.278z M411.191,18.686c-0.498-0.715-1.361-1.145-2.26-1.145
		c-0.58,0-1.158,0.182-1.725,0.646c-1.061,0.879-1.658,2.705-1.658,5.01c0,1.561,0.35,3.351,0.979,4.312
		c0.465,0.748,1.277,1.111,2.207,1.111c0.68,0,1.275-0.197,1.758-0.597c0.947-0.778,1.643-2.985,1.643-5.491
		C412.136,20.809,411.82,19.547,411.191,18.686z"/>
	<path fill="#FFFFFF" d="M430.517,17.572c-1.143,0.051-2.123,0.633-2.123,2.705v6.917c0,0.25,0.018,0.746,0.018,1.229
		c0,0.397-0.115,0.664-0.148,0.746c-0.066,0.035-0.115,0.035-0.197,0.035c-0.084,0-0.385-0.019-0.467-0.103l-7.666-8.608
		c-0.082-0.102-0.197-0.25-0.297-0.365c-0.018,0.58-0.033,1.725-0.033,3.035c0,0.979,0.016,1.709,0.016,2.24
		c0,0.58,0.1,1.809,0.217,2.057c0.562,0.748,1.41,0.881,1.99,1.029c0.033,0.065,0.051,0.196,0.051,0.266
		c0,0.065-0.018,0.266-0.082,0.281h-0.996c-0.682,0-1.18-0.05-1.908-0.05c-0.498,0-1.262,0.05-1.594,0.05h-0.314
		c-0.033-0.017-0.051-0.183-0.051-0.232c0-0.082,0.035-0.215,0.066-0.297c0.863-0.217,1.395-0.482,1.744-0.848
		c0.049-0.281,0.1-0.714,0.1-1.263c0-1.175,0-1.624,0-3.366c0-1.16,0.049-2.371,0.049-3.234c0-0.232-0.018-0.416-0.066-0.531
		c-0.148-0.332-0.613-0.746-0.879-1.045c-0.449-0.482-0.996-0.564-1.244-0.631c-0.018-0.049-0.049-0.283-0.049-0.316
		c0-0.064,0.031-0.164,0.064-0.232c0.281,0,2.207,0.051,3.27,0.051c0.133,0,0.365,0.018,0.498,0.018
		c0.098,0.064,0.197,0.148,0.248,0.215l5.541,6.139c0.664,0.746,1.062,1.311,1.346,1.66c0.016-0.182,0.033-0.315,0.033-0.714v-3.467
		c0-0.682-0.018-0.93-0.033-1.178c-0.051-0.648-0.184-1.344-0.482-1.693c-0.432-0.283-1.441-0.398-1.709-0.48
		c-0.066-0.066-0.082-0.199-0.082-0.283c0-0.066,0.016-0.248,0.064-0.281h0.432c0.186,0,0.947,0.033,1.461,0.033
		c1.494,0,2.023-0.033,2.855-0.033h0.379c0.033,0.049,0.051,0.166,0.051,0.232C430.583,17.34,430.568,17.49,430.517,17.572z"/>
	<path fill="#FFFFFF" d="M437.437,29.285c-1.045,0-1.893-0.08-3.055-0.664c-0.164-0.08-0.43-0.23-0.529-0.23
		c-0.117,0-0.48,0.23-0.848,0.531c-0.23,0-0.713-0.166-0.762-0.332c0.033-0.266,0.182-0.863,0.182-1.676
		c0-0.332-0.064-1.51-0.064-1.727c0.115-0.064,0.215-0.098,0.312-0.098c0.117,0,0.35,0,0.465,0.033
		c0.166,0.646,0.797,1.654,1.18,2.17c0.646,0.896,1.857,1.277,2.604,1.277c0.697,0,1.326-0.197,1.742-0.68
		c0.465-0.514,0.664-0.963,0.664-1.477c0-0.797-0.416-1.358-1.742-1.839c-0.299-0.1-2.521-0.748-3.002-0.963
		c-0.715-0.299-1.229-0.715-1.594-1.262c-0.398-0.646-0.598-1.361-0.598-2.074c0-1.891,1.643-3.367,3.898-3.367
		c1.045,0,1.941,0.1,3.119,0.996c0.232-0.217,0.463-0.449,0.713-0.6c0.248,0,0.58,0.033,0.73,0.234
		c-0.051,0.297-0.15,1.176-0.15,1.607c0,0.498,0.084,0.996,0.133,1.412c-0.1,0.082-0.215,0.164-0.365,0.164
		c-0.049,0-0.348-0.016-0.395-0.033c-0.367-0.846-0.715-1.275-1.113-1.857c-0.48-0.713-1.262-1.195-2.207-1.195
		c-1.061,0-2.021,0.83-2.021,1.727c0,0.58,0.529,1.326,0.895,1.51c0.547,0.266,1.395,0.547,2.422,0.812
		c0.881,0.232,1.527,0.48,1.875,0.697c1.277,0.713,1.875,1.676,1.875,3.202C441.8,28.009,439.958,29.285,437.437,29.285z"/>
</g>
</svg>
