<svg xmlns="http://www.w3.org/2000/svg" width="487.103" height="26.916" viewBox="0 0 487.103 26.916"><g fill="#F58025"><path d="M25.412 5.148v-.12h-.03c-.215-.792-.974-1.382-1.88-1.382V5.03H23.5l.047 19.974s-2.815-.91-5.357-2.016c-2.94-1.28-5.29.11-5.504.246v.016l-.012-.008-.01.008v-.016c-.215-.134-2.564-1.527-5.504-.246-2.543 1.105-5.357 2.016-5.357 2.016L1.85 5.03h-.01V3.542c-.896 0-1.64.64-1.806 1.486H.002v.317L0 5.385c0 .01 0 .023.002.035v21.496h25.41V5.828c.02-.11.034-.223.034-.34s-.012-.23-.034-.34z"/><path d="M6.393 16.32c.587 1.05 1.262 2.053 2.014 3.004l4.31-4.193 4.324 4.204c.746-.94 1.418-1.94 2.012-2.996l-6.334-6.096-6.325 6.078zM21.855 3.436c-.742.225-1.53.348-2.35.348-2.893 0-5.42-1.52-6.78-3.783-1.365 2.262-3.89 3.783-6.782 3.783-.82 0-1.608-.123-2.35-.348-.193 2.208-.052 4.385.386 6.48h17.477c.455-2.185.582-4.362.398-6.48"/></g><g fill="#FFF"><path d="M384.628 20.362c-.04.596-.062.658-.447.658-.444 0-3.317.065-6.212.065-1.658 0-2.957-.022-4.297-.022-.913 0-2.425.065-3.17.065h-.425c-.043-.086-.064-.277-.064-.36 0-.11.044-.3.065-.384.51-.15 1.426-.363 1.957-.618.17-.298.277-.937.297-1.702 0-.362.022-1.17.022-2.852 0-.682-.043-2.68-.107-5.51-.02-1.087-.064-1.914-.127-2.126-.107-.32-.277-.682-.703-.873-.34-.086-.83-.065-1.34-.193-.043-.084-.064-.318-.064-.425 0-.148.044-.255.108-.34l8.02-.02c.065.042.085.255.085.36 0 .106-.02.32-.084.384-.98.04-2.192.02-2.192 1.616v2.424l.127 7.958c0 .404.383 1 .682 1.255.424.36.936.553 1.807.553 1.234 0 1.64-.255 2.598-.743 1.19-.617 2.04-2 2.658-3.49.107-.043.32-.064.426-.064.17 0 .297.02.426.106.02.81.02 2.087.02 2.34 0 .616-.02 1.277-.064 1.936zM395.44 21.063h-.704c-.7 0-2.914-.062-3.232-.062-1.105 0-3.236.106-4.088.106h-.36c0-.105-.042-.19-.042-.36 0-.088.02-.36.064-.447 1.55-.105 1.81-.49 2.064-.703.148-.277.254-.767.297-1.276.02-.744.063-2.127.063-2.745 0-1.234-.02-2.722-.043-3.786-.02-1.96-.043-2.83-.064-3.234-.086-1.15-.447-1.616-.7-1.808-.15-.108-.62-.214-1.66-.3-.022-.106-.044-.318-.044-.404 0-.19.043-.275.105-.362h.47c.935.022 3.022.087 3.468.087.725 0 2.81-.108 3.7-.108h.62c.04.043.105.214.105.34 0 .086-.02.32-.064.406-.68.084-1.488.17-1.893.553-.15.128-.383.576-.383 1.15v5.232c0 1.98.02 4.084.043 5.105.148.766.38 1.234.723 1.64.383.086 1.254.17 1.574.19.043.086.064.32.064.427 0 .086-.02.254-.085.36zM412.888 20.085c-.96.896-2.13 1.044-3.66 1.02l-6.428-.085c-.572 0-2.424.043-3.02.043-.403 0-.786 0-.872-.02-.04-.086-.064-.3-.064-.386 0-.082.023-.273.107-.425 1.235 0 2.173-.234 2.257-.553.127-.446.256-1.19.318-1.872.023-.575.064-2.297.064-4.277 0-1.786-.108-4.763-.128-4.977-.02-.32-.064-.682-.13-.957-.104-.404-.4-.873-1-.96-.51-.06-1.19-.147-1.51-.19-.042-.127-.063-.296-.063-.382 0-.128.02-.234.083-.34.107-.022.342-.022.514-.022h5.043c1.297 0 2.764-.063 3.637-.063 1.17 0 2.213.147 2.83.445 1.424.66 2.062 1.83 2.062 3.47 0 1.34-.51 2.318-1.405 2.722-.275.127-1.064.34-1.445.445-.107.022-.385.087-.385.17 0 .13.363.15.62.194.337.063 1.296.254 1.55.36.385.148 1.28.744 1.682 1.51.363.64.555 1.363.555 2.172 0 1.213-.43 2.214-1.214 2.957zm-2.957-4.872c-.618-1.107-1.255-1.383-2.51-1.66-.298-.062-.79-.147-1.43-.147-.444 0-.806.02-.87.106 0 .04-.02.298-.02.724V18c0 .616.02.77.063 1.02.215.47.617.874 1.064 1.174.17.04.658.062.895.062 1.254 0 1.7-.234 2.318-.853.553-.596.85-1.467.85-2.7 0-.576-.126-1.086-.36-1.49zm-1.085-7.445c-.34-.64-.83-1-1.49-1.15-.3-.084-.725-.127-1.213-.127-.275 0-.617.022-.936.022-.02.66-.064 3.3-.064 3.3v1.682c0 .592.02 1 .064 1.04.02.043.3.043.617.043.873 0 2.254-.234 2.51-.448.107-.083.234-.212.36-.446.386-.637.575-1.34.575-2.085 0-.663-.147-1.302-.423-1.832zM433.634 21.086h-3.04c-.81 0-1.937-.043-2.106-.065-.406-.04-.574-.423-.64-.87-.212-1.554-.66-3.51-1.34-4.575-.51-.787-.894-1.105-1.68-1.553-.534-.298-.855-.34-1.13-.34-.17 0-.383 0-.553.022l.02 4.913c0 .744.384 1.258.915 1.513.234.043.766.17 1.193.213.043.085.084.296.084.448 0 .083-.04.23-.084.317-1.213 0-2.363-.063-3.725-.063-.68 0-3.936.063-4.234.063-.043-.105-.084-.277-.084-.34 0-.108.04-.317.107-.425.424-.022.934-.108 1.21-.147.618-.257.81-.896.874-1.426.106-.81.085-3.322.085-5.494 0-3-.02-4.743-.127-5.42-.213-.472-.383-.77-.895-1.15-.34-.066-1-.15-1.36-.194-.022-.084-.044-.298-.044-.382 0-.086.042-.255.104-.404.13 0 .938.043 1.258.043.744 0 2.594.04 2.914.04 1.062 0 3.3-.148 4.893-.148 1.128 0 2.044.087 2.554.234 1.553.49 2.658 2.148 2.658 3.872 0 1.148-.467 2.127-1.318 2.766-.404.32-.766.596-2.342.786-.402.044-.553.066-.87.13.255.104.53.213.87.34.746.256 1.406.533 1.598.703.51.467 1.127 1.47 1.574 2.53.318.81.637 1.47.914 2.447.086.148.256.405.36.53.32.234 1.192.277 1.407.277.062.086.105.343.105.448.003.104-.04.276-.126.36zm-6.53-13.447c-.597-1-1.32-1.15-2.98-1.15-.45 0-.83.064-.895.13-.063.062-.128.21-.128.467v3.915l.02 1.81c.257.042.575.042.79.042.785 0 1.316-.063 1.744-.17 1.04-.256 1.936-1.768 1.936-3.086 0-.725-.15-1.384-.49-1.96zM451.976 21.086c-1.383 0-3.086-.065-4.404-.065-.81 0-1.744.044-2.107.044h-1.596c-.106-.083-.128-.296-.15-.383 0-.083.022-.253.128-.38.832-.044 1.277-.128 1.574-.278.193-.212.297-.618.297-1.04-.085-.32-.255-.83-.552-1.682-.17-.512-.342-.938-.488-1.3-.086-.148-.277-.487-.447-.617-.895.02-3.277-.02-4.768.044-.127.233-.234.51-.318.786l-.81 2.49c.085.7.32 1.17.618 1.446.19.083.766.17 1.3.212.06.105.104.275.083.362 0 .086-.02.256-.084.382h-.574c-.768 0-1.598-.086-2.406-.086-.744 0-2.04.043-2.49.043-.062-.105-.082-.234-.082-.34.02-.086.062-.297.082-.404.916-.256 1.895-.49 2.236-1.256.637-1.553.488-1.148 1.51-3.852 1.043-2.766 1.81-4.702 2.277-5.808.596-1.362.895-2.128.957-2.276.213-.575.467-1.063.658-1.234.13-.147.576-.3.746-.3.21 0 1.086.173 1.21.343.046.062.13.232.194.403l.936 2.32 3.19 7.957c.405.978.6 1.425.96 2.275.168.426.424.916.553 1.02.106.085 1.214.385 1.767.47.043.084.105.274.13.36-.002.087-.068.28-.13.344zm-8.426-7.83c-.34-.937-1.064-2.745-1.47-3.7-.06-.128-.126-.277-.19-.428-.234.575-.512 1.214-.914 2.213-.596 1.513-1.086 2.896-1.17 3.19h2.574c.596 0 1.19 0 1.574-.082-.128-.447-.212-.724-.404-1.19zM469.445 21.086h-3.043c-.81 0-1.938-.043-2.107-.065-.402-.04-.572-.423-.637-.87-.213-1.554-.66-3.51-1.34-4.575-.512-.787-.895-1.105-1.682-1.553-.53-.298-.852-.34-1.127-.34-.17 0-.384 0-.554.022l.02 4.913c0 .744.383 1.258.916 1.513.234.043.764.17 1.19.213.044.085.085.296.085.448 0 .083-.04.23-.084.317-1.213 0-2.36-.063-3.725-.063-.68 0-3.936.063-4.232.063-.043-.105-.086-.277-.086-.34 0-.108.043-.317.105-.425.426-.022.938-.108 1.213-.147.617-.257.81-.896.873-1.426.108-.81.087-3.322.087-5.494 0-3-.02-4.743-.127-5.42-.215-.472-.385-.77-.895-1.15-.34-.066-1-.15-1.36-.194-.022-.084-.044-.298-.044-.382 0-.086.044-.255.106-.404.13 0 .936.043 1.256.043.746 0 2.596.04 2.916.04 1.062 0 3.297-.148 4.893-.148 1.13 0 2.042.087 2.556.234 1.553.49 2.656 2.148 2.656 3.872 0 1.148-.467 2.127-1.316 2.766-.406.32-.768.596-2.342.786-.404.044-.553.066-.873.13.257.104.534.213.874.34.744.256 1.404.533 1.598.703.51.467 1.127 1.47 1.572 2.53.32.81.64 1.47.916 2.447.086.148.254.405.36.53.32.234 1.192.277 1.405.277.064.086.105.343.105.448.002.104-.04.276-.125.36zm-6.53-13.447c-.597-1-1.32-1.15-2.98-1.15-.447 0-.832.064-.893.13-.066.062-.13.21-.13.467v3.915l.02 1.81c.256.042.576.042.79.042.788 0 1.317-.063 1.743-.17 1.043-.256 1.938-1.768 1.938-3.086 0-.725-.148-1.384-.49-1.96zM486.996 6.34c-.426.107-1.234.236-1.53.428-.427.253-.98.744-1.278 1.297l-3.34 6.427c-.107.17-.15.36-.15.573 0 .022-.02.275 0 .532l.19 3c.044.83.214 1 .556 1.36.213.215 1.17.342 1.852.428.062.105.084.273.084.383 0 .104-.062.296-.105.382-.383 0-.938-.02-1.66-.043-1.256-.02-2.744-.043-3.19-.043-.64 0-2.575.022-3.66.022-.02-.085-.063-.257-.063-.36 0-.106.02-.258.105-.406.49-.043 1.553-.19 1.7-.277.364-.232.683-.723.683-1.637 0-1.085-.043-1.767-.19-2.362-.108-.383-.298-.916-.683-1.595l-3.766-7.106c-.147-.277-.68-.534-2.106-.873-.062-.105-.105-.276-.105-.36 0-.152.042-.277.126-.428.17 0 2.234.066 3.28.066 2.446 0 2.85-.066 4.274-.066h.383c.064.107.127.17.127.32 0 .085 0 .32-.043.426-.89.106-1.553.17-1.744.532-.04.084-.084.275-.062.553 0 .19.128.447.192.596l1.148 2.382c.256.555 1.36 2.68 1.936 3.7.342-.53.873-1.595 1.79-3.36.593-1.17 1.02-2.022 1.23-2.553.108-.278.13-.533.13-.787 0-.148-.043-.405-.17-.62-.172-.295-1.064-.444-1.684-.57-.02-.067-.02-.258-.02-.363 0-.106.02-.234.084-.36.574 0 1.47.083 2.553.083.448 0 2.235-.065 3.106-.065.043.086.13.236.13.36-.003.085-.067.275-.11.383zM194.242 5.91c0-.085-.02-.235-.063-.3h-.495c-1.073 0-1.76.043-3.69.043-.666 0-1.653-.043-1.89-.043h-.557c-.065.043-.087.28-.087.365 0 .107.022.28.108.367.343.104 1.652.254 2.21.62.384.452.558 1.353.62 2.19.022.325.045.644.045 1.524v4.49c0 .514-.022.688-.044.924-.363-.41-.88-1.182-1.738-2.15L181.49 6c-.062-.09-.19-.194-.32-.282-.172 0-.473-.02-.645-.02-1.373 0-3.865-.065-4.23-.065-.045.086-.086.215-.086.305 0 .04.04.342.063.406.322.084 1.033.19 1.61.814.345.385.945.922 1.14 1.354.064.148.084.385.084.686 0 1.117-.064 2.686-.064 4.186v4.36c0 .71-.063 1.267-.128 1.632-.448.473-1.137.816-2.255 1.096-.043.107-.084.28-.084.387 0 .063.02.278.064.3h.408c.426 0 1.418-.064 2.06-.064.945 0 1.59.064 2.47.064h1.287c.09-.02.108-.28.108-.363 0-.088-.02-.26-.063-.344-.752-.193-1.846-.365-2.576-1.332-.152-.32-.28-1.91-.28-2.665 0-.686-.022-1.63-.022-2.896 0-1.698.022-3.18.045-3.93.127.15.277.34.386.472l9.918 11.145c.11.107.494.13.6.13.108 0 .174 0 .258-.044.045-.107.195-.45.195-.967 0-.62-.02-1.266-.02-1.588v-8.96c0-2.685 1.267-3.435 2.75-3.5.06-.106.08-.3.08-.407m-24.607 6.83c0 3.243-.898 6.097-2.12 7.106-.627.516-1.4.773-2.28.773-1.202 0-2.254-.472-2.856-1.44-.815-1.246-1.27-3.564-1.27-5.582 0-2.986.775-5.326 2.15-6.465.732-.602 1.48-.836 2.233-.836 1.16 0 2.275.56 2.92 1.482.816 1.116 1.223 2.727 1.223 4.96m3.89.41c0-3.01-1.333-5.306-3.82-6.68-1.334-.733-2.667-1.097-4.08-1.097-3.138 0-5.972 1.87-7.24 3.994-.816 1.332-1.246 2.79-1.246 4.338 0 2.47 1.205 4.895 3.073 6.29 1.415 1.032 3.027 1.546 4.896 1.546 1.136 0 2.21-.212 3.263-.62 1.183-.45 2.188-1.16 2.983-2.04 1.395-1.524 2.17-3.48 2.17-5.73M154.65 10.44V6.06c0-.322-.128-.406-.452-.406-.645 0-4.04.084-7.473.084-2.664 0-4.875-.04-6.077-.04h-1.59c-.278 0-.364.063-.364.362v4.104c.086.064.236.084.345.084.085 0 .385 0 .47-.043.967-1.95 1.868-3.004 3.007-3.582.643-.068 1.912-.09 2.252-.09.022.238.046.99.066 1.89.02 1.546.02 2.212.02 5.862 0 3.158-.02 4.574-.063 4.92-.086.6.023 1.053-2.554 1.158-.066.15-.066.324-.066.494 0 .086 0 .26.02.344h.84c.792 0 2.66-.083 3.435-.083.622 0 2.62.062 3.93.062h.6c.062-.108.062-.343.062-.454 0-.127-.02-.275-.088-.385-.232 0-1.61.042-2.21-.405-.06-.238-.193-.86-.193-1.613-.02-2.318-.043-3.197-.043-4.746 0-1.994.02-3.348.02-7.064.304 0 .99-.02 1.633 0 1.333.367 1.978.86 2.557 1.635.366.492.752 1.332 1.138 2.34.13.043.24.043.367.043.087-.002.363-.045.41-.088m-18.515 6.98c0-.304 0-.43-.02-.624-.106-.066-.15-.066-.323-.066-.15 0-.32 0-.472.045-.73 1.652-1.78 2.943-2.362 3.285-.32.195-.816.236-1.61.236h-1.76c-.687 0-1.225-.064-1.417-.107-.325-.06-.666-.577-.818-.92-.15-.366-.233-.366-.233-1.355v-4.703h.793c.214 0 .73.043 1.312.3.535.237.752.56.965.903.194.3.322 1.48.363 1.783.11.062.39.086.558.086.177 0 .28-.023.435-.107 0-.582-.133-2.148-.133-3.008 0-1.075.15-2.558.215-3.33-.082-.044-.215-.085-.426-.085-.154 0-.432 0-.562.064-.063.302-.3 1.2-.344 1.267-.318.537-.88.943-1.46 1.115-.386.107-.944.17-1.243.17h-.453v-1.994c0-2.062.046-2.73.064-3.115.023-.258.066-.535.086-.73.195-.02.303-.04 1.29-.04 1.245 0 1.824.02 2.02.02.603.042 1.05.173 1.373.43.814.624 1.437 1.61 2.062 2.665.128.04.342.04.45.04.13 0 .15-.04.325-.128 0-1.31-.09-3.008-.13-3.543-.023-.215-.065-.28-.495-.28-.173 0-.988-.042-1.85-.042-1.224 0-1.715.02-3.582.02-1.01 0-3.096.022-3.975.022-1.287 0-2.385-.043-2.942-.043h-.73c-.063.084-.106.258-.106.346 0 .105.043.344.107.428.258.084 1.268.064 1.567.236.3.258.58.365.775 1.396.04.45.062 1.695.062 2.684v4.424c0 .904-.02 2.21-.044 2.748-.044.836-.345 1.846-.472 2.04-.195.15-1.074.278-1.932.323-.066.126-.11.34-.11.47s.044.28.11.387h.707c.686 0 3.22-.064 3.8-.064.538 0 1.567.045 2.814.045.685 0 2.706.127 7.044.127.173 0 .364.02.58-.043.065-.107.065-.15.088-.344.04-.43.04-1.7.04-3.435m-18.17.75c-.062-.193-.234-.518-.728-.518-.042 0-.104.02-.15.02-1.287 1.827-2.705 2.515-4.314 2.515-2.235 0-3.825-1.502-4.34-2.834-.275-.71-.665-2.256-.665-3.908 0-1.566.237-2.836.646-3.758.945-2.49 2.32-3.264 3.994-3.264 1.395 0 2.555.793 3.436 1.934.365.492.752 1.46 1.096 2.598.086.023.28.062.473.062.13 0 .43-.107.516-.19-.02-.24-.235-1.892-.235-2.407 0-.643.17-1.695.17-2.105-.128-.127-.56-.213-.836-.234-.323.234-.43.514-.73.88-1.202-.858-2.32-1.524-4.768-1.524-2.255 0-4.036.773-5.392 2.127-1.48 1.46-2.297 3.48-2.297 6.053 0 2.752 1.16 5.004 3.03 6.422 1.18.86 2.92 1.44 5 1.44 2.622 0 4.534-.987 5.5-2.3.383-.513.428-.644.596-1.01m-16.706-12.26c0-.087-.02-.237-.066-.302h-.494c-1.074 0-1.76.043-3.69.043-.667 0-1.654-.043-1.892-.043h-.557c-.063.043-.086.28-.086.365 0 .107.02.28.103.367.345.104 1.655.254 2.212.62.386.452.562 1.353.625 2.19.02.325.042.644.042 1.524v4.49c0 .514-.023.688-.042.924-.367-.41-.88-1.182-1.74-2.15L88.508 6c-.064-.09-.193-.194-.32-.282-.172 0-.477-.02-.646-.02-1.377 0-3.866-.065-4.233-.065-.04.086-.086.215-.086.305 0 .04.045.342.067.406.322.084 1.03.19 1.61.814.344.385.943.922 1.14 1.354.06.148.084.385.084.686 0 1.117-.063 2.686-.063 4.186v4.36c0 .71-.062 1.267-.13 1.632-.45.473-1.14.816-2.254 1.096-.044.107-.086.28-.086.387 0 .063.022.278.063.3h.41c.43 0 1.417-.064 2.06-.064.948 0 1.588.064 2.472.064h1.287c.086-.02.108-.28.108-.363 0-.088-.022-.26-.063-.344-.753-.193-1.85-.365-2.58-1.332-.15-.32-.275-1.91-.275-2.665 0-.686-.026-1.63-.026-2.896 0-1.698.026-3.18.045-3.93.132.15.28.34.39.472l9.92 11.145c.107.107.494.13.6.13.107 0 .174 0 .258-.044.044-.107.194-.45.194-.967 0-.62-.02-1.266-.02-1.588v-8.96c0-2.685 1.267-3.435 2.747-3.5.063-.106.084-.3.084-.407m-21.24 14.884c0-.107-.02-.344-.064-.432-.32-.02-1.2-.105-1.586-.19-.345-.41-.58-.886-.73-1.655-.022-1.03-.044-3.158-.044-5.152V8.08c0-.58.235-1.03.386-1.16.407-.388 1.223-.474 1.912-.558.044-.084.062-.322.062-.408 0-.13-.062-.3-.107-.344h-.62c-.904 0-3.007.107-3.737.107-.45 0-2.557-.064-3.5-.086h-.476c-.064.087-.105.175-.105.368 0 .084.023.3.04.406 1.054.086 1.526.19 1.678.3.256.194.622.665.708 1.827.024.407.046 1.288.065 3.263.02 1.076.044 2.578.044 3.822 0 .625-.045 2.02-.064 2.773-.045.514-.154 1.008-.303 1.285-.26.215-.514.604-2.082.707-.044.088-.06.367-.06.455 0 .17.04.256.04.363h.367c.856 0 3.004-.107 4.12-.107.32 0 2.557.065 3.265.065h.71c.062-.105.082-.277.082-.36M62.802 9.584c0 1.328-.9 2.855-1.953 3.113-.43.105-.967.172-1.764.172-.213 0-.536 0-.794-.043L58.27 11V7.05c0-.26.067-.408.13-.473.065-.066.453-.13.902-.13 1.674 0 2.407.15 3.006 1.16.345.58.494 1.246.494 1.978m6.228 11.228c0-.107-.04-.363-.107-.45-.214 0-1.094-.044-1.416-.278-.108-.13-.28-.39-.365-.537-.28-.99-.6-1.654-.925-2.47-.45-1.075-1.073-2.083-1.587-2.556-.194-.174-.86-.45-1.61-.71-.345-.126-.624-.237-.883-.345.32-.06.476-.086.883-.127 1.588-.19 1.954-.47 2.362-.795.857-.645 1.33-1.633 1.33-2.79 0-1.74-1.117-3.413-2.684-3.91-.518-.15-1.438-.235-2.576-.235-1.613 0-3.867.15-4.94.15-.32 0-2.19-.043-2.942-.043-.322 0-1.138-.043-1.27-.043-.063.15-.105.324-.105.408s.023.3.042.39c.368.038 1.03.124 1.377.19.515.387.687.686.903 1.16.104.688.127 2.447.127 5.473 0 2.19.022 4.725-.086 5.54-.066.538-.258 1.185-.884 1.442-.276.04-.79.127-1.224.15-.06.105-.105.32-.105.428 0 .064.045.236.087.344.3 0 3.585-.065 4.274-.065 1.373 0 2.534.064 3.758.064.04-.085.086-.237.086-.323 0-.152-.045-.365-.086-.45-.43-.046-.97-.17-1.2-.214-.54-.26-.926-.773-.926-1.525l-.023-4.963c.173-.02.387-.02.56-.02.28 0 .602.043 1.137.344.794.45 1.184.77 1.7 1.565.685 1.076 1.134 3.053 1.35 4.617.063.453.237.838.646.883.17.02 1.31.062 2.125.062h3.07c.086-.084.127-.256.127-.364M45.708 9.69c0 1.094-.385 2.06-1.096 2.682-.448.37-1.156.582-2.23.582-.45 0-.794-.02-.924-.043-.172-.02-.278-.04-.278-.15l.02-6.288c.26-.025.625-.11 1.246-.11 1.46 0 2.362.366 2.792 1.27.3.576.47 1.306.47 2.058m3.845.086c0-1.61-.925-3.113-2.3-3.736-.706-.303-1.952-.494-3.84-.494-1.657 0-4.23.13-5.37.13-.793 0-2-.087-2.664-.087-.066.106-.107.257-.107.347 0 .082 0 .318.065.426.406.13 1.072.234 1.504.342.363.324.448.604.576 1.225.066.754.107 1.697.107 3.33 0 4.53-.018 6.914-.085 7.43-.086.645-.513 1.31-1.224 1.525-.322.064-.795.168-1.246.215-.02.105-.043.258-.043.45 0 .17.023.192.064.3.69 0 2.706-.086 3.48-.086 1.91 0 3.866.086 4.657.086h.54c.062-.086.062-.236.062-.342 0-.13 0-.303-.043-.387-.643-.087-1.608-.216-2.017-.688-.216-.258-.43-.623-.43-1.266l-.064-4.723c1.288.082 2.66.127 3.414.127.988 0 1.827-.174 2.492-.387 1.528-.58 2.47-2.084 2.47-3.737M361.234 5.737c0-.127-.086-.17-.13-.256-.88 0-2.038.065-2.49.065-1.095 0-2.427-.086-3.007-.086-.062.128-.084.15-.084.26 0 .104.02.19.043.255.62.13 1.523.28 1.695.578.153.28.196.496.196.838 0 .26-.023.52-.13.796-.192.537-.603 1.375-1.183 2.557-.986 1.998-1.61 3.242-1.953 3.734-.56-.94-1.805-3.434-2.104-4.08l-1.203-2.617c-.043-.086-.086-.39-.086-.58 0-.28.043-.473.086-.56.193-.386.86-.43 1.76-.536.045-.105.066-.236.066-.324 0-.148-.067-.105-.13-.213h-.39c-1.438 0-1.01.064-3.478.064-1.053 0-2.318-.063-2.49-.063-.086.152-.13.17-.13.322 0 .085.022.15.085.257 1.44.344 1.87.602 2.02.88l3.76 7.366c.363.686.576 1.223.686 1.61.15.603.172 1.48.172 2.577 0 .922-.322 1.418-.688 1.652-.15.086-1.225.238-1.717.28-.086.147-.107.192-.107.302 0 .105.043.17.062.256 1.098 0 2.234-.02 2.88-.02.448 0 1.136.02 2.405.042.73.023 1.287.043 1.676.043.04-.086.105-.172.105-.28s-.02-.17-.085-.278c-.686-.084-1.652-.215-1.867-.428-.344-.368-.518-.538-.56-1.374l-.17-3.223c-.022-.236.06-.45.083-.516.067-.236.153-.43.24-.604l3.306-6.55c.3-.558.945-1.18 1.373-1.438.3-.19.968-.32 1.395-.428.048-.106.09-.192.09-.28m-17.35 4.426V6c0-.325-.13-.41-.454-.41-.642 0-3.604.085-7.042.085-2.662 0-4.445-.043-5.646-.043h-1.59c-.28 0-.365.064-.365.367v3.886c.084.062.15.082.258.082.084 0 .172 0 .258-.04.838-1.868 1.266-2.858 2.705-3.585.645-.064 2.898-.088 3.244-.088.02.236.043.988.062 1.89.02 1.546.02 2.382.02 6.032 0 3.158-.02 4.79-.062 5.133-.086.602.023 1.053-2.555 1.162-.064.148-.064.19-.064.365 0 .084 0 .17.02.256h.84c.794 0 1.845-.086 2.618-.086.624 0 1.808.064 3.116.064h.602c.062-.106.062-.214.062-.32 0-.13-.02-.192-.084-.3-.236 0-1.61.043-2.213-.41-.064-.236-.193-.857-.193-1.61-.02-2.32-.045-3.413-.045-4.96 0-1.998.023-3.52.023-7.234.3 0 1.89-.023 2.533 0 1.333.36 1.85.857 2.43 1.63.515.687.642 1.31.964 2.34.13.042.195.042.324.042.084 0 .19-.042.236-.085M326.04 20.77c0-.108-.024-.212-.065-.298-.322-.02-1.203-.11-1.59-.193-.344-.407-.58-.882-.73-1.657-.022-1.03-.042-3.37-.042-5.367V7.8c0-.58.234-1.03.387-1.158.408-.387 1.225-.475 1.91-.56.043-.083.064-.192.064-.276 0-.13-.064-.217-.107-.26h-.623c-.902 0-2.19.107-2.922.107-.45 0-1.74-.064-2.684-.086h-.47c-.067.086-.108.086-.108.28 0 .085.02.17.04.278 1.054.086 1.528.19 1.677.3.258.196.62.667.71 1.827.02.406.04 1.502.063 3.477.02 1.073.043 2.532.043 3.78 0 .623-.043 2.232-.066 2.982-.04.516-.148 1.01-.3 1.29-.257.216-.515.6-2.083.71-.043.084-.064.232-.064.322 0 .17.043.17.043.277h.365c.86 0 2.19-.106 3.31-.106.32 0 1.737.064 2.446.064h.71c.06-.106.085-.192.085-.28m-10.61-3.95c0-1.716-.774-2.897-2.427-3.778-.45-.26-1.244-.537-2.383-.86-1.31-.364-2.406-.792-3.113-1.18-.475-.257-1.27-.966-1.27-2.34 0-1.374 1.396-2.513 3.03-2.513 1.286 0 2.32.643 2.94 1.502.537.753.73 1.095 1.332 2.448.063.02.15.043.214.043.193 0 .365-.106.473-.214-.064-.535-.172-1.287-.172-1.932 0-.56.127-1.29.19-1.678-.17-.256-.362-.3-.642-.3-.3.194-.58.493-.838.772-1.416-1.137-2.578-1.33-3.65-1.33-2.64 0-4.53 1.76-4.53 4.102 0 .795.276 1.568.794 2.363.472.666 1.157 1.182 2.08 1.566.626.257 3.417 1.097 3.802 1.245 1.72.664 2.363 1.246 2.363 2.77 0 .752-.322 1.418-.945 2.168-.56.688-1.44 1.012-2.383 1.012-1.01 0-2.75-.432-3.607-1.59-.518-.666-1.248-2.06-1.46-2.9-.15-.043-.15-.043-.302-.043-.13 0-.28.043-.41.13 0 .28.086 1.696.086 2.124 0 1.055-.19 1.568-.234 1.912.064.215.43.43.686.43.453-.387.926-.686 1.074-.686.13 0 .324.064.516.19 1.398.903 2.557 1.075 3.588 1.075 3.027.002 5.197-1.523 5.197-4.508m-19.005-7.41c0 1.374-1.094 2.92-2.363 3.2-.514.11-1.266.17-2.232.17-.256 0-.988 0-1.31-.04l-.022-1.89V6.79c0-.28.066-.428.152-.492.086-.062.965-.13 1.502-.13 2.02 0 2.94.194 3.672 1.245.406.582.6 1.246.6 1.998m4.51 11.382c0-.105-.04-.234-.106-.32-.213 0-1.096-.043-1.416-.28-.11-.128-.28-.388-.365-.536-.28-.986-.58-1.87-.904-2.686-.45-1.074-1.072-2.082-1.588-2.555-.193-.172-.795-.45-1.547-.71-.342-.13-.62-.235-.88-.343.323-.066.472-.086.88-.13 1.395-.17 1.87-.472 2.277-.792.857-.646 1.416-1.61 1.416-2.77 0-1.74-1.116-3.392-2.683-3.89-.516-.148-1.44-.234-2.576-.234-1.61 0-2.81.15-3.888.15-.322 0-1.373-.043-2.125-.043-.32 0-1.137-.043-1.268-.043-.065.15-.106.195-.106.28 0 .085.02.214.04.3.368.045 1.032.127 1.374.193.518.387.688.686.904 1.158.107.687.13 2.622.13 5.647 0 2.19.02 4.94-.09 5.758-.06.535-.257 1.182-.88 1.436-.28.048-.79.132-1.223.153-.065.107-.108.19-.108.303 0 .062.043.148.088.256.3 0 2.768-.064 3.455-.064 1.375 0 1.72.064 2.94.064.046-.086.09-.15.09-.236 0-.15-.044-.236-.09-.322-.427-.04-.964-.172-1.2-.215-.537-.257-.922-.772-.922-1.524l-.023-5.37c.172-.02.795-.02.967-.02.58 0 1.16.042 1.72.3.813.365 1.587.945 2.104 1.738.687 1.074 1.138 3.113 1.353 4.684.064.45.234.836.643.88.174.02.43.063 1.248.063h2.23c.09-.085.13-.17.13-.278m-18.017-3.264c0-.3 0-.43-.02-.62-.106-.07-.15-.07-.323-.07-.15 0-.13 0-.28.046-.472 1.568-1.286 2.73-2.21 3.287-.322.192-.902.237-1.826.237h-2.404c-.752-.025-1.225-.066-1.418-.11-.322-.063-.666-.577-.816-.923-.15-.365-.236-.494-.236-1.48v-4.896h.688c.686 0 1.246.043 1.826.3.537.24.945.58 1.158.925.195.3.258 1.48.303 1.78.104.067.17.09.343.09.168 0 .193-.022.344-.108 0-.582-.13-2.148-.13-3.008 0-1.072.15-2.385.214-3.156-.083-.042-.128-.083-.34-.083-.15 0-.218 0-.347.064-.064.3-.236 1.202-.28 1.265-.32.54-1.07.967-1.653 1.14-.385.108-.943.17-1.758.17h-.344v-2.1c0-2.065.04-2.903.062-3.29.02-.256.064-.537.086-.73.195-.02.816-.042 1.805-.042 1.247 0 2.17.023 2.362.023.602.043 1.053.17 1.373.428 1.055.816 1.334 1.354 1.914 2.662.126.043.15.043.255.043.13 0 .15-.044.324-.13 0-1.31-.087-2.793-.132-3.328-.02-.215-.064-.28-.492-.28-.172 0-.99-.042-1.846-.042-1.225 0-1.72.02-3.588.02-1.01 0-2.793.022-3.672.022-1.29 0-1.568-.043-2.127-.043h-.73c-.065.085-.108.17-.108.257 0 .107.043.215.11.3.257.09 1.265.065 1.563.237.303.258.582.32.775 1.354.043.45.064 1.91.064 2.896v4.424c0 .902-.02 2.385-.043 2.922-.043.838-.344 1.893-.473 2.084-.192.15-1.07.277-1.933.318-.064.13-.105.217-.105.344 0 .13.04.195.105.303h.71c.688 0 2.405-.065 2.983-.065.537 0 1.268.043 2.512.043.69 0 2.705.13 7.045.13.172 0 .365.02.582-.044.06-.107.06-.15.083-.344.044-.43.044-1.48.044-3.222m-15.89-11.722c0-.086-.023-.217-.107-.238h-.73c-.516 0-1.332.043-1.697.043-1.738 0-2.36-.106-2.62-.106h-.386c-.04.107-.107.172-.107.277 0 .09.043.153.043.24.537.063 1.01.17 1.482.323.26.254.537.77.537 1.352 0 .215-.215 1.223-.516 1.953l-3.457 8.504-4.253-10.76c.062-.516.342-1.008.707-1.2.367-.044.816-.173 1.396-.173.043-.087.086-.214.086-.3 0-.088-.02-.217-.107-.238h-.538c-.664 0-1.674.086-2.814.086-.492 0-1.457-.043-2.402-.043h-.838c-.043.086-.088.13-.088.256 0 .132.023.175.064.26.604.15 1.184.388 1.807.73.41.6 1.288 2.77 1.763 3.91l1.78 4.292c1.48 3.566 2.362 5.95 2.468 6.357.11.063 0 .128.196.128.193 0 .172-.043.213-.148l5.542-13.314c.19-.473.494-.926.773-1.225.342-.386 1.053-.534 1.715-.687.024-.084.087-.172.087-.277M248.214 20.77c0-.108-.02-.212-.064-.298-.322-.02-1.203-.11-1.588-.193-.344-.407-.582-.882-.73-1.657-.02-1.03-.043-3.37-.043-5.367V7.8c0-.58.235-1.03.386-1.158.408-.387 1.223-.475 1.91-.56.043-.083.064-.192.064-.276 0-.13-.064-.217-.105-.26h-.625c-.9 0-2.19.107-2.92.107-.45 0-1.738-.064-2.683-.086h-.474c-.064.086-.108.086-.108.28 0 .085.024.17.044.278 1.052.086 1.524.19 1.675.3.258.196.623.667.707 1.827.023.406.045 1.502.066 3.477.02 1.073.043 2.532.043 3.78 0 .623-.042 2.232-.063 2.982-.045.516-.15 1.01-.303 1.29-.256.216-.512.6-2.08.71-.045.084-.064.232-.064.322 0 .17.04.17.04.277h.367c.858 0 2.19-.106 3.306-.106.322 0 1.74.064 2.447.064h.71c.065-.106.084-.192.084-.28m-9.707-15.007c0-.085-.02-.15-.062-.214h-.495c-1.073 0-1.545.043-3.478.043-.667 0-1.653-.044-1.89-.044h-.56c-.064.043-.084.19-.084.28 0 .106.02.15.105.235.344.106 1.655.257 2.213.624.388.45.56 1.354.622 2.19.02.32.044.644.044 1.522v6.38c0 .517-.023.687-.044.923-.363-.407-.988-1.204-1.825-2.19l-8.204-9.578c-.063-.086-.19-.195-.32-.28-.175 0-.39-.02-.56-.02-1.376 0-2.576-.064-2.942-.064-.04.086-.064.13-.064.213 0 .046.023.22.043.282.322.086 1.268.193 1.654.602.343.387.858.838 1.054 1.266.063.15.084.387.084.688 0 1.12-.064 3.158-.064 4.66v4.576c0 .705-.064 1.266-.13 1.63-.448.472-1.138.815-2.253 1.095-.042.108-.084.147-.084.26 0 .06.02.19.063.212h.407c.43 0 1.418-.064 2.06-.064.946 0 1.376.064 2.257.064h1.29c.083-.02.104-.193.104-.28 0-.083-.02-.128-.062-.212-.752-.195-1.848-.367-2.577-1.332-.15-.324-.28-1.957-.28-2.707 0-.687-.022-1.804-.022-3.07 0-1.696.023-4.036.043-4.788.13.15.323.39.474.56l10.18 11.917c.105.106.15.126.26.126.104 0 .04 0 .127-.04.044-.106.106-.454.106-.968 0-.62-.02-1.266-.02-1.586V9.538c0-2.682 1.267-3.434 2.748-3.498.064-.107.083-.172.083-.28m-19.883.108c0-.088-.043-.215-.108-.28h-.62c-.667 0-1.57.044-2.342.044-.86 0-1.825-.043-2.448-.043h-.774c-.063.13-.085.17-.085.278 0 .086.02.172.064.28.09 0 1.657.02 1.934.405.235.322.752 1.117.838 1.592.042.213.173 1.094.173 2.36 0 1.825 0 3.05-.02 3.694-.043 1.2-.174 2.145-.388 2.854-.603 1.87-1.998 2.79-4.21 2.79-.944 0-1.76-.19-2.513-.536-1.396-.688-2.062-1.996-2.082-2.703l-.11-6.443-.02-2.62c0-.493.624-.946.837-1.2.17-.088 1.116-.176 1.65-.217.07-.127.11-.193.11-.3 0-.106-.064-.216-.15-.28l-.815.02c-.796.022-1.848.044-2.514.044-1.027 0-1.824-.022-2.467-.022h-.904c-.086.064-.106.19-.106.3s.02.194.084.26c.688.087 1.14.15 1.44.214.364.215.622.58.753.945.02.28.063.965.063 2.318v5.152c0 1.332.062 2.277.215 2.877.28 1.12.88 2 1.868 2.643 1.052.688 2.362 1.03 3.93 1.03 1.44 0 2.663-.3 3.693-.878 1.074-.58 1.74-1.526 2.125-2.858.215-.793.344-1.652.344-2.555v-4.125c0-.77.042-1.738.042-2.123.02-1.16.324-1.85.644-2.364.345-.11.646-.172 1.782-.3.043-.086.086-.15.086-.258"/></g></svg>