<?xml version="1.0" standalone="no"?>
<!DOCTYPE svg PUBLIC "-//W3C//DTD SVG 1.1//EN" "http://www.w3.org/Graphics/SVG/1.1/DTD/svg11.dtd" >
<svg xmlns="http://www.w3.org/2000/svg" xmlns:xlink="http://www.w3.org/1999/xlink" version="1.1">
<metadata></metadata>
<defs>
<font id="franklin_gothic_fsMdIt" horiz-adv-x="1202" >
<font-face units-per-em="2048" ascent="1694" descent="-354" />
<missing-glyph horiz-adv-x="512" />
<glyph unicode="fi" horiz-adv-x="1103" d="M82 0l139 836h-127l29 182h137l6 18l25 82q46 154 139.5 225.5t251.5 71.5q58 0 123 -8l-33 -188q-62 6 -78 6q-59 0 -106 -29q-31 -20 -46 -48t-36 -101l-8 -29h215l-33 -182h-221l-135 -836h-242zM836 1126l41 244h235l-41 -244h-235zM647 0l170 1018h236l-170 -1018 h-236z" />
<glyph unicode="fl" horiz-adv-x="1103" d="M82 0l139 836h-127l29 182h137q56 222 150 309.5t278 87.5q58 0 115 -8l-31 -186q-77 6 -86 6q-103 0 -151 -94q-20 -47 -37 -115h215l-33 -182h-221l-135 -836h-242zM645 0l229 1370h236l-229 -1370h-236z" />
<glyph horiz-adv-x="0" />
<glyph horiz-adv-x="0" />
<glyph unicode="&#xd;" horiz-adv-x="512" />
<glyph unicode=" "  horiz-adv-x="512" />
<glyph unicode="&#x09;" horiz-adv-x="512" />
<glyph unicode="&#xa0;" horiz-adv-x="512" />
<glyph unicode="!" horiz-adv-x="505" d="M172 379l35 987h289l-220 -987h-104zM45 0l43 252h246l-43 -252h-246z" />
<glyph unicode="&#x22;" horiz-adv-x="768" d="M528 823l58 543h217l-123 -543h-152zM193 823l57 543h217l-125 -543h-149z" />
<glyph unicode="#" d="M195 0l90 401h-205l43 191h207l47 209h-207l43 192h207l82 373h186l-82 -373h195l82 373h186l-84 -373h203l-43 -192h-201l-45 -209h199l-43 -193h-201l-88 -399h-186l90 399h-197l-90 -399h-188zM516 592h195l47 209h-195z" />
<glyph unicode="$" d="M53 379l189 65q22 -92 82 -154.5t139 -74.5l65 403q-82 24 -123 42t-77 45q-135 104 -135 270q0 162 118.5 269.5t298.5 107.5q23 0 41 -2l25 145h133l-27 -162q114 -19 203.5 -92t124.5 -176l-184 -66q-23 63 -72 108.5t-100 53.5l-60 -352l27 -8q110 -34 158.5 -61.5 t91.5 -80.5q86 -103 86 -229q0 -175 -129.5 -292.5t-321.5 -117.5q-21 0 -43 5l-31 -179h-131l31 193q-132 20 -237 114t-142 226zM565 836l58 340q-103 1 -164.5 -45.5t-61.5 -126.5q0 -124 168 -168zM592 195l31 -2q94 -6 160.5 53t66.5 145q0 43 -20.5 82.5t-57.5 65.5 q-38 25 -117 43z" />
<glyph unicode="%" horiz-adv-x="1531" d="M422 633q-121 0 -199 94t-78 240q0 97 39.5 193t102.5 155q81 78 196 78q123 0 200 -91t77 -237q0 -109 -45 -210.5t-123 -164.5q-69 -57 -170 -57zM221 0l998 1366h149l-995 -1366h-152zM430 772q80 0 119 98t39 224q0 75 -28.5 116t-82.5 41q-71 0 -115.5 -90.5 t-44.5 -234.5q0 -154 113 -154zM834 307q0 177 99.5 305.5t237.5 128.5q119 0 198 -97t79 -243q0 -114 -46 -212t-124.5 -155t-169.5 -57q-123 0 -198.5 91.5t-75.5 238.5zM1004 287q0 -168 112 -168q44 0 74 29t53 94q33 101 33 192q0 166 -115 166q-68 0 -104 -68 q-53 -106 -53 -245z" />
<glyph unicode="&#x26;" horiz-adv-x="1419" d="M1321 162l-33 -197q-31 -4 -65 -4q-100 0 -152.5 26.5t-130.5 118.5q-172 -155 -416 -155q-209 0 -343 119.5t-134 306.5q0 186 133 301q51 42 107.5 71t156.5 62q-84 128 -84 258q0 145 99.5 241.5t247.5 96.5q160 0 261 -88.5t101 -228.5q0 -86 -43 -159t-121 -120 q-47 -30 -157 -70l241 -342q100 114 156.5 213t91.5 222l188 -52q-110 -330 -325 -524q36 -58 78 -77t125 -19h18zM662 885l10 4l6 2l4 4l61 27q59 26 91 68t32 91q0 57 -41 94t-104 37t-104.5 -40.5t-41.5 -102.5q0 -84 87 -184zM829 258l-284 406q-126 -46 -192 -117 t-66 -162q0 -98 74 -165.5t180 -67.5q142 0 288 106z" />
<glyph unicode="'" horiz-adv-x="430" d="M193 823l57 543h217l-125 -543h-149z" />
<glyph unicode="(" horiz-adv-x="600" d="M399 -354h-127q-112 199 -161.5 371t-49.5 360q0 322 189 639q124 205 285 350h153q-95 -109 -153 -193.5t-113 -193.5q-176 -345 -176 -680q0 -331 153 -653z" />
<glyph unicode=")" horiz-adv-x="600" d="M201 1366h127q111 -196 162 -371t51 -360q0 -324 -191 -639q-128 -213 -284 -350h-154q218 249 331 520.5t113 546.5q0 327 -155 653z" />
<glyph unicode="*" d="M414 563l-113 115l258 233l-315 148l73 143l304 -174l43 346l157 -26l-71 -342l344 65l22 -158l-346 -36l168 -308l-143 -71l-144 319z" />
<glyph unicode="+" d="M537 170v424h-412v190h412v426h190v-426h410v-190h-410v-424h-190z" />
<glyph unicode="," horiz-adv-x="493" d="M43 0l41 248h240l-39 -228l-213 -315h-86l170 295h-113z" />
<glyph unicode="-" horiz-adv-x="493" d="M-14 414l30 182h490l-31 -182h-489z" />
<glyph unicode="." horiz-adv-x="493" d="M43 0l41 250h240l-41 -250h-240z" />
<glyph unicode="/" horiz-adv-x="890" d="M-94 -354h-150l1061 1720h156z" />
<glyph unicode="0" d="M285 55q-91 79 -141 212t-50 292q0 160 50 322.5t139 292.5q75 109 186.5 168t241.5 59q204 0 336 -166q120 -151 120 -422q0 -146 -38.5 -296t-104.5 -263q-85 -143 -202.5 -218t-256.5 -75q-173 0 -280 94zM332 479q0 -157 61.5 -244.5t173.5 -87.5q90 0 154 55 t117 177q38 92 67 243.5t29 260.5q0 158 -64 244.5t-180 86.5q-74 0 -131 -41t-104 -129q-50 -92 -86.5 -260.5t-36.5 -304.5z" />
<glyph unicode="1" d="M80 0l35 213h397l145 868q-58 -54 -170.5 -91.5t-214.5 -37.5h-32l34 209q182 17 305 78.5t205 175.5h160l-203 -1202h402l-35 -213h-1028z" />
<glyph unicode="2" d="M10 0l33 250q344 192 594 377q133 98 193.5 185t60.5 181q0 89 -62 149t-155 60q-109 0 -189 -76.5t-114 -212.5l-213 93q75 199 209.5 303t316.5 104q195 0 326 -121.5t131 -302.5q0 -155 -85 -272t-286 -242q-250 -152 -491 -256h780l-37 -219h-1012z" />
<glyph unicode="3" d="M37 340l217 55q22 -105 101 -167t194 -62q120 0 198 67t78 170q0 81 -45 132.5t-125 62.5q-50 4 -217 4l31 195q29 -2 61 -2q190 0 273 59q88 62 88 164q0 80 -62 131t-159 51q-96 0 -175.5 -53t-125.5 -148l-205 97q95 155 220 229t292 74q199 0 329 -102t130 -259 q0 -126 -81.5 -212.5t-224.5 -114.5q116 -35 178 -117t62 -201q0 -85 -41 -169.5t-110 -141.5q-143 -115 -375 -115q-197 0 -328 96.5t-178 276.5z" />
<glyph unicode="4" d="M55 309l35 221l729 881h250l-149 -895h210l-34 -207h-211l-51 -309h-236l51 309h-594zM291 512q78 4 94 4h307l99 578l10 39l2 12l2 2q-39 -61 -100 -137z" />
<glyph unicode="5" d="M76 303l213 57q23 -91 95 -145.5t167 -54.5q125 0 210 87t85 216q0 107 -68.5 177.5t-171.5 70.5q-76 0 -136 -36t-116 -114l-192 84l192 723h805l-55 -211h-606l-109 -389q122 150 293 150q175 0 296.5 -126t121.5 -307q0 -143 -71.5 -263t-195.5 -189.5t-272 -69.5 q-175 0 -309.5 94t-175.5 246z" />
<glyph unicode="6" d="M1190 1042l-221 -36q-44 208 -240 208q-193 0 -295 -241q-65 -152 -78 -287q56 95 146.5 147t202.5 52q169 0 287 -128.5t118 -312.5q0 -132 -65 -242t-177.5 -173.5t-246.5 -63.5q-232 0 -371 163t-139 435q0 142 46.5 299.5t123.5 276.5q174 262 460 262 q180 0 298.5 -95t150.5 -264zM356 416q0 -110 74 -188t178 -78q113 0 191 80.5t78 195.5q0 112 -73.5 187t-182.5 75q-110 0 -187.5 -79t-77.5 -193z" />
<glyph unicode="7" d="M283 0q48 228 93.5 355.5t129.5 267.5q176 295 448 526h-761l65 217h938l-31 -192q-31 -17 -119 -120.5t-172 -222.5q-277 -394 -313 -831h-278z" />
<glyph unicode="8" d="M55 317q0 91 44.5 172.5t119.5 128.5q74 46 172 68q-106 62 -153.5 133.5t-47.5 171.5q0 83 43 164.5t117 138.5q64 51 157.5 79t197.5 28q201 0 328.5 -94t127.5 -242q0 -112 -75.5 -199.5t-213.5 -134.5q114 -49 175 -132.5t61 -188.5q0 -190 -155 -316.5t-388 -126.5 q-238 0 -374 93t-136 257zM725 807q93 32 157 101t64 136q0 82 -70 131.5t-186 49.5q-111 0 -179.5 -51t-68.5 -134q0 -76 65 -129.5t218 -103.5zM285 344q0 -89 75 -141.5t203 -52.5q132 0 215.5 57.5t83.5 146.5q0 92 -102 158q-45 30 -199 88q-135 -37 -205.5 -102.5 t-70.5 -153.5z" />
<glyph unicode="9" d="M74 244l205 69q37 -77 98 -118t137 -41q151 0 251.5 143t137.5 410q-115 -222 -348 -222q-175 0 -289 118.5t-114 301.5q0 215 142 356.5t357 141.5q192 0 326 -125q168 -157 168 -457q0 -163 -46.5 -318t-133.5 -282q-178 -254 -461 -254q-154 0 -268.5 74t-161.5 203z M629 680q109 0 187.5 83.5t78.5 199.5q0 106 -71.5 178.5t-174.5 72.5q-110 0 -188 -82.5t-78 -199.5q0 -106 71 -179t175 -73z" />
<glyph unicode=":" horiz-adv-x="493" d="M150 637l43 250h237l-41 -250h-239zM43 0l41 250h240l-41 -250h-240z" />
<glyph unicode=";" horiz-adv-x="493" d="M150 637l43 250h237l-41 -250h-239zM43 0l41 248h240l-39 -228l-213 -315h-86l170 295h-113z" />
<glyph unicode="&#x3c;" d="M186 584v196l887 441v-230l-641 -309l639 -311l2 -230z" />
<glyph unicode="=" d="M123 733v191h1012v-191h-1012zM123 434v191h1012v-191h-1012z" />
<glyph unicode="&#x3e;" d="M186 141v232l641 309l-639 311l-2 228l887 -443v-194z" />
<glyph unicode="?" horiz-adv-x="991" d="M365 381q6 24 6 35q20 151 58 211t167 143q92 60 133 118t41 126q0 78 -53 129t-135 51q-92 0 -159 -65t-99 -185l-203 78q66 178 191.5 276.5t285.5 98.5q180 0 297 -106.5t117 -268.5q0 -129 -76 -236q-61 -86 -209 -159q-100 -51 -130 -93.5t-42 -152.5h-190zM283 0 l43 254h245l-43 -254h-245z" />
<glyph unicode="@" horiz-adv-x="1501" d="M1266 229l53 -135q-128 -66 -243 -95.5t-249 -29.5q-235 0 -411 101q-157 92 -247.5 253.5t-90.5 350.5q0 150 58 284t157.5 230t238.5 152.5t295 56.5q141 0 266.5 -47t214.5 -128.5t141 -195.5t52 -242q0 -135 -53 -252.5t-143 -187.5t-193 -70q-60 0 -108 28.5 t-70 76.5q-86 -109 -211 -109q-127 0 -209 106t-82 269q0 183 97 299.5t249 116.5q136 0 205 -90l12 69h172l-75 -465q-11 -64 -11 -98q0 -63 62 -63q83 0 150 110.5t67 247.5q0 214 -153 353t-386 139q-162 0 -294.5 -76.5t-208.5 -210.5t-76 -297q0 -155 71 -286t195 -204 q133 -77 323 -77q120 0 210.5 24t224.5 92zM752 434q83 0 146 85t63 196q0 85 -44 132.5t-122 47.5q-86 0 -135.5 -68t-49.5 -188q0 -92 39.5 -148.5t102.5 -56.5z" />
<glyph unicode="A" horiz-adv-x="1234" d="M-57 0l655 1366h301l250 -1366h-272l-58 330h-493l-152 -330h-231zM410 520h387l-107 606z" />
<glyph unicode="B" horiz-adv-x="1251" d="M66 0l229 1366h477q103 0 159 -11.5t111 -43.5q74 -44 115 -119t41 -166q0 -119 -65 -201.5t-191 -122.5q213 -92 213 -315q0 -102 -52 -194.5t-136 -137.5q-55 -31 -121 -43t-172 -12h-608zM444 801h242q84 0 127 11.5t78 43.5q61 55 61 141q0 179 -229 179h-217z M344 201h277q93 0 136.5 9.5t78.5 37.5q71 58 71 168q0 94 -69 151q-34 26 -70.5 35.5t-108.5 9.5h-247z" />
<glyph unicode="C" horiz-adv-x="1210" d="M944 457l201 -82q-176 -410 -541 -410q-229 0 -365.5 163t-136.5 437q0 175 49.5 330t134 266t203 175.5t252.5 64.5q217 0 346 -125t148 -352l-223 -41q-12 112 -47 182q-31 61 -92 96t-136 35q-96 0 -163.5 -53.5t-118.5 -169.5q-37 -88 -65 -223.5t-28 -235.5 q0 -157 69.5 -246.5t191.5 -89.5q98 0 184 75t137 204z" />
<glyph unicode="D" horiz-adv-x="1310" d="M66 0l229 1366h399q144 0 229 -27t160 -96q86 -78 132.5 -204t46.5 -279q0 -175 -61 -331.5t-175 -270.5q-100 -100 -231 -138q-76 -20 -258 -20h-471zM350 207h217q111 0 179.5 29.5t121.5 97.5q64 86 100 204t36 246q0 107 -29.5 190t-83.5 126q-41 35 -94 49t-140 14 h-147z" />
<glyph unicode="E" horiz-adv-x="1099" d="M66 0l229 1366h862l-37 -215h-618l-60 -354h512l-32 -203h-512l-64 -379h643l-37 -215h-886z" />
<glyph unicode="F" horiz-adv-x="1017" d="M66 0l229 1366h840l-37 -215h-590l-62 -369h490l-33 -202h-491l-97 -580h-249z" />
<glyph unicode="G" horiz-adv-x="1325" d="M1006 0l-41 184q-54 -101 -150.5 -155t-222.5 -54q-179 0 -301 101q-189 154 -189 489q0 238 85.5 430.5t236.5 301t338 108.5q400 0 504 -406l-217 -53q-68 248 -287 248q-127 0 -227 -109q-75 -79 -121.5 -226t-46.5 -302q0 -182 74 -279.5t212 -97.5q113 0 196.5 85.5 t115.5 234.5h-297l34 207h527l-119 -707h-104z" />
<glyph unicode="H" horiz-adv-x="1323" d="M66 0l229 1366h244l-95 -561h535l94 561h244l-230 -1366h-243l98 590h-532l-101 -590h-243z" />
<glyph unicode="I" horiz-adv-x="552" d="M66 0l229 1366h252l-230 -1366h-251z" />
<glyph unicode="J" horiz-adv-x="768" d="M-86 -4l39 205q79 -8 139 -8q141 0 197 53.5t84 216.5l151 903h250l-145 -864q-32 -191 -70 -281t-113 -151q-118 -95 -323 -95q-77 0 -209 21z" />
<glyph unicode="K" horiz-adv-x="1263" d="M66 0l229 1366h244l-101 -596l-16 -82l-14 -61q32 49 77 100l576 639h262l-449 -487l271 -879h-258l-203 684l-317 -346l-58 -338h-243z" />
<glyph unicode="L" horiz-adv-x="999" d="M66 0l229 1366h258l-193 -1151h562l-37 -215h-819z" />
<glyph unicode="M" horiz-adv-x="1632" d="M66 0l229 1366h373l143 -917l416 917h399l-227 -1366h-246l209 1243l-582 -1243h-133l-184 1233l-207 -1233h-190z" />
<glyph unicode="N" horiz-adv-x="1329" d="M66 0l229 1366h252l424 -938l157 938h195l-227 -1366h-197l-465 1026l-172 -1026h-196z" />
<glyph unicode="O" horiz-adv-x="1325" d="M104 582q0 264 121 483q91 166 226 253t301 87q244 0 386 -166.5t142 -452.5q0 -143 -40.5 -284t-115.5 -256q-88 -137 -216 -210t-281 -73q-113 0 -210 46.5t-166 128t-108 196.5t-39 248zM428 270q31 -46 88 -74t119 -28q95 0 169 54t118 155q45 100 71.5 228.5 t26.5 244.5q0 170 -73 260t-210 90q-85 0 -147 -43t-113 -137q-50 -93 -82.5 -229t-32.5 -252q0 -177 66 -269z" />
<glyph unicode="P" horiz-adv-x="1222" d="M66 0l229 1366h364q210 0 278.5 -9.5t137.5 -47.5q83 -47 130.5 -136t47.5 -194q0 -101 -44.5 -194t-121.5 -152q-62 -47 -139 -66.5t-207 -19.5h-329l-90 -547h-256zM446 748h242q117 0 158.5 9t77.5 42q71 65 71 172q0 93 -53 143q-35 34 -77 43.5t-158 9.5h-191z" />
<glyph unicode="Q" horiz-adv-x="1312" d="M1118 -72l-22 -207q-64 -10 -144 -10q-254 0 -295 150q-10 34 -10 110q-46 -4 -47 -4q-227 0 -362.5 165t-135.5 443q0 154 47.5 306.5t131.5 269.5q180 250 467 250q243 0 379.5 -163t136.5 -452q0 -270 -115.5 -477t-312.5 -289q4 -58 42 -81t128 -23q60 0 112 12z M362 522q0 -167 66.5 -258.5t189.5 -91.5q172 0 271 170q57 96 88 221.5t31 255.5q0 189 -68.5 286t-200.5 97q-100 0 -174.5 -68.5t-130.5 -211.5q-72 -184 -72 -400z" />
<glyph unicode="R" horiz-adv-x="1308" d="M66 0l229 1366h512q142 0 219 -21t137 -77q121 -112 121 -279q0 -95 -41 -181.5t-110 -139.5q-70 -56 -172 -78l167 -590h-260l-145 561h-320l-94 -561h-243zM436 760h340q74 0 116 12t73 41q30 29 47.5 73t17.5 89q0 88 -59 141q-32 29 -74 40t-123 11h-268z" />
<glyph unicode="S" horiz-adv-x="1132" d="M1114 1106l-223 -82q-35 83 -102.5 126.5t-159.5 43.5q-106 0 -173 -52t-67 -134q0 -60 43.5 -99t140.5 -67q203 -58 257.5 -80.5t113.5 -69.5q55 -44 86 -114t31 -148q0 -95 -44 -188.5t-116 -153.5q-66 -56 -167.5 -86.5t-219.5 -30.5q-217 0 -362 107q-59 43 -96.5 95 t-71.5 138l223 80q44 -112 122.5 -163.5t202.5 -51.5q123 0 200 58.5t77 152.5q0 77 -72 123q-29 18 -64 30t-204 60q-332 95 -332 373q0 191 137.5 308.5t360.5 117.5q351 0 479 -293z" />
<glyph unicode="T" horiz-adv-x="944" d="M262 0l193 1151h-346l36 215h945l-37 -215h-346l-193 -1151h-252z" />
<glyph unicode="U" horiz-adv-x="1239" d="M1245 1366l-147 -883q-28 -168 -66.5 -251.5t-118.5 -149.5q-134 -113 -335 -113q-204 0 -326.5 110t-122.5 296q0 95 18 200l134 791h251l-135 -803q-22 -132 -22 -176q0 -97 63 -152t172 -55q52 0 103 16.5t84 43.5q44 38 68.5 102t47.5 201l138 823h194z" />
<glyph unicode="V" horiz-adv-x="1112" d="M360 0l-229 1366h258l172 -1079l473 1079h217l-618 -1366h-273z" />
<glyph unicode="W" horiz-adv-x="1781" d="M307 -10l-160 1376h265l90 -1032l420 1032h243l109 -1032l414 1032h217l-574 -1376h-246l-118 1028l-422 -1028h-238z" />
<glyph unicode="X" horiz-adv-x="1130" d="M-84 0l549 711l-285 655h271l190 -457l342 457h244l-494 -637l314 -729h-269l-219 522l-393 -522h-250z" />
<glyph unicode="Y" horiz-adv-x="1060" d="M336 0l96 575l-348 791h281l241 -590l389 590h236l-545 -803l-94 -563h-256z" />
<glyph unicode="Z" horiz-adv-x="1077" d="M-43 0l33 201l823 950h-643l37 215h956l-26 -172l-852 -979h710l-37 -215h-1001z" />
<glyph unicode="[" horiz-adv-x="600" d="M180 -242h217l-18 -112h-385l289 1720h385l-21 -113h-217z" />
<glyph unicode="\" horiz-adv-x="890" d="M694 -354l-489 1720h139l485 -1720h-135z" />
<glyph unicode="]" horiz-adv-x="600" d="M-49 -242h219l250 1495h-219l20 113h385l-289 -1720h-385z" />
<glyph unicode="^" horiz-adv-x="1024" d="M51 702l338 670h305l338 -670h-244l-247 486l-246 -486h-244z" />
<glyph unicode="_" horiz-adv-x="1024" d="M29 -106h1024v-209h-1024v209z" />
<glyph unicode="`" horiz-adv-x="1024" d="M733 1161l-373 197l78 129l344 -219z" />
<glyph unicode="a" horiz-adv-x="1095" d="M674 0v43q0 64 16 176q-55 -120 -144.5 -183t-203.5 -63q-135 0 -222 82.5t-87 210.5q0 181 160.5 278t459.5 97q21 0 107 -4q8 49 8 74q0 75 -53 119t-144 44q-83 0 -137.5 -32t-97.5 -107l-201 64q62 119 176.5 182t268.5 63q188 0 299.5 -85.5t111.5 -229.5 q0 -41 -7.5 -90.5t-39.5 -230.5q-51 -273 -51 -351q0 -28 2 -57h-221zM276 291q0 -63 42 -101t112 -38q147 0 246 167q29 49 65 201q-56 0 -184 -18q-148 -23 -214.5 -73t-66.5 -138z" />
<glyph unicode="b" horiz-adv-x="1085" d="M51 0l230 1366h223l-88 -522q73 115 145 165t164 50q136 0 218.5 -113t82.5 -301q0 -105 -30.5 -220t-84.5 -210q-62 -113 -155 -173t-207 -60q-102 0 -179 49.5t-120 142.5l-96 -174h-103zM348 383q0 -91 53.5 -151t135.5 -60q98 0 161 96q46 69 73.5 171t27.5 200 q0 114 -41 172.5t-119 58.5q-141 0 -227 -192q-28 -58 -46 -142.5t-18 -152.5z" />
<glyph unicode="c" horiz-adv-x="978" d="M721 371l188 -70q-76 -169 -180 -246.5t-252 -77.5q-188 0 -296.5 123.5t-108.5 337.5q0 168 64.5 308t177 221.5t247.5 81.5q161 0 263.5 -92.5t133.5 -264.5l-190 -37q-20 99 -70.5 150t-128.5 51q-137 0 -215 -178q-51 -117 -51 -266q0 -116 50 -180t141 -64 q146 0 227 203z" />
<glyph unicode="d" horiz-adv-x="1095" d="M655 0l37 211q-127 -234 -321 -234q-141 0 -223 112.5t-82 305.5q0 183 59 334t162.5 237.5t228.5 86.5q101 0 173 -52.5t104 -150.5l86 516h225l-230 -1366h-219zM295 377q0 -217 166 -217q108 0 176 96q51 70 79.5 169t28.5 202q0 106 -51.5 171.5t-136.5 65.5 q-78 0 -135.5 -59t-89.5 -172q-37 -129 -37 -256z" />
<glyph unicode="e" horiz-adv-x="1067" d="M743 340l199 -53q-140 -312 -444 -312q-198 0 -313 121t-115 328q0 177 66.5 318.5t184.5 221.5t265 80q198 0 305.5 -125.5t107.5 -357.5q0 -47 -4 -80h-698q-8 -47 -8 -75q0 -117 57.5 -185.5t157.5 -68.5q78 0 135.5 45t103.5 143zM319 627h467q-3 260 -198 260 q-102 0 -171 -66.5t-98 -193.5z" />
<glyph unicode="f" horiz-adv-x="645" d="M82 0l139 831h-139l31 187h139q24 103 40 147t46 88q57 85 135.5 122.5t198.5 37.5q79 0 141 -12l-20 -189q-48 13 -103 13q-102 0 -150.5 -47.5t-60.5 -159.5h219l-32 -187h-222l-139 -831h-223z" />
<glyph unicode="g" horiz-adv-x="1038" d="M410 231h122q214 0 302 -49q60 -32 96.5 -90t36.5 -121q0 -75 -46.5 -148t-121.5 -114q-133 -71 -389 -71q-251 0 -353 77q-86 66 -86 162q0 73 33 118t127 101q-48 37 -66 70.5t-18 85.5q0 83 43 137t156 111q-62 47 -88.5 96t-26.5 115q0 155 121 243t334 88 q70 0 125 -14q50 141 115.5 196.5t183.5 55.5q36 0 67 -4v-174q-49 4 -76 4q-104 0 -147 -43q-14 -12 -43 -72q158 -79 158 -243q0 -152 -117 -241t-317 -89q-52 0 -86 5.5t-111 25.5q-48 -28 -69 -57t-21 -68q0 -51 37 -72t125 -21zM535 551q98 0 152 52.5t54 146.5 q0 72 -43 110.5t-123 38.5q-95 0 -151.5 -52t-56.5 -140q0 -75 43 -115.5t125 -40.5zM233 45l-12 -12q-53 -44 -53 -94q0 -72 78.5 -113t216.5 -41q118 0 180 22q107 38 107 134q0 58 -54 73q-38 13 -215 13t-248 18z" />
<glyph unicode="h" horiz-adv-x="1101" d="M51 0l230 1366h223l-88 -524q71 110 143.5 158.5t167.5 48.5q127 0 202 -73t75 -198q0 -34 -23 -176l-100 -602h-226l101 602q18 108 18 131q0 63 -34.5 98t-94.5 35q-117 0 -196 -108q-64 -88 -91 -256l-84 -502h-223z" />
<glyph unicode="i" horiz-adv-x="507" d="M242 1135l41 243h233l-41 -243h-233zM51 0l170 1018h236l-170 -1018h-236z" />
<glyph unicode="j" horiz-adv-x="507" d="M244 1139l39 239h235l-41 -239h-233zM61 53l162 965h234l-154 -928q-29 -174 -60.5 -255t-90.5 -132q-105 -86 -279 -86q-74 0 -145 12l12 191q76 -13 113 -13q105 0 151 58q20 24 31 60.5t26 127.5z" />
<glyph unicode="k" horiz-adv-x="1110" d="M51 0l230 1366h223l-137 -823l512 475h239l-346 -322l240 -696h-242l-178 543l-268 -248l-50 -295h-223z" />
<glyph unicode="l" horiz-adv-x="507" d="M51 0l230 1366h233l-227 -1366h-236z" />
<glyph unicode="m" horiz-adv-x="1746" d="M51 0l170 1018h223l-36 -227q51 124 137 192t192 68q115 0 179.5 -59.5t84.5 -182.5q87 131 169 185.5t194 54.5q125 0 203 -77t78 -200v-19.5t-1 -18.5t-1.5 -16t-3 -22.5t-4.5 -27t-6.5 -39t-8.5 -51.5l-96 -578h-234l103 616q12 73 12 107q0 64 -36.5 98.5 t-104.5 34.5q-227 0 -295 -410l-76 -446h-223l98 592q18 113 18 143q0 59 -33.5 92t-93.5 33q-131 0 -217 -147q-34 -57 -56.5 -136t-47.5 -225l-59 -352h-228z" />
<glyph unicode="n" horiz-adv-x="1099" d="M51 0l170 1018h207l-39 -238q62 108 87.5 142t62.5 61q79 61 184 61q121 0 197.5 -79.5t76.5 -204.5q0 -44 -20 -170l-98 -590h-226l105 610q12 68 12 119q0 61 -34 97t-93 36q-107 0 -183 -105.5t-108 -297.5l-78 -459h-223z" />
<glyph unicode="o" horiz-adv-x="1075" d="M184 100q-112 124 -112 342q0 256 147.5 427t368.5 171q189 0 303.5 -125.5t114.5 -334.5q0 -98 -30 -201.5t-81 -181.5q-71 -109 -170 -166.5t-219 -57.5q-95 0 -181.5 34t-140.5 93zM303 403q0 -115 55 -180t152 -65q165 0 229 223q33 112 33 223q0 123 -52.5 188.5 t-150.5 65.5q-154 0 -219 -184q-47 -126 -47 -271z" />
<glyph unicode="p" horiz-adv-x="1081" d="M305 180l-90 -534h-223l229 1372h201l-35 -211q123 246 318 246q145 0 232 -117.5t87 -312.5q0 -131 -36.5 -257t-102.5 -223q-120 -172 -295 -172q-210 0 -285 209zM348 408q0 -117 54 -185.5t145 -68.5q102 0 162 112q37 70 59.5 162t22.5 180q0 129 -41 195.5 t-119 66.5q-56 0 -109 -37.5t-90 -101.5q-37 -65 -60.5 -154.5t-23.5 -168.5z" />
<glyph unicode="q" horiz-adv-x="1085" d="M580 -354l90 530q-118 -205 -295 -205q-146 0 -227.5 110t-81.5 308q0 180 62.5 330.5t171 237.5t237.5 87q97 0 167.5 -42.5t133.5 -139.5l88 156h114l-4 -19l-12 -49q-1 -4 -11.5 -57.5t-13.5 -77.5l-194 -1169h-225zM293 371q0 -104 41.5 -160.5t116.5 -56.5 q87 0 149 71q59 66 97 183.5t38 232.5q0 103 -47 159t-133 56q-105 0 -166 -98q-45 -73 -70.5 -176t-25.5 -211z" />
<glyph unicode="r" horiz-adv-x="710" d="M51 0l170 1018h207l-47 -277q73 167 160.5 236.5t218.5 66.5l-29 -249q-29 2 -51 2q-75 0 -145 -39t-111 -103q-50 -74 -84 -266l-66 -389h-223z" />
<glyph unicode="s" horiz-adv-x="937" d="M-37 246l215 53q15 -41 31.5 -63t46.5 -41q70 -48 162 -48q89 0 142.5 37t53.5 97q0 41 -33.5 66t-121.5 50q-114 32 -158 48.5t-82 43.5q-121 82 -121 228t108 238t279 92q150 0 252 -58.5t168 -181.5l-192 -64q-38 70 -91 102t-130 32q-73 0 -119.5 -33t-46.5 -84 q0 -41 26 -66t92 -45q152 -44 219 -73.5t109 -69.5q82 -82 82 -191q0 -157 -117.5 -247.5t-320.5 -90.5q-347 0 -453 269z" />
<glyph unicode="t" horiz-adv-x="657" d="M559 182l-31 -184q-112 -14 -145 -14q-127 0 -198.5 58t-71.5 161q0 60 22 182l78 451h-152l31 182h154l59 274l205 15l-47 -289h219l-31 -182h-219l-76 -455q-14 -82 -14 -113q0 -92 143 -92q15 0 74 6z" />
<glyph unicode="u" horiz-adv-x="1083" d="M653 0l39 221q-130 -239 -346 -239q-108 0 -178 70t-70 179q0 34 3.5 59t23.5 140l98 588h223l-106 -631q-14 -80 -14 -113q0 -44 31.5 -73t80.5 -29q61 0 123 42.5t103 113.5q24 41 37.5 93t33.5 167l74 430h223l-170 -1018h-209z" />
<glyph unicode="v" horiz-adv-x="915" d="M295 0l-217 1018h246l135 -713l329 713h199l-485 -1018h-207z" />
<glyph unicode="w" horiz-adv-x="1431" d="M244 0l-152 1018h232l92 -705l293 705h202l74 -703l313 703h199l-465 -1018h-211l-78 725l-292 -725h-207z" />
<glyph unicode="x" horiz-adv-x="935" d="M-96 0l442 539l-237 479h258l141 -313l246 313h219l-377 -459l272 -559h-254l-182 391l-307 -391h-221z" />
<glyph unicode="y" horiz-adv-x="931" d="M-47 -166q60 -8 131 -8q79 0 122.5 30t82.5 109l39 80l-250 973h239l156 -701l336 701h195l-523 -1053q-68 -138 -91 -176t-62 -72q-99 -86 -265 -86q-43 0 -120 9z" />
<glyph unicode="z" horiz-adv-x="862" d="M-35 0l27 182l571 660h-432l31 176h721l-27 -158l-582 -678h486l-31 -182h-764z" />
<glyph unicode="{" horiz-adv-x="600" d="M61 -63l56 342q8 62 8 65q0 92 -92 115l18 106q66 15 98.5 52.5t45.5 115.5l59 357q25 148 106 212t242 64q14 0 80 -2l-18 -113q-123 0 -166 -30.5t-60 -130.5l-59 -349q-17 -101 -51.5 -150t-112.5 -85q51 -32 71.5 -67.5t20.5 -90.5q0 -20 -8 -82l-55 -340 q-11 -67 -11 -80q0 -62 70 -77q39 -9 111 -9l-19 -112q-74 -2 -92 -2q-129 0 -190.5 47.5t-61.5 148.5q0 23 10 95z" />
<glyph unicode="|" horiz-adv-x="1024" d="M426 -342v1708h231v-1708h-231z" />
<glyph unicode="}" horiz-adv-x="600" d="M162 -78l59 348q17 101 52.5 150.5t111.5 85.5q-51 32 -71.5 67.5t-20.5 90.5q0 37 8 81l55 340q11 67 11 80q0 63 -70 78q-35 8 -111 8l19 113q74 2 92 2q129 0 190.5 -48t61.5 -149q0 -26 -10 -94l-56 -342q-8 -62 -8 -65q0 -92 92 -115l-18 -107q-65 -15 -97.5 -52 t-45.5 -115l-60 -357q-25 -148 -106 -212t-242 -64q-14 0 -80 2l19 112q122 0 165 31.5t60 130.5z" />
<glyph unicode="~" d="M262 494l-129 84q61 148 129.5 209t171.5 61q72 0 217 -57q96 -37 125 -45.5t60 -8.5q52 0 84.5 24t72.5 91l133 -78q-41 -87 -70 -128.5t-69 -70.5q-79 -61 -180 -61q-37 0 -90 16t-205 74q-58 21 -94 21q-49 0 -83.5 -28.5t-72.5 -102.5z" />
<glyph unicode="&#xa1;" horiz-adv-x="505" d="M172 758l41 252h246l-41 -252h-246zM8 -354l221 985h103l-33 -985h-291z" />
<glyph unicode="&#xa2;" d="M453 -104l55 337q-268 72 -268 392q0 153 57.5 275t163.5 194q83 55 203 63l43 258h112l-43 -268q104 -19 179.5 -99t97.5 -196l-176 -35q-15 151 -127 172l-105 -616q63 -1 117 43t92 129l137 -66q-117 -257 -370 -260l-56 -323h-112zM541 393l100 600q-47 -9 -77 -31.5 t-58 -68.5q-29 -47 -47.5 -127.5t-18.5 -157.5q0 -83 24 -134.5t77 -80.5z" />
<glyph unicode="&#xa3;" d="M-90 0l39 229q143 5 210.5 35t119.5 117q30 51 37 94t10 170h-164l31 178h139q-2 20 -2 47q0 124 27.5 214t88.5 163q140 172 375 172q257 0 348 -252l-206 -90q-41 154 -168 154q-59 0 -109.5 -35.5t-75.5 -93.5q-28 -67 -28 -238q0 -23 2 -41h258l-29 -178h-242 q-9 -145 -65 -252t-152 -166h269q161 0 241.5 44t118.5 153l197 -111q-74 -161 -206 -237t-341 -76h-723z" />
<glyph unicode="&#xa4;" horiz-adv-x="1501" d="M174 274l207 205q-94 134 -94 285q0 146 94 283l-209 208l127 127l207 -208q76 52 143.5 74t147.5 22q147 0 284 -92l205 202l127 -127l-205 -202q52 -78 74.5 -145t22.5 -144q0 -143 -93 -281l205 -207l-125 -127l-207 205q-134 -96 -288 -96q-78 0 -146 22t-145 74 l-205 -205zM500 762q0 -123 87 -211t210 -88t210 88t87 211t-86.5 212t-206.5 89q-126 0 -213.5 -87.5t-87.5 -213.5z" />
<glyph unicode="&#xa5;" d="M426 0l72 420h-387l20 123h387l4 32l-67 168h-289l20 123h217l-202 500h254l231 -592l381 592h213l-326 -500h244l-20 -123h-304l-120 -180l-2 -20h391l-21 -123h-391l-72 -420h-233z" />
<glyph unicode="&#xa6;" horiz-adv-x="1024" d="M426 664v702h231v-702h-231zM426 313h231v-655h-231v655z" />
<glyph unicode="&#xa7;" d="M16 -70l228 39q68 -168 280 -168q94 0 154.5 45.5t60.5 114.5q0 57 -44 97.5t-154 84.5q-152 60 -201.5 85.5t-83.5 60.5q-74 74 -74 194q0 202 219 336q-92 65 -92 197q0 156 125.5 260t313.5 104q183 0 309 -104q31 -26 53 -55.5t51 -83.5l-188 -58q-40 75 -97 109.5 t-143 34.5t-146.5 -41.5t-60.5 -100.5q0 -45 32 -72.5t132 -66.5q131 -53 195 -86t96 -63q86 -77 86 -205q0 -99 -45 -177.5t-143 -150.5q104 -71 104 -223q0 -179 -132 -292.5t-341 -113.5q-185 0 -304.5 72t-189.5 227zM522 748l-12 -9q-69 -46 -93 -80t-24 -81 q0 -57 46 -97t173 -94q64 -25 129 -57q119 92 119 178q0 60 -53 102q-30 25 -60.5 40t-130.5 55q-48 18 -94 43z" />
<glyph unicode="&#xa8;" horiz-adv-x="1024" d="M809 1188q-47 0 -79 31.5t-32 78.5t32.5 80t78.5 33q49 0 81 -32.5t32 -82.5q0 -46 -33 -77t-80 -31zM475 1188q-47 0 -78.5 31.5t-31.5 78.5t32 80t78 33q49 0 81 -32.5t32 -82.5q0 -46 -33 -77t-80 -31z" />
<glyph unicode="&#xa9;" horiz-adv-x="1583" d="M113 682q0 195 95 359t260.5 259t362.5 95q140 0 269.5 -57t223.5 -153t150 -228t56 -275q0 -192 -95 -356t-258 -259.5t-354 -95.5q-144 0 -275.5 56.5t-226.5 152t-151.5 227t-56.5 275.5zM240 682q0 -161 78 -298.5t212.5 -217.5t292.5 -80q157 0 290.5 80 t211.5 217.5t78 298.5q0 160 -77.5 298t-209.5 219t-285 81q-163 0 -299 -79.5t-214 -216.5t-78 -302zM987 561l143 -57q-106 -252 -346 -252q-148 0 -235.5 99.5t-87.5 266.5q0 212 115.5 354t287.5 142q140 0 223 -77t95 -218l-158 -26q-12 98 -51 142t-113 44 q-84 0 -133 -76q-34 -53 -58 -145.5t-24 -171.5q0 -91 40.5 -143t111.5 -52q121 0 190 170z" />
<glyph unicode="&#xaa;" horiz-adv-x="720" d="M528 829l2 27q-34 -47 -87 -74.5t-111 -27.5q-88 0 -145.5 51t-57.5 129q0 109 102 169t287 60q35 0 62 -2q4 28 4 33q0 43 -30.5 67.5t-84.5 24.5q-49 0 -79 -18.5t-58 -65.5l-144 43q81 156 289 156q120 0 193 -53.5t73 -139.5q0 -42 -28 -190q-31 -155 -31 -205 q0 -14 4 -43h-160q-2 16 -2 23q0 18 2 36zM563 1067l2 10q-152 -12 -208 -39.5t-56 -89.5q0 -34 23.5 -55t62.5 -21q64 0 117 62q26 31 37.5 55.5t21.5 77.5z" />
<glyph unicode="&#xab;" horiz-adv-x="673" d="M449 223l-123 293l202 281h107l-156 -287l60 -287h-90zM199 223l-123 289l203 285h104l-154 -291l58 -283h-88z" />
<glyph unicode="&#xac;" d="M186 338v209h887v-547h-231v338h-656z" />
<glyph unicode="&#xad;" horiz-adv-x="493" d="M-14 414l30 182h490l-31 -182h-489z" />
<glyph unicode="&#xae;" horiz-adv-x="1583" d="M113 682q0 195 95 359t260.5 259t362.5 95q140 0 269.5 -57t223.5 -153t150 -228t56 -275q0 -192 -95 -356t-258 -259.5t-354 -95.5q-144 0 -275.5 56.5t-226.5 152t-151.5 227t-56.5 275.5zM240 682q0 -161 78 -298.5t212.5 -217.5t292.5 -80q157 0 290.5 80 t211.5 217.5t78 298.5q0 160 -77.5 298t-209.5 219t-285 81q-163 0 -299 -79.5t-214 -216.5t-78 -302zM487 272l138 820h295q79 0 122.5 -12.5t79.5 -45.5q70 -67 70 -168q0 -88 -48 -153t-130 -88h-2l90 -353h-166l-78 332h-160l-55 -332h-156zM719 735h180q64 0 90 23 q18 15 29.5 42.5t11.5 55.5q0 54 -32 79.5t-101 25.5h-139z" />
<glyph unicode="&#xaf;" horiz-adv-x="1024" d="M336 1223l22 129h586l-22 -129h-586z" />
<glyph unicode="&#xb0;" d="M705 848q-115 0 -195 80t-80 196q0 109 81 189t191 80q114 0 194.5 -79.5t80.5 -193.5q0 -112 -79.5 -192t-192.5 -80zM705 985q55 0 95 39.5t40 95.5t-40.5 95.5t-97.5 39.5q-55 0 -95 -39.5t-40 -93.5q0 -57 40.5 -97t97.5 -40z" />
<glyph unicode="&#xb1;" d="M496 170v424h-412v190h412v426h190v-426h410v-190h-410v-424h-190zM84 -88v190h1012v-190h-1012z" />
<glyph unicode="&#xb2;" horiz-adv-x="792" d="M72 547l20 158q216 112 379 223q82 57 119 106t37 101t-38 86t-95 34q-69 0 -118 -44.5t-69 -127.5l-149 60q47 124 134.5 188t207.5 64q129 0 215 -74.5t86 -183.5q0 -86 -45.5 -152.5t-149.5 -130.5q-147 -91 -321 -164h473l-25 -143h-661z" />
<glyph unicode="&#xb3;" horiz-adv-x="792" d="M305 1135l-145 61q63 98 144 143t194 45q130 0 215.5 -63t85.5 -158q0 -137 -172 -192q62 -20 98.5 -71t36.5 -116q0 -113 -95.5 -184.5t-246.5 -71.5q-129 0 -214.5 59t-119.5 173l154 35q12 -63 62 -100.5t122 -37.5q73 0 120.5 37t47.5 94q0 33 -15.5 60t-41.5 39 q-18 10 -42 13t-83 3h-68l20 127h46q107 0 164 31t57 90q0 44 -38.5 73t-98.5 29q-62 0 -110.5 -30.5t-76.5 -87.5z" />
<glyph unicode="&#xb4;" horiz-adv-x="1024" d="M504 1161l-43 107l393 219l66 -137z" />
<glyph unicode="&#xb5;" d="M33 -354l229 1372h223l-90 -549q-16 -110 -16 -135q0 -78 44.5 -128t113.5 -50q54 0 104.5 27t81.5 73q44 63 70 213l92 549h223l-170 -1018h-188l26 158q-63 -103 -120.5 -144t-139.5 -41q-72 0 -112 34.5t-66 119.5l-82 -481h-223z" />
<glyph unicode="&#xb6;" d="M489 -334l173 1036h-76q-134 0 -197.5 10.5t-109.5 41.5q-103 65 -103 217q0 189 133 301q68 56 148 75t245 19h551l-18 -115h-137l-264 -1585h-115l264 1585h-113l-264 -1585h-117zM754 1251h-60q-119 0 -172 -13t-84 -50q-29 -32 -47 -85.5t-18 -101.5q0 -116 69 -157 q49 -27 158 -27h82z" />
<glyph unicode="&#xb7;" horiz-adv-x="280" d="M0 379l43 252h238l-41 -252h-240z" />
<glyph unicode="&#xb8;" horiz-adv-x="1024" d="M350 -172l82 172h82l-41 -92h10q68 0 116 -39t48 -96q0 -69 -64.5 -122.5t-150.5 -53.5q-35 0 -74.5 12.5t-111.5 46.5l45 80q78 -47 141 -47q37 0 60.5 18.5t23.5 48.5q0 72 -158 72h-8z" />
<glyph unicode="&#xb9;" horiz-adv-x="792" d="M117 547l22 139h228l82 490q-115 -68 -238 -68q-17 0 -27 2l23 135q228 18 328 150h112l-119 -709h230l-23 -139h-618z" />
<glyph unicode="&#xba;" horiz-adv-x="706" d="M434 760q-130 0 -205 76t-75 208q0 154 94 255.5t235 101.5q120 0 195.5 -77t75.5 -200q0 -155 -92 -259.5t-228 -104.5zM438 881q66 0 107 70.5t41 185.5q0 69 -30.5 106t-86.5 37q-68 0 -102 -63q-48 -84 -48 -195q0 -66 31.5 -103.5t87.5 -37.5z" />
<glyph unicode="&#xbb;" horiz-adv-x="673" d="M293 223l153 291l-57 283h86l125 -289l-203 -285h-104zM41 223l154 287l-58 287h90l123 -293l-203 -281h-106z" />
<glyph unicode="&#xbc;" horiz-adv-x="1802" d="M78 547l22 139h228l82 490q-115 -68 -238 -68q-17 0 -27 2l23 135q228 18 328 150h112l-119 -709h230l-23 -139h-618zM322 0l1069 1366h149l-1065 -1366h-153zM1057 182l22 137l463 527h170l-88 -529h135l-22 -135h-135l-31 -182h-164l31 182h-381zM1217 305h256l59 352z " />
<glyph unicode="&#xbd;" horiz-adv-x="1802" d="M76 547l22 139h228l82 490q-115 -68 -238 -68q-17 0 -27 2l23 135q228 18 328 150h112l-119 -709h230l-23 -139h-618zM319 0l1070 1366h149l-1065 -1366h-154zM1028 0l21 158q225 117 381 223q82 57 118.5 106t36.5 101t-38 86.5t-97 34.5q-69 0 -117.5 -44.5 t-68.5 -127.5l-150 59q100 252 344 252q129 0 215 -74.5t86 -183.5q0 -87 -45 -153t-149 -130q-141 -87 -324 -164h473l-24 -143h-662z" />
<glyph unicode="&#xbe;" horiz-adv-x="1802" d="M266 1135l-145 61q63 98 144 143t194 45q130 0 215.5 -63t85.5 -158q0 -137 -172 -192q62 -20 98.5 -71t36.5 -116q0 -113 -95.5 -184.5t-246.5 -71.5q-129 0 -214.5 59t-119.5 173l154 35q12 -63 62 -100.5t122 -37.5q73 0 120.5 37t47.5 94q0 33 -15.5 60t-41.5 39 q-18 10 -42 13t-83 3h-68l21 127h45q107 0 164 31t57 90q0 44 -38.5 73t-98.5 29q-62 0 -110.5 -30.5t-76.5 -87.5zM322 0l1067 1366h151l-1067 -1366h-151zM1055 182l24 137l463 527h170l-88 -529h135l-24 -135h-136l-28 -182h-164l29 182h-381zM1217 305h253l60 352z" />
<glyph unicode="&#xbf;" horiz-adv-x="991" d="M422 756l43 254h246l-43 -254h-246zM668 68l202 -80q-66 -177 -191 -275t-286 -98q-180 0 -296.5 106t-116.5 269q0 61 20 123.5t55 109.5q60 85 211 162q99 49 128.5 91t43.5 153h189q-4 -31 -6 -35q-11 -81 -21.5 -124.5t-37 -85t-62 -70.5t-105.5 -74 q-91 -60 -132.5 -118t-41.5 -124q0 -78 53.5 -129t135.5 -51q92 0 159.5 65t98.5 185z" />
<glyph unicode="&#xc0;" horiz-adv-x="1234" d="M403 1645l66 141l393 -191l-41 -106zM-57 0l655 1366h301l250 -1366h-272l-58 330h-493l-152 -330h-231zM410 520h387l-107 606z" />
<glyph unicode="&#xc1;" horiz-adv-x="1234" d="M705 1489l-35 106l440 191l59 -141zM-57 0l655 1366h301l250 -1366h-272l-58 330h-493l-152 -330h-231zM410 520h387l-107 606z" />
<glyph unicode="&#xc2;" horiz-adv-x="1234" d="M408 1516l413 260l297 -260l-192 -21l-127 111l-205 -111zM-57 0l655 1366h301l250 -1366h-272l-58 330h-493l-152 -330h-231zM410 520h387l-107 606z" />
<glyph unicode="&#xc3;" horiz-adv-x="1234" d="M518 1520l-59 98q118 121 233 121q54 0 131 -39q82 -43 133 -43q36 0 63.5 16.5t67.5 61.5l66 -97q-109 -122 -233 -122q-58 0 -144 43q-80 40 -114 40q-47 0 -144 -79zM-57 0l655 1366h301l250 -1366h-272l-58 330h-493l-152 -330h-231zM410 520h387l-107 606z" />
<glyph unicode="&#xc4;" horiz-adv-x="1234" d="M965 1511q-47 0 -79 32t-32 79t32.5 80t78.5 33q49 0 80.5 -32.5t31.5 -82.5q0 -46 -32.5 -77.5t-79.5 -31.5zM616 1511q-47 0 -78.5 32t-31.5 79t32 80t78 33q49 0 81 -32.5t32 -82.5q0 -46 -33 -77.5t-80 -31.5zM-57 0l655 1366h301l250 -1366h-272l-58 330h-493 l-152 -330h-231zM410 520h387l-107 606z" />
<glyph unicode="&#xc5;" horiz-adv-x="1234" d="M760 1454q-77 0 -131 54t-54 130t55.5 131.5t131.5 55.5q78 0 131 -54.5t53 -132.5q0 -77 -54 -130.5t-132 -53.5zM760 1559q37 0 59.5 22t22.5 57t-22 58.5t-54 23.5q-38 0 -62 -22.5t-24 -57.5q0 -36 22 -58.5t58 -22.5zM-57 0l655 1366h301l250 -1366h-272l-58 330 h-493l-152 -330h-231zM410 520h387l-107 606z" />
<glyph unicode="&#xc6;" horiz-adv-x="1716" d="M111 0h-230l895 1366h1000l-37 -215h-637l-60 -354h531l-33 -201h-530l-64 -381h662l-37 -215h-905l59 350h-391zM455 537h301l104 626z" />
<glyph unicode="&#xc7;" horiz-adv-x="1210" d="M424 -180l74 153q-87 23 -141.5 54.5t-104.5 87.5q-150 176 -150 450q0 175 49.5 330t134 266t203 175.5t252.5 64.5q217 0 346 -125t148 -352l-223 -41q-12 112 -47 182q-31 61 -92 96t-136 35q-96 0 -163.5 -53.5t-118.5 -169.5q-37 -88 -65 -223.5t-28 -235.5 q0 -157 69.5 -246.5t191.5 -89.5q98 0 184 75t137 204l201 -82q-85 -204 -227 -308.5t-332 -101.5l-33 -65q8 2 18 2q89 0 139 -36t50 -99q0 -83 -68.5 -140t-167.5 -57q-94 0 -217 59l47 82q71 -32 100 -41.5t60 -9.5q44 0 74 24.5t30 59.5q0 78 -137 78q-32 0 -57 -2z" />
<glyph unicode="&#xc8;" horiz-adv-x="1099" d="M430 1645l66 141l393 -191l-41 -106zM66 0l229 1366h862l-37 -215h-618l-60 -354h512l-32 -203h-512l-64 -379h643l-37 -215h-886z" />
<glyph unicode="&#xc9;" horiz-adv-x="1099" d="M684 1489l-35 106l441 191l59 -141zM66 0l229 1366h862l-37 -215h-618l-60 -354h512l-32 -203h-512l-64 -379h643l-37 -215h-886z" />
<glyph unicode="&#xca;" horiz-adv-x="1099" d="M410 1516l413 260l297 -260l-192 -21l-127 111l-205 -111zM66 0l229 1366h862l-37 -215h-618l-60 -354h512l-32 -203h-512l-64 -379h643l-37 -215h-886z" />
<glyph unicode="&#xcb;" horiz-adv-x="1099" d="M950 1511q-47 0 -78.5 32t-31.5 79t32 80t78 33q49 0 81 -32.5t32 -82.5q0 -46 -33 -77.5t-80 -31.5zM602 1511q-47 0 -78.5 32t-31.5 79t32 80t78 33q49 0 81 -32.5t32 -82.5q0 -46 -33 -77.5t-80 -31.5zM66 0l229 1366h862l-37 -215h-618l-60 -354h512l-32 -203h-512 l-64 -379h643l-37 -215h-886z" />
<glyph unicode="&#xcc;" horiz-adv-x="552" d="M494 1489l-377 156l67 141l351 -191zM66 0l227 1366h254l-230 -1366h-251z" />
<glyph unicode="&#xcd;" horiz-adv-x="552" d="M391 1489l-35 106l402 191l57 -141zM66 0l229 1366h252l-230 -1366h-251z" />
<glyph unicode="&#xce;" horiz-adv-x="552" d="M106 1516l379 260l265 -260l-187 -21l-98 111l-178 -111zM66 0l227 1366h254l-230 -1366h-251z" />
<glyph unicode="&#xcf;" horiz-adv-x="552" d="M600 1516q-45 0 -75.5 30.5t-30.5 75.5t31 77t75 32q47 0 78 -32t31 -79q0 -44 -31.5 -74t-77.5 -30zM313 1516q-45 0 -75.5 30.5t-30.5 75.5t31 77t75 32q47 0 78 -32t31 -79q0 -44 -31.5 -74t-77.5 -30zM66 0l229 1366h252l-230 -1366h-251z" />
<glyph unicode="&#xd0;" horiz-adv-x="1310" d="M68 0l100 602h-137l32 191h136l96 573h399q145 0 230 -27t159 -96q85 -78 132 -204.5t47 -278.5q0 -175 -61.5 -332t-174.5 -270q-95 -99 -231 -138q-76 -20 -256 -20h-471zM350 207h217q112 0 181 29t122 98q63 83 98.5 202.5t35.5 247.5q0 107 -29.5 190t-83.5 126 q-41 35 -93.5 49t-138.5 14h-147l-63 -370h321l-33 -191h-319z" />
<glyph unicode="&#xd1;" horiz-adv-x="1329" d="M606 1520l-59 98q118 121 233 121q54 0 131 -39q82 -43 133 -43q36 0 64 16.5t68 61.5l65 -97q-109 -122 -233 -122q-58 0 -144 43q-80 40 -114 40q-47 0 -144 -79zM66 0l229 1366h252l424 -938l157 938h195l-227 -1366h-197l-465 1026l-172 -1026h-196z" />
<glyph unicode="&#xd2;" horiz-adv-x="1325" d="M518 1645l66 141l393 -191l-41 -106zM104 582q0 264 121 483q91 166 226 253t301 87q244 0 386 -166.5t142 -452.5q0 -143 -40.5 -284t-115.5 -256q-88 -137 -216 -210t-281 -73q-113 0 -210 46.5t-166 128t-108 196.5t-39 248zM428 270q31 -46 88 -74t119 -28 q95 0 169 54t118 155q45 100 71.5 228.5t26.5 244.5q0 170 -73 260t-210 90q-85 0 -147 -43t-113 -137q-50 -93 -82.5 -229t-32.5 -252q0 -177 66 -269z" />
<glyph unicode="&#xd3;" horiz-adv-x="1325" d="M758 1489l-35 106l440 191l60 -141zM104 582q0 264 121 483q91 166 226 253t301 87q244 0 386 -166.5t142 -452.5q0 -143 -40.5 -284t-115.5 -256q-88 -137 -216 -210t-281 -73q-113 0 -210 46.5t-166 128t-108 196.5t-39 248zM428 270q31 -46 88 -74t119 -28 q95 0 169 54t118 155q45 100 71.5 228.5t26.5 244.5q0 170 -73 260t-210 90q-85 0 -147 -43t-113 -137q-50 -93 -82.5 -229t-32.5 -252q0 -177 66 -269z" />
<glyph unicode="&#xd4;" horiz-adv-x="1325" d="M453 1516l413 260l297 -260l-192 -21l-127 111l-205 -111zM104 582q0 264 121 483q91 166 226 253t301 87q244 0 386 -166.5t142 -452.5q0 -143 -40.5 -284t-115.5 -256q-88 -137 -216 -210t-281 -73q-113 0 -210 46.5t-166 128t-108 196.5t-39 248zM428 270 q31 -46 88 -74t119 -28q95 0 169 54t118 155q45 100 71.5 228.5t26.5 244.5q0 170 -73 260t-210 90q-85 0 -147 -43t-113 -137q-50 -93 -82.5 -229t-32.5 -252q0 -177 66 -269z" />
<glyph unicode="&#xd5;" horiz-adv-x="1325" d="M590 1520l-60 98q118 121 234 121q54 0 131 -39q82 -43 133 -43q36 0 63.5 16.5t67.5 61.5l66 -97q-109 -122 -234 -122q-57 0 -143 43q-80 40 -115 40q-46 0 -143 -79zM104 582q0 264 121 483q91 166 226 253t301 87q244 0 386 -166.5t142 -452.5q0 -143 -40.5 -284 t-115.5 -256q-88 -137 -216 -210t-281 -73q-113 0 -210 46.5t-166 128t-108 196.5t-39 248zM428 270q31 -46 88 -74t119 -28q95 0 169 54t118 155q45 100 71.5 228.5t26.5 244.5q0 170 -73 260t-210 90q-85 0 -147 -43t-113 -137q-50 -93 -82.5 -229t-32.5 -252 q0 -177 66 -269z" />
<glyph unicode="&#xd6;" horiz-adv-x="1325" d="M1030 1511q-47 0 -78.5 32t-31.5 79t32 80t78 33q49 0 81 -32.5t32 -82.5q0 -46 -33 -77.5t-80 -31.5zM682 1511q-47 0 -79 32t-32 79t32.5 80t78.5 33q49 0 81 -32.5t32 -82.5q0 -46 -33 -77.5t-80 -31.5zM104 582q0 264 121 483q91 166 226 253t301 87 q244 0 386 -166.5t142 -452.5q0 -143 -40.5 -284t-115.5 -256q-88 -137 -216 -210t-281 -73q-113 0 -210 46.5t-166 128t-108 196.5t-39 248zM428 270q31 -46 88 -74t119 -28q95 0 169 54t118 155q45 100 71.5 228.5t26.5 244.5q0 170 -73 260t-210 90q-85 0 -147 -43 t-113 -137q-50 -93 -82.5 -229t-32.5 -252q0 -177 66 -269z" />
<glyph unicode="&#xd7;" d="M332 254l-135 135l301 301l-301 301l135 135l301 -301l301 301l135 -135l-301 -301l299 -301l-133 -135l-301 301z" />
<glyph unicode="&#xd8;" horiz-adv-x="1325" d="M-23 -31l211 252q-84 159 -84 359q0 116 30.5 240t84.5 227q91 173 226.5 264.5t302.5 91.5q211 0 348 -121l100 109h199l-199 -232q84 -165 84 -368q0 -145 -42 -291.5t-114 -255.5q-93 -137 -219 -209t-276 -72q-103 0 -173.5 27.5t-164.5 103.5l-117 -125h-197z M371 418l569 700q-76 82 -205 82q-189 0 -284 -235q-38 -92 -63.5 -222.5t-25.5 -232.5q0 -24 9 -92zM438 258q78 -90 201 -90q103 0 183 69t126 199q32 88 51 202t19 212q0 47 -10 108z" />
<glyph unicode="&#xd9;" horiz-adv-x="1239" d="M487 1645l66 141l393 -191l-41 -106zM1245 1366l-147 -883q-28 -168 -66.5 -251.5t-118.5 -149.5q-134 -113 -335 -113q-204 0 -326.5 110t-122.5 296q0 95 18 200l134 791h251l-135 -803q-22 -132 -22 -176q0 -97 63 -152t172 -55q52 0 103 16.5t84 43.5q44 38 68.5 102 t47.5 201l138 823h194z" />
<glyph unicode="&#xda;" horiz-adv-x="1239" d="M774 1489l-35 106l441 191l59 -141zM1245 1366l-147 -883q-28 -168 -66.5 -251.5t-118.5 -149.5q-134 -113 -335 -113q-204 0 -326.5 110t-122.5 296q0 95 18 200l134 791h251l-135 -803q-22 -132 -22 -176q0 -97 63 -152t172 -55q52 0 103 16.5t84 43.5q44 38 68.5 102 t47.5 201l138 823h194z" />
<glyph unicode="&#xdb;" horiz-adv-x="1239" d="M455 1516l413 260l297 -260l-192 -21l-127 111l-205 -111zM1245 1366l-147 -883q-28 -168 -66.5 -251.5t-118.5 -149.5q-134 -113 -335 -113q-204 0 -326.5 110t-122.5 296q0 95 18 200l134 791h251l-135 -803q-22 -132 -22 -176q0 -97 63 -152t172 -55q52 0 103 16.5 t84 43.5q44 38 68.5 102t47.5 201l138 823h194z" />
<glyph unicode="&#xdc;" horiz-adv-x="1239" d="M1004 1511q-47 0 -79 32t-32 79t32.5 80t78.5 33q49 0 80.5 -32.5t31.5 -82.5q0 -46 -32.5 -77.5t-79.5 -31.5zM655 1511q-47 0 -78.5 32t-31.5 79t32 80t78 33q49 0 81 -32.5t32 -82.5q0 -46 -33 -77.5t-80 -31.5zM1245 1366l-147 -883q-28 -168 -66.5 -251.5 t-118.5 -149.5q-134 -113 -335 -113q-204 0 -326.5 110t-122.5 296q0 95 18 200l134 791h251l-135 -803q-22 -132 -22 -176q0 -97 63 -152t172 -55q52 0 103 16.5t84 43.5q44 38 68.5 102t47.5 201l138 823h194z" />
<glyph unicode="&#xdd;" horiz-adv-x="1060" d="M631 1489l-35 106l440 191l60 -141zM336 0l96 575l-348 791h281l241 -590l389 590h236l-545 -803l-94 -563h-256z" />
<glyph unicode="&#xde;" horiz-adv-x="1236" d="M66 0l229 1366h254l-31 -192h111q206 0 276 -10t139 -48q83 -47 131 -135.5t48 -194.5q0 -101 -44.5 -193t-121.5 -151q-63 -48 -139.5 -67t-206.5 -19h-330l-59 -356h-256zM414 557h243q116 0 157 8.5t79 42.5q34 29 53 74.5t19 95.5q0 93 -54 144q-35 34 -77 43.5 t-158 9.5h-193z" />
<glyph unicode="&#xdf;" horiz-adv-x="1148" d="M59 0l140 834h-115l31 184h114q34 253 169 390.5t350 137.5q163 0 268.5 -84.5t105.5 -214.5q0 -65 -29.5 -124.5t-82.5 -100.5q-76 -62 -283 -92q-41 -6 -41 -33q0 -12 2 -17t17.5 -15.5t43.5 -23.5t87 -39q10 -5 16 -7q114 -51 177 -140.5t63 -199.5 q0 -87 -36.5 -169.5t-101.5 -144.5q-122 -116 -313 -116q-109 0 -238 49l60 166q106 -33 174 -33q101 0 166 49.5t65 124.5q0 58 -37.5 101t-138.5 100q-102 57 -143 107.5t-41 117.5q0 96 57 168q29 39 57 54t119 40q71 20 110.5 62.5t39.5 99.5q0 67 -45.5 109t-116.5 42 q-60 0 -110.5 -27.5t-79.5 -76.5q-17 -26 -39.5 -105t-34.5 -155l-170 -1018h-236z" />
<glyph unicode="&#xe0;" horiz-adv-x="1095" d="M762 1161l-373 197l78 129l344 -219zM674 0v43q0 64 16 176q-55 -120 -144.5 -183t-203.5 -63q-135 0 -222 82.5t-87 210.5q0 181 160.5 278t459.5 97q21 0 107 -4q8 49 8 74q0 75 -53 119t-144 44q-83 0 -137.5 -32t-97.5 -107l-201 64q62 119 176.5 182t268.5 63 q188 0 299.5 -85.5t111.5 -229.5q0 -41 -7.5 -90.5t-39.5 -230.5q-51 -273 -51 -351q0 -28 2 -57h-221zM276 291q0 -63 42 -101t112 -38q147 0 246 167q29 49 65 201q-56 0 -184 -18q-148 -23 -214.5 -73t-66.5 -138z" />
<glyph unicode="&#xe1;" horiz-adv-x="1095" d="M598 1161l-43 107l393 219l66 -137zM674 0v43q0 64 16 176q-55 -120 -144.5 -183t-203.5 -63q-135 0 -222 82.5t-87 210.5q0 181 160.5 278t459.5 97q21 0 107 -4q8 49 8 74q0 75 -53 119t-144 44q-83 0 -137.5 -32t-97.5 -107l-201 64q62 119 176.5 182t268.5 63 q188 0 299.5 -85.5t111.5 -229.5q0 -41 -7.5 -90.5t-39.5 -230.5q-51 -273 -51 -351q0 -28 2 -57h-221zM276 291q0 -63 42 -101t112 -38q147 0 246 167q29 49 65 201q-56 0 -184 -18q-148 -23 -214.5 -73t-66.5 -138z" />
<glyph unicode="&#xe2;" horiz-adv-x="1095" d="M311 1188l404 289l284 -289l-176 -21l-131 131l-203 -131zM674 0v43q0 64 16 176q-55 -120 -144.5 -183t-203.5 -63q-135 0 -222 82.5t-87 210.5q0 181 160.5 278t459.5 97q21 0 107 -4q8 49 8 74q0 75 -53 119t-144 44q-83 0 -137.5 -32t-97.5 -107l-201 64 q62 119 176.5 182t268.5 63q188 0 299.5 -85.5t111.5 -229.5q0 -41 -7.5 -90.5t-39.5 -230.5q-51 -273 -51 -351q0 -28 2 -57h-221zM276 291q0 -63 42 -101t112 -38q147 0 246 167q29 49 65 201q-56 0 -184 -18q-148 -23 -214.5 -73t-66.5 -138z" />
<glyph unicode="&#xe3;" horiz-adv-x="1095" d="M408 1206l-54 97q116 122 219 122q55 0 129 -39q52 -27 75.5 -35t49.5 -8q34 0 58.5 14t68.5 60l54 -98q-41 -55 -97.5 -86t-115.5 -31t-148 47q-68 37 -100 37q-29 0 -54 -14.5t-85 -65.5zM674 0v43q0 64 16 176q-55 -120 -144.5 -183t-203.5 -63q-135 0 -222 82.5 t-87 210.5q0 181 160.5 278t459.5 97q21 0 107 -4q8 49 8 74q0 75 -53 119t-144 44q-83 0 -137.5 -32t-97.5 -107l-201 64q62 119 176.5 182t268.5 63q188 0 299.5 -85.5t111.5 -229.5q0 -41 -7.5 -90.5t-39.5 -230.5q-51 -273 -51 -351q0 -28 2 -57h-221zM276 291 q0 -63 42 -101t112 -38q147 0 246 167q29 49 65 201q-56 0 -184 -18q-148 -23 -214.5 -73t-66.5 -138z" />
<glyph unicode="&#xe4;" horiz-adv-x="1095" d="M829 1188q-47 0 -78.5 31.5t-31.5 78.5t32 80t78 33q49 0 81 -32.5t32 -82.5q0 -46 -33 -77t-80 -31zM496 1188q-47 0 -79 31.5t-32 78.5t32.5 80t78.5 33q49 0 80.5 -32.5t31.5 -82.5q0 -46 -32.5 -77t-79.5 -31zM674 0v43q0 64 16 176q-55 -120 -144.5 -183t-203.5 -63 q-135 0 -222 82.5t-87 210.5q0 181 160.5 278t459.5 97q21 0 107 -4q8 49 8 74q0 75 -53 119t-144 44q-83 0 -137.5 -32t-97.5 -107l-201 64q62 119 176.5 182t268.5 63q188 0 299.5 -85.5t111.5 -229.5q0 -41 -7.5 -90.5t-39.5 -230.5q-51 -273 -51 -351q0 -28 2 -57h-221z M276 291q0 -63 42 -101t112 -38q147 0 246 167q29 49 65 201q-56 0 -184 -18q-148 -23 -214.5 -73t-66.5 -138z" />
<glyph unicode="&#xe5;" horiz-adv-x="1095" d="M623 1135q-77 0 -131 54t-54 130t55 131t132 55q78 0 131 -54t53 -132q0 -77 -54 -130.5t-132 -53.5zM623 1239q37 0 59.5 22.5t22.5 57.5t-22 58.5t-54 23.5q-38 0 -62 -22.5t-24 -57.5q0 -37 22.5 -59.5t57.5 -22.5zM674 0v43q0 64 16 176q-55 -120 -144.5 -183 t-203.5 -63q-135 0 -222 82.5t-87 210.5q0 181 160.5 278t459.5 97q21 0 107 -4q8 49 8 74q0 75 -53 119t-144 44q-83 0 -137.5 -32t-97.5 -107l-201 64q62 119 176.5 182t268.5 63q188 0 299.5 -85.5t111.5 -229.5q0 -41 -7.5 -90.5t-39.5 -230.5q-51 -273 -51 -351 q0 -28 2 -57h-221zM276 291q0 -63 42 -101t112 -38q147 0 246 167q29 49 65 201q-56 0 -184 -18q-148 -23 -214.5 -73t-66.5 -138z" />
<glyph unicode="&#xe6;" horiz-adv-x="1697" d="M1372 336l199 -57q-78 -155 -188 -229.5t-261 -74.5q-134 0 -231 62.5t-143 177.5q-65 -91 -97 -121q-121 -121 -299 -121q-141 0 -230 81.5t-89 211.5q0 109 62.5 193.5t174.5 122.5q152 55 394 55q47 0 94 -2q6 47 6 61q0 86 -51.5 132t-147.5 46q-80 0 -134 -33 t-95 -106l-199 64q133 243 445 243q221 0 321 -124q121 124 316 124q187 0 300 -124t113 -330q0 -38 -8 -109h-700q-6 -53 -6 -78q0 -115 58 -182t157 -67q81 0 136.5 42.5t102.5 141.5zM952 625h467q0 125 -53 190.5t-154 65.5q-95 0 -166 -69.5t-94 -186.5zM731 489l6 27 q-51 0 -133 -10q-185 -23 -259.5 -71.5t-74.5 -145.5q0 -64 42 -101.5t114 -37.5q139 0 233 149q28 43 41 77.5t31 112.5z" />
<glyph unicode="&#xe7;" horiz-adv-x="978" d="M311 -170l76 156q-152 34 -233.5 150.5t-81.5 301.5q0 168 64.5 308t177 221.5t247.5 81.5q161 0 263.5 -92.5t133.5 -264.5l-190 -37q-20 99 -70.5 150t-128.5 51q-137 0 -215 -178q-51 -117 -51 -266q0 -116 50 -180t141 -64q146 0 227 203l188 -68q-78 -171 -185 -249 t-259 -74l-31 -72q77 -2 125.5 -39t48.5 -96q0 -69 -64.5 -122.5t-150.5 -53.5q-64 0 -186 61l45 78q81 -47 141 -47q37 0 60.5 19t23.5 48q0 34 -44.5 54t-113.5 20h-8z" />
<glyph unicode="&#xe8;" horiz-adv-x="1069" d="M696 1161l-372 197l77 129l344 -219zM743 340l199 -53q-140 -312 -444 -312q-198 0 -313 121t-115 328q0 177 66.5 318.5t184.5 221.5t265 80q198 0 305.5 -125.5t107.5 -357.5q0 -47 -4 -80h-698q-8 -47 -8 -75q0 -117 57.5 -185.5t157.5 -68.5q78 0 135.5 45t103.5 143 zM319 627h467q-3 260 -198 260q-102 0 -171 -66.5t-98 -193.5z" />
<glyph unicode="&#xe9;" horiz-adv-x="1069" d="M594 1161l-43 107l393 219l66 -137zM743 340l199 -53q-140 -312 -444 -312q-198 0 -313 121t-115 328q0 177 66.5 318.5t184.5 221.5t265 80q198 0 305.5 -125.5t107.5 -357.5q0 -47 -4 -80h-698q-8 -47 -8 -75q0 -117 57.5 -185.5t157.5 -68.5q78 0 135.5 45t103.5 143z M319 627h467q-3 260 -198 260q-102 0 -171 -66.5t-98 -193.5z" />
<glyph unicode="&#xea;" horiz-adv-x="1069" d="M305 1188l404 289l284 -289l-176 -21l-131 131l-203 -131zM743 340l199 -53q-140 -312 -444 -312q-198 0 -313 121t-115 328q0 177 66.5 318.5t184.5 221.5t265 80q198 0 305.5 -125.5t107.5 -357.5q0 -47 -4 -80h-698q-8 -47 -8 -75q0 -117 57.5 -185.5t157.5 -68.5 q78 0 135.5 45t103.5 143zM319 627h467q-3 260 -198 260q-102 0 -171 -66.5t-98 -193.5z" />
<glyph unicode="&#xeb;" horiz-adv-x="1069" d="M836 1188q-47 0 -79 31.5t-32 78.5t32.5 80t78.5 33q49 0 80.5 -32.5t31.5 -82.5q0 -46 -32.5 -77t-79.5 -31zM502 1188q-47 0 -79 31.5t-32 78.5t32.5 80t78.5 33q49 0 80.5 -32.5t31.5 -82.5q0 -46 -32.5 -77t-79.5 -31zM743 340l199 -53q-140 -312 -444 -312 q-198 0 -313 121t-115 328q0 177 66.5 318.5t184.5 221.5t265 80q198 0 305.5 -125.5t107.5 -357.5q0 -47 -4 -80h-698q-8 -47 -8 -75q0 -117 57.5 -185.5t157.5 -68.5q78 0 135.5 45t103.5 143zM319 627h467q-3 260 -198 260q-102 0 -171 -66.5t-98 -193.5z" />
<glyph unicode="&#xec;" horiz-adv-x="507" d="M422 1161l-338 197l82 129l305 -219zM51 0l170 1018h236l-170 -1018h-236z" />
<glyph unicode="&#xed;" horiz-adv-x="507" d="M319 1161l-43 107l357 219l69 -137zM51 0l170 1018h236l-170 -1018h-236z" />
<glyph unicode="&#xee;" horiz-adv-x="507" d="M217 1167l-170 21l354 289l240 -289l-172 -21l-90 131zM51 0l172 1018h234l-170 -1018h-236z" />
<glyph unicode="&#xef;" horiz-adv-x="507" d="M518 1196q-43 0 -72.5 29.5t-29.5 72.5q0 45 30 76t74 31t74.5 -30.5t30.5 -76.5q0 -44 -30.5 -73t-76.5 -29zM238 1196q-43 0 -73 29.5t-30 72.5q0 44 30.5 75.5t74.5 31.5t74 -30.5t30 -76.5q0 -44 -30 -73t-76 -29zM51 0l170 1018h236l-170 -1018h-236z" />
<glyph unicode="&#xf0;" horiz-adv-x="1075" d="M979 1325l-172 -76q100 -98 152.5 -248t52.5 -339q0 -248 -105 -441q-66 -120 -173.5 -183t-246.5 -63q-197 0 -308 118t-111 327q0 257 131.5 426.5t330.5 169.5q70 0 122.5 -19t111.5 -65q-20 88 -44.5 141t-68.5 105l-188 -84l-55 84l167 73q-19 22 -72 49t-100 39 l35 95q62 -10 143 -44.5t138 -74.5l201 88zM295 403q0 -117 53 -181t150 -64q59 0 107 26.5t77 75.5q38 63 61 153.5t23 178.5q0 112 -53.5 174.5t-149.5 62.5q-148 0 -209 -145q-24 -59 -41.5 -142.5t-17.5 -138.5z" />
<glyph unicode="&#xf1;" horiz-adv-x="1099" d="M432 1206l-53 97q116 122 219 122q55 0 129 -39q52 -27 75.5 -35t49.5 -8q34 0 58.5 14t68.5 60l53 -98q-41 -55 -97.5 -86t-115.5 -31q-58 0 -147 47q-68 37 -101 37q-29 0 -54 -14.5t-85 -65.5zM51 0l170 1018h207l-39 -238q62 108 87.5 142t62.5 61q79 61 184 61 q121 0 197.5 -79.5t76.5 -204.5q0 -44 -20 -170l-98 -590h-226l105 610q12 68 12 119q0 61 -34 97t-93 36q-107 0 -183 -105.5t-108 -297.5l-78 -459h-223z" />
<glyph unicode="&#xf2;" horiz-adv-x="1075" d="M721 1161l-373 197l78 129l344 -219zM184 100q-112 124 -112 342q0 256 147.5 427t368.5 171q189 0 303.5 -125.5t114.5 -334.5q0 -98 -30 -201.5t-81 -181.5q-71 -109 -170 -166.5t-219 -57.5q-95 0 -181.5 34t-140.5 93zM303 403q0 -115 55 -180t152 -65q165 0 229 223 q33 112 33 223q0 123 -52.5 188.5t-150.5 65.5q-154 0 -219 -184q-47 -126 -47 -271z" />
<glyph unicode="&#xf3;" horiz-adv-x="1075" d="M592 1161l-43 107l393 219l66 -137zM184 100q-112 124 -112 342q0 256 147.5 427t368.5 171q189 0 303.5 -125.5t114.5 -334.5q0 -98 -30 -201.5t-81 -181.5q-71 -109 -170 -166.5t-219 -57.5q-95 0 -181.5 34t-140.5 93zM303 403q0 -115 55 -180t152 -65q165 0 229 223 q33 112 33 223q0 123 -52.5 188.5t-150.5 65.5q-154 0 -219 -184q-47 -126 -47 -271z" />
<glyph unicode="&#xf4;" horiz-adv-x="1075" d="M274 1188l404 289l285 -289l-177 -21l-131 131l-202 -131zM184 100q-112 124 -112 342q0 256 147.5 427t368.5 171q189 0 303.5 -125.5t114.5 -334.5q0 -98 -30 -201.5t-81 -181.5q-71 -109 -170 -166.5t-219 -57.5q-95 0 -181.5 34t-140.5 93zM303 403q0 -115 55 -180 t152 -65q165 0 229 223q33 112 33 223q0 123 -52.5 188.5t-150.5 65.5q-154 0 -219 -184q-47 -126 -47 -271z" />
<glyph unicode="&#xf5;" horiz-adv-x="1075" d="M422 1206l-53 97q116 122 219 122q55 0 129 -39q52 -27 75.5 -35t49.5 -8q34 0 58.5 14t68.5 60l53 -98q-41 -55 -97.5 -86t-115.5 -31q-58 0 -147 47q-68 37 -101 37q-29 0 -54 -14.5t-85 -65.5zM184 100q-112 124 -112 342q0 256 147.5 427t368.5 171 q189 0 303.5 -125.5t114.5 -334.5q0 -98 -30 -201.5t-81 -181.5q-71 -109 -170 -166.5t-219 -57.5q-95 0 -181.5 34t-140.5 93zM303 403q0 -115 55 -180t152 -65q165 0 229 223q33 112 33 223q0 123 -52.5 188.5t-150.5 65.5q-154 0 -219 -184q-47 -126 -47 -271z" />
<glyph unicode="&#xf6;" horiz-adv-x="1075" d="M834 1188q-47 0 -79 31.5t-32 78.5t32.5 80t78.5 33q49 0 80.5 -32.5t31.5 -82.5q0 -46 -32.5 -77t-79.5 -31zM500 1188q-47 0 -79 31.5t-32 78.5t32.5 80t78.5 33q49 0 80.5 -32.5t31.5 -82.5q0 -46 -32.5 -77t-79.5 -31zM184 100q-112 124 -112 342q0 256 147.5 427 t368.5 171q189 0 303.5 -125.5t114.5 -334.5q0 -98 -30 -201.5t-81 -181.5q-71 -109 -170 -166.5t-219 -57.5q-95 0 -181.5 34t-140.5 93zM303 403q0 -115 55 -180t152 -65q165 0 229 223q33 112 33 223q0 123 -52.5 188.5t-150.5 65.5q-154 0 -219 -184q-47 -126 -47 -271z " />
<glyph unicode="&#xf7;" d="M629 913q-51 0 -87 36.5t-36 88.5q0 50 36.5 85.5t88.5 35.5q50 0 85.5 -36t35.5 -87t-36 -87t-87 -36zM125 594v190h1012v-190h-1012zM506 342q0 50 36.5 85.5t88.5 35.5q50 0 85.5 -36t35.5 -87t-36 -87t-87 -36t-87 36.5t-36 88.5z" />
<glyph unicode="&#xf8;" horiz-adv-x="1075" d="M2 -29l145 174q-75 129 -75 295q0 119 37 229.5t106 196.5q139 174 367 174q159 0 262 -84l78 86h145l-143 -168q84 -124 84 -292t-66.5 -308t-183 -220.5t-256.5 -80.5q-77 0 -140.5 20t-134.5 66l-75 -88h-150zM311 319l394 490q-52 49 -136 49q-173 0 -237 -237 q-31 -121 -31 -228q0 -33 10 -74zM362 215q36 -33 67.5 -46t74.5 -13q128 0 194 120q35 66 55.5 154t20.5 176q0 50 -12 99z" />
<glyph unicode="&#xf9;" horiz-adv-x="1083" d="M741 1161l-372 197l77 129l345 -219zM653 0l39 221q-130 -239 -346 -239q-108 0 -178 70t-70 179q0 34 3.5 59t23.5 140l98 588h223l-106 -631q-14 -80 -14 -113q0 -44 31.5 -73t80.5 -29q61 0 123 42.5t103 113.5q24 41 37.5 93t33.5 167l74 430h223l-170 -1018h-209z " />
<glyph unicode="&#xfa;" horiz-adv-x="1083" d="M598 1161l-43 107l393 219l66 -137zM653 0l39 221q-130 -239 -346 -239q-108 0 -178 70t-70 179q0 34 3.5 59t23.5 140l98 588h223l-106 -631q-14 -80 -14 -113q0 -44 31.5 -73t80.5 -29q61 0 123 42.5t103 113.5q24 41 37.5 93t33.5 167l74 430h223l-170 -1018h-209z " />
<glyph unicode="&#xfb;" horiz-adv-x="1083" d="M303 1188l404 289l284 -289l-176 -21l-131 131l-203 -131zM653 0l39 221q-130 -239 -346 -239q-108 0 -178 70t-70 179q0 34 3.5 59t23.5 140l98 588h223l-106 -631q-14 -80 -14 -113q0 -44 31.5 -73t80.5 -29q61 0 123 42.5t103 113.5q24 41 37.5 93t33.5 167l74 430 h223l-170 -1018h-209z" />
<glyph unicode="&#xfc;" horiz-adv-x="1083" d="M840 1188q-47 0 -79 31.5t-32 78.5t32.5 80t78.5 33q49 0 80.5 -32.5t31.5 -82.5q0 -46 -32.5 -77t-79.5 -31zM506 1188q-47 0 -79 31.5t-32 78.5t32.5 80t78.5 33q49 0 80.5 -32.5t31.5 -82.5q0 -46 -32.5 -77t-79.5 -31zM653 0l39 221q-130 -239 -346 -239 q-108 0 -178 70t-70 179q0 34 3.5 59t23.5 140l98 588h223l-106 -631q-14 -80 -14 -113q0 -44 31.5 -73t80.5 -29q61 0 123 42.5t103 113.5q24 41 37.5 93t33.5 167l74 430h223l-170 -1018h-209z" />
<glyph unicode="&#xfd;" horiz-adv-x="931" d="M549 1161l-43 107l393 219l66 -137zM-47 -166q60 -8 131 -8q79 0 122.5 30t82.5 109l39 80l-250 973h239l156 -701l336 701h195l-523 -1053q-68 -138 -91 -176t-62 -72q-99 -86 -265 -86q-43 0 -120 9z" />
<glyph unicode="&#xfe;" horiz-adv-x="1081" d="M305 180l-90 -534h-223l289 1720h223l-88 -524q66 111 134 161t152 50q146 0 234 -117.5t88 -312.5q0 -131 -36.5 -257t-102.5 -223q-120 -172 -295 -172q-210 0 -285 209zM346 406q0 -116 54.5 -184t146.5 -68q104 0 162 110q38 69 60 161t22 183q0 128 -41.5 194 t-120.5 66q-56 0 -109 -37.5t-90 -101.5q-37 -63 -60.5 -153.5t-23.5 -169.5z" />
<glyph unicode="&#xff;" horiz-adv-x="931" d="M754 1188q-47 0 -79 31.5t-32 78.5t32.5 80t78.5 33q49 0 80.5 -32.5t31.5 -82.5q0 -46 -32.5 -77t-79.5 -31zM420 1188q-47 0 -79 31.5t-32 78.5t32.5 80t78.5 33q49 0 80.5 -32.5t31.5 -82.5q0 -46 -32.5 -77t-79.5 -31zM-47 -166q60 -8 131 -8q79 0 122.5 30t82.5 109 l39 80l-250 973h239l156 -701l336 701h195l-523 -1053q-68 -138 -91 -176t-62 -72q-99 -86 -265 -86q-43 0 -120 9z" />
<glyph unicode="&#x100;" horiz-adv-x="1234" d="M469 1550l23 129h638l-20 -129h-641zM-57 0l655 1366h301l250 -1366h-272l-58 330h-493l-152 -330h-231zM410 520h387l-107 606z" />
<glyph unicode="&#x101;" horiz-adv-x="1095" d="M391 1223l23 129h585l-22 -129h-586zM674 0v43q0 64 16 176q-55 -120 -144.5 -183t-203.5 -63q-135 0 -222 82.5t-87 210.5q0 181 160.5 278t459.5 97q21 0 107 -4q8 49 8 74q0 75 -53 119t-144 44q-83 0 -137.5 -32t-97.5 -107l-201 64q62 119 176.5 182t268.5 63 q188 0 299.5 -85.5t111.5 -229.5q0 -41 -7.5 -90.5t-39.5 -230.5q-51 -273 -51 -351q0 -28 2 -57h-221zM276 291q0 -63 42 -101t112 -38q147 0 246 167q29 49 65 201q-56 0 -184 -18q-148 -23 -214.5 -73t-66.5 -138z" />
<glyph unicode="&#x102;" horiz-adv-x="1234" d="M1006 1759h137q-29 -115 -128.5 -187.5t-228.5 -72.5q-276 0 -276 260h137q9 -63 46.5 -91t111.5 -28q143 0 201 119zM-57 0l655 1366h301l250 -1366h-272l-58 330h-493l-152 -330h-231zM410 520h387l-107 606z" />
<glyph unicode="&#x103;" horiz-adv-x="1095" d="M874 1456h132q-29 -126 -124 -200t-227 -74q-117 0 -188.5 61.5t-71.5 161.5q0 11 4 51h131q0 -70 36 -101.5t116 -31.5q76 0 119.5 30.5t72.5 102.5zM674 0v43q0 64 16 176q-55 -120 -144.5 -183t-203.5 -63q-135 0 -222 82.5t-87 210.5q0 181 160.5 278t459.5 97 q21 0 107 -4q8 49 8 74q0 75 -53 119t-144 44q-83 0 -137.5 -32t-97.5 -107l-201 64q62 119 176.5 182t268.5 63q188 0 299.5 -85.5t111.5 -229.5q0 -41 -7.5 -90.5t-39.5 -230.5q-51 -273 -51 -351q0 -28 2 -57h-221zM276 291q0 -63 42 -101t112 -38q147 0 246 167 q29 49 65 201q-56 0 -184 -18q-148 -23 -214.5 -73t-66.5 -138z" />
<glyph unicode="&#x104;" horiz-adv-x="1234" d="M-57 0l655 1366h301l250 -1366h-37l-16 -8l-17 -10q-123 -74 -123 -150q0 -43 32 -67.5t89 -24.5q42 0 92 18l19 -80q-79 -36 -172 -36q-98 0 -152.5 40.5t-54.5 114.5q0 67 45.5 116.5t140.5 86.5h-118l-58 330h-493l-152 -330h-231zM410 520h387l-107 606z" />
<glyph unicode="&#x105;" horiz-adv-x="1095" d="M674 0v45q0 62 16 174q-55 -120 -144.5 -183t-203.5 -63q-135 0 -222 82.5t-87 210.5q0 181 160.5 278t459.5 97q21 0 107 -4q8 49 8 74q0 75 -53 119t-144 44q-83 0 -137.5 -32t-97.5 -107l-201 64q62 119 176.5 182t268.5 63q188 0 299.5 -85.5t111.5 -229.5 q0 -41 -7.5 -90.5t-39.5 -230.5q-51 -273 -51 -351q0 -28 2 -57h-111q-163 -79 -163 -172q0 -37 26 -58.5t72 -21.5q35 0 90 16l12 -73q-82 -33 -164 -33q-83 0 -132.5 36.5t-49.5 98.5q0 66 46 113.5t153 93.5zM276 291q0 -63 42 -101t112 -38q71 0 135 43t111 124 q20 35 31.5 70.5t33.5 130.5q-247 -12 -356 -66t-109 -163z" />
<glyph unicode="&#x106;" horiz-adv-x="1210" d="M797 1489l-49 94l325 203l72 -121zM944 457l201 -82q-176 -410 -541 -410q-229 0 -365.5 163t-136.5 437q0 175 49.5 330t134 266t203 175.5t252.5 64.5q217 0 344.5 -123.5t149.5 -353.5l-223 -41q-12 112 -47 182q-31 62 -91.5 96.5t-136.5 34.5q-97 0 -164.5 -53.5 t-117.5 -169.5q-38 -88 -65.5 -223t-27.5 -236q0 -157 69.5 -246.5t191.5 -89.5q98 0 184 75t137 204z" />
<glyph unicode="&#x107;" horiz-adv-x="978" d="M606 1161l-53 84l326 242l79 -117zM721 371l188 -70q-78 -169 -180.5 -246.5t-251.5 -77.5q-188 0 -296.5 123.5t-108.5 337.5q0 168 64.5 308t177 221.5t247.5 81.5q161 0 263.5 -92.5t133.5 -264.5l-190 -37q-20 99 -70.5 150t-128.5 51q-112 0 -189 -129t-77 -315 q0 -116 50 -180t141 -64q146 0 227 203z" />
<glyph unicode="&#x108;" horiz-adv-x="1210" d="M469 1516l414 260l299 -260l-195 -21l-127 111l-205 -111zM944 457l201 -82q-176 -410 -541 -410q-229 0 -365.5 163t-136.5 437q0 175 49.5 330t134 266t203 175.5t252.5 64.5q217 0 344.5 -123.5t149.5 -353.5l-223 -41q-12 112 -47 182q-31 62 -91.5 96.5t-136.5 34.5 q-97 0 -164.5 -53.5t-117.5 -169.5q-38 -88 -65.5 -223t-27.5 -236q0 -157 69.5 -246.5t191.5 -89.5q98 0 184 75t137 204z" />
<glyph unicode="&#x109;" horiz-adv-x="978" d="M262 1188l404 289l286 -289l-178 -21l-131 131l-203 -131zM721 371l188 -70q-76 -169 -180 -246.5t-252 -77.5q-188 0 -296.5 123.5t-108.5 337.5q0 168 64.5 308t177 221.5t247.5 81.5q161 0 263.5 -92.5t133.5 -264.5l-190 -37q-20 99 -70.5 150t-128.5 51 q-137 0 -215 -178q-51 -117 -51 -266q0 -116 50 -180t141 -64q146 0 227 203z" />
<glyph unicode="&#x10a;" horiz-adv-x="1210" d="M809 1511q-47 0 -79 32t-32 79t32.5 80t78.5 33q49 0 81 -32.5t32 -82.5q0 -46 -33 -77.5t-80 -31.5zM944 457l201 -82q-176 -410 -541 -410q-229 0 -365.5 163t-136.5 437q0 175 49.5 330t134 266t203 175.5t252.5 64.5q217 0 344.5 -123.5t149.5 -353.5l-223 -41 q-12 112 -47 182q-31 62 -91.5 96.5t-136.5 34.5q-97 0 -164.5 -53.5t-117.5 -169.5q-38 -88 -65.5 -223t-27.5 -236q0 -157 69.5 -246.5t191.5 -89.5q98 0 184 75t137 204z" />
<glyph unicode="&#x10b;" horiz-adv-x="978" d="M629 1188q-47 0 -79 31.5t-32 78.5t32.5 80t78.5 33q49 0 80.5 -32.5t31.5 -82.5q0 -46 -32.5 -77t-79.5 -31zM721 371l188 -70q-78 -169 -180.5 -246.5t-251.5 -77.5q-188 0 -296.5 123.5t-108.5 337.5q0 168 64.5 308t177 221.5t247.5 81.5q161 0 263.5 -92.5 t133.5 -264.5l-190 -37q-20 99 -70.5 150t-128.5 51q-112 0 -189 -129t-77 -315q0 -116 50 -180t141 -64q146 0 227 203z" />
<glyph unicode="&#x10c;" horiz-adv-x="1210" d="M801 1481l-299 262l192 20l127 -112l205 112l186 -20zM944 457l201 -82q-176 -410 -541 -410q-229 0 -365.5 163t-136.5 437q0 175 49.5 330t134 266t203 175.5t252.5 64.5q217 0 346 -125t148 -352l-223 -41q-12 112 -47 182q-31 61 -92 96t-136 35q-96 0 -163.5 -53.5 t-118.5 -169.5q-37 -88 -65 -223.5t-28 -235.5q0 -157 69.5 -246.5t191.5 -89.5q98 0 184 75t137 204z" />
<glyph unicode="&#x10d;" horiz-adv-x="978" d="M631 1153l-287 289l178 20l131 -131l203 131l176 -20zM721 371l188 -70q-76 -169 -180 -246.5t-252 -77.5q-188 0 -296.5 123.5t-108.5 337.5q0 168 64.5 308t177 221.5t247.5 81.5q161 0 263.5 -92.5t133.5 -264.5l-190 -37q-20 99 -70.5 150t-128.5 51 q-137 0 -215 -178q-51 -117 -51 -266q0 -116 50 -180t141 -64q146 0 227 203z" />
<glyph unicode="&#x10e;" horiz-adv-x="1310" d="M770 1481l-299 262l193 20l127 -112l204 112l187 -20zM66 0l229 1366h399q144 0 229 -27t160 -96q86 -78 132.5 -204t46.5 -279q0 -175 -61 -331.5t-175 -270.5q-100 -100 -231 -138q-76 -20 -258 -20h-471zM350 207h217q111 0 179.5 29.5t121.5 97.5q64 86 100 204 t36 246q0 107 -29.5 190t-83.5 126q-41 35 -94 49t-140 14h-147z" />
<glyph unicode="&#x10f;" horiz-adv-x="1308" d="M1149 969l104 397h205l-217 -397h-92zM655 0l37 211q-127 -234 -321 -234q-141 0 -223 112.5t-82 305.5q0 183 59 334t162.5 237.5t228.5 86.5q101 0 173 -52.5t104 -150.5l86 516h225l-230 -1366h-219zM295 377q0 -217 166 -217q108 0 176 96q51 70 79.5 169t28.5 202 q0 106 -51.5 171.5t-136.5 65.5q-78 0 -135.5 -59t-89.5 -172q-37 -129 -37 -256z" />
<glyph unicode="&#x110;" horiz-adv-x="1310" d="M68 0l100 602h-137l32 191h136l96 573h399q145 0 230 -27t159 -96q85 -78 132 -204.5t47 -278.5q0 -175 -61.5 -332t-174.5 -270q-95 -99 -231 -138q-76 -20 -256 -20h-471zM350 207h217q112 0 181 29t122 98q63 83 98.5 202.5t35.5 247.5q0 107 -29.5 190t-83.5 126 q-41 35 -93.5 49t-138.5 14h-147l-63 -370h321l-33 -191h-319z" />
<glyph unicode="&#x111;" horiz-adv-x="1095" d="M655 0l37 211q-127 -234 -321 -234q-141 0 -223 112.5t-82 305.5q0 183 59 334t162.5 237.5t228.5 86.5q101 0 173 -52.5t104 -150.5l47 280h-287l20 123h287l19 113h225l-19 -113h123l-22 -123h-123l-189 -1130h-219zM295 377q0 -217 166 -217q108 0 176 96 q51 70 79.5 169t28.5 202q0 106 -51.5 171.5t-136.5 65.5q-78 0 -135.5 -59t-89.5 -172q-37 -129 -37 -256z" />
<glyph unicode="&#x112;" horiz-adv-x="1099" d="M451 1550l22 129h639l-20 -129h-641zM66 0l229 1366h862l-37 -215h-618l-60 -354h512l-32 -203h-512l-64 -379h643l-37 -215h-886z" />
<glyph unicode="&#x113;" horiz-adv-x="1067" d="M367 1223l22 129h586l-23 -129h-585zM743 340l199 -53q-140 -312 -444 -312q-198 0 -313 121t-115 328q0 177 66.5 318.5t184.5 221.5t265 80q198 0 305.5 -125.5t107.5 -357.5q0 -47 -4 -80h-698q-8 -47 -8 -75q0 -117 57.5 -185.5t157.5 -68.5q78 0 135.5 45t103.5 143 zM319 627h467q-3 260 -198 260q-102 0 -171 -66.5t-98 -193.5z" />
<glyph unicode="&#x116;" horiz-adv-x="1099" d="M772 1511q-47 0 -78.5 32t-31.5 79t32 80t78 33q49 0 81 -32.5t32 -82.5q0 -46 -33 -77.5t-80 -31.5zM66 0l229 1366h862l-37 -215h-618l-60 -354h512l-32 -203h-512l-64 -379h643l-37 -215h-886z" />
<glyph unicode="&#x117;" horiz-adv-x="1067" d="M668 1188q-47 0 -79 31.5t-32 78.5t32.5 80t78.5 33q49 0 80.5 -32.5t31.5 -82.5q0 -46 -32.5 -77t-79.5 -31zM743 340l199 -53q-140 -312 -444 -312q-198 0 -313 121t-115 328q0 177 66.5 318.5t184.5 221.5t265 80q198 0 305.5 -125.5t107.5 -357.5q0 -47 -4 -80h-698 q-8 -47 -8 -75q0 -117 57.5 -185.5t157.5 -68.5q78 0 135.5 45t103.5 143zM319 627h467q-3 260 -198 260q-102 0 -171 -66.5t-98 -193.5z" />
<glyph unicode="&#x118;" horiz-adv-x="1099" d="M66 0l229 1366h862l-37 -215h-618l-60 -354h512l-32 -203h-512l-64 -379h643l-37 -215h-116l-17 -8l-16 -10q-123 -76 -123 -150q0 -43 32 -67.5t89 -24.5q42 0 92 18l18 -80q-79 -36 -172 -36q-98 0 -152.5 40.5t-54.5 114.5q0 134 187 203h-653z" />
<glyph unicode="&#x119;" horiz-adv-x="1067" d="M514 -25h-25q-190 0 -304.5 122.5t-114.5 326.5q0 177 66.5 318.5t184.5 221.5t265 80q198 0 305.5 -125.5t107.5 -357.5q0 -47 -4 -80h-698q-8 -47 -8 -75q0 -117 57.5 -185.5t157.5 -68.5q78 0 135.5 45t103.5 143l199 -53q-80 -191 -242 -269q-143 -94 -143 -190 q0 -38 25.5 -59t72.5 -21q35 0 90 16l13 -73q-85 -33 -164 -33q-84 0 -133 36.5t-49 98.5q0 103 102 182zM319 627h467q-3 260 -198 260q-102 0 -171 -66.5t-98 -193.5z" />
<glyph unicode="&#x11a;" horiz-adv-x="1099" d="M766 1481l-299 262l192 20l127 -112l205 112l187 -20zM66 0l229 1366h862l-37 -215h-618l-60 -354h512l-32 -203h-512l-64 -379h643l-37 -215h-886z" />
<glyph unicode="&#x11b;" horiz-adv-x="1067" d="M641 1153l-287 289l178 20l132 -131l202 131l176 -20zM743 340l199 -53q-140 -312 -444 -312q-198 0 -313 121t-115 328q0 177 66.5 318.5t184.5 221.5t265 80q198 0 305.5 -125.5t107.5 -357.5q0 -47 -4 -80h-698q-8 -47 -8 -75q0 -117 57.5 -185.5t157.5 -68.5 q78 0 135.5 45t103.5 143zM319 627h467q-3 260 -198 260q-102 0 -171 -66.5t-98 -193.5z" />
<glyph unicode="&#x11c;" horiz-adv-x="1325" d="M492 1516l413 260l299 -260l-194 -21l-127 111l-205 -111zM1006 0l-41 184q-54 -101 -150.5 -155t-222.5 -54q-179 0 -301 101q-189 154 -189 489q0 238 85.5 430.5t236.5 301t338 108.5q400 0 504 -406l-217 -53q-68 248 -287 248q-127 0 -227 -109q-75 -79 -121.5 -226 t-46.5 -302q0 -182 74 -279.5t212 -97.5q113 0 196.5 85.5t115.5 234.5h-297l34 207h527l-119 -707h-104z" />
<glyph unicode="&#x11d;" horiz-adv-x="1038" d="M289 1243l368 287l252 -287l-170 -20l-104 131l-174 -131zM410 231h122q214 0 302 -49q60 -32 96.5 -90t36.5 -121q0 -75 -46.5 -148t-121.5 -114q-133 -71 -389 -71q-251 0 -353 77q-86 66 -86 162q0 73 33 118t127 101q-48 37 -66 70.5t-18 85.5q0 83 43 137t156 111 q-62 47 -88.5 96t-26.5 115q0 153 120.5 242t326.5 89q115 0 215 -43q54 109 114 153t156 44q50 0 102 -12l-16 -174q-73 14 -107 14q-62 0 -95 -18t-60 -64q82 -79 82 -194q0 -152 -117 -241t-317 -89q-52 0 -86 5.5t-111 25.5q-48 -28 -69 -57t-21 -68q0 -51 37 -72 t125 -21zM535 551q98 0 152 52.5t54 146.5q0 72 -43 110.5t-123 38.5q-95 0 -151.5 -52t-56.5 -140q0 -75 43 -115.5t125 -40.5zM233 45l-12 -12q-53 -44 -53 -94q0 -72 78.5 -113t216.5 -41q118 0 180 22q107 38 107 134q0 58 -54 73q-38 13 -215 13t-248 18z" />
<glyph unicode="&#x11e;" horiz-adv-x="1325" d="M1061 1759h137q-29 -116 -128 -188t-228 -72q-277 0 -277 260h137q9 -63 46.5 -91t111.5 -28q143 0 201 119zM1006 0l-41 184q-54 -101 -150.5 -155t-222.5 -54q-179 0 -301 101q-189 154 -189 489q0 238 85.5 430.5t236.5 301t338 108.5q400 0 504 -406l-217 -53 q-68 248 -287 248q-127 0 -227 -109q-75 -79 -121.5 -226t-46.5 -302q0 -182 74 -279.5t212 -97.5q113 0 196.5 85.5t115.5 234.5h-297l34 207h527l-119 -707h-104z" />
<glyph unicode="&#x11f;" horiz-adv-x="1038" d="M801 1468h131q-29 -121 -119.5 -196.5t-206.5 -75.5q-104 0 -174 64t-70 159q0 4 1 11.5t2 19t2 18.5h131q0 -51 12 -73q31 -58 115 -58q63 0 102.5 29.5t73.5 101.5zM410 231h122q214 0 302 -49q60 -32 96.5 -90t36.5 -121q0 -75 -46.5 -148t-121.5 -114 q-133 -71 -389 -71q-251 0 -353 77q-86 66 -86 162q0 73 33 118t127 101q-48 37 -66 70.5t-18 85.5q0 83 43 137t156 111q-62 47 -88.5 96t-26.5 115q0 153 120.5 242t326.5 89q115 0 215 -43q54 109 114 153t156 44q50 0 102 -12l-16 -174q-73 14 -107 14q-62 0 -95 -18 t-60 -64q82 -79 82 -194q0 -152 -117 -241t-317 -89q-52 0 -86 5.5t-111 25.5q-48 -28 -69 -57t-21 -68q0 -51 37 -72t125 -21zM535 551q98 0 152 52.5t54 146.5q0 72 -43 110.5t-123 38.5q-95 0 -151.5 -52t-56.5 -140q0 -75 43 -115.5t125 -40.5zM233 45l-12 -12 q-53 -44 -53 -94q0 -72 78.5 -113t216.5 -41q118 0 180 22q107 38 107 134q0 58 -54 73q-38 13 -215 13t-248 18z" />
<glyph unicode="&#x120;" horiz-adv-x="1325" d="M852 1511q-47 0 -79 32t-32 79t32.5 80t78.5 33q49 0 81 -32.5t32 -82.5q0 -46 -33 -77.5t-80 -31.5zM1006 0l-41 184q-54 -101 -150.5 -155t-222.5 -54q-179 0 -301 101q-189 154 -189 489q0 238 85.5 430.5t236.5 301t338 108.5q400 0 504 -406l-217 -53 q-68 248 -287 248q-127 0 -227 -109q-75 -79 -121.5 -226t-46.5 -302q0 -182 74 -279.5t212 -97.5q113 0 196.5 85.5t115.5 234.5h-297l34 207h527l-119 -707h-104z" />
<glyph unicode="&#x121;" horiz-adv-x="1038" d="M618 1188q-47 0 -78.5 31.5t-31.5 78.5t32 80t78 33q49 0 81 -32.5t32 -82.5q0 -46 -33 -77t-80 -31zM410 231h122q214 0 302 -49q60 -32 96.5 -90t36.5 -121q0 -75 -46.5 -148t-121.5 -114q-133 -71 -389 -71q-251 0 -353 77q-86 66 -86 162q0 73 33 118t127 101 q-48 37 -66 70.5t-18 85.5q0 83 43 137t156 111q-62 47 -88.5 96t-26.5 115q0 153 120.5 242t326.5 89q115 0 215 -43q54 109 114 153t156 44q50 0 102 -12l-16 -174q-73 14 -107 14q-62 0 -95 -18t-60 -64q82 -79 82 -194q0 -152 -117 -241t-317 -89q-52 0 -86 5.5 t-111 25.5q-48 -28 -69 -57t-21 -68q0 -51 37 -72t125 -21zM535 551q98 0 152 52.5t54 146.5q0 72 -43 110.5t-123 38.5q-95 0 -151.5 -52t-56.5 -140q0 -75 43 -115.5t125 -40.5zM233 45l-12 -12q-53 -44 -53 -94q0 -72 78.5 -113t216.5 -41q118 0 180 22q107 38 107 134 q0 58 -54 73q-38 13 -215 13t-248 18z" />
<glyph unicode="&#x122;" horiz-adv-x="1325" d="M1006 0l-41 184q-54 -101 -150.5 -155t-222.5 -54q-179 0 -301 101q-189 154 -189 489q0 238 85.5 430.5t236.5 301t338 108.5q400 0 504 -406l-217 -53q-68 248 -287 248q-127 0 -227 -109q-75 -79 -121.5 -226t-46.5 -302q0 -182 74 -279.5t212 -97.5q113 0 196.5 85.5 t115.5 234.5h-297l34 207h527l-119 -707h-104zM469 -109h205l-217 -370h-92z" />
<glyph unicode="&#x123;" horiz-adv-x="1038" d="M494 1186l217 370h92l-105 -370h-204zM410 231h122q214 0 302 -49q60 -32 96.5 -90t36.5 -121q0 -75 -46.5 -148t-121.5 -114q-133 -71 -389 -71q-251 0 -353 77q-86 66 -86 162q0 73 33 118t127 101q-48 37 -66 70.5t-18 85.5q0 83 43 137t156 111q-62 47 -88.5 96 t-26.5 115q0 153 120.5 242t326.5 89q115 0 215 -43q54 109 114 153t156 44q50 0 102 -12l-16 -174q-73 14 -107 14q-62 0 -95 -18t-60 -64q82 -79 82 -194q0 -152 -117 -241t-317 -89q-52 0 -86 5.5t-111 25.5q-48 -28 -69 -57t-21 -68q0 -51 37 -72t125 -21zM535 551 q98 0 152 52.5t54 146.5q0 72 -43 110.5t-123 38.5q-95 0 -151.5 -52t-56.5 -140q0 -75 43 -115.5t125 -40.5zM233 45l-12 -12q-53 -44 -53 -94q0 -72 78.5 -113t216.5 -41q118 0 180 22q107 38 107 134q0 58 -54 73q-38 13 -215 13t-248 18z" />
<glyph unicode="&#x124;" horiz-adv-x="1323" d="M465 1516l414 260l297 -260l-193 -21l-127 111l-205 -111zM66 0l229 1366h244l-95 -561h535l94 561h244l-230 -1366h-243l98 590h-532l-101 -590h-243z" />
<glyph unicode="&#x125;" horiz-adv-x="1101" d="M231 1495l-186 21l414 260l297 -260l-193 -21l-127 111zM51 0l230 1366h223l-88 -524q72 111 144 159t167 48q127 0 202 -73t75 -198q0 -32 -23 -176l-100 -602h-224l101 602q16 96 16 131q0 63 -34 98t-95 35q-117 0 -196 -108q-62 -84 -89 -256l-84 -502h-225z" />
<glyph unicode="&#x126;" horiz-adv-x="1323" d="M66 0l163 985h-135l31 191h137l33 190h244l-33 -190h534l33 190h244l-33 -190h137l-32 -191h-136l-166 -985h-243l98 590h-532l-101 -590h-243zM444 805h535l29 180h-533z" />
<glyph unicode="&#x127;" horiz-adv-x="1101" d="M51 0l189 1130h-123l20 123h123l21 113h223l-19 -113h287l-20 -123h-287l-49 -288q71 110 143.5 158.5t167.5 48.5q127 0 202 -73t75 -198q0 -34 -23 -176l-100 -602h-226l101 602q18 108 18 131q0 63 -34.5 98t-94.5 35q-117 0 -196 -108q-64 -88 -91 -256l-84 -502 h-223z" />
<glyph unicode="&#x128;" horiz-adv-x="552" d="M176 1520l-59 98q118 121 233 121q54 0 131 -39q82 -43 133 -43q36 0 63.5 16.5t67.5 61.5l66 -97q-109 -122 -233 -122q-58 0 -144 43q-80 40 -115 40q-46 0 -143 -79zM66 0l229 1366h252l-230 -1366h-251z" />
<glyph unicode="&#x129;" horiz-adv-x="507" d="M104 1206l-53 97q116 122 219 122q55 0 129 -39q52 -27 75.5 -35t49.5 -8q34 0 58.5 14t68.5 60l54 -98q-41 -55 -97.5 -86t-115.5 -31t-148 47q-68 37 -100 37q-29 0 -54.5 -14.5t-85.5 -65.5zM51 0l170 1018h236l-170 -1018h-236z" />
<glyph unicode="&#x12a;" horiz-adv-x="552" d="M207 1550l22 129h504l-22 -129h-504zM66 0l229 1366h252l-230 -1366h-251z" />
<glyph unicode="&#x12b;" horiz-adv-x="507" d="M141 1223l21 129h477l-23 -129h-475zM51 0l170 1018h236l-170 -1018h-236z" />
<glyph unicode="&#x12e;" horiz-adv-x="552" d="M63 0l230 1366h252l-228 -1366h-47l-16 -8l-18 -10q-121 -67 -121 -150q0 -43 32 -67.5t89 -24.5q42 0 92 18l18 -80q-79 -36 -172 -36q-98 0 -152.5 40.5t-54.5 114.5q0 131 187 203h-91z" />
<glyph unicode="&#x12f;" horiz-adv-x="507" d="M242 1135l41 243h235l-41 -243h-235zM51 0l170 1018h236l-170 -1018h-41q-164 -80 -164 -172q0 -37 26 -58.5t72 -21.5q35 0 90 16l13 -73q-82 -33 -164 -33q-83 0 -132.5 36.5t-49.5 98.5q0 66 45.5 113.5t152.5 93.5h-84z" />
<glyph unicode="&#x130;" horiz-adv-x="552" d="M465 1511q-47 0 -79 32t-32 79t32.5 80t78.5 33q49 0 81 -32.5t32 -82.5q0 -46 -33 -77.5t-80 -31.5zM66 0l229 1366h252l-230 -1366h-251z" />
<glyph unicode="&#x131;" horiz-adv-x="507" d="M51 0l170 1018h236l-170 -1018h-236z" />
<glyph unicode="&#x134;" horiz-adv-x="768" d="M299 1516l414 260l297 -260l-193 -21l-127 111l-205 -111zM-86 -4l39 205q79 -8 139 -8q141 0 197 53.5t84 216.5l151 903h250l-145 -864q-32 -191 -70 -281t-113 -151q-118 -95 -323 -95q-77 0 -209 21z" />
<glyph unicode="&#x135;" horiz-adv-x="507" d="M188 1167l-178 21l404 289l286 -289l-178 -21l-131 131zM61 53l162 965h234l-154 -928q-29 -174 -61 -255t-92 -132q-102 -86 -277 -86q-74 0 -145 12l12 191q76 -13 113 -13q105 0 151 58q20 24 31 60.5t26 127.5z" />
<glyph unicode="&#x136;" horiz-adv-x="1263" d="M66 0l229 1366h244l-101 -596l-16 -82l-14 -61q32 49 77 100l576 639h262l-449 -487l271 -879h-258l-203 684l-317 -346l-58 -338h-243zM446 -109h205l-217 -370h-92z" />
<glyph unicode="&#x137;" horiz-adv-x="1110" d="M51 0l230 1366h223l-137 -823l512 475h239l-346 -322l240 -696h-242l-178 543l-268 -248l-50 -295h-223zM377 -109h205l-217 -370h-93z" />
<glyph unicode="&#x138;" horiz-adv-x="1110" d="M51 0l170 1018h223l-77 -475l512 475h239l-346 -322l240 -696h-242l-178 543l-268 -248l-50 -295h-223z" />
<glyph unicode="&#x139;" horiz-adv-x="999" d="M463 1489l-47 94l323 203l74 -121zM66 0l229 1366h258l-193 -1151h562l-37 -215h-819z" />
<glyph unicode="&#x13a;" horiz-adv-x="507" d="M397 1479l-51 84l324 241l80 -116zM51 0l230 1366h233l-227 -1366h-236z" />
<glyph unicode="&#x13b;" horiz-adv-x="999" d="M66 0l229 1366h258l-193 -1151h562l-37 -215h-819zM348 -109h205l-217 -370h-92z" />
<glyph unicode="&#x13c;" horiz-adv-x="507" d="M51 0l230 1366h235l-229 -1366h-236zM47 -109h205l-217 -370h-92z" />
<glyph unicode="&#x13d;" horiz-adv-x="999" d="M680 969l106 397h205l-219 -397h-92zM66 0l229 1366h258l-193 -1151h562l-37 -215h-819z" />
<glyph unicode="&#x13e;" horiz-adv-x="718" d="M559 969l107 397h204l-219 -397h-92zM51 0l230 1366h233l-227 -1366h-236z" />
<glyph unicode="&#x141;" horiz-adv-x="1013" d="M82 0l88 530l-152 -90l37 217l152 91l102 618h258l-86 -516l299 172l-35 -215l-301 -174l-69 -418h561l-37 -215h-817z" />
<glyph unicode="&#x142;" horiz-adv-x="522" d="M59 0l103 618l-139 -100l24 150l141 100l99 598h235l-84 -506l137 94l-24 -151l-139 -92l-119 -711h-234z" />
<glyph unicode="&#x143;" horiz-adv-x="1329" d="M791 1489l-48 94l324 203l74 -121zM66 0l229 1366h252l424 -938l157 938h195l-227 -1366h-197l-465 1026l-172 -1026h-196z" />
<glyph unicode="&#x144;" horiz-adv-x="1099" d="M631 1161l-51 84l323 242l80 -117zM51 0l170 1018h207l-39 -238q62 108 87.5 142t62.5 61q79 61 184 61q121 0 197.5 -79.5t76.5 -204.5q0 -44 -20 -170l-98 -590h-226l105 610q12 68 12 119q0 61 -34 97t-93 36q-107 0 -183 -105.5t-108 -297.5l-78 -459h-223z" />
<glyph unicode="&#x145;" horiz-adv-x="1329" d="M66 0l229 1366h252l424 -938l157 938h195l-227 -1366h-197l-465 1026l-172 -1026h-196zM461 -109h205l-217 -370h-93z" />
<glyph unicode="&#x146;" horiz-adv-x="1099" d="M51 0l170 1018h207l-39 -238q62 108 87.5 142t62.5 61q79 61 184 61q121 0 197.5 -79.5t76.5 -204.5q0 -44 -20 -170l-98 -590h-226l105 610q12 68 12 119q0 61 -34 97t-93 36q-107 0 -183 -105.5t-108 -297.5l-78 -459h-223zM336 -109h205l-217 -370h-93z" />
<glyph unicode="&#x147;" horiz-adv-x="1329" d="M854 1481l-299 262l193 20l126 -112l205 112l187 -20zM66 0l229 1366h252l424 -938l157 938h195l-227 -1366h-197l-465 1026l-172 -1026h-196z" />
<glyph unicode="&#x148;" horiz-adv-x="1099" d="M662 1153l-287 289l178 20l131 -131l203 131l176 -20zM51 0l170 1018h207l-39 -238q62 108 87.5 142t62.5 61q79 61 184 61q121 0 197.5 -79.5t76.5 -204.5q0 -44 -20 -170l-98 -590h-226l105 610q12 68 12 119q0 61 -34 97t-93 36q-107 0 -183 -105.5t-108 -297.5 l-78 -459h-223z" />
<glyph unicode="&#x14a;" horiz-adv-x="1288" d="M66 0l229 1366h221l-53 -317q82 147 114 192t80 82q111 82 240 82q154 0 252 -107t98 -274q0 -75 -26 -231l-91 -541q-38 -233 -79.5 -341.5t-118.5 -176.5q-132 -117 -354 -117q-79 0 -175 16l17 213q91 -16 158 -16q134 0 198 64q36 36 56 97.5t45 211.5l108 645 q16 98 16 166q0 86 -48.5 136t-131.5 50q-77 0 -141 -41.5t-125 -130.5q-50 -72 -82.5 -170.5t-58.5 -243.5l-105 -614h-243z" />
<glyph unicode="&#x14b;" horiz-adv-x="1099" d="M51 0l170 1018h207l-39 -238q62 108 87.5 142t62.5 61q79 61 184 61q121 0 197.5 -79.5t76.5 -204.5q0 -44 -20 -170l-84 -500q-29 -175 -60.5 -255.5t-91.5 -131.5q-102 -86 -276 -86q-75 0 -146 12l11 185q83 -13 119 -13q109 0 155 58q21 27 33 65.5t27 128.5l92 557 q12 68 12 119q0 61 -34 97t-93 36q-106 0 -181.5 -105.5t-107.5 -297.5l-78 -459h-223z" />
<glyph unicode="&#x14c;" horiz-adv-x="1325" d="M532 1550l23 129h639l-20 -129h-642zM104 582q0 264 121 483q91 166 226 253t301 87q244 0 386 -166.5t142 -452.5q0 -143 -40.5 -284t-115.5 -256q-88 -137 -216 -210t-281 -73q-113 0 -210 46.5t-166 128t-108 196.5t-39 248zM428 270q31 -46 88 -74t119 -28 q95 0 169 54t118 155q45 100 71.5 228.5t26.5 244.5q0 170 -73 260t-210 90q-85 0 -147 -43t-113 -137q-50 -93 -82.5 -229t-32.5 -252q0 -177 66 -269z" />
<glyph unicode="&#x14d;" horiz-adv-x="1075" d="M365 1223l22 129h586l-23 -129h-585zM184 100q-112 124 -112 342q0 256 147.5 427t368.5 171q189 0 303.5 -125.5t114.5 -334.5q0 -98 -30 -201.5t-81 -181.5q-71 -109 -170 -166.5t-219 -57.5q-95 0 -181.5 34t-140.5 93zM303 403q0 -115 55 -180t152 -65q165 0 229 223 q33 112 33 223q0 123 -52.5 188.5t-150.5 65.5q-154 0 -219 -184q-47 -126 -47 -271z" />
<glyph unicode="&#x150;" horiz-adv-x="1325" d="M1024 1489l-47 94l323 203l74 -121zM639 1489l-47 94l326 203l71 -121zM104 582q0 264 121 483q91 166 226 253t301 87q244 0 386 -166.5t142 -452.5q0 -143 -40.5 -284t-115.5 -256q-88 -137 -216 -210t-281 -73q-113 0 -210 46.5t-166 128t-108 196.5t-39 248zM428 270 q31 -46 88 -74t119 -28q95 0 169 54t118 155q45 100 71.5 228.5t26.5 244.5q0 170 -73 260t-210 90q-85 0 -147 -43t-113 -137q-50 -93 -82.5 -229t-32.5 -252q0 -177 66 -269z" />
<glyph unicode="&#x151;" horiz-adv-x="1075" d="M463 1161l-53 84l323 242l82 -117zM805 1153l-53 86l323 242l80 -117zM184 100q-112 124 -112 342q0 256 147.5 427t368.5 171q189 0 303.5 -125.5t114.5 -334.5q0 -98 -30 -201.5t-81 -181.5q-71 -109 -170 -166.5t-219 -57.5q-95 0 -181.5 34t-140.5 93zM303 403 q0 -115 55 -180t152 -65q165 0 229 223q33 112 33 223q0 123 -52.5 188.5t-150.5 65.5q-154 0 -219 -184q-47 -126 -47 -271z" />
<glyph unicode="&#x152;" horiz-adv-x="1765" d="M1620 0h-799q-77 -21 -114 -27t-91 -6q-228 0 -367.5 171.5t-139.5 451.5q0 226 83.5 411.5t229.5 291.5t323 106q105 0 213 -31h865l-37 -215h-600l-60 -365h498l-33 -200h-499l-62 -373h627zM786 219l154 918q-88 61 -188 61q-77 0 -144.5 -41.5t-111.5 -116.5 q-58 -96 -92.5 -233t-34.5 -270q0 -177 69.5 -271t198.5 -94q79 0 149 47z" />
<glyph unicode="&#x153;" horiz-adv-x="1705" d="M1386 340l199 -53q-141 -314 -446 -314q-198 0 -318 144q-131 -152 -329 -152q-192 0 -307 127.5t-115 339.5q0 113 35.5 220.5t101.5 193.5q69 91 166 139.5t207 48.5q94 0 167 -32t146 -105q151 145 346 145q183 0 292 -124.5t109 -335.5q0 -36 -6 -101h-688 q-6 -58 -6 -82q0 -117 56.5 -183t154.5 -66q157 0 235 190zM971 625h461q-5 96 -27 145q-55 109 -178 109q-189 0 -256 -254zM303 401q0 -123 51 -188.5t148 -65.5q124 0 184 111q38 67 60 159.5t22 184.5q0 115 -53.5 181.5t-145.5 66.5q-104 0 -168 -88q-46 -61 -72 -158 t-26 -203z" />
<glyph unicode="&#x154;" horiz-adv-x="1308" d="M662 1489l-48 94l324 203l74 -121zM66 0l229 1366h512q142 0 219 -21t137 -77q121 -112 121 -279q0 -95 -41 -181.5t-110 -139.5q-70 -56 -172 -78l167 -590h-260l-145 561h-320l-94 -561h-243zM436 760h340q74 0 116 12t73 41q30 29 47.5 73t17.5 89q0 88 -59 141 q-32 29 -74 40t-123 11h-268z" />
<glyph unicode="&#x155;" horiz-adv-x="710" d="M473 1161l-51 84l323 242l80 -117zM51 0l170 1018h207l-47 -277q73 167 160.5 236.5t218.5 66.5l-29 -249q-29 2 -51 2q-75 0 -145 -39t-111 -103q-50 -74 -84 -266l-66 -389h-223z" />
<glyph unicode="&#x156;" horiz-adv-x="1308" d="M66 0l229 1366h512q142 0 219 -21t137 -77q121 -112 121 -279q0 -95 -41 -181.5t-110 -139.5q-70 -56 -172 -78l167 -590h-260l-145 561h-320l-94 -561h-243zM436 760h340q74 0 116 12t73 41q30 29 47.5 73t17.5 89q0 88 -59 141q-32 29 -74 40t-123 11h-268zM434 -109 h205l-217 -370h-92z" />
<glyph unicode="&#x157;" horiz-adv-x="710" d="M51 0l170 1018h207l-47 -277q73 167 160.5 236.5t218.5 66.5l-29 -249q-29 2 -51 2q-75 0 -145 -39t-111 -103q-50 -74 -84 -266l-66 -389h-223zM41 -109h205l-217 -370h-92z" />
<glyph unicode="&#x158;" horiz-adv-x="1308" d="M797 1481l-299 262l192 20l127 -112l205 112l186 -20zM66 0l229 1366h512q142 0 219 -21t137 -77q121 -112 121 -279q0 -95 -41 -181.5t-110 -139.5q-70 -56 -172 -78l167 -590h-260l-145 561h-320l-94 -561h-243zM436 760h340q74 0 116 12t73 41q30 29 47.5 73t17.5 89 q0 88 -59 141q-32 29 -74 40t-123 11h-268z" />
<glyph unicode="&#x159;" horiz-adv-x="710" d="M508 1153l-287 289l178 20l131 -131l203 131l176 -20zM51 0l170 1018h207l-47 -277q73 167 160.5 236.5t218.5 66.5l-29 -249q-29 2 -51 2q-75 0 -145 -39t-111 -103q-50 -74 -84 -266l-66 -389h-223z" />
<glyph unicode="&#x15a;" horiz-adv-x="1132" d="M631 1489l-47 94l323 203l74 -121zM1114 1106l-223 -82q-35 83 -102.5 126.5t-159.5 43.5q-106 0 -173 -52t-67 -134q0 -60 43.5 -99t140.5 -67q203 -58 257.5 -80.5t113.5 -69.5q55 -44 86 -114t31 -148q0 -95 -44 -188.5t-116 -153.5q-66 -56 -167.5 -86.5 t-219.5 -30.5q-217 0 -362 107q-59 43 -96.5 95t-71.5 138l223 80q44 -112 122.5 -163.5t202.5 -51.5q123 0 200 58.5t77 152.5q0 77 -72 123q-29 18 -64 30t-204 60q-332 95 -332 373q0 191 137.5 308.5t360.5 117.5q351 0 479 -293z" />
<glyph unicode="&#x15b;" horiz-adv-x="937" d="M524 1161l-53 84l324 242l79 -117zM-37 246l215 53q15 -41 31.5 -63t46.5 -41q70 -48 162 -48q89 0 142.5 37t53.5 97q0 41 -33.5 66t-121.5 50q-114 32 -158 48.5t-82 43.5q-121 82 -121 228t108 238t279 92q150 0 252 -58.5t168 -181.5l-192 -64q-38 70 -91 102 t-130 32q-73 0 -119.5 -33t-46.5 -84q0 -41 26 -66t92 -45q152 -44 219 -73.5t109 -69.5q82 -82 82 -191q0 -157 -117.5 -247.5t-320.5 -90.5q-347 0 -453 269z" />
<glyph unicode="&#x15c;" horiz-adv-x="1132" d="M328 1516l413 260l297 -260l-192 -21l-127 111l-205 -111zM1114 1106l-223 -82q-35 83 -102.5 126.5t-159.5 43.5q-106 0 -173 -52t-67 -134q0 -60 43.5 -99t140.5 -67q203 -58 257.5 -80.5t113.5 -69.5q55 -44 86 -114t31 -148q0 -95 -44 -188.5t-116 -153.5 q-66 -56 -167.5 -86.5t-219.5 -30.5q-217 0 -362 107q-59 43 -96.5 95t-71.5 138l223 80q44 -112 122.5 -163.5t202.5 -51.5q123 0 200 58.5t77 152.5q0 77 -72 123q-29 18 -64 30t-204 60q-332 95 -332 373q0 191 137.5 308.5t360.5 117.5q351 0 479 -293z" />
<glyph unicode="&#x15d;" horiz-adv-x="937" d="M205 1188l403 289l287 -289l-178 -21l-131 131l-203 -131zM-37 246l215 53q15 -41 31.5 -63t46.5 -41q70 -48 162 -48q89 0 142.5 37t53.5 97q0 41 -33.5 66t-121.5 50q-114 32 -158 48.5t-82 43.5q-121 82 -121 228t108 238t279 92q150 0 252 -58.5t168 -181.5l-192 -64 q-38 70 -91 102t-130 32q-73 0 -119.5 -33t-46.5 -84q0 -41 26 -66t92 -45q152 -44 219 -73.5t109 -69.5q82 -82 82 -191q0 -157 -117.5 -247.5t-320.5 -90.5q-347 0 -453 269z" />
<glyph unicode="&#x15e;" horiz-adv-x="1132" d="M-16 311l223 80q44 -112 122.5 -163.5t202.5 -51.5q123 0 200 58.5t77 152.5q0 77 -72 123q-29 18 -64 30t-204 60q-332 95 -332 373q0 191 137.5 308.5t360.5 117.5q351 0 479 -293l-223 -82q-35 83 -102.5 126.5t-159.5 43.5q-106 0 -173 -52t-67 -134q0 -60 43.5 -99 t140.5 -67q203 -58 257.5 -80.5t113.5 -69.5q55 -44 86 -114t31 -148q0 -95 -44 -188.5t-116 -153.5q-66 -55 -166.5 -86t-216.5 -31h-35l-34 -71q8 2 18 2q88 0 137 -36t49 -99q0 -83 -68.5 -140t-166.5 -57q-94 0 -215 59l45 82q68 -32 98.5 -41.5t61.5 -9.5q44 0 74 24.5 t30 59.5q0 78 -135 78q-35 0 -60 -2l78 160q-161 29 -259.5 108.5t-151.5 222.5z" />
<glyph unicode="&#x15f;" horiz-adv-x="937" d="M-37 246l215 53q15 -41 31.5 -63t46.5 -41q70 -48 162 -48q89 0 142.5 37t53.5 97q0 41 -33.5 66t-121.5 50q-114 32 -158 48.5t-82 43.5q-121 82 -121 228t108 238t279 92q150 0 252 -58.5t168 -181.5l-192 -64q-38 70 -91 102t-130 32q-73 0 -119.5 -33t-46.5 -84 q0 -41 26 -66t92 -45q152 -44 219 -73.5t109 -69.5q82 -82 82 -191q0 -155 -117.5 -246.5t-316.5 -91.5q-17 0 -41 3l-33 -72h10q68 0 116 -39t48 -96q0 -69 -64.5 -122.5t-150.5 -53.5q-35 0 -74.5 12.5t-111.5 46.5l45 80q78 -47 141 -47q37 0 60.5 18.5t23.5 48.5 q0 72 -158 72h-8l76 160q-118 15 -206.5 83t-129.5 175z" />
<glyph unicode="&#x160;" horiz-adv-x="1132" d="M688 1481l-299 262l193 20l127 -112l204 112l187 -20zM1114 1106l-223 -82q-35 83 -102.5 126.5t-159.5 43.5q-106 0 -173 -52t-67 -134q0 -60 43.5 -99t140.5 -67q203 -58 257.5 -80.5t113.5 -69.5q55 -44 86 -114t31 -148q0 -95 -44 -188.5t-116 -153.5 q-66 -56 -167.5 -86.5t-219.5 -30.5q-217 0 -362 107q-59 43 -96.5 95t-71.5 138l223 80q44 -112 122.5 -163.5t202.5 -51.5q123 0 200 58.5t77 152.5q0 77 -72 123q-29 18 -64 30t-204 60q-332 95 -332 373q0 191 137.5 308.5t360.5 117.5q351 0 479 -293z" />
<glyph unicode="&#x161;" horiz-adv-x="937" d="M549 1153l-287 289l178 20l131 -131l203 131l176 -20zM-37 246l215 53q15 -41 31.5 -63t46.5 -41q70 -48 162 -48q89 0 142.5 37t53.5 97q0 41 -33.5 66t-121.5 50q-114 32 -158 48.5t-82 43.5q-121 82 -121 228t108 238t279 92q150 0 252 -58.5t168 -181.5l-192 -64 q-38 70 -91 102t-130 32q-73 0 -119.5 -33t-46.5 -84q0 -41 26 -66t92 -45q152 -44 219 -73.5t109 -69.5q82 -82 82 -191q0 -157 -117.5 -247.5t-320.5 -90.5q-347 0 -453 269z" />
<glyph unicode="&#x162;" horiz-adv-x="944" d="M262 0l193 1151h-346l36 215h945l-37 -215h-346l-193 -1151h-252zM262 -109h205l-217 -370h-92z" />
<glyph unicode="&#x163;" horiz-adv-x="657" d="M559 182l-31 -184q-112 -14 -145 -14q-127 0 -198.5 58t-71.5 161q0 60 22 182l78 451h-152l31 182h154l59 274l205 15l-47 -289h219l-31 -182h-219l-76 -455q-14 -82 -14 -113q0 -92 143 -92q15 0 74 6zM121 -109h205l-217 -370h-93z" />
<glyph unicode="&#x164;" horiz-adv-x="944" d="M643 1481l-299 262l193 20l127 -112l204 112l187 -20zM262 0l193 1151h-346l36 215h945l-37 -215h-346l-193 -1151h-252z" />
<glyph unicode="&#x165;" horiz-adv-x="724" d="M592 1126l104 398h205l-217 -398h-92zM559 182l-31 -184q-112 -14 -145 -14q-127 0 -198.5 58t-71.5 161q0 60 22 182l78 451h-152l31 182h154l59 274l205 15l-47 -289h219l-31 -182h-219l-76 -455q-14 -82 -14 -113q0 -92 143 -92q15 0 74 6z" />
<glyph unicode="&#x166;" horiz-adv-x="944" d="M262 0l107 643h-193l29 166h192l58 342h-346l36 215h945l-37 -215h-346l-58 -342h191l-29 -166h-190l-107 -643h-252z" />
<glyph unicode="&#x167;" horiz-adv-x="657" d="M559 182l-31 -184q-112 -14 -145 -14q-127 0 -198.5 58t-71.5 161q0 60 22 182l15 84h-109l22 137h109l41 230h-152l31 182h154l59 274l205 15l-47 -289h219l-31 -182h-219l-39 -230h115l-23 -137h-114l-15 -88q-14 -82 -14 -113q0 -92 143 -92q15 0 74 6z" />
<glyph unicode="&#x168;" horiz-adv-x="1239" d="M528 1520l-59 98q118 121 233 121q55 0 132 -39q82 -43 133 -43q36 0 63.5 16.5t67.5 61.5l65 -97q-109 -122 -233 -122q-58 0 -144 43q-80 40 -114 40q-47 0 -144 -79zM1245 1366l-147 -883q-28 -168 -66.5 -251.5t-118.5 -149.5q-134 -113 -335 -113q-204 0 -326.5 110 t-122.5 296q0 95 18 200l134 791h251l-135 -803q-22 -132 -22 -176q0 -97 63 -152t172 -55q52 0 103 16.5t84 43.5q44 38 68.5 102t47.5 201l138 823h194z" />
<glyph unicode="&#x169;" horiz-adv-x="1083" d="M408 1206l-54 97q116 122 219 122q55 0 129 -39q52 -27 75.5 -35t49.5 -8q34 0 58.5 14t68.5 60l54 -98q-41 -55 -97.5 -86t-115.5 -31t-148 47q-68 37 -100 37q-29 0 -54 -14.5t-85 -65.5zM653 0l39 221q-130 -239 -346 -239q-108 0 -178 70t-70 179q0 34 3.5 59 t23.5 140l98 588h223l-106 -631q-14 -80 -14 -113q0 -44 31.5 -73t80.5 -29q61 0 123 42.5t103 113.5q24 41 37.5 93t33.5 167l74 430h223l-170 -1018h-209z" />
<glyph unicode="&#x16a;" horiz-adv-x="1239" d="M500 1550l22 129h639l-20 -129h-641zM1245 1366l-147 -883q-28 -168 -66.5 -251.5t-118.5 -149.5q-134 -113 -335 -113q-204 0 -326.5 110t-122.5 296q0 95 18 200l134 791h251l-135 -803q-22 -132 -22 -176q0 -97 63 -152t172 -55q52 0 103 16.5t84 43.5q44 38 68.5 102 t47.5 201l138 823h194z" />
<glyph unicode="&#x16b;" horiz-adv-x="1083" d="M381 1223l22 129h586l-22 -129h-586zM653 0l39 221q-130 -239 -346 -239q-108 0 -178 70t-70 179q0 34 3.5 59t23.5 140l98 588h223l-106 -631q-14 -80 -14 -113q0 -44 31.5 -73t80.5 -29q61 0 123 42.5t103 113.5q24 41 37.5 93t33.5 167l74 430h223l-170 -1018h-209z " />
<glyph unicode="&#x16c;" horiz-adv-x="1239" d="M1036 1759h138q-29 -115 -128 -187.5t-227 -72.5q-134 0 -206 64t-72 182v14h137q9 -63 47 -91t113 -28q140 0 198 119zM1245 1366l-147 -883q-28 -168 -66.5 -251.5t-118.5 -149.5q-134 -113 -335 -113q-204 0 -326.5 110t-122.5 296q0 95 18 200l134 791h251l-135 -803 q-22 -132 -22 -176q0 -97 63 -152t172 -55q52 0 103 16.5t84 43.5q44 38 68.5 102t47.5 201l138 823h194z" />
<glyph unicode="&#x16d;" horiz-adv-x="1083" d="M891 1456h131q-29 -126 -123.5 -200t-226.5 -74q-117 0 -188.5 61.5t-71.5 161.5q0 11 4 51h131q0 -70 35.5 -101.5t115.5 -31.5q77 0 120.5 30t72.5 103zM653 0l39 221q-128 -239 -346 -239q-108 0 -178 70t-70 179q0 34 3.5 59t23.5 140l98 588h223l-106 -631 q-14 -80 -14 -113q0 -44 31.5 -73t80.5 -29q61 0 123 42.5t103 113.5q24 42 39 95t34 165l72 430h223l-170 -1018h-209z" />
<glyph unicode="&#x16e;" horiz-adv-x="1239" d="M823 1454q-77 0 -130.5 54t-53.5 130q0 77 55 132t131 55q78 0 131.5 -54.5t53.5 -132.5q0 -77 -54.5 -130.5t-132.5 -53.5zM823 1559q37 0 59.5 22t22.5 57t-22 58.5t-54 23.5q-38 0 -62 -22.5t-24 -57.5q0 -36 22.5 -58.5t57.5 -22.5zM1245 1366l-147 -883 q-28 -168 -66.5 -251.5t-118.5 -149.5q-134 -113 -335 -113q-204 0 -326.5 110t-122.5 296q0 95 18 200l134 791h251l-135 -803q-22 -132 -22 -176q0 -97 63 -152t172 -55q52 0 103 16.5t84 43.5q44 38 68.5 102t47.5 201l138 823h194z" />
<glyph unicode="&#x16f;" horiz-adv-x="1083" d="M678 1135q-76 0 -130 53.5t-54 130.5t55 131.5t131 54.5q78 0 131 -54t53 -132q0 -77 -54 -130.5t-132 -53.5zM678 1239q37 0 59.5 22.5t22.5 57.5t-22 58.5t-54 23.5q-38 0 -62 -22.5t-24 -57.5q0 -37 22.5 -59.5t57.5 -22.5zM653 0l39 221q-130 -239 -346 -239 q-108 0 -178 70t-70 179q0 34 3.5 59t23.5 140l98 588h223l-106 -631q-14 -80 -14 -113q0 -44 31.5 -73t80.5 -29q61 0 123 42.5t103 113.5q24 41 37.5 93t33.5 167l74 430h223l-170 -1018h-209z" />
<glyph unicode="&#x170;" horiz-adv-x="1239" d="M995 1489l-47 94l324 203l74 -121zM610 1489l-47 94l326 203l72 -121zM1245 1366l-147 -883q-28 -168 -66.5 -251.5t-118.5 -149.5q-134 -113 -335 -113q-204 0 -326.5 110t-122.5 296q0 95 18 200l134 791h251l-135 -803q-22 -132 -22 -176q0 -97 63 -152t172 -55 q52 0 103 16.5t84 43.5q44 38 68.5 102t47.5 201l138 823h194z" />
<glyph unicode="&#x171;" horiz-adv-x="1083" d="M473 1161l-53 84l323 242l82 -117zM815 1153l-53 86l323 242l80 -117zM653 0l39 221q-130 -239 -346 -239q-108 0 -178 70t-70 179q0 34 3.5 59t23.5 140l98 588h223l-106 -631q-14 -80 -14 -113q0 -44 31.5 -73t80.5 -29q61 0 123 42.5t103 113.5q24 41 37.5 93 t33.5 167l74 430h223l-170 -1018h-209z" />
<glyph unicode="&#x172;" horiz-adv-x="1239" d="M623 -31h-45q-204 0 -326.5 110t-122.5 296q0 95 18 200l134 791h251l-135 -803q-22 -132 -22 -176q0 -97 63 -152t172 -55q52 0 103 16.5t84 43.5q44 38 68.5 102t47.5 201l138 823h194l-147 -883q-32 -191 -87 -286.5t-175 -167.5q-68 -41 -106 -94t-38 -103 q0 -43 31 -67.5t88 -24.5q42 0 92 18l19 -80q-79 -36 -172 -36q-98 0 -151.5 41t-53.5 116q0 95 78 170z" />
<glyph unicode="&#x173;" horiz-adv-x="1083" d="M653 0l39 221q-130 -239 -346 -239q-109 0 -178.5 71t-69.5 185q0 29 3.5 52t23.5 140l98 588h223l-106 -631q-14 -80 -14 -113q0 -44 31.5 -73t80.5 -29q61 0 123 42.5t103 113.5q24 41 37.5 93t33.5 167l74 430h223l-170 -1018h-98q-164 -80 -164 -172q0 -37 26 -58.5 t72 -21.5q35 0 90 16l13 -73q-82 -33 -164 -33q-83 0 -132.5 36.5t-49.5 98.5q0 66 46 113.5t154 93.5h-2z" />
<glyph unicode="&#x174;" horiz-adv-x="1781" d="M307 -10l-160 1376h265l90 -1032l420 1032h243l109 -1032l414 1032h217l-574 -1376h-246l-118 1028l-422 -1028h-238zM682 1516l414 260l297 -260l-193 -21l-127 111l-205 -111z" />
<glyph unicode="&#x175;" horiz-adv-x="1431" d="M244 0l-152 1018h232l92 -705l293 705h202l74 -703l313 703h199l-465 -1018h-211l-78 725l-292 -725h-207zM473 1188l404 289l284 -289l-176 -21l-131 131l-203 -131z" />
<glyph unicode="&#x176;" horiz-adv-x="1060" d="M336 0l96 575l-348 791h281l241 -590l389 590h236l-545 -803l-94 -563h-256zM348 1516l414 260l297 -260l-193 -21l-127 111l-204 -111z" />
<glyph unicode="&#x177;" horiz-adv-x="931" d="M-47 -166q60 -8 131 -8q79 0 122.5 30t82.5 109l39 80l-250 973h239l156 -701l336 701h195l-523 -1053q-68 -138 -91 -176t-62 -72q-99 -86 -265 -86q-43 0 -120 9zM213 1188l403 289l285 -289l-176 -21l-131 131l-203 -131z" />
<glyph unicode="&#x178;" horiz-adv-x="1060" d="M897 1511q-47 0 -79 32t-32 79t32.5 80t78.5 33q49 0 81 -32.5t32 -82.5q0 -46 -33 -77.5t-80 -31.5zM549 1511q-47 0 -79 32t-32 79t32.5 80t78.5 33q49 0 81 -32.5t32 -82.5q0 -46 -33 -77.5t-80 -31.5zM336 0l96 575l-348 791h281l241 -590l389 590h236l-545 -803 l-94 -563h-256z" />
<glyph unicode="&#x179;" horiz-adv-x="1077" d="M657 1489l-47 94l326 203l72 -121zM-43 0l33 201l823 950h-643l37 215h956l-26 -172l-852 -979h710l-37 -215h-1001z" />
<glyph unicode="&#x17a;" horiz-adv-x="862" d="M528 1161l-53 84l326 242l80 -117zM-35 0l27 182l571 660h-432l31 176h721l-27 -158l-582 -678h486l-31 -182h-764z" />
<glyph unicode="&#x17b;" horiz-adv-x="1077" d="M741 1511q-47 0 -78.5 32t-31.5 79t32 80t78 33q49 0 81 -32.5t32 -82.5q0 -46 -33 -77.5t-80 -31.5zM-43 0l33 201l823 950h-643l37 215h956l-26 -172l-852 -979h710l-37 -215h-1001z" />
<glyph unicode="&#x17c;" horiz-adv-x="862" d="M586 1188q-47 0 -79 31.5t-32 78.5t32.5 80t78.5 33q49 0 80.5 -32.5t31.5 -82.5q0 -46 -32.5 -77t-79.5 -31zM-35 0l27 182l571 660h-432l31 176h721l-27 -158l-582 -678h486l-31 -182h-764z" />
<glyph unicode="&#x17d;" horiz-adv-x="1077" d="M709 1481l-299 262l192 20l127 -112l205 112l186 -20zM-43 0l33 201l823 950h-643l37 215h956l-26 -172l-852 -979h710l-37 -215h-1001z" />
<glyph unicode="&#x17e;" horiz-adv-x="862" d="M557 1153l-287 289l179 20l131 -131l202 131l176 -20zM-35 0l27 182l571 660h-432l31 176h721l-27 -158l-582 -678h486l-31 -182h-764z" />
<glyph unicode="&#x192;" d="M2 -78h25q16 0 36.5 -1t22.5 -1q109 0 156 72q18 27 25.5 45t41.5 113l281 804h-146l56 183h153q33 109 66.5 172t79.5 106q118 115 329 115q54 0 115 -10l-67 -191q-29 2 -64 2q-108 0 -155 -37.5t-83 -156.5h216l-66 -183h-211l-281 -804q-42 -123 -69.5 -176.5 t-77.5 -108.5q-127 -139 -338 -139q-52 0 -110 12z" />
<glyph unicode="&#x218;" horiz-adv-x="1132" d="M1114 1106l-223 -82q-35 83 -102.5 126.5t-159.5 43.5q-106 0 -173 -52t-67 -134q0 -60 43.5 -99t140.5 -67q203 -58 257.5 -80.5t113.5 -69.5q55 -44 86 -114t31 -148q0 -95 -44 -188.5t-116 -153.5q-66 -56 -167.5 -86.5t-219.5 -30.5q-217 0 -362 107q-59 43 -96.5 95 t-71.5 138l223 80q44 -112 122.5 -163.5t202.5 -51.5q123 0 200 58.5t77 152.5q0 77 -72 123q-29 18 -64 30t-204 60q-332 95 -332 373q0 191 137.5 308.5t360.5 117.5q351 0 479 -293zM403 -109h205l-217 -370h-92z" />
<glyph unicode="&#x219;" horiz-adv-x="937" d="M-37 246l215 53q15 -41 31.5 -63t46.5 -41q70 -48 162 -48q89 0 142.5 37t53.5 97q0 41 -33.5 66t-121.5 50q-114 32 -158 48.5t-82 43.5q-121 82 -121 228t108 238t279 92q150 0 252 -58.5t168 -181.5l-192 -64q-38 70 -91 102t-130 32q-73 0 -119.5 -33t-46.5 -84 q0 -41 26 -66t92 -45q152 -44 219 -73.5t109 -69.5q82 -82 82 -191q0 -157 -117.5 -247.5t-320.5 -90.5q-347 0 -453 269zM274 -109h205l-217 -370h-92z" />
<glyph unicode="&#x21a;" horiz-adv-x="944" d="M262 0l193 1151h-346l36 215h945l-37 -215h-346l-193 -1151h-252zM262 -109h205l-217 -370h-92z" />
<glyph unicode="&#x21b;" horiz-adv-x="657" d="M559 182l-31 -184q-112 -14 -145 -14q-127 0 -198.5 58t-71.5 161q0 60 22 182l78 451h-152l31 182h154l59 274l205 15l-47 -289h219l-31 -182h-219l-76 -455q-14 -82 -14 -113q0 -92 143 -92q15 0 74 6zM121 -109h205l-217 -370h-93z" />
<glyph unicode="&#x2c6;" horiz-adv-x="1024" d="M272 1188l404 289l285 -289l-177 -21l-131 131l-202 -131z" />
<glyph unicode="&#x2c7;" horiz-adv-x="1024" d="M612 1153l-286 289l178 20l131 -131l203 131l176 -20z" />
<glyph unicode="&#x2d8;" horiz-adv-x="1024" d="M858 1456h131q-29 -126 -123.5 -200t-226.5 -74q-117 0 -188.5 61.5t-71.5 161.5q0 11 4 51h131q0 -70 36 -101.5t116 -31.5q76 0 119.5 30.5t72.5 102.5z" />
<glyph unicode="&#x2d9;" horiz-adv-x="1024" d="M643 1188q-47 0 -79 31.5t-32 78.5t32.5 80t78.5 33q49 0 81 -32.5t32 -82.5q0 -46 -33 -77t-80 -31z" />
<glyph unicode="&#x2da;" horiz-adv-x="1024" d="M649 1135q-77 0 -130.5 53.5t-53.5 130.5t54.5 131.5t131.5 54.5q78 0 131.5 -54t53.5 -132q0 -77 -54.5 -130.5t-132.5 -53.5zM649 1239q37 0 59.5 22.5t22.5 57.5t-22 58.5t-54 23.5q-38 0 -62 -22.5t-24 -57.5q0 -37 22.5 -59.5t57.5 -22.5z" />
<glyph unicode="&#x2db;" horiz-adv-x="1024" d="M852 -236l12 -73q-82 -33 -164 -33q-83 0 -132.5 36.5t-49.5 98.5q0 66 46.5 114.5t152.5 92.5h110q-163 -79 -163 -172q0 -37 26 -58.5t72 -21.5q35 0 90 16z" />
<glyph unicode="&#x2dc;" horiz-adv-x="1024" d="M377 1206l-53 97q116 122 219 122q55 0 129 -39q52 -27 75.5 -35t49.5 -8q34 0 58.5 14t68.5 60l53 -98q-41 -55 -97.5 -86t-115.5 -31t-148 47q-68 37 -100 37q-29 0 -54 -14.5t-85 -65.5z" />
<glyph unicode="&#x2dd;" horiz-adv-x="1024" d="M387 1161l-53 84l323 242l82 -117zM729 1153l-53 86l323 242l80 -117z" />
<glyph unicode="&#x3a9;" d="M-29 0l35 211h279q-123 78 -179.5 186t-56.5 262q0 211 79.5 379t221 261.5t320.5 93.5q252 0 397 -174q113 -136 113 -347q0 -235 -107 -419q-50 -85 -106.5 -138t-151.5 -104h330l-37 -211h-526l34 211q87 61 136 120.5t86 147.5q73 180 73 373q0 163 -64.5 252.5 t-184.5 89.5q-180 0 -281 -207q-74 -154 -74 -358q0 -151 42 -244.5t145 -173.5l-35 -211h-488z" />
<glyph unicode="&#x3c0;" d="M119 0l139 838h-121l31 180h1036l-30 -180h-121l-140 -838h-225l141 838h-346l-141 -838h-223z" />
<glyph unicode="&#x2000;" horiz-adv-x="912" />
<glyph unicode="&#x2001;" horiz-adv-x="1825" />
<glyph unicode="&#x2002;" horiz-adv-x="912" />
<glyph unicode="&#x2003;" horiz-adv-x="1825" />
<glyph unicode="&#x2004;" horiz-adv-x="608" />
<glyph unicode="&#x2005;" horiz-adv-x="456" />
<glyph unicode="&#x2006;" horiz-adv-x="304" />
<glyph unicode="&#x2007;" horiz-adv-x="304" />
<glyph unicode="&#x2008;" horiz-adv-x="228" />
<glyph unicode="&#x2009;" horiz-adv-x="365" />
<glyph unicode="&#x200a;" horiz-adv-x="101" />
<glyph unicode="&#x2010;" horiz-adv-x="493" d="M-14 414l30 182h490l-31 -182h-489z" />
<glyph unicode="&#x2011;" horiz-adv-x="493" d="M-14 414l30 182h490l-31 -182h-489z" />
<glyph unicode="&#x2012;" horiz-adv-x="493" d="M-14 414l30 182h490l-31 -182h-489z" />
<glyph unicode="&#x2013;" d="M172 414l31 182h825l-31 -182h-825z" />
<glyph unicode="&#x2014;" horiz-adv-x="1366" d="M-70 414l31 182h1473l-31 -182h-1473z" />
<glyph unicode="&#x2018;" horiz-adv-x="493" d="M201 885l35 209l182 272h80l-152 -258h109l-37 -223h-217z" />
<glyph unicode="&#x2019;" horiz-adv-x="493" d="M201 885l151 260h-108l37 221h217l-35 -207l-182 -274h-80z" />
<glyph unicode="&#x201a;" horiz-adv-x="493" d="M53 0l37 223h217l-35 -209l-182 -272h-80l152 258h-109z" />
<glyph unicode="&#x201c;" horiz-adv-x="755" d="M481 870l35 209l189 287h79l-153 -270h94l-37 -226h-207zM190 870l35 209l191 287h80l-152 -270h96l-39 -226h-211z" />
<glyph unicode="&#x201d;" horiz-adv-x="755" d="M467 870l151 271h-96l37 225h213l-35 -209l-190 -287h-80zM178 870l154 271h-94l36 225h207l-35 -209l-188 -287h-80z" />
<glyph unicode="&#x201e;" horiz-adv-x="755" d="M330 0l37 225h213l-35 -209l-191 -286h-80l152 270h-96zM45 0l37 225h207l-35 -209l-188 -286h-80l153 270h-94z" />
<glyph unicode="&#x2020;" d="M346 -354l195 1155h-367l31 188h366l64 377h217l-61 -377h366l-33 -188h-366l-193 -1155h-219z" />
<glyph unicode="&#x2021;" d="M49 55l31 189h366l95 557h-367l31 188h366l64 377h217l-61 -377h364l-31 -188h-366l-92 -557h366l-33 -189h-366l-68 -409h-219l70 409h-367z" />
<glyph unicode="&#x2022;" horiz-adv-x="1366" d="M436 692q0 120 83.5 202.5t203.5 82.5q115 0 198 -84t83 -201t-83 -199.5t-200 -82.5q-118 0 -201.5 82.5t-83.5 199.5z" />
<glyph unicode="&#x2026;" horiz-adv-x="1492" d="M1040 0l41 250h240l-41 -250h-240zM543 0l43 250h237l-43 -250h-237zM45 0l41 250h240l-41 -250h-240z" />
<glyph unicode="&#x202f;" horiz-adv-x="365" />
<glyph unicode="&#x2030;" horiz-adv-x="2228" d="M422 633q-121 0 -199 94t-78 240q0 97 39.5 193t102.5 155q81 78 196 78q123 0 200 -91t77 -237q0 -109 -45 -210.5t-123 -164.5q-69 -57 -170 -57zM221 0l998 1366h149l-995 -1366h-152zM430 772q80 0 119 98t39 224q0 75 -28.5 116t-82.5 41q-71 0 -115.5 -90.5 t-44.5 -234.5q0 -154 113 -154zM1530 307q0 178 100 306t238 128q119 0 197.5 -97t78.5 -243q0 -114 -46 -212t-124.5 -155t-169.5 -57q-123 0 -198.5 91.5t-75.5 238.5zM834 307q0 177 99.5 305.5t237.5 128.5q119 0 198 -97t79 -243q0 -114 -46 -212t-124.5 -155 t-169.5 -57q-123 0 -198.5 91.5t-75.5 238.5zM1700 285q0 -80 28.5 -123t83.5 -43q44 0 74 29t53 94q33 101 33 192q0 166 -114 166q-69 0 -105 -68q-53 -106 -53 -247zM1004 287q0 -168 112 -168q44 0 74 29t53 94q33 101 33 192q0 166 -115 166q-68 0 -104 -68 q-53 -106 -53 -245z" />
<glyph unicode="&#x2032;" horiz-adv-x="546" d="M172 823l174 543h217l-241 -543h-150z" />
<glyph unicode="&#x2033;" horiz-adv-x="882" d="M172 823l174 543h217l-241 -543h-150zM508 823l174 543h217l-242 -543h-149z" />
<glyph unicode="&#x2039;" horiz-adv-x="425" d="M199 223l-123 293l203 281h106l-156 -287l60 -287h-90z" />
<glyph unicode="&#x203a;" horiz-adv-x="425" d="M41 223l154 287l-58 287h90l123 -293l-203 -281h-106z" />
<glyph unicode="&#x2044;" horiz-adv-x="299" d="M-276 0h-154l1069 1366h149z" />
<glyph unicode="&#x205f;" horiz-adv-x="456" />
<glyph unicode="&#x20ac;" horiz-adv-x="1284" d="M94 459l76 178h96q4 58 10 96h-153l76 178h120q78 233 231 361.5t351 128.5q218 0 348 -127l-104 -252q-62 174 -248 174q-107 0 -181 -69.5t-124 -215.5h508l-76 -178h-477q-8 -46 -8 -47l-7 -49h451l-76 -178h-381q12 -135 79 -208t177 -73q167 0 291 207l-29 -342 q-127 -78 -280 -78q-204 0 -335.5 131t-160.5 363h-174z" />
<glyph unicode="&#x2113;" horiz-adv-x="1024" d="M547 549l-29 -146q-35 -178 -35 -256q0 -55 35 -55q46 0 94 105q19 39 41 39q15 0 24 -10t9 -27q0 -31 -18.5 -71t-49.5 -75q-67 -82 -149 -82q-145 0 -145 217q0 54 10 203q-49 -46 -62 -56.5t-24 -10.5q-12 0 -22.5 14t-10.5 29q0 21 37 55q40 40 98 108 q69 377 166 609q102 250 248 250q66 0 104.5 -48.5t38.5 -130.5t-35 -185t-98 -202q-60 -98 -227 -274zM573 707q110 123 172 252t62 235q0 42 -11.5 66t-31.5 24q-19 0 -40.5 -25t-33.5 -61q-60 -168 -117 -491z" />
<glyph unicode="&#x2117;" horiz-adv-x="1583" d="M113 682q0 195 95 359t260.5 259t362.5 95q140 0 269.5 -57t223.5 -153t150 -228t56 -275q0 -192 -95 -356t-258 -259.5t-354 -95.5q-144 0 -275.5 56.5t-226.5 152t-151.5 227t-56.5 275.5zM240 682q0 -161 78 -298.5t212.5 -217.5t292.5 -80q157 0 290.5 80 t211.5 217.5t78 298.5q0 160 -77.5 298t-209.5 219t-285 81q-163 0 -299 -79.5t-214 -216.5t-78 -302zM487 272l138 820h295q79 0 122.5 -12.5t79.5 -45.5q70 -67 70 -168q0 -129 -92.5 -195.5t-257.5 -66.5h-144l-55 -332h-156zM719 735h180q64 0 90 23q18 15 29.5 42.5 t11.5 55.5q0 54 -32 79.5t-101 25.5h-139z" />
<glyph unicode="&#x2122;" horiz-adv-x="1572" d="M670 588l131 778h248l90 -487l233 487h264l-131 -778h-170l107 635l-316 -635h-100l-111 633l-106 -633h-139zM215 588l107 645h-211l22 133h598l-22 -133h-211l-109 -645h-174z" />
<glyph unicode="&#x2126;" d="M-29 0l35 211h279q-123 78 -179.5 186t-56.5 262q0 211 79.5 379t221 261.5t320.5 93.5q252 0 397 -174q113 -136 113 -347q0 -235 -107 -419q-50 -85 -106.5 -138t-151.5 -104h330l-37 -211h-526l34 211q87 61 136 120.5t86 147.5q73 180 73 373q0 163 -64.5 252.5 t-184.5 89.5q-180 0 -281 -207q-74 -154 -74 -358q0 -151 42 -244.5t145 -173.5l-35 -211h-488z" />
<glyph unicode="&#x212e;" horiz-adv-x="1765" d="M1403 266h207q-237 -293 -695 -293q-336 0 -565 195q-231 197 -231 514q0 318 231 512q241 199 578 199t569 -209q219 -200 219 -537h-1261v-381q176 -209 477 -209q296 0 471 209zM455 731h942v350q-166 224 -479 224q-311 0 -463 -224v-350z" />
<glyph unicode="&#x21e7;" horiz-adv-x="2043" d="M477 0l94 535h-477l1125 956l784 -956h-477l-94 -535h-955zM666 160h634l95 534h254l-471 572l-672 -572h254z" />
<glyph unicode="&#x2202;" d="M606 1186l146 -111q102 -78 138.5 -111t74.5 -87q55 -73 79.5 -148t24.5 -168q0 -261 -146.5 -424.5t-381.5 -163.5q-195 0 -305.5 110t-110.5 306q0 279 176 432q132 113 299 113q19 0 31 -2l-305 268l28 166h701l-31 -180h-418zM360 393q0 -237 201 -237q153 0 221 145 q54 111 54 266q0 242 -195 242q-135 0 -208 -108t-73 -308z" />
<glyph unicode="&#x2206;" d="M-59 0l647 1366h307l246 -1366h-1200zM264 211h565l-133 944h-12z" />
<glyph unicode="&#x220f;" horiz-adv-x="1366" d="M53 -303l273 1630h-168l35 209h1323l-35 -209h-166l-275 -1630h166l-35 -209h-565l35 209h164l274 1630h-520l-272 -1630h162l-35 -209h-564l35 209h168z" />
<glyph unicode="&#x2211;" horiz-adv-x="1366" d="M-86 -279l641 826l-377 756l39 233h1210l-81 -494h-209l24 285h-717l383 -780l-655 -850h735l62 289h219l-84 -498h-1229z" />
<glyph unicode="&#x2212;" d="M125 594v190h1012v-190h-1012z" />
<glyph unicode="&#x221a;" d="M317 0l-131 571h-186v209h379l47 -198q20 -83 37 -295h18q39 305 115 626l192 807h578v-209h-375l-368 -1511h-306z" />
<glyph unicode="&#x221e;" horiz-adv-x="1366" d="M393 369q-145 0 -236 92t-91 237q0 141 92.5 233.5t234.5 92.5q178 0 316 -176q135 176 323 176q144 0 236 -92.5t92 -235.5q0 -144 -91.5 -236.5t-232.5 -92.5q-183 0 -317 178q-145 -176 -326 -176zM836 686q32 -51 76 -81t85 -30q52 0 87.5 35t35.5 86 q0 50 -35.5 84.5t-87.5 34.5q-86 0 -170 -119zM598 696l-6 11q-35 51 -79 79.5t-85 28.5q-53 0 -88 -34t-35 -85t35 -84.5t88 -33.5q46 0 86 27.5t84 90.5z" />
<glyph unicode="&#x222b;" d="M285 -283q62 -22 110 -22q53 0 80 26.5t33 83.5q2 23 2 156l2 1059q0 158 3.5 214.5t16.5 102.5q26 94 109 147.5t203 53.5q61 0 174 -22l-43 -207q-70 22 -109 22q-53 0 -80.5 -26.5t-33.5 -83.5q-2 -18 -2 -275v-940q0 -204 -12 -275t-54 -126q-87 -115 -272 -115 q-84 0 -170 21z" />
<glyph unicode="&#x2248;" d="M262 698l-129 86q63 149 131 210t172 61q73 0 215 -60q91 -36 121 -44.5t64 -8.5q52 0 85.5 24.5t71.5 92.5l133 -78q-41 -86 -70 -128t-69 -73q-79 -61 -180 -61q-38 0 -90 16t-205 76q-55 20 -94 20q-50 0 -84 -29t-72 -104zM262 303l-129 86q63 149 131 209.5 t172 60.5q73 0 215 -57q94 -36 123.5 -44.5t61.5 -8.5q52 0 85.5 24.5t71.5 90.5l133 -78q-41 -87 -70 -128.5t-69 -70.5q-79 -61 -180 -61q-37 0 -88 15.5t-207 74.5q-55 20 -94 20q-50 0 -84 -29t-72 -104z" />
<glyph unicode="&#x2260;" d="M330 244l65 133h-209v209h303l76 151h-379v209h473l113 223l148 -73l-74 -150h227v-209h-321l-76 -151h397v-209h-491l-105 -207z" />
<glyph unicode="&#x2264;" d="M186 719v196l887 418v-217l-641 -299l639 -299l2 -217zM186 33v209h887v-209h-887z" />
<glyph unicode="&#x2265;" d="M186 301v217l641 299l-639 299l-2 217l887 -418v-196zM186 33v209h887v-209h-887z" />
<glyph unicode="&#x2303;" horiz-adv-x="927" d="M229 961l-96 118l483 412l342 -412l-141 -118l-242 290z" />
<glyph unicode="&#x2325;" horiz-adv-x="1896" d="M1282 1206l-51 160h684l-29 -160h-604zM1124 0l-391 1206h-420l29 160h549l391 -1206h420l-29 -160h-549z" />
<glyph unicode="&#x25ca;" horiz-adv-x="1366" d="M684 -53l-532 735l532 737l530 -737zM684 129l403 553l-403 555l-403 -555z" />
<glyph unicode="&#x25fc;" horiz-adv-x="1013" d="M0 1014h1014v-1014h-1014v1014z" />
<glyph unicode="&#xe103;" horiz-adv-x="1103" d="M82 0l139 836h-127l29 182h137l6 18l25 82q46 154 139.5 225.5t251.5 71.5q58 0 123 -8l-33 -188q-62 6 -78 6q-59 0 -106 -29q-31 -20 -46 -48t-36 -101l-8 -29h215l-33 -182h-221l-135 -836h-242zM836 1126l41 244h235l-41 -244h-235zM647 0l170 1018h236l-170 -1018 h-236z" />
<glyph unicode="&#xe104;" horiz-adv-x="1103" d="M82 0l139 836h-127l29 182h137q56 222 150 309.5t278 87.5q58 0 115 -8l-31 -186q-77 6 -86 6q-103 0 -151 -94q-20 -47 -37 -115h215l-33 -182h-221l-135 -836h-242zM645 0l229 1370h236l-229 -1370h-236z" />
<glyph unicode="&#xe105;" horiz-adv-x="792" d="M117 547l22 139h228l82 490q-115 -68 -238 -68q-17 0 -27 2l23 135q228 18 328 150h112l-119 -709h230l-23 -139h-618z" />
<glyph unicode="&#xe107;" horiz-adv-x="792" d="M72 547l20 158q216 112 379 223q82 57 119 106t37 101t-38 86t-95 34q-69 0 -118 -44.5t-69 -127.5l-149 60q47 124 134.5 188t207.5 64q129 0 215 -74.5t86 -183.5q0 -86 -45.5 -152.5t-149.5 -130.5q-147 -91 -321 -164h473l-25 -143h-661z" />
<glyph unicode="&#xe108;" horiz-adv-x="792" d="M305 1135l-145 61q63 98 144 143t194 45q130 0 215.5 -63t85.5 -158q0 -137 -172 -192q62 -20 98.5 -71t36.5 -116q0 -113 -95.5 -184.5t-246.5 -71.5q-129 0 -214.5 59t-119.5 173l154 35q12 -63 62 -100.5t122 -37.5q73 0 120.5 37t47.5 94q0 33 -15.5 60t-41.5 39 q-18 10 -42 13t-83 3h-68l20 127h46q107 0 164 31t57 90q0 44 -38.5 73t-98.5 29q-62 0 -110.5 -30.5t-76.5 -87.5z" />
<glyph unicode="&#xf633;" horiz-adv-x="1501" d="M1266 229l53 -135q-128 -66 -243 -95.5t-249 -29.5q-235 0 -411 101q-157 92 -247.5 253.5t-90.5 350.5q0 150 58 284t157.5 230t238.5 152.5t295 56.5q141 0 266.5 -47t214.5 -128.5t141 -195.5t52 -242q0 -135 -53 -252.5t-143 -187.5t-193 -70q-60 0 -108 28.5 t-70 76.5q-86 -109 -211 -109q-127 0 -209 106t-82 269q0 183 97 299.5t249 116.5q136 0 205 -90l12 69h172l-75 -465q-11 -64 -11 -98q0 -63 62 -63q83 0 150 110.5t67 247.5q0 214 -153 353t-386 139q-162 0 -294.5 -76.5t-208.5 -210.5t-76 -297q0 -155 71 -286t195 -204 q133 -77 323 -77q120 0 210.5 24t224.5 92zM752 434q83 0 146 85t63 196q0 85 -44 132.5t-122 47.5q-86 0 -135.5 -68t-49.5 -188q0 -92 39.5 -148.5t102.5 -56.5z" />
<glyph unicode="&#xf6c3;" horiz-adv-x="1024" d="M461 -109h205l-217 -370h-93z" />
<glyph unicode="&#xf8ff;" horiz-adv-x="1638" d="M72 207v1329h1288q86 0 146.5 -60.5t60.5 -146.5v-1329h-1288q-86 0 -146.5 60.5t-60.5 146.5zM477 1286v-346q0 -70 37 -108.5t107 -38.5t106.5 38.5t36.5 108.5v346q0 71 -36.5 109.5t-106.5 38.5t-107 -38.5t-37 -109.5zM819 799h111v479q0 47 33 47q32 0 32 -47v-479 h111v491q0 140 -119 140q-12 0 -31 -5.5t-24 -15.5v18h-113v-628zM1190 940q0 -70 36.5 -108.5t106.5 -38.5t107 38.5t37 108.5v70h-111v-64q0 -47 -33 -47t-33 47v262h160v107h-162v112h-110v-112h-37v-107h39v-268zM188 799h111v211h121v123h-121v172h137v122h-248v-628z M653 1278v-332q0 -45 -32 -45q-33 0 -33 45v332q0 47 33 47q32 0 32 -47zM1077 250q0 -70 37 -109t107 -39t106.5 39t36.5 109v24h-111v-18q0 -45 -32 -45q-33 0 -33 45v80h176v260q0 71 -36.5 109t-106.5 38t-107 -38t-37 -109v-346zM184 268q0 -80 38.5 -123t111.5 -43 t111 48t38 135q0 51 -25 93t-110 101q-27 17 -40 34t-13 44q0 78 39 78q37 0 37 -66v-51h110v60q0 165 -147 165q-73 0 -112.5 -47.5t-39.5 -134.5q0 -25 4 -43.5t16.5 -43.5t41.5 -52t75 -57q26 -17 39 -33.5t13 -42.5q0 -78 -39 -78q-37 0 -37 65v21h-111v-29zM748 250 q0 -70 36.5 -109t106.5 -39t106.5 39t36.5 109v69h-110v-63q0 -45 -33 -45t-33 45v262h160v107h-162v112h-111v-112h-36v-107h39v-268zM545 612h110v125h-110v-125zM1188 430v158q0 47 33 47q32 0 32 -47v-158h-65zM545 109h110v440h-110v-440zM1446 109h12v55l19 -43h8 l18 43v-55h13v71h-17l-18 -43l-19 43h-16v-71zM1380 168h21v-59h12v59h21v12h-54v-12z" />
<glyph horiz-adv-x="507" d="M242 1135l41 243h233l-41 -243h-233zM51 0l170 1018h236l-170 -1018h-236z" />
<glyph horiz-adv-x="1624" d="M709 408l-23 -132q-22 -125 -125 -213t-227 -88q-109 0 -177.5 70.5t-68.5 177.5q0 147 102 246.5t248 99.5h137l41 228h-137q-110 0 -179 67t-69 172q0 140 108 247.5t245 107.5q109 0 179.5 -71.5t70.5 -178.5q0 -6 -5 -51l-22 -132h227l23 132q22 125 125 213t227 88 q109 0 177.5 -70.5t68.5 -177.5q0 -141 -106 -243.5t-244 -102.5h-138l-41 -228h138q110 0 178.5 -67t68.5 -172q0 -147 -103.5 -251t-248.5 -104q-109 0 -179.5 71.5t-70.5 176.5q0 35 4 53l23 132h-227zM1196 958h137q63 0 110.5 45.5t47.5 110.5q0 49 -30.5 82t-80.5 33 q-57 0 -104.5 -41t-56.5 -98zM508 958h137l23 132q0 4 1 11t1 11q0 50 -32.5 83.5t-82.5 33.5q-63 0 -111.5 -50.5t-48.5 -115.5q0 -46 31 -75.5t82 -29.5zM737 569h228l41 228h-228zM1098 408l-23 -132q-2 -8 -2 -24q0 -50 32 -82.5t83 -32.5q62 0 111 49.5t49 112.5 q0 48 -31 78.5t-82 30.5h-137zM547 408h-137q-64 0 -111 -46.5t-47 -111.5q0 -48 30 -80.5t80 -32.5q56 0 104 41t58 98z" />
</font>
</defs>
</svg>
