<?xml version="1.0" encoding="UTF-8" standalone="no"?>
<!DOCTYPE svg  PUBLIC '-//W3C//DTD SVG 1.1//EN'  'http://www.w3.org/Graphics/SVG/1.1/DTD/svg11.dtd'>
<svg xmlns="http://www.w3.org/2000/svg">
<defs>
<font id="DejaVuSansCondensed-Bold" horiz-adv-x="1544">
<font-face underline-position="-85" font-weight="700" descent="-410" panose-1="2 11 8 6 3 6 4 2 2 4" units-per-em="2048" unicode-range="U+0020-1F640" font-stretch="semi-condensed" bbox="-1971 -850 3640 2405" x-height="1120" underline-thickness="90" font-family="DejaVuSansCondensed" ascent="1638" cap-height="1493"/>
<missing-glyph d="M195 -248h716v1577h-716v-1577zM92 -362v1806h921v-1806h-921z" horiz-adv-x="1106"/>
<glyph glyph-name="uni0622" horiz-adv-x="631" unicode="آ" d="M-36 1817l149 123q95 -89 138 -99q70 -17 124 -18q64 0 117 21q105 41 176 112v-170q-56 -52 -162 -88q-76 -26 -136 -27q-90 0 -137 22q-52 24 -115 77l-154 -123v170zM155 1556h322v-1556h-322v1556z"/>
<glyph glyph-name="uni0623" horiz-adv-x="631" unicode="أ" d="M146 1708l70 18q-49 12 -63 45q-14 32 -14 69q0 109 50 154q43 40 161 40q59 0 115 -22v-125q-63 20 -115 20q-38 0 -55 -9q-26 -14 -26 -62q0 -52 57 -68q21 -6 48 -1l99 20v-129l-327 -77v127zM155 1556h322v-1556h-322v1556z"/>
<glyph glyph-name="uni0624" horiz-adv-x="1145" unicode="ؤ" d="M393 908l70 18q-49 12 -63 45q-14 32 -14 69q0 109 50 154q43 40 161 40q59 0 115 -22v-125q-63 20 -115 20q-38 0 -55 -9q-26 -14 -26 -62q0 -52 57 -68q21 -6 48 -1l99 20v-129l-327 -77v127zM674 325q-5 41 -48 80q-25 23 -58 23h-3q-38 -1 -64 -30q-27 -30 -27 -58 q0 -45 32 -64t63 -19h110q0 39 -5 68zM1008 156q0 -204 -80 -348q-84 -151 -282 -225q-221 -83 -722 -83v256q49 -2 95 -2q155 0 274 21q161 29 235 82q91 64 114 143q-28 0 -117 2q-201 5 -285 86q-88 84 -88 216q0 52 7 96q25 161 156 217q98 42 236 43q198 0 292.5 -57 t140.5 -209q24 -82 24 -238z"/>
<glyph glyph-name="uni0625" horiz-adv-x="631" unicode="إ" d="M148 -373l70 18q-49 12 -63 45q-14 32 -14 69q0 109 50 154q43 40 161 40q59 0 115 -22v-125q-63 20 -115 20q-38 0 -55 -9q-26 -14 -26 -62q0 -52 57 -68q21 -6 48 -1l99 20v-129l-327 -77v127zM155 1556h322v-1556h-322v1556z"/>
<glyph glyph-name="uni0626" horiz-adv-x="1689" unicode="ئ" d="M325 908l70 18q-49 12 -63 45q-14 32 -14 69q0 109 50 154q43 40 161 40q59 0 115 -22v-125q-63 20 -115 20q-38 0 -55 -9q-26 -14 -26 -62q0 -52 57 -68q21 -6 48 -1l99 20v-129l-327 -77v127zM1476 65q-80 -157 -443 -243q-177 -41 -302 -41h-18q-260 0 -332 29 q-264 106 -264 370q0 135 57 225h322q-59 -95 -59 -215v-15q3 -78 117 -121q46 -17 159 -17q132 0 252 35q222 66 224 160q1 96 -111 138q-161 61 -162 61q-65 32 -112 78q-59 58 -59 174q0 166 171 222q126 41 254 41q155 0 250 -46q147 -71 171 -253h-286q-20 68 -120 68 h-3q-82 -1 -103 -30q-23 -33 -22 -43q2 -36 112 -66q195 -53 275 -165q69 -97 69 -199q0 -73 -37 -147z"/>
<glyph glyph-name="uniFB00" horiz-adv-x="1493" unicode="ff" d="M818 1556v-235h-178q-68 0 -96 -27q-26 -28 -26 -96v-78h368v78q0 183 92 270q92 88 285 88h246v-235h-178q-68 0 -95 -27q-27 -28 -27 -96v-78h275v-256h-275v-864h-323v864h-368v-864h-323v864h-160v256h160v78q0 183 92 270q92 88 285 88h246z"/>
<glyph glyph-name="fi" horiz-adv-x="1366" unicode="fi" d="M820 1556v-235h-178q-68 1 -94 -27t-26 -96v-78h689v-1120h-325v864h-364v-864h-325v864h-158v256h158v78q0 182 92 270t284 88h247zM886 1556h325v-292h-325v292z"/>
<glyph glyph-name="fl" horiz-adv-x="1366" unicode="fl" d="M572 1556h639v-1556h-325v1321h-246q-68 1 -95 -27t-27 -96v-78h252v-256h-252v-864h-323v864h-160v256h160v78q0 182 92 270t285 88z"/>
<glyph glyph-name="uniFB03" horiz-adv-x="2055" unicode="ffi" d="M1576 1556h325v-292h-325v292zM818 1556v-235h-178q-68 0 -96 -27q-26 -28 -26 -96v-78h368v78q0 183 92 270q92 88 285 88h246v-235h-178q-67 0 -93 -27q-27 -28 -27 -96v-78h690v-1120h-325v864h-365v-864h-2h-323v864h-368v-864h-323v864h-160v256h160v78 q0 183 92 270q92 88 285 88h246z"/>
<glyph glyph-name="uniFB04" horiz-adv-x="2057" unicode="ffl" d="M818 1556v-235h-178q-68 0 -96 -27q-26 -28 -26 -96v-78h368v78q0 183 92 270q92 88 285 88h640v-1556h-325v1321h-247q-68 0 -95 -27q-27 -28 -27 -96v-78h253v-256h-253v-864h-323v864h-368v-864h-323v864h-160v256h160v78q0 183 92 270q92 88 285 88h246z"/>
<glyph arabic-form="isolated" glyph-name="uniFE70" horiz-adv-x="630" unicode=" ً" d="M52 1210v140l526 130v-140zM52 1420v140l526 130v-140z"/>
<glyph arabic-form="medial" glyph-name="uniFE71" horiz-adv-x="630" unicode="ـً" d="M52 1210v140l526 130v-140zM52 1420v140l526 130v-140zM-18 0v256h666v-256h-666z"/>
<glyph arabic-form="isolated" glyph-name="uniFE72" horiz-adv-x="630" unicode=" ٌ" d="M394 1562q8 10 12 20q9 23 9 36q0 11 -9 29q-7 14 -29 14q-10 0 -20 -9q-16 -13 -16 -32q0 -25 30 -46q12 -8 23 -12zM310 1409l27 43q-14 4 -47 28q-75 58 -75 149q0 100 59 142q49 34 96 34h3q68 -2 116 -52q53 -56 53 -136q0 -45 -16 -75l28 -2l24 -2v-130 q-47 0 -61 2l-44 5q-16 -47 -84 -120q-78 -85 -171 -85q-105 0 -155 154q-11 33 -11 154h126q0 -97 11 -123q19 -45 33 -45q50 0 88 59z"/>
<glyph arabic-form="isolated" glyph-name="uniFE74" horiz-adv-x="630" unicode=" ٍ" d="M52 -280v140l526 130v-140zM52 -490v140l526 130v-140z"/>
<glyph arabic-form="isolated" glyph-name="uniFE76" horiz-adv-x="630" unicode=" َ" d="M52 1210v140l526 130v-140z"/>
<glyph arabic-form="medial" glyph-name="uniFE77" horiz-adv-x="630" unicode="ـَ" d="M52 1210v140l526 130v-140zM-18 0v256h666v-256h-666z"/>
<glyph arabic-form="isolated" glyph-name="uniFE78" horiz-adv-x="630" unicode=" ُ" d="M397 1566q5 7 9 16q9 23 9 36q0 11 -9 29q-7 14 -29 14q-10 0 -20 -9q-16 -13 -16 -32q0 -24 30 -46q9 -7 26 -8zM320 1467q-19 4 -30 13q-75 56 -75 149q0 100 59 142q49 34 96 34h3q68 -2 116 -52q53 -56 53 -136q0 -45 -16 -75l28 -2l24 -2v-130q-32 0 -61 2 q-37 2 -58 5q-40 -52 -92 -92q-147 -115 -294 -115q-11 0 -21 1v140q126 0 226 79q11 8 42 39z"/>
<glyph arabic-form="medial" glyph-name="uniFE79" horiz-adv-x="630" unicode="ـُ" d="M397 1566q5 7 9 16q9 23 9 36q0 11 -9 29q-7 14 -29 14q-10 0 -20 -9q-16 -13 -16 -32q0 -24 30 -46q9 -7 26 -8zM320 1467q-19 4 -30 13q-75 56 -75 149q0 100 59 142q49 34 96 34h3q68 -2 116 -52q53 -56 53 -136q0 -45 -16 -75l28 -2l24 -2v-130q-32 0 -61 2 q-37 2 -58 5q-40 -52 -92 -92q-147 -115 -294 -115q-11 0 -21 1v140q126 0 226 79q11 8 42 39zM-18 0v256h666v-256h-666z"/>
<glyph arabic-form="isolated" glyph-name="uniFE7A" horiz-adv-x="630" unicode=" ِ" d="M52 -280v140l526 130v-140z"/>
<glyph arabic-form="medial" glyph-name="uniFE7B" horiz-adv-x="630" unicode="ـِ" d="M52 -280v140l526 130v-140zM-18 0v256h666v-256h-666z"/>
<glyph arabic-form="isolated" glyph-name="uniFE7C" horiz-adv-x="630" unicode=" ّ" d="M329 1412q-15 -81 -40 -116q-52 -68 -116 -69h-5q-83 0 -122 63q-30 50 -30 161q0 109 14 207h119q-10 -115 -10 -171v-10q1 -49 23 -97q12 -27 44 -5q41 26 45 173q2 82 2 171h122v-15q0 -32 3 -75q9 -174 61 -174h1q54 1 54 153q0 115 -12 172h120q11 -63 11 -159v-30 q-3 -133 -25 -187q-32 -85 -132 -99q-14 -2 -26 -2q-44 0 -66 26q-24 30 -35 83z"/>
<glyph arabic-form="medial" glyph-name="uniFE7D" horiz-adv-x="630" unicode="ـّ" d="M329 1412q-15 -81 -40 -116q-52 -68 -116 -69h-5q-83 0 -122 63q-30 50 -30 161q0 109 14 207h119q-10 -115 -10 -171v-10q1 -49 23 -97q12 -27 44 -5q41 26 45 173q2 82 2 171h122v-15q0 -32 3 -75q9 -174 61 -174h1q54 1 54 153q0 115 -12 172h120q11 -63 11 -159v-30 q-3 -133 -25 -187q-32 -85 -132 -99q-14 -2 -26 -2q-44 0 -66 26q-24 30 -35 83zM-18 0v256h666v-256h-666z"/>
<glyph arabic-form="isolated" glyph-name="uniFE7E" horiz-adv-x="630" unicode=" ْ" d="M560 1524q0 -115 -72 -195t-175 -80t-175 80t-72 195t72 194.5t175 79.5t175 -79.5t72 -194.5zM411 1524q0 45 -28.5 77t-69.5 32q-42 0 -70 -31.5t-28 -77.5q0 -47 28 -78.5t70 -31.5q41 0 69.5 32t28.5 78z"/>
<glyph arabic-form="medial" glyph-name="uniFE7F" horiz-adv-x="630" unicode="ـْ" d="M560 1524q0 -115 -72 -195t-175 -80t-175 80t-72 195t72 194.5t175 79.5t175 -79.5t72 -194.5zM411 1524q0 45 -28.5 77t-69.5 32q-42 0 -70 -31.5t-28 -77.5q0 -47 28 -78.5t70 -31.5q41 0 69.5 32t28.5 78zM-18 0v256h666v-256h-666z"/>
<glyph arabic-form="isolated" glyph-name="uniFEF5" horiz-adv-x="1372" unicode="ﻟﺂ" d="M-113 1667l149 123q95 -89 138 -99q70 -17 124 -18q64 0 117 21q105 41 176 112v-170q-56 -52 -162 -88q-76 -26 -136 -27q-90 0 -137 22q-52 24 -115 77l-154 -123v170zM1184 834q0 -303 -125 -518q-52 -91 -119 -156q-197 -190 -581 -190q-134 0 -229 42v244 q91 -36 223 -36h7q96 1 166 45l-450 1145h325l384 -959q26 43 44 98q33 137 33 321v686h322v-722z"/>
<glyph arabic-form="final" glyph-name="uniFEF6" horiz-adv-x="1399" unicode="ﻠﺂ" d="M-113 1667l149 123q95 -89 138 -99q70 -17 124 -18q64 0 117 21q105 41 176 112v-170q-56 -52 -162 -88q-76 -26 -136 -27q-90 0 -137 22q-52 24 -115 77l-154 -123v170zM904 131q-186 -161 -545 -161q-134 0 -229 42v244q91 -36 223 -36h7q96 1 166 45l-450 1145h325 l384 -959q26 43 44 98q33 137 33 321v686h322v-1101q0 -106 44 -155q40 -44 101 -44h89v-256h-322q-102 0 -151 63q-34 42 -41 68z"/>
<glyph arabic-form="isolated" glyph-name="uniFEF7" horiz-adv-x="1372" unicode="ﻟﺄ" d="M69 1608l70 18q-49 12 -63 45q-14 32 -14 69q0 109 50 154q43 40 161 40q59 0 115 -22v-125q-63 20 -115 20q-38 0 -55 -9q-26 -14 -26 -62q0 -52 57 -68q21 -6 48 -1l99 20v-129l-327 -77v127zM1184 834q0 -303 -125 -518q-52 -91 -119 -156q-197 -190 -581 -190 q-134 0 -229 42v244q91 -36 223 -36h7q96 1 166 45l-450 1145h325l384 -959q26 43 44 98q33 137 33 321v686h322v-722z"/>
<glyph arabic-form="final" glyph-name="uniFEF8" horiz-adv-x="1399" unicode="ﻠﺄ" d="M69 1608l70 18q-49 12 -63 45q-14 32 -14 69q0 109 50 154q43 40 161 40q59 0 115 -22v-125q-63 20 -115 20q-38 0 -55 -9q-26 -14 -26 -62q0 -52 57 -68q21 -6 48 -1l99 20v-129l-327 -77v127zM904 131q-186 -161 -545 -161q-134 0 -229 42v244q91 -36 223 -36h7 q96 1 166 45l-450 1145h325l384 -959q26 43 44 98q33 137 33 321v686h322v-1101q0 -106 44 -155q40 -44 101 -44h89v-256h-322q-102 0 -151 63q-34 42 -41 68z"/>
<glyph arabic-form="isolated" glyph-name="uniFEF9" horiz-adv-x="1372" unicode="ﻟﺈ" d="M1184 834q0 -303 -125 -518q-52 -91 -119 -156q-197 -190 -581 -190q-134 0 -229 42v244q91 -36 223 -36h7q96 1 166 45l-450 1145h325l384 -959q26 43 44 98q33 137 33 321v686h322v-722zM147 -373l70 18q-49 12 -63 45q-14 32 -14 69q0 109 50 154q43 40 161 40 q59 0 115 -22v-125q-63 20 -115 20q-38 0 -55 -9q-26 -14 -26 -62q0 -52 57 -68q21 -6 48 -1l99 20v-129l-327 -77v127z"/>
<glyph arabic-form="final" glyph-name="uniFEFA" horiz-adv-x="1399" unicode="ﻠﺈ" d="M147 -373l70 18q-49 12 -63 45q-14 32 -14 69q0 109 50 154q43 40 161 40q59 0 115 -22v-125q-63 20 -115 20q-38 0 -55 -9q-26 -14 -26 -62q0 -52 57 -68q21 -6 48 -1l99 20v-129l-327 -77v127zM904 131q-186 -161 -545 -161q-134 0 -229 42v244q91 -36 223 -36h7 q96 1 166 45l-450 1145h325l384 -959q26 43 44 98q33 137 33 321v686h322v-1101q0 -106 44 -155q40 -44 101 -44h89v-256h-322q-102 0 -151 63q-34 42 -41 68z"/>
<glyph arabic-form="isolated" glyph-name="uniFEFB" horiz-adv-x="1372" unicode="ﻟﺎ" d="M1184 834q0 -303 -125 -518q-52 -91 -119 -156q-197 -190 -581 -190q-134 0 -229 42v244q91 -36 223 -36h7q96 1 166 45l-450 1145h325l384 -959q26 43 44 98q33 137 33 321v686h322v-722z"/>
<glyph arabic-form="final" glyph-name="uniFEFC" horiz-adv-x="1399" unicode="ﻠﺎ" d="M904 131q-186 -161 -545 -161q-134 0 -229 42v244q91 -36 223 -36h7q96 1 166 45l-450 1145h325l384 -959q26 43 44 98q33 137 33 321v686h322v-1101q0 -106 44 -155q40 -44 101 -44h89v-256h-322q-102 0 -151 63q-34 42 -41 68z"/>
<glyph glyph-name="uni0651064B" horiz-adv-x="0" unicode="ًّ" d="M475 1412q-15 -81 -40 -116q-52 -68 -116 -69h-5q-83 0 -122 63q-30 50 -30 161q0 109 14 207h119q-10 -115 -10 -171v-10q1 -49 23 -97q12 -27 44 -5q41 26 45 173q2 82 2 171h122v-15q0 -32 3 -75q9 -174 61 -174h1q54 1 54 153q0 115 -12 172h120q11 -63 11 -159v-30 q-3 -133 -25 -187q-32 -85 -132 -99q-14 -2 -26 -2q-44 0 -66 26q-24 30 -35 83zM198 1810v140l526 130v-140zM198 2020v140l526 130v-140z"/>
<glyph glyph-name="uni0651064C" horiz-adv-x="0" unicode="ٌّ" d="M475 1412q-15 -81 -40 -116q-52 -68 -116 -69h-5q-83 0 -122 63q-30 50 -30 161q0 109 14 207h119q-10 -115 -10 -171v-10q1 -49 23 -97q12 -27 44 -5q41 26 45 173q2 82 2 171h122v-15q0 -32 3 -75q9 -174 61 -174h1q54 1 54 153q0 115 -12 172h120q11 -63 11 -159v-30 q-3 -133 -25 -187q-32 -85 -132 -99q-14 -2 -26 -2q-44 0 -66 26q-24 30 -35 83zM540 2162q8 10 12 20q9 23 9 36q0 11 -9 29q-7 14 -29 14q-10 0 -20 -9q-16 -13 -16 -32q0 -25 30 -46q12 -8 23 -12zM456 2009l27 43q-14 4 -47 28q-75 58 -75 149q0 100 59 142q49 34 96 34 h3q68 -2 116 -52q53 -56 53 -136q0 -45 -16 -75l28 -2l24 -2v-130q-47 0 -61 2l-44 5q-16 -47 -84 -120q-78 -85 -171 -85q-105 0 -155 154q-11 33 -11 154h126q0 -97 11 -123q19 -45 33 -45q50 0 88 59z"/>
<glyph glyph-name="uni064B0651" horiz-adv-x="0" unicode="ٍّ" d="M198 1210v140l526 130v-140zM198 1420v140l526 130v-140zM475 1912q-15 -81 -40 -116q-52 -68 -116 -69h-5q-83 0 -122 63q-30 50 -30 161q0 109 14 207h119q-10 -115 -10 -171v-10q1 -49 23 -97q12 -27 44 -5q41 26 45 173q2 82 2 171h122v-15q0 -32 3 -75 q9 -174 61 -174h1q54 1 54 153q0 115 -12 172h120q11 -63 11 -159v-30q-3 -133 -25 -187q-32 -85 -132 -99q-14 -2 -26 -2q-44 0 -66 26q-24 30 -35 83z"/>
<glyph glyph-name="uni0651064E" horiz-adv-x="0" unicode="َّ" d="M475 1412q-15 -81 -40 -116q-52 -68 -116 -69h-5q-83 0 -122 63q-30 50 -30 161q0 109 14 207h119q-10 -115 -10 -171v-10q1 -49 23 -97q12 -27 44 -5q41 26 45 173q2 82 2 171h122v-15q0 -32 3 -75q9 -174 61 -174h1q54 1 54 153q0 115 -12 172h120q11 -63 11 -159v-30 q-3 -133 -25 -187q-32 -85 -132 -99q-14 -2 -26 -2q-44 0 -66 26q-24 30 -35 83zM198 1810v140l526 130v-140z"/>
<glyph glyph-name="uni0651064F" horiz-adv-x="0" unicode="ُّ" d="M475 1412q-15 -81 -40 -116q-52 -68 -116 -69h-5q-83 0 -122 63q-30 50 -30 161q0 109 14 207h119q-10 -115 -10 -171v-10q1 -49 23 -97q12 -27 44 -5q41 26 45 173q2 82 2 171h122v-15q0 -32 3 -75q9 -174 61 -174h1q54 1 54 153q0 115 -12 172h120q11 -63 11 -159v-30 q-3 -133 -25 -187q-32 -85 -132 -99q-14 -2 -26 -2q-44 0 -66 26q-24 30 -35 83zM543 2166q5 7 9 16q9 23 9 36q0 11 -9 29q-7 14 -29 14q-10 0 -20 -9q-16 -13 -16 -32q0 -24 30 -46q9 -7 26 -8zM466 2067q-19 4 -30 13q-75 56 -75 149q0 100 59 142q49 34 96 34h3 q68 -2 116 -52q53 -56 53 -136q0 -45 -16 -75l28 -2l24 -2v-130q-32 0 -61 2q-37 2 -58 5q-40 -52 -92 -92q-147 -115 -294 -115q-11 0 -21 1v140q126 0 226 79q11 8 42 39z"/>
<glyph glyph-name="uni064E0651" horiz-adv-x="0" unicode="ِّ" d="M198 1210v140l526 130v-140zM475 1712q-15 -81 -40 -116q-52 -68 -116 -69h-5q-83 0 -122 63q-30 50 -30 161q0 109 14 207h119q-10 -115 -10 -171v-10q1 -49 23 -97q12 -27 44 -5q41 26 45 173q2 82 2 171h122v-15q0 -32 3 -75q9 -174 61 -174h1q54 1 54 153 q0 115 -12 172h120q11 -63 11 -159v-30q-3 -133 -25 -187q-32 -85 -132 -99q-14 -2 -26 -2q-44 0 -66 26q-24 30 -35 83z"/>
<glyph glyph-name="uni0654064E" horiz-adv-x="0" unicode="َٔ" d="M291 1358l70 18q-49 12 -63 45q-14 32 -14 69q0 109 50 154q43 40 161 40q59 0 115 -22v-125q-63 20 -115 20q-38 0 -55 -9q-26 -14 -26 -62q0 -52 57 -68q21 -6 48 -1l99 20v-129l-327 -77v127zM198 1710v140l526 130v-140z"/>
<glyph glyph-name="uni0654064F" horiz-adv-x="0" unicode="ُٔ" d="M291 1358l70 18q-49 12 -63 45q-14 32 -14 69q0 109 50 154q43 40 161 40q59 0 115 -22v-125q-63 20 -115 20q-38 0 -55 -9q-26 -14 -26 -62q0 -52 57 -68q21 -6 48 -1l99 20v-129l-327 -77v127zM543 2066q5 7 9 16q9 23 9 36q0 11 -9 29q-7 14 -29 14q-10 0 -20 -9 q-16 -13 -16 -32q0 -24 30 -46q9 -7 26 -8zM466 1967q-19 4 -30 13q-75 56 -75 149q0 100 59 142q49 34 96 34h3q68 -2 116 -52q53 -56 53 -136q0 -45 -16 -75l28 -2l24 -2v-130q-32 0 -61 2q-37 2 -58 5q-40 -52 -92 -92q-147 -115 -294 -115q-11 0 -21 1v140q126 0 226 79 q11 8 42 39z"/>
<glyph glyph-name="uni066E.init" horiz-adv-x="692" unicode="ٮ" d="M537 371q0 -182 -61 -279q-58 -92 -173 -92h-321v256h88q61 0 101 44q44 49 44 155v145h322v-229z"/>
<glyph glyph-name="uni066E.medi" horiz-adv-x="752" unicode="ٮ" d="M770 0h-226q-98 0 -168 109q-69 -109 -168 -109h-226v256h88q61 0 101 44q44 49 44 155v145h322v-145q0 -106 44 -155q40 -44 101 -44h88v-256z"/>
<glyph glyph-name="uni066E.fina" horiz-adv-x="1951" unicode="ٮ" d="M1517 162q-39 -52 -180 -93q-262 -77 -599 -79h-14q-201 0 -310 28q-297 77 -297 370q0 135 57 225h322q-46 -94 -46 -184q0 -91 170 -157q65 -25 140 -25q185 0 325 47q219 73 263 159q38 74 38 143q0 37 -11 73h322q15 -75 15 -120q0 -147 48 -224q46 -69 142 -69h67 v-256h-117q-243 0 -335 162z"/>
<glyph glyph-name="uni066F.init" horiz-adv-x="1206" unicode="ٯ" d="M572 0h-590v256h518q54 0 87 9q74 20 94 89q-1 -5 -81 -5h-29q-211 0 -284 71q-88 84 -88 216q0 52 7 96q25 161 156 217q98 42 236 43h7q205 0 298 -57q72 -45 127 -209q30 -89 30 -262q0 -151 -102 -311q-42 -66 -170 -117q-90 -36 -216 -36zM688 591q33 28 33 66 q0 59 -45 88q-24 15 -59 15h-5q-42 0 -68 -29q-23 -26 -23 -75q0 -40 32 -69q19 -18 63 -18q46 0 72 22z"/>
<glyph glyph-name="uni066F.medi" horiz-adv-x="1326" unicode="ٯ" d="M663 416q124 52 124 156q0 78 -42 133q-22 30 -81.5 30t-82.5 -30q-41 -55 -41 -133q0 -104 123 -156zM663.5 992q178.5 0 304.5 -66q79 -41 126 -158q32 -81 32 -236q0 -126 -150 -256q150 -20 326 -20h43v-256h-97q-173 0 -316 15q-177 19 -269 69q-91 -50 -268 -69 q-143 -15 -317 -15h-96v256h42q177 0 327 20q-150 130 -150 256q0 155 32 236q47 117 125 158q127 66 305.5 66z"/>
<glyph glyph-name="uni066F.fina" horiz-adv-x="1661" unicode="ٯ" d="M1498 0q-18 -110 -81 -212q-86 -131 -243 -193q-242 -95 -525 -95h-23q-344 3 -460 192q-70 113 -70 223q0 10 1 20q7 120 42 165h322q-48 -45 -48 -109q0 -58 10 -86q54 -149 207 -149q238 0 390 98q97 64 120 146q-20 0 -109 2q-201 5 -284 86q-88 84 -88 216 q0 52 7 96q25 161 156 217q98 42 236 43h7q214 0 298 -57q80 -55 127 -209q18 -57 25 -138h164v-256h-181zM1181 325q-6 41 -48 80q-25 23 -58 23h-3q-38 -1 -64 -30q-27 -30 -27 -58q0 -45 31 -64q33 -19 64 -19h109q0 39 -4 68z"/>
<glyph glyph-name="uni067C.init" horiz-adv-x="692" unicode="ټ" d="M573 -80q0 -92 -56 -156q-58 -64 -141 -64t-139 64q-58 64 -58 156t58 156q56 63 139 63t141 -63q56 -64 56 -156zM455 -80q0 36 -23 62q-23 25 -56 25t-55.5 -25t-22.5 -62q0 -38 22.5 -63t55.5 -25t56 26q23 25 23 62zM196 1000h135v-150h-135v150zM421 1000h135v-150 h-135v150zM537 371q0 -182 -61 -279q-58 -92 -173 -92h-321v256h88q61 0 101 44q44 49 44 155v145h322v-229z"/>
<glyph glyph-name="uni067C.medi" horiz-adv-x="752" unicode="ټ" d="M573 -30q0 -92 -56 -156q-58 -64 -141 -64t-139 64q-58 64 -58 156t58 156q56 63 139 63t141 -63q56 -64 56 -156zM455 -30q0 36 -23 62q-23 25 -56 25t-55.5 -25t-22.5 -62q0 -38 22.5 -63t55.5 -25t56 26q23 25 23 62zM196 1000h135v-150h-135v150zM421 1000h135v-150 h-135v150zM770 0h-226q-98 0 -168 109q-69 -109 -168 -109h-226v256h88q61 0 101 44q44 49 44 155v145h322v-145q0 -106 44 -155q40 -44 101 -44h88v-256z"/>
<glyph glyph-name="uni067C.fina" horiz-adv-x="1951" unicode="ټ" d="M698 850h135v-150h-135v150zM923 850h135v-150h-135v150zM1517 162q-39 -52 -180 -93q-262 -77 -599 -79h-14q-201 0 -310 28q-297 77 -297 370q0 135 57 225h322q-46 -94 -46 -184q0 -91 170 -157q65 -25 140 -25q185 0 325 47q219 73 263 159q38 74 38 143q0 37 -11 73 h322q15 -75 15 -120q0 -147 48 -224q46 -69 142 -69h67v-256h-117q-243 0 -335 162zM1074 -130q0 -92 -56 -156q-58 -64 -141 -64t-139 64q-58 64 -58 156t58 156q56 63 139 63t141 -63q56 -64 56 -156zM956 -130q0 36 -23 62q-23 25 -56 25t-55.5 -25t-22.5 -62 q0 -38 22.5 -63t55.5 -25t56 26q23 25 23 62z"/>
<glyph glyph-name="uni067D.init" horiz-adv-x="692" unicode="ٽ" d="M196 1310h135v-150h-135v150zM421 1310h135v-150h-135v150zM308 1060h136v-150h-136v150zM537 371q0 -182 -61 -279q-58 -92 -173 -92h-321v256h88q61 0 101 44q44 49 44 155v145h322v-229z"/>
<glyph glyph-name="uni067D.medi" horiz-adv-x="752" unicode="ٽ" d="M196 1310h135v-150h-135v150zM421 1310h135v-150h-135v150zM308 1060h136v-150h-136v150zM770 0h-226q-98 0 -168 109q-69 -109 -168 -109h-226v256h88q61 0 101 44q44 49 44 155v145h322v-145q0 -106 44 -155q40 -44 101 -44h88v-256z"/>
<glyph glyph-name="uni067D.fina" horiz-adv-x="1951" unicode="ٽ" d="M698 1160h135v-150h-135v150zM923 1160h135v-150h-135v150zM810 910h136v-150h-136v150zM1517 162q-39 -52 -180 -93q-262 -77 -599 -79h-14q-201 0 -310 28q-297 77 -297 370q0 135 57 225h322q-46 -94 -46 -184q0 -91 170 -157q65 -25 140 -25q185 0 325 47 q219 73 263 159q38 74 38 143q0 37 -11 73h322q15 -75 15 -120q0 -147 48 -224q46 -69 142 -69h67v-256h-117q-243 0 -335 162z"/>
<glyph glyph-name="uni0681.init" horiz-adv-x="1328" unicode="ځ" d="M505 1058l70 18q-49 12 -63 45q-14 32 -14 69q0 109 50 154q43 40 161 40q59 0 115 -22v-125q-63 20 -115 20q-38 0 -55 -9q-26 -14 -26 -62q0 -52 57 -68q21 -6 48 -1l99 20v-129l-327 -77v127zM780 504q-67 25 -169 40q-84 12 -223 25q-24 2 -61 2q-61 0 -158 -6v256 q65 7 133 8q217 0 389 -35q251 -50 467 -122v-256q-82 -32 -183 -98q-117 -76 -238 -168q-103 -79 -294 -116q-174 -34 -346 -34h-115v256h90q186 0 310 34q128 36 226 105q87 61 172 109z"/>
<glyph glyph-name="uni0681.medi" horiz-adv-x="1328" unicode="ځ" d="M505 1058l70 18q-49 12 -63 45q-14 32 -14 69q0 109 50 154q43 40 161 40q59 0 115 -22v-125q-63 20 -115 20q-38 0 -55 -9q-26 -14 -26 -62q0 -52 57 -68q21 -6 48 -1l99 20v-129l-327 -77v127zM900 269q-74 -59 -163 -119q-123 -83 -294 -116q-175 -34 -346 -34h-115 v256h90q186 0 310 34q128 36 226 105q87 61 172 109q-67 25 -169 40q-84 12 -223 25q-24 2 -61 2q-61 0 -158 -6v256q65 7 133 8q217 0 389 -35q251 -50 467 -122v-256l-42 -18q20 -49 40 -74q53 -68 131 -68h59v-256h-77q-183 0 -280 117q-47 57 -89 152z"/>
<glyph glyph-name="uni0681.fina" horiz-adv-x="1328" unicode="ځ" d="M460 1158l70 18q-49 12 -63 45q-14 32 -14 69q0 109 50 154q43 40 161 40q59 0 115 -22v-125q-63 20 -115 20q-38 0 -55 -9q-26 -14 -26 -62q0 -52 57 -68q21 -6 48 -1l99 20v-129l-327 -77v127zM1091 578q0 -60 65 -203q56 -119 131 -119h59v-256h-77q-142 0 -251 149 q-64 88 -118 212q-45 107 -61 179q-98 -35 -173 -102q-183 -163 -183 -363q0 -121 93 -227q81 -92 294 -92q271 0 457 153v-275q-148 -134 -452 -134q-393 1 -573 199q-141 154 -141 376q0 179 126 350q92 125 270 203h-21q-72 0 -188 -17q-121 -19 -207 -60v256 q245 63 424 63q317 0 578 -38v-256q-12 1 -24 1q-14 1 -28 1z"/>
<glyph glyph-name="uni0682.init" horiz-adv-x="1328" unicode="ڂ" d="M603 1410h135v-150h-135v150zM603 1160h135v-150h-135v150zM780 504q-67 25 -169 40q-84 12 -223 25q-24 2 -61 2q-61 0 -158 -6v256q65 7 133 8q217 0 389 -35q251 -50 467 -122v-256q-82 -32 -183 -98q-117 -76 -238 -168q-103 -79 -294 -116q-174 -34 -346 -34h-115 v256h90q186 0 310 34q128 36 226 105q87 61 172 109z"/>
<glyph glyph-name="uni0682.medi" horiz-adv-x="1328" unicode="ڂ" d="M603 1410h135v-150h-135v150zM603 1160h135v-150h-135v150zM900 269q-74 -59 -163 -119q-123 -83 -294 -116q-175 -34 -346 -34h-115v256h90q186 0 310 34q128 36 226 105q87 61 172 109q-67 25 -169 40q-84 12 -223 25q-24 2 -61 2q-61 0 -158 -6v256q65 7 133 8 q217 0 389 -35q251 -50 467 -122v-256l-42 -18q20 -49 40 -74q53 -68 131 -68h59v-256h-77q-183 0 -280 117q-47 57 -89 152z"/>
<glyph glyph-name="uni0682.fina" horiz-adv-x="1328" unicode="ڂ" d="M558 1510h135v-150h-135v150zM558 1260h135v-150h-135v150zM1091 578q0 -60 65 -203q56 -119 131 -119h59v-256h-77q-142 0 -251 149q-64 88 -118 212q-45 107 -61 179q-98 -35 -173 -102q-183 -163 -183 -363q0 -121 93 -227q81 -92 294 -92q271 0 457 153v-275 q-148 -134 -452 -134q-393 1 -573 199q-141 154 -141 376q0 179 126 350q92 125 270 203h-21q-72 0 -188 -17q-121 -19 -207 -60v256q245 63 424 63q317 0 578 -38v-256q-12 1 -24 1q-14 1 -28 1z"/>
<glyph glyph-name="uni0685.init" horiz-adv-x="1328" unicode="څ" d="M495 1160h135v-150h-135v150zM720 1160h135v-150h-135v150zM607 1410h136v-150h-136v150zM780 504q-67 25 -169 40q-84 12 -223 25q-24 2 -61 2q-61 0 -158 -6v256q65 7 133 8q217 0 389 -35q251 -50 467 -122v-256q-82 -32 -183 -98q-117 -76 -238 -168 q-103 -79 -294 -116q-174 -34 -346 -34h-115v256h90q186 0 310 34q128 36 226 105q87 61 172 109z"/>
<glyph glyph-name="uni0685.medi" horiz-adv-x="1328" unicode="څ" d="M495 1160h135v-150h-135v150zM720 1160h135v-150h-135v150zM607 1410h136v-150h-136v150zM900 269q-74 -59 -163 -119q-123 -83 -294 -116q-175 -34 -346 -34h-115v256h90q186 0 310 34q128 36 226 105q87 61 172 109q-67 25 -169 40q-84 12 -223 25q-24 2 -61 2 q-61 0 -158 -6v256q65 7 133 8q217 0 389 -35q251 -50 467 -122v-256l-42 -18q20 -49 40 -74q53 -68 131 -68h59v-256h-77q-183 0 -280 117q-47 57 -89 152z"/>
<glyph glyph-name="uni0685.fina" horiz-adv-x="1328" unicode="څ" d="M450 1260h135v-150h-135v150zM675 1260h135v-150h-135v150zM562 1510h136v-150h-136v150zM1091 578q0 -60 65 -203q56 -119 131 -119h59v-256h-77q-142 0 -251 149q-64 88 -118 212q-45 107 -61 179q-98 -35 -173 -102q-183 -163 -183 -363q0 -121 93 -227 q81 -92 294 -92q271 0 457 153v-275q-148 -134 -452 -134q-393 1 -573 199q-141 154 -141 376q0 179 126 350q92 125 270 203h-21q-72 0 -188 -17q-121 -19 -207 -60v256q245 63 424 63q317 0 578 -38v-256q-12 1 -24 1q-14 1 -28 1z"/>
<glyph glyph-name="uni0689.fina" horiz-adv-x="1064" unicode="ډ" d="M829 474q24 -111 81 -174q40 -44 105 -44h68v-256h-117q-164 0 -213 105q-112 -105 -335 -136q-53 -7 -101 -7q-112 0 -205 38v255q97 -42 174 -42q35 0 66 9q157 45 180 127q6 23 6 51q0 74 -47 175q-56 121 -196 275h332q117 -164 143 -215q41 -82 59 -161zM701 -148 q0 -92 -56 -156q-58 -64 -141 -64t-139 64q-58 64 -58 156t58 156q56 63 139 63t141 -63q56 -64 56 -156zM583 -148q0 36 -23 62q-23 25 -56 25t-55.5 -25t-22.5 -62q0 -38 22.5 -63t55.5 -25t56 26q23 25 23 62z"/>
<glyph glyph-name="uni068A.fina" horiz-adv-x="1064" unicode="ڊ" d="M829 474q24 -111 81 -174q40 -44 105 -44h68v-256h-117q-164 0 -213 105q-112 -105 -335 -136q-53 -7 -101 -7q-112 0 -205 38v255q97 -42 174 -42q35 0 66 9q157 45 180 127q6 23 6 51q0 74 -47 175q-56 121 -196 275h332q117 -164 143 -215q41 -82 59 -161zM436 -200 h135v-150h-135v150z"/>
<glyph glyph-name="uni068B.fina" horiz-adv-x="1064" unicode="ڋ" d="M829 474q24 -111 81 -174q40 -44 105 -44h68v-256h-117q-164 0 -213 105q-112 -105 -335 -136q-53 -7 -101 -7q-112 0 -205 38v255q97 -42 174 -42q35 0 66 9q157 45 180 127q6 23 6 51q0 74 -47 175q-56 121 -196 275h332q117 -164 143 -215q41 -82 59 -161zM436 -200 h135v-150h-135v150zM483 1004h-157h-106v135h54v388h123v-280q67 84 141 84t97 -19q61 -50 61 -125q0 -92 -60 -144q-46 -39 -153 -39zM433 1139h29q45 0 81 13q35 14 35 35q0 35 -24 35h-3q-19 -3 -43 -14q-44 -22 -75 -69z"/>
<glyph glyph-name="uni068F.fina" horiz-adv-x="1064" unicode="ڏ" d="M829 474q24 -111 81 -174q40 -44 105 -44h68v-256h-117q-164 0 -213 105q-112 -105 -335 -136q-53 -7 -101 -7q-112 0 -205 38v255q97 -42 174 -42q35 0 66 9q157 45 180 127q6 23 6 51q0 74 -47 175q-56 121 -196 275h332q117 -164 143 -215q41 -82 59 -161zM279 1400 h135v-150h-135v150zM504 1400h135v-150h-135v150zM391 1150h136v-150h-136v150z"/>
<glyph glyph-name="uni0690.fina" horiz-adv-x="1064" unicode="ڐ" d="M829 474q24 -111 81 -174q40 -44 105 -44h68v-256h-117q-164 0 -213 105q-112 -105 -335 -136q-53 -7 -101 -7q-112 0 -205 38v255q97 -42 174 -42q35 0 66 9q157 45 180 127q6 23 6 51q0 74 -47 175q-56 121 -196 275h332q117 -164 143 -215q41 -82 59 -161zM279 1450 h135v-150h-135v150zM279 1200h135v-150h-135v150zM504 1450h135v-150h-135v150zM504 1200h135v-150h-135v150z"/>
<glyph glyph-name="uni0692.fina" horiz-adv-x="1146" unicode="ڒ" d="M617 812l-175 326h161l117 -195l117 195h161l-176 -326h-205zM911 26q-20 -81 -54 -138q-115 -189 -315 -287q-207 -101 -618 -101v256q278 0 418 68q138 67 210 176q64 99 64 278v6q-1 145 -47 266h322q10 -34 18 -66q31 -125 83 -184q40 -44 105 -44h68v-256h-117 q-78 0 -137 26z"/>
<glyph glyph-name="uni0693.fina" horiz-adv-x="1146" unicode="ړ" d="M1082 -280q0 -92 -56 -156q-58 -64 -141 -64t-139 64q-58 64 -58 156t58 156q56 63 139 63t141 -63q56 -64 56 -156zM964 -280q0 36 -23 62q-23 25 -56 25t-55.5 -25t-22.5 -62q0 -38 22.5 -63t55.5 -25t56 26q23 25 23 62zM911 26q-20 -81 -54 -138q-115 -189 -315 -287 q-207 -101 -618 -101v256q278 0 418 68q138 67 210 176q64 99 64 278v6q-1 145 -47 266h322q10 -34 18 -66q31 -125 83 -184q40 -44 105 -44h68v-256h-117q-78 0 -137 26z"/>
<glyph glyph-name="uni0694.fina" horiz-adv-x="1146" unicode="ڔ" d="M828 -290h135v-150h-135v150zM911 26q-20 -81 -54 -138q-115 -189 -315 -287q-207 -101 -618 -101v256q278 0 418 68q138 67 210 176q64 99 64 278v6q-1 145 -47 266h322q10 -34 18 -66q31 -125 83 -184q40 -44 105 -44h68v-256h-117q-78 0 -137 26z"/>
<glyph glyph-name="uni0695.fina" horiz-adv-x="1255" unicode="ڕ" d="M1008 -500l-175 326h161l117 -195l117 195h161l-176 -326h-205zM911 26q-20 -81 -54 -138q-115 -189 -315 -287q-207 -101 -618 -101v256q278 0 418 68q138 67 210 176q64 99 64 278v6q-1 145 -47 266h322q10 -34 18 -66q31 -125 83 -184q40 -44 105 -44h177v-256h-226 q-78 0 -137 26z"/>
<glyph glyph-name="uni0696.fina" horiz-adv-x="1146" unicode="ږ" d="M828 -290h135v-150h-135v150zM252 190h135v-150h-135v150zM911 26q-20 -81 -54 -138q-115 -189 -315 -287q-207 -101 -618 -101v256q278 0 418 68q138 67 210 176q64 99 64 278v6q-1 145 -47 266h322q10 -34 18 -66q31 -125 83 -184q40 -44 105 -44h68v-256h-117 q-78 0 -137 26z"/>
<glyph glyph-name="uni0697.fina" horiz-adv-x="1146" unicode="ڗ" d="M540 950h135v-150h-135v150zM765 950h135v-150h-135v150zM911 26q-20 -81 -54 -138q-115 -189 -315 -287q-207 -101 -618 -101v256q278 0 418 68q138 67 210 176q64 99 64 278v6q-1 145 -47 266h322q10 -34 18 -66q31 -125 83 -184q40 -44 105 -44h68v-256h-117 q-78 0 -137 26z"/>
<glyph glyph-name="uni0699.fina" horiz-adv-x="1146" unicode="ڙ" d="M540 1200h135v-150h-135v150zM540 950h135v-150h-135v150zM765 1200h135v-150h-135v150zM765 950h135v-150h-135v150zM911 26q-20 -81 -54 -138q-115 -189 -315 -287q-207 -101 -618 -101v256q278 0 418 68q138 67 210 176q64 99 64 278v6q-1 145 -47 266h322 q10 -34 18 -66q31 -125 83 -184q40 -44 105 -44h68v-256h-117q-78 0 -137 26z"/>
<glyph glyph-name="uni069A.init" horiz-adv-x="1812" unicode="ښ" d="M368 78q-66 -78 -145 -78h-241v256h88q61 0 101 44q45 50 44 155l-1 145h322v-156q0 -36 41 -134q24 -59 99 -60h2q62 0 83 53q34 84 34 297h322q0 -205 17 -255q32 -95 92 -95q112 0 112 206v294h322v-342q0 -199 -82 -312q-65 -89 -192 -113q-60 -12 -162 -12 q-73 0 -125 29q-134 72 -143 169q-31 -133 -156 -169q-64 -18 -128 -18q-229 0 -304 96zM810 1000h135v-150h-135v150zM945 -200h135v-150h-135v150z"/>
<glyph glyph-name="uni069A.medi" horiz-adv-x="1875" unicode="ښ" d="M1386 -17q-60 -12 -162 -12q-73 0 -125 29q-134 72 -143 169q-31 -133 -156 -169q-64 -18 -128 -18q-229 0 -304 96q-66 -78 -145 -78h-241v256h88q61 0 101 44q45 50 44 155l-1 145h322v-156q0 -36 41 -134q24 -59 99 -60h2q62 0 83 53q34 84 34 297h322q0 -205 17 -255 q32 -95 92 -95q112 0 112 206v294h322v-295q0 -106 45 -155q39 -44 100 -44h89v-256h-242q-71 0 -116 52q-79 -55 -150 -69zM810 1000h135v-150h-135v150zM945 -200h135v-150h-135v150z"/>
<glyph glyph-name="uni069A.fina" horiz-adv-x="2605" unicode="ښ" d="M1406 250h7q60 0 78 53q34 98 34 297h322q0 -205 17 -255q32 -95 92 -95q112 0 112 206v294h322v-295q0 -106 44 -155q40 -44 101 -44h89v-256h-242q-71 0 -116 52q-79 -55 -150 -69q-55 -12 -162 -12q-73 0 -125 29q-134 72 -143 169q-31 -133 -156 -169 q-65 -18 -128 -18q-77 0 -138 90q0 -183 -71 -301q-108 -181 -319 -245q-86 -26 -220 -26q-179 0 -273 36q-264 101 -264 442q0 196 95 376h322q-97 -204 -97 -373q0 -162 130 -203q34 -11 82 -11q99 0 169 58q80 67 115 135q53 104 52 220q0 122 -15 186l-57 234h322 l32 -156q15 -74 40 -134q23 -57 99 -60zM1350 950h135v-150h-135v150zM1485 -200h135v-150h-135v150z"/>
<glyph glyph-name="uni069B.init" horiz-adv-x="1812" unicode="ڛ" d="M368 78q-66 -78 -145 -78h-241v256h88q61 0 101 44q45 50 44 155l-1 145h322v-156q0 -36 41 -134q24 -59 99 -60h2q62 0 83 53q34 84 34 297h322q0 -205 17 -255q32 -95 92 -95q112 0 112 206v294h322v-342q0 -199 -82 -312q-65 -89 -192 -113q-60 -12 -162 -12 q-73 0 -125 29q-134 72 -143 169q-31 -133 -156 -169q-64 -18 -128 -18q-229 0 -304 96zM832 -100h135v-150h-135v150zM1057 -100h135v-150h-135v150zM944 -350h136v-150h-136v150z"/>
<glyph glyph-name="uni069B.medi" horiz-adv-x="1875" unicode="ڛ" d="M1386 -17q-60 -12 -162 -12q-73 0 -125 29q-134 72 -143 169q-31 -133 -156 -169q-64 -18 -128 -18q-229 0 -304 96q-66 -78 -145 -78h-241v256h88q61 0 101 44q45 50 44 155l-1 145h322v-156q0 -36 41 -134q24 -59 99 -60h2q62 0 83 53q34 84 34 297h322q0 -205 17 -255 q32 -95 92 -95q112 0 112 206v294h322v-295q0 -106 45 -155q39 -44 100 -44h89v-256h-242q-71 0 -116 52q-79 -55 -150 -69zM832 -100h135v-150h-135v150zM1057 -100h135v-150h-135v150zM944 -350h136v-150h-136v150z"/>
<glyph glyph-name="uni069B.fina" horiz-adv-x="2605" unicode="ڛ" d="M1406 250h7q60 0 78 53q34 98 34 297h322q0 -205 17 -255q32 -95 92 -95q112 0 112 206v294h322v-295q0 -106 44 -155q40 -44 101 -44h89v-256h-242q-71 0 -116 52q-79 -55 -150 -69q-55 -12 -162 -12q-73 0 -125 29q-134 72 -143 169q-31 -133 -156 -169 q-65 -18 -128 -18q-77 0 -138 90q0 -183 -71 -301q-108 -181 -319 -245q-86 -26 -220 -26q-179 0 -273 36q-264 101 -264 442q0 196 95 376h322q-97 -204 -97 -373q0 -162 130 -203q34 -11 82 -11q99 0 169 58q80 67 115 135q53 104 52 220q0 122 -15 186l-57 234h322 l32 -156q15 -74 40 -134q23 -57 99 -60zM1372 -100h135v-150h-135v150zM1597 -100h135v-150h-135v150zM1484 -350h136v-150h-136v150z"/>
<glyph glyph-name="uni069C.init" horiz-adv-x="1812" unicode="ڜ" d="M368 78q-66 -78 -145 -78h-241v256h88q61 0 101 44q45 50 44 155l-1 145h322v-156q0 -36 41 -134q24 -59 99 -60h2q62 0 83 53q34 84 34 297h322q0 -205 17 -255q32 -95 92 -95q112 0 112 206v294h322v-342q0 -199 -82 -312q-65 -89 -192 -113q-60 -12 -162 -12 q-73 0 -125 29q-134 72 -143 169q-31 -133 -156 -169q-64 -18 -128 -18q-229 0 -304 96zM698 950h135v-150h-135v150zM923 950h135v-150h-135v150zM810 1200h136v-150h-136v150zM832 -100h135v-150h-135v150zM1057 -100h135v-150h-135v150zM944 -350h136v-150h-136v150z"/>
<glyph glyph-name="uni069C.medi" horiz-adv-x="1875" unicode="ڜ" d="M1386 -17q-60 -12 -162 -12q-73 0 -125 29q-134 72 -143 169q-31 -133 -156 -169q-64 -18 -128 -18q-229 0 -304 96q-66 -78 -145 -78h-241v256h88q61 0 101 44q45 50 44 155l-1 145h322v-156q0 -36 41 -134q24 -59 99 -60h2q62 0 83 53q34 84 34 297h322q0 -205 17 -255 q32 -95 92 -95q112 0 112 206v294h322v-295q0 -106 45 -155q39 -44 100 -44h89v-256h-242q-71 0 -116 52q-79 -55 -150 -69zM698 950h135v-150h-135v150zM923 950h135v-150h-135v150zM810 1200h136v-150h-136v150zM832 -100h135v-150h-135v150zM1057 -100h135v-150h-135v150 zM944 -350h136v-150h-136v150z"/>
<glyph glyph-name="uni069C.fina" horiz-adv-x="2605" unicode="ڜ" d="M1406 250h7q60 0 78 53q34 98 34 297h322q0 -205 17 -255q32 -95 92 -95q112 0 112 206v294h322v-295q0 -106 44 -155q40 -44 101 -44h89v-256h-242q-71 0 -116 52q-79 -55 -150 -69q-55 -12 -162 -12q-73 0 -125 29q-134 72 -143 169q-31 -133 -156 -169 q-65 -18 -128 -18q-77 0 -138 90q0 -183 -71 -301q-108 -181 -319 -245q-86 -26 -220 -26q-179 0 -273 36q-264 101 -264 442q0 196 95 376h322q-97 -204 -97 -373q0 -162 130 -203q34 -11 82 -11q99 0 169 58q80 67 115 135q53 104 52 220q0 122 -15 186l-57 234h322 l32 -156q15 -74 40 -134q23 -57 99 -60zM1238 950h135v-150h-135v150zM1463 950h135v-150h-135v150zM1350 1200h136v-150h-136v150zM1372 -100h135v-150h-135v150zM1597 -100h135v-150h-135v150zM1484 -350h136v-150h-136v150z"/>
<glyph glyph-name="uni069D.init" horiz-adv-x="1781" unicode="ڝ" d="M888 256h62q141 0 254 50q106 47 106 102q0 28 -53 55q-47 22 -91 22q-68 -2 -167 -81q-61 -50 -111 -148zM410 114q-97 -114 -187 -114h-241v256h88q61 0 101 44q45 50 44 155l-1 145h322v-156q0 -101 61 -154q94 223 266 346q147 105 288 105q167 0 274 -51 q208 -99 208 -292q0 -211 -166 -307q-156 -91 -518 -91h-249q-92 0 -178 30q-68 24 -112 84zM652 -200h135v-150h-135v150zM877 -200h135v-150h-135v150z"/>
<glyph glyph-name="uni069D.medi" horiz-adv-x="1816" unicode="ڝ" d="M888 256h62q141 0 254 50q106 47 106 102q0 28 -53 55q-47 22 -91 22q-68 -2 -167 -81q-61 -50 -111 -148zM1467 91q-150 -91 -518 -91h-249q-92 0 -178 30q-68 24 -112 84q-97 -114 -187 -114h-241v256h88q61 0 101 44q45 50 44 155l-1 145h322v-156q0 -101 61 -154 q94 223 266 346q147 105 288 105q167 0 274 -51q208 -99 208 -292q0 -50 63 -107q41 -35 79 -35h59v-256h-77q-170 0 -249 120q-23 -19 -41 -29zM652 -200h135v-150h-135v150zM877 -200h135v-150h-135v150z"/>
<glyph glyph-name="uni069D.fina" horiz-adv-x="2514" unicode="ڝ" d="M1587 256h61q142 0 255 50q106 47 106 102q0 28 -53 55q-48 22 -92 22q-67 -2 -167 -81q-60 -50 -110 -148zM1423 0q-55 0 -116 30q-25 12 -43 42q0 -183 -71 -301q-108 -181 -319 -245q-86 -26 -220 -26q-179 0 -273 36q-264 101 -264 442q0 196 95 376h322 q-97 -204 -97 -373q0 -162 130 -203q34 -11 82 -11q99 0 169 58q80 67 115 135q52 102 52 216q0 94 -46 274h298q2 -30 13 -70q13 -45 45 -90q94 223 267 346q147 105 288 105q166 0 273 -51q208 -99 208 -292q0 -50 64 -107q40 -35 78 -35h60v-256h-78q-170 0 -249 120 q-19 -16 -41 -29q-146 -91 -518 -91h-224zM1372 -200h135v-150h-135v150zM1597 -200h135v-150h-135v150z"/>
<glyph glyph-name="uni069E.init" horiz-adv-x="1781" unicode="ڞ" d="M888 256h62q141 0 254 50q106 47 106 102q0 28 -53 55q-47 22 -91 22q-68 -2 -167 -81q-61 -50 -111 -148zM410 114q-97 -114 -187 -114h-241v256h88q61 0 101 44q45 50 44 155l-1 145h322v-156q0 -101 61 -154q94 223 266 346q147 105 288 105q167 0 274 -51 q208 -99 208 -292q0 -211 -166 -307q-156 -91 -518 -91h-249q-92 0 -178 30q-68 24 -112 84zM472 950h135v-150h-135v150zM697 950h135v-150h-135v150zM584 1200h136v-150h-136v150z"/>
<glyph glyph-name="uni069E.medi" horiz-adv-x="1816" unicode="ڞ" d="M888 256h62q141 0 254 50q106 47 106 102q0 28 -53 55q-47 22 -91 22q-68 -2 -167 -81q-61 -50 -111 -148zM1467 91q-150 -91 -518 -91h-249q-92 0 -178 30q-68 24 -112 84q-97 -114 -187 -114h-241v256h88q61 0 101 44q45 50 44 155l-1 145h322v-156q0 -101 61 -154 q94 223 266 346q147 105 288 105q167 0 274 -51q208 -99 208 -292q0 -50 63 -107q41 -35 79 -35h59v-256h-77q-170 0 -249 120q-23 -19 -41 -29zM472 950h135v-150h-135v150zM697 950h135v-150h-135v150zM584 1200h136v-150h-136v150z"/>
<glyph glyph-name="uni069E.fina" horiz-adv-x="2514" unicode="ڞ" d="M1587 256h61q142 0 255 50q106 47 106 102q0 28 -53 55q-48 22 -92 22q-67 -2 -167 -81q-60 -50 -110 -148zM1423 0q-55 0 -116 30q-25 12 -43 42q0 -183 -71 -301q-108 -181 -319 -245q-86 -26 -220 -26q-179 0 -273 36q-264 101 -264 442q0 196 95 376h322 q-97 -204 -97 -373q0 -162 130 -203q34 -11 82 -11q99 0 169 58q80 67 115 135q52 102 52 216q0 94 -46 274h298q2 -30 13 -70q13 -45 45 -90q94 223 267 346q147 105 288 105q166 0 273 -51q208 -99 208 -292q0 -50 64 -107q40 -35 78 -35h60v-256h-78q-170 0 -249 120 q-19 -16 -41 -29q-146 -91 -518 -91h-224zM1148 950h135v-150h-135v150zM1373 950h135v-150h-135v150zM1260 1200h136v-150h-136v150z"/>
<glyph glyph-name="uni069F.init" horiz-adv-x="1736" unicode="ڟ" d="M928 0h-587h-359v256h272v1300h322v-1194q125 173 266 274q148 105 288 105q167 0 274 -51q208 -99 208 -292q0 -211 -166 -307q-156 -91 -518 -91zM868 256h61q142 0 255 50q106 47 106 102q0 28 -53 55q-48 22 -92 22q-67 -2 -167 -81q-60 -50 -110 -148zM685 1000h135 v-150h-135v150zM910 1000h135v-150h-135v150zM797 1250h136v-150h-136v150z"/>
<glyph glyph-name="uni069F.medi" horiz-adv-x="1795" unicode="ڟ" d="M868 256h61q142 0 255 50q106 47 106 102q0 28 -53 55q-48 22 -92 22q-67 -2 -167 -81q-60 -50 -110 -148zM341 0h-359v256h272v1300h322v-1194q125 173 266 274q148 105 288 105q167 0 274 -51q208 -99 208 -292q0 -50 64 -107q40 -35 78 -35h60v-256h-78 q-170 0 -249 120q-13 -11 -41 -29q-150 -91 -518 -91h-587zM685 1000h135v-150h-135v150zM910 1000h135v-150h-135v150zM797 1250h136v-150h-136v150z"/>
<glyph glyph-name="uni069F.fina" horiz-adv-x="1973" unicode="ڟ" d="M1046 256h61q142 0 255 50q106 47 106 102q0 28 -53 55q-48 22 -92 22q-67 -2 -167 -81q-60 -50 -110 -148zM1624 91q-150 -91 -518 -91h-587h-389v256h302v1300h322v-1194q125 173 267 274q147 105 288 105q166 0 273 -51q208 -99 208 -292q0 -50 64 -107q40 -35 78 -35 h60v-256h-78q-170 0 -249 120q-13 -11 -41 -29zM922 1000h135v-150h-135v150zM1147 1000h135v-150h-135v150zM1034 1250h136v-150h-136v150z"/>
<glyph glyph-name="uni06A0.init" horiz-adv-x="1259" unicode="ڠ" d="M608 755q-108 -64 -108 -150q0 -110 54 -150q62 -46 115 -46q17 0 34 5q162 48 371 146v-256q-170 -94 -444 -189q-331 -115 -526 -115h-122v256h99q157 0 274 41q-91 84 -125 148q-45 82 -45 192q0 21 2 43q10 142 191 285q114 90 490 101v-256h-24q-144 0 -236 -55z M382 1350h135v-150h-135v150zM607 1350h135v-150h-135v150zM494 1600h136v-150h-136v150z"/>
<glyph glyph-name="uni06A0.medi" horiz-adv-x="1040" unicode="ڠ" d="M520 163q-225 -163 -432 -163h-106v256h86q95 0 148 46q15 13 54 56q-76 65 -105 112q-27 42 -27 84q0 36 11 77q15 55 108 107q81 45 263.5 45t262.5 -45q93 -52 108 -107q12 -41 12 -77q0 -42 -27 -84q-30 -47 -106 -112q39 -43 54 -56q53 -46 148 -46h86v-256h-106 q-207 0 -432 163zM338 1100h135v-150h-135v150zM563 1100h135v-150h-135v150zM450 1350h136v-150h-136v150z"/>
<glyph glyph-name="uni06A0.fina" horiz-adv-x="1259" unicode="ڠ" d="M428 0q0 -78 92 -167q80 -77 289 -77h5q273 1 457 153v-275q-148 -134 -452 -134q-426 1 -572 162q-142 154 -142 338q0 138 79 254q74 112 121 143q-39 31 -65 73q-27 42 -27 84q0 34 12 77q15 55 108 107q80 45 262.5 45t263.5 -45q93 -52 108 -107q11 -41 11 -77 q0 -42 -27 -84q-29 -47 -105 -112q37 -35 91 -56q121 -46 254 -46h86v-256h-106q-415 0 -612 213q-131 -89 -131 -213zM382 1100h135v-150h-135v150zM607 1100h135v-150h-135v150zM494 1350h136v-150h-136v150z"/>
<glyph glyph-name="uni06A1.init" horiz-adv-x="1206" unicode="ڡ" d="M572 0h-590v256h518q54 0 87 9q74 20 94 89q-1 -5 -81 -5h-29q-211 0 -284 71q-88 84 -88 216q0 52 7 96q25 161 156 217q98 42 236 43h7q205 0 298 -57q72 -45 127 -209q30 -89 30 -262q0 -151 -102 -311q-42 -66 -170 -117q-90 -36 -216 -36zM688 591q33 28 33 66 q0 59 -45 88q-24 15 -59 15h-5q-42 0 -68 -29q-23 -26 -23 -75q0 -40 32 -69q19 -18 63 -18q46 0 72 22z"/>
<glyph glyph-name="uni06A1.medi" horiz-adv-x="1326" unicode="ڡ" d="M663 416q124 52 124 156q0 78 -42 133q-22 30 -81.5 30t-82.5 -30q-41 -55 -41 -133q0 -104 123 -156zM663.5 992q178.5 0 304.5 -66q79 -41 126 -158q32 -81 32 -236q0 -126 -150 -256q150 -20 326 -20h43v-256h-97q-173 0 -316 15q-177 19 -269 69q-91 -50 -268 -69 q-143 -15 -317 -15h-96v256h42q177 0 327 20q-150 130 -150 256q0 155 32 236q47 117 125 158q127 66 305.5 66z"/>
<glyph glyph-name="uni06A1.fina" horiz-adv-x="2195" unicode="ڡ" d="M1588 363q67 95 67 209q0 74 -45 134q-22 30 -64 30q-43 0 -67 -42q-24 -41 -24 -119q0 -101 61 -164q23 -25 72 -48zM1915 271q113 -15 256 -15h42v-256h-96q-174 0 -317 15q-57 5 -110 14l-64 -29q-90 -56 -731 -58h-24q-345 0 -457 28q-297 75 -297 349q0 135 57 225 h322q-46 -94 -46 -184q0 -70 170 -136q65 -25 297 -25q310 0 368 10q-11 12 -21 25q-126 160 -126 334q0 103 21 168q44 134 148 198q93 58 225 58q178 0 305 -66q78 -41 125 -158q32 -81 32 -236q0 -131 -79 -261z"/>
<glyph glyph-name="uni06A2.init" horiz-adv-x="1206" unicode="ڢ" d="M572 0h-590v256h518q54 0 87 9q74 20 94 89q-1 -5 -81 -5h-29q-211 0 -284 71q-88 84 -88 216q0 52 7 96q25 161 156 217q98 42 236 43h7q205 0 298 -57q72 -45 127 -209q30 -89 30 -262q0 -151 -102 -311q-42 -66 -170 -117q-90 -36 -216 -36zM688 591q33 28 33 66 q0 59 -45 88q-24 15 -59 15h-5q-42 0 -68 -29q-23 -26 -23 -75q0 -40 32 -69q19 -18 63 -18q46 0 72 22zM562 -150h135v-150h-135v150z"/>
<glyph glyph-name="uni06A2.medi" horiz-adv-x="1326" unicode="ڢ" d="M562 -150h135v-150h-135v150zM663 416q124 52 124 156q0 78 -42 133q-22 30 -81.5 30t-82.5 -30q-41 -55 -41 -133q0 -104 123 -156zM663.5 992q178.5 0 304.5 -66q79 -41 126 -158q32 -81 32 -236q0 -126 -150 -256q150 -20 326 -20h43v-256h-97q-173 0 -316 15 q-177 19 -269 69q-91 -50 -268 -69q-143 -15 -317 -15h-96v256h42q177 0 327 20q-150 130 -150 256q0 155 32 236q47 117 125 158q127 66 305.5 66z"/>
<glyph glyph-name="uni06A2.fina" horiz-adv-x="2195" unicode="ڢ" d="M1588 363q67 95 67 209q0 74 -45 134q-22 30 -64 30q-43 0 -67 -42q-24 -41 -24 -119q0 -101 61 -164q23 -25 72 -48zM1915 271q113 -15 256 -15h42v-256h-96q-174 0 -317 15q-57 5 -110 14l-64 -29q-90 -56 -731 -58h-24q-345 0 -457 28q-297 75 -297 349q0 135 57 225 h322q-46 -94 -46 -184q0 -70 170 -136q65 -25 297 -25q310 0 368 10q-11 12 -21 25q-126 160 -126 334q0 103 21 168q44 134 148 198q93 58 225 58q178 0 305 -66q78 -41 125 -158q32 -81 32 -236q0 -131 -79 -261zM900 -200h135v-150h-135v150z"/>
<glyph glyph-name="uni06A3.init" horiz-adv-x="1206" unicode="ڣ" d="M572 0h-590v256h518q54 0 87 9q74 20 94 89q-1 -5 -81 -5h-29q-211 0 -284 71q-88 84 -88 216q0 52 7 96q25 161 156 217q98 42 236 43h7q205 0 298 -57q72 -45 127 -209q30 -89 30 -262q0 -151 -102 -311q-42 -66 -170 -117q-90 -36 -216 -36zM688 591q33 28 33 66 q0 59 -45 88q-24 15 -59 15h-5q-42 0 -68 -29q-23 -26 -23 -75q0 -40 32 -69q19 -18 63 -18q46 0 72 22zM562 1300h135v-150h-135v150zM562 -150h135v-150h-135v150z"/>
<glyph glyph-name="uni06A3.medi" horiz-adv-x="1326" unicode="ڣ" d="M663 416q124 52 124 156q0 78 -42 133q-22 30 -81.5 30t-82.5 -30q-41 -55 -41 -133q0 -104 123 -156zM663.5 992q178.5 0 304.5 -66q79 -41 126 -158q32 -81 32 -236q0 -126 -150 -256q150 -20 326 -20h43v-256h-97q-173 0 -316 15q-177 19 -269 69q-91 -50 -268 -69 q-143 -15 -317 -15h-96v256h42q177 0 327 20q-150 130 -150 256q0 155 32 236q47 117 125 158q127 66 305.5 66zM562 1300h135v-150h-135v150zM562 -150h135v-150h-135v150z"/>
<glyph glyph-name="uni06A3.fina" horiz-adv-x="2195" unicode="ڣ" d="M1588 363q67 95 67 209q0 74 -45 134q-22 30 -64 30q-43 0 -67 -42q-24 -41 -24 -119q0 -101 61 -164q23 -25 72 -48zM1915 271q113 -15 256 -15h42v-256h-96q-174 0 -317 15q-57 5 -110 14l-64 -29q-90 -56 -731 -58h-24q-345 0 -457 28q-297 75 -297 349q0 135 57 225 h322q-46 -94 -46 -184q0 -70 170 -136q65 -25 297 -25q310 0 368 10q-11 12 -21 25q-126 160 -126 334q0 103 21 168q44 134 148 198q93 58 225 58q178 0 305 -66q78 -41 125 -158q32 -81 32 -236q0 -131 -79 -261zM1485 1300h135v-150h-135v150zM900 -200h135v-150h-135 v150z"/>
<glyph glyph-name="uni06A5.init" horiz-adv-x="1206" unicode="ڥ" d="M572 0h-590v256h518q54 0 87 9q74 20 94 89q-1 -5 -81 -5h-29q-211 0 -284 71q-88 84 -88 216q0 52 7 96q25 161 156 217q98 42 236 43h7q205 0 298 -57q72 -45 127 -209q30 -89 30 -262q0 -151 -102 -311q-42 -66 -170 -117q-90 -36 -216 -36zM688 591q33 28 33 66 q0 59 -45 88q-24 15 -59 15h-5q-42 0 -68 -29q-23 -26 -23 -75q0 -40 32 -69q19 -18 63 -18q46 0 72 22zM450 -150h135v-150h-135v150zM675 -150h135v-150h-135v150zM562 -400h136v-150h-136v150z"/>
<glyph glyph-name="uni06A5.medi" horiz-adv-x="1326" unicode="ڥ" d="M450 -150h135v-150h-135v150zM675 -150h135v-150h-135v150zM562 -400h136v-150h-136v150zM663 416q124 52 124 156q0 78 -42 133q-22 30 -81.5 30t-82.5 -30q-41 -55 -41 -133q0 -104 123 -156zM663.5 992q178.5 0 304.5 -66q79 -41 126 -158q32 -81 32 -236 q0 -126 -150 -256q150 -20 326 -20h43v-256h-97q-173 0 -316 15q-177 19 -269 69q-91 -50 -268 -69q-143 -15 -317 -15h-96v256h42q177 0 327 20q-150 130 -150 256q0 155 32 236q47 117 125 158q127 66 305.5 66z"/>
<glyph glyph-name="uni06A5.fina" horiz-adv-x="2195" unicode="ڥ" d="M1588 363q67 95 67 209q0 74 -45 134q-22 30 -64 30q-43 0 -67 -42q-24 -41 -24 -119q0 -101 61 -164q23 -25 72 -48zM1915 271q113 -15 256 -15h42v-256h-96q-174 0 -317 15q-57 5 -110 14l-64 -29q-90 -56 -731 -58h-24q-345 0 -457 28q-297 75 -297 349q0 135 57 225 h322q-46 -94 -46 -184q0 -70 170 -136q65 -25 297 -25q310 0 368 10q-11 12 -21 25q-126 160 -126 334q0 103 21 168q44 134 148 198q93 58 225 58q178 0 305 -66q78 -41 125 -158q32 -81 32 -236q0 -131 -79 -261zM788 -200h135v-150h-135v150zM1013 -200h135v-150h-135 v150zM900 -450h136v-150h-136v150z"/>
<glyph glyph-name="uni06A7.init" horiz-adv-x="1206" unicode="ڧ" d="M540 1285h135v-150h-135v150zM572 0h-590v256h518q54 0 87 9q74 20 94 89q-1 -5 -81 -5h-29q-211 0 -284 71q-88 84 -88 216q0 52 7 96q25 161 156 217q98 42 236 43h7q205 0 298 -57q72 -45 127 -209q30 -89 30 -262q0 -151 -102 -311q-42 -66 -170 -117 q-90 -36 -216 -36zM688 591q33 28 33 66q0 59 -45 88q-24 15 -59 15h-5q-42 0 -68 -29q-23 -26 -23 -75q0 -40 32 -69q19 -18 63 -18q46 0 72 22z"/>
<glyph glyph-name="uni06A7.medi" horiz-adv-x="1326" unicode="ڧ" d="M596 1285h135v-150h-135v150zM663 416q124 52 124 156q0 78 -42 133q-22 30 -81.5 30t-82.5 -30q-41 -55 -41 -133q0 -104 123 -156zM663.5 992q178.5 0 304.5 -66q79 -41 126 -158q32 -81 32 -236q0 -126 -150 -256q150 -20 326 -20h43v-256h-97q-173 0 -316 15 q-177 19 -269 69q-91 -50 -268 -69q-143 -15 -317 -15h-96v256h42q177 0 327 20q-150 130 -150 256q0 155 32 236q47 117 125 158q127 66 305.5 66z"/>
<glyph glyph-name="uni06A7.fina" horiz-adv-x="1661" unicode="ڧ" d="M1498 0q-18 -110 -81 -212q-86 -131 -243 -193q-242 -95 -525 -95h-23q-344 3 -460 192q-70 113 -70 223q0 10 1 20q7 120 42 165h322q-48 -45 -48 -109q0 -58 10 -86q54 -149 207 -149q238 0 390 98q97 64 120 146q-20 0 -109 2q-201 5 -284 86q-88 84 -88 216 q0 52 7 96q25 161 156 217q98 42 236 43h7q214 0 298 -57q80 -55 127 -209q18 -57 25 -138h164v-256h-181zM1181 325q-6 41 -48 80q-25 23 -58 23h-3q-38 -1 -64 -30q-27 -30 -27 -58q0 -45 31 -64q33 -19 64 -19h109q0 39 -4 68zM1035 1025h135v-150h-135v150z"/>
<glyph glyph-name="uni06A8.init" horiz-adv-x="1206" unicode="ڨ" d="M428 1360h135v-150h-135v150zM653 1360h135v-150h-135v150zM540 1610h136v-150h-136v150zM572 0h-590v256h518q54 0 87 9q74 20 94 89q-1 -5 -81 -5h-29q-211 0 -284 71q-88 84 -88 216q0 52 7 96q25 161 156 217q98 42 236 43h7q205 0 298 -57q72 -45 127 -209 q30 -89 30 -262q0 -151 -102 -311q-42 -66 -170 -117q-90 -36 -216 -36zM688 591q33 28 33 66q0 59 -45 88q-24 15 -59 15h-5q-42 0 -68 -29q-23 -26 -23 -75q0 -40 32 -69q19 -18 63 -18q46 0 72 22z"/>
<glyph glyph-name="uni06A8.medi" horiz-adv-x="1326" unicode="ڨ" d="M483 1360h135v-150h-135v150zM708 1360h135v-150h-135v150zM595 1610h136v-150h-136v150zM663 416q124 52 124 156q0 78 -42 133q-22 30 -81.5 30t-82.5 -30q-41 -55 -41 -133q0 -104 123 -156zM663.5 992q178.5 0 304.5 -66q79 -41 126 -158q32 -81 32 -236 q0 -126 -150 -256q150 -20 326 -20h43v-256h-97q-173 0 -316 15q-177 19 -269 69q-91 -50 -268 -69q-143 -15 -317 -15h-96v256h42q177 0 327 20q-150 130 -150 256q0 155 32 236q47 117 125 158q127 66 305.5 66z"/>
<glyph glyph-name="uni06A8.fina" horiz-adv-x="1661" unicode="ڨ" d="M1498 0q-18 -110 -81 -212q-86 -131 -243 -193q-242 -95 -525 -95h-23q-344 3 -460 192q-70 113 -70 223q0 10 1 20q7 120 42 165h322q-48 -45 -48 -109q0 -58 10 -86q54 -149 207 -149q238 0 390 98q97 64 120 146q-20 0 -109 2q-201 5 -284 86q-88 84 -88 216 q0 52 7 96q25 161 156 217q98 42 236 43h7q214 0 298 -57q80 -55 127 -209q18 -57 25 -138h164v-256h-181zM1181 325q-6 41 -48 80q-25 23 -58 23h-3q-38 -1 -64 -30q-27 -30 -27 -58q0 -45 31 -64q33 -19 64 -19h109q0 39 -4 68zM922 1025h135v-150h-135v150zM1147 1025 h135v-150h-135v150zM1034 1275h136v-150h-136v150z"/>
<glyph glyph-name="uni06AA.init" horiz-adv-x="1979" unicode="ڪ" d="M-18 0v256h1347q103 0 118 39q16 25 16 43.5t-1 28.5q-22 118 -71 128l-1027 201q-275 54 -275 321q0 35 9 68q35 119 122 161l640 310h561l-817 -412q-102 -51 -128 -113q-7 -17 4 -59t106 -60l992 -186q259 -49 259 -411q0 -168 -93 -241.5t-305 -73.5h-1457z"/>
<glyph glyph-name="uni06AA.medi" horiz-adv-x="1978" unicode="ڪ" d="M-18 0v256h1347q107 0 118 39q15 52 15 72q0 113 -71 128l-1027 201q-275 54 -275 321q0 35 9 68q35 119 122 161l640 310h561l-817 -412q-102 -51 -128 -113q-7 -17 4 -59t106 -60l992 -186q220 -42 254 -310q16 -74 43.5 -117t99.5 -43h21v-256h-254q-46 0 -90 27 q-85 -27 -213 -27h-1457z"/>
<glyph glyph-name="uni06AA.fina" horiz-adv-x="2342" unicode="ڪ" d="M117 314q0 139 57 230h322q-46 -94 -46 -184q0 -99 170 -157q73 -25 222 -25h540q269 0 314 35q105 82 116 82q2 0 10 46t8 63q0 77 -74 91l-1027 201q-275 54 -275 321q0 35 9 68q35 119 121 161l640 310h562l-818 -412q-101 -51 -127 -113q-8 -17 3.5 -59t105.5 -60 l992 -186q221 -42 254 -310q16 -74 43.5 -117t99.5 -43h22v-256h-255q-47 0 -90 28q-122 -54 -263.5 -80.5t-392.5 -26.5h-540q-274 0 -406 28q-297 63 -297 365z"/>
<glyph glyph-name="uni06AB.init" horiz-adv-x="1071" unicode="ګ" d="M448 0h-466v256h356q103 0 118 39q15 36 15 72q0 28 -71 128l-267 380q-44 63 -44 142q0 35 8 68q31 128 122 161l853 310v-256l-514 -199q-61 -24 -83 -70q-5 -11 -5 -36q0 -27 28 -69l208 -311q140 -210 140 -300q0 -168 -91 -240q-95 -75 -307 -75zM1024 1095 q0 -92 -56 -156q-58 -64 -141 -64t-139 64q-58 64 -58 156t58 156q56 63 139 63t141 -63q56 -64 56 -156zM906 1095q0 36 -23 62q-23 25 -56 25t-55.5 -25t-22.5 -62q0 -38 22.5 -63t55.5 -25t56 26q23 25 23 62z"/>
<glyph glyph-name="uni06AB.medi" horiz-adv-x="1017" unicode="ګ" d="M755 75q-95 -75 -307 -75h-466v256h356q103 0 118 39q15 36 15 72q0 28 -71 128l-267 380q-44 63 -44 142q0 35 8 68q31 128 122 161l853 310v-256l-514 -199q-61 -24 -83 -70q-5 -11 -5 -36q0 -28 28 -69l377 -560q32 -48 75 -84q32 -26 81 -26h59v-256h-129 q-138 0 -206 75zM1024 1095q0 -92 -56 -156q-58 -64 -141 -64t-139 64q-58 64 -58 156t58 156q56 63 139 63t141 -63q56 -64 56 -156zM906 1095q0 36 -23 62q-23 25 -56 25t-55.5 -25t-22.5 -62q0 -38 22.5 -63t55.5 -25t56 26q23 25 23 62z"/>
<glyph glyph-name="uni06AB.fina" horiz-adv-x="1887" unicode="ګ" d="M1570 75q-169 -93 -306 -118q-198 -36 -444 -36q-275 0 -406 28q-297 63 -297 370q0 135 57 225h322q-46 -94 -46 -184q0 -99 170 -157q73 -25 222 -25q162 0 314 35q92 21 116 82q14 36 14 72q0 28 -70 128l-267 380q-45 63 -45 142q0 35 9 68q33 129 121 161l853 310 v-256l-514 -199q-61 -24 -82 -70q-6 -11 -6 -36q0 -28 28 -69l377 -560q32 -48 76 -84q31 -26 81 -26h58v-256h-128q-139 0 -207 75zM1834 1095q0 -92 -56 -156q-58 -64 -141 -64t-139 64q-58 64 -58 156t58 156q56 63 139 63t141 -63q56 -64 56 -156zM1716 1095 q0 36 -23 62q-23 25 -56 25t-55.5 -25t-22.5 -62q0 -38 22.5 -63t55.5 -25t56 26q23 25 23 62z"/>
<glyph glyph-name="uni06AC.init" horiz-adv-x="1071" unicode="ڬ" d="M448 0h-466v256h356q103 0 118 39q15 36 15 72q0 28 -71 128l-267 380q-44 63 -44 142q0 35 8 68q31 128 122 161l853 310v-256l-514 -199q-61 -24 -83 -70q-5 -11 -5 -36q0 -27 28 -69l208 -311q140 -210 140 -300q0 -168 -91 -240q-95 -75 -307 -75zM292 1650h135v-150 h-135v150z"/>
<glyph glyph-name="uni06AC.medi" horiz-adv-x="1071" unicode="ڬ" d="M755 75q-95 -75 -307 -75h-466v256h356q103 0 118 39q15 36 15 72q0 28 -71 128l-267 380q-44 63 -44 142q0 35 8 68q31 128 122 161l853 310v-256l-514 -199q-61 -24 -83 -70q-5 -11 -5 -36q0 -28 28 -69l377 -560q32 -48 75 -84q32 -26 81 -26h59v-256h-129 q-138 0 -206 75zM292 1650h135v-150h-135v150z"/>
<glyph glyph-name="uni06AC.fina" horiz-adv-x="1716" unicode="ڬ" d="M1291 53q-99 -71 -222 -90q-120 -18 -283 -18h-17q-284 2 -376 32q-263 88 -263 283q0 75 14 128h322q-12 -34 -12 -61q0 -46 145 -105q53 -21 165 -21q104 0 194 33q109 39 155 107q66 97 66 270v945h322v-1101q0 -106 44 -155q40 -44 101 -44h88v-256h-321 q-67 0 -122 53zM965 1168v-115h-13q-45 0 -87 -6q-72 -11 -72 -42q0 -43 34 -65q31 -20 51 -26q92 -32 92 -117q-1 -110 -80 -152q-74 -39 -194 -39q-60 0 -110 11v121q61 -9 102 -9q76 0 105 14q54 26 54 67q0 23 -70 42q-58 16 -83 57q-28 45 -28 90q0 82 69 122 q74 43 230 47zM742 1500h135v-150h-135v150z"/>
<glyph glyph-name="uni06AE.init" horiz-adv-x="1071" unicode="ڮ" d="M448 0h-466v256h356q103 0 118 39q15 36 15 72q0 28 -71 128l-267 380q-44 63 -44 142q0 35 8 68q31 128 122 161l853 310v-256l-514 -199q-61 -24 -83 -70q-5 -11 -5 -36q0 -27 28 -69l208 -311q140 -210 140 -300q0 -168 -91 -240q-95 -75 -307 -75zM292 -150h135v-150 h-135v150zM517 -150h135v-150h-135v150zM404 -400h136v-150h-136v150z"/>
<glyph glyph-name="uni06AE.medi" horiz-adv-x="1071" unicode="ڮ" d="M755 75q-95 -75 -307 -75h-466v256h356q103 0 118 39q15 36 15 72q0 28 -71 128l-267 380q-44 63 -44 142q0 35 8 68q31 128 122 161l853 310v-256l-514 -199q-61 -24 -83 -70q-5 -11 -5 -36q0 -28 28 -69l377 -560q32 -48 75 -84q32 -26 81 -26h59v-256h-129 q-138 0 -206 75zM292 -150h135v-150h-135v150zM517 -150h135v-150h-135v150zM404 -400h136v-150h-136v150z"/>
<glyph glyph-name="uni06AE.fina" horiz-adv-x="1716" unicode="ڮ" d="M1291 53q-99 -71 -222 -90q-120 -18 -283 -18h-17q-284 2 -376 32q-263 88 -263 283q0 75 14 128h322q-12 -34 -12 -61q0 -46 145 -105q53 -21 165 -21q104 0 194 33q109 39 155 107q66 97 66 270v945h322v-1101q0 -106 44 -155q40 -44 101 -44h88v-256h-321 q-67 0 -122 53zM965 1168v-115h-13q-45 0 -87 -6q-72 -11 -72 -42q0 -43 34 -65q31 -20 51 -26q92 -32 92 -117q-1 -110 -80 -152q-74 -39 -194 -39q-60 0 -110 11v121q61 -9 102 -9q76 0 105 14q54 26 54 67q0 23 -70 42q-58 16 -83 57q-28 45 -28 90q0 82 69 122 q74 43 230 47zM652 -200h135v-150h-135v150zM877 -200h135v-150h-135v150zM764 -450h136v-150h-136v150z"/>
<glyph glyph-name="uni06B0.init" horiz-adv-x="1071" unicode="ڰ" d="M1072 1685l-956 -345v178l956 345v-178zM448 0h-466v256h356q103 0 118 39q15 36 15 72q0 28 -71 128l-267 380q-44 63 -44 142q0 35 8 68q31 128 122 161l853 310v-256l-514 -199q-61 -24 -83 -70q-5 -11 -5 -36q0 -27 28 -69l208 -311q140 -210 140 -300 q0 -168 -91 -240q-95 -75 -307 -75zM1024 1095q0 -92 -56 -156q-58 -64 -141 -64t-139 64q-58 64 -58 156t58 156q56 63 139 63t141 -63q56 -64 56 -156zM906 1095q0 36 -23 62q-23 25 -56 25t-55.5 -25t-22.5 -62q0 -38 22.5 -63t55.5 -25t56 26q23 25 23 62z"/>
<glyph glyph-name="uni06B0.medi" horiz-adv-x="1071" unicode="ڰ" d="M1072 1685l-956 -345v178l956 345v-178zM755 75q-95 -75 -307 -75h-466v256h356q103 0 118 39q15 36 15 72q0 28 -71 128l-267 380q-44 63 -44 142q0 35 8 68q31 128 122 161l853 310v-256l-514 -199q-61 -24 -83 -70q-5 -11 -5 -36q0 -28 28 -69l377 -560q32 -48 75 -84 q32 -26 81 -26h59v-256h-129q-138 0 -206 75zM1024 1095q0 -92 -56 -156q-58 -64 -141 -64t-139 64q-58 64 -58 156t58 156q56 63 139 63t141 -63q56 -64 56 -156zM906 1095q0 36 -23 62q-23 25 -56 25t-55.5 -25t-22.5 -62q0 -38 22.5 -63t55.5 -25t56 26q23 25 23 62z"/>
<glyph glyph-name="uni06B0.fina" horiz-adv-x="1887" unicode="ڰ" d="M1888 1685l-956 -345v178l956 345v-178zM1570 75q-169 -93 -306 -118q-198 -36 -444 -36q-275 0 -406 28q-297 63 -297 370q0 135 57 225h322q-46 -94 -46 -184q0 -99 170 -157q73 -25 222 -25q162 0 314 35q92 21 116 82q14 36 14 72q0 28 -70 128l-267 380 q-45 63 -45 142q0 35 9 68q33 129 121 161l853 310v-256l-514 -199q-61 -24 -82 -70q-6 -11 -6 -36q0 -28 28 -69l377 -560q32 -48 76 -84q31 -26 81 -26h58v-256h-128q-139 0 -207 75zM1834 1095q0 -92 -56 -156q-58 -64 -141 -64t-139 64q-58 64 -58 156t58 156 q56 63 139 63t141 -63q56 -64 56 -156zM1716 1095q0 36 -23 62q-23 25 -56 25t-55.5 -25t-22.5 -62q0 -38 22.5 -63t55.5 -25t56 26q23 25 23 62z"/>
<glyph glyph-name="uni06B2.init" horiz-adv-x="1071" unicode="ڲ" d="M1072 1685l-956 -345v178l956 345v-178zM448 0h-466v256h356q103 0 118 39q15 36 15 72q0 28 -71 128l-267 380q-44 63 -44 142q0 35 8 68q31 128 122 161l853 310v-256l-514 -199q-61 -24 -83 -70q-5 -11 -5 -36q0 -27 28 -69l208 -311q140 -210 140 -300 q0 -168 -91 -240q-95 -75 -307 -75zM292 -150h135v-150h-135v150zM517 -150h135v-150h-135v150z"/>
<glyph glyph-name="uni06B2.medi" horiz-adv-x="1071" unicode="ڲ" d="M1072 1685l-956 -345v178l956 345v-178zM755 75q-95 -75 -307 -75h-466v256h356q103 0 118 39q15 36 15 72q0 28 -71 128l-267 380q-44 63 -44 142q0 35 8 68q31 128 122 161l853 310v-256l-514 -199q-61 -24 -83 -70q-5 -11 -5 -36q0 -28 28 -69l377 -560q32 -48 75 -84 q32 -26 81 -26h59v-256h-129q-138 0 -206 75zM292 -150h135v-150h-135v150zM517 -150h135v-150h-135v150z"/>
<glyph glyph-name="uni06B2.fina" horiz-adv-x="1887" unicode="ڲ" d="M1888 1685l-956 -345v178l956 345v-178zM1570 75q-169 -93 -306 -118q-198 -36 -444 -36q-275 0 -406 28q-297 63 -297 370q0 135 57 225h322q-46 -94 -46 -184q0 -99 170 -157q73 -25 222 -25q162 0 314 35q92 21 116 82q14 36 14 72q0 28 -70 128l-267 380 q-45 63 -45 142q0 35 9 68q33 129 121 161l853 310v-256l-514 -199q-61 -24 -82 -70q-6 -11 -6 -36q0 -28 28 -69l377 -560q32 -48 76 -84q31 -26 81 -26h58v-256h-128q-139 0 -207 75zM652 -200h135v-150h-135v150zM877 -200h135v-150h-135v150z"/>
<glyph glyph-name="uni06B4.init" horiz-adv-x="1071" unicode="ڴ" d="M1072 1685l-956 -345v178l956 345v-178zM448 0h-466v256h356q103 0 118 39q15 36 15 72q0 28 -71 128l-267 380q-44 63 -44 142q0 35 8 68q31 128 122 161l853 310v-256l-514 -199q-61 -24 -83 -70q-5 -11 -5 -36q0 -27 28 -69l208 -311q140 -210 140 -300 q0 -168 -91 -240q-95 -75 -307 -75zM68 1850h135v-150h-135v150zM293 1850h135v-150h-135v150zM180 2100h136v-150h-136v150z"/>
<glyph glyph-name="uni06B4.medi" horiz-adv-x="1071" unicode="ڴ" d="M1072 1685l-956 -345v178l956 345v-178zM755 75q-95 -75 -307 -75h-466v256h356q103 0 118 39q15 36 15 72q0 28 -71 128l-267 380q-44 63 -44 142q0 35 8 68q31 128 122 161l853 310v-256l-514 -199q-61 -24 -83 -70q-5 -11 -5 -36q0 -28 28 -69l377 -560q32 -48 75 -84 q32 -26 81 -26h59v-256h-129q-138 0 -206 75zM68 1850h135v-150h-135v150zM293 1850h135v-150h-135v150zM180 2100h136v-150h-136v150z"/>
<glyph glyph-name="uni06B4.fina" horiz-adv-x="1887" unicode="ڴ" d="M1888 1685l-956 -345v178l956 345v-178zM1570 75q-169 -93 -306 -118q-198 -36 -444 -36q-275 0 -406 28q-297 63 -297 370q0 135 57 225h322q-46 -94 -46 -184q0 -99 170 -157q73 -25 222 -25q162 0 314 35q92 21 116 82q14 36 14 72q0 28 -70 128l-267 380 q-45 63 -45 142q0 35 9 68q33 129 121 161l853 310v-256l-514 -199q-61 -24 -82 -70q-6 -11 -6 -36q0 -28 28 -69l377 -560q32 -48 76 -84q31 -26 81 -26h58v-256h-128q-139 0 -207 75zM922 1850h135v-150h-135v150zM1147 1850h135v-150h-135v150zM1034 2100h136v-150h-136 v150z"/>
<glyph glyph-name="uni06B5.init" horiz-adv-x="692" unicode="ڵ" d="M273 1662l-175 326h161l117 -195l117 195h161l-176 -326h-205zM537 371q0 -182 -61 -279q-58 -92 -173 -92h-321v256h88q61 0 101 44q44 49 44 155v1101h322v-1185z"/>
<glyph glyph-name="uni06B5.medi" horiz-adv-x="752" unicode="ڵ" d="M273 1662l-175 326h161l117 -195l117 195h161l-176 -326h-205zM-18 0v256h88q61 0 101 44q44 49 44 155v1101h322v-1101q0 -106 44 -155q40 -44 101 -44h88v-256h-226q-98 0 -168 109q-69 -109 -168 -109h-226z"/>
<glyph glyph-name="uni06B5.fina" horiz-adv-x="1645" unicode="ڵ" d="M1170 1662l-175 326h161l117 -195l117 195h161l-176 -326h-205zM1372 16q-101 -212 -370 -294q-168 -52 -330 -52q-142 0 -279 40q-263 76 -263 370q0 135 56 225h322q-58 -94 -58 -211v-19q4 -114 149 -148q44 -10 89 -10q75 0 154 28q144 52 199 128q71 97 71 353v1130 h322v-1130q0 -77 44 -126q39 -44 101 -44h84v-256h-222q-59 0 -69 16z"/>
<glyph glyph-name="uni06B6.init" horiz-adv-x="692" unicode="ڶ" d="M537 371q0 -182 -61 -279q-58 -92 -173 -92h-321v256h88q61 0 101 44q44 49 44 155v1101h322v-1185zM299 1950h135v-150h-135v150z"/>
<glyph glyph-name="uni06B6.medi" horiz-adv-x="752" unicode="ڶ" d="M-18 0v256h88q61 0 101 44q44 49 44 155v1101h322v-1101q0 -106 44 -155q40 -44 101 -44h88v-256h-226q-98 0 -168 109q-69 -109 -168 -109h-226zM299 1950h135v-150h-135v150z"/>
<glyph glyph-name="uni06B6.fina" horiz-adv-x="1645" unicode="ڶ" d="M1372 16q-101 -212 -370 -294q-168 -52 -330 -52q-142 0 -279 40q-263 76 -263 370q0 135 56 225h322q-58 -94 -58 -211v-19q4 -114 149 -148q44 -10 89 -10q75 0 154 28q144 52 199 128q71 97 71 353v1130h322v-1130q0 -77 44 -126q39 -44 101 -44h84v-256h-222 q-59 0 -69 16zM1197 1950h135v-150h-135v150z"/>
<glyph glyph-name="uni06B7.init" horiz-adv-x="692" unicode="ڷ" d="M537 371q0 -182 -61 -279q-58 -92 -173 -92h-321v256h88q61 0 101 44q44 49 44 155v1101h322v-1185zM182 1850h135v-150h-135v150zM407 1850h135v-150h-135v150zM294 2100h136v-150h-136v150z"/>
<glyph glyph-name="uni06B7.medi" horiz-adv-x="752" unicode="ڷ" d="M-18 0v256h88q61 0 101 44q44 49 44 155v1101h322v-1101q0 -106 44 -155q40 -44 101 -44h88v-256h-226q-98 0 -168 109q-69 -109 -168 -109h-226zM182 1850h135v-150h-135v150zM407 1850h135v-150h-135v150zM294 2100h136v-150h-136v150z"/>
<glyph glyph-name="uni06B7.fina" horiz-adv-x="1645" unicode="ڷ" d="M1372 16q-101 -212 -370 -294q-168 -52 -330 -52q-142 0 -279 40q-263 76 -263 370q0 135 56 225h322q-58 -94 -58 -211v-19q4 -114 149 -148q44 -10 89 -10q75 0 154 28q144 52 199 128q71 97 71 353v1130h322v-1130q0 -77 44 -126q39 -44 101 -44h84v-256h-222 q-59 0 -69 16zM1080 1850h135v-150h-135v150zM1305 1850h135v-150h-135v150zM1192 2100h136v-150h-136v150z"/>
<glyph glyph-name="uni06B8.init" horiz-adv-x="692" unicode="ڸ" d="M537 371q0 -182 -61 -279q-58 -92 -173 -92h-321v256h88q61 0 101 44q44 49 44 155v1101h322v-1185zM157 -100h135v-150h-135v150zM382 -100h135v-150h-135v150zM269 -350h136v-150h-136v150z"/>
<glyph glyph-name="uni06B8.medi" horiz-adv-x="752" unicode="ڸ" d="M-18 0v256h88q61 0 101 44q44 49 44 155v1101h322v-1101q0 -106 44 -155q40 -44 101 -44h88v-256h-226q-98 0 -168 109q-69 -109 -168 -109h-226zM184 -100h135v-150h-135v150zM409 -100h135v-150h-135v150zM296 -350h136v-150h-136v150z"/>
<glyph glyph-name="uni06B8.fina" horiz-adv-x="1645" unicode="ڸ" d="M1372 16q-101 -212 -370 -294q-168 -52 -330 -52q-142 0 -279 40q-263 76 -263 370q0 135 56 225h322q-58 -94 -58 -211v-19q4 -114 149 -148q44 -10 89 -10q75 0 154 28q144 52 199 128q71 97 71 353v1130h322v-1130q0 -77 44 -126q39 -44 101 -44h84v-256h-222 q-59 0 -69 16zM608 -400h135v-150h-135v150zM833 -400h135v-150h-135v150zM720 -650h136v-150h-136v150z"/>
<glyph glyph-name="uni06B9.init" horiz-adv-x="692" unicode="ڹ" d="M309 -205h135v-150h-135v150zM537 371q0 -182 -61 -279q-58 -92 -173 -92h-321v256h88q61 0 101 44q44 49 44 155v145h322v-229zM309 985h135v-150h-135v150z"/>
<glyph glyph-name="uni06B9.medi" horiz-adv-x="752" unicode="ڹ" d="M309 -205h135v-150h-135v150zM770 0h-226q-98 0 -168 109q-69 -109 -168 -109h-226v256h88q61 0 101 44q44 49 44 155v145h322v-145q0 -106 44 -155q40 -44 101 -44h88v-256zM309 985h135v-150h-135v150z"/>
<glyph glyph-name="uni06B9.fina" horiz-adv-x="1658" unicode="ڹ" d="M1376 525q36 -97 45 -108q118 -160 213 -160h43v-257h-57q-151 1 -190 60q0 -98 -84 -261q-114 -220 -323 -265q-159 -34 -285 -34q-173 0 -310 44q-315 99 -315 462q0 140 36 316h323q-38 -160 -38 -293q0 -178 181 -252q49 -21 119 -21q51 0 106 17q192 56 242 215 q30 95 30 214q0 164 -91 386h322q26 -45 33 -63zM742 -675h135v-150h-135v150zM608 785h135v-150h-135v150z"/>
<glyph glyph-name="uni06BA.init" horiz-adv-x="692" unicode="ں" d="M309 985h135v-150h-135v150zM537 371q0 -182 -61 -279q-58 -92 -173 -92h-321v256h88q61 0 101 44q44 49 44 155v145h322v-229z"/>
<glyph glyph-name="uni06BA.medi" horiz-adv-x="752" unicode="ں" d="M309 985h135v-150h-135v150zM770 0h-226q-98 0 -168 109q-69 -109 -168 -109h-226v256h88q61 0 101 44q44 49 44 155v145h322v-145q0 -106 44 -155q40 -44 101 -44h88v-256z"/>
<glyph glyph-name="uni06BC.init" horiz-adv-x="692" unicode="ڼ" d="M573 -80q0 -92 -56 -156q-58 -64 -141 -64t-139 64q-58 64 -58 156t58 156q56 63 139 63t141 -63q56 -64 56 -156zM455 -80q0 36 -23 62q-23 25 -56 25t-55.5 -25t-22.5 -62q0 -38 22.5 -63t55.5 -25t56 26q23 25 23 62zM537 371q0 -182 -61 -279q-58 -92 -173 -92h-321 v256h88q61 0 101 44q44 49 44 155v145h322v-229zM309 985h135v-150h-135v150z"/>
<glyph glyph-name="uni06BC.medi" horiz-adv-x="752" unicode="ڼ" d="M573 -30q0 -92 -56 -156q-58 -64 -141 -64t-139 64q-58 64 -58 156t58 156q56 63 139 63t141 -63q56 -64 56 -156zM455 -30q0 36 -23 62q-23 25 -56 25t-55.5 -25t-22.5 -62q0 -38 22.5 -63t55.5 -25t56 26q23 25 23 62zM770 0h-226q-98 0 -168 109q-69 -109 -168 -109 h-226v256h88q61 0 101 44q44 49 44 155v145h322v-145q0 -106 44 -155q40 -44 101 -44h88v-256zM309 985h135v-150h-135v150z"/>
<glyph glyph-name="uni06BC.fina" horiz-adv-x="1658" unicode="ڼ" d="M1376 525q36 -97 45 -108q118 -160 213 -160h43v-257h-57q-151 1 -190 60q0 -98 -84 -261q-114 -220 -323 -265q-159 -34 -285 -34q-173 0 -310 44q-315 99 -315 462q0 140 36 316h323q-38 -160 -38 -293q0 -178 181 -252q49 -21 119 -21q51 0 106 17q192 56 242 215 q30 95 30 214q0 164 -91 386h322q26 -45 33 -63zM1002 -630q0 -92 -56 -156q-58 -64 -141 -64t-139 64q-58 64 -58 156t58 156q56 63 139 63t141 -63q56 -64 56 -156zM884 -630q0 36 -23 62q-23 25 -56 25t-55.5 -25t-22.5 -62q0 -38 22.5 -63t55.5 -25t56 26q23 25 23 62z M608 785h135v-150h-135v150z"/>
<glyph glyph-name="uni06BD.init" horiz-adv-x="692" unicode="ڽ" d="M196 1000h135v-150h-135v150zM421 1000h135v-150h-135v150zM308 1250h136v-150h-136v150zM537 371q0 -182 -61 -279q-58 -92 -173 -92h-321v256h88q61 0 101 44q44 49 44 155v145h322v-229z"/>
<glyph glyph-name="uni06BD.medi" horiz-adv-x="752" unicode="ڽ" d="M196 1000h135v-150h-135v150zM421 1000h135v-150h-135v150zM308 1250h136v-150h-136v150zM770 0h-226q-98 0 -168 109q-69 -109 -168 -109h-226v256h88q61 0 101 44q44 49 44 155v145h322v-145q0 -106 44 -155q40 -44 101 -44h88v-256z"/>
<glyph glyph-name="uni06BD.fina" horiz-adv-x="1658" unicode="ڽ" d="M1376 525q36 -97 45 -108q118 -160 213 -160h43v-257h-57q-151 1 -190 60q0 -98 -84 -261q-114 -220 -323 -265q-159 -34 -285 -34q-173 0 -310 44q-315 99 -315 462q0 140 36 316h323q-38 -160 -38 -293q0 -178 181 -252q49 -21 119 -21q51 0 106 17q192 56 242 215 q30 95 30 214q0 164 -91 386h322q26 -45 33 -63zM518 785h135v-150h-135v150zM743 785h135v-150h-135v150zM630 1035h136v-150h-136v150z"/>
<glyph glyph-name="uni06BF.init" horiz-adv-x="1328" unicode="ڿ" d="M562 1085h135v-150h-135v150zM450 -100h135v-150h-135v150zM675 -100h135v-150h-135v150zM562 -350h136v-150h-136v150zM780 504q-67 25 -169 40q-84 12 -223 25q-24 2 -61 2q-61 0 -158 -6v256q65 7 133 8q217 0 389 -35q251 -50 467 -122v-256q-82 -32 -183 -98 q-117 -76 -238 -168q-103 -79 -294 -116q-174 -34 -346 -34h-115v256h90q186 0 310 34q128 36 226 105q87 61 172 109z"/>
<glyph glyph-name="uni06BF.medi" horiz-adv-x="1328" unicode="ڿ" d="M562 1085h135v-150h-135v150zM450 -100h135v-150h-135v150zM675 -100h135v-150h-135v150zM562 -350h136v-150h-136v150zM900 269q-74 -59 -163 -119q-123 -83 -294 -116q-175 -34 -346 -34h-115v256h90q186 0 310 34q128 36 226 105q87 61 172 109q-67 25 -169 40 q-84 12 -223 25q-24 2 -61 2q-61 0 -158 -6v256q65 7 133 8q217 0 389 -35q251 -50 467 -122v-256l-42 -18q20 -49 40 -74q53 -68 131 -68h59v-256h-77q-183 0 -280 117q-47 57 -89 152z"/>
<glyph glyph-name="uni06BF.fina" horiz-adv-x="1328" unicode="ڿ" d="M562 1185h135v-150h-135v150zM1091 578q0 -60 65 -203q56 -119 131 -119h59v-256h-77q-142 0 -251 149q-64 88 -118 212q-45 107 -61 179q-98 -35 -173 -102q-183 -163 -183 -363q0 -121 93 -227q81 -92 294 -92q271 0 457 153v-275q-148 -134 -452 -134q-393 1 -573 199 q-141 154 -141 376q0 179 126 350q92 125 270 203h-21q-72 0 -188 -17q-121 -19 -207 -60v256q245 63 424 63q317 0 578 -38v-256q-12 1 -24 1q-14 1 -28 1zM567 210h135v-150h-135v150zM792 210h135v-150h-135v150zM679 -40h136v-150h-136v150z"/>
<glyph glyph-name="uni06CE.init" horiz-adv-x="692" unicode="ێ" d="M273 762l-175 326h161l117 -195l117 195h161l-176 -326h-205zM537 371q0 -182 -61 -279q-58 -92 -173 -92h-321v256h88q61 0 101 44q44 49 44 155v145h322v-229zM196 -190h135v-150h-135v150zM421 -190h135v-150h-135v150z"/>
<glyph glyph-name="uni06CE.medi" horiz-adv-x="752" unicode="ێ" d="M273 762l-175 326h161l117 -195l117 195h161l-176 -326h-205zM770 0h-226q-98 0 -168 109q-69 -109 -168 -109h-226v256h88q61 0 101 44q44 49 44 155v145h322v-145q0 -106 44 -155q40 -44 101 -44h88v-256zM196 -190h135v-150h-135v150zM421 -190h135v-150h-135v150z "/>
<glyph glyph-name="uni06CE.fina" horiz-adv-x="1864" unicode="ێ" d="M572 612l-175 326h161l117 -195l117 195h161l-176 -326h-205zM1098 -218q-171 -41 -335 -41h-20q-289 0 -362 29q-264 105 -264 359q0 136 57 225h322q-59 -95 -59 -215v-15q3 -68 117 -110q46 -17 191 -17q168 0 285 35q131 40 131 74q-1 26 -24 43q-49 37 -59 48 q-28 37 -28 121q0 98 44 145q66 73 111 96q69 35 203 35q231 0 324 -184q77 -154 125 -154h26v-256h-55q-154 0 -253 180q-81 147 -142 147q-16 0 -23 -3q-40 -17 -40 -55q0 -44 51 -68q59 -27 59 -147q0 -179 -382 -272z"/>
<glyph glyph-name="uni06D5.fina" horiz-adv-x="1117" unicode="ە" d="M591 696q-4 33 -4 54h322q2 -200 33 -342q18 -82 55 -108q62 -44 71 -44h68v-256h-202q-83 0 -146 34q-60 31 -75 66q-97 -64 -304 -64h-6q-50 0 -102 15q-181 48 -181 234q0 190 194 328q96 68 277 83zM633 317q-13 40 -20 91q-4 27 -8 50q-85 -10 -123 -42 q-40 -35 -40 -89q0 -48 61 -48q87 0 130 38z"/>
<glyph arabic-form="isolated" glyph-name="uniFB52" horiz-adv-x="1852" unicode="ٻ" d="M1697 669q14 -79 14 -148q0 -152 -69 -248q-102 -142 -305 -204q-254 -77 -599 -79h-14q-201 0 -310 28q-297 77 -297 370q0 135 57 225h322q-46 -94 -46 -184q0 -91 170 -157q65 -25 140 -25q185 0 325 47q218 71 263 159q38 74 38 143q0 37 -11 73h322zM806 -100h135 v-150h-135v150zM806 -350h135v-150h-135v150z"/>
<glyph arabic-form="final" glyph-name="uniFB53" horiz-adv-x="1951" unicode="ٻ" d="M806 -100h135v-150h-135v150zM806 -350h135v-150h-135v150zM1517 162q-39 -52 -180 -93q-262 -77 -599 -79h-14q-201 0 -310 28q-297 77 -297 370q0 135 57 225h322q-46 -94 -46 -184q0 -91 170 -157q65 -25 140 -25q185 0 325 47q219 73 263 159q38 74 38 143 q0 37 -11 73h322q15 -75 15 -120q0 -147 48 -224q46 -69 142 -69h67v-256h-117q-243 0 -335 162z"/>
<glyph arabic-form="initial" glyph-name="uniFB54" horiz-adv-x="692" unicode="ٻ" d="M304 -100h135v-150h-135v150zM304 -350h135v-150h-135v150zM537 371q0 -182 -61 -279q-58 -92 -173 -92h-321v256h88q61 0 101 44q44 49 44 155v145h322v-229z"/>
<glyph arabic-form="medial" glyph-name="uniFB55" horiz-adv-x="752" unicode="ٻ" d="M304 -100h135v-150h-135v150zM304 -350h135v-150h-135v150zM770 0h-226q-98 0 -168 109q-69 -109 -168 -109h-226v256h88q61 0 101 44q44 49 44 155v145h322v-145q0 -106 44 -155q40 -44 101 -44h88v-256z"/>
<glyph arabic-form="isolated" glyph-name="uniFB56" horiz-adv-x="1852" unicode="پ" d="M1697 669q14 -79 14 -148q0 -152 -69 -248q-102 -142 -305 -204q-254 -77 -599 -79h-14q-201 0 -310 28q-297 77 -297 370q0 135 57 225h322q-46 -94 -46 -184q0 -91 170 -157q65 -25 140 -25q185 0 325 47q218 71 263 159q38 74 38 143q0 37 -11 73h322zM698 -100h135 v-150h-135v150zM923 -100h135v-150h-135v150zM810 -350h136v-150h-136v150z"/>
<glyph arabic-form="final" glyph-name="uniFB57" horiz-adv-x="1951" unicode="پ" d="M698 -100h135v-150h-135v150zM923 -100h135v-150h-135v150zM810 -350h136v-150h-136v150zM1517 162q-39 -52 -180 -93q-262 -77 -599 -79h-14q-201 0 -310 28q-297 77 -297 370q0 135 57 225h322q-46 -94 -46 -184q0 -91 170 -157q65 -25 140 -25q185 0 325 47 q219 73 263 159q38 74 38 143q0 37 -11 73h322q15 -75 15 -120q0 -147 48 -224q46 -69 142 -69h67v-256h-117q-243 0 -335 162z"/>
<glyph arabic-form="initial" glyph-name="uniFB58" horiz-adv-x="692" unicode="پ" d="M196 -100h135v-150h-135v150zM421 -100h135v-150h-135v150zM308 -350h136v-150h-136v150zM537 371q0 -182 -61 -279q-58 -92 -173 -92h-321v256h88q61 0 101 44q44 49 44 155v145h322v-229z"/>
<glyph arabic-form="medial" glyph-name="uniFB59" horiz-adv-x="752" unicode="پ" d="M196 -100h135v-150h-135v150zM421 -100h135v-150h-135v150zM308 -350h136v-150h-136v150zM770 0h-226q-98 0 -168 109q-69 -109 -168 -109h-226v256h88q61 0 101 44q44 49 44 155v145h322v-145q0 -106 44 -155q40 -44 101 -44h88v-256z"/>
<glyph arabic-form="isolated" glyph-name="uniFB5A" horiz-adv-x="1852" unicode="ڀ" d="M1697 669q14 -79 14 -148q0 -152 -69 -248q-102 -142 -305 -204q-254 -77 -599 -79h-14q-201 0 -310 28q-297 77 -297 370q0 135 57 225h322q-46 -94 -46 -184q0 -91 170 -157q65 -25 140 -25q185 0 325 47q218 71 263 159q38 74 38 143q0 37 -11 73h322zM698 -100h135 v-150h-135v150zM698 -350h135v-150h-135v150zM923 -100h135v-150h-135v150zM923 -350h135v-150h-135v150z"/>
<glyph arabic-form="final" glyph-name="uniFB5B" horiz-adv-x="1951" unicode="ڀ" d="M698 -100h135v-150h-135v150zM698 -350h135v-150h-135v150zM923 -100h135v-150h-135v150zM923 -350h135v-150h-135v150zM1517 162q-39 -52 -180 -93q-262 -77 -599 -79h-14q-201 0 -310 28q-297 77 -297 370q0 135 57 225h322q-46 -94 -46 -184q0 -91 170 -157 q65 -25 140 -25q185 0 325 47q219 73 263 159q38 74 38 143q0 37 -11 73h322q15 -75 15 -120q0 -147 48 -224q46 -69 142 -69h67v-256h-117q-243 0 -335 162z"/>
<glyph arabic-form="initial" glyph-name="uniFB5C" horiz-adv-x="692" unicode="ڀ" d="M196 -100h135v-150h-135v150zM196 -350h135v-150h-135v150zM421 -100h135v-150h-135v150zM421 -350h135v-150h-135v150zM537 371q0 -182 -61 -279q-58 -92 -173 -92h-321v256h88q61 0 101 44q44 49 44 155v145h322v-229z"/>
<glyph arabic-form="medial" glyph-name="uniFB5D" horiz-adv-x="752" unicode="ڀ" d="M196 -100h135v-150h-135v150zM196 -350h135v-150h-135v150zM421 -100h135v-150h-135v150zM421 -350h135v-150h-135v150zM770 0h-226q-98 0 -168 109q-69 -109 -168 -109h-226v256h88q61 0 101 44q44 49 44 155v145h322v-145q0 -106 44 -155q40 -44 101 -44h88v-256z"/>
<glyph arabic-form="isolated" glyph-name="uniFB5E" horiz-adv-x="1852" unicode="ٺ" d="M1697 669q14 -79 14 -148q0 -152 -69 -248q-102 -142 -305 -204q-254 -77 -599 -79h-14q-201 0 -310 28q-297 77 -297 370q0 135 57 225h322q-46 -94 -46 -184q0 -91 170 -157q65 -25 140 -25q185 0 325 47q218 71 263 159q38 74 38 143q0 37 -11 73h322zM806 1160h135 v-150h-135v150zM806 910h135v-150h-135v150z"/>
<glyph arabic-form="final" glyph-name="uniFB5F" horiz-adv-x="1951" unicode="ٺ" d="M806 1160h135v-150h-135v150zM806 910h135v-150h-135v150zM1517 162q-39 -52 -180 -93q-262 -77 -599 -79h-14q-201 0 -310 28q-297 77 -297 370q0 135 57 225h322q-46 -94 -46 -184q0 -91 170 -157q65 -25 140 -25q185 0 325 47q219 73 263 159q38 74 38 143 q0 37 -11 73h322q15 -75 15 -120q0 -147 48 -224q46 -69 142 -69h67v-256h-117q-243 0 -335 162z"/>
<glyph arabic-form="initial" glyph-name="uniFB60" horiz-adv-x="692" unicode="ٺ" d="M304 1310h135v-150h-135v150zM304 1060h135v-150h-135v150zM537 371q0 -182 -61 -279q-58 -92 -173 -92h-321v256h88q61 0 101 44q44 49 44 155v145h322v-229z"/>
<glyph arabic-form="medial" glyph-name="uniFB61" horiz-adv-x="752" unicode="ٺ" d="M304 1310h135v-150h-135v150zM304 1060h135v-150h-135v150zM770 0h-226q-98 0 -168 109q-69 -109 -168 -109h-226v256h88q61 0 101 44q44 49 44 155v145h322v-145q0 -106 44 -155q40 -44 101 -44h88v-256z"/>
<glyph arabic-form="isolated" glyph-name="uniFB62" horiz-adv-x="1852" unicode="ٿ" d="M1697 669q14 -79 14 -148q0 -152 -69 -248q-102 -142 -305 -204q-254 -77 -599 -79h-14q-201 0 -310 28q-297 77 -297 370q0 135 57 225h322q-46 -94 -46 -184q0 -91 170 -157q65 -25 140 -25q185 0 325 47q218 71 263 159q38 74 38 143q0 37 -11 73h322zM698 1160h135 v-150h-135v150zM698 910h135v-150h-135v150zM923 1160h135v-150h-135v150zM923 910h135v-150h-135v150z"/>
<glyph arabic-form="final" glyph-name="uniFB63" horiz-adv-x="1951" unicode="ٿ" d="M698 1160h135v-150h-135v150zM698 910h135v-150h-135v150zM923 1160h135v-150h-135v150zM923 910h135v-150h-135v150zM1517 162q-39 -52 -180 -93q-262 -77 -599 -79h-14q-201 0 -310 28q-297 77 -297 370q0 135 57 225h322q-46 -94 -46 -184q0 -91 170 -157 q65 -25 140 -25q185 0 325 47q219 73 263 159q38 74 38 143q0 37 -11 73h322q15 -75 15 -120q0 -147 48 -224q46 -69 142 -69h67v-256h-117q-243 0 -335 162z"/>
<glyph arabic-form="initial" glyph-name="uniFB64" horiz-adv-x="692" unicode="ٿ" d="M196 1310h135v-150h-135v150zM196 1060h135v-150h-135v150zM421 1310h135v-150h-135v150zM421 1060h135v-150h-135v150zM537 371q0 -182 -61 -279q-58 -92 -173 -92h-321v256h88q61 0 101 44q44 49 44 155v145h322v-229z"/>
<glyph arabic-form="medial" glyph-name="uniFB65" horiz-adv-x="752" unicode="ٿ" d="M196 1310h135v-150h-135v150zM196 1060h135v-150h-135v150zM421 1310h135v-150h-135v150zM421 1060h135v-150h-135v150zM770 0h-226q-98 0 -168 109q-69 -109 -168 -109h-226v256h88q61 0 101 44q44 49 44 155v145h322v-145q0 -106 44 -155q40 -44 101 -44h88v-256z"/>
<glyph arabic-form="isolated" glyph-name="uniFB66" horiz-adv-x="1852" unicode="ٹ" d="M1697 669q14 -79 14 -148q0 -152 -69 -248q-102 -142 -305 -204q-254 -77 -599 -79h-14q-201 0 -310 28q-297 77 -297 370q0 135 57 225h322q-46 -94 -46 -184q0 -91 170 -157q65 -25 140 -25q185 0 325 47q218 71 263 159q38 74 38 143q0 37 -11 73h322zM902 704h-157 h-106v135h54v388h123v-280q67 84 141 84t97 -19q61 -50 61 -125q0 -92 -60 -144q-46 -39 -153 -39zM852 839h29q45 0 81 13q35 14 35 35q0 35 -24 35h-3q-19 -3 -43 -14q-44 -22 -75 -69z"/>
<glyph arabic-form="final" glyph-name="uniFB67" horiz-adv-x="1951" unicode="ٹ" d="M902 704h-157h-106v135h54v388h123v-280q67 84 141 84t97 -19q61 -50 61 -125q0 -92 -60 -144q-46 -39 -153 -39zM852 839h29q45 0 81 13q35 14 35 35q0 35 -24 35h-3q-19 -3 -43 -14q-44 -22 -75 -69zM1517 162q-39 -52 -180 -93q-262 -77 -599 -79h-14q-201 0 -310 28 q-297 77 -297 370q0 135 57 225h322q-46 -94 -46 -184q0 -91 170 -157q65 -25 140 -25q185 0 325 47q219 73 263 159q38 74 38 143q0 37 -11 73h322q15 -75 15 -120q0 -147 48 -224q46 -69 142 -69h67v-256h-117q-243 0 -335 162z"/>
<glyph arabic-form="initial" glyph-name="uniFB68" horiz-adv-x="692" unicode="ٹ" d="M400 854h-157h-106v135h54v388h123v-280q67 84 141 84t97 -19q61 -50 61 -125q0 -92 -60 -144q-46 -39 -153 -39zM350 989h29q45 0 81 13q35 14 35 35q0 35 -24 35h-3q-19 -3 -43 -14q-44 -22 -75 -69zM537 371q0 -182 -61 -279q-58 -92 -173 -92h-321v256h88 q61 0 101 44q44 49 44 155v145h322v-229z"/>
<glyph arabic-form="medial" glyph-name="uniFB69" horiz-adv-x="752" unicode="ٹ" d="M400 854h-157h-106v135h54v388h123v-280q67 84 141 84t97 -19q61 -50 61 -125q0 -92 -60 -144q-46 -39 -153 -39zM350 989h29q45 0 81 13q35 14 35 35q0 35 -24 35h-3q-19 -3 -43 -14q-44 -22 -75 -69zM770 0h-226q-98 0 -168 109q-69 -109 -168 -109h-226v256h88 q61 0 101 44q44 49 44 155v145h322v-145q0 -106 44 -155q40 -44 101 -44h88v-256z"/>
<glyph arabic-form="isolated" glyph-name="uniFB6A" horiz-adv-x="2141" unicode="ڤ" d="M1616 354q-50 -20 -110 -20q-200 4 -285 86q-88 84 -88 216q0 52 7 96q23 160 156 217q98 42 236 43q212 0 305 -57q73 -45 128 -209q29 -89 29 -262q0 -186 -101 -311q-85 -105 -267 -143q-281 -59 -731 -59h-85q-365 0 -396 8q-297 77 -297 355q0 112 57 230h322 q-51 -104 -51 -157q0 -16 5 -27q41 -102 170 -127q121 -25 297 -25q209 0 457 47q208 39 242 99zM1623 591q32 28 32 66q0 59 -45 88q-24 15 -59 15h-5q-42 0 -67 -29q-24 -26 -24 -75q0 -40 32 -69q20 -18 63 -18q47 0 73 22zM1372 1360h135v-150h-135v150zM1597 1360h135 v-150h-135v150zM1484 1610h136v-150h-136v150z"/>
<glyph arabic-form="final" glyph-name="uniFB6B" horiz-adv-x="2195" unicode="ڤ" d="M1372 1360h135v-150h-135v150zM1597 1360h135v-150h-135v150zM1484 1610h136v-150h-136v150zM1588 363q67 95 67 209q0 74 -45 134q-22 30 -64 30q-43 0 -67 -42q-24 -41 -24 -119q0 -101 61 -164q23 -25 72 -48zM1915 271q113 -15 256 -15h42v-256h-96q-174 0 -317 15 q-57 5 -110 14l-64 -29q-90 -56 -731 -58h-24q-345 0 -457 28q-297 75 -297 349q0 135 57 225h322q-46 -94 -46 -184q0 -70 170 -136q65 -25 297 -25q310 0 368 10q-11 12 -21 25q-126 160 -126 334q0 103 21 168q44 134 148 198q93 58 225 58q178 0 305 -66 q78 -41 125 -158q32 -81 32 -236q0 -131 -79 -261z"/>
<glyph arabic-form="initial" glyph-name="uniFB6C" horiz-adv-x="1206" unicode="ڤ" d="M428 1360h135v-150h-135v150zM653 1360h135v-150h-135v150zM540 1610h136v-150h-136v150zM572 0h-590v256h518q54 0 87 9q74 20 94 89q-1 -5 -81 -5h-29q-211 0 -284 71q-88 84 -88 216q0 52 7 96q25 161 156 217q98 42 236 43h7q205 0 298 -57q72 -45 127 -209 q30 -89 30 -262q0 -151 -102 -311q-42 -66 -170 -117q-90 -36 -216 -36zM688 591q33 28 33 66q0 59 -45 88q-24 15 -59 15h-5q-42 0 -68 -29q-23 -26 -23 -75q0 -40 32 -69q19 -18 63 -18q46 0 72 22z"/>
<glyph arabic-form="medial" glyph-name="uniFB6D" horiz-adv-x="1326" unicode="ڤ" d="M483 1360h135v-150h-135v150zM708 1360h135v-150h-135v150zM595 1610h136v-150h-136v150zM663 416q124 52 124 156q0 78 -42 133q-22 30 -81.5 30t-82.5 -30q-41 -55 -41 -133q0 -104 123 -156zM663.5 992q178.5 0 304.5 -66q79 -41 126 -158q32 -81 32 -236 q0 -126 -150 -256q150 -20 326 -20h43v-256h-97q-173 0 -316 15q-177 19 -269 69q-91 -50 -268 -69q-143 -15 -317 -15h-96v256h42q177 0 327 20q-150 130 -150 256q0 155 32 236q47 117 125 158q127 66 305.5 66z"/>
<glyph arabic-form="isolated" glyph-name="uniFB6E" horiz-adv-x="2141" unicode="ڦ" d="M1616 354q-50 -20 -110 -20q-200 4 -285 86q-88 84 -88 216q0 52 7 96q23 160 156 217q98 42 236 43q212 0 305 -57q73 -45 128 -209q29 -89 29 -262q0 -186 -101 -311q-85 -105 -267 -143q-281 -59 -731 -59h-85q-365 0 -396 8q-297 77 -297 355q0 112 57 230h322 q-51 -104 -51 -157q0 -16 5 -27q41 -102 170 -127q121 -25 297 -25q209 0 457 47q208 39 242 99zM1623 591q32 28 32 66q0 59 -45 88q-24 15 -59 15h-5q-42 0 -67 -29q-24 -26 -24 -75q0 -40 32 -69q20 -18 63 -18q47 0 73 22zM1372 1610h135v-150h-135v150zM1372 1360h135 v-150h-135v150zM1597 1610h135v-150h-135v150zM1597 1360h135v-150h-135v150z"/>
<glyph arabic-form="final" glyph-name="uniFB6F" horiz-adv-x="2195" unicode="ڦ" d="M1372 1610h135v-150h-135v150zM1372 1360h135v-150h-135v150zM1597 1610h135v-150h-135v150zM1597 1360h135v-150h-135v150zM1588 363q67 95 67 209q0 74 -45 134q-22 30 -64 30q-43 0 -67 -42q-24 -41 -24 -119q0 -101 61 -164q23 -25 72 -48zM1915 271q113 -15 256 -15 h42v-256h-96q-174 0 -317 15q-57 5 -110 14l-64 -29q-90 -56 -731 -58h-24q-345 0 -457 28q-297 75 -297 349q0 135 57 225h322q-46 -94 -46 -184q0 -70 170 -136q65 -25 297 -25q310 0 368 10q-11 12 -21 25q-126 160 -126 334q0 103 21 168q44 134 148 198q93 58 225 58 q178 0 305 -66q78 -41 125 -158q32 -81 32 -236q0 -131 -79 -261z"/>
<glyph arabic-form="initial" glyph-name="uniFB70" horiz-adv-x="1206" unicode="ڦ" d="M428 1610h135v-150h-135v150zM428 1360h135v-150h-135v150zM653 1610h135v-150h-135v150zM653 1360h135v-150h-135v150zM572 0h-590v256h518q54 0 87 9q74 20 94 89q-1 -5 -81 -5h-29q-211 0 -284 71q-88 84 -88 216q0 52 7 96q25 161 156 217q98 42 236 43h7 q205 0 298 -57q72 -45 127 -209q30 -89 30 -262q0 -151 -102 -311q-42 -66 -170 -117q-90 -36 -216 -36zM688 591q33 28 33 66q0 59 -45 88q-24 15 -59 15h-5q-42 0 -68 -29q-23 -26 -23 -75q0 -40 32 -69q19 -18 63 -18q46 0 72 22z"/>
<glyph arabic-form="medial" glyph-name="uniFB71" horiz-adv-x="1326" unicode="ڦ" d="M483 1610h135v-150h-135v150zM483 1360h135v-150h-135v150zM708 1610h135v-150h-135v150zM708 1360h135v-150h-135v150zM663 416q124 52 124 156q0 78 -42 133q-22 30 -81.5 30t-82.5 -30q-41 -55 -41 -133q0 -104 123 -156zM663.5 992q178.5 0 304.5 -66 q79 -41 126 -158q32 -81 32 -236q0 -126 -150 -256q150 -20 326 -20h43v-256h-97q-173 0 -316 15q-177 19 -269 69q-91 -50 -268 -69q-143 -15 -317 -15h-96v256h42q177 0 327 20q-150 130 -150 256q0 155 32 236q47 117 125 158q127 66 305.5 66z"/>
<glyph arabic-form="isolated" glyph-name="uniFB72" horiz-adv-x="1328" unicode="ڄ" d="M1143 576q-32 2 -64 2q-256 0 -413 -140q-183 -163 -183 -363q0 -121 93 -227q81 -92 294 -92q271 0 457 153v-275q-148 -134 -452 -134q-393 1 -573 199q-141 154 -141 376q0 179 126 350q92 125 270 203h-21q-72 0 -188 -17q-121 -19 -207 -60v256q245 63 424 63 q317 0 578 -38v-256zM828 340h135v-150h-135v150zM828 90h135v-150h-135v150z"/>
<glyph arabic-form="final" glyph-name="uniFB73" horiz-adv-x="1328" unicode="ڄ" d="M1091 578q0 -60 65 -203q56 -119 131 -119h59v-256h-77q-142 0 -251 149q-64 88 -118 212q-45 107 -61 179q-98 -35 -173 -102q-183 -163 -183 -363q0 -121 93 -227q81 -92 294 -92q271 0 457 153v-275q-148 -134 -452 -134q-393 1 -573 199q-141 154 -141 376 q0 179 126 350q92 125 270 203h-21q-72 0 -188 -17q-121 -19 -207 -60v256q245 63 424 63q317 0 578 -38v-256q-12 1 -24 1q-14 1 -28 1zM693 290h135v-150h-135v150zM693 40h135v-150h-135v150z"/>
<glyph arabic-form="initial" glyph-name="uniFB74" horiz-adv-x="1328" unicode="ڄ" d="M558 -100h135v-150h-135v150zM558 -350h135v-150h-135v150zM780 504q-67 25 -169 40q-84 12 -223 25q-24 2 -61 2q-61 0 -158 -6v256q65 7 133 8q217 0 389 -35q251 -50 467 -122v-256q-82 -32 -183 -98q-117 -76 -238 -168q-103 -79 -294 -116q-174 -34 -346 -34h-115 v256h90q186 0 310 34q128 36 226 105q87 61 172 109z"/>
<glyph arabic-form="medial" glyph-name="uniFB75" horiz-adv-x="1328" unicode="ڄ" d="M558 -100h135v-150h-135v150zM558 -350h135v-150h-135v150zM900 269q-74 -59 -163 -119q-123 -83 -294 -116q-175 -34 -346 -34h-115v256h90q186 0 310 34q128 36 226 105q87 61 172 109q-67 25 -169 40q-84 12 -223 25q-24 2 -61 2q-61 0 -158 -6v256q65 7 133 8 q217 0 389 -35q251 -50 467 -122v-256l-42 -18q20 -49 40 -74q53 -68 131 -68h59v-256h-77q-183 0 -280 117q-47 57 -89 152z"/>
<glyph arabic-form="isolated" glyph-name="uniFB76" horiz-adv-x="1328" unicode="ڃ" d="M1143 576q-32 2 -64 2q-256 0 -413 -140q-183 -163 -183 -363q0 -121 93 -227q81 -92 294 -92q271 0 457 153v-275q-148 -134 -452 -134q-393 1 -573 199q-141 154 -141 376q0 179 126 350q92 125 270 203h-21q-72 0 -188 -17q-121 -19 -207 -60v256q245 63 424 63 q317 0 578 -38v-256zM720 200h135v-150h-135v150zM945 200h135v-150h-135v150z"/>
<glyph arabic-form="final" glyph-name="uniFB77" horiz-adv-x="1328" unicode="ڃ" d="M1091 578q0 -60 65 -203q56 -119 131 -119h59v-256h-77q-142 0 -251 149q-64 88 -118 212q-45 107 -61 179q-98 -35 -173 -102q-183 -163 -183 -363q0 -121 93 -227q81 -92 294 -92q271 0 457 153v-275q-148 -134 -452 -134q-393 1 -573 199q-141 154 -141 376 q0 179 126 350q92 125 270 203h-21q-72 0 -188 -17q-121 -19 -207 -60v256q245 63 424 63q317 0 578 -38v-256q-12 1 -24 1q-14 1 -28 1zM608 125h135v-150h-135v150zM833 125h135v-150h-135v150z"/>
<glyph arabic-form="initial" glyph-name="uniFB78" horiz-adv-x="1328" unicode="ڃ" d="M450 -90h135v-150h-135v150zM675 -90h135v-150h-135v150zM780 504q-67 25 -169 40q-84 12 -223 25q-24 2 -61 2q-61 0 -158 -6v256q65 7 133 8q217 0 389 -35q251 -50 467 -122v-256q-82 -32 -183 -98q-117 -76 -238 -168q-103 -79 -294 -116q-174 -34 -346 -34h-115v256 h90q186 0 310 34q128 36 226 105q87 61 172 109z"/>
<glyph arabic-form="medial" glyph-name="uniFB79" horiz-adv-x="1328" unicode="ڃ" d="M450 -90h135v-150h-135v150zM675 -90h135v-150h-135v150zM900 269q-74 -59 -163 -119q-123 -83 -294 -116q-175 -34 -346 -34h-115v256h90q186 0 310 34q128 36 226 105q87 61 172 109q-67 25 -169 40q-84 12 -223 25q-24 2 -61 2q-61 0 -158 -6v256q65 7 133 8 q217 0 389 -35q251 -50 467 -122v-256l-42 -18q20 -49 40 -74q53 -68 131 -68h59v-256h-77q-183 0 -280 117q-47 57 -89 152z"/>
<glyph arabic-form="isolated" glyph-name="uniFB7A" horiz-adv-x="1328" unicode="چ" d="M1143 576q-32 2 -64 2q-256 0 -413 -140q-183 -163 -183 -363q0 -121 93 -227q81 -92 294 -92q271 0 457 153v-275q-148 -134 -452 -134q-393 1 -573 199q-141 154 -141 376q0 179 126 350q92 125 270 203h-21q-72 0 -188 -17q-121 -19 -207 -60v256q245 63 424 63 q317 0 578 -38v-256zM720 290h135v-150h-135v150zM945 290h135v-150h-135v150zM832 40h136v-150h-136v150z"/>
<glyph arabic-form="final" glyph-name="uniFB7B" horiz-adv-x="1328" unicode="چ" d="M1091 578q0 -60 65 -203q56 -119 131 -119h59v-256h-77q-142 0 -251 149q-64 88 -118 212q-45 107 -61 179q-98 -35 -173 -102q-183 -163 -183 -363q0 -121 93 -227q81 -92 294 -92q271 0 457 153v-275q-148 -134 -452 -134q-393 1 -573 199q-141 154 -141 376 q0 179 126 350q92 125 270 203h-21q-72 0 -188 -17q-121 -19 -207 -60v256q245 63 424 63q317 0 578 -38v-256q-12 1 -24 1q-14 1 -28 1zM567 210h135v-150h-135v150zM792 210h135v-150h-135v150zM679 -40h136v-150h-136v150z"/>
<glyph arabic-form="initial" glyph-name="uniFB7C" horiz-adv-x="1328" unicode="چ" d="M450 -100h135v-150h-135v150zM675 -100h135v-150h-135v150zM562 -350h136v-150h-136v150zM780 504q-67 25 -169 40q-84 12 -223 25q-24 2 -61 2q-61 0 -158 -6v256q65 7 133 8q217 0 389 -35q251 -50 467 -122v-256q-82 -32 -183 -98q-117 -76 -238 -168 q-103 -79 -294 -116q-174 -34 -346 -34h-115v256h90q186 0 310 34q128 36 226 105q87 61 172 109z"/>
<glyph arabic-form="medial" glyph-name="uniFB7D" horiz-adv-x="1328" unicode="چ" d="M450 -100h135v-150h-135v150zM675 -100h135v-150h-135v150zM562 -350h136v-150h-136v150zM900 269q-74 -59 -163 -119q-123 -83 -294 -116q-175 -34 -346 -34h-115v256h90q186 0 310 34q128 36 226 105q87 61 172 109q-67 25 -169 40q-84 12 -223 25q-24 2 -61 2 q-61 0 -158 -6v256q65 7 133 8q217 0 389 -35q251 -50 467 -122v-256l-42 -18q20 -49 40 -74q53 -68 131 -68h59v-256h-77q-183 0 -280 117q-47 57 -89 152z"/>
<glyph arabic-form="isolated" glyph-name="uniFB7E" horiz-adv-x="1328" unicode="ڇ" d="M1143 576q-32 2 -64 2q-256 0 -413 -140q-183 -163 -183 -363q0 -121 93 -227q81 -92 294 -92q271 0 457 153v-275q-148 -134 -452 -134q-393 1 -573 199q-141 154 -141 376q0 179 126 350q92 125 270 203h-21q-72 0 -188 -17q-121 -19 -207 -60v256q245 63 424 63 q317 0 578 -38v-256zM720 315h135v-150h-135v150zM720 65h135v-150h-135v150zM945 315h135v-150h-135v150zM945 65h135v-150h-135v150z"/>
<glyph arabic-form="final" glyph-name="uniFB7F" horiz-adv-x="1328" unicode="ڇ" d="M1091 578q0 -60 65 -203q56 -119 131 -119h59v-256h-77q-142 0 -251 149q-64 88 -118 212q-45 107 -61 179q-98 -35 -173 -102q-183 -163 -183 -363q0 -121 93 -227q81 -92 294 -92q271 0 457 153v-275q-148 -134 -452 -134q-393 1 -573 199q-141 154 -141 376 q0 179 126 350q92 125 270 203h-21q-72 0 -188 -17q-121 -19 -207 -60v256q245 63 424 63q317 0 578 -38v-256q-12 1 -24 1q-14 1 -28 1zM585 255h135v-150h-135v150zM585 5h135v-150h-135v150zM810 255h135v-150h-135v150zM810 5h135v-150h-135v150z"/>
<glyph arabic-form="initial" glyph-name="uniFB80" horiz-adv-x="1328" unicode="ڇ" d="M450 -100h135v-150h-135v150zM450 -350h135v-150h-135v150zM675 -100h135v-150h-135v150zM675 -350h135v-150h-135v150zM780 504q-67 25 -169 40q-84 12 -223 25q-24 2 -61 2q-61 0 -158 -6v256q65 7 133 8q217 0 389 -35q251 -50 467 -122v-256q-82 -32 -183 -98 q-117 -76 -238 -168q-103 -79 -294 -116q-174 -34 -346 -34h-115v256h90q186 0 310 34q128 36 226 105q87 61 172 109z"/>
<glyph arabic-form="medial" glyph-name="uniFB81" horiz-adv-x="1328" unicode="ڇ" d="M450 -100h135v-150h-135v150zM450 -350h135v-150h-135v150zM675 -100h135v-150h-135v150zM675 -350h135v-150h-135v150zM900 269q-74 -59 -163 -119q-123 -83 -294 -116q-175 -34 -346 -34h-115v256h90q186 0 310 34q128 36 226 105q87 61 172 109q-67 25 -169 40 q-84 12 -223 25q-24 2 -61 2q-61 0 -158 -6v256q65 7 133 8q217 0 389 -35q251 -50 467 -122v-256l-42 -18q20 -49 40 -74q53 -68 131 -68h59v-256h-77q-183 0 -280 117q-47 57 -89 152z"/>
<glyph arabic-form="isolated" glyph-name="uniFB82" horiz-adv-x="945" unicode="ڍ" d="M352 222q157 46 180 127q6 23 6 51q0 74 -47 175q-56 121 -196 275h332q117 -164 143 -215q71 -141 71 -272q0 -81 -27 -159q-66 -189 -396 -235q-53 -7 -101 -7q-112 0 -205 38v255q97 -42 174 -42q35 0 66 9zM323 -150h135v-150h-135v150zM548 -150h135v-150h-135v150z "/>
<glyph arabic-form="final" glyph-name="uniFB83" horiz-adv-x="1064" unicode="ڍ" d="M829 474q24 -111 81 -174q40 -44 105 -44h68v-256h-117q-164 0 -213 105q-112 -105 -335 -136q-53 -7 -101 -7q-112 0 -205 38v255q97 -42 174 -42q35 0 66 9q157 45 180 127q6 23 6 51q0 74 -47 175q-56 121 -196 275h332q117 -164 143 -215q41 -82 59 -161zM323 -150 h135v-150h-135v150zM548 -150h135v-150h-135v150z"/>
<glyph arabic-form="isolated" glyph-name="uniFB84" horiz-adv-x="945" unicode="ڌ" d="M352 222q157 46 180 127q6 23 6 51q0 74 -47 175q-56 121 -196 275h332q117 -164 143 -215q71 -141 71 -272q0 -81 -27 -159q-66 -189 -396 -235q-53 -7 -101 -7q-112 0 -205 38v255q97 -42 174 -42q35 0 66 9zM279 1200h135v-150h-135v150zM504 1200h135v-150h-135v150z "/>
<glyph arabic-form="final" glyph-name="uniFB85" horiz-adv-x="1064" unicode="ڌ" d="M829 474q24 -111 81 -174q40 -44 105 -44h68v-256h-117q-164 0 -213 105q-112 -105 -335 -136q-53 -7 -101 -7q-112 0 -205 38v255q97 -42 174 -42q35 0 66 9q157 45 180 127q6 23 6 51q0 74 -47 175q-56 121 -196 275h332q117 -164 143 -215q41 -82 59 -161zM279 1200 h135v-150h-135v150zM504 1200h135v-150h-135v150z"/>
<glyph arabic-form="isolated" glyph-name="uniFB86" horiz-adv-x="945" unicode="ڎ" d="M352 222q157 46 180 127q6 23 6 51q0 74 -47 175q-56 121 -196 275h332q117 -164 143 -215q71 -141 71 -272q0 -81 -27 -159q-66 -189 -396 -235q-53 -7 -101 -7q-112 0 -205 38v255q97 -42 174 -42q35 0 66 9zM279 1200h135v-150h-135v150zM504 1200h135v-150h-135v150z M391 1450h136v-150h-136v150z"/>
<glyph arabic-form="final" glyph-name="uniFB87" horiz-adv-x="1064" unicode="ڎ" d="M829 474q24 -111 81 -174q40 -44 105 -44h68v-256h-117q-164 0 -213 105q-112 -105 -335 -136q-53 -7 -101 -7q-112 0 -205 38v255q97 -42 174 -42q35 0 66 9q157 45 180 127q6 23 6 51q0 74 -47 175q-56 121 -196 275h332q117 -164 143 -215q41 -82 59 -161zM279 1200 h135v-150h-135v150zM504 1200h135v-150h-135v150zM391 1450h136v-150h-136v150z"/>
<glyph arabic-form="isolated" glyph-name="uniFB88" horiz-adv-x="945" unicode="ڈ" d="M352 222q157 46 180 127q6 23 6 51q0 74 -47 175q-56 121 -196 275h332q117 -164 143 -215q71 -141 71 -272q0 -81 -27 -159q-66 -189 -396 -235q-53 -7 -101 -7q-112 0 -205 38v255q97 -42 174 -42q35 0 66 9zM483 1004h-157h-106v135h54v388h123v-280q67 84 141 84 t97 -19q61 -50 61 -125q0 -92 -60 -144q-46 -39 -153 -39zM433 1139h29q45 0 81 13q35 14 35 35q0 35 -24 35h-3q-19 -3 -43 -14q-44 -22 -75 -69z"/>
<glyph arabic-form="final" glyph-name="uniFB89" horiz-adv-x="1064" unicode="ڈ" d="M829 474q24 -111 81 -174q40 -44 105 -44h68v-256h-117q-164 0 -213 105q-112 -105 -335 -136q-53 -7 -101 -7q-112 0 -205 38v255q97 -42 174 -42q35 0 66 9q157 45 180 127q6 23 6 51q0 74 -47 175q-56 121 -196 275h332q117 -164 143 -215q41 -82 59 -161zM483 1004 h-157h-106v135h54v388h123v-280q67 84 141 84t97 -19q61 -50 61 -125q0 -92 -60 -144q-46 -39 -153 -39zM433 1139h29q45 0 81 13q35 14 35 35q0 35 -24 35h-3q-19 -3 -43 -14q-44 -22 -75 -69z"/>
<glyph arabic-form="isolated" glyph-name="uniFB8A" horiz-adv-x="1061" unicode="ژ" d="M552 0q64 101 64 279v5q-1 145 -47 266h322q45 -150 45 -266q0 -265 -79 -396q-115 -189 -315 -287q-207 -101 -618 -101v256q278 0 418 68q137 65 210 176zM540 1010h135v-150h-135v150zM765 1010h135v-150h-135v150zM652 1260h136v-150h-136v150z"/>
<glyph arabic-form="final" glyph-name="uniFB8B" horiz-adv-x="1146" unicode="ژ" d="M540 1010h135v-150h-135v150zM765 1010h135v-150h-135v150zM652 1260h136v-150h-136v150zM911 26q-20 -81 -54 -138q-115 -189 -315 -287q-207 -101 -618 -101v256q278 0 418 68q138 67 210 176q64 99 64 278v6q-1 145 -47 266h322q10 -34 18 -66q31 -125 83 -184 q40 -44 105 -44h68v-256h-117q-78 0 -137 26z"/>
<glyph arabic-form="isolated" glyph-name="uniFB8C" horiz-adv-x="1061" unicode="ڑ" d="M552 0q64 101 64 279v5q-1 145 -47 266h322q45 -150 45 -266q0 -265 -79 -396q-115 -189 -315 -287q-207 -101 -618 -101v256q278 0 418 68q137 65 210 176zM744 804h-157h-106v135h54v388h123v-280q67 84 141 84t97 -19q61 -50 61 -125q0 -92 -60 -144q-46 -39 -153 -39 zM694 939h29q45 0 81 13q35 14 35 35q0 35 -24 35h-3q-19 -3 -43 -14q-44 -22 -75 -69z"/>
<glyph arabic-form="final" glyph-name="uniFB8D" horiz-adv-x="1146" unicode="ڑ" d="M744 804h-157h-106v135h54v388h123v-280q67 84 141 84t97 -19q61 -50 61 -125q0 -92 -60 -144q-46 -39 -153 -39zM694 939h29q45 0 81 13q35 14 35 35q0 35 -24 35h-3q-19 -3 -43 -14q-44 -22 -75 -69zM911 26q-20 -81 -54 -138q-115 -189 -315 -287q-207 -101 -618 -101 v256q278 0 418 68q138 67 210 176q64 99 64 278v6q-1 145 -47 266h322q10 -34 18 -66q31 -125 83 -184q40 -44 105 -44h68v-256h-117q-78 0 -137 26z"/>
<glyph arabic-form="isolated" glyph-name="uniFB8E" horiz-adv-x="1887" unicode="ک" d="M1264 -43q-211 -36 -444 -36q-275 0 -406 28q-297 63 -297 370q0 135 57 225h322q-46 -94 -46 -184q0 -99 170 -157q77 -25 222 -25q162 0 314 35q92 21 116 82q14 36 14 72q0 28 -70 128l-267 380q-45 63 -45 142q0 35 9 68q33 129 121 161l853 310v-256l-514 -199 q-61 -24 -82 -70q-6 -11 -6 -36q0 -27 28 -69l208 -311q140 -210 140 -300q0 -190 -91 -240q-169 -93 -306 -118z"/>
<glyph arabic-form="final" glyph-name="uniFB8F" horiz-adv-x="1887" unicode="ک" d="M1570 75q-169 -93 -306 -118q-198 -36 -444 -36q-275 0 -406 28q-297 63 -297 370q0 135 57 225h322q-46 -94 -46 -184q0 -99 170 -157q73 -25 222 -25q162 0 314 35q92 21 116 82q14 36 14 72q0 28 -70 128l-267 380q-45 63 -45 142q0 35 9 68q33 129 121 161l853 310 v-256l-514 -199q-61 -24 -82 -70q-6 -11 -6 -36q0 -28 28 -69l377 -560q32 -48 76 -84q31 -26 81 -26h58v-256h-128q-139 0 -207 75z"/>
<glyph arabic-form="initial" glyph-name="uniFB90" horiz-adv-x="1071" unicode="ک" d="M448 0h-466v256h356q103 0 118 39q15 36 15 72q0 28 -71 128l-267 380q-44 63 -44 142q0 35 8 68q31 128 122 161l853 310v-256l-514 -199q-61 -24 -83 -70q-5 -11 -5 -36q0 -27 28 -69l208 -311q140 -210 140 -300q0 -168 -91 -240q-95 -75 -307 -75z"/>
<glyph arabic-form="medial" glyph-name="uniFB91" horiz-adv-x="1071" unicode="ک" d="M755 75q-95 -75 -307 -75h-466v256h356q103 0 118 39q15 36 15 72q0 28 -71 128l-267 380q-44 63 -44 142q0 35 8 68q31 128 122 161l853 310v-256l-514 -199q-61 -24 -83 -70q-5 -11 -5 -36q0 -28 28 -69l377 -560q32 -48 75 -84q32 -26 81 -26h59v-256h-129 q-138 0 -206 75z"/>
<glyph arabic-form="isolated" glyph-name="uniFB92" horiz-adv-x="1887" unicode="گ" d="M1264 -43q-211 -36 -444 -36q-275 0 -406 28q-297 63 -297 370q0 135 57 225h322q-46 -94 -46 -184q0 -99 170 -157q77 -25 222 -25q162 0 314 35q92 21 116 82q14 36 14 72q0 28 -70 128l-267 380q-45 63 -45 142q0 35 9 68q33 129 121 161l853 310v-256l-514 -199 q-61 -24 -82 -70q-6 -11 -6 -36q0 -27 28 -69l208 -311q140 -210 140 -300q0 -190 -91 -240q-169 -93 -306 -118zM1888 1685l-956 -345v178l956 345v-178z"/>
<glyph arabic-form="final" glyph-name="uniFB93" horiz-adv-x="1887" unicode="گ" d="M1888 1685l-956 -345v178l956 345v-178zM1570 75q-169 -93 -306 -118q-198 -36 -444 -36q-275 0 -406 28q-297 63 -297 370q0 135 57 225h322q-46 -94 -46 -184q0 -99 170 -157q73 -25 222 -25q162 0 314 35q92 21 116 82q14 36 14 72q0 28 -70 128l-267 380 q-45 63 -45 142q0 35 9 68q33 129 121 161l853 310v-256l-514 -199q-61 -24 -82 -70q-6 -11 -6 -36q0 -28 28 -69l377 -560q32 -48 76 -84q31 -26 81 -26h58v-256h-128q-139 0 -207 75z"/>
<glyph arabic-form="initial" glyph-name="uniFB94" horiz-adv-x="1071" unicode="گ" d="M1072 1685l-956 -345v178l956 345v-178zM448 0h-466v256h356q103 0 118 39q15 36 15 72q0 28 -71 128l-267 380q-44 63 -44 142q0 35 8 68q31 128 122 161l853 310v-256l-514 -199q-61 -24 -83 -70q-5 -11 -5 -36q0 -27 28 -69l208 -311q140 -210 140 -300 q0 -168 -91 -240q-95 -75 -307 -75z"/>
<glyph arabic-form="medial" glyph-name="uniFB95" horiz-adv-x="1071" unicode="گ" d="M1072 1685l-956 -345v178l956 345v-178zM755 75q-95 -75 -307 -75h-466v256h356q103 0 118 39q15 36 15 72q0 28 -71 128l-267 380q-44 63 -44 142q0 35 8 68q31 128 122 161l853 310v-256l-514 -199q-61 -24 -83 -70q-5 -11 -5 -36q0 -28 28 -69l377 -560q32 -48 75 -84 q32 -26 81 -26h59v-256h-129q-138 0 -206 75z"/>
<glyph arabic-form="isolated" glyph-name="uniFB96" horiz-adv-x="1887" unicode="ڳ" d="M765 -200h135v-150h-135v150zM765 -450h135v-150h-135v150zM1888 1685l-956 -345v178l956 345v-178zM1264 -43q-211 -36 -444 -36q-275 0 -406 28q-297 63 -297 370q0 135 57 225h322q-46 -94 -46 -184q0 -99 170 -157q77 -25 222 -25q162 0 314 35q92 21 116 82 q14 36 14 72q0 28 -70 128l-267 380q-45 63 -45 142q0 35 9 68q33 129 121 161l853 310v-256l-514 -199q-61 -24 -82 -70q-6 -11 -6 -36q0 -27 28 -69l208 -311q140 -210 140 -300q0 -190 -91 -240q-169 -93 -306 -118z"/>
<glyph arabic-form="final" glyph-name="uniFB97" horiz-adv-x="1887" unicode="ڳ" d="M1888 1685l-956 -345v178l956 345v-178zM1570 75q-169 -93 -306 -118q-198 -36 -444 -36q-275 0 -406 28q-297 63 -297 370q0 135 57 225h322q-46 -94 -46 -184q0 -99 170 -157q73 -25 222 -25q162 0 314 35q92 21 116 82q14 36 14 72q0 28 -70 128l-267 380 q-45 63 -45 142q0 35 9 68q33 129 121 161l853 310v-256l-514 -199q-61 -24 -82 -70q-6 -11 -6 -36q0 -28 28 -69l377 -560q32 -48 76 -84q31 -26 81 -26h58v-256h-128q-139 0 -207 75zM765 -200h135v-150h-135v150zM765 -450h135v-150h-135v150z"/>
<glyph arabic-form="initial" glyph-name="uniFB98" horiz-adv-x="1071" unicode="ڳ" d="M1072 1685l-956 -345v178l956 345v-178zM448 0h-466v256h356q103 0 118 39q15 36 15 72q0 28 -71 128l-267 380q-44 63 -44 142q0 35 8 68q31 128 122 161l853 310v-256l-514 -199q-61 -24 -83 -70q-5 -11 -5 -36q0 -27 28 -69l208 -311q140 -210 140 -300 q0 -168 -91 -240q-95 -75 -307 -75zM405 -150h135v-150h-135v150zM405 -400h135v-150h-135v150z"/>
<glyph arabic-form="medial" glyph-name="uniFB99" horiz-adv-x="1071" unicode="ڳ" d="M1072 1685l-956 -345v178l956 345v-178zM755 75q-95 -75 -307 -75h-466v256h356q103 0 118 39q15 36 15 72q0 28 -71 128l-267 380q-44 63 -44 142q0 35 8 68q31 128 122 161l853 310v-256l-514 -199q-61 -24 -83 -70q-5 -11 -5 -36q0 -28 28 -69l377 -560q32 -48 75 -84 q32 -26 81 -26h59v-256h-129q-138 0 -206 75zM405 -150h135v-150h-135v150zM405 -400h135v-150h-135v150z"/>
<glyph arabic-form="isolated" glyph-name="uniFB9A" horiz-adv-x="1887" unicode="ڱ" d="M922 1850h135v-150h-135v150zM1147 1850h135v-150h-135v150zM1888 1685l-956 -345v178l956 345v-178zM1264 -43q-211 -36 -444 -36q-275 0 -406 28q-297 63 -297 370q0 135 57 225h322q-46 -94 -46 -184q0 -99 170 -157q77 -25 222 -25q162 0 314 35q92 21 116 82 q14 36 14 72q0 28 -70 128l-267 380q-45 63 -45 142q0 35 9 68q33 129 121 161l853 310v-256l-514 -199q-61 -24 -82 -70q-6 -11 -6 -36q0 -27 28 -69l208 -311q140 -210 140 -300q0 -190 -91 -240q-169 -93 -306 -118z"/>
<glyph arabic-form="final" glyph-name="uniFB9B" horiz-adv-x="1887" unicode="ڱ" d="M1888 1685l-956 -345v178l956 345v-178zM1570 75q-169 -93 -306 -118q-198 -36 -444 -36q-275 0 -406 28q-297 63 -297 370q0 135 57 225h322q-46 -94 -46 -184q0 -99 170 -157q73 -25 222 -25q162 0 314 35q92 21 116 82q14 36 14 72q0 28 -70 128l-267 380 q-45 63 -45 142q0 35 9 68q33 129 121 161l853 310v-256l-514 -199q-61 -24 -82 -70q-6 -11 -6 -36q0 -28 28 -69l377 -560q32 -48 76 -84q31 -26 81 -26h58v-256h-128q-139 0 -207 75zM922 1850h135v-150h-135v150zM1147 1850h135v-150h-135v150z"/>
<glyph arabic-form="initial" glyph-name="uniFB9C" horiz-adv-x="1071" unicode="ڱ" d="M1072 1685l-956 -345v178l956 345v-178zM448 0h-466v256h356q103 0 118 39q15 36 15 72q0 28 -71 128l-267 380q-44 63 -44 142q0 35 8 68q31 128 122 161l853 310v-256l-514 -199q-61 -24 -83 -70q-5 -11 -5 -36q0 -27 28 -69l208 -311q140 -210 140 -300 q0 -168 -91 -240q-95 -75 -307 -75zM68 1850h135v-150h-135v150zM293 1850h135v-150h-135v150z"/>
<glyph arabic-form="medial" glyph-name="uniFB9D" horiz-adv-x="1071" unicode="ڱ" d="M1072 1685l-956 -345v178l956 345v-178zM755 75q-95 -75 -307 -75h-466v256h356q103 0 118 39q15 36 15 72q0 28 -71 128l-267 380q-44 63 -44 142q0 35 8 68q31 128 122 161l853 310v-256l-514 -199q-61 -24 -83 -70q-5 -11 -5 -36q0 -28 28 -69l377 -560q32 -48 75 -84 q32 -26 81 -26h59v-256h-129q-138 0 -206 75zM68 1850h135v-150h-135v150zM293 1850h135v-150h-135v150z"/>
<glyph arabic-form="isolated" glyph-name="uniFB9E" horiz-adv-x="1573" unicode="ں" d="M1436 308q0 -171 -90 -347q-112 -220 -323 -265q-159 -34 -285 -34q-173 0 -310 44q-315 99 -315 462q0 140 36 316h323q-38 -160 -38 -293q0 -178 181 -252q49 -20 119 -20q51 0 106 16q191 54 242 215q30 95 30 214q0 164 -91 386h322q92 -165 93 -442z"/>
<glyph arabic-form="final" glyph-name="uniFB9F" horiz-adv-x="1658" unicode="ں" d="M1376 525q36 -97 45 -108q118 -160 213 -160h43v-257h-57q-151 1 -190 60q0 -98 -84 -261q-114 -220 -323 -265q-159 -34 -285 -34q-173 0 -310 44q-315 99 -315 462q0 140 36 316h323q-38 -160 -38 -293q0 -178 181 -252q49 -21 119 -21q51 0 106 17q192 56 242 215 q30 95 30 214q0 164 -91 386h322q26 -45 33 -63z"/>
<glyph arabic-form="isolated" glyph-name="uniFBA0" horiz-adv-x="1573" unicode="ڻ" d="M777 779h-157h-106v135h54v388h123v-280q67 84 141 84t97 -19q61 -50 61 -125q0 -92 -60 -144q-46 -39 -153 -39zM727 914h29q45 0 81 13q35 14 35 35q0 35 -24 35h-3q-19 -3 -43 -14q-44 -22 -75 -69zM1436 308q0 -171 -90 -347q-112 -220 -323 -265q-159 -34 -285 -34 q-173 0 -310 44q-315 99 -315 462q0 140 36 316h323q-38 -160 -38 -293q0 -178 181 -252q49 -20 119 -20q51 0 106 16q191 54 242 215q30 95 30 214q0 164 -91 386h322q92 -165 93 -442z"/>
<glyph arabic-form="final" glyph-name="uniFBA1" horiz-adv-x="1658" unicode="ڻ" d="M1376 525q36 -97 45 -108q118 -160 213 -160h43v-257h-57q-151 1 -190 60q0 -98 -84 -261q-114 -220 -323 -265q-159 -34 -285 -34q-173 0 -310 44q-315 99 -315 462q0 140 36 316h323q-38 -160 -38 -293q0 -178 181 -252q49 -21 119 -21q51 0 106 17q192 56 242 215 q30 95 30 214q0 164 -91 386h322q26 -45 33 -63zM777 529h-157h-106v135h54v388h123v-280q67 84 141 84t97 -19q61 -50 61 -125q0 -92 -60 -144q-46 -39 -153 -39zM727 664h29q45 0 81 13q35 14 35 35q0 35 -24 35h-3q-19 -3 -43 -14q-44 -22 -75 -69z"/>
<glyph arabic-form="initial" glyph-name="uniFBA2" horiz-adv-x="692" unicode="ڻ" d="M400 854h-157h-106v135h54v388h123v-280q67 84 141 84t97 -19q61 -50 61 -125q0 -92 -60 -144q-46 -39 -153 -39zM350 989h29q45 0 81 13q35 14 35 35q0 35 -24 35h-3q-19 -3 -43 -14q-44 -22 -75 -69zM537 371q0 -182 -61 -279q-58 -92 -173 -92h-321v256h88 q61 0 101 44q44 49 44 155v145h322v-229z"/>
<glyph arabic-form="medial" glyph-name="uniFBA3" horiz-adv-x="752" unicode="ڻ" d="M400 854h-157h-106v135h54v388h123v-280q67 84 141 84t97 -19q61 -50 61 -125q0 -92 -60 -144q-46 -39 -153 -39zM350 989h29q45 0 81 13q35 14 35 35q0 35 -24 35h-3q-19 -3 -43 -14q-44 -22 -75 -69zM770 0h-226q-98 0 -168 109q-69 -109 -168 -109h-226v256h88 q61 0 101 44q44 49 44 155v145h322v-145q0 -106 44 -155q40 -44 101 -44h88v-256z"/>
<glyph arabic-form="isolated" glyph-name="uniFBAA" horiz-adv-x="1728" unicode="ھ" d="M1288 421q-40 -125 -142 -229q26 -5 45 -5q110 0 127 67q7 25 7 60t-18 71t-19 36zM879 36q-228 -83 -274 -90t-117 -7t-185 38q-173 58 -173 283q0 75 14 128h322q-12 -34 -12 -61q0 -83 46 -109q33 -19 54 -19q64 0 134 35q-47 52 -77.5 121t-30.5 137q0 114 108 210 q43 38 113 56q-78 23 -131 23v256q394 -57 647 -267q300 -249 300 -477q0 -161 -84 -247q-112 -113 -317 -113t-337 103zM944 330q89 60 89 102q0 105 -63 105q-44 0 -62.5 -37t-18.5 -78.5t55 -91.5z"/>
<glyph arabic-form="final" glyph-name="uniFBAB" horiz-adv-x="1621" unicode="ھ" d="M888 240q90 26 167 90.5t77 122.5q0 49 -78 49t-122 -64t-44 -182v-16zM888 -10q0 -113 45.5 -174.5t122 -61.5t76.5 50t-76 119.5t-134 76.5zM1028 756q420 0 420 -256q0 -109 -114 -244h306v-256h-339q147 -128 147 -241q0 -259 -420 -259q-194 0 -315 139.5 t-141 300.5h-95q-56 0 -174 37q-173 55 -173 283q0 75 14 128h322q-12 -34 -12 -61q0 -83 46 -109q33 -19 46 -19h20v57q0 196 136 348t326 152z"/>
<glyph arabic-form="initial" glyph-name="uniFBAC" horiz-adv-x="1278" unicode="ھ" d="M838 421q-20 -62 -50 -112q-38 -61 -92 -117q26 -5 45 -5q110 0 127 67q7 30 7 63q0 36 -33 97q-3 7 -4 7zM351 758q-78 18 -131 23v256q394 -57 647 -267q224 -186 283 -368q17 -52 17 -109q0 -160 -84 -247q-110 -113 -320 -113q-202 0 -334 103q-94 -36 -324 -36h-123 v256h96q71 0 142 11q-49 62 -58 84q-32 72 -32 141q0 112 108 210q41 38 113 56zM494 330q89 60 89 105q0 38 -13 69q-15 33 -50 33q-41 0 -66 -45q-15 -28 -15 -56q0 -37 15 -58q18 -27 40 -48z"/>
<glyph arabic-form="medial" glyph-name="uniFBAD" horiz-adv-x="1216" unicode="ھ" d="M483 0q0 -118 49 -189q40 -57 105 -57q90 0 90 49q0 52 -85 129q-76 68 -142 68h-17zM483 256h17q66 0 142 68q85 77 85 129q0 49 -90 49q-65 0 -105 -57q-49 -71 -49 -189zM162 256q4 196 144 358q122 142 317 142h5q229 0 337 -84q78 -64 78 -168q0 -120 -147 -248h339 v-256h-339q147 -128 147 -248q0 -104 -78 -168q-108 -84 -337 -84h-5q-195 0 -317 142q-140 162 -144 358h-180v256h180z"/>
<glyph arabic-form="isolated" glyph-name="uniFBD3" horiz-adv-x="1519" unicode="ڭ" d="M562 1500h135v-150h-135v150zM787 1500h135v-150h-135v150zM674 1750h136v-150h-136v150zM1113 341q66 97 66 270v945h322v-945q0 -327 -99 -450q-135 -168 -333 -198q-120 -18 -283 -18h-17q-284 2 -376 32q-263 88 -263 283q0 75 14 128h322q-12 -34 -12 -61 q0 -46 145 -105q53 -21 165 -21q104 0 194 33q109 39 155 107zM965 1168v-115h-13q-45 0 -87 -6q-72 -11 -72 -42q0 -43 34 -65q31 -20 51 -26q92 -32 92 -117q-1 -110 -80 -152q-74 -39 -194 -39q-60 0 -110 11v121q61 -9 102 -9q76 0 105 14q54 26 54 67q0 23 -70 42 q-58 16 -83 57q-28 45 -28 90q0 82 69 122q74 43 230 47z"/>
<glyph arabic-form="final" glyph-name="uniFBD4" horiz-adv-x="1553" unicode="ڭ" d="M1291 53q-99 -71 -222 -90q-120 -18 -283 -18h-17q-284 2 -376 32q-263 88 -263 283q0 75 14 128h322q-12 -34 -12 -61q0 -46 145 -105q53 -21 165 -21q104 0 194 33q109 39 155 107q66 97 66 270v945h322v-1101q0 -106 44 -155q40 -44 101 -44h88v-256h-321 q-67 0 -122 53zM965 1168v-115h-13q-45 0 -87 -6q-72 -11 -72 -42q0 -43 34 -65q31 -20 51 -26q92 -32 92 -117q-1 -110 -80 -152q-74 -39 -194 -39q-60 0 -110 11v121q61 -9 102 -9q76 0 105 14q54 26 54 67q0 23 -70 42q-58 16 -83 57q-28 45 -28 90q0 82 69 122 q74 43 230 47zM562 1500h135v-150h-135v150zM787 1500h135v-150h-135v150zM674 1750h136v-150h-136v150z"/>
<glyph arabic-form="initial" glyph-name="uniFBD5" horiz-adv-x="877" unicode="ڭ" d="M448 0h-466v256h356q103 0 118 39q15 36 15 72q0 28 -71 128l-267 380q-44 63 -44 142q0 35 8 68q31 128 122 161l853 310v-256l-514 -199q-61 -24 -83 -70q-5 -11 -5 -36q0 -27 28 -69l208 -311q140 -210 140 -300q0 -168 -91 -240q-95 -75 -307 -75zM68 1650h135v-150 h-135v150zM293 1650h135v-150h-135v150zM180 1900h136v-150h-136v150z"/>
<glyph arabic-form="medial" glyph-name="uniFBD6" horiz-adv-x="1017" unicode="ڭ" d="M755 75q-95 -75 -307 -75h-466v256h356q103 0 118 39q15 36 15 72q0 28 -71 128l-267 380q-44 63 -44 142q0 35 8 68q31 128 122 161l853 310v-256l-514 -199q-61 -24 -83 -70q-5 -11 -5 -36q0 -28 28 -69l377 -560q32 -48 75 -84q32 -26 81 -26h59v-256h-129 q-138 0 -206 75zM68 1650h135v-150h-135v150zM293 1650h135v-150h-135v150zM180 1900h136v-150h-136v150z"/>
<glyph arabic-form="isolated" glyph-name="uniFBD7" horiz-adv-x="1145" unicode="ۇ" d="M674 325q-5 41 -48 80q-25 23 -58 23h-3q-38 -1 -64 -30q-27 -30 -27 -58q0 -45 32 -64t63 -19h110q0 39 -5 68zM1008 156q0 -204 -80 -348q-84 -151 -282 -225q-221 -83 -722 -83v256q49 -2 95 -2q155 0 274 21q161 29 235 82q91 64 114 143q-28 0 -117 2 q-201 5 -285 86q-88 84 -88 216q0 52 7 96q25 161 156 217q98 42 236 43q198 0 292.5 -57t140.5 -209q24 -82 24 -238zM593 1091q5 7 9 16q9 23 9 36q0 11 -9 29q-7 14 -29 14q-10 0 -20 -9q-16 -13 -16 -32q0 -24 30 -46q9 -7 26 -8zM516 992q-19 4 -30 13q-75 56 -75 149 q0 100 59 142q49 34 96 34h3q68 -2 116 -52q53 -56 53 -136q0 -45 -16 -75l28 -2l24 -2v-130q-32 0 -61 2q-37 2 -58 5q-40 -52 -92 -92q-147 -115 -294 -115q-11 0 -21 1v140q126 0 226 79q11 8 42 39z"/>
<glyph arabic-form="final" glyph-name="uniFBD8" horiz-adv-x="1155" unicode="ۇ" d="M674 325q-5 41 -48 80q-25 23 -58 23h-3q-38 -1 -64 -30q-27 -30 -27 -58q0 -45 32 -64t63 -19h110q0 39 -5 68zM642 0q-28 0 -117 2q-201 5 -285 86q-88 84 -88 216q0 52 7 96q25 161 156 217q98 42 236 43h7q214 0 298 -57q80 -55 128 -209q17 -57 24 -138h166v-256 h-181q-8 -91 -65 -192q-85 -151 -282 -225q-221 -83 -722 -83v256q49 -2 95 -2q155 0 274 21q157 28 235 82q91 64 114 143zM593 1091q5 7 9 16q9 23 9 36q0 11 -9 29q-7 14 -29 14q-10 0 -20 -9q-16 -13 -16 -32q0 -24 30 -46q9 -7 26 -8zM516 992q-19 4 -30 13 q-75 56 -75 149q0 100 59 142q49 34 96 34h3q68 -2 116 -52q53 -56 53 -136q0 -45 -16 -75l28 -2l24 -2v-130q-32 0 -61 2q-37 2 -58 5q-40 -52 -92 -92q-147 -115 -294 -115q-11 0 -21 1v140q126 0 226 79q11 8 42 39z"/>
<glyph arabic-form="isolated" glyph-name="uniFBD9" horiz-adv-x="1145" unicode="ۆ" d="M460 812l-175 326h161l117 -195l117 195h161l-176 -326h-205zM674 325q-5 41 -48 80q-25 23 -58 23h-3q-38 -1 -64 -30q-27 -30 -27 -58q0 -45 32 -64t63 -19h110q0 39 -5 68zM1008 156q0 -204 -80 -348q-84 -151 -282 -225q-221 -83 -722 -83v256q49 -2 95 -2 q155 0 274 21q161 29 235 82q91 64 114 143q-28 0 -117 2q-201 5 -285 86q-88 84 -88 216q0 52 7 96q25 161 156 217q98 42 236 43q198 0 292.5 -57t140.5 -209q24 -82 24 -238z"/>
<glyph arabic-form="final" glyph-name="uniFBDA" horiz-adv-x="1155" unicode="ۆ" d="M460 812l-175 326h161l117 -195l117 195h161l-176 -326h-205zM674 325q-5 41 -48 80q-25 23 -58 23h-3q-38 -1 -64 -30q-27 -30 -27 -58q0 -45 32 -64t63 -19h110q0 39 -5 68zM642 0q-28 0 -117 2q-201 5 -285 86q-88 84 -88 216q0 52 7 96q25 161 156 217q98 42 236 43 h7q214 0 298 -57q80 -55 128 -209q17 -57 24 -138h166v-256h-181q-8 -91 -65 -192q-85 -151 -282 -225q-221 -83 -722 -83v256q49 -2 95 -2q155 0 274 21q157 28 235 82q91 64 114 143z"/>
<glyph arabic-form="isolated" glyph-name="uniFBDB" horiz-adv-x="1145" unicode="ۈ" d="M674 325q-5 41 -48 80q-25 23 -58 23h-3q-38 -1 -64 -30q-27 -30 -27 -58q0 -45 32 -64t63 -19h110q0 39 -5 68zM1008 156q0 -204 -80 -348q-84 -151 -282 -225q-221 -83 -722 -83v256q49 -2 95 -2q155 0 274 21q161 29 235 82q91 64 114 143q-28 0 -117 2 q-201 5 -285 86q-88 84 -88 216q0 52 7 96q25 161 156 217q98 42 236 43q198 0 292.5 -57t140.5 -209q24 -82 24 -238zM497 763v584h126v-584h-126z"/>
<glyph arabic-form="final" glyph-name="uniFBDC" horiz-adv-x="1155" unicode="ۈ" d="M674 325q-5 41 -48 80q-25 23 -58 23h-3q-38 -1 -64 -30q-27 -30 -27 -58q0 -45 32 -64t63 -19h110q0 39 -5 68zM642 0q-28 0 -117 2q-201 5 -285 86q-88 84 -88 216q0 52 7 96q25 161 156 217q98 42 236 43h7q214 0 298 -57q80 -55 128 -209q17 -57 24 -138h166v-256 h-181q-8 -91 -65 -192q-85 -151 -282 -225q-221 -83 -722 -83v256q49 -2 95 -2q155 0 274 21q157 28 235 82q91 64 114 143zM497 763v584h126v-584h-126z"/>
<glyph arabic-form="isolated" glyph-name="uniFBDE" horiz-adv-x="1145" unicode="ۋ" d="M674 325q-5 41 -48 80q-25 23 -58 23h-3q-38 -1 -64 -30q-27 -30 -27 -58q0 -45 32 -64t63 -19h110q0 39 -5 68zM1008 156q0 -204 -80 -348q-84 -151 -282 -225q-221 -83 -722 -83v256q49 -2 95 -2q155 0 274 21q161 29 235 82q91 64 114 143q-28 0 -117 2 q-201 5 -285 86q-88 84 -88 216q0 52 7 96q25 161 156 217q98 42 236 43q198 0 292.5 -57t140.5 -209q24 -82 24 -238zM405 950h135v-150h-135v150zM630 950h135v-150h-135v150zM517 1200h136v-150h-136v150z"/>
<glyph arabic-form="final" glyph-name="uniFBDF" horiz-adv-x="1155" unicode="ۋ" d="M674 325q-5 41 -48 80q-25 23 -58 23h-3q-38 -1 -64 -30q-27 -30 -27 -58q0 -45 32 -64t63 -19h110q0 39 -5 68zM642 0q-28 0 -117 2q-201 5 -285 86q-88 84 -88 216q0 52 7 96q25 161 156 217q98 42 236 43h7q214 0 298 -57q80 -55 128 -209q17 -57 24 -138h166v-256 h-181q-8 -91 -65 -192q-85 -151 -282 -225q-221 -83 -722 -83v256q49 -2 95 -2q155 0 274 21q157 28 235 82q91 64 114 143zM405 950h135v-150h-135v150zM630 950h135v-150h-135v150zM517 1200h136v-150h-136v150z"/>
<glyph arabic-form="isolated" glyph-name="uniFBE4" horiz-adv-x="1689" unicode="ې" d="M1476 65q-80 -157 -443 -243q-177 -41 -302 -41h-18q-260 0 -332 29q-264 106 -264 370q0 135 57 225h322q-59 -95 -59 -215v-15q3 -78 117 -121q46 -17 159 -17q132 0 252 35q222 66 224 160q1 96 -111 138q-161 61 -162 61q-65 32 -112 78q-59 58 -59 174 q0 166 171 222q126 41 254 41q155 0 250 -46q147 -71 171 -253h-286q-20 68 -120 68h-3q-82 -1 -103 -30q-23 -33 -22 -43q2 -36 112 -66q195 -53 275 -165q69 -97 69 -199q0 -73 -37 -147zM702 -350h135v-150h-135v150zM702 -600h135v-150h-135v150z"/>
<glyph arabic-form="final" glyph-name="uniFBE5" horiz-adv-x="1864" unicode="ې" d="M702 -360h135v-150h-135v150zM702 -610h135v-150h-135v150zM1098 -218q-171 -41 -335 -41h-20q-289 0 -362 29q-264 105 -264 359q0 136 57 225h322q-59 -95 -59 -215v-15q3 -68 117 -110q46 -17 191 -17q168 0 285 35q131 40 131 74q-1 26 -24 43q-49 37 -59 48 q-28 37 -28 121q0 98 44 145q66 73 111 96q69 35 203 35q231 0 324 -184q77 -154 125 -154h26v-256h-55q-154 0 -253 180q-81 147 -142 147q-16 0 -23 -3q-40 -17 -40 -55q0 -44 51 -68q59 -27 59 -147q0 -179 -382 -272z"/>
<glyph arabic-form="initial" glyph-name="uniFBE6" horiz-adv-x="692" unicode="ې" d="M537 371q0 -182 -61 -279q-58 -92 -173 -92h-321v256h88q61 0 101 44q44 49 44 155v145h322v-229zM304 -100h135v-150h-135v150zM304 -350h135v-150h-135v150z"/>
<glyph arabic-form="medial" glyph-name="uniFBE7" horiz-adv-x="752" unicode="ې" d="M770 0h-226q-98 0 -168 109q-69 -109 -168 -109h-226v256h88q61 0 101 44q44 49 44 155v145h322v-145q0 -106 44 -155q40 -44 101 -44h88v-256zM304 -100h135v-150h-135v150zM304 -350h135v-150h-135v150z"/>
<glyph arabic-form="initial" glyph-name="uniFBE8" horiz-adv-x="692" unicode="ى" d="M537 371q0 -182 -61 -279q-58 -92 -173 -92h-321v256h88q61 0 101 44q44 49 44 155v145h322v-229z"/>
<glyph arabic-form="medial" glyph-name="uniFBE9" horiz-adv-x="752" unicode="ى" d="M770 0h-226q-98 0 -168 109q-69 -109 -168 -109h-226v256h88q61 0 101 44q44 49 44 155v145h322v-145q0 -106 44 -155q40 -44 101 -44h88v-256z"/>
<glyph arabic-form="isolated" glyph-name="uniFBFC" horiz-adv-x="1689" unicode="ی" d="M1476 65q-80 -157 -443 -243q-177 -41 -302 -41h-18q-260 0 -332 29q-264 106 -264 370q0 135 57 225h322q-59 -95 -59 -215v-15q3 -78 117 -121q46 -17 159 -17q132 0 252 35q222 66 224 160q1 96 -111 138q-161 61 -162 61q-65 32 -112 78q-59 58 -59 174 q0 166 171 222q126 41 254 41q155 0 250 -46q147 -71 171 -253h-286q-20 68 -120 68h-3q-82 -1 -103 -30q-23 -33 -22 -43q2 -36 112 -66q195 -53 275 -165q69 -97 69 -199q0 -73 -37 -147z"/>
<glyph arabic-form="final" glyph-name="uniFBFD" horiz-adv-x="1864" unicode="ی" d="M1098 -218q-171 -41 -335 -41h-20q-289 0 -362 29q-264 105 -264 359q0 136 57 225h322q-59 -95 -59 -215v-15q3 -68 117 -110q46 -17 191 -17q168 0 285 35q131 40 131 74q-1 26 -24 43q-49 37 -59 48q-28 37 -28 121q0 98 44 145q66 73 111 96q69 35 203 35 q231 0 324 -184q77 -154 125 -154h26v-256h-55q-154 0 -253 180q-81 147 -142 147q-16 0 -23 -3q-40 -17 -40 -55q0 -44 51 -68q59 -27 59 -147q0 -179 -382 -272z"/>
<glyph arabic-form="initial" glyph-name="uniFBFE" horiz-adv-x="692" unicode="ی" d="M196 -190h135v-150h-135v150zM421 -190h135v-150h-135v150zM537 371q0 -182 -61 -279q-58 -92 -173 -92h-321v256h88q61 0 101 44q44 49 44 155v145h322v-229z"/>
<glyph arabic-form="medial" glyph-name="uniFBFF" horiz-adv-x="752" unicode="ی" d="M196 -190h135v-150h-135v150zM421 -190h135v-150h-135v150zM770 0h-226q-98 0 -168 109q-69 -109 -168 -109h-226v256h88q61 0 101 44q44 49 44 155v145h322v-145q0 -106 44 -155q40 -44 101 -44h88v-256z"/>
<glyph arabic-form="isolated" glyph-name="uniFE80" horiz-adv-x="942" unicode="ء" d="M135 40v256q48 4 95 20q67 22 86 36q-108 28 -141 93q-46 93 -46 181q0 30 5 59q31 164 132 243q105 81 198 81q137 0 270 -60v-249q-59 44 -122 58q-21 5 -40 5q-47 0 -82 -30q-51 -46 -51 -108q0 -92 146 -127q29 -7 59 -7q79 0 162 50v-256q-111 -75 -308 -154 q-156 -63 -363 -91z"/>
<glyph arabic-form="isolated" glyph-name="uniFE81" horiz-adv-x="631" unicode="آ" d="M155 1556h322v-1556h-322v1556zM-36 1817l149 123q95 -89 138 -99q70 -17 124 -18q64 0 117 21q105 41 176 112v-170q-56 -52 -162 -88q-76 -26 -136 -27q-90 0 -137 22q-52 24 -115 77l-154 -123v170z"/>
<glyph arabic-form="final" glyph-name="uniFE82" horiz-adv-x="692" unicode="آ" d="M-36 1817l149 123q95 -89 138 -99q70 -17 124 -18q64 0 117 21q105 41 176 112v-170q-56 -52 -162 -88q-76 -26 -136 -27q-90 0 -137 22q-52 24 -115 77l-154 -123v170zM155 371v1185h322v-1101q0 -106 44 -155q40 -44 101 -44h88v-256h-321q-115 0 -173 92 q-61 97 -61 279z"/>
<glyph arabic-form="isolated" glyph-name="uniFE83" horiz-adv-x="631" unicode="أ" d="M155 1556h322v-1556h-322v1556zM146 1708l70 18q-49 12 -63 45q-14 32 -14 69q0 109 50 154q43 40 161 40q59 0 115 -22v-125q-63 20 -115 20q-38 0 -55 -9q-26 -14 -26 -62q0 -52 57 -68q21 -6 48 -1l99 20v-129l-327 -77v127z"/>
<glyph arabic-form="final" glyph-name="uniFE84" horiz-adv-x="692" unicode="أ" d="M155 371v1185h322v-1101q0 -106 44 -155q40 -44 101 -44h88v-256h-321q-115 0 -173 92q-61 97 -61 279zM146 1708l70 18q-49 12 -63 45q-14 32 -14 69q0 109 50 154q43 40 161 40q59 0 115 -22v-125q-63 20 -115 20q-38 0 -55 -9q-26 -14 -26 -62q0 -52 57 -68 q21 -6 48 -1l99 20v-129l-327 -77v127z"/>
<glyph arabic-form="isolated" glyph-name="uniFE85" horiz-adv-x="1145" unicode="ؤ" d="M393 908l70 18q-49 12 -63 45q-14 32 -14 69q0 109 50 154q43 40 161 40q59 0 115 -22v-125q-63 20 -115 20q-38 0 -55 -9q-26 -14 -26 -62q0 -52 57 -68q21 -6 48 -1l99 20v-129l-327 -77v127zM674 325q-5 41 -48 80q-25 23 -58 23h-3q-38 -1 -64 -30q-27 -30 -27 -58 q0 -45 32 -64t63 -19h110q0 39 -5 68zM1008 156q0 -204 -80 -348q-84 -151 -282 -225q-221 -83 -722 -83v256q49 -2 95 -2q155 0 274 21q161 29 235 82q91 64 114 143q-28 0 -117 2q-201 5 -285 86q-88 84 -88 216q0 52 7 96q25 161 156 217q98 42 236 43q198 0 292.5 -57 t140.5 -209q24 -82 24 -238z"/>
<glyph arabic-form="final" glyph-name="uniFE86" horiz-adv-x="1155" unicode="ؤ" d="M393 908l70 18q-49 12 -63 45q-14 32 -14 69q0 109 50 154q43 40 161 40q59 0 115 -22v-125q-63 20 -115 20q-38 0 -55 -9q-26 -14 -26 -62q0 -52 57 -68q21 -6 48 -1l99 20v-129l-327 -77v127zM674 325q-5 41 -48 80q-25 23 -58 23h-3q-38 -1 -64 -30q-27 -30 -27 -58 q0 -45 32 -64t63 -19h110q0 39 -5 68zM642 0q-28 0 -117 2q-201 5 -285 86q-88 84 -88 216q0 52 7 96q25 161 156 217q98 42 236 43h7q214 0 298 -57q80 -55 128 -209q17 -57 24 -138h166v-256h-181q-8 -91 -65 -192q-85 -151 -282 -225q-221 -83 -722 -83v256q49 -2 95 -2 q155 0 274 21q157 28 235 82q91 64 114 143z"/>
<glyph arabic-form="isolated" glyph-name="uniFE87" horiz-adv-x="631" unicode="إ" d="M155 1556h322v-1556h-322v1556zM148 -373l70 18q-49 12 -63 45q-14 32 -14 69q0 109 50 154q43 40 161 40q59 0 115 -22v-125q-63 20 -115 20q-38 0 -55 -9q-26 -14 -26 -62q0 -52 57 -68q21 -6 48 -1l99 20v-129l-327 -77v127z"/>
<glyph arabic-form="final" glyph-name="uniFE88" horiz-adv-x="692" unicode="إ" d="M155 371v1185h322v-1101q0 -106 44 -155q40 -44 101 -44h88v-256h-321q-115 0 -173 92q-61 97 -61 279zM148 -373l70 18q-49 12 -63 45q-14 32 -14 69q0 109 50 154q43 40 161 40q59 0 115 -22v-125q-63 20 -115 20q-38 0 -55 -9q-26 -14 -26 -62q0 -52 57 -68 q21 -6 48 -1l99 20v-129l-327 -77v127z"/>
<glyph arabic-form="isolated" glyph-name="uniFE89" horiz-adv-x="1689" unicode="ئ" d="M1476 65q-80 -157 -443 -243q-177 -41 -302 -41h-18q-260 0 -332 29q-264 106 -264 370q0 135 57 225h322q-59 -95 -59 -215v-15q3 -78 117 -121q46 -17 159 -17q132 0 252 35q222 66 224 160q1 96 -111 138q-161 61 -162 61q-65 32 -112 78q-59 58 -59 174 q0 166 171 222q126 41 254 41q155 0 250 -46q147 -71 171 -253h-286q-20 68 -120 68h-3q-82 -1 -103 -30q-23 -33 -22 -43q2 -36 112 -66q195 -53 275 -165q69 -97 69 -199q0 -73 -37 -147zM325 908l70 18q-49 12 -63 45q-14 32 -14 69q0 109 50 154q43 40 161 40 q59 0 115 -22v-125q-63 20 -115 20q-38 0 -55 -9q-26 -14 -26 -62q0 -52 57 -68q21 -6 48 -1l99 20v-129l-327 -77v127z"/>
<glyph arabic-form="final" glyph-name="uniFE8A" horiz-adv-x="1689" unicode="ئ" d="M505 658l70 18q-49 12 -63 45q-14 32 -14 69q0 109 50 154q43 40 161 40q59 0 115 -22v-125q-63 20 -115 20q-38 0 -55 -9q-26 -14 -26 -62q0 -52 57 -68q21 -6 48 -1l99 20v-129l-327 -77v127zM1098 -218q-171 -41 -335 -41h-20q-289 0 -362 29q-264 105 -264 359 q0 136 57 225h322q-59 -95 -59 -215v-15q3 -68 117 -110q46 -17 191 -17q168 0 285 35q131 40 131 74q-1 26 -24 43q-49 37 -59 48q-28 37 -28 121q0 98 44 145q66 73 111 96q69 35 203 35q231 0 324 -184q77 -154 125 -154h26v-256h-55q-154 0 -253 180q-81 147 -142 147 q-16 0 -23 -3q-40 -17 -40 -55q0 -44 51 -68q59 -27 59 -147q0 -179 -382 -272z"/>
<glyph arabic-form="initial" glyph-name="uniFE8B" horiz-adv-x="692" unicode="ئ" d="M206 958l70 18q-49 12 -63 45q-14 32 -14 69q0 109 50 154q43 40 161 40q59 0 115 -22v-125q-63 20 -115 20q-38 0 -55 -9q-26 -14 -26 -62q0 -52 57 -68q21 -6 48 -1l99 20v-129l-327 -77v127zM537 371q0 -182 -61 -279q-58 -92 -173 -92h-321v256h88q61 0 101 44 q44 49 44 155v145h322v-229z"/>
<glyph arabic-form="medial" glyph-name="uniFE8C" horiz-adv-x="752" unicode="ئ" d="M206 958l70 18q-49 12 -63 45q-14 32 -14 69q0 109 50 154q43 40 161 40q59 0 115 -22v-125q-63 20 -115 20q-38 0 -55 -9q-26 -14 -26 -62q0 -52 57 -68q21 -6 48 -1l99 20v-129l-327 -77v127zM770 0h-226q-98 0 -168 109q-69 -109 -168 -109h-226v256h88q61 0 101 44 q44 49 44 155v145h322v-145q0 -106 44 -155q40 -44 101 -44h88v-256z"/>
<glyph arabic-form="isolated" glyph-name="uniFE8D" horiz-adv-x="631" unicode="ا" d="M155 1556h322v-1556h-322v1556z"/>
<glyph arabic-form="final" glyph-name="uniFE8E" horiz-adv-x="692" unicode="ا" d="M155 371v1185h322v-1101q0 -106 44 -155q40 -44 101 -44h88v-256h-321q-115 0 -173 92q-61 97 -61 279z"/>
<glyph arabic-form="isolated" glyph-name="uniFE8F" horiz-adv-x="1852" unicode="ب" d="M1697 669q14 -79 14 -148q0 -152 -69 -248q-102 -142 -305 -204q-254 -77 -599 -79h-14q-201 0 -310 28q-297 77 -297 370q0 135 57 225h322q-46 -94 -46 -184q0 -91 170 -157q65 -25 140 -25q185 0 325 47q218 71 263 159q38 74 38 143q0 37 -11 73h322zM810 -155h135 v-150h-135v150z"/>
<glyph arabic-form="final" glyph-name="uniFE90" horiz-adv-x="1951" unicode="ب" d="M810 -155h135v-150h-135v150zM1517 162q-39 -52 -180 -93q-262 -77 -599 -79h-14q-201 0 -310 28q-297 77 -297 370q0 135 57 225h322q-46 -94 -46 -184q0 -91 170 -157q65 -25 140 -25q185 0 325 47q219 73 263 159q38 74 38 143q0 37 -11 73h322q15 -75 15 -120 q0 -147 48 -224q46 -69 142 -69h67v-256h-117q-243 0 -335 162z"/>
<glyph arabic-form="initial" glyph-name="uniFE91" horiz-adv-x="692" unicode="ب" d="M309 -205h135v-150h-135v150zM537 371q0 -182 -61 -279q-58 -92 -173 -92h-321v256h88q61 0 101 44q44 49 44 155v145h322v-229z"/>
<glyph arabic-form="medial" glyph-name="uniFE92" horiz-adv-x="752" unicode="ب" d="M309 -205h135v-150h-135v150zM770 0h-226q-98 0 -168 109q-69 -109 -168 -109h-226v256h88q61 0 101 44q44 49 44 155v145h322v-145q0 -106 44 -155q40 -44 101 -44h88v-256z"/>
<glyph arabic-form="isolated" glyph-name="uniFE93" horiz-adv-x="1088" unicode="ة" d="M481 734q197 0 387 -160q127 -106 127 -267q0 -173 -133 -280q-108 -86 -319 -87q-155 0 -281 41q-172 57 -174 309v10q0 173 34 249q82 185 359 185zM513 480q-77 0 -90 -43q-13 -41 -13 -112v-10q1 -68 54 -101q28 -18 78 -18q36 0 73 26q58 42 58 87q0 42 -42 91 q-68 80 -118 80zM270 1050h135v-150h-135v150zM495 1050h135v-150h-135v150z"/>
<glyph arabic-form="final" glyph-name="uniFE94" horiz-adv-x="1117" unicode="ة" d="M360 1050h135v-150h-135v150zM585 1050h135v-150h-135v150zM591 696q-4 33 -4 54h322q2 -200 33 -342q18 -82 55 -108q62 -44 71 -44h68v-256h-202q-83 0 -146 34q-60 31 -75 66q-97 -64 -304 -64h-6q-50 0 -102 15q-181 48 -181 234q0 190 194 328q96 68 277 83z M633 317q-13 40 -20 91q-4 27 -8 50q-85 -10 -123 -42q-40 -35 -40 -89q0 -48 61 -48q87 0 130 38z"/>
<glyph arabic-form="isolated" glyph-name="uniFE95" horiz-adv-x="1852" unicode="ت" d="M1697 669q14 -79 14 -148q0 -152 -69 -248q-102 -142 -305 -204q-254 -77 -599 -79h-14q-201 0 -310 28q-297 77 -297 370q0 135 57 225h322q-46 -94 -46 -184q0 -91 170 -157q65 -25 140 -25q185 0 325 47q218 71 263 159q38 74 38 143q0 37 -11 73h322zM698 850h135 v-150h-135v150zM923 850h135v-150h-135v150z"/>
<glyph arabic-form="final" glyph-name="uniFE96" horiz-adv-x="1951" unicode="ت" d="M698 850h135v-150h-135v150zM923 850h135v-150h-135v150zM1517 162q-39 -52 -180 -93q-262 -77 -599 -79h-14q-201 0 -310 28q-297 77 -297 370q0 135 57 225h322q-46 -94 -46 -184q0 -91 170 -157q65 -25 140 -25q185 0 325 47q219 73 263 159q38 74 38 143q0 37 -11 73 h322q15 -75 15 -120q0 -147 48 -224q46 -69 142 -69h67v-256h-117q-243 0 -335 162z"/>
<glyph arabic-form="initial" glyph-name="uniFE97" horiz-adv-x="692" unicode="ت" d="M196 1000h135v-150h-135v150zM421 1000h135v-150h-135v150zM537 371q0 -182 -61 -279q-58 -92 -173 -92h-321v256h88q61 0 101 44q44 49 44 155v145h322v-229z"/>
<glyph arabic-form="medial" glyph-name="uniFE98" horiz-adv-x="752" unicode="ت" d="M196 1000h135v-150h-135v150zM421 1000h135v-150h-135v150zM770 0h-226q-98 0 -168 109q-69 -109 -168 -109h-226v256h88q61 0 101 44q44 49 44 155v145h322v-145q0 -106 44 -155q40 -44 101 -44h88v-256z"/>
<glyph arabic-form="isolated" glyph-name="uniFE99" horiz-adv-x="1852" unicode="ث" d="M1697 669q14 -79 14 -148q0 -152 -69 -248q-102 -142 -305 -204q-254 -77 -599 -79h-14q-201 0 -310 28q-297 77 -297 370q0 135 57 225h322q-46 -94 -46 -184q0 -91 170 -157q65 -25 140 -25q185 0 325 47q218 71 263 159q38 74 38 143q0 37 -11 73h322zM698 850h135 v-150h-135v150zM923 850h135v-150h-135v150zM810 1100h136v-150h-136v150z"/>
<glyph arabic-form="final" glyph-name="uniFE9A" horiz-adv-x="1951" unicode="ث" d="M698 850h135v-150h-135v150zM923 850h135v-150h-135v150zM810 1100h136v-150h-136v150zM1517 162q-39 -52 -180 -93q-262 -77 -599 -79h-14q-201 0 -310 28q-297 77 -297 370q0 135 57 225h322q-46 -94 -46 -184q0 -91 170 -157q65 -25 140 -25q185 0 325 47 q219 73 263 159q38 74 38 143q0 37 -11 73h322q15 -75 15 -120q0 -147 48 -224q46 -69 142 -69h67v-256h-117q-243 0 -335 162z"/>
<glyph arabic-form="initial" glyph-name="uniFE9B" horiz-adv-x="692" unicode="ث" d="M196 1000h135v-150h-135v150zM421 1000h135v-150h-135v150zM308 1250h136v-150h-136v150zM537 371q0 -182 -61 -279q-58 -92 -173 -92h-321v256h88q61 0 101 44q44 49 44 155v145h322v-229z"/>
<glyph arabic-form="medial" glyph-name="uniFE9C" horiz-adv-x="752" unicode="ث" d="M196 1000h135v-150h-135v150zM421 1000h135v-150h-135v150zM308 1250h136v-150h-136v150zM770 0h-226q-98 0 -168 109q-69 -109 -168 -109h-226v256h88q61 0 101 44q44 49 44 155v145h322v-145q0 -106 44 -155q40 -44 101 -44h88v-256z"/>
<glyph arabic-form="isolated" glyph-name="uniFE9D" horiz-adv-x="1328" unicode="ج" d="M1143 576q-32 2 -64 2q-256 0 -413 -140q-183 -163 -183 -363q0 -121 93 -227q81 -92 294 -92q271 0 457 153v-275q-148 -134 -452 -134q-393 1 -573 199q-141 154 -141 376q0 179 126 350q92 125 270 203h-21q-72 0 -188 -17q-121 -19 -207 -60v256q245 63 424 63 q317 0 578 -38v-256zM832 185h135v-150h-135v150z"/>
<glyph arabic-form="final" glyph-name="uniFE9E" horiz-adv-x="1328" unicode="ج" d="M1091 578q0 -60 65 -203q56 -119 131 -119h59v-256h-77q-142 0 -251 149q-64 88 -118 212q-45 107 -61 179q-98 -35 -173 -102q-183 -163 -183 -363q0 -121 93 -227q81 -92 294 -92q271 0 457 153v-275q-148 -134 -452 -134q-393 1 -573 199q-141 154 -141 376 q0 179 126 350q92 125 270 203h-21q-72 0 -188 -17q-121 -19 -207 -60v256q245 63 424 63q317 0 578 -38v-256q-12 1 -24 1q-14 1 -28 1zM698 85h135v-150h-135v150z"/>
<glyph arabic-form="initial" glyph-name="uniFE9F" horiz-adv-x="1328" unicode="ج" d="M562 -205h135v-150h-135v150zM780 504q-67 25 -169 40q-84 12 -223 25q-24 2 -61 2q-61 0 -158 -6v256q65 7 133 8q217 0 389 -35q251 -50 467 -122v-256q-82 -32 -183 -98q-117 -76 -238 -168q-103 -79 -294 -116q-174 -34 -346 -34h-115v256h90q186 0 310 34 q128 36 226 105q87 61 172 109z"/>
<glyph arabic-form="medial" glyph-name="uniFEA0" horiz-adv-x="1328" unicode="ج" d="M562 -205h135v-150h-135v150zM900 269q-74 -59 -163 -119q-123 -83 -294 -116q-175 -34 -346 -34h-115v256h90q186 0 310 34q128 36 226 105q87 61 172 109q-67 25 -169 40q-84 12 -223 25q-24 2 -61 2q-61 0 -158 -6v256q65 7 133 8q217 0 389 -35q251 -50 467 -122 v-256l-42 -18q20 -49 40 -74q53 -68 131 -68h59v-256h-77q-183 0 -280 117q-47 57 -89 152z"/>
<glyph arabic-form="isolated" glyph-name="uniFEA1" horiz-adv-x="1328" unicode="ح" d="M1143 576q-32 2 -64 2q-256 0 -413 -140q-183 -163 -183 -363q0 -121 93 -227q81 -92 294 -92q271 0 457 153v-275q-148 -134 -452 -134q-393 1 -573 199q-141 154 -141 376q0 179 126 350q92 125 270 203h-21q-72 0 -188 -17q-121 -19 -207 -60v256q245 63 424 63 q317 0 578 -38v-256z"/>
<glyph arabic-form="final" glyph-name="uniFEA2" horiz-adv-x="1328" unicode="ح" d="M1091 578q0 -60 65 -203q56 -119 131 -119h59v-256h-77q-142 0 -251 149q-64 88 -118 212q-45 107 -61 179q-98 -35 -173 -102q-183 -163 -183 -363q0 -121 93 -227q81 -92 294 -92q271 0 457 153v-275q-148 -134 -452 -134q-393 1 -573 199q-141 154 -141 376 q0 179 126 350q92 125 270 203h-21q-72 0 -188 -17q-121 -19 -207 -60v256q245 63 424 63q317 0 578 -38v-256q-12 1 -24 1q-14 1 -28 1z"/>
<glyph arabic-form="initial" glyph-name="uniFEA3" horiz-adv-x="1328" unicode="ح" d="M780 504q-67 25 -169 40q-84 12 -223 25q-24 2 -61 2q-61 0 -158 -6v256q65 7 133 8q217 0 389 -35q251 -50 467 -122v-256q-82 -32 -183 -98q-117 -76 -238 -168q-103 -79 -294 -116q-174 -34 -346 -34h-115v256h90q186 0 310 34q128 36 226 105q87 61 172 109z"/>
<glyph arabic-form="medial" glyph-name="uniFEA4" horiz-adv-x="1328" unicode="ح" d="M900 269q-74 -59 -163 -119q-123 -83 -294 -116q-175 -34 -346 -34h-115v256h90q186 0 310 34q128 36 226 105q87 61 172 109q-67 25 -169 40q-84 12 -223 25q-24 2 -61 2q-61 0 -158 -6v256q65 7 133 8q217 0 389 -35q251 -50 467 -122v-256l-42 -18q20 -49 40 -74 q53 -68 131 -68h59v-256h-77q-183 0 -280 117q-47 57 -89 152z"/>
<glyph arabic-form="isolated" glyph-name="uniFEA5" horiz-adv-x="1328" unicode="خ" d="M1143 576q-32 2 -64 2q-256 0 -413 -140q-183 -163 -183 -363q0 -121 93 -227q81 -92 294 -92q271 0 457 153v-275q-148 -134 -452 -134q-393 1 -573 199q-141 154 -141 376q0 179 126 350q92 125 270 203h-21q-72 0 -188 -17q-121 -19 -207 -60v256q245 63 424 63 q317 0 578 -38v-256zM562 1185h135v-150h-135v150z"/>
<glyph arabic-form="final" glyph-name="uniFEA6" horiz-adv-x="1328" unicode="خ" d="M562 1185h135v-150h-135v150zM1091 578q0 -60 65 -203q56 -119 131 -119h59v-256h-77q-142 0 -251 149q-64 88 -118 212q-45 107 -61 179q-98 -35 -173 -102q-183 -163 -183 -363q0 -121 93 -227q81 -92 294 -92q271 0 457 153v-275q-148 -134 -452 -134q-393 1 -573 199 q-141 154 -141 376q0 179 126 350q92 125 270 203h-21q-72 0 -188 -17q-121 -19 -207 -60v256q245 63 424 63q317 0 578 -38v-256q-12 1 -24 1q-14 1 -28 1z"/>
<glyph arabic-form="initial" glyph-name="uniFEA7" horiz-adv-x="1328" unicode="خ" d="M780 504q-67 25 -169 40q-84 12 -223 25q-24 2 -61 2q-61 0 -158 -6v256q65 7 133 8q217 0 389 -35q251 -50 467 -122v-256q-82 -32 -183 -98q-117 -76 -238 -168q-103 -79 -294 -116q-174 -34 -346 -34h-115v256h90q186 0 310 34q128 36 226 105q87 61 172 109z M562 1085h135v-150h-135v150z"/>
<glyph arabic-form="medial" glyph-name="uniFEA8" horiz-adv-x="1328" unicode="خ" d="M900 269q-74 -59 -163 -119q-123 -83 -294 -116q-175 -34 -346 -34h-115v256h90q186 0 310 34q128 36 226 105q87 61 172 109q-67 25 -169 40q-84 12 -223 25q-24 2 -61 2q-61 0 -158 -6v256q65 7 133 8q217 0 389 -35q251 -50 467 -122v-256l-42 -18q20 -49 40 -74 q53 -68 131 -68h59v-256h-77q-183 0 -280 117q-47 57 -89 152zM562 1085h135v-150h-135v150z"/>
<glyph arabic-form="isolated" glyph-name="uniFEA9" horiz-adv-x="945" unicode="د" d="M352 222q157 46 180 127q6 23 6 51q0 74 -47 175q-56 121 -196 275h332q117 -164 143 -215q71 -141 71 -272q0 -81 -27 -159q-66 -189 -396 -235q-53 -7 -101 -7q-112 0 -205 38v255q97 -42 174 -42q35 0 66 9z"/>
<glyph arabic-form="final" glyph-name="uniFEAA" horiz-adv-x="1064" unicode="د" d="M829 474q24 -111 81 -174q40 -44 105 -44h68v-256h-117q-164 0 -213 105q-112 -105 -335 -136q-53 -7 -101 -7q-112 0 -205 38v255q97 -42 174 -42q35 0 66 9q157 45 180 127q6 23 6 51q0 74 -47 175q-56 121 -196 275h332q117 -164 143 -215q41 -82 59 -161z"/>
<glyph arabic-form="isolated" glyph-name="uniFEAB" horiz-adv-x="945" unicode="ذ" d="M352 222q157 46 180 127q6 23 6 51q0 74 -47 175q-56 121 -196 275h332q117 -164 143 -215q71 -141 71 -272q0 -81 -27 -159q-66 -189 -396 -235q-53 -7 -101 -7q-112 0 -205 38v255q97 -42 174 -42q35 0 66 9zM382 1185h135v-150h-135v150z"/>
<glyph arabic-form="final" glyph-name="uniFEAC" horiz-adv-x="1064" unicode="ذ" d="M382 1185h135v-150h-135v150zM829 474q24 -111 81 -174q40 -44 105 -44h68v-256h-117q-164 0 -213 105q-112 -105 -335 -136q-53 -7 -101 -7q-112 0 -205 38v255q97 -42 174 -42q35 0 66 9q157 45 180 127q6 23 6 51q0 74 -47 175q-56 121 -196 275h332 q117 -164 143 -215q41 -82 59 -161z"/>
<glyph arabic-form="isolated" glyph-name="uniFEAD" horiz-adv-x="1061" unicode="ر" d="M552 0q64 101 64 279v5q-1 145 -47 266h322q45 -150 45 -266q0 -265 -79 -396q-115 -189 -315 -287q-207 -101 -618 -101v256q278 0 418 68q137 65 210 176z"/>
<glyph arabic-form="final" glyph-name="uniFEAE" horiz-adv-x="1146" unicode="ر" d="M911 26q-20 -81 -54 -138q-115 -189 -315 -287q-207 -101 -618 -101v256q278 0 418 68q138 67 210 176q64 99 64 278v6q-1 145 -47 266h322q10 -34 18 -66q31 -125 83 -184q40 -44 105 -44h68v-256h-117q-78 0 -137 26z"/>
<glyph arabic-form="isolated" glyph-name="uniFEAF" horiz-adv-x="1061" unicode="ز" d="M552 0q64 101 64 279v5q-1 145 -47 266h322q45 -150 45 -266q0 -265 -79 -396q-115 -189 -315 -287q-207 -101 -618 -101v256q278 0 418 68q137 65 210 176zM652 935h135v-150h-135v150z"/>
<glyph arabic-form="final" glyph-name="uniFEB0" horiz-adv-x="1146" unicode="ز" d="M652 935h135v-150h-135v150zM911 26q-20 -81 -54 -138q-115 -189 -315 -287q-207 -101 -618 -101v256q278 0 418 68q138 67 210 176q64 99 64 278v6q-1 145 -47 266h322q10 -34 18 -66q31 -125 83 -184q40 -44 105 -44h68v-256h-117q-78 0 -137 26z"/>
<glyph arabic-form="isolated" glyph-name="uniFEB1" horiz-adv-x="2543" unicode="س" d="M933 -40q53 104 52 220q0 122 -15 186l-57 234h322l32 -156q15 -74 40 -134q24 -59 99 -60h2q62 0 83 53q34 84 34 297h322q0 -205 17 -255q32 -95 92 -95q112 0 112 206v294h322v-342q0 -199 -82 -312q-65 -89 -192 -113q-60 -12 -162 -12q-73 0 -125 29 q-134 72 -143 169q-31 -133 -156 -169q-65 -18 -128 -18q-77 0 -138 90q0 -183 -71 -301q-108 -181 -319 -245q-86 -26 -220 -26q-179 0 -273 36q-264 101 -264 442q0 196 95 376h322q-97 -204 -97 -373q0 -162 130 -203q34 -11 82 -11q99 0 169 58q80 67 115 135z"/>
<glyph arabic-form="final" glyph-name="uniFEB2" horiz-adv-x="2605" unicode="س" d="M1406 250h7q60 0 78 53q34 98 34 297h322q0 -205 17 -255q32 -95 92 -95q112 0 112 206v294h322v-295q0 -106 44 -155q40 -44 101 -44h89v-256h-242q-71 0 -116 52q-79 -55 -150 -69q-55 -12 -162 -12q-73 0 -125 29q-134 72 -143 169q-31 -133 -156 -169 q-65 -18 -128 -18q-77 0 -138 90q0 -183 -71 -301q-108 -181 -319 -245q-86 -26 -220 -26q-179 0 -273 36q-264 101 -264 442q0 196 95 376h322q-97 -204 -97 -373q0 -162 130 -203q34 -11 82 -11q99 0 169 58q80 67 115 135q53 104 52 220q0 122 -15 186l-57 234h322 l32 -156q15 -74 40 -134q23 -57 99 -60z"/>
<glyph arabic-form="initial" glyph-name="uniFEB3" horiz-adv-x="1812" unicode="س" d="M368 78q-66 -78 -145 -78h-241v256h88q61 0 101 44q45 50 44 155l-1 145h322v-156q0 -36 41 -134q24 -59 99 -60h2q62 0 83 53q34 84 34 297h322q0 -205 17 -255q32 -95 92 -95q112 0 112 206v294h322v-342q0 -199 -82 -312q-65 -89 -192 -113q-60 -12 -162 -12 q-73 0 -125 29q-134 72 -143 169q-31 -133 -156 -169q-64 -18 -128 -18q-229 0 -304 96z"/>
<glyph arabic-form="medial" glyph-name="uniFEB4" horiz-adv-x="1875" unicode="س" d="M1386 -17q-60 -12 -162 -12q-73 0 -125 29q-134 72 -143 169q-31 -133 -156 -169q-64 -18 -128 -18q-229 0 -304 96q-66 -78 -145 -78h-241v256h88q61 0 101 44q45 50 44 155l-1 145h322v-156q0 -36 41 -134q24 -59 99 -60h2q62 0 83 53q34 84 34 297h322q0 -205 17 -255 q32 -95 92 -95q112 0 112 206v294h322v-295q0 -106 45 -155q39 -44 100 -44h89v-256h-242q-71 0 -116 52q-79 -55 -150 -69z"/>
<glyph arabic-form="isolated" glyph-name="uniFEB5" horiz-adv-x="2543" unicode="ش" d="M1314 950h135v-150h-135v150zM1539 950h135v-150h-135v150zM1426 1200h136v-150h-136v150zM933 -40q53 104 52 220q0 122 -15 186l-57 234h322l32 -156q15 -74 40 -134q24 -59 99 -60h2q62 0 83 53q34 84 34 297h322q0 -205 17 -255q32 -95 92 -95q112 0 112 206v294h322 v-342q0 -199 -82 -312q-65 -89 -192 -113q-60 -12 -162 -12q-73 0 -125 29q-134 72 -143 169q-31 -133 -156 -169q-65 -18 -128 -18q-77 0 -138 90q0 -183 -71 -301q-108 -181 -319 -245q-86 -26 -220 -26q-179 0 -273 36q-264 101 -264 442q0 196 95 376h322 q-97 -204 -97 -373q0 -162 130 -203q34 -11 82 -11q99 0 169 58q80 67 115 135z"/>
<glyph arabic-form="final" glyph-name="uniFEB6" horiz-adv-x="2605" unicode="ش" d="M1314 950h135v-150h-135v150zM1539 950h135v-150h-135v150zM1426 1200h136v-150h-136v150zM1406 250h7q60 0 78 53q34 98 34 297h322q0 -205 17 -255q32 -95 92 -95q112 0 112 206v294h322v-295q0 -106 44 -155q40 -44 101 -44h89v-256h-242q-71 0 -116 52 q-79 -55 -150 -69q-55 -12 -162 -12q-73 0 -125 29q-134 72 -143 169q-31 -133 -156 -169q-65 -18 -128 -18q-77 0 -138 90q0 -183 -71 -301q-108 -181 -319 -245q-86 -26 -220 -26q-179 0 -273 36q-264 101 -264 442q0 196 95 376h322q-97 -204 -97 -373q0 -162 130 -203 q34 -11 82 -11q99 0 169 58q80 67 115 135q53 104 52 220q0 122 -15 186l-57 234h322l32 -156q15 -74 40 -134q23 -57 99 -60z"/>
<glyph arabic-form="initial" glyph-name="uniFEB7" horiz-adv-x="1812" unicode="ش" d="M729 950h135v-150h-135v150zM954 950h135v-150h-135v150zM841 1200h136v-150h-136v150zM368 78q-66 -78 -145 -78h-241v256h88q61 0 101 44q45 50 44 155l-1 145h322v-156q0 -36 41 -134q24 -59 99 -60h2q62 0 83 53q34 84 34 297h322q0 -205 17 -255q32 -95 92 -95 q112 0 112 206v294h322v-342q0 -199 -82 -312q-65 -89 -192 -113q-60 -12 -162 -12q-73 0 -125 29q-134 72 -143 169q-31 -133 -156 -169q-64 -18 -128 -18q-229 0 -304 96z"/>
<glyph arabic-form="medial" glyph-name="uniFEB8" horiz-adv-x="1875" unicode="ش" d="M729 950h135v-150h-135v150zM954 950h135v-150h-135v150zM841 1200h136v-150h-136v150zM1386 -17q-60 -12 -162 -12q-73 0 -125 29q-134 72 -143 169q-31 -133 -156 -169q-64 -18 -128 -18q-229 0 -304 96q-66 -78 -145 -78h-241v256h88q61 0 101 44q45 50 44 155l-1 145 h322v-156q0 -36 41 -134q24 -59 99 -60h2q62 0 83 53q34 84 34 297h322q0 -205 17 -255q32 -95 92 -95q112 0 112 206v294h322v-295q0 -106 45 -155q39 -44 100 -44h89v-256h-242q-71 0 -116 52q-79 -55 -150 -69z"/>
<glyph arabic-form="isolated" glyph-name="uniFEB9" horiz-adv-x="2479" unicode="ص" d="M1587 256h61q142 0 255 50q106 47 106 102q0 28 -53 55q-48 22 -92 22q-67 -2 -167 -81q-60 -50 -110 -148zM939 450h298q2 -30 13 -70q13 -45 45 -90q94 223 267 346q147 105 288 105q166 0 273 -51q208 -99 208 -292q0 -211 -166 -307q-156 -91 -518 -91h-224 q-55 0 -116 30q-25 12 -43 42q0 -183 -71 -301q-108 -181 -319 -245q-86 -26 -220 -26q-179 0 -273 36q-264 101 -264 442q0 196 95 376h322q-97 -204 -97 -373v-3q1 -159 130 -200q34 -11 82 -11q99 0 169 58q80 67 115 135q52 102 52 216q0 94 -46 274z"/>
<glyph arabic-form="final" glyph-name="uniFEBA" horiz-adv-x="2514" unicode="ص" d="M1587 256h61q142 0 255 50q106 47 106 102q0 28 -53 55q-48 22 -92 22q-67 -2 -167 -81q-60 -50 -110 -148zM1423 0q-55 0 -116 30q-25 12 -43 42q0 -183 -71 -301q-108 -181 -319 -245q-86 -26 -220 -26q-179 0 -273 36q-264 101 -264 442q0 196 95 376h322 q-97 -204 -97 -373q0 -162 130 -203q34 -11 82 -11q99 0 169 58q80 67 115 135q52 102 52 216q0 94 -46 274h298q2 -30 13 -70q13 -45 45 -90q94 223 267 346q147 105 288 105q166 0 273 -51q208 -99 208 -292q0 -50 64 -107q40 -35 78 -35h60v-256h-78q-170 0 -249 120 q-19 -16 -41 -29q-146 -91 -518 -91h-224z"/>
<glyph arabic-form="initial" glyph-name="uniFEBB" horiz-adv-x="1781" unicode="ص" d="M888 256h62q141 0 254 50q106 47 106 102q0 28 -53 55q-47 22 -91 22q-68 -2 -167 -81q-61 -50 -111 -148zM410 114q-97 -114 -187 -114h-241v256h88q61 0 101 44q45 50 44 155l-1 145h322v-156q0 -101 61 -154q94 223 266 346q147 105 288 105q167 0 274 -51 q208 -99 208 -292q0 -211 -166 -307q-156 -91 -518 -91h-249q-92 0 -178 30q-68 24 -112 84z"/>
<glyph arabic-form="medial" glyph-name="uniFEBC" horiz-adv-x="1816" unicode="ص" d="M888 256h62q141 0 254 50q106 47 106 102q0 28 -53 55q-47 22 -91 22q-68 -2 -167 -81q-61 -50 -111 -148zM1467 91q-150 -91 -518 -91h-249q-92 0 -178 30q-68 24 -112 84q-97 -114 -187 -114h-241v256h88q61 0 101 44q45 50 44 155l-1 145h322v-156q0 -101 61 -154 q94 223 266 346q147 105 288 105q167 0 274 -51q208 -99 208 -292q0 -50 63 -107q41 -35 79 -35h59v-256h-77q-170 0 -249 120q-23 -19 -41 -29z"/>
<glyph arabic-form="isolated" glyph-name="uniFEBD" horiz-adv-x="2479" unicode="ض" d="M1238 935h135v-150h-135v150zM1587 256h61q142 0 255 50q106 47 106 102q0 28 -53 55q-48 22 -92 22q-67 -2 -167 -81q-60 -50 -110 -148zM939 450h298q2 -30 13 -70q13 -45 45 -90q94 223 267 346q147 105 288 105q166 0 273 -51q208 -99 208 -292q0 -211 -166 -307 q-156 -91 -518 -91h-224q-55 0 -116 30q-25 12 -43 42q0 -183 -71 -301q-108 -181 -319 -245q-86 -26 -220 -26q-179 0 -273 36q-264 101 -264 442q0 196 95 376h322q-97 -204 -97 -373v-3q1 -159 130 -200q34 -11 82 -11q99 0 169 58q80 67 115 135q52 102 52 216 q0 94 -46 274z"/>
<glyph arabic-form="final" glyph-name="uniFEBE" horiz-adv-x="2514" unicode="ض" d="M1238 935h135v-150h-135v150zM1587 256h61q142 0 255 50q106 47 106 102q0 28 -53 55q-48 22 -92 22q-67 -2 -167 -81q-60 -50 -110 -148zM1423 0q-55 0 -116 30q-25 12 -43 42q0 -183 -71 -301q-108 -181 -319 -245q-86 -26 -220 -26q-179 0 -273 36q-264 101 -264 442 q0 196 95 376h322q-97 -204 -97 -373q0 -162 130 -203q34 -11 82 -11q99 0 169 58q80 67 115 135q52 102 52 216q0 94 -46 274h298q2 -30 13 -70q13 -45 45 -90q94 223 267 346q147 105 288 105q166 0 273 -51q208 -99 208 -292q0 -50 64 -107q40 -35 78 -35h60v-256h-78 q-170 0 -249 120q-19 -16 -41 -29q-146 -91 -518 -91h-224z"/>
<glyph arabic-form="initial" glyph-name="uniFEBF" horiz-adv-x="1781" unicode="ض" d="M562 985h135v-150h-135v150zM888 256h62q141 0 254 50q106 47 106 102q0 28 -53 55q-47 22 -91 22q-68 -2 -167 -81q-61 -50 -111 -148zM410 114q-97 -114 -187 -114h-241v256h88q61 0 101 44q45 50 44 155l-1 145h322v-156q0 -101 61 -154q94 223 266 346 q147 105 288 105q167 0 274 -51q208 -99 208 -292q0 -211 -166 -307q-156 -91 -518 -91h-249q-92 0 -178 30q-68 24 -112 84z"/>
<glyph arabic-form="medial" glyph-name="uniFEC0" horiz-adv-x="1816" unicode="ض" d="M562 985h135v-150h-135v150zM888 256h62q141 0 254 50q106 47 106 102q0 28 -53 55q-47 22 -91 22q-68 -2 -167 -81q-61 -50 -111 -148zM1467 91q-150 -91 -518 -91h-249q-92 0 -178 30q-68 24 -112 84q-97 -114 -187 -114h-241v256h88q61 0 101 44q45 50 44 155l-1 145 h322v-156q0 -101 61 -154q94 223 266 346q147 105 288 105q167 0 274 -51q208 -99 208 -292q0 -50 63 -107q41 -35 79 -35h59v-256h-77q-170 0 -249 120q-23 -19 -41 -29z"/>
<glyph arabic-form="isolated" glyph-name="uniFEC1" horiz-adv-x="1914" unicode="ط" d="M1106 0h-587h-389v256h302v1300h322v-1194q125 173 267 274q147 105 288 105q166 0 273 -51q208 -99 208 -292q0 -211 -166 -307q-156 -91 -518 -91zM1046 256h61q142 0 255 50q106 47 106 102q0 28 -53 55q-48 22 -92 22q-67 -2 -167 -81q-60 -50 -110 -148z"/>
<glyph arabic-form="final" glyph-name="uniFEC2" horiz-adv-x="1973" unicode="ط" d="M1046 256h61q142 0 255 50q106 47 106 102q0 28 -53 55q-48 22 -92 22q-67 -2 -167 -81q-60 -50 -110 -148zM1624 91q-150 -91 -518 -91h-587h-389v256h302v1300h322v-1194q125 173 267 274q147 105 288 105q166 0 273 -51q208 -99 208 -292q0 -50 64 -107q40 -35 78 -35 h60v-256h-78q-170 0 -249 120q-13 -11 -41 -29z"/>
<glyph arabic-form="initial" glyph-name="uniFEC3" horiz-adv-x="1736" unicode="ط" d="M928 0h-587h-359v256h272v1300h322v-1194q125 173 266 274q148 105 288 105q167 0 274 -51q208 -99 208 -292q0 -211 -166 -307q-156 -91 -518 -91zM868 256h61q142 0 255 50q106 47 106 102q0 28 -53 55q-48 22 -92 22q-67 -2 -167 -81q-60 -50 -110 -148z"/>
<glyph arabic-form="medial" glyph-name="uniFEC4" horiz-adv-x="1795" unicode="ط" d="M868 256h61q142 0 255 50q106 47 106 102q0 28 -53 55q-48 22 -92 22q-67 -2 -167 -81q-60 -50 -110 -148zM341 0h-359v256h272v1300h322v-1194q125 173 266 274q148 105 288 105q167 0 274 -51q208 -99 208 -292q0 -50 64 -107q40 -35 78 -35h60v-256h-78 q-170 0 -249 120q-13 -11 -41 -29q-150 -91 -518 -91h-587z"/>
<glyph arabic-form="isolated" glyph-name="uniFEC5" horiz-adv-x="1914" unicode="ظ" d="M1106 0h-587h-389v256h302v1300h322v-1194q125 173 267 274q147 105 288 105q166 0 273 -51q208 -99 208 -292q0 -211 -166 -307q-156 -91 -518 -91zM1046 256h61q142 0 255 50q106 47 106 102q0 28 -53 55q-48 22 -92 22q-67 -2 -167 -81q-60 -50 -110 -148zM1022 985 h135v-150h-135v150z"/>
<glyph arabic-form="final" glyph-name="uniFEC6" horiz-adv-x="1973" unicode="ظ" d="M1022 985h135v-150h-135v150zM1046 256h61q142 0 255 50q106 47 106 102q0 28 -53 55q-48 22 -92 22q-67 -2 -167 -81q-60 -50 -110 -148zM1624 91q-150 -91 -518 -91h-587h-389v256h302v1300h322v-1194q125 173 267 274q147 105 288 105q166 0 273 -51q208 -99 208 -292 q0 -50 64 -107q40 -35 78 -35h60v-256h-78q-170 0 -249 120q-13 -11 -41 -29z"/>
<glyph arabic-form="initial" glyph-name="uniFEC7" horiz-adv-x="1736" unicode="ظ" d="M843 985h135v-150h-135v150zM928 0h-587h-359v256h272v1300h322v-1194q125 173 266 274q148 105 288 105q167 0 274 -51q208 -99 208 -292q0 -211 -166 -307q-156 -91 -518 -91zM868 256h61q142 0 255 50q106 47 106 102q0 28 -53 55q-48 22 -92 22q-67 -2 -167 -81 q-60 -50 -110 -148z"/>
<glyph arabic-form="medial" glyph-name="uniFEC8" horiz-adv-x="1795" unicode="ظ" d="M843 985h135v-150h-135v150zM868 256h61q142 0 255 50q106 47 106 102q0 28 -53 55q-48 22 -92 22q-67 -2 -167 -81q-60 -50 -110 -148zM341 0h-359v256h272v1300h322v-1194q125 173 266 274q148 105 288 105q167 0 274 -51q208 -99 208 -292q0 -50 64 -107 q40 -35 78 -35h60v-256h-78q-170 0 -249 120q-13 -11 -41 -29q-150 -91 -518 -91h-587z"/>
<glyph arabic-form="isolated" glyph-name="uniFEC9" horiz-adv-x="1259" unicode="ع" d="M270 353q43 55 85 81q-45 4 -89 34q-79 55 -79 213q0 153 205 316q89 72 365 72q52 0 111 -3v-256q-28 1 -54 1q-164 0 -225 -33q-84 -45 -84 -125q0 -49 43 -77q15 -10 41 -10q43 0 114 29q134 55 371 73v-256q-327 -51 -435 -132q-156 -118 -156 -255q0 -103 93 -192 q80 -77 289 -77h5q271 0 457 153v-275q-148 -134 -452 -134q-426 1 -573 162q-141 154 -141 338q0 214 109 353z"/>
<glyph arabic-form="final" glyph-name="uniFECA" horiz-adv-x="1259" unicode="ع" d="M428 0q0 -78 92 -167q80 -77 289 -77h5q273 1 457 153v-275q-148 -134 -452 -134q-426 1 -572 162q-142 154 -142 338q0 138 79 254q74 112 121 143q-39 31 -65 73q-27 42 -27 84q0 34 12 77q15 55 108 107q80 45 262.5 45t263.5 -45q93 -52 108 -107q11 -41 11 -77 q0 -42 -27 -84q-29 -47 -105 -112q37 -35 91 -56q121 -46 254 -46h86v-256h-106q-415 0 -612 213q-131 -89 -131 -213z"/>
<glyph arabic-form="initial" glyph-name="uniFECB" horiz-adv-x="1259" unicode="ع" d="M608 755q-108 -64 -108 -150q0 -110 54 -150q62 -46 115 -46q17 0 34 5q162 48 371 146v-256q-170 -94 -444 -189q-331 -115 -526 -115h-122v256h99q157 0 274 41q-91 84 -125 148q-45 82 -45 192q0 21 2 43q10 142 191 285q114 90 490 101v-256h-24q-144 0 -236 -55z "/>
<glyph arabic-form="medial" glyph-name="uniFECC" horiz-adv-x="1040" unicode="ع" d="M520 163q-225 -163 -432 -163h-106v256h86q95 0 148 46q15 13 54 56q-76 65 -105 112q-27 42 -27 84q0 36 11 77q15 55 108 107q81 45 263.5 45t262.5 -45q93 -52 108 -107q12 -41 12 -77q0 -42 -27 -84q-30 -47 -106 -112q39 -43 54 -56q53 -46 148 -46h86v-256h-106 q-207 0 -432 163z"/>
<glyph arabic-form="isolated" glyph-name="uniFECD" horiz-adv-x="1259" unicode="غ" d="M270 353q43 55 85 81q-45 4 -89 34q-79 55 -79 213q0 153 205 316q89 72 365 72q52 0 111 -3v-256q-28 1 -54 1q-164 0 -225 -33q-84 -45 -84 -125q0 -49 43 -77q15 -10 41 -10q43 0 114 29q134 55 371 73v-256q-327 -51 -435 -132q-156 -118 -156 -255q0 -103 93 -192 q80 -77 289 -77h5q271 0 457 153v-275q-148 -134 -452 -134q-426 1 -573 162q-141 154 -141 338q0 214 109 353zM428 1335h135v-150h-135v150z"/>
<glyph arabic-form="final" glyph-name="uniFECE" horiz-adv-x="1259" unicode="غ" d="M518 1085h135v-150h-135v150zM428 0q0 -78 92 -167q80 -77 289 -77h5q273 1 457 153v-275q-148 -134 -452 -134q-426 1 -572 162q-142 154 -142 338q0 138 79 254q74 112 121 143q-39 31 -65 73q-27 42 -27 84q0 34 12 77q15 55 108 107q80 45 262.5 45t263.5 -45 q93 -52 108 -107q11 -41 11 -77q0 -42 -27 -84q-29 -47 -105 -112q37 -35 91 -56q121 -46 254 -46h86v-256h-106q-415 0 -612 213q-131 -89 -131 -213z"/>
<glyph arabic-form="initial" glyph-name="uniFECF" horiz-adv-x="1259" unicode="غ" d="M428 1335h135v-150h-135v150zM608 755q-108 -64 -108 -150q0 -110 54 -150q62 -46 115 -46q17 0 34 5q162 48 371 146v-256q-170 -94 -444 -189q-331 -115 -526 -115h-122v256h99q157 0 274 41q-91 84 -125 148q-45 82 -45 192q0 21 2 43q10 142 191 285q114 90 490 101 v-256h-24q-144 0 -236 -55z"/>
<glyph arabic-form="medial" glyph-name="uniFED0" horiz-adv-x="1040" unicode="غ" d="M453 1085h135v-150h-135v150zM520 163q-225 -163 -432 -163h-106v256h86q95 0 148 46q15 13 54 56q-76 65 -105 112q-27 42 -27 84q0 36 11 77q15 55 108 107q81 45 263.5 45t262.5 -45q93 -52 108 -107q12 -41 12 -77q0 -42 -27 -84q-30 -47 -106 -112q39 -43 54 -56 q53 -46 148 -46h86v-256h-106q-207 0 -432 163z"/>
<glyph arabic-form="isolated" glyph-name="uniFED1" horiz-adv-x="2141" unicode="ف" d="M1616 354q-50 -20 -110 -20q-200 4 -285 86q-88 84 -88 216q0 52 7 96q23 160 156 217q98 42 236 43q212 0 305 -57q73 -45 128 -209q29 -89 29 -262q0 -186 -101 -311q-85 -105 -267 -143q-281 -59 -731 -59h-85q-365 0 -396 8q-297 77 -297 355q0 112 57 230h322 q-51 -104 -51 -157q0 -16 5 -27q41 -102 170 -127q121 -25 297 -25q209 0 457 47q208 39 242 99zM1623 591q32 28 32 66q0 59 -45 88q-24 15 -59 15h-5q-42 0 -67 -29q-24 -26 -24 -75q0 -40 32 -69q20 -18 63 -18q47 0 73 22zM1485 1285h135v-150h-135v150z"/>
<glyph arabic-form="final" glyph-name="uniFED2" horiz-adv-x="2195" unicode="ف" d="M1485 1285h135v-150h-135v150zM1588 363q67 95 67 209q0 74 -45 134q-22 30 -64 30q-43 0 -67 -42q-24 -41 -24 -119q0 -101 61 -164q23 -25 72 -48zM1915 271q113 -15 256 -15h42v-256h-96q-174 0 -317 15q-57 5 -110 14l-64 -29q-90 -56 -731 -58h-24q-345 0 -457 28 q-297 75 -297 349q0 135 57 225h322q-46 -94 -46 -184q0 -70 170 -136q65 -25 297 -25q310 0 368 10q-11 12 -21 25q-126 160 -126 334q0 103 21 168q44 134 148 198q93 58 225 58q178 0 305 -66q78 -41 125 -158q32 -81 32 -236q0 -131 -79 -261z"/>
<glyph arabic-form="initial" glyph-name="uniFED3" horiz-adv-x="1206" unicode="ف" d="M540 1285h135v-150h-135v150zM572 0h-590v256h518q54 0 87 9q74 20 94 89q-1 -5 -81 -5h-29q-211 0 -284 71q-88 84 -88 216q0 52 7 96q25 161 156 217q98 42 236 43h7q205 0 298 -57q72 -45 127 -209q30 -89 30 -262q0 -151 -102 -311q-42 -66 -170 -117 q-90 -36 -216 -36zM688 591q33 28 33 66q0 59 -45 88q-24 15 -59 15h-5q-42 0 -68 -29q-23 -26 -23 -75q0 -40 32 -69q19 -18 63 -18q46 0 72 22z"/>
<glyph arabic-form="medial" glyph-name="uniFED4" horiz-adv-x="1326" unicode="ف" d="M596 1285h135v-150h-135v150zM663 416q124 52 124 156q0 78 -42 133q-22 30 -81.5 30t-82.5 -30q-41 -55 -41 -133q0 -104 123 -156zM663.5 992q178.5 0 304.5 -66q79 -41 126 -158q32 -81 32 -236q0 -126 -150 -256q150 -20 326 -20h43v-256h-97q-173 0 -316 15 q-177 19 -269 69q-91 -50 -268 -69q-143 -15 -317 -15h-96v256h42q177 0 327 20q-150 130 -150 256q0 155 32 236q47 117 125 158q127 66 305.5 66z"/>
<glyph arabic-form="isolated" glyph-name="uniFED5" horiz-adv-x="1647" unicode="ق" d="M590 -184q195 0 336 98q275 196 275 470q-67 -50 -170 -50q-196 0 -284 86q-88 84 -88 216q0 52 7 96q22 160 156 217q98 42 236 43q212 0 305 -57q72 -45 127 -209q30 -89 30 -262q0 -206 -54 -344q-94 -239 -306 -402q-206 -158 -575 -158q-300 1 -419 192 q-69 110 -69 284q0 180 73 396h322q-76 -185 -79 -340v-8q0 -47 10 -104q27 -163 167 -164zM1148 591q33 28 33 66q0 59 -45 88q-24 15 -59 15h-5q-42 0 -68 -29q-23 -26 -23 -75q0 -40 31 -69q20 -18 64 -18q46 0 72 22zM900 1300h135v-150h-135v150zM1125 1300h135v-150 h-135v150z"/>
<glyph arabic-form="final" glyph-name="uniFED6" horiz-adv-x="1661" unicode="ق" d="M900 975h135v-150h-135v150zM1125 975h135v-150h-135v150zM1498 0q-18 -110 -81 -212q-86 -131 -243 -193q-242 -95 -525 -95h-23q-344 3 -460 192q-70 113 -70 223q0 10 1 20q7 120 42 165h322q-48 -45 -48 -109q0 -58 10 -86q54 -149 207 -149q238 0 390 98 q97 64 120 146q-20 0 -109 2q-201 5 -284 86q-88 84 -88 216q0 52 7 96q25 161 156 217q98 42 236 43h7q214 0 298 -57q80 -55 127 -209q18 -57 25 -138h164v-256h-181zM1181 325q-6 41 -48 80q-25 23 -58 23h-3q-38 -1 -64 -30q-27 -30 -27 -58q0 -45 31 -64q33 -19 64 -19 h109q0 39 -4 68z"/>
<glyph arabic-form="initial" glyph-name="uniFED7" horiz-adv-x="1206" unicode="ق" d="M428 1300h135v-150h-135v150zM653 1300h135v-150h-135v150zM572 0h-590v256h518q54 0 87 9q74 20 94 89q-1 -5 -81 -5h-29q-211 0 -284 71q-88 84 -88 216q0 52 7 96q25 161 156 217q98 42 236 43h7q205 0 298 -57q72 -45 127 -209q30 -89 30 -262q0 -151 -102 -311 q-42 -66 -170 -117q-90 -36 -216 -36zM688 591q33 28 33 66q0 59 -45 88q-24 15 -59 15h-5q-42 0 -68 -29q-23 -26 -23 -75q0 -40 32 -69q19 -18 63 -18q46 0 72 22z"/>
<glyph arabic-form="medial" glyph-name="uniFED8" horiz-adv-x="1326" unicode="ق" d="M483 1300h135v-150h-135v150zM708 1300h135v-150h-135v150zM663 416q124 52 124 156q0 78 -42 133q-22 30 -81.5 30t-82.5 -30q-41 -55 -41 -133q0 -104 123 -156zM663.5 992q178.5 0 304.5 -66q79 -41 126 -158q32 -81 32 -236q0 -126 -150 -256q150 -20 326 -20h43 v-256h-97q-173 0 -316 15q-177 19 -269 69q-91 -50 -268 -69q-143 -15 -317 -15h-96v256h42q177 0 327 20q-150 130 -150 256q0 155 32 236q47 117 125 158q127 66 305.5 66z"/>
<glyph arabic-form="isolated" glyph-name="uniFED9" horiz-adv-x="1689" unicode="ك" d="M1113 341q66 97 66 270v945h322v-945q0 -327 -99 -450q-135 -168 -333 -198q-120 -18 -283 -18h-17q-284 2 -376 32q-263 88 -263 283q0 75 14 128h322q-12 -34 -12 -61q0 -46 145 -105q53 -21 165 -21q104 0 194 33q109 39 155 107zM965 1168v-115h-13q-45 0 -87 -6 q-72 -11 -72 -42q0 -43 34 -65q31 -20 51 -26q92 -32 92 -117q-1 -110 -80 -152q-74 -39 -194 -39q-60 0 -110 11v121q61 -9 102 -9q76 0 105 14q54 26 54 67q0 23 -70 42q-58 16 -83 57q-28 45 -28 90q0 82 69 122q74 43 230 47z"/>
<glyph arabic-form="final" glyph-name="uniFEDA" horiz-adv-x="1716" unicode="ك" d="M1291 53q-99 -71 -222 -90q-120 -18 -283 -18h-17q-284 2 -376 32q-263 88 -263 283q0 75 14 128h322q-12 -34 -12 -61q0 -46 145 -105q53 -21 165 -21q104 0 194 33q109 39 155 107q66 97 66 270v945h322v-1101q0 -106 44 -155q40 -44 101 -44h88v-256h-321 q-67 0 -122 53zM965 1168v-115h-13q-45 0 -87 -6q-72 -11 -72 -42q0 -43 34 -65q31 -20 51 -26q92 -32 92 -117q-1 -110 -80 -152q-74 -39 -194 -39q-60 0 -110 11v121q61 -9 102 -9q76 0 105 14q54 26 54 67q0 23 -70 42q-58 16 -83 57q-28 45 -28 90q0 82 69 122 q74 43 230 47z"/>
<glyph arabic-form="initial" glyph-name="uniFEDB" horiz-adv-x="1071" unicode="ك" d="M448 0h-466v256h356q103 0 118 39q15 36 15 72q0 28 -71 128l-267 380q-44 63 -44 142q0 35 8 68q31 128 122 161l853 310v-256l-514 -199q-61 -24 -83 -70q-5 -11 -5 -36q0 -27 28 -69l208 -311q140 -210 140 -300q0 -168 -91 -240q-95 -75 -307 -75z"/>
<glyph arabic-form="medial" glyph-name="uniFEDC" horiz-adv-x="1071" unicode="ك" d="M755 75q-95 -75 -307 -75h-466v256h356q103 0 118 39q15 36 15 72q0 28 -71 128l-267 380q-44 63 -44 142q0 35 8 68q31 128 122 161l853 310v-256l-514 -199q-61 -24 -83 -70q-5 -11 -5 -36q0 -28 28 -69l377 -560q32 -48 75 -84q32 -26 81 -26h59v-256h-129 q-138 0 -206 75z"/>
<glyph arabic-form="isolated" glyph-name="uniFEDD" horiz-adv-x="1599" unicode="ل" d="M1041 73q71 97 71 353v1130h322v-1130q0 -317 -88 -461q-105 -170 -344 -243q-169 -51 -331 -51q-142 0 -278 39q-263 76 -263 370q0 135 56 225h322q-58 -94 -58 -211v-19q4 -114 149 -148q44 -10 89 -10q75 0 154 28q144 52 199 128z"/>
<glyph arabic-form="final" glyph-name="uniFEDE" horiz-adv-x="1645" unicode="ل" d="M1372 16q-101 -212 -370 -294q-168 -52 -330 -52q-142 0 -279 40q-263 76 -263 370q0 135 56 225h322q-58 -94 -58 -211v-19q4 -114 149 -148q44 -10 89 -10q75 0 154 28q144 52 199 128q71 97 71 353v1130h322v-1130q0 -77 44 -126q39 -44 101 -44h84v-256h-222 q-59 0 -69 16z"/>
<glyph arabic-form="initial" glyph-name="uniFEDF" horiz-adv-x="692" unicode="ل" d="M537 371q0 -182 -61 -279q-58 -92 -173 -92h-321v256h88q61 0 101 44q44 49 44 155v1101h322v-1185z"/>
<glyph arabic-form="medial" glyph-name="uniFEE0" horiz-adv-x="752" unicode="ل" d="M-18 0v256h88q61 0 101 44q44 49 44 155v1101h322v-1101q0 -106 44 -155q40 -44 101 -44h88v-256h-226q-98 0 -168 109q-69 -109 -168 -109h-226z"/>
<glyph arabic-form="isolated" glyph-name="uniFEE1" horiz-adv-x="1350" unicode="م" d="M518 139q-4 4 -9 4q-18 0 -45 -54q-16 -32 -16 -89v-500h-322v500q0 223 108 292q134 85 216 97l-1 23q0 148 145 280q70 63 212 63t214 -36q168 -85 189 -250q6 -53 6 -101q0 -142 -87 -211q-108 -85 -286 -85q-251 0 -324 67zM889 347q30 23 30 51q0 41 -20 64 q-11 12 -39 32q-8 6 -33 6h-13q-29 -2 -44 -21q-26 -31 -26 -83q0 -28 9 -54q23 -14 77 -14q35 0 59 19z"/>
<glyph arabic-form="final" glyph-name="uniFEE2" horiz-adv-x="1445" unicode="م" d="M889 227q30 23 30 51q0 41 -20 64q-11 12 -39 32q-10 8 -46 6q-29 -2 -44 -21q-26 -31 -26 -83q0 -28 9 -54q23 -14 77 -14q35 0 59 19zM1128 37q-108 -85 -286 -85q-251 0 -324 67q-4 4 -9 4q-18 0 -45 -54q-16 -32 -16 -89v-380h-322v380q0 223 108 292q134 85 216 97 l-1 23q0 148 145 280q70 63 212 63t214 -36q124 -63 168 -169q43 -105 70 -140q27 -34 138 -34h67v-256h-117q-160 0 -193 59q-19 -17 -25 -22z"/>
<glyph arabic-form="initial" glyph-name="uniFEE3" horiz-adv-x="1141" unicode="م" d="M255 388q32 96 129 184q70 63 213 63q141 0 213 -36q168 -85 189 -250q7 -53 7 -101q0 -142 -88 -211q-108 -85 -286 -85q-212 0 -324 67q-24 14 -30 29q-58 -48 -151 -48h-145v256h105q56 0 106 38q41 31 62 94zM680 227q30 23 30 51q0 41 -21 64q-5 6 -39 32 q-8 6 -33 6h-13q-28 -2 -43 -21q-28 -33 -32 -63q-3 -28 -16 -48q54 -40 107 -40q35 0 60 19z"/>
<glyph arabic-form="medial" glyph-name="uniFEE4" horiz-adv-x="1235" unicode="م" d="M680 227q30 23 30 51q0 41 -21 64q-5 6 -39 32q-10 8 -46 6q-28 -2 -43 -21q-28 -33 -32 -63q-3 -28 -16 -48q54 -40 107 -40q35 0 60 19zM918 37q-108 -85 -286 -85q-212 0 -324 67q-24 14 -30 29q-58 -48 -151 -48h-145v256h105q56 0 106 38q41 31 62 94q32 96 129 184 q70 63 213 63q146 0 213 -36q126 -68 168 -169q43 -105 70 -140q27 -34 138 -34h68v-256h-117q-161 0 -194 59q-19 -17 -25 -22z"/>
<glyph arabic-form="isolated" glyph-name="uniFEE5" horiz-adv-x="1573" unicode="ن" d="M1436 308q0 -171 -90 -347q-112 -220 -323 -265q-159 -34 -285 -34q-173 0 -310 44q-315 99 -315 462q0 140 36 316h323q-38 -160 -38 -293q0 -178 181 -252q49 -20 119 -20q51 0 106 16q191 54 242 215q30 95 30 214q0 164 -91 386h322q92 -165 93 -442zM608 935h135 v-150h-135v150z"/>
<glyph arabic-form="final" glyph-name="uniFEE6" horiz-adv-x="1658" unicode="ن" d="M608 785h135v-150h-135v150zM1376 525q36 -97 45 -108q118 -160 213 -160h43v-257h-57q-151 1 -190 60q0 -98 -84 -261q-114 -220 -323 -265q-159 -34 -285 -34q-173 0 -310 44q-315 99 -315 462q0 140 36 316h323q-38 -160 -38 -293q0 -178 181 -252q49 -21 119 -21 q51 0 106 17q192 56 242 215q30 95 30 214q0 164 -91 386h322q26 -45 33 -63z"/>
<glyph arabic-form="initial" glyph-name="uniFEE7" horiz-adv-x="692" unicode="ن" d="M537 371q0 -182 -61 -279q-58 -92 -173 -92h-321v256h88q61 0 101 44q44 49 44 155v145h322v-229zM309 985h135v-150h-135v150z"/>
<glyph arabic-form="medial" glyph-name="uniFEE8" horiz-adv-x="752" unicode="ن" d="M770 0h-226q-98 0 -168 109q-69 -109 -168 -109h-226v256h88q61 0 101 44q44 49 44 155v145h322v-145q0 -106 44 -155q40 -44 101 -44h88v-256zM309 985h135v-150h-135v150z"/>
<glyph arabic-form="isolated" glyph-name="uniFEE9" horiz-adv-x="1088" unicode="ه" d="M481 734q197 0 387 -160q127 -106 127 -267q0 -173 -133 -280q-108 -86 -319 -87q-155 0 -281 41q-172 57 -174 309v10q0 173 34 249q82 185 359 185zM513 480q-77 0 -90 -43q-13 -41 -13 -112v-10q1 -68 54 -101q28 -18 78 -18q36 0 73 26q58 42 58 87q0 42 -42 91 q-68 80 -118 80z"/>
<glyph arabic-form="final" glyph-name="uniFEEA" horiz-adv-x="1117" unicode="ه" d="M591 696q-4 33 -4 54h322q2 -200 33 -342q18 -82 55 -108q62 -44 71 -44h68v-256h-202q-83 0 -146 34q-60 31 -75 66q-97 -64 -304 -64h-6q-50 0 -102 15q-181 48 -181 234q0 190 194 328q96 68 277 83zM633 317q-13 40 -20 91q-4 27 -8 50q-85 -10 -123 -42 q-40 -35 -40 -89q0 -48 61 -48q87 0 130 38z"/>
<glyph arabic-form="initial" glyph-name="uniFEEB" horiz-adv-x="1278" unicode="ه" d="M838 421q-20 -62 -50 -112q-38 -61 -92 -117q26 -5 45 -5q110 0 127 67q7 30 7 63q0 36 -33 97q-3 7 -4 7zM351 758q-78 18 -131 23v256q394 -57 647 -267q224 -186 283 -368q17 -52 17 -109q0 -160 -84 -247q-110 -113 -320 -113q-202 0 -334 103q-94 -36 -324 -36h-123 v256h96q71 0 142 11q-49 62 -58 84q-32 72 -32 141q0 112 108 210q41 38 113 56zM494 330q89 60 89 105q0 38 -13 69q-15 33 -50 33q-41 0 -66 -45q-15 -28 -15 -56q0 -37 15 -58q18 -27 40 -48z"/>
<glyph arabic-form="medial" glyph-name="uniFEEC" horiz-adv-x="1216" unicode="ه" d="M483 0q0 -118 49 -189q40 -57 105 -57q90 0 90 49q0 52 -85 129q-76 68 -142 68h-17zM483 256h17q66 0 142 68q85 77 85 129q0 49 -90 49q-65 0 -105 -57q-49 -71 -49 -189zM162 256q4 196 144 358q122 142 317 142h5q229 0 337 -84q78 -64 78 -168q0 -120 -147 -248h339 v-256h-339q147 -128 147 -248q0 -104 -78 -168q-108 -84 -337 -84h-5q-195 0 -317 142q-140 162 -144 358h-180v256h180z"/>
<glyph arabic-form="isolated" glyph-name="uniFEED" horiz-adv-x="1145" unicode="و" d="M674 325q-5 41 -48 80q-25 23 -58 23h-3q-38 -1 -64 -30q-27 -30 -27 -58q0 -45 32 -64t63 -19h110q0 39 -5 68zM1008 156q0 -204 -80 -348q-84 -151 -282 -225q-221 -83 -722 -83v256q49 -2 95 -2q155 0 274 21q161 29 235 82q91 64 114 143q-28 0 -117 2 q-201 5 -285 86q-88 84 -88 216q0 52 7 96q25 161 156 217q98 42 236 43q198 0 292.5 -57t140.5 -209q24 -82 24 -238z"/>
<glyph arabic-form="final" glyph-name="uniFEEE" horiz-adv-x="1155" unicode="و" d="M674 325q-5 41 -48 80q-25 23 -58 23h-3q-38 -1 -64 -30q-27 -30 -27 -58q0 -45 32 -64t63 -19h110q0 39 -5 68zM642 0q-28 0 -117 2q-201 5 -285 86q-88 84 -88 216q0 52 7 96q25 161 156 217q98 42 236 43h7q214 0 298 -57q80 -55 128 -209q17 -57 24 -138h166v-256 h-181q-8 -91 -65 -192q-85 -151 -282 -225q-221 -83 -722 -83v256q49 -2 95 -2q155 0 274 21q157 28 235 82q91 64 114 143z"/>
<glyph arabic-form="isolated" glyph-name="uniFEEF" horiz-adv-x="1689" unicode="ى" d="M1476 65q-80 -157 -443 -243q-177 -41 -302 -41h-18q-260 0 -332 29q-264 106 -264 370q0 135 57 225h322q-59 -95 -59 -215v-15q3 -78 117 -121q46 -17 159 -17q132 0 252 35q222 66 224 160q1 96 -111 138q-161 61 -162 61q-65 32 -112 78q-59 58 -59 174 q0 166 171 222q126 41 254 41q155 0 250 -46q147 -71 171 -253h-286q-20 68 -120 68h-3q-82 -1 -103 -30q-23 -33 -22 -43q2 -36 112 -66q195 -53 275 -165q69 -97 69 -199q0 -73 -37 -147z"/>
<glyph arabic-form="final" glyph-name="uniFEF0" horiz-adv-x="1864" unicode="ى" d="M1098 -218q-171 -41 -335 -41h-20q-289 0 -362 29q-264 105 -264 359q0 136 57 225h322q-59 -95 -59 -215v-15q3 -68 117 -110q46 -17 191 -17q168 0 285 35q131 40 131 74q-1 26 -24 43q-49 37 -59 48q-28 37 -28 121q0 98 44 145q66 73 111 96q69 35 203 35 q231 0 324 -184q77 -154 125 -154h26v-256h-55q-154 0 -253 180q-81 147 -142 147q-16 0 -23 -3q-40 -17 -40 -55q0 -44 51 -68q59 -27 59 -147q0 -179 -382 -272z"/>
<glyph arabic-form="isolated" glyph-name="uniFEF1" horiz-adv-x="1689" unicode="ي" d="M1476 65q-80 -157 -443 -243q-177 -41 -302 -41h-18q-260 0 -332 29q-264 106 -264 370q0 135 57 225h322q-59 -95 -59 -215v-15q3 -78 117 -121q46 -17 159 -17q132 0 252 35q222 66 224 160q1 96 -111 138q-161 61 -162 61q-65 32 -112 78q-59 58 -59 174 q0 166 171 222q126 41 254 41q155 0 250 -46q147 -71 171 -253h-286q-20 68 -120 68h-3q-82 -1 -103 -30q-23 -33 -22 -43q2 -36 112 -66q195 -53 275 -165q69 -97 69 -199q0 -73 -37 -147zM585 -350h135v-150h-135v150zM810 -350h135v-150h-135v150z"/>
<glyph arabic-form="final" glyph-name="uniFEF2" horiz-adv-x="1864" unicode="ي" d="M585 -350h135v-150h-135v150zM810 -350h135v-150h-135v150zM1098 -218q-171 -41 -335 -41h-20q-289 0 -362 29q-264 105 -264 359q0 136 57 225h322q-59 -95 -59 -215v-15q3 -68 117 -110q46 -17 191 -17q168 0 285 35q131 40 131 74q-1 26 -24 43q-49 37 -59 48 q-28 37 -28 121q0 98 44 145q66 73 111 96q69 35 203 35q231 0 324 -184q77 -154 125 -154h26v-256h-55q-154 0 -253 180q-81 147 -142 147q-16 0 -23 -3q-40 -17 -40 -55q0 -44 51 -68q59 -27 59 -147q0 -179 -382 -272z"/>
<glyph arabic-form="initial" glyph-name="uniFEF3" horiz-adv-x="692" unicode="ي" d="M196 -190h135v-150h-135v150zM421 -190h135v-150h-135v150zM537 371q0 -182 -61 -279q-58 -92 -173 -92h-321v256h88q61 0 101 44q44 49 44 155v145h322v-229z"/>
<glyph arabic-form="medial" glyph-name="uniFEF4" horiz-adv-x="752" unicode="ي" d="M196 -190h135v-150h-135v150zM421 -190h135v-150h-135v150zM770 0h-226q-98 0 -168 109q-69 -109 -168 -109h-226v256h88q61 0 101 44q44 49 44 155v145h322v-145q0 -106 44 -155q40 -44 101 -44h88v-256z"/>
<glyph glyph-name=".notdef" d="M195 -248h716v1577h-716v-1577zM92 -362v1806h921v-1806h-921z" horiz-adv-x="1106"/>
<glyph glyph-name=".null" horiz-adv-x="0"/>
<glyph glyph-name="nonmarkingreturn" horiz-adv-x="682"/>
<glyph glyph-name="space" horiz-adv-x="641" unicode=" "/>
<glyph glyph-name="exclam" horiz-adv-x="840" unicode="!" d="M258 356h324v-356h-324v356zM258 1493h324v-573l-46 -418h-232l-46 418v573z"/>
<glyph glyph-name="quotedbl" horiz-adv-x="960" unicode='&quot;' d="M389 1493v-555h-213v555h213zM785 1493v-555h-213v555h213z"/>
<glyph glyph-name="numbersign" d="M922 872h-238l-63 -274h238zM820 1470l-86 -385h237l87 385h199l-87 -385h249v-213h-297l-62 -274h256v-215h-303l-86 -383h-199l86 383h-237l-87 -383h-200l86 383h-251v215h295l63 274h-254v213h304l86 385h201z" unicode="#"/>
<glyph glyph-name="dollar" horiz-adv-x="1282" unicode="$" d="M716 510v-278q78 1 117 34t39 99q0 67 -36 101t-120 44zM570 836v261q-64 -5 -102 -39t-39 -87q-1 -59 35 -93t106 -42zM716 -301h-146l-1 301q-113 5 -218 28t-205 64v262q103 -58 209 -90t215 -36v311l-30 6q-216 42 -306 132t-90 259q0 180 110 280t315 109l1 231h146 v-227q90 -8 180 -25t180 -44v-254q-90 42 -180 66t-180 28v-287l28 -6q229 -39 321 -133t92 -277q1 -185 -109 -283t-332 -112v-303z"/>
<glyph glyph-name="percent" horiz-adv-x="1846" unicode="%" d="M418 1352q-64 0 -99 -62t-35 -176q0 -116 35 -178t99 -62q65 0 100 62t35 178q1 114 -35 176t-100 62zM418 1520q168 0 264 -108t96 -298q0 -189 -96 -298t-264 -109q-167 0 -263 109t-96 298q0 190 96 298t263 108zM603 -29h-199l840 1549h200zM1428 784q168 0 264 -108 t96 -297t-96 -299t-264 -109q-167 -1 -264 109t-97 299t97 297t264 108zM1428 616q-64 0 -99 -62t-35 -175q0 -115 35 -177t99 -61q66 -1 100 61t34 177q0 113 -35 175t-99 62z"/>
<glyph glyph-name="ampersand" horiz-adv-x="1607" unicode="&amp;" d="M540 743q-58 -47 -88 -107t-30 -130q0 -115 76 -196t184 -81q60 1 112 21t98 61zM719 991l368 -450q49 70 73 157t29 197h280q-14 -182 -64 -324t-139 -249l264 -322h-382l-88 109q-94 -70 -198 -104t-222 -34q-237 1 -383 139t-146 357q0 147 64 259t210 218 q-38 53 -56 106t-18 111q1 163 115 261t304 98q82 0 170 -14t185 -44v-278q-83 48 -159 71t-148 23q-70 0 -108 -30t-38 -83q0 -33 22 -77t65 -97z"/>
<glyph glyph-name="quotesingle" horiz-adv-x="564" unicode="&apos;" d="M389 1493v-555h-213v555h213z"/>
<glyph glyph-name="parenleft" horiz-adv-x="842" unicode="(" d="M695 -270h-267q-138 248 -204 470t-66 441t66 443t204 470h267q-115 -238 -173 -464t-58 -447t58 -448t173 -465z"/>
<glyph glyph-name="parenright" horiz-adv-x="842" unicode=")" d="M148 -270q114 238 172 465t58 448t-58 447t-172 464h267q137 -246 203 -470t66 -443t-66 -441t-203 -470h-267z"/>
<glyph glyph-name="asterisk" horiz-adv-x="963" unicode="*" d="M927 1217l-297 -173l297 -174l-68 -141l-300 184v-344h-153v344l-301 -184l-68 141l301 174l-301 173l68 141l301 -182v344h153v-344l300 182z"/>
<glyph glyph-name="plus" d="M879 1284v-524h470v-236h-470v-524h-214v524h-470v236h470v524h214z" unicode="+"/>
<glyph glyph-name="comma" horiz-adv-x="700" unicode="," d="M188 387h324v-305l-222 -373h-192l90 373v305z"/>
<glyph glyph-name="hyphen" horiz-adv-x="765" unicode="-" d="M100 735h565v-291h-565v291z"/>
<glyph glyph-name="period" horiz-adv-x="700" unicode="." d="M188 387h324v-387h-324v387z"/>
<glyph glyph-name="slash" horiz-adv-x="673" unicode="/" d="M473 1493h200l-474 -1683h-199z"/>
<glyph glyph-name="zero" horiz-adv-x="1282" unicode="0" d="M1194 745q0 -371 -144 -572.5t-408 -201.5q-266 0 -410 201.5t-144 572.5q0 372 144 573.5t410 201.5q264 0 408 -201.5t144 -573.5zM848 748q0 280 -47.5 394.5t-158.5 114.5q-112 0 -159.5 -114.5t-47.5 -394.5q0 -283 47.5 -399t159.5 -116q110 0 158 116t48 399z"/>
<glyph glyph-name="one" horiz-adv-x="1282" unicode="1" d="M216 266h306v965l-314 -72v262l312 72h330v-1227h306v-266h-940v266z"/>
<glyph glyph-name="two" horiz-adv-x="1282" unicode="2" d="M531 283h591v-283h-976v283l490 481q66 66 97.5 129t31.5 131q0 105 -63.5 169t-168.5 64q-81 0 -177.5 -38.5t-206.5 -114.5v328q117 43 231.5 65.5t224.5 22.5q241 0 374.5 -118t133.5 -329q0 -122 -56.5 -227.5t-238.5 -282.5z"/>
<glyph glyph-name="three" horiz-adv-x="1282" unicode="3" d="M859 805q135 -39 206 -135.5t71 -245.5q0 -222 -153 -337.5t-447 -115.5q-103 0 -207 18.5t-206 55.5v297q97 -54 193 -81.5t189 -27.5q138 0 211 53t73 152q0 102 -75 154.5t-222 52.5h-138v248h146q130 0 194 45.5t64 138.5q0 86 -62 133t-176 47q-84 0 -169 -21 t-170 -62v282q103 32 203.5 48t197.5 16q262 0 392 -95.5t130 -287.5q0 -131 -62 -214.5t-183 -117.5z"/>
<glyph glyph-name="four" horiz-adv-x="1282" unicode="4" d="M621 1493h385v-942h192v-279h-192v-272h-327v272h-596v330zM679 1176l-380 -625h380v625z"/>
<glyph glyph-name="five" horiz-adv-x="1282" unicode="5" d="M195 1493h862v-283h-585v-231q39 12 79 18.5t83 6.5q246 0 383 -136.5t137 -380.5q0 -242 -149 -379t-414 -137q-114 0 -226 24.5t-223 74.5v303q110 -70 208.5 -105t185.5 -35q126 0 198.5 68.5t72.5 185.5q0 118 -72.5 186t-198.5 68q-74 0 -159 -21.5t-182 -66.5v840z "/>
<glyph glyph-name="six" horiz-adv-x="1282" unicode="6" d="M1095 1454v-276q-85 45 -160.5 66.5t-147.5 21.5q-155 0 -241.5 -95.5t-100.5 -283.5q59 49 128.5 73.5t150.5 24.5q207 0 333.5 -134t126.5 -351q0 -240 -141.5 -384.5t-379.5 -144.5q-262 0 -405.5 196.5t-143.5 557.5q0 370 168 581.5t460 211.5q93 0 180.5 -16 t172.5 -48zM667 737q-91 0 -136.5 -65.5t-45.5 -196.5t45.5 -196.5t136.5 -65.5q92 0 137.5 65.5t45.5 196.5t-45.5 196.5t-137.5 65.5z"/>
<glyph glyph-name="seven" horiz-adv-x="1282" unicode="7" d="M123 1493h1013v-217l-524 -1276h-338l496 1210h-647v283z"/>
<glyph glyph-name="eight" horiz-adv-x="1282" unicode="8" d="M470 1094q0 -89 44.5 -137t127.5 -48q81 0 125 48t44 137t-44 136.5t-125 47.5q-83 0 -127.5 -48t-44.5 -136zM389 795q-123 41 -185 126t-62 212q0 189 127 288t373 99q244 0 370.5 -98.5t126.5 -288.5q0 -127 -62.5 -212t-184.5 -126q137 -42 206.5 -136.5t69.5 -238.5 q0 -222 -132.5 -335.5t-393.5 -113.5q-262 0 -396 113.5t-134 335.5q0 144 70 238.5t207 136.5zM642 668q-98 0 -150 -59t-52 -169t52 -168.5t150 -58.5q96 0 147.5 58.5t51.5 168.5q0 111 -51.5 169.5t-147.5 58.5z"/>
<glyph glyph-name="nine" horiz-adv-x="1282" unicode="9" d="M612 752q91 0 137 65.5t46 196.5q0 130 -46 196t-137 66t-137 -66t-46 -196q0 -131 46 -196.5t137 -65.5zM184 33v276q83 -43 158.5 -64.5t149.5 -21.5q155 0 241.5 95.5t101.5 283.5q-61 -50 -130.5 -75t-150.5 -25q-206 0 -332.5 133.5t-126.5 351.5q0 241 141 386 t378 145q263 0 407 -197t144 -557q0 -370 -168.5 -581.5t-461.5 -211.5q-95 0 -181.5 15.5t-169.5 46.5z"/>
<glyph glyph-name="colon" horiz-adv-x="737" unicode=":" d="M206 387h325v-387h-325v387zM206 1120h325v-387h-325v387z"/>
<glyph glyph-name="semicolon" horiz-adv-x="737" unicode=";" d="M206 1120h325v-387h-325v387zM206 387h325v-305l-223 -373h-192l90 373v305z"/>
<glyph glyph-name="less" d="M1349 973l-867 -332l867 -330v-250l-1154 463v236l1154 463v-250z" unicode="&lt;"/>
<glyph glyph-name="equal" d="M195 532h1154v-237h-1154v237zM195 987h1154v-235h-1154v235z" unicode="="/>
<glyph glyph-name="greater" d="M195 973v250l1154 -463v-236l-1154 -463v250l869 330z" unicode="&gt;"/>
<glyph glyph-name="question" horiz-adv-x="1069" unicode="?" d="M313 356h325v-356h-325v356zM638 504h-325v49q0 82 30 145.5t125 161.5l58 58q51 52 75 98t24 92q0 70 -43.5 109.5t-120.5 39.5q-73 0 -157.5 -33.5t-176.5 -99.5v314q109 42 199 62t174 20q219 0 334.5 -99.5t115.5 -290.5q0 -98 -35.5 -175.5t-119.5 -166.5l-58 -57 q-61 -62 -80 -99.5t-19 -82.5v-45z"/>
<glyph glyph-name="at" horiz-adv-x="1843" unicode="@" d="M1117 238q-27 -70 -87 -110t-140 -40q-156 0 -252 124t-96 325q0 200 97 325t251 125q80 0 140 -40t87 -111v131h188v-693q111 20 175 120t64 257q0 99 -26 187t-79 161q-85 122 -213 188t-278 66q-104 -1 -200 -31t-176 -89q-134 -97 -208 -253t-74 -337q0 -149 48 -279 t139 -231q91 -97 207 -149t248 -52q114 0 228 47t193 127l96 -162q-113 -96 -245 -148t-270 -52q-166 0 -314 66t-263 190q-115 126 -175 290t-60 353q0 182 61 347t174 290q115 124 265 192t312 68q202 0 366 -86t276 -246q67 -98 102 -212t35 -241q0 -271 -147 -421 t-414 -150h-35v154zM748 539q0 -123 47 -194t128 -71t129 72t47 193q0 121 -48 191t-129 71q-80 -1 -127 -71t-47 -191z"/>
<glyph glyph-name="A" horiz-adv-x="1426" unicode="A" d="M529 549h368l-183 594zM985 272h-542l-86 -272h-348l498 1493h413l498 -1493h-349z"/>
<glyph glyph-name="B" horiz-adv-x="1404" unicode="B" d="M1041 799q112 -36 173 -133t61 -238q0 -216 -131.5 -322t-399.5 -106h-575v1493h520q280 0 405.5 -94t125.5 -301q0 -109 -45.5 -185.5t-133.5 -113.5zM719 262q105 0 157.5 49t52.5 148q0 97 -52.5 145.5t-157.5 48.5h-203v-391h203zM707 915q82 0 124.5 40t42.5 118 q0 77 -42.5 117.5t-124.5 40.5h-191v-316h191z"/>
<glyph glyph-name="C" horiz-adv-x="1352" unicode="C" d="M1235 82q-96 -55 -199.5 -83t-215.5 -28q-336 0 -532 208.5t-196 565.5q0 358 196 566.5t532 208.5q112 0 215.5 -28t199.5 -83v-309q-97 73 -190.5 107t-196.5 34q-186 0 -292 -132t-106 -364q0 -231 106 -363t292 -132q103 0 196.5 34t190.5 107v-309z"/>
<glyph glyph-name="D" horiz-adv-x="1530" unicode="D" d="M169 1493h366q306 0 455.5 -48.5t256.5 -164.5q95 -101 141 -233t46 -299q0 -169 -46 -301.5t-141 -233.5q-108 -116 -259 -164.5t-453 -48.5h-366v1493zM516 1202v-911h124q212 0 324 117t112 340q0 222 -111.5 338t-324.5 116h-124z"/>
<glyph glyph-name="E" horiz-adv-x="1259" unicode="E" d="M169 1493h935v-291h-588v-278h553v-291h-553v-342h608v-291h-955v1493z"/>
<glyph glyph-name="F" horiz-adv-x="1259" unicode="F" d="M169 1493h935v-291h-588v-278h553v-291h-553v-633h-347v1493z"/>
<glyph glyph-name="G" horiz-adv-x="1512" unicode="G" d="M1377 111q-130 -70 -269.5 -105t-287.5 -35q-336 0 -532 208.5t-196 565.5q0 361 199.5 568t547.5 207q134 0 257 -28t232 -83v-309q-113 71 -224 106t-223 35q-207 0 -319 -128.5t-112 -367.5q0 -237 108 -366t307 -129q54 0 100.5 7.5t82.5 23.5v290h-211v258h540v-718 z"/>
<glyph glyph-name="H" horiz-adv-x="1542" unicode="H" d="M169 1493h347v-569h511v569h346v-1493h-346v633h-511v-633h-347v1493z"/>
<glyph glyph-name="I" horiz-adv-x="685" unicode="I" d="M169 1493h347v-1493h-347v1493z"/>
<glyph glyph-name="J" horiz-adv-x="685" unicode="J" d="M169 1493h347v-1348q0 -279 -136.5 -417t-412.5 -138h-71v291h54q108 0 163.5 67t55.5 197v1348z"/>
<glyph glyph-name="K" horiz-adv-x="1428" unicode="K" d="M169 1493h347v-545l499 545h403l-648 -707l714 -786h-434l-534 588v-588h-347v1493z"/>
<glyph glyph-name="L" horiz-adv-x="1174" unicode="L" d="M169 1493h347v-1202h608v-291h-955v1493z"/>
<glyph glyph-name="M" horiz-adv-x="1834" unicode="M" d="M169 1493h441l306 -799l308 799h440v-1493h-328v1092l-309 -805h-220l-309 805v-1092h-329v1493z"/>
<glyph glyph-name="N" horiz-adv-x="1542" unicode="N" d="M169 1493h387l489 -1024v1024h328v-1493h-387l-488 1024v-1024h-329v1493z"/>
<glyph glyph-name="O" horiz-adv-x="1566" unicode="O" d="M783 1520q324 0 507.5 -206t183.5 -569q0 -362 -183.5 -568t-507.5 -206q-323 0 -507 206t-184 568q0 363 184 569t507 206zM783 1241q-158 0 -245.5 -130t-87.5 -366q0 -235 87.5 -365t245.5 -130q159 0 246.5 130t87.5 365q0 236 -87.5 366t-246.5 130z"/>
<glyph glyph-name="P" horiz-adv-x="1350" unicode="P" d="M516 1214v-417h191q101 0 156 54.5t55 154.5t-55 154t-156 54h-191zM169 1493h575q257 0 394 -126.5t137 -360.5q0 -235 -137 -361.5t-394 -126.5h-228v-518h-347v1493z"/>
<glyph glyph-name="Q" horiz-adv-x="1566" unicode="Q" d="M783 1241q-158 0 -245.5 -130t-87.5 -366q0 -240 85.5 -367.5t247.5 -127.5q159 0 246.5 130t87.5 365q0 236 -87.5 366t-246.5 130zM820 -27h-27q-332 0 -516.5 204t-184.5 568q0 363 184 569t507 206q327 0 509 -204t182 -571q0 -252 -96.5 -434t-278.5 -274l271 -336 h-330z"/>
<glyph glyph-name="R" horiz-adv-x="1419" unicode="R" d="M516 565v-565h-347v1493h529q266 0 389.5 -99t123.5 -313q0 -148 -64 -243t-194 -140q71 -18 127.5 -81.5t113.5 -192.5l188 -424h-369l-163 371q-50 112 -101 153t-135 41h-98zM662 831q108 0 155.5 45t47.5 148q0 102 -47.5 146t-155.5 44h-146v-383h146z"/>
<glyph glyph-name="S" horiz-adv-x="1327" unicode="S" d="M1104 1446v-316q-110 55 -215.5 83t-199.5 28q-124 0 -183.5 -38t-59.5 -118q0 -60 40 -93.5t146 -57.5l147 -33q225 -50 319 -152t94 -290q0 -247 -131.5 -367.5t-402.5 -120.5q-128 0 -256.5 27t-257.5 80v325q129 -76 249 -114.5t232 -38.5q113 0 173.5 42t60.5 120 q0 70 -41 108t-164 68l-134 33q-201 48 -294.5 153t-93.5 283q0 223 130 343t372 120q111 0 228 -18.5t242 -55.5z"/>
<glyph glyph-name="T" horiz-adv-x="1257" unicode="T" d="M9 1493h1238v-291h-445v-1202h-347v1202h-446v291z"/>
<glyph glyph-name="U" horiz-adv-x="1496" unicode="U" d="M169 1493h347v-895q0 -185 54.5 -264.5t177.5 -79.5q124 0 178.5 79.5t54.5 264.5v895h347v-895q0 -317 -143.5 -472t-436.5 -155t-436 155t-143 472v895z"/>
<glyph glyph-name="V" horiz-adv-x="1426" unicode="V" d="M9 1493h348l357 -1102l355 1102h349l-498 -1493h-413z"/>
<glyph glyph-name="W" horiz-adv-x="2033" unicode="W" d="M55 1493h332l232 -1085l231 1085h334l230 -1085l232 1085h330l-317 -1493h-400l-244 1135l-241 -1135h-400z"/>
<glyph glyph-name="X" horiz-adv-x="1421" unicode="X" d="M918 762l466 -762h-361l-314 510l-311 -510h-363l466 762l-448 731h362l294 -481l294 481h363z"/>
<glyph glyph-name="Y" horiz-adv-x="1334" unicode="Y" d="M-18 1493h379l306 -532l306 532h380l-512 -864v-629h-347v629z"/>
<glyph glyph-name="Z" horiz-adv-x="1336" unicode="Z" d="M104 1493h1129v-233l-721 -969h742v-291h-1171v233l721 969h-700v291z"/>
<glyph glyph-name="bracketleft" horiz-adv-x="842" unicode="[" d="M158 1556h559v-225h-253v-1376h253v-225h-559v1826z"/>
<glyph glyph-name="backslash" horiz-adv-x="673" unicode="\" d="M473 -190l-473 1683h199l474 -1683h-200z"/>
<glyph glyph-name="bracketright" horiz-adv-x="842" unicode="]" d="M684 -270h-559v225h253v1376h-253v225h559v-1826z"/>
<glyph glyph-name="asciicircum" d="M883 1493l475 -557h-217l-369 301l-368 -301h-218l476 557h221z" unicode="^"/>
<glyph glyph-name="underscore" horiz-adv-x="921" unicode="_" d="M922 -293v-190h-922v190h922z"/>
<glyph glyph-name="grave" horiz-adv-x="921" unicode="`" d="M339 1638l254 -376h-176l-332 376h254z"/>
<glyph glyph-name="a" horiz-adv-x="1243" unicode="a" d="M1099 639v-639h-325v166q-65 -102 -146 -148.5t-197 -46.5q-157 0 -254.5 101.5t-97.5 263.5q0 197 122 289t383 92h190v28q0 85 -60.5 124.5t-187.5 39.5q-104 0 -193 -23t-166 -69v273q104 28 208.5 42.5t208.5 14.5q273 0 394 -119.5t121 -388.5zM607 504 q-101 0 -152 -38t-51 -112q0 -68 41 -106.5t114 -38.5q91 0 153 72.5t62 181.5v41h-167z"/>
<glyph glyph-name="b" horiz-adv-x="1319" unicode="b" d="M477 956q67 98 148 144.5t186 46.5q186 0 306 -164.5t120 -423.5t-120 -423.5t-306 -164.5q-105 0 -186 46.5t-148 144.5v-162h-322v1556h322v-600zM691 231q104 0 158.5 84t54.5 244t-54.5 244t-158.5 84q-103 0 -158.5 -84.5t-55.5 -243.5t55.5 -243.5t158.5 -84.5z "/>
<glyph glyph-name="c" horiz-adv-x="1092" unicode="c" d="M969 1085v-292q-65 50 -131.5 74t-137.5 24q-135 0 -210 -87.5t-75 -244.5t75 -244.5t210 -87.5q76 0 144 25t125 74v-293q-75 -31 -153 -46.5t-156 -15.5q-273 0 -427 155.5t-154 432.5t154 432.5t427 155.5q79 0 156 -15.5t153 -46.5z"/>
<glyph glyph-name="d" horiz-adv-x="1319" unicode="d" d="M628 231q104 0 158.5 84t54.5 244t-54.5 244t-158.5 84q-102 0 -156.5 -84t-54.5 -244t54.5 -244t156.5 -84zM841 956v600h324v-1556h-324v162q-67 -99 -147 -145t-186 -46q-186 0 -305.5 164.5t-119.5 423.5t119.5 423.5t305.5 164.5q105 0 185.5 -46.5t147.5 -144.5z "/>
<glyph glyph-name="e" horiz-adv-x="1250" unicode="e" d="M830 682q0 102 -53.5 164.5t-140.5 62.5q-93 0 -151.5 -58.5t-73.5 -168.5h419zM1161 563v-102h-753q11 -126 81.5 -189t196.5 -63q102 0 208.5 33.5t218.5 101.5v-276q-114 -48 -228.5 -72.5t-228.5 -24.5q-274 0 -425.5 154.5t-151.5 433.5q0 274 149 431t410 157 q238 0 380.5 -159t142.5 -425z"/>
<glyph glyph-name="f" horiz-adv-x="801" unicode="f" d="M818 1556v-235h-178q-68 0 -95 -27.5t-27 -95.5v-78h275v-256h-275v-864h-323v864h-160v256h160v78q0 183 92 270.5t285 87.5h246z"/>
<glyph glyph-name="g" horiz-adv-x="1319" unicode="g" d="M628 887q-100 0 -155.5 -82t-55.5 -232q0 -154 54 -233.5t157 -79.5q101 0 157 82t56 231q0 150 -56 232t-157 82zM841 190q-67 -98 -147 -144t-186 -46q-184 0 -304.5 161.5t-120.5 411.5q0 251 120.5 411.5t304.5 160.5q106 0 186 -46t147 -145v166h324v-1007 q0 -270 -153.5 -412.5t-445.5 -142.5q-94 0 -182.5 16t-177.5 49v279q85 -54 166 -80.5t163 -26.5q158 0 232 77t74 241v77z"/>
<glyph glyph-name="h" horiz-adv-x="1312" unicode="h" d="M1168 682v-682h-324v111v409q0 147 -6 202t-20 81q-19 35 -51.5 54.5t-73.5 19.5q-101 0 -158.5 -86.5t-57.5 -239.5v-551h-322v1556h322v-600q73 98 155 144.5t181 46.5q174 0 264.5 -119t90.5 -346z"/>
<glyph glyph-name="i" horiz-adv-x="631" unicode="i" d="M155 1556h322v-292h-322v292zM155 1120h322v-1120h-322v1120z"/>
<glyph glyph-name="j" horiz-adv-x="631" unicode="j" d="M155 1556h322v-292h-322v292zM155 1120h322v-1100q0 -225 -97 -343.5t-282 -118.5h-159v235h56q91 0 125.5 46t34.5 181v1100z"/>
<glyph glyph-name="k" horiz-adv-x="1225" unicode="k" d="M155 1556h322v-847l371 411h374l-492 -514l531 -606h-391l-393 467v-467h-322v1556z"/>
<glyph glyph-name="l" horiz-adv-x="631" unicode="l" d="M155 1556h322v-1556h-322v1556z"/>
<glyph glyph-name="m" horiz-adv-x="1920" unicode="m" d="M1089 934q61 104 145 158.5t185 54.5q174 0 265 -119t91 -346v-682h-324v584q1 13 1.5 27t0.5 40q0 119 -31.5 172.5t-102.5 53.5q-91 0 -141 -84t-52 -243v-550h-324v584q0 186 -29 239.5t-103 53.5q-92 0 -142.5 -84.5t-50.5 -241.5v-551h-324v1120h324v-164 q59 95 136 143t170 48q104 0 184.5 -56t121.5 -157z"/>
<glyph glyph-name="n" horiz-adv-x="1312" unicode="n" d="M1168 682v-682h-324v111v411q0 145 -6 200t-20 81q-19 35 -51.5 54.5t-73.5 19.5q-101 0 -158.5 -86.5t-57.5 -239.5v-551h-322v1120h322v-164q73 98 155 144.5t181 46.5q174 0 264.5 -119t90.5 -346z"/>
<glyph glyph-name="o" horiz-adv-x="1266" unicode="o" d="M634 1147q261 0 407 -156t146 -432t-146 -432t-407 -156q-260 0 -407.5 156t-147.5 432t147.5 432t407.5 156zM634 891q-107 0 -163 -85.5t-56 -246.5t56 -246.5t163 -85.5q106 0 161.5 85.5t55.5 246.5t-55.5 246.5t-161.5 85.5z"/>
<glyph glyph-name="p" horiz-adv-x="1319" unicode="p" d="M691 887q-103 0 -158.5 -84.5t-55.5 -243.5t55.5 -243.5t158.5 -84.5q104 0 158.5 84t54.5 244t-54.5 244t-158.5 84zM477 162v-588h-322v1546h322v-164q67 98 148 144.5t186 46.5q186 0 306 -164.5t120 -423.5t-120 -423.5t-306 -164.5q-105 0 -186 46.5t-148 144.5z "/>
<glyph glyph-name="q" horiz-adv-x="1319" unicode="q" d="M841 162q-67 -99 -147 -145t-186 -46q-186 0 -305.5 164.5t-119.5 423.5t119.5 422.5t305.5 163.5q106 0 186 -46t147 -145v166h324v-1546h-324v588zM628 887q-102 0 -156.5 -84t-54.5 -244t54.5 -244t156.5 -84q104 0 158.5 84t54.5 244t-54.5 244t-158.5 84z"/>
<glyph glyph-name="r" horiz-adv-x="909" unicode="r" d="M904 815q-43 22 -84.5 32.5t-84.5 10.5q-124 0 -191 -88.5t-67 -253.5v-516h-322v1120h322v-184q62 110 142.5 160.5t193.5 50.5q16 0 35 -1.5t55 -6.5z"/>
<glyph glyph-name="s" horiz-adv-x="1097" unicode="s" d="M942 1085v-272q-103 48 -199.5 72t-181.5 24q-92 0 -136.5 -25.5t-44.5 -78.5q0 -43 33.5 -66t121.5 -34l56 -9q248 -35 333.5 -115t85.5 -251q0 -179 -119 -269t-355 -90q-100 0 -206.5 17.5t-218.5 52.5v272q96 -52 197.5 -78t205.5 -26q94 0 142 29t48 86 q0 48 -33 71.5t-131 36.5l-57 8q-215 30 -301.5 111t-86.5 246q0 178 110 264t337 86q89 0 187 -15t213 -47z"/>
<glyph glyph-name="t" horiz-adv-x="881" unicode="t" d="M507 1438v-318h332v-256h-332v-475q0 -78 27.5 -105.5t110.5 -27.5h166v-256h-276q-191 0 -271 88.5t-80 300.5v475h-160v256h160v318h323z"/>
<glyph glyph-name="u" horiz-adv-x="1312" unicode="u" d="M144 436v684h324v-112q0 -91 -1 -228.5t-1 -183.5q0 -135 6.5 -194.5t21.5 -86.5q20 -35 52 -54t73 -19q101 0 158.5 86t57.5 239v553h322v-1120h-322v162q-73 -98 -154.5 -144.5t-179.5 -46.5q-174 0 -265.5 119t-91.5 346z"/>
<glyph glyph-name="v" horiz-adv-x="1201" unicode="v" d="M28 1120h322l251 -774l250 774h323l-396 -1120h-354z"/>
<glyph glyph-name="w" horiz-adv-x="1702" unicode="w" d="M65 1120h313l169 -772l170 772h269l170 -764l170 764h313l-266 -1120h-351l-171 770l-169 -770h-352z"/>
<glyph glyph-name="x" horiz-adv-x="1188" unicode="x" d="M410 573l-364 547h341l206 -332l209 332h341l-364 -545l382 -575h-341l-227 354l-224 -354h-341z"/>
<glyph glyph-name="y" horiz-adv-x="1201" unicode="y" d="M22 1120h323l271 -760l230 760h322l-424 -1226q-64 -187 -149 -261.5t-224 -74.5h-187v235h101q82 0 119.5 29t58.5 104l9 31z"/>
<glyph glyph-name="z" horiz-adv-x="1072" unicode="z" d="M105 1120h880v-250l-531 -614h531v-256h-902v250l531 614h-509v256z"/>
<glyph glyph-name="braceleft" horiz-adv-x="1312" unicode="{" d="M1082 -109v-225h-196q-196 0 -286 88t-90 281v192q0 151 -48 209t-177 58h-55v223h55q129 0 177 58t48 208v205q0 192 90 280t286 88h196v-225h-62q-128 1 -166 -43t-38 -186v-166q0 -157 -40 -228t-140 -96q100 -27 140 -98t40 -227v-166q0 -143 38 -187t166 -43h62z "/>
<glyph glyph-name="bar" horiz-adv-x="673" unicode="|" d="M438 1565v-2048h-204v2048h204z"/>
<glyph glyph-name="braceright" horiz-adv-x="1312" unicode="}" d="M230 -109h63q127 -1 165 43t38 187v166q0 156 40 227t141 98q-101 25 -141 96t-40 228v166q0 142 -38 186t-165 43h-63v225h196q196 0 286 -88t90 -280v-205q0 -150 48 -208t177 -58h55v-223h-55q-129 0 -177 -58t-48 -209v-192q0 -193 -90 -281t-286 -88h-196v225z"/>
<glyph glyph-name="asciitilde" d="M1349 850v-244q-95 -80 -175.5 -114.5t-167.5 -34.5q-96 0 -225 58q-12 6 -20 9q-6 3 -19 9q-140 61 -224 61q-80 0 -157 -38.5t-166 -121.5v244q97 80 177 114.5t166 34.5q96 0 225 -58q14 -6 20 -9t20 -9q139 -61 224 -61q77 0 153 37.5t169 122.5z" unicode="~"/>
<glyph glyph-name="nonbreakingspace" horiz-adv-x="641" unicode=" "/>
<glyph glyph-name="exclamdown" horiz-adv-x="840" unicode="¡" d="M258 764v356h324v-356h-324zM258 -373v573l46 418h232l46 -418v-573h-324z"/>
<glyph glyph-name="cent" horiz-adv-x="1282" unicode="¢" d="M1045 1085v-292q-67 48 -131 73t-123 25h-13v-663q80 1 148 26t119 72v-293q-75 -30 -141 -46t-117 -16h-9v-284h-146v288q-236 40 -356 191t-119 409q-1 243 121 389t354 181v287h146v-287q64 -3 130 -17t137 -43zM632 858q-70 -44 -105 -118t-35 -181q0 -109 35 -183 t105 -116v598z"/>
<glyph glyph-name="sterling" horiz-adv-x="1282" unicode="£" d="M1119 1466v-286q-63 39 -130 58t-136 19q-106 -1 -157 -63t-51 -193v-170h336v-239h-336v-326h485v-266h-1018v266h205v326h-175v239h175v170q0 271 114 395t362 124q83 0 165 -14t161 -40z"/>
<glyph glyph-name="currency" horiz-adv-x="1172" unicode="¤" d="M588 422q82 0 140 64t57 155q1 91 -57 155t-140 64t-140 -64t-57 -155q1 -93 57 -156t140 -63zM391 268l-187 -207l-137 154l186 207q-25 48 -38 102t-13 117t14 117t40 100l-188 205l138 154l186 -207q44 30 92 44t104 15q48 1 97 -13t100 -42l186 207l137 -154 l-186 -207q26 -55 38 -110t13 -109q0 -63 -13 -115t-40 -100l186 -207l-138 -153l-187 206q-41 -30 -89 -44t-104 -15q-52 -1 -101 13t-96 42z"/>
<glyph glyph-name="yen" horiz-adv-x="1282" unicode="¥" d="M1222 416h-409v-416h-343v416h-409v194h409v66l-44 86h-365v192h263l-302 539h360l260 -461l259 461h360l-303 -539h264v-192h-365l-44 -86v-66h409v-194z"/>
<glyph glyph-name="brokenbar" horiz-adv-x="673" unicode="¦" d="M438 408v-758h-204v758h204zM438 1432v-758h-204v758h204z"/>
<glyph glyph-name="section" horiz-adv-x="921" unicode="§" d="M391 856q-62 -28 -92 -66t-30 -88q-1 -67 55 -116t220 -115q58 23 90 63t31 91q0 67 -62 120t-212 111zM796 1462v-227q-89 39 -160 59t-122 19q-68 -1 -102 -25t-34 -71q0 -67 169 -146q24 -11 35 -16q188 -89 260 -175t72 -212q0 -116 -50 -196t-157 -128 q69 -42 103 -98t34 -129q0 -145 -109 -229t-300 -83q-77 1 -159 15t-172 43v237q103 -40 185 -62t133 -22q59 0 94 25t35 65q0 70 -162 144q-33 14 -50 22q-182 86 -254 176t-72 220q-1 104 49 181t152 128q-66 51 -96 107t-30 130q0 144 103 225t284 81q76 0 157 -14 t164 -44z"/>
<glyph glyph-name="dieresis" horiz-adv-x="921" unicode="¨" d="M533 1585h211v-246h-211v246zM177 1585h212v-246h-212v246z"/>
<glyph glyph-name="copyright" horiz-adv-x="1843" unicode="©" d="M922 1485q136 0 254 -55t217 -164t147 -240t48 -285q0 -153 -48 -283t-147 -239t-217 -164t-254 -55q-138 0 -256 55t-216 164t-146 239t-49 283q1 154 49 285t146 240t216 164t256 55zM922 1331q-108 1 -202 -43t-173 -131q-78 -87 -117 -191t-39 -225t39 -225t117 -190 t172 -129t203 -43q110 0 203 42t171 130q78 86 118 190t39 225q1 121 -39 225t-118 191q-78 88 -172 131t-202 43zM1191 1126v-215q-51 37 -101 55t-102 17q-102 0 -159 -64t-57 -178q0 -115 57 -178t159 -63q58 0 110 18t93 53v-213q-59 -22 -118 -34t-115 -11 q-190 0 -304 117t-114 311q0 195 114 311t304 117q62 -1 120 -11t113 -32z"/>
<glyph glyph-name="ordfeminine" horiz-adv-x="1039" unicode="ª" d="M901 1165v-448h-221v127q-49 -76 -112 -112t-148 -36q-130 0 -204 67t-74 183q0 141 94 207t299 66h123v20q0 55 -40 85t-117 30q-79 0 -153 -18t-146 -52v180q83 28 159 42t144 14q201 0 299 -88t97 -267zM579 1081q-120 0 -167 -26t-47 -88q0 -51 30 -80t82 -29 q79 0 131 57t52 144v22h-81zM158 573h732v-200h-732v200z"/>
<glyph glyph-name="guillemotleft" horiz-adv-x="1190" unicode="«" d="M1017 1063v-242l-263 -221l263 -221v-242l-444 369v186zM586 1063v-242l-264 -221l264 -221v-242l-444 369v186z"/>
<glyph glyph-name="logicalnot" d="M195 909h1154v-622h-211v385h-943v237z" unicode="¬"/>
<glyph glyph-name="sfthyphen" horiz-adv-x="765" unicode="­" d="M100 735h565v-291h-565v291z"/>
<glyph glyph-name="registered" horiz-adv-x="1843" unicode="®" d="M922 1485q136 0 254 -55t217 -164t147 -240t48 -285q0 -153 -48 -283t-147 -239t-217 -164t-254 -55q-138 0 -256 55t-216 164t-146 239t-49 283q1 154 49 285t146 240t216 164t256 55zM904 1174q158 0 236 -60t79 -180q1 -86 -47 -142t-134 -73q36 -22 68 -62t59 -98 l99 -221h-206l-96 213q-34 79 -60 111t-52 32h-11v-356h-192v836h257zM870 1036h-31v-207h31q70 1 106 27t36 78t-35 77t-107 25zM922 1331q-108 1 -202 -43t-173 -131q-78 -87 -117 -191t-39 -225t39 -225t117 -190t172 -129t203 -43q110 0 203 42t171 130q78 86 118 190 t39 225q1 121 -39 225t-118 191q-78 88 -172 131t-202 43z"/>
<glyph glyph-name="macron" horiz-adv-x="921" unicode="¯" d="M177 1556h567v-188h-567v188z"/>
<glyph glyph-name="degree" horiz-adv-x="921" unicode="°" d="M461 1534q59 0 114 -25.5t98 -72.5q43 -48 65 -108t22 -128q0 -67 -22 -127.5t-63 -105.5q-43 -48 -99 -73.5t-117 -25.5q-127 0 -213 95.5t-86 236.5t87 237.5t214 96.5zM461 1372q-65 0 -110 -50t-45 -122t44.5 -121t110.5 -49q65 0 110 49.5t45 120.5q0 72 -45.5 122 t-109.5 50z"/>
<glyph glyph-name="plusminus" d="M195 238h1154v-238h-1154v238zM879 1284v-354h470v-236h-470v-354h-214v354h-470v236h470v354h214z" unicode="±"/>
<glyph glyph-name="twosuperior" horiz-adv-x="807" unicode="²" d="M371 836h333v-168h-606v153l282 266q55 53 78.5 93t23.5 80q0 50 -33 81t-86 31q-56 0 -120 -22.5t-139 -69.5v186q78 27 151 40.5t141 13.5q142 0 223 -64.5t81 -175.5q0 -72 -32 -132.5t-123 -146.5z"/>
<glyph glyph-name="threesuperior" horiz-adv-x="807" unicode="³" d="M533 1120q83 -18 128.5 -73t45.5 -136q0 -129 -89 -193.5t-270 -64.5q-73 0 -139.5 11.5t-127.5 33.5v174q59 -36 117 -54.5t112 -18.5q85 0 132 32t47 91q0 64 -48.5 94.5t-150.5 30.5h-67v137h76q88 0 128.5 23.5t40.5 74.5q0 45 -35 67.5t-107 22.5q-47 0 -102.5 -13 t-118.5 -40v166q59 17 127 26t146 9q150 0 230 -56t80 -161q0 -69 -40.5 -117t-114.5 -66z"/>
<glyph glyph-name="acute" horiz-adv-x="921" unicode="´" d="M582 1638h255l-332 -376h-177z"/>
<glyph glyph-name="mu" horiz-adv-x="1356" unicode="µ" d="M157 -428v1548h325v-651q0 -116 45 -172.5t136 -56.5q93 0 138 56.5t45 172.5v651h324v-749q0 -71 15 -99t50 -28q16 0 31 5t32 17v-250q-48 -23 -90 -34t-82 -11q-80 0 -131 37.5t-82 120.5q-43 -79 -103.5 -118.5t-140.5 -39.5q-67 0 -114 23.5t-73 71.5v-494h-325z "/>
<glyph glyph-name="paragraph" horiz-adv-x="1172" unicode="¶" d="M544 1493h468v-1690h-171v1543h-171v-1543h-170v846q-184 25 -284 135t-100 287q0 190 117 306t311 116z"/>
<glyph glyph-name="periodcentered" horiz-adv-x="700" unicode="·" d="M188 905h324v-387h-324v387z"/>
<glyph glyph-name="cedilla" horiz-adv-x="921" unicode="¸" d="M542 0q52 -62 77 -115t25 -100q0 -95 -55.5 -140.5t-170.5 -45.5q-43 0 -88.5 6.5t-92.5 19.5l-1 152q45 -16 82.5 -23.5t66.5 -7.5q52 0 81.5 23t29.5 63q0 26 -19.5 67t-59.5 101h125z"/>
<glyph glyph-name="onesuperior" horiz-adv-x="807" unicode="¹" d="M127 825h186v521l-202 -52v160l206 49h203v-678h184v-157h-577v157z"/>
<glyph glyph-name="ordmasculine" horiz-adv-x="1039" unicode="º" d="M520 1350q-75 0 -116 -63t-41 -179t41 -178t116 -62t116 62t41 178t-41 179t-116 63zM149 573h741v-200h-741v200zM520 1520q192 0 303 -111t111 -301t-110 -300t-304 -110q-192 0 -304 110t-111 300q-1 190 111 301t304 111z"/>
<glyph glyph-name="guillemotright" horiz-adv-x="1190" unicode="»" d="M174 1063l442 -371v-186l-442 -369v242l262 221l-262 221v242zM605 1063l443 -371v-186l-443 -369v242l263 221l-263 221v242z"/>
<glyph glyph-name="onequarter" horiz-adv-x="1908" unicode="¼" d="M1417 835h223v-518h124v-155h-124v-162h-207v162h-352v168zM1433 640l-215 -323h215v323zM660 -29h-201l840 1549h202zM106 825h186v521l-202 -52v160l206 49h203v-678h184v-157h-577v157z"/>
<glyph glyph-name="onehalf" horiz-adv-x="1908" unicode="½" d="M660 -29h-201l840 1549h202zM1486 168h333v-168h-606v153l282 266q55 53 78.5 93t23.5 80q0 50 -33 81t-86 31q-56 0 -120 -22.5t-139 -69.5v186q78 27 151 40.5t141 13.5q142 0 223 -64.5t81 -175.5q0 -72 -32 -132.5t-123 -146.5zM106 825h186v521l-202 -52v160l206 49 h203v-678h184v-157h-577v157z"/>
<glyph glyph-name="threequarters" horiz-adv-x="1908" unicode="¾" d="M1417 835h223v-518h124v-155h-124v-162h-207v162h-352v168zM1433 640l-215 -323h215v323zM660 -29h-201l840 1549h202zM546 1120q83 -18 128.5 -73t45.5 -136q0 -129 -89 -193.5t-270 -64.5q-73 0 -139.5 11.5t-127.5 33.5v174q59 -36 117 -54.5t112 -18.5q85 0 132 32 t47 91q0 64 -48.5 94.5t-150.5 30.5h-67v137h76q88 0 128.5 23.5t40.5 74.5q0 45 -35 67.5t-107 22.5q-47 0 -102.5 -13t-118.5 -40v166q59 17 127 26t146 9q150 0 230 -56t80 -161q0 -69 -40.5 -117t-114.5 -66z"/>
<glyph glyph-name="questiondown" horiz-adv-x="1069" unicode="¿" d="M763 764h-325v356h325v-356zM438 614h325v-49q0 -81 -29 -144t-127 -163l-58 -58q-49 -51 -73 -97t-24 -93q0 -70 43 -110t121 -40q72 0 158 34t176 100v-314q-108 -42 -199 -62t-174 -20q-220 0 -335 100t-115 289q0 99 35 177t120 165l57 58q61 61 80 99t19 83v45z"/>
<glyph glyph-name="Agrave" horiz-adv-x="1426" unicode="À" d="M529 549h368l-183 594zM985 272h-542l-86 -272h-348l498 1493h413l498 -1493h-349zM645 1899l179 -264h-177l-256 264h254z"/>
<glyph glyph-name="Aacute" horiz-adv-x="1426" unicode="Á" d="M529 549h368l-183 594zM985 272h-542l-86 -272h-348l498 1493h413l498 -1493h-349zM737 1899h255l-257 -264h-176z"/>
<glyph glyph-name="Acircumflex" horiz-adv-x="1426" unicode="Â" d="M529 549h368l-183 594zM985 272h-542l-86 -272h-348l498 1493h413l498 -1493h-349zM575 1899h277l200 -264h-160l-179 161l-179 -161h-160z"/>
<glyph glyph-name="Atilde" horiz-adv-x="1426" unicode="Ã" d="M529 549h368l-183 594zM985 272h-542l-86 -272h-348l498 1493h413l498 -1493h-349zM715 1690l-50 35l-9 6q-41 26 -66 26q-29 0 -47 -30t-18 -80v-6h-125q0 5 1 15t1 15q0 106 48 171t126 65q34 0 67 -12.5t68 -36.5l53 -39q19 -14 36.5 -21.5t32.5 -7.5q33 0 50.5 30 t17.5 87h125q0 -6 -0.5 -16t-0.5 -15q0 -106 -48.5 -170.5t-126.5 -64.5q-34 0 -65.5 11t-69.5 38z"/>
<glyph glyph-name="Adieresis" horiz-adv-x="1426" unicode="Ä" d="M529 549h368l-183 594zM985 272h-542l-86 -272h-348l498 1493h413l498 -1493h-349zM779 1899h212v-246h-212v246zM424 1899h211v-246h-211v246z"/>
<glyph glyph-name="Aring" horiz-adv-x="1426" unicode="Å" d="M529 549h368l-183 594zM596 1616q0 -54 34.5 -92.5t83.5 -38.5q48 0 83 38.5t35 92.5t-35.5 92.5t-82.5 38.5q-49 0 -83.5 -38.5t-34.5 -92.5zM929 1464l489 -1464h-349l-84 272h-542l-86 -272h-348l489 1464q-21 34 -31 71.5t-10 80.5q0 117 75.5 201t181.5 84 q104 0 179.5 -84t75.5 -201q0 -47 -9.5 -85t-30.5 -67z"/>
<glyph glyph-name="AE" horiz-adv-x="1999" unicode="Æ" d="M562 1493h1283v-291h-588v-278h553v-291h-553v-342h609v-291h-955v350h-445l-132 -350h-334zM802 1237l-230 -610h339v610h-109z"/>
<glyph glyph-name="Ccedilla" horiz-adv-x="1352" unicode="Ç" d="M1235 82q-96 -55 -199.5 -83t-215.5 -28q-336 0 -532 208.5t-196 565.5q0 358 196 566.5t532 208.5q112 0 215.5 -28t199.5 -83v-309q-97 73 -190.5 107t-196.5 34q-186 0 -292 -132t-106 -364q0 -231 106 -363t292 -132q103 0 196.5 34t190.5 107v-309zM876 0 q52 -62 77 -115t25 -100q0 -95 -55.5 -140.5t-170.5 -45.5q-43 0 -88.5 6.5t-92.5 19.5l-1 152q45 -16 82.5 -23.5t66.5 -7.5q52 0 81.5 23t29.5 63q0 26 -19.5 67t-59.5 101h125z"/>
<glyph glyph-name="Egrave" horiz-adv-x="1259" unicode="È" d="M169 1493h935v-291h-588v-278h553v-291h-553v-342h608v-291h-955v1493zM577 1899l179 -264h-177l-256 264h254z"/>
<glyph glyph-name="Eacute" horiz-adv-x="1259" unicode="É" d="M169 1493h935v-291h-588v-278h553v-291h-553v-342h608v-291h-955v1493zM669 1899h255l-257 -264h-176z"/>
<glyph glyph-name="Ecircumflex" horiz-adv-x="1259" unicode="Ê" d="M169 1493h935v-291h-588v-278h553v-291h-553v-342h608v-291h-955v1493zM485 1899h277l200 -264h-160l-179 161l-179 -161h-160z"/>
<glyph glyph-name="Edieresis" horiz-adv-x="1259" unicode="Ë" d="M169 1493h935v-291h-588v-278h553v-291h-553v-342h608v-291h-955v1493zM695 1899h212v-246h-212v246zM340 1899h211v-246h-211v246z"/>
<glyph glyph-name="Igrave" horiz-adv-x="685" unicode="Ì" d="M169 1493h347v-1493h-347v1493zM274 1899l179 -264h-177l-256 264h254z"/>
<glyph glyph-name="Iacute" horiz-adv-x="685" unicode="Í" d="M169 1493h347v-1493h-347v1493zM366 1899h255l-257 -264h-176z"/>
<glyph glyph-name="Icircumflex" horiz-adv-x="685" unicode="Î" d="M169 1493h347v-1493h-347v1493zM204 1899h277l200 -264h-160l-179 161l-179 -161h-160z"/>
<glyph glyph-name="Idieresis" horiz-adv-x="685" unicode="Ï" d="M169 1493h347v-1493h-347v1493zM414 1899h212v-246h-212v246zM59 1899h211v-246h-211v246z"/>
<glyph glyph-name="Eth" d="M186 1493h365q307 0 456 -48.5t257 -164.5q94 -101 140.5 -233t46.5 -299q0 -169 -46.5 -301.5t-140.5 -233.5q-108 -116 -259.5 -164.5t-453.5 -48.5h-365v621h-156v260h156v612zM533 1202v-321h211v-260h-211v-330h123q212 0 324.5 117t112.5 340q0 222 -112 338 t-325 116h-123z" unicode="Ð"/>
<glyph glyph-name="Ntilde" horiz-adv-x="1542" unicode="Ñ" d="M169 1493h387l489 -1024v1024h328v-1493h-387l-488 1024v-1024h-329v1493zM741 1684l-50 35l-9 6q-41 26 -66 26q-29 0 -47 -30t-18 -80v-6h-125q0 5 1 15t1 15q0 106 48 171t126 65q34 0 67 -12.5t68 -36.5l53 -39q19 -14 36.5 -21.5t32.5 -7.5q33 0 50.5 30t17.5 87 h125q0 -6 -0.5 -16t-0.5 -15q0 -106 -48.5 -170.5t-126.5 -64.5q-34 0 -65.5 11t-69.5 38z"/>
<glyph glyph-name="Ograve" horiz-adv-x="1566" unicode="Ò" d="M783 1520q324 0 507.5 -206t183.5 -569q0 -362 -183.5 -568t-507.5 -206q-323 0 -507 206t-184 568q0 363 184 569t507 206zM783 1241q-158 0 -245.5 -130t-87.5 -366q0 -235 87.5 -365t245.5 -130q159 0 246.5 130t87.5 365q0 236 -87.5 366t-246.5 130zM715 1899 l179 -264h-177l-256 264h254z"/>
<glyph glyph-name="Oacute" horiz-adv-x="1566" unicode="Ó" d="M783 1520q324 0 507.5 -206t183.5 -569q0 -362 -183.5 -568t-507.5 -206q-323 0 -507 206t-184 568q0 363 184 569t507 206zM783 1241q-158 0 -245.5 -130t-87.5 -366q0 -235 87.5 -365t245.5 -130q159 0 246.5 130t87.5 365q0 236 -87.5 366t-246.5 130zM807 1899h255 l-257 -264h-176z"/>
<glyph glyph-name="Ocircumflex" horiz-adv-x="1566" unicode="Ô" d="M783 1520q324 0 507.5 -206t183.5 -569q0 -362 -183.5 -568t-507.5 -206q-323 0 -507 206t-184 568q0 363 184 569t507 206zM783 1241q-158 0 -245.5 -130t-87.5 -366q0 -235 87.5 -365t245.5 -130q159 0 246.5 130t87.5 365q0 236 -87.5 366t-246.5 130zM623 1899h277 l200 -264h-160l-179 161l-179 -161h-160z"/>
</font>
</defs>
</svg>
