<?xml version="1.0" encoding="UTF-8"?>
<svg width="150px" height="200px" viewBox="0 0 150 200" version="1.1" xmlns="http://www.w3.org/2000/svg" xmlns:xlink="http://www.w3.org/1999/xlink">
    <!-- Generator: Sketch 45.2 (43514) - http://www.bohemiancoding.com/sketch -->
    <title>default-user</title>
    <desc>Created with Sketch.</desc>
    <defs></defs>
    <g id="Page-1" stroke="none" stroke-width="1" fill="none" fill-rule="evenodd">
        <g id="default-user" fill-rule="nonzero">
            <polygon id="Shape" fill="#BCCEE5" points="150 0 0 0 0 200 150 200"></polygon>
            <path d="M134.210526,186.363636 C134.210526,188.872727 132.442105,190.909091 130.263158,190.909091 L19.7368421,190.909091 C17.5578947,190.909091 15.7894737,188.872727 15.7894737,186.363636 C15.7894737,158.309091 31.6342105,137.1 56.0447368,129.927273 C46.1210526,122.663636 39.4736842,109.972727 39.4736842,95.4545455 C39.4736842,72.9 55.4131579,54.5454545 75,54.5454545 C94.5868421,54.5454545 110.526316,72.9 110.526316,95.4545455 C110.526316,109.972727 103.878947,122.663636 93.9552632,129.927273 C118.365789,137.1 134.210526,158.309091 134.210526,186.363636 L134.210526,186.363636 Z" id="Path" stroke="#BCCEE5" fill="#FFFFFF"></path>
        </g>
    </g>
</svg>