<?xml version="1.0" encoding="utf-8"?>
<!-- Generator: Adobe Illustrator 15.1.0, SVG Export Plug-In . SVG Version: 6.00 Build 0)  -->
<!DOCTYPE svg PUBLIC "-//W3C//DTD SVG 1.1//EN" "http://www.w3.org/Graphics/SVG/1.1/DTD/svg11.dtd">
<svg version="1.1" id="Layer_1" xmlns="http://www.w3.org/2000/svg" xmlns:xlink="http://www.w3.org/1999/xlink" x="0px" y="0px"
	 width="115.7px" height="32px" viewBox="537.8 139 115.7 32" enable-background="new 537.8 139 115.7 32" xml:space="preserve">
<g>
	<g>
		<path d="M538.3,166.6c0,1.9,1.6,3.5,3.5,3.5h107.7c1.9,0,3.5-1.6,3.5-3.5v-23.1c0-1.9-1.6-3.5-3.5-3.5H541.9
			c-1.9,0-3.5,1.6-3.5,3.5V166.6z"/>
		<path fill="none" stroke="#000000" stroke-miterlimit="10" d="M538.3,166.6c0,1.9,1.6,3.5,3.5,3.5h107.7c1.9,0,3.5-1.6,3.5-3.5
			v-23.1c0-1.9-1.6-3.5-3.5-3.5H541.9c-1.9,0-3.5,1.6-3.5,3.5V166.6z"/>
	</g>
	<g>
		<path fill="#FFFFFF" d="M647.2,157.8c-0.3-0.4-0.7-0.8-1.3-1.1c-0.3-0.1-0.8-0.3-1.6-0.6c-0.3-0.1-0.6-0.2-0.8-0.3
			c-0.2-0.1-0.5-0.2-0.7-0.3c-0.3-0.1-0.6-0.3-0.8-0.5c-0.3-0.2-0.4-0.5-0.4-1c0-0.4,0.2-0.8,0.5-1.1c0.4-0.3,0.8-0.4,1.3-0.4
			c0.4,0,0.8,0.1,1.1,0.2c0.3,0.1,0.6,0.4,0.8,0.7c0.2,0.2,0.3,0.5,0.4,0.9s0.3,0.6,0.4,0.9c0.1,0,0.1,0,0.2,0c0.1,0,0.1,0,0.2,0
			c0.1,0,0.1-0.1,0.2-0.1c0,0,0-0.1,0-0.3c0-0.1,0-0.3-0.1-0.4c0-0.2,0-0.3-0.1-0.5c0-0.1,0-0.3,0-0.3c0-0.3,0-0.5,0.1-0.8
			c0-0.3,0.1-0.5,0.1-0.6c0-0.1-0.1-0.1-0.2-0.2s-0.2-0.1-0.4-0.1c-0.1,0.1-0.2,0.2-0.3,0.3c-0.1,0.1-0.2,0.2-0.3,0.3
			c-0.4-0.3-0.8-0.5-1.2-0.6s-0.8-0.1-1.2-0.1c-0.4,0-0.8,0.1-1.2,0.2c-0.4,0.1-0.7,0.3-1,0.6s-0.5,0.5-0.6,0.9
			c-0.1,0.3-0.2,0.7-0.2,1.1c0,0.3,0,0.6,0.1,0.9c0.1,0.3,0.2,0.6,0.4,0.9c0.2,0.2,0.4,0.4,0.6,0.5c0.2,0.2,0.5,0.3,0.8,0.5
			c0.1,0.1,0.3,0.2,0.6,0.2s0.5,0.2,0.7,0.2c0.3,0.1,0.5,0.2,0.7,0.2c0.2,0.1,0.4,0.1,0.5,0.2c0.3,0.1,0.5,0.3,0.7,0.4
			c0.1,0.1,0.3,0.2,0.4,0.4c0.2,0.2,0.3,0.5,0.3,0.9c0,0.2,0,0.4-0.1,0.6c-0.1,0.2-0.2,0.4-0.5,0.6c-0.3,0.3-0.8,0.5-1.6,0.5
			c-0.3,0-0.7-0.1-1.1-0.2c-0.4-0.2-0.8-0.4-1.1-0.8c-0.1-0.1-0.2-0.2-0.2-0.4c-0.1-0.2-0.2-0.4-0.2-0.5c-0.1-0.2-0.2-0.4-0.2-0.5
			c-0.1-0.2-0.1-0.3-0.2-0.4c0,0-0.1,0-0.2,0c-0.2,0-0.3,0.1-0.4,0.2c0,0.1,0,0.2,0,0.3c0,0.2,0,0.3,0,0.5c0,0.2,0,0.3,0,0.5
			c0,0.2,0,0.3,0,0.3c0,0.2,0,0.4-0.1,0.7c-0.1,0.3-0.1,0.4-0.1,0.5c0,0.1,0.1,0.2,0.2,0.2c0.1,0.1,0.2,0.1,0.4,0.1
			c0.2-0.1,0.3-0.2,0.4-0.3s0.2-0.1,0.3-0.1c0,0,0.1,0,0.2,0s0.1,0,0.2,0.1c0.3,0.1,0.6,0.3,1.1,0.4c0.4,0.1,0.8,0.2,1.3,0.2
			c0.5,0,0.9-0.1,1.3-0.2c0.4-0.1,0.8-0.3,1.1-0.6s0.6-0.6,0.8-1c0.2-0.4,0.3-0.8,0.3-1.2C647.6,158.7,647.5,158.2,647.2,157.8z
			 M635.1,158.9c-0.2,0.5-0.5,1-0.8,1.4c-0.3,0.4-0.8,0.7-1.2,0.9c-0.5,0.2-1,0.3-1.7,0.3c-0.2,0-0.4,0-0.6-0.1s-0.3-0.2-0.5-0.4
			c-0.2-0.2-0.3-0.6-0.3-1.2V153l0-0.1c0.1,0,0.2,0,0.3-0.1c0.1,0,0.2,0,0.4,0c0.6,0,1.2,0.1,1.7,0.2c0.5,0.2,0.9,0.4,1.3,0.7
			c0.6,0.4,1,0.9,1.2,1.5c0.2,0.6,0.4,1.3,0.4,2.1C635.4,157.9,635.3,158.4,635.1,158.9z M637.4,156c-0.1-0.4-0.3-0.9-0.5-1.3
			s-0.5-0.8-0.8-1.1c-0.3-0.3-0.7-0.6-1.1-0.8c-0.4-0.2-0.9-0.4-1.4-0.5c-0.5-0.1-1.2-0.2-1.8-0.2c-0.3,0-0.6,0-1,0
			c-0.4,0-0.7,0-1,0c-0.3,0-0.6,0-0.9,0s-0.5,0-0.6,0c-0.2,0-0.4,0-0.6,0c-0.2,0-0.4,0-0.6,0h-0.7c-0.1,0.1-0.1,0.2-0.1,0.2
			c0,0,0,0.1,0,0.1c0,0,0,0.1,0,0.2c0.4,0,0.7,0,0.9,0.1c0.2,0.1,0.4,0.2,0.5,0.3s0.2,0.3,0.2,0.4c0,0.2,0,0.3,0.1,0.5
			c0,0.1,0,0.5,0.1,1c0,0.5,0,1.3,0,2.3v2.3c0,0.5,0,0.8-0.1,1S628,161,628,161c-0.1,0.2-0.3,0.3-0.5,0.4c-0.2,0.1-0.6,0.1-1.1,0.2
			c0,0.1,0,0.1,0,0.2c0,0,0,0.1,0,0.1c0,0.1,0,0.2,0.1,0.2h0.2c0.1,0,0.2,0,0.4,0c0.1,0,0.3,0,0.5,0s0.5,0,0.8,0c0.3,0,0.8,0,1.3,0
			c0.5,0,0.9,0,1.3,0s0.7,0,1,0c0.6,0,1.1,0,1.6-0.1c0.5-0.1,0.9-0.2,1.3-0.3s0.7-0.3,1-0.6c0.3-0.3,0.6-0.6,0.9-1
			c0.3-0.4,0.5-0.9,0.6-1.4c0.1-0.5,0.2-1,0.2-1.4C637.6,156.9,637.5,156.5,637.4,156z M624.6,152.2h-0.4c-0.1,0-0.3,0-0.4,0
			c-0.1,0-0.3,0-0.4,0s-0.3,0-0.6,0s-0.5,0-0.8,0c-0.2,0-0.5,0-0.9,0c-0.3,0-0.6,0-0.9,0H620c0,0.1,0,0.1,0,0.2c0,0.1,0,0.2,0.1,0.3
			c0.1,0,0.3,0.1,0.4,0.1c0.2,0,0.3,0.1,0.5,0.1c0.2,0,0.3,0.1,0.4,0.1c0.1,0.1,0.2,0.1,0.2,0.2c0.2,0.3,0.3,0.6,0.3,1.1
			c0,0.1,0,0.3,0,0.4c0,0.2,0,0.4,0,0.7v4.1c-0.1-0.2-0.3-0.4-0.6-0.7c-0.2-0.3-0.4-0.5-0.6-0.7l-5.2-5.7c-0.1-0.1-0.2-0.1-0.3-0.2
			h-0.5c-0.2,0-0.4,0-0.6,0c-0.2,0-0.4,0-0.6,0s-0.4,0-0.5,0c-0.1,0-0.2,0-0.3,0h-0.3c0,0.1-0.1,0.2-0.1,0.3c0,0,0,0,0,0.1
			s0,0.1,0.1,0.1c0.2,0.1,0.4,0.1,0.6,0.2c0.2,0.1,0.4,0.2,0.5,0.3c0.1,0.1,0.2,0.2,0.3,0.3c0.1,0.1,0.2,0.2,0.2,0.2
			c0.2,0.3,0.3,0.6,0.3,1.1c0,0.3,0,0.5,0,0.7c0,0.2,0,0.4,0,0.7v3.6c0,0.2,0,0.5,0,0.7c0,0.2-0.1,0.4-0.1,0.5
			c-0.1,0.1-0.2,0.2-0.3,0.3s-0.3,0.2-0.4,0.2c-0.1,0.1-0.3,0.1-0.5,0.1c-0.2,0-0.3,0.1-0.4,0.1c0,0.1,0,0.1,0,0.2c0,0,0,0.1,0,0.1
			c0,0.1,0,0.1,0,0.2h0.3c0.2,0,0.5,0,0.7,0c0.3,0,0.5,0,0.7,0c0.3,0,0.7,0,0.9,0c0.3,0,0.6,0,0.9,0h0.8c0-0.1,0-0.1,0.1-0.2
			c0,0,0-0.1,0-0.1c0-0.1,0-0.1-0.1-0.2c-0.2,0-0.4-0.1-0.7-0.1s-0.5-0.2-0.7-0.3c-0.1-0.1-0.2-0.2-0.3-0.4
			c-0.1-0.1-0.1-0.4-0.2-0.7c0-0.2,0-0.4-0.1-0.6c0-0.2,0-0.4,0-0.5l0-2.8l-0.1-1.5l7,7.5c0.1,0.1,0.2,0.2,0.3,0.2s0.1,0,0.2,0
			c0.1,0,0.2-0.1,0.2-0.1c0-0.1,0-0.3,0-0.6c0-0.2,0-0.5,0-0.7s0-0.4,0-0.6s0-0.3,0-0.3l0-5.1c0-0.4,0-0.7,0.1-1
			c0.1-0.3,0.2-0.5,0.4-0.7c0.2-0.2,0.4-0.3,0.6-0.4c0.2-0.1,0.5-0.1,0.7-0.1c0,0,0-0.1,0-0.1s0-0.1,0-0.1
			C624.6,152.4,624.6,152.3,624.6,152.2z M610.6,161.8v-2.6c-0.1-0.1-0.2-0.1-0.3-0.1c-0.1,0-0.1,0-0.1,0c0,0-0.1,0-0.2,0.1
			c-0.1,0.2-0.2,0.5-0.3,0.7c-0.1,0.2-0.3,0.4-0.5,0.6s-0.3,0.4-0.5,0.5c-0.1,0.1-0.3,0.2-0.4,0.3c-0.1,0.1-0.2,0.1-0.5,0.1
			s-0.4,0-0.6,0h-1.4c-0.3,0-0.5,0-0.6,0c-0.1,0-0.2,0-0.3,0c-0.1,0-0.3-0.1-0.4-0.2s-0.2-0.2-0.2-0.3c-0.1-0.2-0.1-0.6-0.1-1.2
			v-2.6c0.1,0,0.2,0,0.3,0c0.1,0,0.2,0,0.3,0c0.2,0,0.4,0,0.5,0c0.2,0,0.4,0.1,0.6,0.2c0.4,0.1,0.6,0.4,0.7,0.7
			c0.1,0.3,0.2,0.6,0.2,1.1c0.1,0,0.2,0,0.3,0c0.1,0,0.1,0,0.2,0c0,0,0.1,0,0.1-0.1c0-0.1,0-0.2,0-0.4s0-0.4,0-0.6
			c0-0.2,0-0.4,0-0.6c0-0.2,0-0.3,0-0.4c0-0.5,0-0.9,0-1.3c0-0.4,0-0.7,0.1-0.9c-0.1-0.1-0.1-0.1-0.3-0.1c-0.1,0-0.2,0-0.3,0.1
			c0,0.1-0.1,0.2-0.1,0.4c0,0.2-0.1,0.3-0.1,0.4c-0.1,0.2-0.3,0.3-0.4,0.4c-0.2,0.1-0.4,0.2-0.6,0.3c-0.1,0-0.3,0.1-0.5,0.1
			s-0.4,0-0.6,0h-0.3v-1.3c0-0.3,0-0.6,0-0.8c0-0.2,0-0.4,0-0.6c0-0.2,0-0.3,0-0.4c0-0.1,0-0.2,0-0.2c0-0.2,0-0.3,0-0.3
			c0,0,0,0,0.1,0c0,0,0.1,0,0.3,0c0.2,0,0.4,0,0.8,0c0.4,0,0.7,0,0.9,0s0.3,0,0.4,0c0.4,0,0.7,0.1,0.9,0.3c0.1,0.1,0.3,0.2,0.4,0.3
			s0.2,0.2,0.3,0.3c0.1,0.1,0.2,0.3,0.4,0.4c0.1,0.2,0.3,0.4,0.4,0.7c0.1,0,0.1,0,0.2,0c0.1,0,0.1,0,0.1,0c0,0,0.1,0,0.1-0.1
			l-0.1-2.3c0-0.1,0-0.2-0.1-0.2c-0.1,0-0.1,0-0.3,0c0,0-0.1,0-0.2,0c-0.1,0-0.2,0-0.3,0c-0.1,0-0.2,0-0.3,0c-0.1,0-0.2,0-0.2,0
			c-0.1,0-0.3,0-0.5,0c-0.2,0-0.5,0-0.9,0c-0.3,0-0.7,0-1.1,0c-0.4,0-0.8,0-1.3,0c-0.9,0-1.7,0-2.2,0c-0.5,0-0.9,0-1.1,0h-0.5
			c0,0,0,0.1-0.1,0.1c0,0.1,0,0.1,0,0.1c0,0.1,0,0.2,0.1,0.3c0.3,0,0.5,0.1,0.7,0.1c0.2,0,0.4,0.1,0.5,0.2c0.1,0.1,0.2,0.2,0.3,0.3
			c0.1,0.1,0.1,0.4,0.1,0.6c0,0.2,0,0.4,0,0.6s0,0.6,0,0.9c0,0.6,0,1.1,0,1.5s0,0.9,0,1.3c0,0.3,0,0.5,0,0.8c0,0.2,0,0.5,0,0.7
			c0,0.5-0.1,0.8-0.1,1s-0.1,0.4-0.2,0.5c-0.1,0.1-0.2,0.1-0.5,0.2c-0.3,0.1-0.6,0.1-1,0.1c0,0,0,0.1,0,0.1c0,0.1,0,0.1,0,0.1
			c0,0.1,0,0.1,0.1,0.2l0.6,0c0.5,0,1,0,1.5,0c0.4,0,0.8,0,1,0c0.2,0,0.4,0,0.7,0c0.3,0,0.5,0,0.7,0c0.2,0,0.7,0,1.5,0
			c0.8,0,2,0,3.5,0c0.2,0,0.3,0,0.4-0.1S610.6,162,610.6,161.8z M598.4,161.7c0,0,0-0.1,0-0.1c-0.1,0-0.3,0-0.6,0s-0.4,0-0.5-0.1
			c-0.3-0.1-0.5-0.3-0.5-0.7c-0.1-0.3-0.1-0.7-0.1-1.2V155c0-0.1,0-0.3,0-0.4s0-0.3,0-0.5s0-0.3,0-0.5c0-0.1,0-0.2,0.1-0.3
			c0.1-0.2,0.3-0.4,0.6-0.4s0.6-0.1,0.9-0.1c0-0.1,0.1-0.2,0.1-0.3c0-0.1,0-0.1-0.1-0.2h-5c0,0.1,0,0.1-0.1,0.1c0,0,0,0.1,0,0.1
			c0,0.1,0,0.2,0.1,0.3c0.5,0,0.9,0.1,1.2,0.2c0.3,0.1,0.4,0.3,0.4,0.7c0,0.3,0,0.6,0,0.8s0,0.5,0,0.7v2.7c0,0.1,0,0.3,0,0.6
			c0,0.3,0,0.6,0,1c0,0.4,0,0.7,0,1c0,0.3,0,0.5-0.1,0.5c-0.1,0.2-0.3,0.4-0.5,0.5c-0.2,0.1-0.6,0.1-1.1,0.2c0,0.1-0.1,0.2-0.1,0.3
			c0,0,0,0.1,0,0.1s0,0.1,0,0.1h5.3c0.1-0.1,0.1-0.2,0.1-0.3C598.5,161.7,598.5,161.7,598.4,161.7z M587.8,155.3
			c-0.1,0.2-0.1,0.4-0.3,0.6c-0.1,0.2-0.2,0.3-0.4,0.5s-0.4,0.2-0.6,0.3c-0.2,0-0.4,0.1-0.8,0.1c-0.3,0-0.6,0-1,0
			c-0.1,0-0.2,0-0.3,0c-0.1,0-0.2,0-0.3,0v-3.6c0-0.1,0-0.2,0.1-0.3s0.3-0.1,0.6-0.1c0.3,0,0.6,0,0.9,0c0.3,0,0.5,0,0.7,0.1
			c0.2,0.1,0.4,0.1,0.5,0.2s0.3,0.2,0.4,0.4c0.1,0.2,0.2,0.4,0.3,0.5c0.1,0.2,0.1,0.4,0.1,0.7C587.9,154.9,587.8,155.1,587.8,155.3z
			 M591.5,161.6c0,0-0.1,0-0.2,0c-0.1,0-0.2,0-0.3,0c-0.1,0-0.2,0-0.3-0.1c-0.1,0-0.2,0-0.2,0c-0.1,0-0.1-0.1-0.2-0.1
			c-0.1-0.1-0.1-0.1-0.1-0.2c-0.1-0.3-0.2-0.6-0.3-0.8c-0.1-0.3-0.2-0.5-0.3-0.8c-0.1-0.4-0.3-0.7-0.4-0.9s-0.3-0.4-0.5-0.6
			c-0.1-0.1-0.3-0.3-0.6-0.4c-0.2-0.1-0.5-0.2-0.9-0.3v-0.1c1-0.1,1.7-0.4,2.2-0.8c0.4-0.4,0.6-1,0.6-1.5c0-0.6-0.2-1.1-0.5-1.5
			c-0.3-0.4-0.8-0.7-1.4-0.9c-0.2-0.1-0.5-0.1-0.8-0.1c-0.3,0-0.7,0-1.1,0c-0.6,0-1.1,0-1.5,0c-0.5,0-0.9,0-1.2,0
			c-0.1,0-0.3,0-0.5,0s-0.5,0-0.7,0c-0.3,0-0.5,0-0.8,0s-0.5,0-0.8,0c0,0.1,0,0.1-0.1,0.1c0,0,0,0,0,0.1c0,0.1,0,0.2,0,0.3
			c0.6,0,1,0.1,1.3,0.3s0.4,0.4,0.5,0.7c0,0.1,0.1,0.4,0.1,0.8s0,0.9,0,1.5v3.2c0,0.1,0,0.2,0,0.3s0,0.3,0,0.4c0,0.1,0,0.3,0,0.4
			c0,0.1,0,0.2,0,0.3c0,0.1-0.1,0.3-0.1,0.4s-0.1,0.3-0.2,0.4c0,0-0.1,0.1-0.2,0.1c-0.1,0-0.2,0.1-0.4,0.1c-0.1,0-0.3,0-0.4,0.1
			c-0.1,0-0.3,0-0.4,0c0,0.1,0,0.1,0,0.1c0,0,0,0.1,0,0.1c0,0,0,0.1,0,0.1c0,0,0,0.1,0,0.2c0.1,0,0.2,0,0.4,0c0.2,0,0.5,0,0.8,0
			c0.3,0,0.6,0,0.9,0c0.3,0,0.6,0,0.8,0c0.5,0,0.9,0,1.2,0c0.3,0,0.7,0,1.1,0c0-0.1,0-0.1,0.1-0.1c0,0,0-0.1,0-0.1
			c0-0.1,0-0.2-0.1-0.3c-0.3,0-0.6-0.1-0.8-0.1s-0.4-0.2-0.5-0.3c-0.2-0.2-0.3-0.6-0.3-1.1v-2.7h0.3c0.2,0,0.4,0,0.6,0
			s0.5,0,0.7,0.1c0.3,0.1,0.5,0.3,0.7,0.5c0.2,0.2,0.4,0.4,0.5,0.6c0.1,0.2,0.2,0.4,0.3,0.6c0.1,0.2,0.2,0.5,0.3,0.8
			c0.1,0.3,0.2,0.5,0.2,0.8s0.1,0.5,0.2,0.8c0,0.2,0.1,0.3,0.1,0.4c0.1,0.1,0.2,0.2,0.4,0.2l2.9,0c0-0.1,0-0.2,0-0.3
			C591.6,161.7,591.5,161.6,591.5,161.6z M579.5,151.2l-0.2-3.1c0-0.1,0-0.2,0-0.2c0,0,0-0.1-0.1-0.1c-0.1,0-0.2,0-0.4,0
			c-0.2,0-0.4,0-0.6,0c-0.2,0-0.3,0-0.5,0s-0.4,0-0.6,0s-0.5,0-0.8,0c-0.3,0-0.7,0-1.1,0c-1.2,0-2.1,0-2.7,0s-0.9,0-1,0
			c-0.2,0-0.5,0-0.8,0c-0.3,0-0.7,0-1,0s-0.7,0-1,0c-0.3,0-0.6,0-0.9,0c0,0.1-0.1,0.1-0.1,0.1c0,0,0,0.1,0,0.1c0,0.1,0,0.2,0.1,0.3
			c0.3,0,0.6,0.1,0.9,0.1c0.3,0,0.5,0.1,0.6,0.2c0.2,0.2,0.3,0.4,0.5,0.6c0.1,0.2,0.2,0.4,0.2,0.6c0,0.1,0,0.4,0.1,0.7
			c0,0.3,0,0.8,0,1.3v7.7c-0.1,0.5-0.1,1-0.2,1.3c-0.1,0.3-0.2,0.5-0.4,0.7c-0.2,0-0.5,0.1-0.9,0.1s-0.7,0.1-1,0.1
			c-0.1,0.1-0.1,0.2-0.1,0.3c0,0.1,0,0.2,0.1,0.3h0.8c0.6,0,1.1,0,1.6,0c0.5,0,0.9,0,1.4,0c0.2,0,0.4,0,0.7,0c0.3,0,0.5,0,0.8,0
			c0.3,0,0.5,0,0.8,0c0.3,0,0.5,0,0.7,0h0.5c0-0.1,0-0.1,0.1-0.1c0,0,0-0.1,0-0.1c0-0.1,0-0.2-0.1-0.3c-0.1,0-0.2,0-0.4,0
			c-0.2,0-0.3,0-0.5-0.1s-0.3,0-0.5-0.1c-0.1,0-0.2,0-0.3,0c-0.2-0.1-0.3-0.2-0.5-0.4c-0.2-0.2-0.3-0.5-0.4-0.9c0-0.1,0-0.3,0-0.5
			c0-0.2,0-0.5,0-0.7s0-0.6,0-0.9c0-0.3,0-0.6,0-0.8c0-0.4,0-0.8,0-1.1s0-0.5,0-0.6c0-0.2,0-0.3,0-0.3c0-0.1,0-0.1,0-0.2
			c0.2,0,0.4-0.1,0.6-0.1c0.4,0,0.8,0,1.1,0.1c0.3,0.1,0.5,0.1,0.6,0.2c0.3,0.2,0.5,0.4,0.6,0.7c0.2,0.2,0.2,0.5,0.3,0.7
			c0,0.2,0.1,0.4,0.1,0.6c0,0.2,0,0.3,0.1,0.4c0.1,0,0.1,0,0.1,0s0.1,0,0.1,0c0.1,0,0.2,0,0.3-0.1v-0.7c0-0.1,0-0.3,0-0.5
			c0-0.2,0-0.4,0-0.6c0-0.2,0-0.4,0-0.6c0-0.2,0-0.4,0-0.5s0-0.3,0-0.5c0-0.2,0-0.5,0-0.7c0-0.3,0-0.5,0-0.8c0-0.3,0-0.5,0-0.8
			c0,0-0.1,0-0.1-0.1c0,0-0.1,0-0.2,0c-0.1,0-0.1,0-0.2,0c0,0-0.1,0-0.1,0c0,0.1,0,0.2-0.1,0.4c0,0.2,0,0.3-0.1,0.5
			c0,0.2-0.1,0.3-0.1,0.5c-0.1,0.2-0.1,0.3-0.2,0.4c-0.1,0.1-0.2,0.3-0.4,0.4s-0.3,0.2-0.5,0.2c-0.2,0.1-0.4,0.1-0.6,0.1
			c-0.2,0-0.4,0-0.5,0c-0.2,0-0.4,0-0.5,0c-0.1,0-0.2,0-0.4,0v-5.7c0-0.1,0-0.2,0.1-0.3c0,0,0.1-0.1,0.3-0.1l3.4,0
			c0.3,0,0.5,0.1,0.7,0.2c0.1,0.1,0.3,0.2,0.5,0.4c0.2,0.1,0.3,0.3,0.5,0.5c0.2,0.2,0.4,0.5,0.6,0.8c0.2,0.3,0.4,0.7,0.6,1.1
			c0,0,0.1,0,0.1,0c0,0,0.1,0,0.1,0c0.1,0,0.1,0,0.2,0C579.4,151.2,579.5,151.2,579.5,151.2z"/>
		<path fill="#FFFFFF" d="M647.2,157.8L647.2,157.8c-0.2-0.5-0.7-0.8-1.2-1.1c-0.3-0.1-0.8-0.3-1.6-0.6c-0.3-0.1-0.6-0.2-0.8-0.3
			c-0.2-0.1-0.5-0.2-0.7-0.3l0,0l0,0c-0.3-0.1-0.5-0.3-0.8-0.5c-0.3-0.2-0.4-0.5-0.4-0.9c0-0.4,0.2-0.8,0.5-1s0.8-0.4,1.2-0.4
			c0.4,0,0.8,0.1,1.1,0.2c0.3,0.1,0.6,0.3,0.8,0.6c0.2,0.2,0.3,0.5,0.4,0.8c0.1,0.3,0.3,0.6,0.4,0.9l0,0l0,0c0.1,0,0.1,0,0.2,0
			c0.1,0,0.2,0,0.2-0.1c0.1,0,0.1-0.1,0.2-0.1l0,0v0c0,0,0-0.1,0-0.3c0-0.1,0-0.3,0-0.4c0-0.2,0-0.3-0.1-0.5c0-0.1,0-0.3,0-0.3
			c0-0.3,0-0.5,0.1-0.8c0-0.3,0.1-0.5,0.1-0.6l0,0l0,0c0-0.1-0.1-0.1-0.2-0.2c-0.1-0.1-0.2-0.1-0.4-0.1h0l0,0
			c-0.1,0.1-0.2,0.2-0.3,0.3c-0.1,0.1-0.2,0.2-0.3,0.3l0,0l0,0c-0.4-0.3-0.8-0.5-1.2-0.6c-0.4-0.1-0.8-0.1-1.2-0.1
			c-0.4,0-0.9,0.1-1.2,0.2s-0.7,0.3-1,0.6s-0.5,0.6-0.6,0.9c-0.1,0.3-0.2,0.7-0.2,1.1c0,0.3,0,0.6,0.1,0.9c0.1,0.3,0.2,0.6,0.5,0.9
			l0,0h0c0.2,0.2,0.4,0.4,0.6,0.5c0.2,0.2,0.5,0.3,0.8,0.5l0,0l0,0c0.2,0.1,0.3,0.2,0.6,0.2c0.2,0.1,0.5,0.2,0.7,0.2
			c0.3,0.1,0.5,0.2,0.7,0.2c0.2,0.1,0.4,0.1,0.5,0.2c0.3,0.1,0.5,0.3,0.6,0.4c0.1,0.1,0.3,0.2,0.4,0.4l0,0c0.2,0.2,0.3,0.5,0.3,0.9
			c0,0.2,0,0.4-0.1,0.6c-0.1,0.2-0.2,0.4-0.4,0.6c-0.3,0.3-0.8,0.5-1.6,0.5c-0.3,0-0.7-0.1-1.1-0.2c-0.4-0.2-0.8-0.4-1.1-0.8l0,0
			l0,0c-0.1-0.1-0.2-0.2-0.2-0.4c-0.1-0.2-0.2-0.4-0.2-0.5c-0.1-0.2-0.2-0.4-0.2-0.5c-0.1-0.2-0.1-0.3-0.2-0.4l0,0l0,0
			c0,0-0.1,0-0.2,0c-0.2,0-0.4,0.1-0.5,0.2l0,0v0c0,0.1,0,0.2,0,0.3c0,0.2,0,0.3,0,0.5c0,0.2,0,0.3,0,0.5c0,0.2,0,0.3,0,0.3
			c0,0.2,0,0.4-0.1,0.7c-0.1,0.3-0.1,0.4-0.1,0.6v0l0,0c0,0.1,0.1,0.2,0.3,0.2c0.1,0.1,0.2,0.1,0.4,0.1h0l0,0
			c0.2-0.1,0.3-0.2,0.4-0.3c0.1-0.1,0.2-0.1,0.3-0.1c0,0,0.1,0,0.2,0c0.1,0,0.1,0,0.2,0.1l0,0l0,0c0.3,0.1,0.6,0.3,1.1,0.4
			c0.4,0.1,0.8,0.2,1.3,0.2c0.5,0,0.9-0.1,1.3-0.2c0.4-0.1,0.8-0.3,1.1-0.6c0.3-0.3,0.6-0.6,0.8-1c0.2-0.4,0.3-0.8,0.3-1.3
			C647.6,158.7,647.5,158.2,647.2,157.8L647.2,157.8L647.2,157.8c0.2,0.4,0.3,0.9,0.3,1.5c0,0.4-0.1,0.9-0.3,1.2
			c-0.2,0.4-0.4,0.7-0.8,0.9c-0.3,0.3-0.7,0.5-1.1,0.6c-0.4,0.1-0.9,0.2-1.3,0.2c-0.4,0-0.8-0.1-1.2-0.2c-0.4-0.1-0.8-0.3-1-0.4l0,0
			l0,0c0,0-0.1-0.1-0.2-0.1c-0.1,0-0.1,0-0.2,0c-0.1,0-0.2,0-0.3,0.1c-0.1,0.1-0.3,0.2-0.4,0.3l0,0v0c-0.1,0-0.2,0-0.3-0.1
			s-0.2-0.1-0.2-0.2l0,0h0c0-0.1,0-0.3,0.1-0.5c0.1-0.3,0.1-0.5,0.1-0.7c0-0.1,0-0.2,0-0.3c0-0.2,0-0.3,0-0.5c0-0.2,0-0.3,0-0.5
			c0-0.2,0-0.3,0-0.3h0l0,0c0.1-0.1,0.2-0.2,0.4-0.2c0.1,0,0.1,0,0.1,0l0,0l0,0c0.1,0.1,0.1,0.2,0.2,0.4c0.1,0.2,0.2,0.4,0.2,0.5
			c0.1,0.2,0.2,0.4,0.3,0.6c0.1,0.2,0.2,0.3,0.3,0.4l0,0c0.3,0.4,0.7,0.6,1.1,0.8c0.4,0.2,0.8,0.3,1.1,0.3c0.8,0,1.3-0.2,1.6-0.5
			c0.2-0.2,0.4-0.4,0.5-0.6c0.1-0.2,0.1-0.4,0.1-0.6c0-0.4-0.1-0.7-0.3-0.9l0,0l0,0c-0.1-0.2-0.3-0.3-0.4-0.4
			c-0.1-0.1-0.4-0.2-0.7-0.4c-0.1-0.1-0.3-0.1-0.5-0.2c-0.2-0.1-0.5-0.1-0.7-0.2c-0.3-0.1-0.5-0.2-0.7-0.2c-0.2-0.1-0.4-0.2-0.6-0.2
			h0l0,0c-0.3-0.2-0.6-0.3-0.8-0.5c-0.2-0.2-0.4-0.3-0.6-0.5l0,0l0,0c-0.2-0.3-0.4-0.6-0.4-0.9c-0.1-0.3-0.1-0.6-0.1-0.9
			c0-0.4,0.1-0.8,0.2-1.1c0.1-0.3,0.3-0.6,0.6-0.9c0.3-0.2,0.6-0.4,1-0.6c0.4-0.1,0.8-0.2,1.2-0.2c0.3,0,0.7,0,1.1,0.1
			c0.4,0.1,0.8,0.3,1.2,0.6l0,0l0,0c0.1-0.1,0.2-0.2,0.3-0.3c0.1-0.1,0.2-0.2,0.3-0.3l0,0v0c0.1,0,0.2,0,0.3,0.1
			c0.1,0.1,0.1,0.1,0.1,0.1l0,0l0,0c0,0.1,0,0.3-0.1,0.6c0,0.3-0.1,0.5-0.1,0.8c0,0.1,0,0.2,0,0.3c0,0.1,0,0.3,0.1,0.5
			c0,0.2,0,0.3,0,0.4c0,0.1,0,0.2,0,0.3h0l0,0c-0.1,0-0.1,0.1-0.2,0.1c-0.1,0-0.1,0-0.2,0c0,0-0.1,0-0.2,0l0,0l0,0
			c-0.1-0.2-0.3-0.5-0.4-0.9c-0.1-0.3-0.3-0.6-0.4-0.9c-0.2-0.3-0.5-0.5-0.9-0.7c-0.3-0.1-0.7-0.2-1.1-0.2c-0.5,0-0.9,0.1-1.3,0.4
			c-0.4,0.3-0.6,0.7-0.5,1.1c0,0.4,0.1,0.8,0.4,1c0.3,0.2,0.5,0.4,0.8,0.5l0,0c0.2,0.1,0.4,0.2,0.7,0.3s0.5,0.2,0.8,0.3
			c0.8,0.3,1.3,0.5,1.6,0.6C646.5,157.1,646.9,157.4,647.2,157.8L647.2,157.8z M635.1,158.9L635.1,158.9c-0.2,0.5-0.5,0.9-0.9,1.3
			l0,0c-0.3,0.4-0.7,0.7-1.2,0.9c-0.5,0.2-1,0.3-1.6,0.3c-0.2,0-0.4,0-0.5-0.1c-0.1-0.1-0.3-0.2-0.4-0.3c-0.2-0.2-0.3-0.6-0.3-1.1
			V153l0-0.1l0,0l0,0c0.1,0,0.2,0,0.3-0.1c0.1,0,0.2,0,0.4,0c0.6,0,1.2,0.1,1.6,0.2c0.5,0.2,0.9,0.4,1.3,0.7c0.6,0.4,1,0.9,1.2,1.5
			c0.2,0.6,0.4,1.3,0.4,2.1C635.3,157.9,635.3,158.4,635.1,158.9L635.1,158.9L635.1,158.9c0.2-0.5,0.3-1.1,0.3-1.7
			c0-0.8-0.1-1.5-0.4-2.1c-0.2-0.6-0.7-1.1-1.2-1.5c-0.4-0.3-0.8-0.5-1.3-0.7c-0.5-0.2-1-0.2-1.7-0.2c-0.2,0-0.3,0-0.4,0
			c-0.1,0-0.2,0-0.3,0.1l0,0l0,0.2v6.9c0,0.6,0.1,1,0.3,1.2c0.1,0.2,0.3,0.3,0.5,0.4c0.2,0.1,0.4,0.1,0.6,0.1c0.6,0,1.2-0.1,1.7-0.3
			c0.5-0.2,0.9-0.5,1.2-0.9l0,0l0,0C634.7,159.9,635,159.5,635.1,158.9L635.1,158.9z M637.4,156L637.4,156c-0.1-0.5-0.2-0.9-0.4-1.3
			c-0.2-0.4-0.5-0.8-0.8-1.1c-0.3-0.3-0.7-0.6-1.1-0.8l0,0l0,0c-0.4-0.2-0.9-0.4-1.4-0.5c-0.5-0.1-1.2-0.2-1.8-0.2c-0.3,0-0.6,0-1,0
			c-0.4,0-0.7,0-1,0c-0.3,0-0.6,0-0.9,0c-0.3,0-0.5,0-0.6,0c-0.2,0-0.4,0-0.6,0c-0.2,0-0.4,0-0.6,0h-0.7l0,0
			c-0.1,0.1-0.1,0.2-0.1,0.3c0,0,0,0.1,0,0.1c0,0,0,0.1,0,0.1l0,0h0c0.4,0,0.7,0,0.9,0.1c0.2,0.1,0.4,0.2,0.5,0.3
			c0.1,0.1,0.2,0.2,0.2,0.4c0,0.2,0,0.3,0.1,0.4s0,0.5,0.1,1c0,0.5,0,1.3,0,2.3v2.3c0,0.5,0,0.8-0.1,1c-0.1,0.2-0.1,0.4-0.1,0.4l0,0
			c-0.1,0.2-0.3,0.3-0.5,0.4c-0.2,0.1-0.6,0.1-1.1,0.2l0,0l0,0c0,0.1,0,0.1-0.1,0.2c0,0,0,0.1,0,0.1c0,0.1,0,0.2,0.1,0.3l0,0h0.3
			c0.1,0,0.2,0,0.4,0c0.1,0,0.3,0,0.5,0c0.2,0,0.5,0,0.8,0c0.3,0,0.8,0,1.3,0c0.5,0,0.9,0,1.3,0c0.4,0,0.7,0,1,0
			c0.6,0,1.1,0,1.6-0.1c0.5-0.1,0.9-0.2,1.3-0.3c0.4-0.1,0.7-0.4,1-0.6c0.3-0.3,0.6-0.6,0.9-1l0,0c0.3-0.4,0.5-0.9,0.6-1.4
			c0.1-0.5,0.2-1,0.2-1.5C637.6,156.9,637.6,156.5,637.4,156L637.4,156L637.4,156c0.1,0.4,0.1,0.9,0.1,1.3c0,0.5-0.1,0.9-0.2,1.4
			c-0.1,0.5-0.3,0.9-0.6,1.3l0,0l0,0c-0.3,0.4-0.6,0.7-0.9,0.9c-0.3,0.3-0.6,0.5-1,0.6c-0.4,0.1-0.8,0.2-1.3,0.3
			c-0.5,0.1-1,0.1-1.6,0.1c-0.2,0-0.6,0-1,0s-0.8,0-1.3,0c-0.5,0-1,0-1.3,0c-0.3,0-0.6,0-0.8,0c-0.2,0-0.4,0-0.5,0
			c-0.1,0-0.3,0-0.4,0h-0.2v0l0,0c0-0.1-0.1-0.1-0.1-0.2c0,0,0-0.1,0-0.1c0,0,0-0.1,0-0.2l0,0l0,0c0.5,0,0.9-0.1,1.1-0.2
			c0.2-0.1,0.4-0.2,0.5-0.4l0,0l0,0c0-0.1,0.1-0.2,0.1-0.4c0.1-0.2,0.1-0.6,0.1-1v-2.3c0-1.1,0-1.8,0-2.3c0-0.5,0-0.8-0.1-1
			c0-0.1,0-0.3-0.1-0.5c0-0.2-0.1-0.3-0.2-0.4c-0.1-0.1-0.3-0.2-0.5-0.3c-0.2-0.1-0.5-0.1-0.9-0.1v0l0,0c0-0.1,0-0.1,0-0.2
			c0,0,0-0.1,0-0.1c0-0.1,0-0.1,0.1-0.2l0,0v0h0.7c0.2,0,0.4,0,0.6,0c0.2,0,0.4,0,0.6,0c0.1,0,0.3,0,0.6,0c0.3,0,0.6,0,0.9,0
			c0.3,0,0.7,0,1,0c0.4,0,0.7,0,0.9,0c0.7,0,1.3,0.1,1.8,0.2c0.5,0.1,1,0.3,1.4,0.5l0,0c0.4,0.2,0.8,0.5,1.1,0.8
			c0.3,0.3,0.6,0.7,0.8,1.1S637.3,155.6,637.4,156L637.4,156z M624.6,152.2L624.6,152.2l-0.4,0c-0.1,0-0.3,0-0.4,0
			c-0.1,0-0.3,0-0.4,0c-0.2,0-0.3,0-0.6,0c-0.2,0-0.5,0-0.7,0c-0.2,0-0.5,0-0.9,0c-0.3,0-0.6,0-0.9,0H620l0,0c0,0.1,0,0.2,0,0.2
			c0,0.1,0,0.2,0.1,0.3l0,0l0,0c0.1,0,0.3,0.1,0.4,0.1c0.2,0,0.3,0.1,0.5,0.1c0.2,0,0.3,0.1,0.4,0.1c0.1,0.1,0.2,0.1,0.2,0.2
			c0.2,0.3,0.3,0.6,0.3,1c0,0.1,0,0.3,0,0.4c0,0.2,0,0.4,0,0.7v4.1h0l0,0c-0.1-0.2-0.3-0.4-0.6-0.7c-0.2-0.3-0.4-0.5-0.6-0.7
			l-5.2-5.7l0,0c-0.1-0.1-0.2-0.2-0.3-0.2l0,0h-0.5c-0.2,0-0.4,0-0.6,0c-0.2,0-0.4,0-0.6,0c-0.2,0-0.4,0-0.5,0c-0.1,0-0.2,0-0.3,0
			h-0.3l0,0c0,0.1-0.1,0.2-0.1,0.3c0,0,0,0,0,0.1c0,0.1,0,0.1,0.1,0.2l0,0l0,0c0.2,0.1,0.4,0.1,0.6,0.2c0.2,0.1,0.4,0.2,0.5,0.3l0,0
			c0.1,0.1,0.2,0.2,0.3,0.3c0.1,0.1,0.2,0.2,0.2,0.2l0,0l0,0c0.2,0.3,0.3,0.6,0.3,1.1c0,0.3,0,0.5,0,0.7c0,0.2,0,0.4,0,0.7v3.6
			c0,0.2,0,0.5,0,0.7c0,0.2-0.1,0.4-0.1,0.5l0,0l0,0c-0.1,0.1-0.2,0.2-0.3,0.3s-0.3,0.1-0.4,0.2c-0.1,0.1-0.3,0.1-0.4,0.1
			c-0.2,0-0.3,0.1-0.4,0.1l0,0l0,0c0,0.1,0,0.1-0.1,0.2c0,0,0,0.1,0,0.1c0,0.1,0,0.2,0,0.2l0,0h0.4c0.2,0,0.5,0,0.7,0
			c0.3,0,0.5,0,0.7,0c0.3,0,0.7,0,0.9,0c0.3,0,0.6,0,0.9,0h0.8l0,0c0-0.1,0-0.1,0.1-0.2c0,0,0-0.1,0-0.1c0-0.1,0-0.2-0.1-0.2l0,0
			l0,0c-0.2,0-0.4-0.1-0.7-0.1c-0.2-0.1-0.5-0.2-0.6-0.3c-0.1-0.1-0.2-0.2-0.3-0.4c-0.1-0.1-0.1-0.4-0.2-0.7v0c0-0.2,0-0.4-0.1-0.6
			c0-0.2,0-0.4,0-0.5l0-2.8l0,0l-0.1-1.4l6.9,7.5l0,0c0.1,0.1,0.2,0.2,0.3,0.2c0.1,0,0.1,0,0.2,0c0.1,0,0.2-0.1,0.2-0.1l0,0v0
			c0-0.1,0-0.3,0-0.6c0-0.2,0-0.5,0-0.7c0-0.2,0-0.4,0-0.6s0-0.3,0-0.3l0-5.1c0-0.4,0-0.7,0.1-1c0.1-0.3,0.2-0.5,0.4-0.7
			c0.2-0.2,0.4-0.3,0.6-0.4c0.2-0.1,0.5-0.1,0.7-0.1l0,0l0,0c0,0,0-0.1,0.1-0.2c0,0,0-0.1,0-0.1
			C624.7,152.4,624.7,152.3,624.6,152.2L624.6,152.2L624.6,152.2L624.6,152.2L624.6,152.2c0,0.1,0,0.2,0,0.2c0,0,0,0.1,0,0.1
			c0,0,0,0.1,0,0.1l0,0l0,0c-0.3,0-0.5,0.1-0.7,0.1c-0.2,0.1-0.4,0.2-0.6,0.4c-0.2,0.2-0.3,0.4-0.4,0.7c-0.1,0.3-0.2,0.6-0.2,1
			l0,5.1c0,0.1,0,0.2,0,0.4c0,0.2,0,0.4,0,0.6s0,0.5,0,0.7s0,0.4,0,0.6h0l0,0c-0.1,0-0.1,0.1-0.2,0.1c-0.1,0-0.1,0-0.2,0
			c0,0-0.1,0-0.2-0.1l0,0l0,0l-7.1-7.6l0.1,1.7l0,0h0l0,2.8c0,0.1,0,0.3,0,0.5c0,0.2,0,0.4,0.1,0.6l0,0l0,0c0,0.3,0.1,0.5,0.2,0.7
			c0.1,0.2,0.2,0.3,0.3,0.4c0.2,0.2,0.4,0.3,0.7,0.3c0.3,0.1,0.5,0.1,0.7,0.1l0,0l0,0c0,0.1,0.1,0.1,0.1,0.2c0,0,0,0.1,0,0.1
			c0,0,0,0.1-0.1,0.1l0,0v0h-0.8c-0.3,0-0.6,0-0.9,0c-0.3,0-0.6,0-0.9,0c-0.2,0-0.5,0-0.7,0c-0.3,0-0.5,0-0.7,0h-0.3v0l0,0
			c0-0.1,0-0.1,0-0.2c0,0,0-0.1,0-0.1c0,0,0-0.1,0-0.2l0,0l0,0c0.1,0,0.3,0,0.4-0.1c0.2,0,0.3-0.1,0.5-0.1c0.2-0.1,0.3-0.1,0.4-0.2
			s0.2-0.2,0.3-0.3l0,0l0,0c0.1-0.1,0.1-0.3,0.1-0.5c0-0.2,0-0.4,0-0.7v-3.6c0-0.3,0-0.5,0-0.7c0-0.2,0-0.4,0-0.7
			c0-0.5-0.1-0.8-0.4-1.1l0,0l0,0c0,0-0.1-0.1-0.2-0.2c-0.1-0.1-0.2-0.2-0.3-0.3l0,0l0,0c-0.1-0.1-0.3-0.2-0.5-0.3
			c-0.2-0.1-0.4-0.2-0.6-0.2l0,0l0,0c0,0,0-0.1,0-0.1c0,0,0-0.1,0-0.1c0-0.1,0-0.2,0.1-0.2l0,0v0h0.3c0.1,0,0.2,0,0.3,0
			c0.1,0,0.3,0,0.5,0s0.4,0,0.6,0c0.2,0,0.4,0,0.6,0h0.5v0l0,0c0.1,0.1,0.2,0.1,0.3,0.2l0,0l0,0l5.2,5.7c0.2,0.2,0.4,0.5,0.6,0.7
			c0.2,0.3,0.4,0.5,0.5,0.7l0.1,0.1v-4.2c0-0.3,0-0.5,0-0.7c0-0.2,0-0.3,0-0.4c0-0.4-0.1-0.8-0.3-1.1c-0.1-0.1-0.1-0.1-0.3-0.2
			c-0.1-0.1-0.3-0.1-0.4-0.1c-0.2,0-0.3-0.1-0.5-0.1c-0.2,0-0.3-0.1-0.4-0.1l0,0l0,0c0-0.1-0.1-0.2-0.1-0.3c0-0.1,0-0.1,0-0.2l0,0v0
			h0.3c0.2,0,0.5,0,0.9,0c0.3,0,0.6,0,0.9,0c0.3,0,0.5,0,0.8,0s0.4,0,0.5,0s0.3,0,0.4,0c0.1,0,0.3,0,0.4,0L624.6,152.2L624.6,152.2
			L624.6,152.2L624.6,152.2z M610.6,161.8L610.6,161.8l0-2.7l0,0c-0.1-0.1-0.2-0.1-0.3-0.1c-0.1,0-0.1,0-0.1,0c0,0-0.1,0-0.2,0.1
			l0,0l0,0c-0.1,0.2-0.2,0.4-0.3,0.7c-0.1,0.2-0.3,0.4-0.4,0.6c-0.2,0.2-0.3,0.4-0.5,0.5c-0.1,0.1-0.3,0.2-0.3,0.3h0l0,0
			c-0.1,0.1-0.2,0.1-0.4,0.1c-0.2,0-0.4,0-0.6,0h-1.4c-0.3,0-0.5,0-0.6,0c-0.1,0-0.2,0-0.3,0c-0.1,0-0.3-0.1-0.4-0.2
			c-0.1-0.1-0.2-0.2-0.2-0.3c-0.1-0.2-0.1-0.6-0.1-1.1v-2.6h0l0,0c0.1,0,0.2,0,0.3,0c0.1,0,0.2,0,0.3,0c0.2,0,0.4,0,0.5,0
			c0.2,0,0.4,0.1,0.5,0.2c0.4,0.1,0.6,0.4,0.7,0.6c0.1,0.3,0.2,0.6,0.2,1.1l0,0l0,0c0.1,0,0.2,0,0.3,0c0.1,0,0.1,0,0.2,0
			c0,0,0.1,0,0.1-0.1l0,0v0c0-0.1,0-0.2,0-0.4c0-0.2,0-0.4,0-0.6c0-0.2,0-0.4,0-0.6c0-0.2,0-0.3,0-0.4c0-0.5,0-0.9,0-1.3
			c0-0.4,0-0.6,0.1-0.9l0,0l0,0c-0.1-0.1-0.2-0.1-0.3-0.1c-0.1,0-0.3,0-0.3,0.1l0,0l0,0c0,0.1-0.1,0.2-0.1,0.4
			c0,0.2-0.1,0.3-0.1,0.4l0,0l0,0c-0.1,0.2-0.2,0.3-0.4,0.4c-0.2,0.1-0.4,0.2-0.6,0.3h0h0c-0.1,0-0.3,0.1-0.5,0.1
			c-0.2,0-0.4,0-0.6,0h-0.3v-1.2c0-0.3,0-0.6,0-0.8s0-0.4,0-0.6s0-0.3,0-0.4c0-0.1,0-0.2,0-0.2h0l0,0c0-0.2,0-0.3,0-0.3h0l0,0l0,0h0
			l0,0l0,0l0,0l0,0l0,0l0,0c0,0,0,0,0.1,0h0l0,0c0,0,0.1,0,0.3,0c0.2,0,0.4,0,0.8,0c0.4,0,0.7,0,0.9,0c0.2,0,0.3,0,0.4,0v0l0,0
			c0.4,0,0.7,0.1,0.8,0.3l0,0c0.1,0.1,0.3,0.2,0.4,0.3c0.1,0.1,0.2,0.2,0.3,0.3c0.1,0.1,0.2,0.3,0.4,0.4c0.1,0.2,0.3,0.4,0.4,0.7
			l0,0l0,0c0.1,0,0.1,0,0.2,0c0.1,0,0.1,0,0.2,0c0,0,0.1,0,0.1-0.1l0,0l-0.1-2.3l0,0h0c0-0.1,0-0.2-0.1-0.2c-0.1,0-0.2,0-0.3,0
			c0,0-0.1,0-0.2,0c-0.1,0-0.2,0-0.3,0c-0.1,0-0.2,0-0.3,0c-0.1,0-0.2,0-0.2,0c-0.1,0-0.3,0-0.5,0c-0.2,0-0.5,0-0.9,0s-0.7,0-1.1,0
			c-0.4,0-0.8,0-1.3,0c-0.9,0-1.7,0-2.2,0c-0.5,0-0.9,0-1.1,0h-0.6l0,0c0,0-0.1,0.1-0.1,0.1c0,0.1,0,0.1,0,0.1c0,0.1,0,0.2,0.1,0.3
			l0,0l0,0c0.3,0,0.5,0.1,0.7,0.1c0.2,0,0.4,0.1,0.5,0.2c0.1,0.1,0.2,0.2,0.3,0.3c0.1,0.1,0.1,0.3,0.1,0.6c0,0.2,0,0.4,0,0.6
			s0,0.6,0,0.9c0,0.6,0,1.1,0,1.5c0,0.5,0,0.9,0,1.3c0,0.3,0,0.5,0,0.8c0,0.2,0,0.5,0,0.7c0,0.5-0.1,0.8-0.1,1s-0.1,0.4-0.2,0.5l0,0
			l0,0c0,0.1-0.2,0.1-0.5,0.2c-0.3,0.1-0.6,0.1-1,0.1l0,0l0,0c0,0,0,0.1,0,0.2c0,0.1,0,0.1,0,0.1c0,0.1,0,0.2,0.1,0.2l0,0l0.6,0
			c0.5,0,1,0,1.5,0c0.4,0,0.8,0,1,0c0.2,0,0.4,0,0.7,0c0.3,0,0.5,0,0.7,0c0.2,0,0.7,0,1.5,0s2,0,3.5,0c0.2,0,0.3,0,0.4-0.1
			C610.6,162.1,610.7,162,610.6,161.8L610.6,161.8L610.6,161.8c-0.1,0.1-0.1,0.2-0.1,0.2c-0.1,0-0.2,0-0.4,0c-1.5,0-2.7,0-3.5,0
			c-0.8,0-1.3,0-1.5,0c-0.2,0-0.4,0-0.7,0c-0.3,0-0.6,0-0.7,0c-0.2,0-0.5,0-1,0c-0.4,0-0.9,0-1.4,0l-0.6,0l0,0l0,0
			c0-0.1-0.1-0.1-0.1-0.2c0,0,0-0.1,0-0.1c0,0,0-0.1,0-0.1l0,0l0,0c0.4,0,0.7-0.1,1-0.1c0.3-0.1,0.4-0.1,0.5-0.2l0,0
			c0.1-0.1,0.2-0.3,0.2-0.5c0-0.2,0.1-0.6,0.1-1c0-0.2,0-0.5,0-0.7s0-0.5,0-0.8c0-0.4,0-0.8,0-1.3c0-0.5,0-1,0-1.5
			c0-0.4,0-0.7,0-0.9s0-0.4,0-0.6c0-0.3,0-0.5-0.1-0.7c-0.1-0.2-0.2-0.3-0.3-0.4c-0.1-0.1-0.3-0.1-0.5-0.2c-0.2,0-0.5-0.1-0.7-0.1
			l0,0l0,0c0-0.1-0.1-0.2-0.1-0.2c0,0,0-0.1,0-0.1c0-0.1,0-0.1,0.1-0.1l0,0v0h0.5c0.2,0,0.5,0,1,0c0.5,0,1.2,0,2.2,0
			c0.4,0,0.9,0,1.3,0c0.4,0,0.8,0,1.1,0c0.3,0,0.6,0,0.9,0c0.2,0,0.4,0,0.5,0c0.1,0,0.1,0,0.2,0c0.1,0,0.2,0,0.3,0
			c0.1,0,0.2,0,0.3,0c0.1,0,0.2,0,0.2,0c0.1,0,0.2,0,0.2,0c0,0,0,0,0,0.1v0l0.1,2.3l0,0l0,0c-0.1,0-0.1,0-0.1,0.1c0,0-0.1,0-0.1,0
			c-0.1,0-0.2,0-0.2,0l0,0l0,0c-0.2-0.3-0.3-0.5-0.4-0.7c-0.1-0.2-0.3-0.3-0.4-0.5c-0.1-0.1-0.2-0.2-0.3-0.3
			c-0.1-0.1-0.2-0.2-0.4-0.3l0,0l0,0c-0.2-0.1-0.5-0.2-0.9-0.3h0h0c-0.1,0-0.2,0-0.4,0c-0.2,0-0.5,0-0.9,0c-0.3,0-0.6,0-0.8,0
			c-0.2,0-0.3,0-0.3,0l0,0v0c0,0-0.1,0-0.1,0c0,0-0.1,0-0.1,0.1c0,0,0,0.1,0,0.3v0v0c0,0.1,0,0.1,0,0.2c0,0.1,0,0.2,0,0.4
			c0,0.2,0,0.3,0,0.6c0,0.2,0,0.5,0,0.8v1.3h0.4c0.2,0,0.4,0,0.6,0c0.2,0,0.4-0.1,0.5-0.1l0,0l0,0c0.2-0.1,0.4-0.1,0.6-0.3
			c0.2-0.1,0.3-0.3,0.5-0.4l0,0c0-0.1,0.1-0.2,0.1-0.4c0-0.2,0.1-0.3,0.1-0.4l0,0l0,0c0.1,0,0.2-0.1,0.3-0.1c0.1,0,0.2,0,0.2,0.1
			l0,0l0,0c0,0.2,0,0.5-0.1,0.9c0,0.4,0,0.8,0,1.3c0,0.1,0,0.3,0,0.5s0,0.4,0,0.6c0,0.2,0,0.4,0,0.6s0,0.3,0,0.4h0l0,0
			c-0.1,0-0.1,0-0.1,0.1c0,0-0.1,0-0.1,0c-0.1,0-0.2,0-0.3,0l0,0l0,0c-0.1-0.4-0.1-0.8-0.2-1.1c-0.1-0.3-0.4-0.5-0.7-0.7
			c-0.2-0.1-0.4-0.1-0.6-0.2c-0.2,0-0.4,0-0.5,0c-0.1,0-0.2,0-0.3,0c-0.1,0-0.2,0-0.3,0l0,0v2.6c0,0.6,0,1,0.1,1.2
			c0,0.1,0.1,0.2,0.2,0.3c0.1,0.1,0.2,0.2,0.4,0.2c0.1,0,0.2,0,0.3,0c0.1,0,0.3,0,0.6,0h1.4c0.2,0,0.4,0,0.6,0
			c0.2,0,0.4-0.1,0.5-0.1l0,0l0,0c0.1-0.1,0.2-0.2,0.4-0.3c0.1-0.1,0.3-0.3,0.5-0.5s0.3-0.4,0.5-0.6c0.1-0.2,0.3-0.5,0.3-0.7l0,0
			l0,0c0.1,0,0.1,0,0.2,0c0,0,0.1,0,0.1,0c0.1,0,0.2,0,0.3,0.1l0,0h0L610.6,161.8L610.6,161.8z M598.4,161.7L598.4,161.7
			c0,0,0-0.1,0-0.1l0,0l0,0c-0.1,0-0.3,0-0.6,0c-0.2,0-0.4,0-0.5-0.1c-0.3-0.1-0.5-0.3-0.5-0.6c-0.1-0.3-0.1-0.7-0.1-1.2V155
			c0-0.1,0-0.3,0-0.4c0-0.2,0-0.3,0-0.5c0-0.2,0-0.3,0-0.4c0-0.1,0-0.2,0.1-0.3l0,0c0.1-0.2,0.3-0.3,0.5-0.4c0.3,0,0.6-0.1,0.9-0.1
			l0,0l0,0c0-0.1,0.1-0.2,0.1-0.3c0-0.1,0-0.2-0.1-0.3l0,0h-5.1l0,0c0,0.1,0,0.1-0.1,0.1c0,0,0,0.1,0,0.1c0,0.1,0,0.2,0.1,0.3l0,0
			l0,0c0.5,0,0.9,0.1,1.2,0.2c0.2,0.1,0.4,0.3,0.4,0.6c0,0.3,0,0.6,0,0.8s0,0.5,0,0.7v2.7c0,0.1,0,0.3,0,0.6c0,0.3,0,0.6,0,1
			s0,0.7,0,1c0,0.3,0,0.5-0.1,0.5c-0.1,0.2-0.3,0.4-0.5,0.4c-0.2,0.1-0.6,0.1-1.1,0.2l0,0l0,0c0,0.1-0.1,0.2-0.1,0.3
			c0,0,0,0.1,0,0.1c0,0,0,0.1,0.1,0.1l0,0h5.3l0,0c0.1-0.1,0.1-0.2,0.1-0.3C598.5,161.7,598.5,161.7,598.4,161.7L598.4,161.7
			L598.4,161.7c0,0,0,0.1,0,0.1c0,0.1,0,0.1-0.1,0.2l0,0v0h-5.3v0l0,0c0-0.1,0-0.1,0-0.1c0,0,0-0.1,0-0.1c0-0.1,0-0.2,0.1-0.3l0,0
			l0,0c0.5-0.1,0.8-0.1,1.1-0.2c0.2-0.1,0.4-0.2,0.5-0.5c0-0.1,0.1-0.2,0.1-0.5c0-0.3,0-0.6,0-1s0-0.7,0-1c0-0.3,0-0.5,0-0.6v-2.7
			c0-0.2,0-0.5,0-0.7c0-0.2,0-0.5,0-0.8c0-0.4-0.2-0.6-0.5-0.7c-0.3-0.1-0.7-0.2-1.2-0.2l0,0l0,0c0-0.1-0.1-0.2-0.1-0.3
			c0,0,0-0.1,0-0.1c0,0,0-0.1,0.1-0.1l0,0v0h5v0l0,0c0.1,0.1,0.1,0.2,0.1,0.2c0,0.1,0,0.1-0.1,0.3l0,0l0,0c-0.3,0-0.6,0.1-0.9,0.1
			c-0.3,0-0.5,0.2-0.6,0.4l0,0l0,0c0,0.1-0.1,0.2-0.1,0.3c0,0.1,0,0.3,0,0.5c0,0.2,0,0.3,0,0.5c0,0.2,0,0.3,0,0.4v4.6
			c0,0.4,0,0.8,0.1,1.2c0.1,0.4,0.2,0.6,0.6,0.7c0.1,0,0.2,0.1,0.5,0.1C598.1,161.6,598.2,161.6,598.4,161.7l0-0.1L598.4,161.7
			C598.4,161.6,598.4,161.7,598.4,161.7L598.4,161.7z M587.8,155.3L587.8,155.3c-0.1,0.2-0.2,0.4-0.3,0.6c-0.1,0.2-0.2,0.3-0.4,0.4
			s-0.3,0.2-0.5,0.3l0,0l0,0c-0.2,0-0.4,0.1-0.8,0.1c-0.3,0-0.6,0-1,0c-0.1,0-0.2,0-0.3,0c-0.1,0-0.2,0-0.3,0l0,0h0v-3.6
			c0-0.1,0-0.2,0.1-0.2c0,0,0.3-0.1,0.6-0.1c0.3,0,0.6,0,0.9,0c0.3,0,0.5,0,0.7,0.1c0.2,0.1,0.4,0.1,0.5,0.2
			c0.1,0.1,0.3,0.2,0.4,0.4l0,0c0.1,0.2,0.2,0.3,0.3,0.5c0.1,0.2,0.1,0.4,0.1,0.6C587.8,154.9,587.8,155.1,587.8,155.3L587.8,155.3
			L587.8,155.3c0.1-0.2,0.1-0.4,0.1-0.6c0-0.2,0-0.5-0.1-0.7c-0.1-0.2-0.2-0.4-0.3-0.6l0,0l0,0c-0.1-0.2-0.3-0.3-0.4-0.4
			c-0.2-0.1-0.3-0.2-0.5-0.2c-0.2-0.1-0.4-0.1-0.7-0.1c-0.3,0-0.6,0-0.9,0c-0.3,0-0.5,0-0.6,0.1c-0.1,0.1-0.1,0.2-0.1,0.3v3.6l0,0
			c0.1,0,0.2,0,0.3,0c0.1,0,0.2,0,0.3,0c0.3,0,0.7,0,1,0c0.3,0,0.6,0,0.8-0.1l0,0c0.2-0.1,0.4-0.1,0.6-0.3c0.2-0.1,0.3-0.3,0.4-0.5
			C587.7,155.7,587.8,155.5,587.8,155.3L587.8,155.3z M591.5,161.6L591.5,161.6c0,0-0.1-0.1-0.2-0.1c-0.1,0-0.2,0-0.3,0
			c-0.1,0-0.2,0-0.3-0.1c-0.1,0-0.2,0-0.2,0l0,0h0c-0.1,0-0.1-0.1-0.2-0.1c-0.1-0.1-0.1-0.1-0.1-0.2l0,0l0,0
			c-0.1-0.3-0.2-0.6-0.3-0.9c-0.1-0.3-0.2-0.5-0.3-0.8c-0.1-0.4-0.3-0.7-0.4-0.9c-0.1-0.2-0.3-0.5-0.5-0.6c-0.2-0.2-0.3-0.3-0.6-0.4
			c-0.2-0.1-0.6-0.2-0.9-0.3l0,0h0v-0.1h0l0,0c1-0.1,1.7-0.4,2.2-0.8c0.4-0.4,0.6-1,0.6-1.6c0-0.6-0.2-1.1-0.5-1.5
			c-0.3-0.5-0.8-0.8-1.4-0.9c-0.2-0.1-0.5-0.1-0.9-0.1c-0.3,0-0.7,0-1.1,0c-0.6,0-1.1,0-1.5,0c-0.5,0-0.9,0-1.2,0
			c-0.1,0-0.3,0-0.5,0s-0.5,0-0.7,0c-0.3,0-0.5,0-0.8,0c-0.3,0-0.5,0-0.8,0h0l0,0c0,0.1,0,0.1,0,0.1c0,0,0,0.1,0,0.1
			c0,0.1,0,0.2,0,0.3l0,0l0,0c0.6,0,1,0.1,1.2,0.3c0.2,0.1,0.4,0.4,0.4,0.7c0,0.1,0.1,0.4,0.1,0.8c0,0.4,0,0.8,0,1.4v3.2
			c0,0.1,0,0.2,0,0.3s0,0.3,0,0.4c0,0.1,0,0.3,0,0.4c0,0.1,0,0.2,0,0.2l0,0c0,0.1-0.1,0.3-0.1,0.4c0,0.1-0.1,0.3-0.2,0.3
			c0,0-0.1,0.1-0.2,0.1c-0.1,0-0.2,0.1-0.4,0.1c-0.1,0-0.3,0-0.4,0.1c-0.1,0-0.3,0-0.4,0l0,0l0,0c0,0.1,0,0.1-0.1,0.1
			c0,0,0,0.1,0,0.1c0,0,0,0.1,0,0.1c0,0,0,0.1,0.1,0.2l0,0h0c0.1,0,0.2,0,0.4,0c0.2,0,0.5,0,0.8,0c0.3,0,0.6,0,0.9,0
			c0.3,0,0.6,0,0.8,0c0.5,0,0.9,0,1.2,0c0.3,0,0.7,0,1.1,0h0l0,0c0-0.1,0-0.1,0.1-0.1c0,0,0-0.1,0-0.1c0-0.1,0-0.2-0.1-0.3l0,0l0,0
			c-0.3,0-0.6-0.1-0.8-0.1c-0.2-0.1-0.3-0.2-0.5-0.3h0c-0.2-0.2-0.2-0.5-0.2-1v-2.7h0.3c0.2,0,0.4,0,0.6,0c0.2,0,0.5,0,0.6,0.1
			c0.3,0.1,0.5,0.2,0.7,0.5c0.2,0.2,0.4,0.4,0.5,0.6c0.1,0.2,0.2,0.3,0.3,0.6c0.1,0.2,0.2,0.5,0.3,0.7s0.1,0.5,0.2,0.8
			c0.1,0.3,0.1,0.5,0.1,0.8c0,0.2,0.1,0.3,0.1,0.4c0.1,0.1,0.2,0.2,0.4,0.2l2.9,0l0,0c0-0.1,0-0.2,0-0.3
			C591.6,161.7,591.6,161.6,591.5,161.6L591.5,161.6L591.5,161.6L591.5,161.6L591.5,161.6c0,0.1,0,0.2,0,0.2c0,0.1,0,0.1,0,0.2l0,0
			v0l-2.9,0c-0.2,0-0.3,0-0.3-0.1c-0.1-0.1-0.1-0.2-0.1-0.4c0-0.2-0.1-0.5-0.2-0.8c-0.1-0.3-0.1-0.5-0.2-0.8
			c-0.1-0.3-0.2-0.5-0.3-0.8c-0.1-0.2-0.2-0.4-0.3-0.6c-0.1-0.2-0.3-0.4-0.5-0.6c-0.2-0.2-0.5-0.4-0.7-0.5c-0.2-0.1-0.4-0.1-0.7-0.1
			c-0.2,0-0.5,0-0.6,0h-0.4v2.8c0,0.5,0.1,0.9,0.3,1.1l0,0l0,0c0.1,0.2,0.3,0.3,0.5,0.4c0.2,0.1,0.5,0.1,0.8,0.1l0,0l0,0
			c0.1,0.1,0.1,0.2,0.1,0.3c0,0,0,0.1,0,0.1c0,0-0.1,0.1-0.1,0.1l0,0v0c-0.4,0-0.8,0-1.1,0c-0.3,0-0.7,0-1.2,0c-0.2,0-0.5,0-0.8,0
			c-0.3,0-0.6,0-0.9,0c-0.3,0-0.6,0-0.8,0c-0.2,0-0.4,0-0.4,0v0l0,0c0-0.1,0-0.1,0-0.2c0,0,0-0.1,0-0.1c0,0,0-0.1,0-0.1s0-0.1,0-0.1
			l0,0l0,0c0.1,0,0.2,0,0.4,0c0.1,0,0.3,0,0.4-0.1c0.1,0,0.3-0.1,0.4-0.1s0.2-0.1,0.2-0.1c0.1-0.1,0.2-0.2,0.2-0.4
			c0-0.1,0.1-0.3,0.1-0.4l0,0l0,0c0-0.1,0-0.1,0-0.3c0-0.1,0-0.3,0-0.4s0-0.3,0-0.4c0-0.1,0-0.2,0-0.3v-3.2c0-0.6,0-1.1,0-1.5
			c0-0.4-0.1-0.6-0.1-0.8c-0.1-0.3-0.2-0.6-0.5-0.7c-0.3-0.2-0.7-0.3-1.3-0.3l0,0l0,0c0-0.1,0-0.1,0-0.3c0,0,0,0,0-0.1l0,0l0,0l0,0
			l0,0l0,0l0,0c0,0,0-0.1,0.1-0.1l0,0v0c0.2,0,0.5,0,0.8,0c0.3,0,0.6,0,0.8,0c0.3,0,0.5,0,0.7,0c0.2,0,0.4,0,0.5,0
			c0.4,0,0.8,0,1.2,0c0.5,0,1,0,1.5,0c0.4,0,0.7,0,1.1,0c0.3,0,0.6,0.1,0.8,0.1c0.6,0.2,1.1,0.5,1.4,0.9c0.3,0.4,0.4,0.9,0.4,1.5
			c0,0.6-0.2,1.1-0.6,1.5c-0.4,0.4-1.1,0.7-2.1,0.8l0,0v0.2l0,0c0.4,0.1,0.7,0.2,0.9,0.3c0.2,0.1,0.4,0.3,0.6,0.4
			c0.2,0.2,0.3,0.4,0.5,0.6c0.1,0.2,0.3,0.5,0.4,0.9c0.1,0.3,0.2,0.5,0.3,0.8c0.1,0.3,0.2,0.5,0.3,0.8v0l0,0c0,0.1,0.1,0.1,0.1,0.2
			c0.1,0.1,0.1,0.1,0.2,0.2l0,0l0,0c0,0,0.1,0,0.2,0c0.1,0,0.2,0,0.3,0s0.2,0,0.3,0.1C591.4,161.6,591.5,161.6,591.5,161.6
			L591.5,161.6L591.5,161.6L591.5,161.6z M579.5,151.2L579.5,151.2l-0.1-3.1v0c0-0.1,0-0.2,0-0.2c0,0,0-0.1-0.1-0.1l0,0l0,0
			c-0.1,0-0.2,0-0.4,0c-0.2,0-0.4,0-0.6,0c-0.2,0-0.3,0-0.5,0s-0.4,0-0.6,0c-0.2,0-0.5,0-0.8,0c-0.3,0-0.7,0-1.1,0
			c-1.2,0-2.1,0-2.7,0c-0.6,0-0.9,0-1,0c-0.2,0-0.5,0-0.8,0c-0.3,0-0.7,0-1,0c-0.3,0-0.7,0-1,0c-0.3,0-0.6,0-0.9,0h0l0,0
			c0,0.1,0,0.1-0.1,0.1c0,0,0,0.1,0,0.2c0,0.1,0,0.2,0.1,0.3l0,0l0,0c0.3,0,0.6,0.1,0.9,0.1c0.3,0,0.5,0.1,0.6,0.1l0,0l0,0
			c0.2,0.2,0.3,0.4,0.4,0.5c0.1,0.2,0.2,0.4,0.2,0.6c0,0.1,0,0.4,0.1,0.7c0,0.3,0,0.8,0,1.3v7.7h0l0,0c-0.1,0.5-0.1,1-0.2,1.2
			c-0.1,0.3-0.2,0.5-0.3,0.7l0,0l0,0c-0.2,0-0.5,0.1-0.9,0.1c-0.4,0.1-0.7,0.1-1,0.1l0,0l0,0c-0.1,0.1-0.1,0.2-0.1,0.3
			c0,0.1,0,0.2,0.1,0.3l0,0h0.8c0.6,0,1.1,0,1.6,0c0.5,0,0.9,0,1.3,0c0.2,0,0.4,0,0.7,0c0.3,0,0.5,0,0.8,0c0.3,0,0.5,0,0.8,0
			s0.5,0,0.7,0h0.5l0,0c0-0.1,0-0.1,0.1-0.2c0,0,0-0.1,0-0.1c0-0.1,0-0.2-0.1-0.3l0,0h0c-0.1,0-0.2,0-0.3,0c-0.2,0-0.3,0-0.5-0.1
			c-0.2,0-0.3,0-0.5,0c-0.1,0-0.2,0-0.3,0l0,0l0,0c-0.2-0.1-0.3-0.2-0.5-0.4c-0.2-0.2-0.3-0.5-0.4-0.9l0,0h0c0-0.1,0-0.3,0-0.5
			c0-0.2,0-0.5,0-0.7s0-0.6,0-0.8s0-0.6,0-0.8c0-0.4,0-0.8,0-1s0-0.5,0-0.6c0-0.2,0-0.3,0-0.3c0-0.1,0-0.1,0-0.2l0,0l0,0
			c0.2,0,0.4-0.1,0.6-0.1c0.4,0,0.8,0,1.1,0.1c0.3,0.1,0.5,0.1,0.6,0.2l0,0c0.3,0.2,0.5,0.4,0.6,0.7c0.1,0.2,0.2,0.5,0.3,0.7
			c0,0.2,0.1,0.4,0.1,0.6s0,0.3,0.1,0.4l0,0l0,0c0.1,0,0.1,0,0.1,0c0,0,0.1,0,0.1,0c0.2,0,0.3,0,0.3-0.1l0,0v-0.7c0-0.1,0-0.3,0-0.5
			c0-0.2,0-0.4,0-0.6c0-0.2,0-0.4,0-0.6c0-0.2,0-0.3,0-0.5c0-0.1,0-0.3,0-0.5c0-0.2,0-0.5,0-0.7c0-0.3,0-0.5,0-0.8
			c0-0.3,0-0.5,0-0.8v0l0,0c0,0-0.1-0.1-0.1-0.1c-0.1,0-0.1,0-0.2,0c-0.1,0-0.1,0-0.2,0c0,0-0.1,0-0.1,0l0,0l0,0c0,0.1,0,0.2,0,0.4
			c0,0.2,0,0.3-0.1,0.5c0,0.2-0.1,0.3-0.1,0.5c-0.1,0.2-0.1,0.3-0.2,0.4c-0.1,0.1-0.2,0.3-0.4,0.3c-0.2,0.1-0.3,0.2-0.5,0.2
			c-0.2,0.1-0.4,0.1-0.6,0.1c-0.2,0-0.4,0-0.5,0c-0.2,0-0.4,0-0.5,0c-0.1,0-0.2,0-0.4,0l0,0h0v-5.7c0-0.1,0-0.2,0-0.2
			c0,0,0.1,0,0.3,0l3.4,0c0.3,0,0.5,0.1,0.7,0.2c0.1,0.1,0.3,0.2,0.5,0.4c0.2,0.1,0.3,0.3,0.5,0.5c0.2,0.2,0.4,0.5,0.6,0.8
			c0.2,0.3,0.4,0.7,0.6,1.1l0,0l0,0c0,0,0.1,0,0.1,0c0,0,0.1,0,0.1,0c0.1,0,0.1,0,0.2,0C579.5,151.3,579.5,151.2,579.5,151.2
			L579.5,151.2L579.5,151.2L579.5,151.2L579.5,151.2c-0.1,0-0.1,0-0.1,0c0,0,0,0,0,0c0,0,0,0-0.1,0c0,0-0.1,0-0.1,0c0,0-0.1,0-0.1,0
			l0,0l0,0c-0.2-0.4-0.4-0.8-0.6-1.1c-0.2-0.3-0.4-0.6-0.6-0.8c-0.2-0.2-0.4-0.4-0.5-0.5c-0.2-0.1-0.3-0.3-0.5-0.4
			c-0.2-0.1-0.4-0.2-0.7-0.2l-3.4,0c-0.2,0-0.3,0-0.4,0.1c0,0.1-0.1,0.2-0.1,0.3v5.8l0,0c0.2,0,0.3,0,0.4,0c0.1,0,0.3,0,0.5,0
			c0.2,0,0.3,0,0.5,0c0.2,0,0.4-0.1,0.6-0.1c0.2-0.1,0.4-0.1,0.5-0.2c0.2-0.1,0.3-0.2,0.4-0.4c0.1-0.1,0.2-0.3,0.2-0.4
			c0.1-0.2,0.1-0.3,0.1-0.5c0-0.2,0-0.3,0.1-0.5c0-0.2,0-0.3,0-0.4l0,0l0,0c0,0,0.1,0,0.1,0c0,0,0.1,0,0.1,0c0.1,0,0.1,0,0.2,0
			c0,0,0.1,0,0.1,0.1l0,0h0c0,0.2,0,0.5,0,0.8c0,0.3,0,0.6,0,0.8c0,0.3,0,0.5,0,0.7c0,0.2,0,0.4,0,0.5s0,0.3,0,0.5
			c0,0.2,0,0.4,0,0.6c0,0.2,0,0.4,0,0.6c0,0.2,0,0.4,0,0.5v0.7h0l0,0c0,0-0.1,0.1-0.3,0.1c-0.1,0-0.1,0-0.1,0v0l0,0h0v0l0,0
			c0,0,0,0-0.1,0l0,0l0,0c0-0.1,0-0.2-0.1-0.4c0-0.2-0.1-0.4-0.1-0.6c0-0.2-0.1-0.5-0.3-0.8c-0.2-0.3-0.4-0.5-0.6-0.7l0,0l0,0
			c-0.1-0.1-0.3-0.2-0.6-0.3c-0.3-0.1-0.7-0.1-1.1-0.1c-0.2,0-0.4,0-0.6,0.1l0,0l0,0c0,0.1,0,0.1,0,0.2c0,0.1,0,0.2,0,0.3
			c0,0.2,0,0.4,0,0.6s0,0.6,0,1.1c0,0.3,0,0.5,0,0.8s0,0.6,0,0.9s0,0.5,0,0.7c0,0.2,0,0.4,0,0.5v0l0,0c0.1,0.4,0.2,0.7,0.4,0.9
			c0.2,0.2,0.3,0.4,0.5,0.4l0,0l0,0c0.1,0,0.2,0,0.3,0c0.1,0,0.3,0,0.5,0.1c0.2,0,0.3,0,0.5,0.1c0.2,0,0.3,0,0.4,0v0l0,0
			c0,0.1,0.1,0.2,0.1,0.3c0,0,0,0.1,0,0.1c0,0,0,0.1,0,0.1l0,0v0h-0.5c-0.2,0-0.4,0-0.7,0c-0.3,0-0.5,0-0.8,0c-0.3,0-0.5,0-0.8,0
			s-0.5,0-0.7,0c-0.4,0-0.9,0-1.4,0c-0.5,0-1,0-1.6,0h-0.8v0l0,0c-0.1-0.1-0.1-0.2-0.1-0.2c0-0.1,0-0.2,0.1-0.2l0,0l0,0
			c0.3,0,0.7-0.1,1-0.1c0.4-0.1,0.7-0.1,0.9-0.1l0,0l0,0c0.2-0.2,0.3-0.5,0.4-0.7c0.1-0.3,0.2-0.7,0.2-1.3v0v-7.7c0-0.5,0-1,0-1.3
			c0-0.3,0-0.6-0.1-0.7c0-0.2-0.1-0.5-0.2-0.6c-0.1-0.2-0.3-0.4-0.5-0.6l0,0l0,0c-0.1-0.1-0.3-0.1-0.7-0.2c-0.3,0-0.6-0.1-0.9-0.1
			l0,0l0,0c0-0.1-0.1-0.1-0.1-0.3c0-0.1,0-0.1,0-0.1c0,0,0-0.1,0.1-0.1l0,0v0c0.3,0,0.6,0,0.9,0c0.3,0,0.7,0,1,0c0.3,0,0.7,0,1,0
			c0.3,0,0.6,0,0.8,0c0.1,0,0.4,0,1,0s1.5,0,2.7,0c0.5,0,0.8,0,1.1,0c0.3,0,0.6,0,0.8,0c0.2,0,0.4,0,0.6,0s0.3,0,0.5,0
			c0.2,0,0.4,0,0.6,0c0.2,0,0.3,0,0.4,0l0,0l0,0c0,0.1,0,0.1,0.1,0.1c0,0,0,0.1,0,0.2l0,0l0,0L579.5,151.2L579.5,151.2L579.5,151.2
			L579.5,151.2z"/>
		<path d="M647.2,157.8L647.2,157.8c-0.2-0.5-0.7-0.8-1.2-1.1c-0.3-0.1-0.8-0.3-1.6-0.6c-0.3-0.1-0.6-0.2-0.8-0.3
			c-0.2-0.1-0.5-0.2-0.7-0.3l0,0l0,0c-0.3-0.1-0.5-0.3-0.8-0.5c-0.3-0.2-0.4-0.5-0.4-0.9c0-0.4,0.2-0.8,0.5-1s0.8-0.4,1.2-0.4
			c0.4,0,0.8,0.1,1.1,0.2c0.3,0.1,0.6,0.3,0.8,0.6c0.2,0.2,0.3,0.5,0.4,0.8c0.1,0.3,0.3,0.6,0.4,0.9l0,0l0,0c0.1,0,0.1,0,0.2,0
			c0.1,0,0.2,0,0.2-0.1c0.1,0,0.1-0.1,0.2-0.1l0,0v0c0,0,0-0.1,0-0.3c0-0.1,0-0.3,0-0.4c0-0.2,0-0.3-0.1-0.5c0-0.1,0-0.3,0-0.3
			c0-0.3,0-0.5,0.1-0.8c0-0.3,0.1-0.5,0.1-0.6l0,0l0,0c0-0.1-0.1-0.1-0.2-0.2c-0.1-0.1-0.2-0.1-0.4-0.1h0l0,0
			c-0.1,0.1-0.2,0.2-0.3,0.3c-0.1,0.1-0.2,0.2-0.3,0.3l0,0l0,0c-0.4-0.3-0.8-0.5-1.2-0.6c-0.4-0.1-0.8-0.1-1.2-0.1
			c-0.4,0-0.9,0.1-1.2,0.2s-0.7,0.3-1,0.6s-0.5,0.6-0.6,0.9c-0.1,0.3-0.2,0.7-0.2,1.1c0,0.3,0,0.6,0.1,0.9c0.1,0.3,0.2,0.6,0.5,0.9
			l0,0h0c0.2,0.2,0.4,0.4,0.6,0.5c0.2,0.2,0.5,0.3,0.8,0.5l0,0l0,0c0.2,0.1,0.3,0.2,0.6,0.2c0.2,0.1,0.5,0.2,0.7,0.2
			c0.3,0.1,0.5,0.2,0.7,0.2c0.2,0.1,0.4,0.1,0.5,0.2c0.3,0.1,0.5,0.3,0.6,0.4c0.1,0.1,0.3,0.2,0.4,0.4l0,0c0.2,0.2,0.3,0.5,0.3,0.9
			c0,0.2,0,0.4-0.1,0.6c-0.1,0.2-0.2,0.4-0.4,0.6c-0.3,0.3-0.8,0.5-1.6,0.5c-0.3,0-0.7-0.1-1.1-0.2c-0.4-0.2-0.8-0.4-1.1-0.8l0,0
			l0,0c-0.1-0.1-0.2-0.2-0.2-0.4c-0.1-0.2-0.2-0.4-0.2-0.5c-0.1-0.2-0.2-0.4-0.2-0.5c-0.1-0.2-0.1-0.3-0.2-0.4l0,0l0,0
			c0,0-0.1,0-0.2,0c-0.2,0-0.4,0.1-0.5,0.2l0,0v0c0,0.1,0,0.2,0,0.3c0,0.2,0,0.3,0,0.5c0,0.2,0,0.3,0,0.5c0,0.2,0,0.3,0,0.3
			c0,0.2,0,0.4-0.1,0.7c-0.1,0.3-0.1,0.4-0.1,0.6v0l0,0c0,0.1,0.1,0.2,0.3,0.2c0.1,0.1,0.2,0.1,0.4,0.1h0l0,0
			c0.2-0.1,0.3-0.2,0.4-0.3c0.1-0.1,0.2-0.1,0.3-0.1c0,0,0.1,0,0.2,0c0.1,0,0.1,0,0.2,0.1l0,0l0,0c0.3,0.1,0.6,0.3,1.1,0.4
			c0.4,0.1,0.8,0.2,1.3,0.2c0.5,0,0.9-0.1,1.3-0.2c0.4-0.1,0.8-0.3,1.1-0.6c0.3-0.3,0.6-0.6,0.8-1c0.2-0.4,0.3-0.8,0.3-1.3
			C647.6,158.7,647.5,158.2,647.2,157.8L647.2,157.8L647.2,157.8c0.2,0.4,0.3,0.9,0.3,1.5c0,0.4-0.1,0.9-0.3,1.2
			c-0.2,0.4-0.4,0.7-0.8,0.9c-0.3,0.3-0.7,0.5-1.1,0.6c-0.4,0.1-0.9,0.2-1.3,0.2c-0.4,0-0.8-0.1-1.2-0.2c-0.4-0.1-0.8-0.3-1-0.4l0,0
			l0,0c0,0-0.1-0.1-0.2-0.1c-0.1,0-0.1,0-0.2,0c-0.1,0-0.2,0-0.3,0.1c-0.1,0.1-0.3,0.2-0.4,0.3l0,0v0c-0.1,0-0.2,0-0.3-0.1
			s-0.2-0.1-0.2-0.2l0,0h0c0-0.1,0-0.3,0.1-0.5c0.1-0.3,0.1-0.5,0.1-0.7c0-0.1,0-0.2,0-0.3c0-0.2,0-0.3,0-0.5c0-0.2,0-0.3,0-0.5
			c0-0.2,0-0.3,0-0.3h0l0,0c0.1-0.1,0.2-0.2,0.4-0.2c0.1,0,0.1,0,0.1,0l0,0l0,0c0.1,0.1,0.1,0.2,0.2,0.4c0.1,0.2,0.2,0.4,0.2,0.5
			c0.1,0.2,0.2,0.4,0.3,0.6c0.1,0.2,0.2,0.3,0.3,0.4l0,0c0.3,0.4,0.7,0.6,1.1,0.8c0.4,0.2,0.8,0.3,1.1,0.3c0.8,0,1.3-0.2,1.6-0.5
			c0.2-0.2,0.4-0.4,0.5-0.6c0.1-0.2,0.1-0.4,0.1-0.6c0-0.4-0.1-0.7-0.3-0.9l0,0l0,0c-0.1-0.2-0.3-0.3-0.4-0.4
			c-0.1-0.1-0.4-0.2-0.7-0.4c-0.1-0.1-0.3-0.1-0.5-0.2c-0.2-0.1-0.5-0.1-0.7-0.2c-0.3-0.1-0.5-0.2-0.7-0.2c-0.2-0.1-0.4-0.2-0.6-0.2
			h0l0,0c-0.3-0.2-0.6-0.3-0.8-0.5c-0.2-0.2-0.4-0.3-0.6-0.5l0,0l0,0c-0.2-0.3-0.4-0.6-0.4-0.9c-0.1-0.3-0.1-0.6-0.1-0.9
			c0-0.4,0.1-0.8,0.2-1.1c0.1-0.3,0.3-0.6,0.6-0.9c0.3-0.2,0.6-0.4,1-0.6c0.4-0.1,0.8-0.2,1.2-0.2c0.3,0,0.7,0,1.1,0.1
			c0.4,0.1,0.8,0.3,1.2,0.6l0,0l0,0c0.1-0.1,0.2-0.2,0.3-0.3c0.1-0.1,0.2-0.2,0.3-0.3l0,0v0c0.1,0,0.2,0,0.3,0.1
			c0.1,0.1,0.1,0.1,0.1,0.1l0,0l0,0c0,0.1,0,0.3-0.1,0.6c0,0.3-0.1,0.5-0.1,0.8c0,0.1,0,0.2,0,0.3c0,0.1,0,0.3,0.1,0.5
			c0,0.2,0,0.3,0,0.4c0,0.1,0,0.2,0,0.3h0l0,0c-0.1,0-0.1,0.1-0.2,0.1c-0.1,0-0.1,0-0.2,0c0,0-0.1,0-0.2,0l0,0l0,0
			c-0.1-0.2-0.3-0.5-0.4-0.9c-0.1-0.3-0.3-0.6-0.4-0.9c-0.2-0.3-0.5-0.5-0.9-0.7c-0.3-0.1-0.7-0.2-1.1-0.2c-0.5,0-0.9,0.1-1.3,0.4
			c-0.4,0.3-0.6,0.7-0.5,1.1c0,0.4,0.1,0.8,0.4,1c0.3,0.2,0.5,0.4,0.8,0.5l0,0c0.2,0.1,0.4,0.2,0.7,0.3s0.5,0.2,0.8,0.3
			c0.8,0.3,1.3,0.5,1.6,0.6C646.5,157.1,646.9,157.4,647.2,157.8L647.2,157.8z M635.1,158.9L635.1,158.9c-0.2,0.5-0.5,0.9-0.9,1.3
			l0,0c-0.3,0.4-0.7,0.7-1.2,0.9c-0.5,0.2-1,0.3-1.6,0.3c-0.2,0-0.4,0-0.5-0.1c-0.1-0.1-0.3-0.2-0.4-0.3c-0.2-0.2-0.3-0.6-0.3-1.1
			V153l0-0.1l0,0l0,0c0.1,0,0.2,0,0.3-0.1c0.1,0,0.2,0,0.4,0c0.6,0,1.2,0.1,1.6,0.2c0.5,0.2,0.9,0.4,1.3,0.7c0.6,0.4,1,0.9,1.2,1.5
			c0.2,0.6,0.4,1.3,0.4,2.1C635.3,157.9,635.3,158.4,635.1,158.9L635.1,158.9L635.1,158.9c0.2-0.5,0.3-1.1,0.3-1.7
			c0-0.8-0.1-1.5-0.4-2.1c-0.2-0.6-0.7-1.1-1.2-1.5c-0.4-0.3-0.8-0.5-1.3-0.7c-0.5-0.2-1-0.2-1.7-0.2c-0.2,0-0.3,0-0.4,0
			c-0.1,0-0.2,0-0.3,0.1l0,0l0,0.2v6.9c0,0.6,0.1,1,0.3,1.2c0.1,0.2,0.3,0.3,0.5,0.4c0.2,0.1,0.4,0.1,0.6,0.1c0.6,0,1.2-0.1,1.7-0.3
			c0.5-0.2,0.9-0.5,1.2-0.9l0,0l0,0C634.7,159.9,635,159.5,635.1,158.9L635.1,158.9z M637.4,156L637.4,156c-0.1-0.5-0.2-0.9-0.4-1.3
			c-0.2-0.4-0.5-0.8-0.8-1.1c-0.3-0.3-0.7-0.6-1.1-0.8l0,0l0,0c-0.4-0.2-0.9-0.4-1.4-0.5c-0.5-0.1-1.2-0.2-1.8-0.2c-0.3,0-0.6,0-1,0
			c-0.4,0-0.7,0-1,0c-0.3,0-0.6,0-0.9,0c-0.3,0-0.5,0-0.6,0c-0.2,0-0.4,0-0.6,0c-0.2,0-0.4,0-0.6,0h-0.7l0,0
			c-0.1,0.1-0.1,0.2-0.1,0.3c0,0,0,0.1,0,0.1c0,0,0,0.1,0,0.1l0,0h0c0.4,0,0.7,0,0.9,0.1c0.2,0.1,0.4,0.2,0.5,0.3
			c0.1,0.1,0.2,0.2,0.2,0.4c0,0.2,0,0.3,0.1,0.4s0,0.5,0.1,1c0,0.5,0,1.3,0,2.3v2.3c0,0.5,0,0.8-0.1,1c-0.1,0.2-0.1,0.4-0.1,0.4l0,0
			c-0.1,0.2-0.3,0.3-0.5,0.4c-0.2,0.1-0.6,0.1-1.1,0.2l0,0l0,0c0,0.1,0,0.1-0.1,0.2c0,0,0,0.1,0,0.1c0,0.1,0,0.2,0.1,0.3l0,0h0.3
			c0.1,0,0.2,0,0.4,0c0.1,0,0.3,0,0.5,0c0.2,0,0.5,0,0.8,0c0.3,0,0.8,0,1.3,0c0.5,0,0.9,0,1.3,0c0.4,0,0.7,0,1,0
			c0.6,0,1.1,0,1.6-0.1c0.5-0.1,0.9-0.2,1.3-0.3c0.4-0.1,0.7-0.4,1-0.6c0.3-0.3,0.6-0.6,0.9-1l0,0c0.3-0.4,0.5-0.9,0.6-1.4
			c0.1-0.5,0.2-1,0.2-1.5C637.6,156.9,637.6,156.5,637.4,156L637.4,156L637.4,156c0.1,0.4,0.1,0.9,0.1,1.3c0,0.5-0.1,0.9-0.2,1.4
			c-0.1,0.5-0.3,0.9-0.6,1.3l0,0l0,0c-0.3,0.4-0.6,0.7-0.9,0.9c-0.3,0.3-0.6,0.5-1,0.6c-0.4,0.1-0.8,0.2-1.3,0.3
			c-0.5,0.1-1,0.1-1.6,0.1c-0.2,0-0.6,0-1,0s-0.8,0-1.3,0c-0.5,0-1,0-1.3,0c-0.3,0-0.6,0-0.8,0c-0.2,0-0.4,0-0.5,0
			c-0.1,0-0.3,0-0.4,0h-0.2v0l0,0c0-0.1-0.1-0.1-0.1-0.2c0,0,0-0.1,0-0.1c0,0,0-0.1,0-0.2l0,0l0,0c0.5,0,0.9-0.1,1.1-0.2
			c0.2-0.1,0.4-0.2,0.5-0.4l0,0l0,0c0-0.1,0.1-0.2,0.1-0.4c0.1-0.2,0.1-0.6,0.1-1v-2.3c0-1.1,0-1.8,0-2.3c0-0.5,0-0.8-0.1-1
			c0-0.1,0-0.3-0.1-0.5c0-0.2-0.1-0.3-0.2-0.4c-0.1-0.1-0.3-0.2-0.5-0.3c-0.2-0.1-0.5-0.1-0.9-0.1v0l0,0c0-0.1,0-0.1,0-0.2
			c0,0,0-0.1,0-0.1c0-0.1,0-0.1,0.1-0.2l0,0v0h0.7c0.2,0,0.4,0,0.6,0c0.2,0,0.4,0,0.6,0c0.1,0,0.3,0,0.6,0c0.3,0,0.6,0,0.9,0
			c0.3,0,0.7,0,1,0c0.4,0,0.7,0,0.9,0c0.7,0,1.3,0.1,1.8,0.2c0.5,0.1,1,0.3,1.4,0.5l0,0c0.4,0.2,0.8,0.5,1.1,0.8
			c0.3,0.3,0.6,0.7,0.8,1.1S637.3,155.6,637.4,156L637.4,156z M624.6,152.2L624.6,152.2l-0.4,0c-0.1,0-0.3,0-0.4,0
			c-0.1,0-0.3,0-0.4,0c-0.2,0-0.3,0-0.6,0c-0.2,0-0.5,0-0.7,0c-0.2,0-0.5,0-0.9,0c-0.3,0-0.6,0-0.9,0H620l0,0c0,0.1,0,0.2,0,0.2
			c0,0.1,0,0.2,0.1,0.3l0,0l0,0c0.1,0,0.3,0.1,0.4,0.1c0.2,0,0.3,0.1,0.5,0.1c0.2,0,0.3,0.1,0.4,0.1c0.1,0.1,0.2,0.1,0.2,0.2
			c0.2,0.3,0.3,0.6,0.3,1c0,0.1,0,0.3,0,0.4c0,0.2,0,0.4,0,0.7v4.1h0l0,0c-0.1-0.2-0.3-0.4-0.6-0.7c-0.2-0.3-0.4-0.5-0.6-0.7
			l-5.2-5.7l0,0c-0.1-0.1-0.2-0.2-0.3-0.2l0,0h-0.5c-0.2,0-0.4,0-0.6,0c-0.2,0-0.4,0-0.6,0c-0.2,0-0.4,0-0.5,0c-0.1,0-0.2,0-0.3,0
			h-0.3l0,0c0,0.1-0.1,0.2-0.1,0.3c0,0,0,0,0,0.1c0,0.1,0,0.1,0.1,0.2l0,0l0,0c0.2,0.1,0.4,0.1,0.6,0.2c0.2,0.1,0.4,0.2,0.5,0.3l0,0
			c0.1,0.1,0.2,0.2,0.3,0.3c0.1,0.1,0.2,0.2,0.2,0.2l0,0l0,0c0.2,0.3,0.3,0.6,0.3,1.1c0,0.3,0,0.5,0,0.7c0,0.2,0,0.4,0,0.7v3.6
			c0,0.2,0,0.5,0,0.7c0,0.2-0.1,0.4-0.1,0.5l0,0l0,0c-0.1,0.1-0.2,0.2-0.3,0.3s-0.3,0.1-0.4,0.2c-0.1,0.1-0.3,0.1-0.4,0.1
			c-0.2,0-0.3,0.1-0.4,0.1l0,0l0,0c0,0.1,0,0.1-0.1,0.2c0,0,0,0.1,0,0.1c0,0.1,0,0.2,0,0.2l0,0h0.4c0.2,0,0.5,0,0.7,0
			c0.3,0,0.5,0,0.7,0c0.3,0,0.7,0,0.9,0c0.3,0,0.6,0,0.9,0h0.8l0,0c0-0.1,0-0.1,0.1-0.2c0,0,0-0.1,0-0.1c0-0.1,0-0.2-0.1-0.2l0,0
			l0,0c-0.2,0-0.4-0.1-0.7-0.1c-0.2-0.1-0.5-0.2-0.6-0.3c-0.1-0.1-0.2-0.2-0.3-0.4c-0.1-0.1-0.1-0.4-0.2-0.7v0c0-0.2,0-0.4-0.1-0.6
			c0-0.2,0-0.4,0-0.5l0-2.8l0,0l-0.1-1.4l6.9,7.5l0,0c0.1,0.1,0.2,0.2,0.3,0.2c0.1,0,0.1,0,0.2,0c0.1,0,0.2-0.1,0.2-0.1l0,0v0
			c0-0.1,0-0.3,0-0.6c0-0.2,0-0.5,0-0.7c0-0.2,0-0.4,0-0.6s0-0.3,0-0.3l0-5.1c0-0.4,0-0.7,0.1-1c0.1-0.3,0.2-0.5,0.4-0.7
			c0.2-0.2,0.4-0.3,0.6-0.4c0.2-0.1,0.5-0.1,0.7-0.1l0,0l0,0c0,0,0-0.1,0.1-0.2c0,0,0-0.1,0-0.1
			C624.7,152.4,624.7,152.3,624.6,152.2L624.6,152.2L624.6,152.2L624.6,152.2L624.6,152.2c0,0.1,0,0.2,0,0.2c0,0,0,0.1,0,0.1
			c0,0,0,0.1,0,0.1l0,0l0,0c-0.3,0-0.5,0.1-0.7,0.1c-0.2,0.1-0.4,0.2-0.6,0.4c-0.2,0.2-0.3,0.4-0.4,0.7c-0.1,0.3-0.2,0.6-0.2,1
			l0,5.1c0,0.1,0,0.2,0,0.4c0,0.2,0,0.4,0,0.6s0,0.5,0,0.7s0,0.4,0,0.6h0l0,0c-0.1,0-0.1,0.1-0.2,0.1c-0.1,0-0.1,0-0.2,0
			c0,0-0.1,0-0.2-0.1l0,0l0,0l-7.1-7.6l0.1,1.7l0,0h0l0,2.8c0,0.1,0,0.3,0,0.5c0,0.2,0,0.4,0.1,0.6l0,0l0,0c0,0.3,0.1,0.5,0.2,0.7
			c0.1,0.2,0.2,0.3,0.3,0.4c0.2,0.2,0.4,0.3,0.7,0.3c0.3,0.1,0.5,0.1,0.7,0.1l0,0l0,0c0,0.1,0.1,0.1,0.1,0.2c0,0,0,0.1,0,0.1
			c0,0,0,0.1-0.1,0.1l0,0v0h-0.8c-0.3,0-0.6,0-0.9,0c-0.3,0-0.6,0-0.9,0c-0.2,0-0.5,0-0.7,0c-0.3,0-0.5,0-0.7,0h-0.3v0l0,0
			c0-0.1,0-0.1,0-0.2c0,0,0-0.1,0-0.1c0,0,0-0.1,0-0.2l0,0l0,0c0.1,0,0.3,0,0.4-0.1c0.2,0,0.3-0.1,0.5-0.1c0.2-0.1,0.3-0.1,0.4-0.2
			s0.2-0.2,0.3-0.3l0,0l0,0c0.1-0.1,0.1-0.3,0.1-0.5c0-0.2,0-0.4,0-0.7v-3.6c0-0.3,0-0.5,0-0.7c0-0.2,0-0.4,0-0.7
			c0-0.5-0.1-0.8-0.4-1.1l0,0l0,0c0,0-0.1-0.1-0.2-0.2c-0.1-0.1-0.2-0.2-0.3-0.3l0,0l0,0c-0.1-0.1-0.3-0.2-0.5-0.3
			c-0.2-0.1-0.4-0.2-0.6-0.2l0,0l0,0c0,0,0-0.1,0-0.1c0,0,0-0.1,0-0.1c0-0.1,0-0.2,0.1-0.2l0,0v0h0.3c0.1,0,0.2,0,0.3,0
			c0.1,0,0.3,0,0.5,0s0.4,0,0.6,0c0.2,0,0.4,0,0.6,0h0.5v0l0,0c0.1,0.1,0.2,0.1,0.3,0.2l0,0l0,0l5.2,5.7c0.2,0.2,0.4,0.5,0.6,0.7
			c0.2,0.3,0.4,0.5,0.5,0.7l0.1,0.1v-4.2c0-0.3,0-0.5,0-0.7c0-0.2,0-0.3,0-0.4c0-0.4-0.1-0.8-0.3-1.1c-0.1-0.1-0.1-0.1-0.3-0.2
			c-0.1-0.1-0.3-0.1-0.4-0.1c-0.2,0-0.3-0.1-0.5-0.1c-0.2,0-0.3-0.1-0.4-0.1l0,0l0,0c0-0.1-0.1-0.2-0.1-0.3c0-0.1,0-0.1,0-0.2l0,0v0
			h0.3c0.2,0,0.5,0,0.9,0c0.3,0,0.6,0,0.9,0c0.3,0,0.5,0,0.8,0s0.4,0,0.5,0s0.3,0,0.4,0c0.1,0,0.3,0,0.4,0L624.6,152.2L624.6,152.2
			L624.6,152.2L624.6,152.2z M610.6,161.8L610.6,161.8l0-2.7l0,0c-0.1-0.1-0.2-0.1-0.3-0.1c-0.1,0-0.1,0-0.1,0c0,0-0.1,0-0.2,0.1
			l0,0l0,0c-0.1,0.2-0.2,0.4-0.3,0.7c-0.1,0.2-0.3,0.4-0.4,0.6c-0.2,0.2-0.3,0.4-0.5,0.5c-0.1,0.1-0.3,0.2-0.3,0.3h0l0,0
			c-0.1,0.1-0.2,0.1-0.4,0.1c-0.2,0-0.4,0-0.6,0h-1.4c-0.3,0-0.5,0-0.6,0c-0.1,0-0.2,0-0.3,0c-0.1,0-0.3-0.1-0.4-0.2
			c-0.1-0.1-0.2-0.2-0.2-0.3c-0.1-0.2-0.1-0.6-0.1-1.1v-2.6h0l0,0c0.1,0,0.2,0,0.3,0c0.1,0,0.2,0,0.3,0c0.2,0,0.4,0,0.5,0
			c0.2,0,0.4,0.1,0.5,0.2c0.4,0.1,0.6,0.4,0.7,0.6c0.1,0.3,0.2,0.6,0.2,1.1l0,0l0,0c0.1,0,0.2,0,0.3,0c0.1,0,0.1,0,0.2,0
			c0,0,0.1,0,0.1-0.1l0,0v0c0-0.1,0-0.2,0-0.4c0-0.2,0-0.4,0-0.6c0-0.2,0-0.4,0-0.6c0-0.2,0-0.3,0-0.4c0-0.5,0-0.9,0-1.3
			c0-0.4,0-0.6,0.1-0.9l0,0l0,0c-0.1-0.1-0.2-0.1-0.3-0.1c-0.1,0-0.3,0-0.3,0.1l0,0l0,0c0,0.1-0.1,0.2-0.1,0.4
			c0,0.2-0.1,0.3-0.1,0.4l0,0l0,0c-0.1,0.2-0.2,0.3-0.4,0.4c-0.2,0.1-0.4,0.2-0.6,0.3h0h0c-0.1,0-0.3,0.1-0.5,0.1
			c-0.2,0-0.4,0-0.6,0h-0.3v-1.2c0-0.3,0-0.6,0-0.8s0-0.4,0-0.6s0-0.3,0-0.4c0-0.1,0-0.2,0-0.2h0l0,0c0-0.2,0-0.3,0-0.3h0l0,0l0,0h0
			l0,0l0,0l0,0l0,0l0,0l0,0c0,0,0,0,0.1,0h0l0,0c0,0,0.1,0,0.3,0c0.2,0,0.4,0,0.8,0c0.4,0,0.7,0,0.9,0c0.2,0,0.3,0,0.4,0v0l0,0
			c0.4,0,0.7,0.1,0.8,0.3l0,0c0.1,0.1,0.3,0.2,0.4,0.3c0.1,0.1,0.2,0.2,0.3,0.3c0.1,0.1,0.2,0.3,0.4,0.4c0.1,0.2,0.3,0.4,0.4,0.7
			l0,0l0,0c0.1,0,0.1,0,0.2,0c0.1,0,0.1,0,0.2,0c0,0,0.1,0,0.1-0.1l0,0l-0.1-2.3l0,0h0c0-0.1,0-0.2-0.1-0.2c-0.1,0-0.2,0-0.3,0
			c0,0-0.1,0-0.2,0c-0.1,0-0.2,0-0.3,0c-0.1,0-0.2,0-0.3,0c-0.1,0-0.2,0-0.2,0c-0.1,0-0.3,0-0.5,0c-0.2,0-0.5,0-0.9,0s-0.7,0-1.1,0
			c-0.4,0-0.8,0-1.3,0c-0.9,0-1.7,0-2.2,0c-0.5,0-0.9,0-1.1,0h-0.6l0,0c0,0-0.1,0.1-0.1,0.1c0,0.1,0,0.1,0,0.1c0,0.1,0,0.2,0.1,0.3
			l0,0l0,0c0.3,0,0.5,0.1,0.7,0.1c0.2,0,0.4,0.1,0.5,0.2c0.1,0.1,0.2,0.2,0.3,0.3c0.1,0.1,0.1,0.3,0.1,0.6c0,0.2,0,0.4,0,0.6
			s0,0.6,0,0.9c0,0.6,0,1.1,0,1.5c0,0.5,0,0.9,0,1.3c0,0.3,0,0.5,0,0.8c0,0.2,0,0.5,0,0.7c0,0.5-0.1,0.8-0.1,1s-0.1,0.4-0.2,0.5l0,0
			l0,0c0,0.1-0.2,0.1-0.5,0.2c-0.3,0.1-0.6,0.1-1,0.1l0,0l0,0c0,0,0,0.1,0,0.2c0,0.1,0,0.1,0,0.1c0,0.1,0,0.2,0.1,0.2l0,0l0.6,0
			c0.5,0,1,0,1.5,0c0.4,0,0.8,0,1,0c0.2,0,0.4,0,0.7,0c0.3,0,0.5,0,0.7,0c0.2,0,0.7,0,1.5,0s2,0,3.5,0c0.2,0,0.3,0,0.4-0.1
			C610.6,162.1,610.7,162,610.6,161.8L610.6,161.8L610.6,161.8c-0.1,0.1-0.1,0.2-0.1,0.2c-0.1,0-0.2,0-0.4,0c-1.5,0-2.7,0-3.5,0
			c-0.8,0-1.3,0-1.5,0c-0.2,0-0.4,0-0.7,0c-0.3,0-0.6,0-0.7,0c-0.2,0-0.5,0-1,0c-0.4,0-0.9,0-1.4,0l-0.6,0l0,0l0,0
			c0-0.1-0.1-0.1-0.1-0.2c0,0,0-0.1,0-0.1c0,0,0-0.1,0-0.1l0,0l0,0c0.4,0,0.7-0.1,1-0.1c0.3-0.1,0.4-0.1,0.5-0.2l0,0
			c0.1-0.1,0.2-0.3,0.2-0.5c0-0.2,0.1-0.6,0.1-1c0-0.2,0-0.5,0-0.7s0-0.5,0-0.8c0-0.4,0-0.8,0-1.3c0-0.5,0-1,0-1.5
			c0-0.4,0-0.7,0-0.9s0-0.4,0-0.6c0-0.3,0-0.5-0.1-0.7c-0.1-0.2-0.2-0.3-0.3-0.4c-0.1-0.1-0.3-0.1-0.5-0.2c-0.2,0-0.5-0.1-0.7-0.1
			l0,0l0,0c0-0.1-0.1-0.2-0.1-0.2c0,0,0-0.1,0-0.1c0-0.1,0-0.1,0.1-0.1l0,0v0h0.5c0.2,0,0.5,0,1,0c0.5,0,1.2,0,2.2,0
			c0.4,0,0.9,0,1.3,0c0.4,0,0.8,0,1.1,0c0.3,0,0.6,0,0.9,0c0.2,0,0.4,0,0.5,0c0.1,0,0.1,0,0.2,0c0.1,0,0.2,0,0.3,0
			c0.1,0,0.2,0,0.3,0c0.1,0,0.2,0,0.2,0c0.1,0,0.2,0,0.2,0c0,0,0,0,0,0.1v0l0.1,2.3l0,0l0,0c-0.1,0-0.1,0-0.1,0.1c0,0-0.1,0-0.1,0
			c-0.1,0-0.2,0-0.2,0l0,0l0,0c-0.2-0.3-0.3-0.5-0.4-0.7c-0.1-0.2-0.3-0.3-0.4-0.5c-0.1-0.1-0.2-0.2-0.3-0.3
			c-0.1-0.1-0.2-0.2-0.4-0.3l0,0l0,0c-0.2-0.1-0.5-0.2-0.9-0.3h0h0c-0.1,0-0.2,0-0.4,0c-0.2,0-0.5,0-0.9,0c-0.3,0-0.6,0-0.8,0
			c-0.2,0-0.3,0-0.3,0l0,0v0c0,0-0.1,0-0.1,0c0,0-0.1,0-0.1,0.1c0,0,0,0.1,0,0.3v0v0c0,0.1,0,0.1,0,0.2c0,0.1,0,0.2,0,0.4
			c0,0.2,0,0.3,0,0.6c0,0.2,0,0.5,0,0.8v1.3h0.4c0.2,0,0.4,0,0.6,0c0.2,0,0.4-0.1,0.5-0.1l0,0l0,0c0.2-0.1,0.4-0.1,0.6-0.3
			c0.2-0.1,0.3-0.3,0.5-0.4l0,0c0-0.1,0.1-0.2,0.1-0.4c0-0.2,0.1-0.3,0.1-0.4l0,0l0,0c0.1,0,0.2-0.1,0.3-0.1c0.1,0,0.2,0,0.2,0.1
			l0,0l0,0c0,0.2,0,0.5-0.1,0.9c0,0.4,0,0.8,0,1.3c0,0.1,0,0.3,0,0.5s0,0.4,0,0.6c0,0.2,0,0.4,0,0.6s0,0.3,0,0.4h0l0,0
			c-0.1,0-0.1,0-0.1,0.1c0,0-0.1,0-0.1,0c-0.1,0-0.2,0-0.3,0l0,0l0,0c-0.1-0.4-0.1-0.8-0.2-1.1c-0.1-0.3-0.4-0.5-0.7-0.7
			c-0.2-0.1-0.4-0.1-0.6-0.2c-0.2,0-0.4,0-0.5,0c-0.1,0-0.2,0-0.3,0c-0.1,0-0.2,0-0.3,0l0,0v2.6c0,0.6,0,1,0.1,1.2
			c0,0.1,0.1,0.2,0.2,0.3c0.1,0.1,0.2,0.2,0.4,0.2c0.1,0,0.2,0,0.3,0c0.1,0,0.3,0,0.6,0h1.4c0.2,0,0.4,0,0.6,0
			c0.2,0,0.4-0.1,0.5-0.1l0,0l0,0c0.1-0.1,0.2-0.2,0.4-0.3c0.1-0.1,0.3-0.3,0.5-0.5s0.3-0.4,0.5-0.6c0.1-0.2,0.3-0.5,0.3-0.7l0,0
			l0,0c0.1,0,0.1,0,0.2,0c0,0,0.1,0,0.1,0c0.1,0,0.2,0,0.3,0.1l0,0h0L610.6,161.8L610.6,161.8z M598.4,161.7L598.4,161.7
			c0,0,0-0.1,0-0.1l0,0l0,0c-0.1,0-0.3,0-0.6,0c-0.2,0-0.4,0-0.5-0.1c-0.3-0.1-0.5-0.3-0.5-0.6c-0.1-0.3-0.1-0.7-0.1-1.2V155
			c0-0.1,0-0.3,0-0.4c0-0.2,0-0.3,0-0.5c0-0.2,0-0.3,0-0.4c0-0.1,0-0.2,0.1-0.3l0,0c0.1-0.2,0.3-0.3,0.5-0.4c0.3,0,0.6-0.1,0.9-0.1
			l0,0l0,0c0-0.1,0.1-0.2,0.1-0.3c0-0.1,0-0.2-0.1-0.3l0,0h-5.1l0,0c0,0.1,0,0.1-0.1,0.1c0,0,0,0.1,0,0.1c0,0.1,0,0.2,0.1,0.3l0,0
			l0,0c0.5,0,0.9,0.1,1.2,0.2c0.2,0.1,0.4,0.3,0.4,0.6c0,0.3,0,0.6,0,0.8s0,0.5,0,0.7v2.7c0,0.1,0,0.3,0,0.6c0,0.3,0,0.6,0,1
			s0,0.7,0,1c0,0.3,0,0.5-0.1,0.5c-0.1,0.2-0.3,0.4-0.5,0.4c-0.2,0.1-0.6,0.1-1.1,0.2l0,0l0,0c0,0.1-0.1,0.2-0.1,0.3
			c0,0,0,0.1,0,0.1c0,0,0,0.1,0.1,0.1l0,0h5.3l0,0c0.1-0.1,0.1-0.2,0.1-0.3C598.5,161.7,598.5,161.7,598.4,161.7L598.4,161.7
			L598.4,161.7c0,0,0,0.1,0,0.1c0,0.1,0,0.1-0.1,0.2l0,0v0h-5.3v0l0,0c0-0.1,0-0.1,0-0.1c0,0,0-0.1,0-0.1c0-0.1,0-0.2,0.1-0.3l0,0
			l0,0c0.5-0.1,0.8-0.1,1.1-0.2c0.2-0.1,0.4-0.2,0.5-0.5c0-0.1,0.1-0.2,0.1-0.5c0-0.3,0-0.6,0-1s0-0.7,0-1c0-0.3,0-0.5,0-0.6v-2.7
			c0-0.2,0-0.5,0-0.7c0-0.2,0-0.5,0-0.8c0-0.4-0.2-0.6-0.5-0.7c-0.3-0.1-0.7-0.2-1.2-0.2l0,0l0,0c0-0.1-0.1-0.2-0.1-0.3
			c0,0,0-0.1,0-0.1c0,0,0-0.1,0.1-0.1l0,0v0h5v0l0,0c0.1,0.1,0.1,0.2,0.1,0.2c0,0.1,0,0.1-0.1,0.3l0,0l0,0c-0.3,0-0.6,0.1-0.9,0.1
			c-0.3,0-0.5,0.2-0.6,0.4l0,0l0,0c0,0.1-0.1,0.2-0.1,0.3c0,0.1,0,0.3,0,0.5c0,0.2,0,0.3,0,0.5c0,0.2,0,0.3,0,0.4v4.6
			c0,0.4,0,0.8,0.1,1.2c0.1,0.4,0.2,0.6,0.6,0.7c0.1,0,0.2,0.1,0.5,0.1C598.1,161.6,598.2,161.6,598.4,161.7l0-0.1L598.4,161.7
			C598.4,161.6,598.4,161.7,598.4,161.7L598.4,161.7z M587.8,155.3L587.8,155.3c-0.1,0.2-0.2,0.4-0.3,0.6c-0.1,0.2-0.2,0.3-0.4,0.4
			s-0.3,0.2-0.5,0.3l0,0l0,0c-0.2,0-0.4,0.1-0.8,0.1c-0.3,0-0.6,0-1,0c-0.1,0-0.2,0-0.3,0c-0.1,0-0.2,0-0.3,0l0,0h0v-3.6
			c0-0.1,0-0.2,0.1-0.2c0,0,0.3-0.1,0.6-0.1c0.3,0,0.6,0,0.9,0c0.3,0,0.5,0,0.7,0.1c0.2,0.1,0.4,0.1,0.5,0.2
			c0.1,0.1,0.3,0.2,0.4,0.4l0,0c0.1,0.2,0.2,0.3,0.3,0.5c0.1,0.2,0.1,0.4,0.1,0.6C587.8,154.9,587.8,155.1,587.8,155.3L587.8,155.3
			L587.8,155.3c0.1-0.2,0.1-0.4,0.1-0.6c0-0.2,0-0.5-0.1-0.7c-0.1-0.2-0.2-0.4-0.3-0.6l0,0l0,0c-0.1-0.2-0.3-0.3-0.4-0.4
			c-0.2-0.1-0.3-0.2-0.5-0.2c-0.2-0.1-0.4-0.1-0.7-0.1c-0.3,0-0.6,0-0.9,0c-0.3,0-0.5,0-0.6,0.1c-0.1,0.1-0.1,0.2-0.1,0.3v3.6l0,0
			c0.1,0,0.2,0,0.3,0c0.1,0,0.2,0,0.3,0c0.3,0,0.7,0,1,0c0.3,0,0.6,0,0.8-0.1l0,0c0.2-0.1,0.4-0.1,0.6-0.3c0.2-0.1,0.3-0.3,0.4-0.5
			C587.7,155.7,587.8,155.5,587.8,155.3L587.8,155.3z M591.5,161.6L591.5,161.6c0,0-0.1-0.1-0.2-0.1c-0.1,0-0.2,0-0.3,0
			c-0.1,0-0.2,0-0.3-0.1c-0.1,0-0.2,0-0.2,0l0,0h0c-0.1,0-0.1-0.1-0.2-0.1c-0.1-0.1-0.1-0.1-0.1-0.2l0,0l0,0
			c-0.1-0.3-0.2-0.6-0.3-0.9c-0.1-0.3-0.2-0.5-0.3-0.8c-0.1-0.4-0.3-0.7-0.4-0.9c-0.1-0.2-0.3-0.5-0.5-0.6c-0.2-0.2-0.3-0.3-0.6-0.4
			c-0.2-0.1-0.6-0.2-0.9-0.3l0,0h0v-0.1h0l0,0c1-0.1,1.7-0.4,2.2-0.8c0.4-0.4,0.6-1,0.6-1.6c0-0.6-0.2-1.1-0.5-1.5
			c-0.3-0.5-0.8-0.8-1.4-0.9c-0.2-0.1-0.5-0.1-0.9-0.1c-0.3,0-0.7,0-1.1,0c-0.6,0-1.1,0-1.5,0c-0.5,0-0.9,0-1.2,0
			c-0.1,0-0.3,0-0.5,0s-0.5,0-0.7,0c-0.3,0-0.5,0-0.8,0c-0.3,0-0.5,0-0.8,0h0l0,0c0,0.1,0,0.1,0,0.1c0,0,0,0.1,0,0.1
			c0,0.1,0,0.2,0,0.3l0,0l0,0c0.6,0,1,0.1,1.2,0.3c0.2,0.1,0.4,0.4,0.4,0.7c0,0.1,0.1,0.4,0.1,0.8c0,0.4,0,0.8,0,1.4v3.2
			c0,0.1,0,0.2,0,0.3s0,0.3,0,0.4c0,0.1,0,0.3,0,0.4c0,0.1,0,0.2,0,0.2l0,0c0,0.1-0.1,0.3-0.1,0.4c0,0.1-0.1,0.3-0.2,0.3
			c0,0-0.1,0.1-0.2,0.1c-0.1,0-0.2,0.1-0.4,0.1c-0.1,0-0.3,0-0.4,0.1c-0.1,0-0.3,0-0.4,0l0,0l0,0c0,0.1,0,0.1-0.1,0.1
			c0,0,0,0.1,0,0.1c0,0,0,0.1,0,0.1c0,0,0,0.1,0.1,0.2l0,0h0c0.1,0,0.2,0,0.4,0c0.2,0,0.5,0,0.8,0c0.3,0,0.6,0,0.9,0
			c0.3,0,0.6,0,0.8,0c0.5,0,0.9,0,1.2,0c0.3,0,0.7,0,1.1,0h0l0,0c0-0.1,0-0.1,0.1-0.1c0,0,0-0.1,0-0.1c0-0.1,0-0.2-0.1-0.3l0,0l0,0
			c-0.3,0-0.6-0.1-0.8-0.1c-0.2-0.1-0.3-0.2-0.5-0.3h0c-0.2-0.2-0.2-0.5-0.2-1v-2.7h0.3c0.2,0,0.4,0,0.6,0c0.2,0,0.5,0,0.6,0.1
			c0.3,0.1,0.5,0.2,0.7,0.5c0.2,0.2,0.4,0.4,0.5,0.6c0.1,0.2,0.2,0.3,0.3,0.6c0.1,0.2,0.2,0.5,0.3,0.7s0.1,0.5,0.2,0.8
			c0.1,0.3,0.1,0.5,0.1,0.8c0,0.2,0.1,0.3,0.1,0.4c0.1,0.1,0.2,0.2,0.4,0.2l2.9,0l0,0c0-0.1,0-0.2,0-0.3
			C591.6,161.7,591.6,161.6,591.5,161.6L591.5,161.6L591.5,161.6L591.5,161.6L591.5,161.6c0,0.1,0,0.2,0,0.2c0,0.1,0,0.1,0,0.2l0,0
			v0l-2.9,0c-0.2,0-0.3,0-0.3-0.1c-0.1-0.1-0.1-0.2-0.1-0.4c0-0.2-0.1-0.5-0.2-0.8c-0.1-0.3-0.1-0.5-0.2-0.8
			c-0.1-0.3-0.2-0.5-0.3-0.8c-0.1-0.2-0.2-0.4-0.3-0.6c-0.1-0.2-0.3-0.4-0.5-0.6c-0.2-0.2-0.5-0.4-0.7-0.5c-0.2-0.1-0.4-0.1-0.7-0.1
			c-0.2,0-0.5,0-0.6,0h-0.4v2.8c0,0.5,0.1,0.9,0.3,1.1l0,0l0,0c0.1,0.2,0.3,0.3,0.5,0.4c0.2,0.1,0.5,0.1,0.8,0.1l0,0l0,0
			c0.1,0.1,0.1,0.2,0.1,0.3c0,0,0,0.1,0,0.1c0,0-0.1,0.1-0.1,0.1l0,0v0c-0.4,0-0.8,0-1.1,0c-0.3,0-0.7,0-1.2,0c-0.2,0-0.5,0-0.8,0
			c-0.3,0-0.6,0-0.9,0c-0.3,0-0.6,0-0.8,0c-0.2,0-0.4,0-0.4,0v0l0,0c0-0.1,0-0.1,0-0.2c0,0,0-0.1,0-0.1c0,0,0-0.1,0-0.1s0-0.1,0-0.1
			l0,0l0,0c0.1,0,0.2,0,0.4,0c0.1,0,0.3,0,0.4-0.1c0.1,0,0.3-0.1,0.4-0.1s0.2-0.1,0.2-0.1c0.1-0.1,0.2-0.2,0.2-0.4
			c0-0.1,0.1-0.3,0.1-0.4l0,0l0,0c0-0.1,0-0.1,0-0.3c0-0.1,0-0.3,0-0.4s0-0.3,0-0.4c0-0.1,0-0.2,0-0.3v-3.2c0-0.6,0-1.1,0-1.5
			c0-0.4-0.1-0.6-0.1-0.8c-0.1-0.3-0.2-0.6-0.5-0.7c-0.3-0.2-0.7-0.3-1.3-0.3l0,0l0,0c0-0.1,0-0.1,0-0.3c0,0,0,0,0-0.1l0,0l0,0l0,0
			l0,0l0,0l0,0c0,0,0-0.1,0.1-0.1l0,0v0c0.2,0,0.5,0,0.8,0c0.3,0,0.6,0,0.8,0c0.3,0,0.5,0,0.7,0c0.2,0,0.4,0,0.5,0
			c0.4,0,0.8,0,1.2,0c0.5,0,1,0,1.5,0c0.4,0,0.7,0,1.1,0c0.3,0,0.6,0.1,0.8,0.1c0.6,0.2,1.1,0.5,1.4,0.9c0.3,0.4,0.4,0.9,0.4,1.5
			c0,0.6-0.2,1.1-0.6,1.5c-0.4,0.4-1.1,0.7-2.1,0.8l0,0v0.2l0,0c0.4,0.1,0.7,0.2,0.9,0.3c0.2,0.1,0.4,0.3,0.6,0.4
			c0.2,0.2,0.3,0.4,0.5,0.6c0.1,0.2,0.3,0.5,0.4,0.9c0.1,0.3,0.2,0.5,0.3,0.8c0.1,0.3,0.2,0.5,0.3,0.8v0l0,0c0,0.1,0.1,0.1,0.1,0.2
			c0.1,0.1,0.1,0.1,0.2,0.2l0,0l0,0c0,0,0.1,0,0.2,0c0.1,0,0.2,0,0.3,0s0.2,0,0.3,0.1C591.4,161.6,591.5,161.6,591.5,161.6
			L591.5,161.6L591.5,161.6L591.5,161.6z M579.5,151.2L579.5,151.2l-0.1-3.1v0c0-0.1,0-0.2,0-0.2c0,0,0-0.1-0.1-0.1l0,0l0,0
			c-0.1,0-0.2,0-0.4,0c-0.2,0-0.4,0-0.6,0c-0.2,0-0.3,0-0.5,0s-0.4,0-0.6,0c-0.2,0-0.5,0-0.8,0c-0.3,0-0.7,0-1.1,0
			c-1.2,0-2.1,0-2.7,0c-0.6,0-0.9,0-1,0c-0.2,0-0.5,0-0.8,0c-0.3,0-0.7,0-1,0c-0.3,0-0.7,0-1,0c-0.3,0-0.6,0-0.9,0h0l0,0
			c0,0.1,0,0.1-0.1,0.1c0,0,0,0.1,0,0.2c0,0.1,0,0.2,0.1,0.3l0,0l0,0c0.3,0,0.6,0.1,0.9,0.1c0.3,0,0.5,0.1,0.6,0.1l0,0l0,0
			c0.2,0.2,0.3,0.4,0.4,0.5c0.1,0.2,0.2,0.4,0.2,0.6c0,0.1,0,0.4,0.1,0.7c0,0.3,0,0.8,0,1.3v7.7h0l0,0c-0.1,0.5-0.1,1-0.2,1.2
			c-0.1,0.3-0.2,0.5-0.3,0.7l0,0l0,0c-0.2,0-0.5,0.1-0.9,0.1c-0.4,0.1-0.7,0.1-1,0.1l0,0l0,0c-0.1,0.1-0.1,0.2-0.1,0.3
			c0,0.1,0,0.2,0.1,0.3l0,0h0.8c0.6,0,1.1,0,1.6,0c0.5,0,0.9,0,1.3,0c0.2,0,0.4,0,0.7,0c0.3,0,0.5,0,0.8,0c0.3,0,0.5,0,0.8,0
			s0.5,0,0.7,0h0.5l0,0c0-0.1,0-0.1,0.1-0.2c0,0,0-0.1,0-0.1c0-0.1,0-0.2-0.1-0.3l0,0h0c-0.1,0-0.2,0-0.3,0c-0.2,0-0.3,0-0.5-0.1
			c-0.2,0-0.3,0-0.5,0c-0.1,0-0.2,0-0.3,0l0,0l0,0c-0.2-0.1-0.3-0.2-0.5-0.4c-0.2-0.2-0.3-0.5-0.4-0.9l0,0h0c0-0.1,0-0.3,0-0.5
			c0-0.2,0-0.5,0-0.7s0-0.6,0-0.8s0-0.6,0-0.8c0-0.4,0-0.8,0-1s0-0.5,0-0.6c0-0.2,0-0.3,0-0.3c0-0.1,0-0.1,0-0.2l0,0l0,0
			c0.2,0,0.4-0.1,0.6-0.1c0.4,0,0.8,0,1.1,0.1c0.3,0.1,0.5,0.1,0.6,0.2l0,0c0.3,0.2,0.5,0.4,0.6,0.7c0.1,0.2,0.2,0.5,0.3,0.7
			c0,0.2,0.1,0.4,0.1,0.6s0,0.3,0.1,0.4l0,0l0,0c0.1,0,0.1,0,0.1,0c0,0,0.1,0,0.1,0c0.2,0,0.3,0,0.3-0.1l0,0v-0.7c0-0.1,0-0.3,0-0.5
			c0-0.2,0-0.4,0-0.6c0-0.2,0-0.4,0-0.6c0-0.2,0-0.3,0-0.5c0-0.1,0-0.3,0-0.5c0-0.2,0-0.5,0-0.7c0-0.3,0-0.5,0-0.8
			c0-0.3,0-0.5,0-0.8v0l0,0c0,0-0.1-0.1-0.1-0.1c-0.1,0-0.1,0-0.2,0c-0.1,0-0.1,0-0.2,0c0,0-0.1,0-0.1,0l0,0l0,0c0,0.1,0,0.2,0,0.4
			c0,0.2,0,0.3-0.1,0.5c0,0.2-0.1,0.3-0.1,0.5c-0.1,0.2-0.1,0.3-0.2,0.4c-0.1,0.1-0.2,0.3-0.4,0.3c-0.2,0.1-0.3,0.2-0.5,0.2
			c-0.2,0.1-0.4,0.1-0.6,0.1c-0.2,0-0.4,0-0.5,0c-0.2,0-0.4,0-0.5,0c-0.1,0-0.2,0-0.4,0l0,0h0v-5.7c0-0.1,0-0.2,0-0.2
			c0,0,0.1,0,0.3,0l3.4,0c0.3,0,0.5,0.1,0.7,0.2c0.1,0.1,0.3,0.2,0.5,0.4c0.2,0.1,0.3,0.3,0.5,0.5c0.2,0.2,0.4,0.5,0.6,0.8
			c0.2,0.3,0.4,0.7,0.6,1.1l0,0l0,0c0,0,0.1,0,0.1,0c0,0,0.1,0,0.1,0c0.1,0,0.1,0,0.2,0C579.5,151.3,579.5,151.2,579.5,151.2
			L579.5,151.2L579.5,151.2L579.5,151.2L579.5,151.2c-0.1,0-0.1,0-0.1,0c0,0,0,0,0,0c0,0,0,0-0.1,0c0,0-0.1,0-0.1,0c0,0-0.1,0-0.1,0
			l0,0l0,0c-0.2-0.4-0.4-0.8-0.6-1.1c-0.2-0.3-0.4-0.6-0.6-0.8c-0.2-0.2-0.4-0.4-0.5-0.5c-0.2-0.1-0.3-0.3-0.5-0.4
			c-0.2-0.1-0.4-0.2-0.7-0.2l-3.4,0c-0.2,0-0.3,0-0.4,0.1c0,0.1-0.1,0.2-0.1,0.3v5.8l0,0c0.2,0,0.3,0,0.4,0c0.1,0,0.3,0,0.5,0
			c0.2,0,0.3,0,0.5,0c0.2,0,0.4-0.1,0.6-0.1c0.2-0.1,0.4-0.1,0.5-0.2c0.2-0.1,0.3-0.2,0.4-0.4c0.1-0.1,0.2-0.3,0.2-0.4
			c0.1-0.2,0.1-0.3,0.1-0.5c0-0.2,0-0.3,0.1-0.5c0-0.2,0-0.3,0-0.4l0,0l0,0c0,0,0.1,0,0.1,0c0,0,0.1,0,0.1,0c0.1,0,0.1,0,0.2,0
			c0,0,0.1,0,0.1,0.1l0,0h0c0,0.2,0,0.5,0,0.8c0,0.3,0,0.6,0,0.8c0,0.3,0,0.5,0,0.7c0,0.2,0,0.4,0,0.5s0,0.3,0,0.5
			c0,0.2,0,0.4,0,0.6c0,0.2,0,0.4,0,0.6c0,0.2,0,0.4,0,0.5v0.7h0l0,0c0,0-0.1,0.1-0.3,0.1c-0.1,0-0.1,0-0.1,0v0l0,0h0v0l0,0
			c0,0,0,0-0.1,0l0,0l0,0c0-0.1,0-0.2-0.1-0.4c0-0.2-0.1-0.4-0.1-0.6c0-0.2-0.1-0.5-0.3-0.8c-0.2-0.3-0.4-0.5-0.6-0.7l0,0l0,0
			c-0.1-0.1-0.3-0.2-0.6-0.3c-0.3-0.1-0.7-0.1-1.1-0.1c-0.2,0-0.4,0-0.6,0.1l0,0l0,0c0,0.1,0,0.1,0,0.2c0,0.1,0,0.2,0,0.3
			c0,0.2,0,0.4,0,0.6s0,0.6,0,1.1c0,0.3,0,0.5,0,0.8s0,0.6,0,0.9s0,0.5,0,0.7c0,0.2,0,0.4,0,0.5v0l0,0c0.1,0.4,0.2,0.7,0.4,0.9
			c0.2,0.2,0.3,0.4,0.5,0.4l0,0l0,0c0.1,0,0.2,0,0.3,0c0.1,0,0.3,0,0.5,0.1c0.2,0,0.3,0,0.5,0.1c0.2,0,0.3,0,0.4,0v0l0,0
			c0,0.1,0.1,0.2,0.1,0.3c0,0,0,0.1,0,0.1c0,0,0,0.1,0,0.1l0,0v0h-0.5c-0.2,0-0.4,0-0.7,0c-0.3,0-0.5,0-0.8,0c-0.3,0-0.5,0-0.8,0
			s-0.5,0-0.7,0c-0.4,0-0.9,0-1.4,0c-0.5,0-1,0-1.6,0h-0.8v0l0,0c-0.1-0.1-0.1-0.2-0.1-0.2c0-0.1,0-0.2,0.1-0.2l0,0l0,0
			c0.3,0,0.7-0.1,1-0.1c0.4-0.1,0.7-0.1,0.9-0.1l0,0l0,0c0.2-0.2,0.3-0.5,0.4-0.7c0.1-0.3,0.2-0.7,0.2-1.3v0v-7.7c0-0.5,0-1,0-1.3
			c0-0.3,0-0.6-0.1-0.7c0-0.2-0.1-0.5-0.2-0.6c-0.1-0.2-0.3-0.4-0.5-0.6l0,0l0,0c-0.1-0.1-0.3-0.1-0.7-0.2c-0.3,0-0.6-0.1-0.9-0.1
			l0,0l0,0c0-0.1-0.1-0.1-0.1-0.3c0-0.1,0-0.1,0-0.1c0,0,0-0.1,0.1-0.1l0,0v0c0.3,0,0.6,0,0.9,0c0.3,0,0.7,0,1,0c0.3,0,0.7,0,1,0
			c0.3,0,0.6,0,0.8,0c0.1,0,0.4,0,1,0s1.5,0,2.7,0c0.5,0,0.8,0,1.1,0c0.3,0,0.6,0,0.8,0c0.2,0,0.4,0,0.6,0s0.3,0,0.5,0
			c0.2,0,0.4,0,0.6,0c0.2,0,0.3,0,0.4,0l0,0l0,0c0,0.1,0,0.1,0.1,0.1c0,0,0,0.1,0,0.2l0,0l0,0L579.5,151.2L579.5,151.2L579.5,151.2
			L579.5,151.2z"/>
		<path fill="#FFFFFF" d="M647.2,157.8c-0.3-0.4-0.7-0.8-1.3-1.1c-0.3-0.1-0.8-0.3-1.6-0.6c-0.3-0.1-0.6-0.2-0.8-0.3
			c-0.2-0.1-0.5-0.2-0.7-0.3c-0.3-0.1-0.6-0.3-0.8-0.5c-0.3-0.2-0.4-0.5-0.4-1c0-0.4,0.2-0.8,0.5-1.1c0.4-0.3,0.8-0.4,1.3-0.4
			c0.4,0,0.8,0.1,1.1,0.2c0.3,0.1,0.6,0.4,0.8,0.7c0.2,0.2,0.3,0.5,0.4,0.9s0.3,0.6,0.4,0.9c0.1,0,0.1,0,0.2,0c0.1,0,0.1,0,0.2,0
			c0.1,0,0.1-0.1,0.2-0.1c0,0,0-0.1,0-0.3c0-0.1,0-0.3-0.1-0.4c0-0.2,0-0.3-0.1-0.5c0-0.1,0-0.3,0-0.3c0-0.3,0-0.5,0.1-0.8
			c0-0.3,0.1-0.5,0.1-0.6c0-0.1-0.1-0.1-0.2-0.2s-0.2-0.1-0.4-0.1c-0.1,0.1-0.2,0.2-0.3,0.3c-0.1,0.1-0.2,0.2-0.3,0.3
			c-0.4-0.3-0.8-0.5-1.2-0.6s-0.8-0.1-1.2-0.1c-0.4,0-0.8,0.1-1.2,0.2c-0.4,0.1-0.7,0.3-1,0.6s-0.5,0.5-0.6,0.9
			c-0.1,0.3-0.2,0.7-0.2,1.1c0,0.3,0,0.6,0.1,0.9c0.1,0.3,0.2,0.6,0.4,0.9c0.2,0.2,0.4,0.4,0.6,0.5c0.2,0.2,0.5,0.3,0.8,0.5
			c0.1,0.1,0.3,0.2,0.6,0.2s0.5,0.2,0.7,0.2c0.3,0.1,0.5,0.2,0.7,0.2c0.2,0.1,0.4,0.1,0.5,0.2c0.3,0.1,0.5,0.3,0.7,0.4
			c0.1,0.1,0.3,0.2,0.4,0.4c0.2,0.2,0.3,0.5,0.3,0.9c0,0.2,0,0.4-0.1,0.6c-0.1,0.2-0.2,0.4-0.5,0.6c-0.3,0.3-0.8,0.5-1.6,0.5
			c-0.3,0-0.7-0.1-1.1-0.2c-0.4-0.2-0.8-0.4-1.1-0.8c-0.1-0.1-0.2-0.2-0.2-0.4c-0.1-0.2-0.2-0.4-0.2-0.5c-0.1-0.2-0.2-0.4-0.2-0.5
			c-0.1-0.2-0.1-0.3-0.2-0.4c0,0-0.1,0-0.2,0c-0.2,0-0.3,0.1-0.4,0.2c0,0.1,0,0.2,0,0.3c0,0.2,0,0.3,0,0.5c0,0.2,0,0.3,0,0.5
			c0,0.2,0,0.3,0,0.3c0,0.2,0,0.4-0.1,0.7c-0.1,0.3-0.1,0.4-0.1,0.5c0,0.1,0.1,0.2,0.2,0.2c0.1,0.1,0.2,0.1,0.4,0.1
			c0.2-0.1,0.3-0.2,0.4-0.3s0.2-0.1,0.3-0.1c0,0,0.1,0,0.2,0s0.1,0,0.2,0.1c0.3,0.1,0.6,0.3,1.1,0.4c0.4,0.1,0.8,0.2,1.3,0.2
			c0.5,0,0.9-0.1,1.3-0.2c0.4-0.1,0.8-0.3,1.1-0.6s0.6-0.6,0.8-1c0.2-0.4,0.3-0.8,0.3-1.2C647.6,158.7,647.5,158.2,647.2,157.8z
			 M635.1,158.9c-0.2,0.5-0.5,1-0.8,1.4c-0.3,0.4-0.8,0.7-1.2,0.9c-0.5,0.2-1,0.3-1.7,0.3c-0.2,0-0.4,0-0.6-0.1s-0.3-0.2-0.5-0.4
			c-0.2-0.2-0.3-0.6-0.3-1.2V153l0-0.1c0.1,0,0.2,0,0.3-0.1c0.1,0,0.2,0,0.4,0c0.6,0,1.2,0.1,1.7,0.2c0.5,0.2,0.9,0.4,1.3,0.7
			c0.6,0.4,1,0.9,1.2,1.5c0.2,0.6,0.4,1.3,0.4,2.1C635.4,157.9,635.3,158.4,635.1,158.9z M637.4,156c-0.1-0.4-0.3-0.9-0.5-1.3
			s-0.5-0.8-0.8-1.1c-0.3-0.3-0.7-0.6-1.1-0.8c-0.4-0.2-0.9-0.4-1.4-0.5c-0.5-0.1-1.2-0.2-1.8-0.2c-0.3,0-0.6,0-1,0
			c-0.4,0-0.7,0-1,0c-0.3,0-0.6,0-0.9,0s-0.5,0-0.6,0c-0.2,0-0.4,0-0.6,0c-0.2,0-0.4,0-0.6,0h-0.7c-0.1,0.1-0.1,0.2-0.1,0.2
			c0,0,0,0.1,0,0.1c0,0,0,0.1,0,0.2c0.4,0,0.7,0,0.9,0.1c0.2,0.1,0.4,0.2,0.5,0.3s0.2,0.3,0.2,0.4c0,0.2,0,0.3,0.1,0.5
			c0,0.1,0,0.5,0.1,1c0,0.5,0,1.3,0,2.3v2.3c0,0.5,0,0.8-0.1,1S628,161,628,161c-0.1,0.2-0.3,0.3-0.5,0.4c-0.2,0.1-0.6,0.1-1.1,0.2
			c0,0.1,0,0.1,0,0.2c0,0,0,0.1,0,0.1c0,0.1,0,0.2,0.1,0.2h0.2c0.1,0,0.2,0,0.4,0c0.1,0,0.3,0,0.5,0s0.5,0,0.8,0c0.3,0,0.8,0,1.3,0
			c0.5,0,0.9,0,1.3,0s0.7,0,1,0c0.6,0,1.1,0,1.6-0.1c0.5-0.1,0.9-0.2,1.3-0.3s0.7-0.3,1-0.6c0.3-0.3,0.6-0.6,0.9-1
			c0.3-0.4,0.5-0.9,0.6-1.4c0.1-0.5,0.2-1,0.2-1.4C637.6,156.9,637.5,156.5,637.4,156z M624.6,152.2h-0.4c-0.1,0-0.3,0-0.4,0
			c-0.1,0-0.3,0-0.4,0s-0.3,0-0.6,0s-0.5,0-0.8,0c-0.2,0-0.5,0-0.9,0c-0.3,0-0.6,0-0.9,0H620c0,0.1,0,0.1,0,0.2c0,0.1,0,0.2,0.1,0.3
			c0.1,0,0.3,0.1,0.4,0.1c0.2,0,0.3,0.1,0.5,0.1c0.2,0,0.3,0.1,0.4,0.1c0.1,0.1,0.2,0.1,0.2,0.2c0.2,0.3,0.3,0.6,0.3,1.1
			c0,0.1,0,0.3,0,0.4c0,0.2,0,0.4,0,0.7v4.1c-0.1-0.2-0.3-0.4-0.6-0.7c-0.2-0.3-0.4-0.5-0.6-0.7l-5.2-5.7c-0.1-0.1-0.2-0.1-0.3-0.2
			h-0.5c-0.2,0-0.4,0-0.6,0c-0.2,0-0.4,0-0.6,0s-0.4,0-0.5,0c-0.1,0-0.2,0-0.3,0h-0.3c0,0.1-0.1,0.2-0.1,0.3c0,0,0,0,0,0.1
			s0,0.1,0.1,0.1c0.2,0.1,0.4,0.1,0.6,0.2c0.2,0.1,0.4,0.2,0.5,0.3c0.1,0.1,0.2,0.2,0.3,0.3c0.1,0.1,0.2,0.2,0.2,0.2
			c0.2,0.3,0.3,0.6,0.3,1.1c0,0.3,0,0.5,0,0.7c0,0.2,0,0.4,0,0.7v3.6c0,0.2,0,0.5,0,0.7c0,0.2-0.1,0.4-0.1,0.5
			c-0.1,0.1-0.2,0.2-0.3,0.3s-0.3,0.2-0.4,0.2c-0.1,0.1-0.3,0.1-0.5,0.1c-0.2,0-0.3,0.1-0.4,0.1c0,0.1,0,0.1,0,0.2c0,0,0,0.1,0,0.1
			c0,0.1,0,0.1,0,0.2h0.3c0.2,0,0.5,0,0.7,0c0.3,0,0.5,0,0.7,0c0.3,0,0.7,0,0.9,0c0.3,0,0.6,0,0.9,0h0.8c0-0.1,0-0.1,0.1-0.2
			c0,0,0-0.1,0-0.1c0-0.1,0-0.1-0.1-0.2c-0.2,0-0.4-0.1-0.7-0.1s-0.5-0.2-0.7-0.3c-0.1-0.1-0.2-0.2-0.3-0.4
			c-0.1-0.1-0.1-0.4-0.2-0.7c0-0.2,0-0.4-0.1-0.6c0-0.2,0-0.4,0-0.5l0-2.8l-0.1-1.5l7,7.5c0.1,0.1,0.2,0.2,0.3,0.2s0.1,0,0.2,0
			c0.1,0,0.2-0.1,0.2-0.1c0-0.1,0-0.3,0-0.6c0-0.2,0-0.5,0-0.7s0-0.4,0-0.6s0-0.3,0-0.3l0-5.1c0-0.4,0-0.7,0.1-1
			c0.1-0.3,0.2-0.5,0.4-0.7c0.2-0.2,0.4-0.3,0.6-0.4c0.2-0.1,0.5-0.1,0.7-0.1c0,0,0-0.1,0-0.1s0-0.1,0-0.1
			C624.6,152.4,624.6,152.3,624.6,152.2z M610.6,161.8v-2.6c-0.1-0.1-0.2-0.1-0.3-0.1c-0.1,0-0.1,0-0.1,0c0,0-0.1,0-0.2,0.1
			c-0.1,0.2-0.2,0.5-0.3,0.7c-0.1,0.2-0.3,0.4-0.5,0.6s-0.3,0.4-0.5,0.5c-0.1,0.1-0.3,0.2-0.4,0.3c-0.1,0.1-0.2,0.1-0.5,0.1
			s-0.4,0-0.6,0h-1.4c-0.3,0-0.5,0-0.6,0c-0.1,0-0.2,0-0.3,0c-0.1,0-0.3-0.1-0.4-0.2s-0.2-0.2-0.2-0.3c-0.1-0.2-0.1-0.6-0.1-1.2
			v-2.6c0.1,0,0.2,0,0.3,0c0.1,0,0.2,0,0.3,0c0.2,0,0.4,0,0.5,0c0.2,0,0.4,0.1,0.6,0.2c0.4,0.1,0.6,0.4,0.7,0.7
			c0.1,0.3,0.2,0.6,0.2,1.1c0.1,0,0.2,0,0.3,0c0.1,0,0.1,0,0.2,0c0,0,0.1,0,0.1-0.1c0-0.1,0-0.2,0-0.4s0-0.4,0-0.6
			c0-0.2,0-0.4,0-0.6c0-0.2,0-0.3,0-0.4c0-0.5,0-0.9,0-1.3c0-0.4,0-0.7,0.1-0.9c-0.1-0.1-0.1-0.1-0.3-0.1c-0.1,0-0.2,0-0.3,0.1
			c0,0.1-0.1,0.2-0.1,0.4c0,0.2-0.1,0.3-0.1,0.4c-0.1,0.2-0.3,0.3-0.4,0.4c-0.2,0.1-0.4,0.2-0.6,0.3c-0.1,0-0.3,0.1-0.5,0.1
			s-0.4,0-0.6,0h-0.3v-1.3c0-0.3,0-0.6,0-0.8c0-0.2,0-0.4,0-0.6c0-0.2,0-0.3,0-0.4c0-0.1,0-0.2,0-0.2c0-0.2,0-0.3,0-0.3
			c0,0,0,0,0.1,0c0,0,0.1,0,0.3,0c0.2,0,0.4,0,0.8,0c0.4,0,0.7,0,0.9,0s0.3,0,0.4,0c0.4,0,0.7,0.1,0.9,0.3c0.1,0.1,0.3,0.2,0.4,0.3
			s0.2,0.2,0.3,0.3c0.1,0.1,0.2,0.3,0.4,0.4c0.1,0.2,0.3,0.4,0.4,0.7c0.1,0,0.1,0,0.2,0c0.1,0,0.1,0,0.1,0c0,0,0.1,0,0.1-0.1
			l-0.1-2.3c0-0.1,0-0.2-0.1-0.2c-0.1,0-0.1,0-0.3,0c0,0-0.1,0-0.2,0c-0.1,0-0.2,0-0.3,0c-0.1,0-0.2,0-0.3,0c-0.1,0-0.2,0-0.2,0
			c-0.1,0-0.3,0-0.5,0c-0.2,0-0.5,0-0.9,0c-0.3,0-0.7,0-1.1,0c-0.4,0-0.8,0-1.3,0c-0.9,0-1.7,0-2.2,0c-0.5,0-0.9,0-1.1,0h-0.5
			c0,0,0,0.1-0.1,0.1c0,0.1,0,0.1,0,0.1c0,0.1,0,0.2,0.1,0.3c0.3,0,0.5,0.1,0.7,0.1c0.2,0,0.4,0.1,0.5,0.2c0.1,0.1,0.2,0.2,0.3,0.3
			c0.1,0.1,0.1,0.4,0.1,0.6c0,0.2,0,0.4,0,0.6s0,0.6,0,0.9c0,0.6,0,1.1,0,1.5s0,0.9,0,1.3c0,0.3,0,0.5,0,0.8c0,0.2,0,0.5,0,0.7
			c0,0.5-0.1,0.8-0.1,1s-0.1,0.4-0.2,0.5c-0.1,0.1-0.2,0.1-0.5,0.2c-0.3,0.1-0.6,0.1-1,0.1c0,0,0,0.1,0,0.1c0,0.1,0,0.1,0,0.1
			c0,0.1,0,0.1,0.1,0.2l0.6,0c0.5,0,1,0,1.5,0c0.4,0,0.8,0,1,0c0.2,0,0.4,0,0.7,0c0.3,0,0.5,0,0.7,0c0.2,0,0.7,0,1.5,0
			c0.8,0,2,0,3.5,0c0.2,0,0.3,0,0.4-0.1S610.6,162,610.6,161.8z M598.4,161.7c0,0,0-0.1,0-0.1c-0.1,0-0.3,0-0.6,0s-0.4,0-0.5-0.1
			c-0.3-0.1-0.5-0.3-0.5-0.7c-0.1-0.3-0.1-0.7-0.1-1.2V155c0-0.1,0-0.3,0-0.4s0-0.3,0-0.5s0-0.3,0-0.5c0-0.1,0-0.2,0.1-0.3
			c0.1-0.2,0.3-0.4,0.6-0.4s0.6-0.1,0.9-0.1c0-0.1,0.1-0.2,0.1-0.3c0-0.1,0-0.1-0.1-0.2h-5c0,0.1,0,0.1-0.1,0.1c0,0,0,0.1,0,0.1
			c0,0.1,0,0.2,0.1,0.3c0.5,0,0.9,0.1,1.2,0.2c0.3,0.1,0.4,0.3,0.4,0.7c0,0.3,0,0.6,0,0.8s0,0.5,0,0.7v2.7c0,0.1,0,0.3,0,0.6
			c0,0.3,0,0.6,0,1c0,0.4,0,0.7,0,1c0,0.3,0,0.5-0.1,0.5c-0.1,0.2-0.3,0.4-0.5,0.5c-0.2,0.1-0.6,0.1-1.1,0.2c0,0.1-0.1,0.2-0.1,0.3
			c0,0,0,0.1,0,0.1s0,0.1,0,0.1h5.3c0.1-0.1,0.1-0.2,0.1-0.3C598.5,161.7,598.5,161.7,598.4,161.7z M587.8,155.3
			c-0.1,0.2-0.1,0.4-0.3,0.6c-0.1,0.2-0.2,0.3-0.4,0.5s-0.4,0.2-0.6,0.3c-0.2,0-0.4,0.1-0.8,0.1c-0.3,0-0.6,0-1,0
			c-0.1,0-0.2,0-0.3,0c-0.1,0-0.2,0-0.3,0v-3.6c0-0.1,0-0.2,0.1-0.3s0.3-0.1,0.6-0.1c0.3,0,0.6,0,0.9,0c0.3,0,0.5,0,0.7,0.1
			c0.2,0.1,0.4,0.1,0.5,0.2s0.3,0.2,0.4,0.4c0.1,0.2,0.2,0.4,0.3,0.5c0.1,0.2,0.1,0.4,0.1,0.7C587.9,154.9,587.8,155.1,587.8,155.3z
			 M591.5,161.6c0,0-0.1,0-0.2,0c-0.1,0-0.2,0-0.3,0c-0.1,0-0.2,0-0.3-0.1c-0.1,0-0.2,0-0.2,0c-0.1,0-0.1-0.1-0.2-0.1
			c-0.1-0.1-0.1-0.1-0.1-0.2c-0.1-0.3-0.2-0.6-0.3-0.8c-0.1-0.3-0.2-0.5-0.3-0.8c-0.1-0.4-0.3-0.7-0.4-0.9s-0.3-0.4-0.5-0.6
			c-0.1-0.1-0.3-0.3-0.6-0.4c-0.2-0.1-0.5-0.2-0.9-0.3v-0.1c1-0.1,1.7-0.4,2.2-0.8c0.4-0.4,0.6-1,0.6-1.5c0-0.6-0.2-1.1-0.5-1.5
			c-0.3-0.4-0.8-0.7-1.4-0.9c-0.2-0.1-0.5-0.1-0.8-0.1c-0.3,0-0.7,0-1.1,0c-0.6,0-1.1,0-1.5,0c-0.5,0-0.9,0-1.2,0
			c-0.1,0-0.3,0-0.5,0s-0.5,0-0.7,0c-0.3,0-0.5,0-0.8,0s-0.5,0-0.8,0c0,0.1,0,0.1-0.1,0.1c0,0,0,0,0,0.1c0,0.1,0,0.2,0,0.3
			c0.6,0,1,0.1,1.3,0.3s0.4,0.4,0.5,0.7c0,0.1,0.1,0.4,0.1,0.8s0,0.9,0,1.5v3.2c0,0.1,0,0.2,0,0.3s0,0.3,0,0.4c0,0.1,0,0.3,0,0.4
			c0,0.1,0,0.2,0,0.3c0,0.1-0.1,0.3-0.1,0.4s-0.1,0.3-0.2,0.4c0,0-0.1,0.1-0.2,0.1c-0.1,0-0.2,0.1-0.4,0.1c-0.1,0-0.3,0-0.4,0.1
			c-0.1,0-0.3,0-0.4,0c0,0.1,0,0.1,0,0.1c0,0,0,0.1,0,0.1c0,0,0,0.1,0,0.1c0,0,0,0.1,0,0.2c0.1,0,0.2,0,0.4,0c0.2,0,0.5,0,0.8,0
			c0.3,0,0.6,0,0.9,0c0.3,0,0.6,0,0.8,0c0.5,0,0.9,0,1.2,0c0.3,0,0.7,0,1.1,0c0-0.1,0-0.1,0.1-0.1c0,0,0-0.1,0-0.1
			c0-0.1,0-0.2-0.1-0.3c-0.3,0-0.6-0.1-0.8-0.1s-0.4-0.2-0.5-0.3c-0.2-0.2-0.3-0.6-0.3-1.1v-2.7h0.3c0.2,0,0.4,0,0.6,0
			s0.5,0,0.7,0.1c0.3,0.1,0.5,0.3,0.7,0.5c0.2,0.2,0.4,0.4,0.5,0.6c0.1,0.2,0.2,0.4,0.3,0.6c0.1,0.2,0.2,0.5,0.3,0.8
			c0.1,0.3,0.2,0.5,0.2,0.8s0.1,0.5,0.2,0.8c0,0.2,0.1,0.3,0.1,0.4c0.1,0.1,0.2,0.2,0.4,0.2l2.9,0c0-0.1,0-0.2,0-0.3
			C591.6,161.7,591.5,161.6,591.5,161.6z M579.5,151.2l-0.2-3.1c0-0.1,0-0.2,0-0.2c0,0,0-0.1-0.1-0.1c-0.1,0-0.2,0-0.4,0
			c-0.2,0-0.4,0-0.6,0c-0.2,0-0.3,0-0.5,0s-0.4,0-0.6,0s-0.5,0-0.8,0c-0.3,0-0.7,0-1.1,0c-1.2,0-2.1,0-2.7,0s-0.9,0-1,0
			c-0.2,0-0.5,0-0.8,0c-0.3,0-0.7,0-1,0s-0.7,0-1,0c-0.3,0-0.6,0-0.9,0c0,0.1-0.1,0.1-0.1,0.1c0,0,0,0.1,0,0.1c0,0.1,0,0.2,0.1,0.3
			c0.3,0,0.6,0.1,0.9,0.1c0.3,0,0.5,0.1,0.6,0.2c0.2,0.2,0.3,0.4,0.5,0.6c0.1,0.2,0.2,0.4,0.2,0.6c0,0.1,0,0.4,0.1,0.7
			c0,0.3,0,0.8,0,1.3v7.7c-0.1,0.5-0.1,1-0.2,1.3c-0.1,0.3-0.2,0.5-0.4,0.7c-0.2,0-0.5,0.1-0.9,0.1s-0.7,0.1-1,0.1
			c-0.1,0.1-0.1,0.2-0.1,0.3c0,0.1,0,0.2,0.1,0.3h0.8c0.6,0,1.1,0,1.6,0c0.5,0,0.9,0,1.4,0c0.2,0,0.4,0,0.7,0c0.3,0,0.5,0,0.8,0
			c0.3,0,0.5,0,0.8,0c0.3,0,0.5,0,0.7,0h0.5c0-0.1,0-0.1,0.1-0.1c0,0,0-0.1,0-0.1c0-0.1,0-0.2-0.1-0.3c-0.1,0-0.2,0-0.4,0
			c-0.2,0-0.3,0-0.5-0.1s-0.3,0-0.5-0.1c-0.1,0-0.2,0-0.3,0c-0.2-0.1-0.3-0.2-0.5-0.4c-0.2-0.2-0.3-0.5-0.4-0.9c0-0.1,0-0.3,0-0.5
			c0-0.2,0-0.5,0-0.7s0-0.6,0-0.9c0-0.3,0-0.6,0-0.8c0-0.4,0-0.8,0-1.1s0-0.5,0-0.6c0-0.2,0-0.3,0-0.3c0-0.1,0-0.1,0-0.2
			c0.2,0,0.4-0.1,0.6-0.1c0.4,0,0.8,0,1.1,0.1c0.3,0.1,0.5,0.1,0.6,0.2c0.3,0.2,0.5,0.4,0.6,0.7c0.2,0.2,0.2,0.5,0.3,0.7
			c0,0.2,0.1,0.4,0.1,0.6c0,0.2,0,0.3,0.1,0.4c0.1,0,0.1,0,0.1,0s0.1,0,0.1,0c0.1,0,0.2,0,0.3-0.1v-0.7c0-0.1,0-0.3,0-0.5
			c0-0.2,0-0.4,0-0.6c0-0.2,0-0.4,0-0.6c0-0.2,0-0.4,0-0.5s0-0.3,0-0.5c0-0.2,0-0.5,0-0.7c0-0.3,0-0.5,0-0.8c0-0.3,0-0.5,0-0.8
			c0,0-0.1,0-0.1-0.1c0,0-0.1,0-0.2,0c-0.1,0-0.1,0-0.2,0c0,0-0.1,0-0.1,0c0,0.1,0,0.2-0.1,0.4c0,0.2,0,0.3-0.1,0.5
			c0,0.2-0.1,0.3-0.1,0.5c-0.1,0.2-0.1,0.3-0.2,0.4c-0.1,0.1-0.2,0.3-0.4,0.4s-0.3,0.2-0.5,0.2c-0.2,0.1-0.4,0.1-0.6,0.1
			c-0.2,0-0.4,0-0.5,0c-0.2,0-0.4,0-0.5,0c-0.1,0-0.2,0-0.4,0v-5.7c0-0.1,0-0.2,0.1-0.3c0,0,0.1-0.1,0.3-0.1l3.4,0
			c0.3,0,0.5,0.1,0.7,0.2c0.1,0.1,0.3,0.2,0.5,0.4c0.2,0.1,0.3,0.3,0.5,0.5c0.2,0.2,0.4,0.5,0.6,0.8c0.2,0.3,0.4,0.7,0.6,1.1
			c0,0,0.1,0,0.1,0c0,0,0.1,0,0.1,0c0.1,0,0.1,0,0.2,0C579.4,151.2,579.5,151.2,579.5,151.2z"/>
		<path fill="#FFFFFF" d="M647.2,157.8l0.1-0.1c-0.3-0.5-0.7-0.8-1.3-1.1c-0.3-0.2-0.8-0.4-1.6-0.6c-0.3-0.1-0.6-0.2-0.8-0.3
			c-0.2-0.1-0.5-0.2-0.7-0.3l-0.1,0.1l0.1-0.1c-0.3-0.1-0.5-0.3-0.8-0.5c-0.2-0.2-0.3-0.5-0.3-0.8c0-0.4,0.2-0.7,0.5-0.9
			c0.3-0.3,0.7-0.4,1.2-0.4c0.4,0,0.8,0.1,1.1,0.2c0.3,0.1,0.6,0.3,0.8,0.6l0.1-0.1l-0.1,0.1c0.2,0.2,0.3,0.5,0.4,0.8
			c0.1,0.3,0.3,0.6,0.4,0.9l0,0l0.1,0c0.1,0,0.2,0,0.2,0c0.1,0,0.2,0,0.3-0.1c0.1,0,0.1-0.1,0.2-0.1l0.1,0v-0.1c0-0.1,0-0.1,0-0.3
			c0-0.1,0-0.3-0.1-0.4s0-0.3-0.1-0.5c0-0.1,0-0.2,0-0.3c0-0.2,0-0.5,0.1-0.8c0-0.3,0.1-0.5,0.1-0.6l0,0l0,0c0-0.1-0.1-0.2-0.2-0.3
			c-0.1-0.1-0.3-0.1-0.4-0.1h-0.1l0,0c-0.1,0.1-0.2,0.2-0.3,0.3c-0.1,0.1-0.2,0.2-0.3,0.3l0.1,0.1l0.1-0.1c-0.4-0.3-0.8-0.5-1.3-0.6
			c-0.4-0.1-0.8-0.1-1.2-0.1c-0.5,0-0.9,0.1-1.3,0.2c-0.4,0.1-0.7,0.3-1,0.6c-0.3,0.3-0.5,0.6-0.7,0.9c-0.2,0.4-0.2,0.8-0.2,1.2
			c0,0.3,0,0.6,0.1,0.9c0.1,0.3,0.2,0.7,0.5,0.9l0,0l0,0c0.2,0.2,0.4,0.4,0.6,0.5c0.2,0.2,0.5,0.3,0.8,0.5l0.1-0.1l-0.1,0.1
			c0.2,0.1,0.4,0.2,0.6,0.2c0.2,0.1,0.5,0.2,0.7,0.2s0.5,0.2,0.7,0.2c0.2,0.1,0.4,0.1,0.5,0.2c0.3,0.1,0.5,0.3,0.6,0.4
			c0.1,0.1,0.2,0.2,0.4,0.3l0,0l0,0c0.2,0.2,0.2,0.5,0.2,0.8c0,0.2,0,0.4-0.1,0.6c-0.1,0.1-0.2,0.3-0.4,0.5l0,0
			c-0.3,0.3-0.8,0.4-1.5,0.4c-0.3,0-0.7-0.1-1.1-0.2c-0.4-0.2-0.7-0.4-1-0.8l-0.1,0.1l0.1-0.1c-0.1-0.1-0.2-0.2-0.2-0.4
			c-0.1-0.2-0.2-0.4-0.2-0.5c-0.1-0.2-0.2-0.4-0.2-0.5c-0.1-0.2-0.1-0.3-0.2-0.4l0-0.1l-0.1,0c-0.1,0-0.1,0-0.2,0
			c-0.2,0-0.4,0.1-0.6,0.3l0,0v0c0,0.1,0,0.2,0,0.3c0,0.2,0,0.3,0,0.5c0,0.2,0,0.3,0,0.5c0,0.2,0,0.3,0,0.3c0,0.2,0,0.4-0.1,0.6
			c-0.1,0.3-0.1,0.4-0.1,0.6v0l0,0c0.1,0.1,0.2,0.2,0.3,0.3c0.1,0.1,0.3,0.1,0.4,0.1h0l0,0c0.2-0.1,0.3-0.2,0.4-0.3s0.2-0.1,0.2-0.1
			c0,0,0.1,0,0.2,0c0.1,0,0.1,0,0.1,0l0,0l0,0c0.3,0.2,0.7,0.3,1.1,0.4c0.4,0.1,0.9,0.2,1.3,0.2c0.5,0,0.9-0.1,1.4-0.2
			c0.4-0.1,0.8-0.4,1.2-0.6c0.3-0.3,0.6-0.6,0.8-1c0.2-0.4,0.3-0.8,0.3-1.3c0-0.6-0.1-1.2-0.4-1.6L647.2,157.8l-0.1,0.1
			c0.2,0.4,0.4,0.9,0.4,1.5c0,0.4-0.1,0.8-0.3,1.2c-0.2,0.4-0.4,0.7-0.7,0.9s-0.7,0.4-1.1,0.6s-0.8,0.2-1.3,0.2
			c-0.4,0-0.8-0.1-1.2-0.2c-0.4-0.1-0.8-0.3-1-0.4l-0.1,0.1l0.1-0.1c-0.1,0-0.1-0.1-0.2-0.1c-0.1,0-0.1,0-0.2,0
			c-0.1,0-0.2,0-0.4,0.1c-0.1,0.1-0.3,0.2-0.5,0.3l0.1,0.1v-0.1c-0.1,0-0.2,0-0.3-0.1c-0.1,0-0.1-0.1-0.2-0.1l-0.1,0.1h0.1
			c0-0.1,0-0.3,0.1-0.5c0.1-0.3,0.1-0.5,0.1-0.7c0-0.1,0-0.2,0-0.3c0-0.2,0-0.3,0-0.5s0-0.3,0-0.5c0-0.2,0-0.3,0-0.3h-0.1l0.1,0.1
			c0.1-0.1,0.2-0.2,0.3-0.2c0.1,0,0.1,0,0.1,0l0-0.1l-0.1,0.1c0,0.1,0.1,0.2,0.2,0.4c0.1,0.2,0.2,0.4,0.2,0.5
			c0.1,0.2,0.2,0.4,0.3,0.6c0.1,0.2,0.2,0.3,0.3,0.5l0,0l0,0c0.3,0.4,0.7,0.7,1.1,0.8c0.4,0.2,0.8,0.3,1.2,0.3
			c0.8,0,1.4-0.2,1.7-0.5l-0.1-0.1l0.1,0.1c0.2-0.2,0.4-0.4,0.5-0.6c0.1-0.2,0.1-0.4,0.1-0.7c0-0.4-0.1-0.7-0.3-1l-0.1,0.1l0.1-0.1
			c-0.1-0.2-0.3-0.3-0.4-0.4c-0.1-0.1-0.4-0.2-0.7-0.4c-0.1-0.1-0.3-0.1-0.5-0.2c-0.2-0.1-0.5-0.1-0.7-0.2c-0.3-0.1-0.5-0.2-0.7-0.2
			c-0.2-0.1-0.4-0.2-0.6-0.2l0,0l0,0c-0.3-0.2-0.6-0.3-0.8-0.5c-0.2-0.1-0.4-0.3-0.6-0.5l-0.1,0.1l0.1-0.1c-0.2-0.3-0.3-0.5-0.4-0.8
			c-0.1-0.3-0.1-0.6-0.1-0.9c0-0.4,0.1-0.7,0.2-1.1c0.1-0.3,0.3-0.6,0.6-0.8c0.3-0.2,0.6-0.4,0.9-0.6c0.4-0.1,0.7-0.2,1.2-0.2
			c0.3,0,0.7,0,1.1,0.1c0.4,0.1,0.8,0.2,1.1,0.5l0.1,0.1l0.1-0.1c0.1-0.1,0.2-0.2,0.3-0.3c0.1-0.1,0.2-0.2,0.3-0.3l-0.1-0.1v0.1
			c0.1,0,0.2,0,0.3,0.1c0,0,0.1,0,0.1,0.1l0,0v0l0.1,0l-0.1,0c0,0.1,0,0.3-0.1,0.6c0,0.3-0.1,0.5-0.1,0.8c0,0.1,0,0.2,0,0.3
			c0,0.1,0,0.3,0.1,0.4c0,0.2,0,0.3,0,0.4c0,0.1,0,0.2,0,0.2h0.1l-0.1-0.1c-0.1,0-0.1,0.1-0.2,0.1c0,0-0.1,0-0.1,0c0,0-0.1,0-0.1,0
			l0,0.1l0.1-0.1c-0.1-0.2-0.3-0.5-0.4-0.8c-0.1-0.3-0.3-0.6-0.4-0.9l0,0c-0.2-0.3-0.5-0.6-0.9-0.7c-0.3-0.1-0.7-0.2-1.2-0.2
			c-0.5,0-1,0.2-1.4,0.5c-0.4,0.3-0.6,0.7-0.6,1.2c0,0.4,0.1,0.8,0.5,1.1c0.3,0.2,0.6,0.4,0.9,0.5l0,0h0c0.2,0.1,0.4,0.2,0.7,0.3
			c0.2,0.1,0.5,0.2,0.8,0.3c0.8,0.3,1.3,0.5,1.6,0.6c0.6,0.3,1,0.6,1.2,1L647.2,157.8z M635.1,158.9l-0.1,0
			c-0.2,0.5-0.4,0.9-0.8,1.3l0,0v0c-0.3,0.4-0.7,0.7-1.2,0.9c-0.4,0.2-1,0.3-1.6,0.3c-0.2,0-0.4,0-0.5-0.1c-0.1-0.1-0.3-0.2-0.4-0.3
			h0c-0.2-0.2-0.3-0.5-0.3-1.1V153l0-0.1l-0.1,0l0,0.1c0.1,0,0.2,0,0.3-0.1c0.1,0,0.2,0,0.4,0c0.6,0,1.2,0.1,1.6,0.2
			c0.5,0.1,0.9,0.4,1.2,0.6l0,0c0.5,0.4,0.9,0.9,1.2,1.4c0.2,0.6,0.4,1.2,0.4,2c0,0.6-0.1,1.2-0.3,1.7L635.1,158.9l0.1,0.1
			c0.2-0.5,0.3-1.1,0.3-1.8c0-0.8-0.1-1.5-0.4-2.1c-0.3-0.6-0.7-1.1-1.3-1.6l-0.1,0.1l0.1-0.1c-0.4-0.3-0.8-0.5-1.3-0.7
			c-0.5-0.2-1.1-0.2-1.7-0.2c-0.2,0-0.3,0-0.4,0c-0.1,0-0.2,0-0.3,0.1l-0.1,0l0,0.3v6.9c0,0.6,0.1,1,0.3,1.3l0.1-0.1l-0.1,0.1
			c0.2,0.2,0.3,0.3,0.5,0.4c0.2,0.1,0.4,0.1,0.6,0.1c0.7,0,1.2-0.1,1.7-0.3c0.5-0.2,0.9-0.5,1.3-1l-0.1-0.1l0.1,0.1
			c0.4-0.4,0.7-0.9,0.8-1.4L635.1,158.9z M637.4,156l0.1,0c-0.1-0.5-0.3-0.9-0.5-1.3s-0.5-0.8-0.8-1.1c-0.3-0.3-0.7-0.6-1.1-0.9
			l-0.1,0.1l0.1-0.1c-0.4-0.2-0.9-0.4-1.4-0.5c-0.6-0.1-1.2-0.2-1.9-0.2c-0.3,0-0.6,0-1,0c-0.4,0-0.7,0-1,0c-0.3,0-0.6,0-0.9,0
			c-0.3,0-0.5,0-0.6,0c-0.2,0-0.4,0-0.6,0c-0.2,0-0.4,0-0.6,0h-0.8l0,0.1c-0.1,0.1-0.1,0.2-0.1,0.3c0,0.1,0,0.1,0,0.2
			c0,0,0,0.1,0,0.1l0,0.1h0.1c0.4,0,0.7,0,0.9,0.1c0.2,0.1,0.3,0.2,0.4,0.3c0.1,0.1,0.1,0.2,0.2,0.3c0,0.1,0,0.3,0.1,0.4
			c0,0.1,0,0.5,0.1,0.9c0,0.5,0,1.3,0,2.3v2.3c0,0.5,0,0.8-0.1,1c0,0.1-0.1,0.2-0.1,0.3c0,0,0,0.1,0,0.1l0,0l0,0l0,0l0,0
			c-0.1,0.2-0.2,0.3-0.4,0.3c-0.2,0.1-0.6,0.1-1.1,0.2l-0.1,0l0,0.1c0,0.1,0,0.1-0.1,0.2c0,0,0,0.1,0,0.1c0,0.1,0,0.2,0.1,0.3l0,0.1
			h0.3c0.1,0,0.3,0,0.4,0c0.1,0,0.3,0,0.5,0c0.2,0,0.5,0,0.8,0c0.3,0,0.8,0,1.3,0c0.5,0,0.9,0,1.3,0c0.4,0,0.7,0,1,0
			c0.6,0,1.1,0,1.6-0.1c0.5-0.1,0.9-0.2,1.3-0.3c0.4-0.2,0.8-0.4,1.1-0.6c0.3-0.3,0.6-0.6,0.9-1l0,0l0,0c0.3-0.4,0.5-0.9,0.7-1.4
			c0.1-0.5,0.2-1,0.2-1.5c0-0.4-0.1-0.9-0.2-1.3L637.4,156l-0.1,0c0.1,0.4,0.1,0.9,0.1,1.3c0,0.5-0.1,0.9-0.2,1.4
			c-0.1,0.5-0.3,0.9-0.6,1.3l0.1,0.1l-0.1-0.1c-0.3,0.4-0.6,0.7-0.8,0.9c-0.3,0.2-0.6,0.4-1,0.6c-0.4,0.1-0.8,0.2-1.2,0.3
			c-0.5,0.1-1,0.1-1.6,0.1c-0.2,0-0.6,0-1,0c-0.4,0-0.9,0-1.3,0c-0.5,0-1,0-1.3,0c-0.3,0-0.6,0-0.8,0c-0.2,0-0.4,0-0.5,0
			c-0.1,0-0.3,0-0.4,0h-0.2v0.1l0.1-0.1c0-0.1,0-0.1,0-0.2c0,0,0,0,0-0.1c0,0,0-0.1,0-0.1l-0.1-0.1l0,0.1c0.5,0,0.9-0.1,1.1-0.2
			c0.3-0.1,0.5-0.3,0.6-0.5L628,161l0.1,0.1c0,0,0-0.1,0.1-0.2c0-0.1,0-0.2,0.1-0.3c0.1-0.2,0.1-0.6,0.1-1.1v-2.3c0-1.1,0-1.8,0-2.3
			c0-0.5,0-0.8-0.1-1c0-0.2,0-0.3-0.1-0.5c0-0.2-0.1-0.3-0.2-0.5c-0.1-0.1-0.3-0.3-0.6-0.3c-0.2-0.1-0.6-0.1-1-0.1v0.1l0.1,0
			c0-0.1,0-0.1,0-0.2c0,0,0-0.1,0-0.1c0,0,0-0.1,0.1-0.2l-0.1-0.1v0.1h0.7c0.2,0,0.4,0,0.6,0c0.2,0,0.4,0,0.6,0c0.1,0,0.3,0,0.6,0
			c0.3,0,0.6,0,0.9,0c0.3,0,0.7,0,1,0c0.4,0,0.7,0,0.9,0c0.7,0,1.3,0.1,1.8,0.2c0.5,0.1,1,0.3,1.4,0.5l0,0l0,0
			c0.4,0.2,0.8,0.5,1.1,0.8c0.3,0.3,0.5,0.7,0.8,1.1c0.2,0.4,0.3,0.8,0.4,1.2L637.4,156z M624.6,152.2v-0.1h-0.4c-0.1,0-0.3,0-0.4,0
			c-0.1,0-0.3,0-0.4,0c-0.2,0-0.3,0-0.6,0c-0.2,0-0.5,0-0.7,0c-0.2,0-0.5,0-0.9,0c-0.3,0-0.6,0-0.9,0h-0.4l0,0.1c0,0.1,0,0.2,0,0.3
			c0,0.1,0,0.2,0.1,0.4l0,0.1l0.1,0c0.1,0,0.3,0.1,0.5,0.1c0.2,0,0.3,0.1,0.5,0.1c0.2,0,0.3,0.1,0.4,0.1c0.1,0,0.2,0.1,0.2,0.1
			l0.1-0.1l-0.1,0.1c0.1,0.3,0.2,0.6,0.3,1v0c0,0.1,0,0.2,0,0.4c0,0.2,0,0.4,0,0.7v4.1h0.1l0.1-0.1c-0.1-0.2-0.3-0.4-0.6-0.7
			c-0.2-0.3-0.4-0.5-0.6-0.7l0,0l-5.2-5.7l0,0c-0.1-0.1-0.2-0.2-0.4-0.2l0,0h-0.5c-0.2,0-0.4,0-0.6,0c-0.2,0-0.4,0-0.6,0
			c-0.2,0-0.4,0-0.5,0c-0.1,0-0.2,0-0.3,0h-0.4l0,0.1c-0.1,0.1-0.1,0.2-0.1,0.3c0,0,0,0.1,0,0.1c0,0.1,0,0.1,0.1,0.2l0,0l0,0
			c0.2,0.1,0.4,0.1,0.6,0.2c0.2,0.1,0.4,0.2,0.5,0.2l0,0l0,0c0.1,0.1,0.2,0.2,0.3,0.3c0.1,0.1,0.2,0.2,0.2,0.2l0.1-0.1l-0.1,0.1
			c0.2,0.2,0.3,0.6,0.3,1v0c0,0.3,0,0.5,0,0.7c0,0.2,0,0.4,0,0.7v3.6c0,0.2,0,0.5,0,0.7c0,0.2-0.1,0.4-0.1,0.5l0.1,0.1l-0.1-0.1
			c-0.1,0.1-0.2,0.2-0.3,0.2c-0.1,0.1-0.2,0.1-0.4,0.2s-0.3,0.1-0.4,0.1c-0.2,0-0.3,0.1-0.4,0.1l-0.1,0l0,0.1c0,0.1,0,0.1-0.1,0.2
			c0,0,0,0.1,0,0.1c0,0.1,0,0.2,0,0.3l0,0.1h0.4c0.2,0,0.5,0,0.7,0c0.3,0,0.5,0,0.7,0c0.3,0,0.7,0,0.9,0c0.3,0,0.6,0,0.9,0h0.9
			l0-0.1c0-0.1,0.1-0.1,0.1-0.2c0-0.1,0-0.1,0-0.2c0-0.1,0-0.2-0.1-0.3l0-0.1l-0.1,0c-0.2,0-0.4-0.1-0.7-0.1
			c-0.2-0.1-0.4-0.2-0.6-0.3c-0.1-0.1-0.2-0.2-0.3-0.3c-0.1-0.1-0.1-0.3-0.2-0.6l0,0l0,0c0-0.2,0-0.4-0.1-0.6c0-0.2,0-0.4,0-0.5
			l0-2.8l-0.1-1.1l6.7,7.3l0,0c0.1,0.1,0.1,0.1,0.2,0.1c0.1,0,0.1,0.1,0.2,0.1c0.1,0,0.1,0,0.2,0c0.1,0,0.2-0.1,0.3-0.1l0.1,0v-0.1
			c0-0.1,0-0.3,0-0.6c0-0.2,0-0.5,0-0.7c0-0.2,0-0.4,0-0.6s0-0.3,0-0.3l0-5.1c0-0.4,0-0.7,0.1-1c0.1-0.3,0.2-0.5,0.4-0.6
			c0.2-0.2,0.3-0.3,0.5-0.3c0.2-0.1,0.4-0.1,0.7-0.1l0.1,0l0-0.1c0-0.1,0.1-0.1,0.1-0.2c0-0.1,0-0.1,0-0.1c0-0.1,0-0.2-0.1-0.3
			l0-0.1h-0.1V152.2l-0.1,0.1c0,0.1,0,0.1,0,0.2c0,0,0,0,0,0.1c0,0,0,0,0,0.1l0.1,0.1l0-0.1c-0.3,0-0.5,0.1-0.8,0.1
			c-0.2,0.1-0.5,0.2-0.7,0.4c-0.2,0.2-0.3,0.4-0.4,0.7c-0.1,0.3-0.2,0.7-0.2,1.1l0,5.1c0,0.1,0,0.2,0,0.4s0,0.4,0,0.6
			c0,0.2,0,0.5,0,0.7c0,0.2,0,0.4,0,0.6h0.1l-0.1-0.1c-0.1,0-0.1,0.1-0.2,0.1c-0.1,0-0.1,0-0.1,0v0.1l0-0.1c0,0,0,0,0,0v0.1l0-0.1
			l0,0c0,0-0.1-0.1-0.2-0.1l-0.1,0.1l0.1-0.1l-7.3-7.8l0.1,1.9l0,2.8c0,0.1,0,0.3,0,0.5c0,0.2,0,0.4,0.1,0.6l0.1,0l-0.1,0
			c0,0.3,0.1,0.6,0.2,0.7c0.1,0.2,0.2,0.3,0.4,0.4c0.2,0.2,0.4,0.3,0.7,0.3c0.3,0.1,0.5,0.1,0.7,0.1l0-0.1l-0.1,0.1
			c0,0.1,0,0.1,0,0.2c0,0,0,0,0,0.1c0,0,0,0.1,0,0.1l0.1,0.1v-0.1h-0.8c-0.3,0-0.6,0-0.9,0c-0.3,0-0.6,0-0.9,0c-0.2,0-0.5,0-0.7,0
			c-0.3,0-0.5,0-0.7,0h-0.3v0.1l0.1,0c0-0.1,0-0.1,0-0.2c0,0,0,0,0-0.1c0,0,0-0.1,0-0.1l-0.1-0.1l0,0.1c0.1,0,0.3,0,0.4-0.1
			c0.2,0,0.3-0.1,0.5-0.1c0.2-0.1,0.3-0.1,0.4-0.2c0.1-0.1,0.3-0.2,0.3-0.3l0,0l0,0c0.1-0.2,0.1-0.3,0.1-0.6c0-0.2,0-0.5,0-0.7v-3.6
			c0-0.3,0-0.5,0-0.7c0-0.2,0-0.4,0-0.7l-0.1,0l0.1,0c0-0.5-0.1-0.9-0.4-1.2l0,0l0,0c0,0-0.1-0.1-0.2-0.2c-0.1-0.1-0.2-0.2-0.3-0.3
			l-0.1,0.1l0.1-0.1c-0.1-0.1-0.3-0.2-0.6-0.3c-0.2-0.1-0.4-0.2-0.6-0.2l-0.1,0.1l0.1-0.1c0,0,0,0,0-0.1c0,0,0,0,0-0.1c0,0,0,0,0,0
			c0-0.1,0-0.1,0-0.2l-0.1-0.1v0.1h0.3c0,0,0.1,0,0.3,0c0.1,0,0.3,0,0.5,0c0.2,0,0.4,0,0.6,0c0.2,0,0.4,0,0.6,0l0.5,0v-0.1l-0.1,0.1
			c0.1,0,0.2,0.1,0.3,0.2l0.1-0.1l-0.1,0.1l5.2,5.7l0.1-0.1l-0.1,0.1c0.2,0.2,0.4,0.5,0.6,0.7c0.2,0.3,0.4,0.5,0.5,0.7l0.3,0.3v-4.5
			c0-0.3,0-0.5,0-0.7c0-0.2,0-0.3,0-0.4l-0.1,0l0.1,0c0-0.4-0.1-0.8-0.3-1.1l0,0c-0.1-0.1-0.2-0.2-0.3-0.2c-0.1-0.1-0.3-0.1-0.5-0.1
			c-0.2,0-0.3-0.1-0.5-0.1c-0.2,0-0.3-0.1-0.4-0.1l0,0.1l0.1-0.1c0-0.1-0.1-0.2-0.1-0.2c0-0.1,0-0.1,0-0.2l-0.1-0.1v0.1h0.3
			c0.2,0,0.5,0,0.9,0c0.3,0,0.6,0,0.9,0c0.3,0,0.5,0,0.8,0c0.2,0,0.4,0,0.5,0c0.2,0,0.3,0,0.4,0c0.1,0,0.3,0,0.4,0h0.4V152.2
			l-0.1,0.1L624.6,152.2z M610.6,161.8h0.1v-2.7l-0.1,0c-0.1-0.1-0.2-0.1-0.4-0.1c-0.1,0-0.1,0-0.2,0c-0.1,0-0.1,0-0.2,0.1l-0.1,0
			l0,0.1c-0.1,0.2-0.2,0.4-0.3,0.7c-0.1,0.2-0.3,0.4-0.4,0.6c-0.2,0.2-0.3,0.4-0.5,0.5c-0.1,0.1-0.3,0.2-0.3,0.3l0,0l0,0
			c-0.1,0-0.2,0.1-0.4,0.1c-0.2,0-0.4,0-0.6,0h-1.4c-0.3,0-0.5,0-0.6,0c-0.1,0-0.2,0-0.3,0h0h0c-0.1,0-0.2-0.1-0.3-0.2
			c-0.1-0.1-0.2-0.2-0.2-0.3l-0.1,0.1l0.1-0.1c-0.1-0.2-0.1-0.5-0.1-1.1v-2.6h-0.1l0,0.1c0.1,0,0.2,0,0.3,0c0.1,0,0.2,0,0.3,0
			c0.2,0,0.4,0,0.5,0c0.2,0,0.3,0.1,0.5,0.2c0.3,0.1,0.5,0.3,0.6,0.6c0.1,0.3,0.2,0.6,0.2,1l0,0.1l0.1,0c0.1,0,0.2,0,0.3,0
			c0.1,0,0.1,0,0.2,0c0,0,0.1,0,0.1-0.1l0.1,0v-0.1c0-0.1,0-0.3,0-0.4c0-0.2,0-0.4,0-0.6c0-0.2,0-0.4,0-0.6c0-0.2,0-0.3,0-0.4
			c0-0.5,0-0.9,0-1.3c0-0.4,0-0.7,0.1-0.9l0-0.1l0,0c-0.1-0.1-0.2-0.1-0.4-0.1c-0.1,0-0.3,0-0.4,0.1l-0.1,0l0,0.1
			c0,0.1-0.1,0.2-0.1,0.5c0,0.2-0.1,0.3-0.1,0.4l0.1,0.1l-0.1-0.1c-0.1,0.1-0.2,0.3-0.4,0.4c-0.2,0.1-0.4,0.2-0.5,0.2h0l0,0
			c-0.1,0-0.3,0.1-0.4,0.1c-0.2,0-0.4,0-0.6,0l-0.2,0v-1.1c0-0.3,0-0.6,0-0.8s0-0.4,0-0.6c0-0.2,0-0.3,0-0.4c0-0.1,0-0.2,0-0.2h-0.1
			l0.1,0c0-0.2,0-0.3,0-0.4h-0.1l0,0.1c0,0,0.1,0,0.1-0.1h-0.1l0,0.1l0,0l0,0l0,0l0,0l0,0c0,0,0,0,0,0h0l0,0c0,0,0,0,0,0
			c0,0,0.1,0,0.3,0c0.2,0,0.4,0,0.8,0c0.4,0,0.7,0,0.9,0c0.2,0,0.3,0,0.4,0v-0.1l0,0.1c0.4,0,0.7,0.1,0.8,0.2l0,0l0,0
			c0.1,0.1,0.2,0.2,0.4,0.3c0.1,0.1,0.2,0.2,0.3,0.3c0.1,0.1,0.2,0.3,0.4,0.4c0.1,0.2,0.3,0.4,0.4,0.7l0,0.1l0.1,0
			c0.1,0,0.2,0,0.3,0c0.1,0,0.1,0,0.2,0c0,0,0.1,0,0.1-0.1l0.1,0l-0.1-2.4l-0.1,0h0.1c0-0.1,0-0.1,0-0.2c0-0.1-0.1-0.1-0.1-0.1
			c-0.1,0-0.2,0-0.3,0c0,0-0.1,0-0.2,0c-0.1,0-0.2,0-0.3,0c-0.1,0-0.2,0-0.3,0c-0.1,0-0.2,0-0.2,0c-0.1,0-0.3,0-0.5,0
			c-0.2,0-0.5,0-0.9,0c-0.3,0-0.7,0-1.1,0c-0.4,0-0.8,0-1.3,0c-0.9,0-1.7,0-2.2,0c-0.5,0-0.9,0-1.1,0h-0.6l0,0
			c-0.1,0.1-0.1,0.1-0.1,0.2c0,0.1,0,0.1,0,0.2c0,0.1,0,0.2,0.1,0.3l0,0.1l0.1,0c0.3,0,0.5,0.1,0.7,0.1c0.2,0,0.3,0.1,0.5,0.1
			c0.1,0.1,0.2,0.2,0.3,0.3c0.1,0.1,0.1,0.3,0.1,0.6c0,0.2,0,0.4,0,0.6c0,0.2,0,0.6,0,0.9c0,0.6,0,1.1,0,1.5c0,0.5,0,0.9,0,1.3
			c0,0.3,0,0.5,0,0.8c0,0.2,0,0.5,0,0.7c0,0.4-0.1,0.8-0.1,1c0,0.2-0.1,0.4-0.2,0.4l0.1,0.1l-0.1-0.1c0,0-0.2,0.1-0.4,0.2
			c-0.3,0.1-0.6,0.1-1,0.1l-0.1,0l0,0.1c0,0.1-0.1,0.1-0.1,0.2c0,0.1,0,0.1,0,0.1c0,0.1,0,0.2,0.1,0.3l0,0.1l0.7,0h0
			c0.5,0,1,0,1.5,0c0.4,0,0.8,0,1,0c0.2,0,0.4,0,0.7,0c0.3,0,0.5,0,0.7,0c0.2,0,0.7,0,1.5,0c0.8,0,2,0,3.5,0c0.2,0,0.3,0,0.5-0.1
			c0.1-0.1,0.2-0.2,0.2-0.4H610.6h-0.1c0,0.1,0,0.1,0,0.1c0,0-0.2,0-0.3,0c-1.5,0-2.7,0-3.5,0c-0.8,0-1.3,0-1.5,0
			c-0.2,0-0.4,0-0.7,0c-0.3,0-0.6,0-0.7,0c-0.2,0-0.5,0-1,0c-0.4,0-0.9,0-1.4,0v0.1l0-0.1l-0.6,0l0,0.1l0.1-0.1c0-0.1,0-0.1,0-0.2
			c0,0,0-0.1,0-0.1c0,0,0,0,0-0.1l-0.1-0.1l0,0.1c0.4,0,0.7-0.1,1-0.1c0.3-0.1,0.5-0.1,0.6-0.2l0,0l0,0c0.1-0.1,0.2-0.3,0.2-0.6
			c0-0.2,0.1-0.6,0.1-1c0-0.2,0-0.5,0-0.7c0-0.2,0-0.5,0-0.8c0-0.4,0-0.8,0-1.3s0-1,0-1.5c0-0.4,0-0.7,0-0.9c0-0.2,0-0.4,0-0.6
			c0-0.3,0-0.5-0.1-0.7c-0.1-0.2-0.2-0.3-0.4-0.4c-0.2-0.1-0.3-0.2-0.6-0.2c-0.2,0-0.5-0.1-0.7-0.1l0,0.1l0.1-0.1
			c0-0.1-0.1-0.2-0.1-0.2c0,0,0,0,0,0c0,0,0,0,0-0.1c0,0,0-0.1,0-0.1l-0.1-0.1v0.1h0.5c0.2,0,0.5,0,1,0c0.5,0,1.2,0,2.2,0
			c0.4,0,0.9,0,1.3,0c0.4,0,0.8,0,1.1,0c0.3,0,0.6,0,0.9,0c0.2,0,0.4,0,0.5,0c0.1,0,0.1,0,0.2,0c0.1,0,0.2,0,0.3,0
			c0.1,0,0.2,0,0.3,0c0.1,0,0.2,0,0.2,0c0.1,0,0.2,0,0.2,0l0,0l0,0l0,0l0,0l0,0l0,0l0,0l0,0l0,0l0,0c0,0,0,0,0,0.1v0l0.1,2.3l0.1,0
			l-0.1-0.1c-0.1,0-0.1,0-0.2,0.1l0,0l0,0l0,0l0,0l0,0c0,0,0,0-0.1,0c-0.1,0-0.2,0-0.2,0l0,0.1l0.1-0.1c-0.2-0.3-0.3-0.5-0.5-0.7
			c-0.1-0.2-0.3-0.3-0.4-0.5c-0.1-0.1-0.2-0.2-0.3-0.3c-0.1-0.1-0.2-0.2-0.4-0.3l-0.1,0.1l0.1-0.1c-0.2-0.2-0.5-0.2-0.9-0.3l0,0h0
			c-0.1,0-0.2,0-0.4,0c-0.2,0-0.5,0-0.9,0c-0.3,0-0.6,0-0.8,0c-0.2,0-0.3,0-0.4,0l0,0.1v-0.1c0,0-0.1,0-0.1,0c0,0-0.1,0.1-0.1,0.2
			c0,0,0,0.1,0,0.3l0,0v0c0,0,0,0.1,0,0.2c0,0.1,0,0.2,0,0.4c0,0.2,0,0.3,0,0.6c0,0.2,0,0.5,0,0.8v1.4h0.5c0.2,0,0.4,0,0.7,0
			c0.2,0,0.4-0.1,0.5-0.1l0-0.1l0,0.1c0.2-0.1,0.4-0.2,0.6-0.3c0.2-0.1,0.4-0.3,0.5-0.5l0,0l0,0c0.1-0.1,0.1-0.2,0.1-0.4
			c0-0.2,0.1-0.3,0.1-0.4l-0.1,0l0.1,0.1c0.1,0,0.1,0,0.3,0c0.1,0,0.1,0,0.2,0l0.1-0.1l-0.1,0c0,0.2,0,0.5-0.1,0.8
			c0,0.4,0,0.8,0,1.3c0,0.1,0,0.3,0,0.5c0,0.2,0,0.4,0,0.6c0,0.2,0,0.4,0,0.6s0,0.3,0,0.4h0.1l-0.1-0.1c-0.1,0-0.1,0-0.1,0.1
			c0,0,0,0-0.1,0c-0.1,0-0.1,0-0.2,0l0,0.1l0.1,0c-0.1-0.4-0.1-0.8-0.2-1.1c-0.1-0.3-0.4-0.6-0.8-0.7c-0.2-0.1-0.4-0.1-0.6-0.2
			c-0.2,0-0.4,0-0.6,0c-0.1,0-0.2,0-0.3,0c-0.1,0-0.2,0-0.3,0l-0.1,0v2.7c0,0.6,0,1,0.1,1.2l0,0c0,0.1,0.1,0.2,0.2,0.4
			c0.1,0.1,0.3,0.2,0.5,0.3l0-0.1l0,0.1c0.1,0,0.2,0,0.3,0c0.1,0,0.4,0,0.6,0h1.4c0.2,0,0.4,0,0.6,0c0.2,0,0.4-0.1,0.5-0.2l-0.1-0.1
			l0.1,0.1c0.1-0.1,0.2-0.2,0.4-0.3c0.2-0.2,0.3-0.3,0.5-0.5c0.2-0.2,0.3-0.4,0.5-0.6c0.1-0.2,0.3-0.5,0.3-0.7l-0.1,0l0.1,0.1
			c0.1,0,0.1,0,0.1,0c0,0,0.1,0,0.1,0c0.1,0,0.1,0,0.2,0.1l0.1-0.1h-0.1v2.6H610.6z M598.4,161.7l0.1,0c0,0,0-0.1-0.1-0.1l0-0.1
			l-0.1,0c-0.1,0-0.3,0-0.6,0c-0.2,0-0.4,0-0.4-0.1c-0.3-0.1-0.4-0.3-0.4-0.6c-0.1-0.3-0.1-0.7-0.1-1.1V155c0-0.1,0-0.3,0-0.4
			c0-0.2,0-0.3,0-0.5c0-0.2,0-0.3,0-0.4c0-0.1,0-0.2,0-0.2l0,0l0,0c0.1-0.2,0.2-0.3,0.5-0.3c0.3,0,0.6-0.1,0.9-0.1l0.1,0l0-0.1
			c0-0.1,0.1-0.2,0.1-0.3c0-0.1-0.1-0.2-0.2-0.3l0-0.1h-5.2l0,0.1c0,0,0,0.1-0.1,0.1c0,0.1-0.1,0.1-0.1,0.2c0,0.1,0,0.2,0.1,0.3
			l0,0.1l0.1,0c0.5,0,0.9,0.1,1.1,0.2c0.2,0.1,0.3,0.2,0.3,0.5l0.1,0l-0.1,0c0,0.3,0,0.6,0,0.8c0,0.2,0,0.5,0,0.7v2.7
			c0,0.1,0,0.3,0,0.6c0,0.3,0,0.6,0,1c0,0.4,0,0.7,0,1c0,0.1,0,0.3,0,0.3c0,0,0,0.1,0,0.1c0,0,0,0,0,0l0,0l0,0l0,0h0l0,0l0,0l0,0
			c-0.1,0.2-0.2,0.3-0.4,0.4c-0.2,0.1-0.6,0.1-1,0.2l-0.1,0l0,0.1c0,0.1-0.1,0.2-0.1,0.3c0,0,0,0.1,0,0.1c0,0.1,0,0.1,0.1,0.2l0,0.1
			h5.4l0-0.1c0.1-0.1,0.1-0.2,0.1-0.3c0-0.1,0-0.1,0-0.2L598.4,161.7l-0.1,0c0,0,0,0,0,0.1c0,0,0,0.1-0.1,0.2l0.1,0.1v-0.1h-5.3v0.1
			l0.1-0.1c0,0,0-0.1,0-0.1c0,0,0,0,0-0.1c0-0.1,0-0.1,0-0.2l-0.1-0.1l0,0.1c0.5-0.1,0.8-0.1,1.1-0.2c0.3-0.1,0.5-0.3,0.6-0.5
			l-0.1-0.1l0.1,0.1c0-0.1,0-0.1,0.1-0.2c0-0.1,0-0.2,0-0.4c0-0.3,0-0.6,0-1c0-0.4,0-0.7,0-1c0-0.3,0-0.5,0-0.6v-2.7
			c0-0.2,0-0.5,0-0.7c0-0.2,0-0.5,0-0.8l0,0c0-0.4-0.2-0.7-0.5-0.8c-0.3-0.1-0.7-0.2-1.2-0.2l0,0.1l0.1-0.1c0-0.1-0.1-0.2-0.1-0.2
			c0,0,0,0,0,0l0,0l0,0l0,0l0,0l0,0l0,0c0,0,0.1-0.1,0.1-0.1l-0.1-0.1v0.1h5v-0.1l-0.1,0.1c0.1,0.1,0.1,0.1,0.1,0.1
			c0,0,0,0.1-0.1,0.2l0.1,0l0-0.1c-0.3,0-0.6,0.1-0.9,0.1c-0.3,0-0.6,0.2-0.7,0.5l0.1,0.1l-0.1-0.1c0,0.1-0.1,0.2-0.1,0.3
			c0,0.1,0,0.3,0,0.5c0,0.2,0,0.3,0,0.5c0,0.2,0,0.3,0,0.4v4.6c0,0.4,0,0.8,0.1,1.2c0.1,0.4,0.3,0.7,0.6,0.8c0.1,0,0.3,0.1,0.5,0.1
			C598,161.7,598.2,161.7,598.4,161.7l0-0.1l-0.1,0.1c0,0,0,0.1,0,0.1L598.4,161.7z M587.8,155.3l-0.1,0c-0.1,0.2-0.1,0.4-0.2,0.6
			c-0.1,0.2-0.2,0.3-0.4,0.4c-0.2,0.1-0.3,0.2-0.5,0.2l0,0.1l0-0.1c-0.2,0-0.4,0.1-0.7,0.1c-0.3,0-0.6,0-1,0c-0.1,0-0.2,0-0.2,0
			c-0.1,0-0.2,0-0.3,0l0,0.1h0.1v-3.6c0-0.1,0-0.2,0-0.2c0,0,0,0,0,0c0.1,0,0.3,0,0.5,0c0.3,0,0.6,0,0.9,0c0.2,0,0.5,0,0.6,0.1
			c0.2,0,0.3,0.1,0.5,0.2c0.1,0.1,0.3,0.2,0.4,0.4l0,0l0,0c0.1,0.2,0.2,0.3,0.3,0.5c0,0.2,0.1,0.4,0.1,0.6c0,0.2,0,0.4-0.1,0.6
			L587.8,155.3l0.1,0c0.1-0.2,0.1-0.5,0.1-0.7c0-0.3,0-0.5-0.1-0.7c-0.1-0.2-0.2-0.4-0.3-0.6l-0.1,0.1l0.1-0.1
			c-0.1-0.2-0.3-0.3-0.4-0.4c-0.2-0.1-0.3-0.2-0.6-0.3c-0.2-0.1-0.4-0.1-0.7-0.1c-0.3,0-0.6,0-0.9,0c-0.2,0-0.3,0-0.4,0
			c-0.1,0-0.2,0-0.3,0.1c-0.1,0.1-0.2,0.2-0.2,0.4v3.7l0.1,0c0.1,0,0.2,0,0.3,0c0.1,0,0.2,0,0.3,0c0.3,0,0.7,0,1,0
			c0.3,0,0.6,0,0.8-0.1l0,0h0c0.2-0.1,0.4-0.2,0.6-0.3c0.2-0.1,0.3-0.3,0.4-0.5c0.1-0.2,0.2-0.4,0.3-0.6L587.8,155.3z M591.5,161.6
			v-0.1c0,0-0.1,0-0.2,0c-0.1,0-0.2,0-0.3,0c-0.1,0-0.2,0-0.3-0.1c0,0-0.1,0-0.1,0c0,0,0,0,0,0l0,0l0,0l0,0h0l0,0l0,0l0,0l0,0
			c0,0-0.1,0-0.1-0.1c0-0.1-0.1-0.1-0.1-0.2l-0.1,0.1l0.1,0c-0.1-0.3-0.2-0.6-0.3-0.9s-0.2-0.5-0.3-0.8c-0.1-0.4-0.3-0.7-0.5-0.9
			c-0.2-0.2-0.3-0.5-0.5-0.6c-0.2-0.2-0.4-0.3-0.6-0.4c-0.3-0.1-0.6-0.2-1-0.3l0,0.1h0.1v-0.1h-0.1l0,0.1c1-0.1,1.8-0.4,2.2-0.9
			c0.4-0.5,0.7-1,0.7-1.6c0-0.6-0.2-1.1-0.5-1.6c-0.3-0.5-0.8-0.8-1.5-1l0,0.1l0-0.1c-0.2-0.1-0.5-0.1-0.9-0.1c-0.3,0-0.7,0-1.1,0
			c-0.6,0-1.1,0-1.5,0c-0.5,0-0.9,0-1.2,0c-0.1,0-0.3,0-0.5,0c-0.2,0-0.5,0-0.7,0c-0.3,0-0.5,0-0.8,0c-0.3,0-0.5,0-0.8,0h-0.1l0,0.1
			c0,0,0,0.1,0,0.1l0,0l0.1,0l0,0c0,0,0,0,0,0l0.1,0l0,0c-0.1,0.1-0.1,0.1-0.1,0.2c0,0.1,0,0.2,0.1,0.3l0,0.1l0.1,0
			c0.6,0,1,0.1,1.2,0.3c0.2,0.1,0.3,0.3,0.4,0.6c0,0.1,0.1,0.4,0.1,0.8c0,0.4,0,0.8,0,1.4v3.2c0,0.1,0,0.2,0,0.3c0,0.1,0,0.3,0,0.4
			c0,0.1,0,0.3,0,0.4c0,0.1,0,0.2,0,0.2l0,0l0,0c0,0.1-0.1,0.3-0.1,0.4c0,0.1-0.1,0.2-0.2,0.3c0,0-0.1,0.1-0.2,0.1
			c-0.1,0-0.2,0.1-0.4,0.1c-0.1,0-0.3,0-0.4,0.1c-0.1,0-0.3,0-0.4,0l-0.1,0l0,0.1c0,0.1,0,0.1-0.1,0.2c0,0,0,0.1,0,0.1
			c0,0,0,0.1,0,0.1c0,0.1,0,0.1,0.1,0.2l0,0.1h0.1c0.1,0,0.2,0,0.4,0c0.2,0,0.5,0,0.8,0c0.3,0,0.6,0,0.9,0c0.3,0,0.6,0,0.8,0
			c0.5,0,0.9,0,1.2,0c0.3,0,0.7,0,1.1,0h0.1l0-0.1c0,0,0-0.1,0-0.1l0,0l0,0l0,0l0,0l0,0l0,0l0,0c0.1-0.1,0.1-0.1,0.1-0.2
			c0-0.1-0.1-0.2-0.1-0.4l0-0.1l-0.1,0c-0.3,0-0.6-0.1-0.8-0.1c-0.2-0.1-0.3-0.2-0.4-0.3l0,0l0,0c-0.1-0.2-0.2-0.5-0.2-1v-2.6h0.2
			c0.2,0,0.4,0,0.6,0c0.2,0,0.4,0,0.6,0.1l0-0.1l0,0.1c0.2,0.1,0.5,0.2,0.7,0.5c0.2,0.2,0.4,0.4,0.5,0.6l0.1-0.1l-0.1,0.1
			c0.1,0.1,0.2,0.3,0.3,0.6c0.1,0.2,0.2,0.5,0.3,0.7c0.1,0.3,0.1,0.5,0.2,0.8c0.1,0.3,0.1,0.5,0.1,0.8c0,0.2,0.1,0.3,0.2,0.5
			c0.1,0.2,0.3,0.2,0.5,0.2l3,0l0-0.1c0-0.1,0-0.2,0-0.3c0-0.1,0-0.2-0.1-0.3l0-0.1h-0.1V161.6l-0.1,0.1c0,0.1,0,0.1,0,0.2
			c0,0,0,0.1,0,0.2l0.1,0l0-0.1l-2.9,0c-0.1,0-0.2,0-0.2-0.1c-0.1-0.1-0.1-0.2-0.1-0.4c0-0.2-0.1-0.5-0.2-0.8
			c-0.1-0.3-0.1-0.6-0.2-0.8c-0.1-0.3-0.2-0.5-0.3-0.8c-0.1-0.2-0.2-0.4-0.3-0.6l0,0c-0.1-0.2-0.3-0.4-0.5-0.6
			c-0.2-0.2-0.5-0.4-0.8-0.5h0c-0.2-0.1-0.5-0.1-0.7-0.1c-0.2,0-0.5,0-0.6,0h-0.5v2.9c0,0.5,0.1,0.9,0.3,1.2l0.1-0.1l-0.1,0.1
			c0.1,0.2,0.3,0.3,0.6,0.4c0.2,0.1,0.5,0.1,0.8,0.1l0-0.1l-0.1,0.1c0.1,0.1,0.1,0.2,0.1,0.2c0,0,0,0,0,0l0.1,0l0,0c0,0,0,0,0,0
			l0.1,0l0,0c-0.1,0.1-0.1,0.1-0.1,0.2l0.1,0.1v-0.1c-0.4,0-0.8,0-1.1,0c-0.3,0-0.7,0-1.2,0c-0.2,0-0.5,0-0.8,0c-0.3,0-0.6,0-0.9,0
			c-0.3,0-0.6,0-0.8,0c-0.2,0-0.4,0-0.4,0v0.1l0.1-0.1c0-0.1,0-0.1,0-0.1c0,0,0-0.1,0-0.1c0,0,0-0.1,0-0.1c0,0,0-0.1,0-0.1l-0.1-0.1
			l0,0.1c0.1,0,0.2,0,0.4,0c0.1,0,0.3,0,0.4-0.1c0.1,0,0.3-0.1,0.4-0.1c0.1,0,0.2-0.1,0.3-0.2c0.1-0.1,0.2-0.3,0.2-0.4
			c0-0.2,0.1-0.3,0.1-0.5l-0.1,0l0.1,0c0-0.1,0-0.2,0-0.3c0-0.1,0-0.2,0-0.4c0-0.1,0-0.3,0-0.4c0-0.1,0-0.2,0-0.3v-3.2
			c0-0.6,0-1.1,0-1.5c0-0.4-0.1-0.6-0.1-0.8c-0.1-0.3-0.2-0.6-0.5-0.8c-0.3-0.2-0.7-0.3-1.3-0.3l0,0.1l0.1-0.1c0,0,0-0.1,0-0.2
			c0,0,0,0,0,0l-0.1,0l0.1,0.1c0,0,0,0,0,0l-0.1,0l0.1,0.1c0,0,0-0.1,0.1-0.1c0,0,0-0.1,0-0.1l-0.1-0.1v0.1c0.2,0,0.5,0,0.8,0
			c0.3,0,0.6,0,0.8,0c0.3,0,0.5,0,0.7,0c0.2,0,0.4,0,0.5,0c0.4,0,0.8,0,1.2,0c0.5,0,1,0,1.5,0c0.4,0,0.7,0,1.1,0
			c0.3,0,0.6,0.1,0.8,0.1l0,0l0,0c0.6,0.2,1.1,0.5,1.3,0.9c0.3,0.4,0.4,0.9,0.4,1.4c0,0.6-0.2,1-0.6,1.4c-0.4,0.4-1.1,0.7-2.1,0.8
			l-0.1,0v0.4l0.1,0c0.4,0.1,0.7,0.2,0.9,0.3c0.2,0.1,0.4,0.3,0.5,0.4c0.2,0.2,0.3,0.4,0.5,0.6c0.1,0.2,0.3,0.5,0.4,0.9
			c0.1,0.3,0.2,0.5,0.3,0.8c0.1,0.3,0.2,0.5,0.3,0.8l0,0l0,0c0,0.1,0.1,0.1,0.1,0.2c0.1,0.1,0.1,0.1,0.2,0.2l0.1-0.1l-0.1,0.1
			c0.1,0,0.1,0,0.2,0.1c0.1,0,0.2,0,0.3,0c0.1,0,0.2,0,0.3,0.1c0.1,0,0.2,0,0.2,0V161.6l-0.1,0.1L591.5,161.6z M579.5,151.2l0.1,0
			l-0.2-3.1l0,0c0-0.1,0-0.2,0-0.3c0,0,0-0.1-0.1-0.1l0-0.1l-0.1,0c-0.1,0-0.2,0-0.4,0c-0.2,0-0.4,0-0.6,0c-0.2,0-0.3,0-0.5,0
			s-0.4,0-0.6,0c-0.2,0-0.5,0-0.8,0c-0.3,0-0.7,0-1.1,0c-1.2,0-2.1,0-2.7,0c-0.6,0-0.9,0-1,0c-0.2,0-0.5,0-0.8,0c-0.3,0-0.7,0-1,0
			c-0.3,0-0.7,0-1,0c-0.3,0-0.6,0-0.9,0h-0.1l0,0.1c0,0,0,0.1-0.1,0.1c-0.1,0.1-0.1,0.1-0.1,0.2c0,0.1,0,0.3,0.1,0.4l0,0.1l0.1,0
			c0.3,0,0.6,0.1,0.9,0.1c0.3,0,0.5,0.1,0.6,0.1l0.1-0.1l-0.1,0.1c0.2,0.2,0.3,0.4,0.4,0.5c0.1,0.2,0.2,0.4,0.2,0.6l0,0
			c0,0.1,0,0.4,0.1,0.7c0,0.3,0,0.7,0,1.3v7.7h0.1l-0.1,0c-0.1,0.5-0.1,1-0.2,1.2c-0.1,0.3-0.2,0.5-0.3,0.7l0.1,0.1l0-0.1
			c-0.2,0-0.5,0.1-0.9,0.1c-0.4,0.1-0.7,0.1-1,0.1l-0.1,0l0,0.1c-0.1,0.1-0.1,0.2-0.1,0.3c0,0.1,0,0.2,0.1,0.3l0,0.1h0.9
			c0.6,0,1.1,0,1.6,0c0.5,0,0.9,0,1.3,0c0.2,0,0.4,0,0.7,0c0.3,0,0.5,0,0.8,0c0.3,0,0.5,0,0.8,0c0.3,0,0.5,0,0.7,0h0.6l0-0.1
			c0-0.1,0.1-0.1,0.1-0.2c0,0,0-0.1,0-0.1c0-0.1,0-0.2-0.1-0.3l0-0.1h-0.1c-0.1,0-0.2,0-0.3,0c-0.2,0-0.3,0-0.5-0.1
			c-0.2,0-0.3,0-0.5,0c-0.1,0-0.2,0-0.3,0l0,0.1l0.1-0.1c-0.1-0.1-0.3-0.2-0.4-0.4c-0.1-0.2-0.3-0.5-0.4-0.8l-0.1,0h0.1
			c0-0.1,0-0.3,0-0.5c0-0.2,0-0.5,0-0.7c0-0.3,0-0.6,0-0.8c0-0.3,0-0.6,0-0.8h-0.1l0.1,0c0-0.4,0-0.8,0-1.1s0-0.5,0-0.6
			c0-0.2,0-0.3,0-0.3c0-0.1,0-0.1,0-0.2l-0.1,0l0,0.1c0.2,0,0.4-0.1,0.6-0.1c0.4,0,0.8,0,1.1,0.1c0.3,0.1,0.5,0.1,0.5,0.2l0,0l0,0
			c0.3,0.2,0.5,0.4,0.6,0.7c0.1,0.2,0.2,0.5,0.2,0.7c0,0.2,0.1,0.4,0.1,0.6c0,0.2,0,0.3,0.1,0.4l0,0.1l0.1,0c0,0,0.1,0,0.1,0
			c0,0,0,0,0.1,0c0,0,0.1,0,0.1,0c0.2,0,0.3,0,0.4-0.1l0,0v-0.8c0-0.1,0-0.3,0-0.5c0-0.2,0-0.4,0-0.6s0-0.4,0-0.6c0-0.2,0-0.3,0-0.5
			c0-0.1,0-0.3,0-0.5c0-0.2,0-0.5,0-0.7c0-0.3,0-0.5,0-0.8c0-0.3,0-0.5,0-0.8v-0.1l-0.1,0c-0.1,0-0.1-0.1-0.2-0.1
			c-0.1,0-0.1,0-0.2,0c-0.1,0-0.1,0-0.2,0c0,0-0.1,0-0.1,0l-0.1,0l0,0.1c0,0.1,0,0.2-0.1,0.4c0,0.2,0,0.3-0.1,0.5
			c0,0.2-0.1,0.3-0.1,0.5c-0.1,0.2-0.1,0.3-0.2,0.4l0,0c-0.1,0.1-0.2,0.2-0.4,0.3c-0.2,0.1-0.3,0.2-0.5,0.2
			c-0.2,0.1-0.4,0.1-0.5,0.1c-0.2,0-0.4,0-0.5,0c-0.2,0-0.4,0-0.5,0c-0.1,0-0.2,0-0.4,0l0,0.1h0.1v-5.7c0-0.1,0-0.1,0-0.2
			c0,0,0,0,0,0l0,0l0,0l0,0l0,0l0,0l0,0l-0.1,0l0,0.1l0,0l-0.1,0l0,0.1l0,0l0,0l0,0l0,0l0,0c0,0,0.1,0,0.2,0l3.4,0
			c0.3,0,0.5,0.1,0.6,0.2l0,0c0.1,0.1,0.3,0.2,0.5,0.4c0.2,0.1,0.3,0.3,0.5,0.5c0.2,0.2,0.4,0.5,0.6,0.8c0.2,0.3,0.4,0.7,0.6,1.1
			l0,0.1l0.1,0c0.1,0,0.1,0,0.2,0c0,0,0.1,0,0.1,0c0.1,0,0.2,0,0.3-0.1c0,0,0,0,0,0c0,0,0,0,0.1,0l0.1,0l0-0.1L579.5,151.2l-0.1-0.1
			c-0.1,0-0.1,0.1-0.1,0.1l0.1,0.1l0-0.1c0,0,0,0,0,0l0.1,0.1l0-0.1l0,0v0l0,0l0,0v0c0,0,0,0-0.1,0c0,0-0.1,0-0.1,0c0,0-0.1,0-0.1,0
			l0,0.1l0.1-0.1c-0.2-0.4-0.4-0.8-0.6-1.1c-0.2-0.3-0.4-0.6-0.6-0.8c-0.2-0.2-0.4-0.4-0.5-0.5c-0.2-0.1-0.3-0.3-0.5-0.4l-0.1,0.1
			l0.1-0.1c-0.2-0.1-0.5-0.2-0.8-0.2l-3.4,0c-0.1,0-0.2,0-0.2,0c-0.1,0-0.1,0-0.2,0.1c-0.1,0.1-0.1,0.2-0.1,0.4v5.8l0.1,0
			c0.2,0,0.3,0,0.4,0c0.1,0,0.3,0,0.5,0c0.2,0,0.3,0,0.5,0c0.2,0,0.4-0.1,0.6-0.1c0.2-0.1,0.4-0.1,0.6-0.2c0.2-0.1,0.3-0.2,0.5-0.4
			l-0.1-0.1l0.1,0.1c0.1-0.1,0.2-0.3,0.3-0.5c0.1-0.2,0.1-0.4,0.1-0.5c0-0.2,0-0.3,0.1-0.5c0-0.2,0-0.3,0-0.4l-0.1,0l0,0.1
			c0,0,0.1,0,0.1,0c0,0,0,0,0.1,0c0.1,0,0.1,0,0.1,0c0,0,0.1,0,0.1,0l0.1-0.1h-0.1c0,0.2,0,0.5,0,0.8c0,0.3,0,0.6,0,0.8
			c0,0.3,0,0.5,0,0.7c0,0.2,0,0.4,0,0.5s0,0.3,0,0.5c0,0.2,0,0.4,0,0.6c0,0.2,0,0.4,0,0.6c0,0.2,0,0.4,0,0.5v0.7h0.1l-0.1-0.1
			c0,0-0.1,0-0.2,0c-0.1,0-0.1,0-0.1,0v0.1l0-0.1c0,0,0,0,0,0v0.1l0-0.1c0,0,0,0-0.1,0l-0.1,0.1l0.1,0c0-0.1,0-0.2-0.1-0.4
			c0-0.2-0.1-0.4-0.1-0.6c0-0.3-0.1-0.5-0.3-0.8c-0.2-0.3-0.4-0.5-0.7-0.7l-0.1,0.1l0.1-0.1c-0.1-0.1-0.4-0.2-0.7-0.3
			c-0.3-0.1-0.7-0.1-1.1-0.1c-0.2,0-0.4,0-0.6,0.1l-0.1,0l0,0.1c0,0.1,0,0.1,0,0.2c0,0.1,0,0.2,0,0.4c0,0.2,0,0.4,0,0.6
			c0,0.3,0,0.6,0,1.1v0v0c0,0.3,0,0.5,0,0.8c0,0.3,0,0.6,0,0.9s0,0.5,0,0.7c0,0.2,0,0.4,0,0.5v0l0,0c0.1,0.4,0.2,0.7,0.4,0.9
			c0.2,0.2,0.4,0.4,0.5,0.5l0,0l0,0c0.1,0,0.2,0,0.3,0c0.1,0,0.3,0,0.5,0.1c0.2,0,0.3,0,0.5,0c0.2,0,0.3,0,0.4,0v-0.1l-0.1,0.1
			c0,0.1,0,0.2,0,0.2c0,0,0,0.1,0,0.1c0,0,0,0.1,0,0.1l0.1,0.1v-0.1h-0.5c-0.2,0-0.4,0-0.7,0c-0.3,0-0.5,0-0.8,0c-0.3,0-0.5,0-0.8,0
			c-0.3,0-0.5,0-0.7,0c-0.4,0-0.9,0-1.4,0c-0.5,0-1,0-1.6,0h-0.8v0.1l0.1-0.1c-0.1-0.1-0.1-0.1-0.1-0.2c0-0.1,0-0.1,0.1-0.2
			l-0.1-0.1l0,0.1c0.3,0,0.7-0.1,1-0.1c0.4-0.1,0.7-0.1,0.9-0.1l0.1,0l0-0.1c0.2-0.2,0.3-0.5,0.4-0.8c0.1-0.3,0.2-0.7,0.2-1.3l0,0
			v-7.7c0-0.5,0-1,0-1.3c0-0.3,0-0.6-0.1-0.7l-0.1,0l0.1,0c0-0.3-0.1-0.5-0.3-0.7c-0.1-0.2-0.3-0.4-0.5-0.6l0,0l0,0
			c-0.2-0.1-0.4-0.2-0.7-0.2c-0.3,0-0.6-0.1-0.9-0.1l0,0.1l0.1-0.1c0,0,0-0.1,0-0.2c0,0,0,0,0-0.1l0,0l0,0l0,0l0,0l0,0l0,0
			c0,0,0.1-0.1,0.1-0.1l-0.1-0.1v0.1c0.3,0,0.6,0,0.9,0c0.3,0,0.7,0,1,0c0.3,0,0.7,0,1,0c0.3,0,0.6,0,0.8,0c0.1,0,0.4,0,1,0
			c0.6,0,1.5,0,2.7,0c0.5,0,0.8,0,1.1,0c0.3,0,0.6,0,0.8,0c0.2,0,0.4,0,0.6,0s0.3,0,0.5,0c0.2,0,0.4,0,0.6,0c0.2,0,0.3,0,0.4,0
			l0-0.1l-0.1,0.1c0,0.1,0,0.1,0.1,0.1c0,0,0,0.1,0,0.2l0.1,0l-0.1,0l0.2,3.1L579.5,151.2l-0.1-0.1L579.5,151.2z"/>
	</g>
	<g>
		<path fill="#FFFFFF" d="M562.1,148.8L562.1,148.8L562.1,148.8c-0.2-0.7-0.7-1.1-1.4-1.1v1h0l0,14.3c0,0-2-0.6-3.8-1.4
			c-2.1-0.9-3.8,0.1-3.9,0.2v0c0,0,0,0,0,0c0,0,0,0,0,0v0c-0.2-0.1-1.8-1.1-3.9-0.2c-1.8,0.8-3.8,1.4-3.8,1.4l0-14.3h0v-1.1
			c-0.6,0-1.2,0.5-1.3,1.1h0v0.2c0,0,0,0,0,0s0,0,0,0v15.3h18.1v-15c0-0.1,0-0.2,0-0.2S562.1,148.9,562.1,148.8z"/>
		<g>
			<path fill="#FFFFFF" d="M548.5,156.8c0.4,0.8,0.9,1.5,1.4,2.1l3.1-3l3.1,3c0.5-0.7,1-1.4,1.4-2.1l-4.5-4.3L548.5,156.8z"/>
			<path fill="#FFFFFF" d="M559.6,147.6c-0.5,0.2-1.1,0.2-1.7,0.2c-2.1,0-3.9-1.1-4.8-2.7c-1,1.6-2.8,2.7-4.8,2.7
				c-0.6,0-1.1-0.1-1.7-0.2c-0.1,1.6,0,3.1,0.3,4.6h12.5C559.6,150.7,559.7,149.1,559.6,147.6"/>
		</g>
	</g>
</g>
</svg>
