<?xml version="1.0" encoding="utf-8"?>
<!-- Generator: Adobe Illustrator 15.1.0, SVG Export Plug-In . SVG Version: 6.00 Build 0)  -->
<!DOCTYPE svg PUBLIC "-//W3C//DTD SVG 1.1//EN" "http://www.w3.org/Graphics/SVG/1.1/DTD/svg11.dtd">
<svg version="1.1" id="Layer_1" xmlns="http://www.w3.org/2000/svg" xmlns:xlink="http://www.w3.org/1999/xlink" x="0px" y="0px"
	 width="32px" height="32px" viewBox="0 0 32 32" enable-background="new 0 0 32 32" xml:space="preserve">
<g>
	<path id="path3417" fill="#002C64" d="M15.1,30.2c-1.2-0.1-1.9-0.2-2.7-0.4c-2.8-0.7-5.1-2.1-7.2-4.1c-3-3-4.8-6.9-5.1-11.5
		C0,13.6,0,10.8,0,7.5V1.8h16h16l0,0.4c0.1,0.7,0.1,11,0,11.9c-0.3,3.1-0.9,5.4-2.3,7.8c-2.6,4.8-7.2,7.8-12.3,8.3
		C16.6,30.2,15.7,30.3,15.1,30.2z"/>
	<path id="path3415" fill="#FFFFFF" d="M17.2,29.5c1.8-0.1,4.4-1,6-1.9c2.7-1.6,4.9-3.9,6.3-6.9c0.8-1.6,1.2-4,1.2-7
		c0-1.4,0-1.7-0.2-2.6c-0.5-2.7-1.8-5.2-3.7-7c-0.4-0.4-0.5-0.5-0.5-0.8c0-0.5,0-0.5-3.5-0.5c-2.7,0-3.2,0-3.4,0.1
		c-0.4,0.2-0.5,0.7-0.1,0.7c0.4,0,0.7,0.1,1,0.3c0.4,0.3,0.7,0.3,1.2,0.1c0.5-0.2,0.7-0.2,0.9,0c0.1,0.1,0.2,0.2,0.2,0.5
		c0,0.4-0.1,0.5-0.7,0.5c-0.5,0-0.9-0.2-1.7-0.7c-0.6-0.4-0.8-0.4-2.2,0c-1.1,0.3-1.2,0.4-1.3,0.6c-0.3,0.4-0.3,0.8,0,1.6
		C16.9,6.9,17,7.3,17,7.4c0,0.1,0.1,0.2,0.2,0.2c0.2,0,0.2,0,0.4-0.2C17.8,7,18.2,7,18.7,7.1c0.8,0.2,1.4,0.5,2.3,1.4
		c0.5,0.5,1.1,1.9,1.2,3.2c0.1,0.9,0.1,2.3-0.1,3.1c-0.5,2-1.7,3.9-3.2,4.9c-0.3,0.2-1.2,0.7-1.6,0.8c-0.5,0.2-1.8,0.2-2.4,0.1
		c-1.2-0.3-2.7-1.3-3.6-2.5c-0.3-0.4-0.7-1.4-0.8-2.2c-0.1-0.7,0-1.9,0.1-2.4c0.4-1.4,1.6-2.7,3.2-3.5c0.9-0.4,1.1-0.7,1-1.3
		c-0.1-0.4-0.3-0.7-0.6-1l-0.3-0.2l-6.6,0l-6.6,0l0,1.3l0,1.3l0.3,0.2l0.3,0.2h4c2.2,0,4,0,4,0S9.1,10.7,8.9,11
		c-1,1.8-1.3,3.8-0.8,6c0.2,0.8,0.9,2.2,1.6,3.2c1.1,1.4,2.8,2.5,4.4,2.8c0.8,0.2,2.1,0.2,3,0.1l0.5-0.1l-0.3,0.4
		c-0.5,0.7-1,2-1.2,3.5c-0.1,0.8-0.5,1.8-0.8,2.2c-0.1,0.2-0.2,0.3-0.2,0.4c0,0,0.2,0.1,0.5,0.1c0.3,0,0.6,0,0.7,0
		C16.3,29.6,16.8,29.6,17.2,29.5z"/>
	<path id="path3413" fill="#FFFFFF" d="M14,29.2c0.3-0.1,0.7-0.5,0.9-0.8c0.1-0.2,0.2-0.7,0.3-1.2c0.2-0.9,0.5-1.7,0.9-2.6
		c0.1-0.3,0.2-0.5,0.2-0.5c0,0-0.2,0-0.4,0c-0.2,0-0.7-0.1-1-0.1c-0.3-0.1-0.7-0.1-0.8-0.1c-0.4,0.1-1.5,1.3-2.3,2.5
		c-0.4,0.6-1,1.1-1.8,1.4C9.7,27.8,9.5,28,9.6,28c0.1,0.2,1.8,0.8,3.3,1.1C13.7,29.3,13.7,29.3,14,29.2z"/>
	<path id="path3411" fill="#FFFFFF" d="M9.4,27.1c0.8-0.4,1.2-0.8,1.6-1.5c0.5-0.7,0.7-1,1.5-1.6c0.3-0.2,0.5-0.4,0.5-0.4
		c0,0-0.2-0.1-0.3-0.2c-0.4-0.2-1.1-0.6-1.7-1c-0.4-0.3-0.8-0.3-1.5-0.1c-0.4,0.1-1.6,0.7-2.2,1.1c-0.9,0.6-1.5,0.8-2.1,0.8
		c-0.2,0-0.5,0-0.5,0c0,0.3,0.9,1.2,2.1,2c1.1,0.8,1.6,1.1,1.9,1.1C8.8,27.4,9.1,27.3,9.4,27.1z"/>
	<path id="path3409" fill="#FFFFFF" d="M5.4,23.5c0.1-0.1,0.5-0.3,0.8-0.5c1.2-0.8,2.4-1.3,3.2-1.4c0.3,0,0.5-0.1,0.5-0.1
		c0,0-1.8-2.3-2-2.6c-0.4-0.5-1.6-0.5-2.6,0c-0.7,0.3-1.5,0.5-2.3,0.5c-0.5,0-0.8,0-0.9-0.1c-0.2-0.1-0.2-0.1-0.2,0
		c0,0.2,1.5,3.2,1.8,3.5C4.2,23.5,4.8,23.8,5.4,23.5z"/>
	<path id="path3407" fill="#FFFFFF" d="M2.9,18.7C4.3,18.4,6,18.1,6.4,18c0.3,0,0.5,0,0.7,0.1c0.1,0.1,0.2,0.1,0.3,0.1
		c0,0,0-0.2-0.1-0.4C7.2,17.6,7.1,17,7,16.5c-0.1-0.5-0.1-0.9-0.2-1c0-0.1-0.2-0.2-0.4-0.3C6.1,15,6,15,3.8,15
		c-2.1,0-2.4-0.1-2.6-0.2c-0.2-0.1-0.3-0.1-0.4-0.1c0,0,0.2,1.5,0.4,3c0.1,0.7,0.2,0.8,0.4,1C1.9,18.8,2.2,18.9,2.9,18.7z"/>
	<path id="path3405" fill="#FFFFFF" d="M15.6,18.3c0.3-0.3,0.8-0.3,1.1,0c0.1,0.1,0.2,0.1,1.6,0.1l1.5,0l0-3.3l0-3.3h-0.5h-0.5v-0.6
		c0-0.7,0-0.7-0.8-0.5c-0.6,0.2-1.1,0.4-1.5,0.8l-0.3,0.3l-0.3-0.3c-0.4-0.4-0.9-0.7-1.5-0.8c-0.8-0.2-0.7-0.2-0.8,0.5l0,0.6l-0.5,0
		l-0.5,0v3.2c0,1.8,0,3.2,0,3.3c0,0,0.7,0,1.5,0h1.4L15.6,18.3z"/>
	<path id="path3403" fill="#C30035" d="M13.2,15.3c0-2.5,0-2.6,0.1-2.6c0.1,0,0.1,0,0.1,2.2v2.2h0.4c0.2,0,0.5,0.1,0.7,0.1
		c0.3,0.1,1.2,0.6,1.2,0.6c0,0-0.6,0-1.3,0h-1.3V15.3z"/>
	<path id="path3401" fill="#C30035" d="M16.6,17.7c0.7-0.4,1.1-0.6,1.6-0.6l0.5,0l0-2.2l0-2.2h0.2h0.2v2.6v2.6l-1.4,0l-1.4,0
		L16.6,17.7z"/>
	<path id="path3399" fill="#C30035" d="M15.6,16.8c-0.3-0.2-1-0.5-1.2-0.5h-0.2V14v-2.3l0.3,0.1c0.4,0.1,0.9,0.4,1.1,0.6l0.2,0.2
		l0,2.1C15.7,16.9,15.7,16.9,15.6,16.8z"/>
	<path id="path3397" fill="#C30035" d="M16.6,14.8c0-1.9,0-2.2,0.1-2.3c0.2-0.3,0.7-0.6,1.1-0.7l0.3-0.1V14v2.3h-0.2
		c-0.2,0-0.8,0.3-1.1,0.5l-0.2,0.1V14.8z"/>
	<path id="path3393" fill="#FFFFFF" d="M6.9,14.3c0-0.3,0.2-1.4,0.3-1.8c0.1-0.3,0.1-0.4,0-0.7c-0.2-0.6-0.1-0.6-3.1-0.6l-2.6,0
		L1,11l-0.5-0.2l0,0.6c0.1,1.2,0.3,2.2,0.4,2.4c0.1,0.1,0.2,0.3,0.3,0.3c0.1,0.1,0.9,0.1,2.4,0.1c2.3,0,2.9,0.1,3.1,0.3
		C6.8,14.6,6.9,14.5,6.9,14.3z"/>
</g>
</svg>
