<?xml version="1.0" encoding="utf-8"?>
<!-- Generator: Adobe Illustrator 23.1.1, SVG Export Plug-In . SVG Version: 6.00 Build 0)  -->
<svg version="1.1" id="Layer_1" xmlns="http://www.w3.org/2000/svg" xmlns:xlink="http://www.w3.org/1999/xlink" x="0px" y="0px"
	 viewBox="0 0 24 24" style="enable-background:new 0 0 24 24;" xml:space="preserve">
<style type="text/css">
	.st0{fill:#FFFFFF;}
</style>
<path class="st0" d="M8.9,12c0-1.7,1.4-3.1,3.1-3.1s3.1,1.4,3.1,3.1s-1.4,3.1-3.1,3.1S8.9,13.7,8.9,12z M16.9,11.3
	c0,0.2,0.1,0.5,0.1,0.7c0,2.7-2.2,4.9-4.9,4.9S7.1,14.7,7.1,12c0-0.2,0-0.5,0.1-0.7c0-0.2,0.1-0.4,0.1-0.6H6v6.7
	C6,17.7,6.3,18,6.6,18h10.8c0.3,0,0.6-0.3,0.6-0.6v-6.7h-1.3C16.8,10.9,16.8,11.1,16.9,11.3z M17.4,6h-1.4c-0.3,0-0.6,0.3-0.6,0.6
	v1.4c0,0.3,0.3,0.6,0.6,0.6h1.4c0.3,0,0.6-0.3,0.6-0.6V6.6C18,6.3,17.7,6,17.4,6z M24,5v14c0,2.8-2.2,5-5,5H5c-2.8,0-5-2.2-5-5V5
	c0-2.8,2.2-5,5-5h14C21.8,0,24,2.2,24,5z M20,5.8c0-1-0.8-1.8-1.8-1.8H5.8C4.8,4,4,4.8,4,5.8v12.3c0,1,0.8,1.8,1.8,1.8h12.3
	c1,0,1.8-0.8,1.8-1.8C20,18.2,20,5.8,20,5.8z"/>
</svg>
