<?xml version="1.0" encoding="utf-8"?>
<!-- Generator: Adobe Illustrator 15.1.0, SVG Export Plug-In . SVG Version: 6.00 Build 0)  -->
<!DOCTYPE svg PUBLIC "-//W3C//DTD SVG 1.1//EN" "http://www.w3.org/Graphics/SVG/1.1/DTD/svg11.dtd">
<svg version="1.1" id="Layer_1" xmlns="http://www.w3.org/2000/svg" xmlns:xlink="http://www.w3.org/1999/xlink" x="0px" y="0px"
	 width="452.179px" height="16.168px" viewBox="34.927 5.373 452.179 16.168" enable-background="new 34.927 5.373 452.179 16.168"
	 xml:space="preserve">
<path fill="#FFFFFF" d="M384.627,20.362c-0.041,0.596-0.061,0.658-0.447,0.658c-0.443,0-3.316,0.064-6.213,0.064
	c-1.658,0-2.957-0.021-4.297-0.021c-0.914,0-2.426,0.064-3.17,0.064h-0.426c-0.043-0.086-0.064-0.277-0.064-0.361
	c0-0.108,0.043-0.3,0.064-0.383c0.51-0.15,1.426-0.363,1.957-0.617c0.17-0.299,0.277-0.938,0.297-1.703
	c0-0.361,0.023-1.168,0.023-2.852c0-0.682-0.043-2.681-0.107-5.51c-0.021-1.087-0.064-1.914-0.127-2.126
	c-0.107-0.32-0.277-0.682-0.703-0.873c-0.34-0.086-0.83-0.065-1.34-0.193c-0.043-0.084-0.064-0.318-0.064-0.425
	c0-0.148,0.043-0.255,0.107-0.339l8.021-0.022c0.064,0.043,0.084,0.256,0.084,0.361c0,0.106-0.02,0.32-0.084,0.384
	c-0.98,0.041-2.191,0.021-2.191,1.617v2.424l0.127,7.958c0,0.404,0.383,1,0.682,1.256c0.424,0.36,0.938,0.553,1.809,0.553
	c1.232,0,1.639-0.256,2.598-0.743c1.189-0.617,2.041-1.999,2.658-3.49c0.105-0.043,0.318-0.063,0.426-0.063
	c0.17,0,0.297,0.021,0.426,0.106c0.021,0.81,0.021,2.087,0.021,2.34C384.694,19.042,384.67,19.703,384.627,20.362z"/>
<path fill="#FFFFFF" d="M395.44,21.063h-0.703c-0.699,0-2.914-0.062-3.232-0.062c-1.105,0-3.236,0.105-4.088,0.105h-0.359
	c0-0.105-0.043-0.191-0.043-0.361c0-0.087,0.021-0.36,0.064-0.446c1.551-0.104,1.809-0.489,2.062-0.702
	c0.148-0.277,0.254-0.767,0.299-1.275c0.02-0.745,0.062-2.129,0.062-2.746c0-1.234-0.02-2.722-0.043-3.786
	c-0.02-1.959-0.043-2.828-0.064-3.233c-0.086-1.15-0.445-1.616-0.699-1.808c-0.148-0.108-0.619-0.214-1.66-0.3
	c-0.021-0.106-0.043-0.318-0.043-0.404c0-0.191,0.043-0.275,0.104-0.362h0.473c0.934,0.022,3.02,0.087,3.467,0.087
	c0.725,0,2.809-0.107,3.701-0.107h0.619c0.039,0.043,0.104,0.214,0.104,0.34c0,0.086-0.02,0.32-0.062,0.406
	c-0.682,0.084-1.488,0.17-1.895,0.553c-0.15,0.127-0.383,0.575-0.383,1.148v5.233c0,1.979,0.021,4.084,0.043,5.104
	c0.148,0.767,0.381,1.234,0.723,1.64c0.383,0.087,1.254,0.171,1.574,0.19c0.043,0.086,0.064,0.32,0.064,0.428
	C395.526,20.79,395.502,20.958,395.44,21.063z"/>
<path fill="#FFFFFF" d="M412.887,20.085c-0.959,0.896-2.129,1.044-3.66,1.021l-6.428-0.086c-0.572,0-2.424,0.043-3.02,0.043
	c-0.402,0-0.785,0-0.871-0.021c-0.041-0.085-0.064-0.298-0.064-0.385c0-0.082,0.023-0.273,0.107-0.426
	c1.232,0,2.172-0.233,2.256-0.553c0.127-0.445,0.256-1.188,0.318-1.871c0.021-0.574,0.062-2.297,0.062-4.276
	c0-1.787-0.105-4.764-0.127-4.978c-0.02-0.32-0.062-0.682-0.129-0.957c-0.105-0.404-0.402-0.873-1-0.959
	c-0.51-0.062-1.191-0.148-1.51-0.191c-0.043-0.127-0.064-0.296-0.064-0.382c0-0.128,0.021-0.234,0.084-0.341
	c0.107-0.021,0.342-0.021,0.516-0.021h5.043c1.297,0,2.764-0.063,3.637-0.063c1.17,0,2.213,0.148,2.83,0.446
	c1.424,0.661,2.061,1.83,2.061,3.47c0,1.339-0.51,2.318-1.402,2.722c-0.275,0.127-1.064,0.341-1.445,0.445
	c-0.107,0.022-0.385,0.087-0.385,0.171c0,0.129,0.361,0.149,0.619,0.193c0.338,0.063,1.297,0.254,1.551,0.361
	c0.385,0.147,1.277,0.744,1.682,1.51c0.363,0.64,0.555,1.362,0.555,2.171C414.1,18.341,413.672,19.342,412.887,20.085z
	 M409.93,15.213c-0.617-1.106-1.256-1.383-2.512-1.66c-0.297-0.062-0.789-0.147-1.428-0.147c-0.445,0-0.807,0.021-0.871,0.106
	c0,0.041-0.021,0.298-0.021,0.723V18c0,0.616,0.021,0.769,0.064,1.021c0.215,0.469,0.617,0.873,1.064,1.174
	c0.17,0.039,0.658,0.062,0.895,0.062c1.254,0,1.701-0.233,2.318-0.853c0.553-0.596,0.85-1.467,0.85-2.699
	C410.292,16.127,410.165,15.617,409.93,15.213z M408.844,7.768c-0.34-0.639-0.83-1-1.488-1.149
	c-0.301-0.085-0.727-0.128-1.215-0.128c-0.273,0-0.615,0.021-0.936,0.021c-0.021,0.661-0.064,3.299-0.064,3.299
	c0,0.744,0,1.297,0,1.683c0,0.592,0.021,0.999,0.064,1.04c0.021,0.043,0.299,0.043,0.617,0.043c0.873,0,2.254-0.234,2.51-0.448
	c0.107-0.082,0.234-0.211,0.361-0.445c0.385-0.637,0.574-1.34,0.574-2.085C409.268,8.937,409.122,8.298,408.844,7.768z"/>
<path fill="#FFFFFF" d="M433.633,21.086c-0.531,0-2.553,0-3.041,0c-0.809,0-1.936-0.043-2.104-0.065
	c-0.406-0.039-0.574-0.424-0.643-0.871c-0.211-1.553-0.656-3.51-1.34-4.574c-0.51-0.787-0.893-1.105-1.68-1.553
	c-0.533-0.298-0.854-0.339-1.129-0.339c-0.17,0-0.383,0-0.553,0.021l0.021,4.913c0,0.743,0.383,1.258,0.914,1.513
	c0.234,0.043,0.766,0.17,1.193,0.213c0.043,0.086,0.084,0.297,0.084,0.448c0,0.082-0.041,0.229-0.084,0.315
	c-1.215,0-2.363-0.062-3.727-0.062c-0.68,0-3.936,0.062-4.232,0.062c-0.043-0.104-0.084-0.276-0.084-0.338
	c0-0.109,0.039-0.318,0.105-0.427c0.424-0.022,0.934-0.108,1.209-0.147c0.619-0.256,0.812-0.896,0.875-1.426
	c0.105-0.81,0.084-3.32,0.084-5.493c0-2.999-0.02-4.743-0.127-5.421c-0.213-0.471-0.383-0.769-0.895-1.15
	c-0.34-0.065-1-0.15-1.361-0.193c-0.021-0.084-0.043-0.298-0.043-0.382c0-0.086,0.043-0.255,0.105-0.404
	c0.129,0,0.938,0.043,1.258,0.043c0.744,0,2.594,0.041,2.914,0.041c1.062,0,3.299-0.148,4.893-0.148
	c1.129,0,2.045,0.087,2.555,0.234c1.555,0.491,2.658,2.148,2.658,3.872c0,1.148-0.467,2.127-1.318,2.766
	c-0.402,0.32-0.766,0.596-2.342,0.786c-0.4,0.044-0.553,0.066-0.871,0.13c0.258,0.104,0.531,0.213,0.871,0.339
	c0.746,0.257,1.406,0.534,1.6,0.704c0.51,0.467,1.127,1.469,1.572,2.529c0.318,0.81,0.639,1.471,0.914,2.447
	c0.086,0.148,0.256,0.405,0.361,0.53c0.32,0.233,1.191,0.276,1.406,0.276c0.062,0.086,0.105,0.344,0.105,0.449
	C433.762,20.829,433.719,21.001,433.633,21.086z M427.102,7.639c-0.596-1-1.318-1.148-2.979-1.148c-0.449,0-0.83,0.063-0.895,0.128
	c-0.062,0.063-0.127,0.211-0.127,0.468v3.915l0.021,1.809c0.256,0.043,0.574,0.043,0.789,0.043c0.785,0,1.314-0.063,1.744-0.171
	c1.041-0.255,1.936-1.767,1.936-3.085C427.592,8.873,427.444,8.214,427.102,7.639z"/>
<path fill="#FFFFFF" d="M451.975,21.086c-1.383,0-3.086-0.065-4.402-0.065c-0.811,0-1.744,0.043-2.107,0.043h-1.596
	c-0.105-0.082-0.127-0.295-0.148-0.383c0-0.084,0.021-0.254,0.127-0.382c0.832-0.043,1.277-0.127,1.574-0.276
	c0.193-0.213,0.297-0.619,0.297-1.041c-0.084-0.32-0.254-0.83-0.551-1.682c-0.17-0.512-0.342-0.938-0.488-1.3
	c-0.086-0.147-0.277-0.487-0.447-0.617c-0.895,0.021-3.277-0.019-4.768,0.044c-0.127,0.233-0.234,0.51-0.318,0.786l-0.811,2.49
	c0.086,0.7,0.322,1.171,0.619,1.446c0.191,0.084,0.766,0.17,1.299,0.213c0.062,0.104,0.105,0.275,0.084,0.361
	c0,0.086-0.021,0.256-0.084,0.383h-0.574c-0.768,0-1.598-0.086-2.406-0.086c-0.744,0-2.041,0.043-2.49,0.043
	c-0.062-0.105-0.082-0.234-0.082-0.34c0.02-0.086,0.062-0.298,0.082-0.404c0.916-0.256,1.895-0.488,2.236-1.256
	c0.637-1.553,0.488-1.147,1.51-3.852c1.043-2.766,1.809-4.702,2.277-5.808c0.596-1.362,0.895-2.128,0.957-2.276
	c0.213-0.575,0.467-1.063,0.658-1.234c0.129-0.147,0.576-0.3,0.746-0.3c0.211,0,1.086,0.173,1.211,0.343
	c0.045,0.062,0.129,0.232,0.193,0.403l0.936,2.319l3.191,7.958c0.404,0.978,0.598,1.425,0.959,2.274
	c0.168,0.426,0.424,0.916,0.553,1.021c0.105,0.084,1.213,0.384,1.766,0.47c0.043,0.083,0.105,0.273,0.129,0.36
	C452.106,20.829,452.04,21.021,451.975,21.086z M443.549,13.257c-0.34-0.938-1.062-2.746-1.469-3.701
	c-0.062-0.128-0.127-0.277-0.191-0.428c-0.232,0.575-0.512,1.214-0.914,2.213c-0.596,1.512-1.086,2.895-1.17,3.19h2.574
	c0.596,0,1.191,0,1.574-0.083C443.827,14.001,443.743,13.724,443.549,13.257z"/>
<path fill="#FFFFFF" d="M469.446,21.086c-0.531,0-2.555,0-3.043,0c-0.811,0-1.939-0.043-2.107-0.065
	c-0.402-0.039-0.572-0.424-0.637-0.871c-0.213-1.553-0.66-3.51-1.34-4.574c-0.514-0.787-0.896-1.105-1.684-1.553
	c-0.529-0.298-0.852-0.339-1.127-0.339c-0.17,0-0.383,0-0.553,0.021l0.02,4.913c0,0.743,0.385,1.258,0.916,1.513
	c0.234,0.043,0.766,0.17,1.191,0.213c0.043,0.086,0.084,0.297,0.084,0.448c0,0.082-0.041,0.229-0.084,0.315
	c-1.213,0-2.361-0.062-3.725-0.062c-0.68,0-3.936,0.062-4.232,0.062c-0.043-0.104-0.086-0.276-0.086-0.338
	c0-0.109,0.043-0.318,0.105-0.427c0.426-0.022,0.938-0.108,1.213-0.147c0.617-0.256,0.811-0.896,0.873-1.426
	c0.107-0.81,0.086-3.32,0.086-5.493c0-2.999-0.021-4.743-0.127-5.421c-0.215-0.471-0.385-0.769-0.895-1.15
	c-0.34-0.065-1-0.15-1.361-0.193c-0.021-0.084-0.043-0.298-0.043-0.382c0-0.086,0.043-0.255,0.105-0.404
	c0.129,0,0.936,0.043,1.256,0.043c0.746,0,2.596,0.041,2.916,0.041c1.062,0,3.297-0.148,4.893-0.148
	c1.129,0,2.041,0.087,2.555,0.234c1.553,0.491,2.656,2.148,2.656,3.872c0,1.148-0.467,2.127-1.316,2.766
	c-0.406,0.32-0.768,0.596-2.342,0.786c-0.404,0.044-0.553,0.066-0.873,0.13c0.256,0.104,0.533,0.213,0.873,0.339
	c0.744,0.257,1.404,0.534,1.598,0.704c0.51,0.467,1.127,1.469,1.572,2.529c0.32,0.81,0.639,1.471,0.916,2.447
	c0.086,0.148,0.254,0.405,0.361,0.53c0.32,0.233,1.191,0.276,1.404,0.276c0.064,0.086,0.105,0.344,0.105,0.449
	C469.573,20.829,469.532,21.001,469.446,21.086z M462.915,7.639c-0.596-1-1.318-1.148-2.98-1.148c-0.445,0-0.832,0.063-0.893,0.128
	c-0.066,0.063-0.131,0.211-0.131,0.468v3.915l0.021,1.809c0.256,0.043,0.576,0.043,0.789,0.043c0.789,0,1.318-0.063,1.744-0.171
	c1.043-0.255,1.938-1.767,1.938-3.085C463.405,8.873,463.254,8.214,462.915,7.639z"/>
<path fill="#FFFFFF" d="M486.997,6.341c-0.426,0.106-1.234,0.235-1.531,0.427c-0.426,0.253-0.979,0.744-1.277,1.297l-3.34,6.427
	c-0.107,0.169-0.15,0.36-0.15,0.573c0,0.021-0.02,0.274,0,0.531l0.191,3c0.043,0.829,0.213,1,0.555,1.361
	c0.213,0.214,1.17,0.341,1.852,0.427c0.062,0.105,0.084,0.273,0.084,0.384c0,0.104-0.061,0.295-0.104,0.381
	c-0.385,0-0.939-0.021-1.66-0.043c-1.256-0.021-2.744-0.043-3.191-0.043c-0.639,0-2.574,0.022-3.66,0.022
	c-0.02-0.085-0.062-0.257-0.062-0.36c0-0.105,0.02-0.258,0.105-0.406c0.49-0.043,1.553-0.189,1.701-0.276
	c0.363-0.231,0.682-0.724,0.682-1.637c0-1.085-0.043-1.767-0.191-2.362c-0.107-0.383-0.297-0.916-0.682-1.595l-3.766-7.105
	c-0.148-0.277-0.682-0.534-2.107-0.873c-0.062-0.106-0.105-0.277-0.105-0.361c0-0.152,0.043-0.277,0.127-0.428
	c0.17,0,2.234,0.066,3.279,0.066c2.447,0,2.85-0.066,4.275-0.066h0.383c0.064,0.107,0.127,0.171,0.127,0.319
	c0,0.086,0,0.32-0.043,0.427c-0.891,0.106-1.553,0.169-1.744,0.532c-0.041,0.084-0.084,0.275-0.062,0.553
	c0,0.19,0.127,0.447,0.191,0.596l1.148,2.383c0.256,0.555,1.361,2.681,1.936,3.7c0.342-0.529,0.873-1.595,1.789-3.359
	c0.594-1.171,1.02-2.023,1.23-2.554c0.109-0.277,0.131-0.532,0.131-0.786c0-0.148-0.043-0.405-0.17-0.619
	c-0.172-0.296-1.064-0.445-1.684-0.572c-0.02-0.066-0.02-0.257-0.02-0.362c0-0.106,0.02-0.234,0.084-0.361
	c0.572,0,1.469,0.084,2.553,0.084c0.449,0,2.236-0.065,3.105-0.065c0.045,0.086,0.131,0.236,0.131,0.361
	C487.102,6.043,487.04,6.233,486.997,6.341z"/>
<path fill="#FFFFFF" d="M194.242,5.911c0-0.086-0.02-0.236-0.063-0.301h-0.494c-1.073,0-1.76,0.043-3.69,0.043
	c-0.666,0-1.653-0.043-1.891-0.043h-0.556c-0.065,0.043-0.087,0.279-0.087,0.365c0,0.107,0.021,0.279,0.107,0.367
	c0.343,0.104,1.652,0.254,2.211,0.621c0.383,0.451,0.557,1.352,0.62,2.188c0.021,0.326,0.044,0.645,0.044,1.525v4.49
	c0,0.515-0.022,0.688-0.044,0.924c-0.362-0.409-0.878-1.182-1.737-2.15l-7.172-7.941c-0.062-0.088-0.189-0.193-0.32-0.281
	c-0.172,0-0.473-0.021-0.645-0.021c-1.373,0-3.865-0.064-4.23-0.064c-0.045,0.086-0.086,0.215-0.086,0.305
	c0,0.039,0.041,0.342,0.064,0.406c0.322,0.084,1.033,0.189,1.609,0.814c0.346,0.385,0.946,0.922,1.142,1.354
	c0.063,0.148,0.083,0.385,0.083,0.686c0,1.117-0.064,2.686-0.064,4.186v4.361c0,0.709-0.063,1.266-0.128,1.631
	c-0.448,0.473-1.137,0.816-2.255,1.096c-0.043,0.107-0.084,0.279-0.084,0.387c0,0.064,0.02,0.279,0.064,0.302h0.408
	c0.426,0,1.418-0.063,2.059-0.063c0.946,0,1.59,0.063,2.47,0.063h1.288c0.09-0.021,0.108-0.279,0.108-0.363
	c0-0.088-0.019-0.26-0.063-0.344c-0.752-0.193-1.846-0.365-2.576-1.332c-0.152-0.322-0.28-1.912-0.28-2.666
	c0-0.687-0.022-1.631-0.022-2.896c0-1.697,0.022-3.178,0.045-3.93c0.127,0.15,0.277,0.342,0.386,0.473l9.918,11.145
	c0.108,0.107,0.493,0.129,0.599,0.129c0.108,0,0.174,0,0.258-0.043c0.045-0.107,0.195-0.451,0.195-0.967
	c0-0.621-0.021-1.266-0.021-1.588V9.819c0-2.686,1.268-3.436,2.75-3.502C194.222,6.212,194.242,6.019,194.242,5.911 M169.636,12.741
	c0,3.242-0.898,6.096-2.121,7.105c-0.626,0.516-1.4,0.772-2.279,0.772c-1.202,0-2.254-0.472-2.856-1.438
	c-0.815-1.246-1.269-3.564-1.269-5.583c0-2.986,0.774-5.326,2.148-6.465c0.733-0.602,1.482-0.836,2.234-0.836
	c1.16,0,2.275,0.559,2.919,1.482C169.229,8.896,169.636,10.507,169.636,12.741 M173.525,13.149c0-3.008-1.332-5.305-3.82-6.678
	c-1.333-0.734-2.666-1.098-4.08-1.098c-3.137,0-5.971,1.869-7.239,3.994c-0.816,1.332-1.246,2.791-1.246,4.338
	c0,2.471,1.205,4.896,3.073,6.291c1.415,1.03,3.027,1.545,4.896,1.545c1.137,0,2.212-0.213,3.264-0.621
	c1.183-0.451,2.188-1.16,2.983-2.041C172.751,17.356,173.525,15.401,173.525,13.149 M154.651,10.442V6.06
	c0-0.322-0.129-0.406-0.453-0.406c-0.645,0-4.039,0.084-7.473,0.084c-2.664,0-4.875-0.041-6.077-0.041h-1.591
	c-0.277,0-0.363,0.064-0.363,0.363v4.104c0.086,0.064,0.236,0.084,0.345,0.084c0.086,0,0.386,0,0.472-0.043
	c0.966-1.951,1.867-3.004,3.006-3.582c0.643-0.068,1.912-0.09,2.252-0.09c0.023,0.238,0.047,0.99,0.067,1.891
	c0.021,1.545,0.021,2.211,0.021,5.861c0,3.157-0.021,4.573-0.064,4.92c-0.086,0.601,0.023,1.053-2.554,1.157
	c-0.065,0.15-0.065,0.324-0.065,0.494c0,0.086,0,0.261,0.021,0.345h0.838c0.793,0,2.661-0.084,3.436-0.084
	c0.623,0,2.621,0.062,3.931,0.062h0.6c0.062-0.107,0.062-0.342,0.062-0.453c0-0.127-0.021-0.274-0.088-0.385
	c-0.232,0-1.609,0.041-2.209-0.406c-0.062-0.238-0.194-0.858-0.194-1.613c-0.022-2.317-0.044-3.196-0.044-4.745
	c0-1.994,0.021-3.348,0.021-7.064c0.303,0,0.988-0.02,1.632,0c1.333,0.367,1.978,0.859,2.557,1.635
	c0.366,0.492,0.752,1.332,1.138,2.34c0.131,0.043,0.239,0.043,0.367,0.043C154.329,10.528,154.605,10.485,154.651,10.442
	 M136.137,17.423c0-0.305,0-0.432-0.021-0.625c-0.105-0.066-0.15-0.066-0.322-0.066c-0.15,0-0.321,0-0.472,0.045
	c-0.729,1.652-1.781,2.943-2.362,3.285c-0.32,0.195-0.816,0.236-1.609,0.236h-1.762c-0.686,0-1.224-0.064-1.416-0.107
	c-0.325-0.062-0.666-0.578-0.818-0.922c-0.15-0.365-0.233-0.365-0.233-1.354v-4.703h0.793c0.214,0,0.731,0.043,1.312,0.301
	c0.535,0.236,0.752,0.558,0.965,0.902c0.194,0.301,0.322,1.48,0.363,1.783c0.109,0.062,0.389,0.086,0.558,0.086
	c0.177,0,0.281-0.023,0.435-0.107c0-0.582-0.133-2.148-0.133-3.008c0-1.074,0.151-2.557,0.215-3.328
	c-0.082-0.045-0.215-0.086-0.426-0.086c-0.154,0-0.432,0-0.562,0.064c-0.063,0.303-0.299,1.201-0.344,1.268
	c-0.318,0.537-0.879,0.943-1.46,1.115c-0.386,0.107-0.944,0.17-1.243,0.17h-0.453v-1.994c0-2.062,0.046-2.729,0.064-3.115
	c0.023-0.258,0.066-0.535,0.086-0.73c0.195-0.021,0.303-0.041,1.291-0.041c1.244,0,1.823,0.02,2.018,0.02
	c0.604,0.043,1.051,0.174,1.374,0.43c0.814,0.625,1.437,1.611,2.062,2.666c0.128,0.041,0.342,0.041,0.451,0.041
	c0.129,0,0.148-0.041,0.324-0.129c0-1.311-0.09-3.008-0.131-3.543c-0.022-0.215-0.064-0.279-0.494-0.279
	c-0.173,0-0.988-0.043-1.849-0.043c-1.225,0-1.716,0.021-3.583,0.021c-1.011,0-3.096,0.021-3.975,0.021
	c-1.287,0-2.385-0.043-2.942-0.043h-0.729c-0.064,0.084-0.107,0.258-0.107,0.346c0,0.105,0.043,0.344,0.107,0.428
	c0.259,0.084,1.269,0.064,1.568,0.236c0.3,0.258,0.58,0.365,0.775,1.396c0.041,0.451,0.062,1.695,0.062,2.684v4.424
	c0,0.903-0.021,2.211-0.044,2.748c-0.044,0.836-0.345,1.847-0.472,2.039c-0.195,0.149-1.074,0.278-1.932,0.323
	c-0.066,0.128-0.109,0.343-0.109,0.472s0.043,0.278,0.109,0.388h0.707c0.686,0,3.22-0.064,3.8-0.064
	c0.538,0,1.567,0.045,2.814,0.045c0.685,0,2.706,0.127,7.044,0.127c0.172,0,0.363,0.02,0.58-0.043
	c0.064-0.107,0.064-0.15,0.087-0.344C136.137,20.429,136.137,19.159,136.137,17.423 M117.969,18.173
	c-0.062-0.193-0.235-0.518-0.729-0.518c-0.042,0-0.104,0.021-0.149,0.021c-1.288,1.826-2.706,2.515-4.315,2.515
	c-2.235,0-3.825-1.502-4.339-2.834c-0.276-0.709-0.666-2.256-0.666-3.908c0-1.566,0.236-2.836,0.645-3.758
	c0.945-2.49,2.32-3.264,3.994-3.264c1.395,0,2.555,0.793,3.436,1.934c0.365,0.492,0.752,1.459,1.096,2.598
	c0.086,0.023,0.281,0.062,0.473,0.062c0.13,0,0.43-0.107,0.516-0.191c-0.022-0.238-0.236-1.891-0.236-2.406
	c0-0.643,0.17-1.695,0.17-2.105c-0.128-0.127-0.559-0.213-0.836-0.234c-0.322,0.234-0.43,0.514-0.729,0.881
	c-1.202-0.859-2.321-1.525-4.768-1.525c-2.255,0-4.036,0.773-5.392,2.127c-1.48,1.459-2.297,3.479-2.297,6.053
	c0,2.752,1.16,5.004,3.029,6.422c1.181,0.859,2.922,1.439,5.002,1.439c2.621,0,4.533-0.986,5.5-2.299
	C117.756,18.669,117.801,18.538,117.969,18.173 M101.264,5.911c0-0.086-0.021-0.236-0.066-0.301h-0.494
	c-1.074,0-1.759,0.043-3.691,0.043c-0.666,0-1.653-0.043-1.891-0.043h-0.557c-0.063,0.043-0.086,0.279-0.086,0.365
	c0,0.107,0.022,0.279,0.104,0.367c0.345,0.104,1.655,0.254,2.212,0.621c0.386,0.451,0.562,1.352,0.625,2.188
	c0.019,0.326,0.042,0.645,0.042,1.525v4.49c0,0.515-0.023,0.688-0.042,0.924c-0.367-0.409-0.881-1.182-1.74-2.15l-7.172-7.941
	c-0.064-0.088-0.193-0.193-0.321-0.281c-0.171,0-0.476-0.021-0.645-0.021c-1.377,0-3.866-0.064-4.233-0.064
	c-0.04,0.086-0.085,0.215-0.085,0.305c0,0.039,0.045,0.342,0.067,0.406c0.321,0.084,1.029,0.189,1.609,0.814
	c0.344,0.385,0.943,0.922,1.139,1.354c0.062,0.148,0.085,0.385,0.085,0.686c0,1.117-0.063,2.686-0.063,4.186v4.361
	c0,0.709-0.063,1.266-0.131,1.631c-0.449,0.473-1.139,0.816-2.254,1.096c-0.044,0.107-0.086,0.279-0.086,0.387
	c0,0.064,0.022,0.279,0.063,0.302h0.409c0.43,0,1.418-0.063,2.062-0.063c0.947,0,1.587,0.063,2.471,0.063h1.287
	c0.086-0.021,0.108-0.279,0.108-0.363c0-0.088-0.022-0.26-0.063-0.344c-0.753-0.193-1.849-0.365-2.579-1.332
	c-0.152-0.322-0.276-1.912-0.276-2.666c0-0.687-0.026-1.631-0.026-2.896c0-1.697,0.026-3.178,0.045-3.93
	c0.131,0.15,0.28,0.342,0.389,0.473l9.92,11.145c0.107,0.107,0.494,0.129,0.6,0.129c0.107,0,0.174,0,0.258-0.043
	c0.044-0.107,0.194-0.451,0.194-0.967c0-0.621-0.02-1.266-0.02-1.588V9.819c0-2.686,1.267-3.436,2.747-3.502
	C101.243,6.212,101.264,6.019,101.264,5.911 M80.024,20.794c0-0.107-0.02-0.344-0.064-0.432c-0.321-0.021-1.201-0.105-1.586-0.191
	c-0.345-0.41-0.58-0.885-0.73-1.654c-0.022-1.031-0.044-3.158-0.044-5.151V8.079c0-0.578,0.235-1.029,0.386-1.158
	c0.407-0.389,1.223-0.475,1.912-0.559c0.044-0.084,0.062-0.322,0.062-0.408c0-0.129-0.062-0.301-0.107-0.344h-0.621
	c-0.903,0-3.006,0.107-3.736,0.107c-0.449,0-2.557-0.064-3.5-0.086H71.52c-0.064,0.086-0.105,0.174-0.105,0.367
	c0,0.084,0.023,0.299,0.041,0.406c1.053,0.086,1.525,0.191,1.677,0.299c0.256,0.195,0.622,0.666,0.708,1.828
	c0.023,0.406,0.045,1.287,0.064,3.262c0.021,1.076,0.044,2.578,0.044,3.822c0,0.625-0.044,2.02-0.063,2.772
	c-0.045,0.514-0.154,1.008-0.303,1.285c-0.259,0.215-0.514,0.604-2.082,0.707c-0.045,0.088-0.062,0.367-0.062,0.455
	c0,0.17,0.041,0.256,0.041,0.363h0.367c0.856,0,3.004-0.107,4.121-0.107c0.32,0,2.556,0.064,3.264,0.064h0.71
	C80.004,21.05,80.024,20.878,80.024,20.794 M62.802,9.585c0,1.328-0.901,2.855-1.953,3.113c-0.43,0.105-0.966,0.172-1.763,0.172
	c-0.213,0-0.536,0-0.794-0.043l-0.022-1.826V7.05c0-0.26,0.067-0.408,0.131-0.473c0.064-0.066,0.452-0.131,0.901-0.131
	c1.674,0,2.407,0.15,3.006,1.16C62.653,8.187,62.802,8.853,62.802,9.585 M69.03,20.813c0-0.107-0.041-0.363-0.107-0.451
	c-0.214,0-1.094-0.043-1.416-0.277c-0.108-0.131-0.279-0.389-0.365-0.537c-0.28-0.99-0.6-1.654-0.925-2.471
	c-0.45-1.074-1.073-2.082-1.587-2.555c-0.194-0.174-0.861-0.451-1.61-0.709c-0.345-0.127-0.624-0.238-0.883-0.346
	c0.321-0.061,0.476-0.086,0.883-0.127c1.588-0.191,1.954-0.471,2.362-0.795c0.857-0.645,1.33-1.633,1.33-2.791
	c0-1.738-1.117-3.412-2.684-3.908C63.51,5.696,62.59,5.61,61.452,5.61c-1.613,0-3.867,0.15-4.94,0.15
	c-0.321,0-2.19-0.043-2.942-0.043c-0.322,0-1.138-0.043-1.269-0.043c-0.064,0.15-0.106,0.324-0.106,0.408s0.023,0.301,0.042,0.389
	c0.368,0.039,1.03,0.125,1.377,0.191c0.515,0.387,0.687,0.686,0.903,1.16c0.104,0.688,0.127,2.447,0.127,5.473
	c0,2.19,0.022,4.726-0.086,5.541c-0.066,0.537-0.258,1.185-0.884,1.44c-0.276,0.041-0.79,0.127-1.224,0.15
	c-0.061,0.105-0.105,0.32-0.105,0.428c0,0.064,0.045,0.236,0.087,0.345c0.3,0,3.585-0.064,4.274-0.064
	c1.373,0,2.534,0.064,3.758,0.064c0.041-0.084,0.086-0.236,0.086-0.322c0-0.151-0.045-0.364-0.086-0.448
	c-0.431-0.048-0.969-0.173-1.201-0.216c-0.539-0.26-0.925-0.772-0.925-1.524l-0.023-4.963c0.173-0.02,0.387-0.02,0.56-0.02
	c0.281,0,0.602,0.043,1.137,0.344c0.794,0.451,1.184,0.771,1.699,1.566c0.686,1.075,1.135,3.053,1.352,4.616
	c0.062,0.453,0.236,0.838,0.645,0.884c0.171,0.02,1.309,0.062,2.125,0.062h3.07C68.989,21.093,69.03,20.921,69.03,20.813
	 M45.708,9.69c0,1.094-0.385,2.061-1.096,2.682c-0.448,0.369-1.156,0.582-2.23,0.582c-0.449,0-0.794-0.021-0.924-0.043
	c-0.172-0.021-0.278-0.041-0.278-0.15l0.02-6.289c0.259-0.025,0.625-0.109,1.246-0.109c1.459,0,2.362,0.365,2.792,1.27
	C45.538,8.208,45.708,8.938,45.708,9.69 M49.553,9.776c0-1.611-0.925-3.113-2.299-3.736c-0.707-0.303-1.953-0.494-3.841-0.494
	c-1.657,0-4.231,0.129-5.37,0.129c-0.793,0-1.999-0.086-2.664-0.086c-0.065,0.107-0.106,0.258-0.106,0.348
	c0,0.082,0,0.318,0.065,0.426c0.406,0.129,1.072,0.234,1.504,0.342c0.363,0.324,0.448,0.604,0.576,1.225
	c0.066,0.754,0.107,1.697,0.107,3.33c0,4.531-0.018,6.914-0.085,7.431c-0.086,0.645-0.513,1.309-1.224,1.524
	c-0.322,0.063-0.795,0.168-1.246,0.216c-0.02,0.104-0.043,0.258-0.043,0.448c0,0.172,0.023,0.192,0.064,0.302
	c0.688,0,2.705-0.087,3.48-0.087c1.909,0,3.865,0.087,4.656,0.087h0.54c0.062-0.087,0.062-0.236,0.062-0.343
	c0-0.131,0-0.303-0.042-0.387c-0.643-0.089-1.608-0.218-2.017-0.688c-0.216-0.259-0.431-0.623-0.431-1.267l-0.063-4.723
	c1.288,0.082,2.661,0.127,3.414,0.127c0.988,0,1.827-0.174,2.492-0.387C48.61,12.933,49.553,11.429,49.553,9.776"/>
<path fill="#FFFFFF" d="M361.235,5.737c0-0.127-0.086-0.17-0.129-0.256c-0.883,0-2.039,0.064-2.49,0.064
	c-1.098,0-2.428-0.086-3.008-0.086c-0.062,0.129-0.084,0.15-0.084,0.26c0,0.105,0.02,0.191,0.043,0.256
	c0.621,0.129,1.521,0.279,1.693,0.578c0.152,0.279,0.195,0.496,0.195,0.838c0,0.258-0.023,0.518-0.129,0.795
	c-0.193,0.537-0.604,1.375-1.184,2.557c-0.986,1.998-1.609,3.242-1.953,3.734c-0.559-0.941-1.805-3.435-2.104-4.081l-1.203-2.617
	c-0.043-0.086-0.086-0.389-0.086-0.58c0-0.279,0.043-0.473,0.086-0.559c0.193-0.387,0.859-0.43,1.76-0.537
	c0.045-0.105,0.066-0.236,0.066-0.324c0-0.148-0.066-0.105-0.129-0.213h-0.389c-1.439,0-1.012,0.064-3.48,0.064
	c-1.053,0-2.316-0.064-2.49-0.064c-0.086,0.152-0.129,0.17-0.129,0.322c0,0.086,0.021,0.15,0.084,0.258
	c1.439,0.344,1.869,0.602,2.021,0.881l3.76,7.366c0.363,0.686,0.576,1.223,0.686,1.608c0.15,0.604,0.172,1.481,0.172,2.578
	c0,0.922-0.322,1.418-0.688,1.651c-0.15,0.086-1.225,0.238-1.717,0.279c-0.086,0.148-0.107,0.193-0.107,0.303
	c0,0.105,0.043,0.17,0.062,0.256c1.098,0,2.232-0.021,2.881-0.021c0.447,0,1.135,0.021,2.404,0.043
	c0.729,0.023,1.287,0.043,1.676,0.043c0.041-0.086,0.104-0.172,0.104-0.278c0-0.107-0.02-0.17-0.086-0.279
	c-0.686-0.084-1.65-0.215-1.865-0.428c-0.346-0.367-0.52-0.537-0.562-1.373l-0.17-3.223c-0.02-0.236,0.062-0.451,0.084-0.517
	c0.066-0.236,0.152-0.431,0.238-0.604l3.307-6.549c0.301-0.559,0.945-1.182,1.373-1.439c0.301-0.191,0.969-0.32,1.396-0.428
	C361.194,5.911,361.235,5.825,361.235,5.737 M343.883,10.163V5.999c0-0.324-0.129-0.41-0.453-0.41c-0.643,0-3.604,0.086-7.043,0.086
	c-2.662,0-4.443-0.043-5.645-0.043h-1.59c-0.281,0-0.365,0.064-0.365,0.367v3.887c0.084,0.062,0.15,0.082,0.258,0.082
	c0.084,0,0.172,0,0.258-0.041c0.838-1.867,1.266-2.857,2.705-3.584c0.645-0.064,2.898-0.088,3.244-0.088
	c0.02,0.236,0.043,0.988,0.062,1.891c0.02,1.545,0.02,2.381,0.02,6.031c0,3.158-0.02,4.789-0.062,5.133
	c-0.086,0.603,0.023,1.053-2.555,1.162c-0.064,0.148-0.064,0.189-0.064,0.365c0,0.084,0,0.17,0.021,0.256h0.838
	c0.795,0,1.846-0.086,2.619-0.086c0.623,0,1.807,0.064,3.115,0.064h0.602c0.062-0.107,0.062-0.215,0.062-0.322
	c0-0.129-0.021-0.191-0.084-0.299c-0.236,0-1.609,0.043-2.213-0.41c-0.064-0.236-0.193-0.857-0.193-1.609
	c-0.021-2.32-0.045-3.414-0.045-4.96c0-1.998,0.023-3.521,0.023-7.234c0.301,0,1.891-0.023,2.531,0
	c1.332,0.361,1.85,0.857,2.43,1.631c0.516,0.686,0.643,1.309,0.965,2.34c0.129,0.041,0.193,0.041,0.324,0.041
	C343.733,10.247,343.838,10.206,343.883,10.163 M326.04,20.769c0-0.106-0.023-0.211-0.064-0.297
	c-0.322-0.021-1.203-0.109-1.59-0.193c-0.344-0.405-0.58-0.881-0.729-1.655c-0.023-1.029-0.043-3.371-0.043-5.367V7.8
	c0-0.58,0.232-1.029,0.387-1.158c0.408-0.387,1.225-0.475,1.91-0.559c0.043-0.084,0.062-0.193,0.062-0.277
	c0-0.131-0.062-0.217-0.105-0.26h-0.623c-0.902,0-2.189,0.107-2.922,0.107c-0.451,0-1.74-0.064-2.686-0.086h-0.471
	c-0.066,0.086-0.107,0.086-0.107,0.279c0,0.086,0.021,0.172,0.041,0.279c1.055,0.086,1.527,0.191,1.678,0.301
	c0.258,0.195,0.621,0.666,0.709,1.826c0.02,0.406,0.041,1.502,0.062,3.477c0.021,1.074,0.043,2.534,0.043,3.781
	c0,0.623-0.043,2.232-0.064,2.982c-0.041,0.516-0.148,1.01-0.301,1.289c-0.258,0.217-0.516,0.6-2.084,0.711
	c-0.043,0.084-0.062,0.231-0.062,0.321c0,0.17,0.043,0.17,0.043,0.277h0.365c0.857,0,2.188-0.107,3.309-0.107
	c0.322,0,1.738,0.064,2.447,0.064h0.709C326.014,20.942,326.04,20.856,326.04,20.769 M315.43,16.819
	c0-1.717-0.773-2.898-2.428-3.779c-0.451-0.26-1.244-0.537-2.383-0.859c-1.311-0.365-2.406-0.793-3.113-1.18
	c-0.475-0.258-1.27-0.967-1.27-2.342c0-1.373,1.396-2.512,3.029-2.512c1.287,0,2.32,0.643,2.941,1.502
	c0.537,0.754,0.73,1.096,1.332,2.449c0.062,0.021,0.15,0.043,0.215,0.043c0.193,0,0.365-0.107,0.473-0.215
	c-0.064-0.535-0.172-1.287-0.172-1.932c0-0.559,0.127-1.291,0.191-1.678c-0.172-0.256-0.363-0.299-0.645-0.299
	c-0.301,0.193-0.578,0.492-0.838,0.771c-1.416-1.137-2.578-1.33-3.648-1.33c-2.643,0-4.531,1.76-4.531,4.102
	c0,0.795,0.276,1.568,0.795,2.363c0.473,0.666,1.158,1.182,2.082,1.566c0.625,0.258,3.416,1.098,3.801,1.246
	c1.719,0.664,2.363,1.246,2.363,2.77c0,0.752-0.322,1.418-0.945,2.168c-0.559,0.688-1.439,1.012-2.383,1.012
	c-1.01,0-2.75-0.432-3.607-1.59c-0.518-0.666-1.248-2.061-1.461-2.9c-0.15-0.043-0.15-0.043-0.301-0.043
	c-0.129,0-0.279,0.043-0.41,0.132c0,0.278,0.086,1.694,0.086,2.123c0,1.055-0.189,1.567-0.234,1.911
	c0.064,0.216,0.43,0.431,0.687,0.431c0.452-0.388,0.926-0.687,1.073-0.687c0.131,0,0.324,0.064,0.518,0.191
	c1.396,0.902,2.557,1.074,3.588,1.074C313.26,21.329,315.43,19.804,315.43,16.819 M296.424,9.411c0,1.373-1.094,2.92-2.362,3.199
	c-0.515,0.109-1.267,0.17-2.231,0.17c-0.256,0-0.988,0-1.312-0.039l-0.021-1.891V6.79c0-0.279,0.065-0.428,0.151-0.492
	c0.086-0.062,0.966-0.131,1.502-0.131c2.021,0,2.94,0.195,3.673,1.246C296.23,7.995,296.424,8.659,296.424,9.411 M300.933,20.792
	c0-0.105-0.039-0.234-0.104-0.32c-0.213,0-1.097-0.043-1.416-0.281c-0.109-0.127-0.279-0.387-0.365-0.534
	c-0.281-0.986-0.58-1.869-0.904-2.687c-0.449-1.074-1.072-2.082-1.588-2.555c-0.193-0.172-0.795-0.449-1.547-0.709
	c-0.342-0.131-0.621-0.236-0.881-0.344c0.324-0.066,0.473-0.086,0.881-0.129c1.395-0.17,1.869-0.473,2.277-0.793
	c0.856-0.646,1.416-1.611,1.416-2.771c0-1.74-1.117-3.391-2.685-3.889c-0.517-0.148-1.438-0.234-2.576-0.234
	c-1.61,0-2.812,0.15-3.889,0.15c-0.322,0-1.373-0.043-2.125-0.043c-0.32,0-1.138-0.043-1.269-0.043
	c-0.063,0.15-0.104,0.195-0.104,0.279c0,0.086,0.021,0.215,0.041,0.301c0.366,0.045,1.03,0.127,1.372,0.193
	c0.519,0.387,0.688,0.686,0.904,1.158c0.107,0.686,0.129,2.621,0.129,5.646c0,2.191,0.021,4.941-0.088,5.757
	c-0.062,0.535-0.258,1.183-0.881,1.437c-0.279,0.048-0.791,0.132-1.223,0.152c-0.064,0.106-0.107,0.19-0.107,0.303
	c0,0.062,0.043,0.147,0.088,0.256c0.299,0,2.769-0.063,3.455-0.063c1.375,0,1.719,0.063,2.941,0.063
	c0.045-0.086,0.088-0.149,0.088-0.235c0-0.15-0.043-0.236-0.088-0.322c-0.428-0.041-0.965-0.172-1.201-0.215
	c-0.537-0.256-0.922-0.771-0.922-1.523l-0.023-5.369c0.172-0.02,0.795-0.02,0.967-0.02c0.58,0,1.16,0.041,1.72,0.299
	c0.813,0.365,1.588,0.945,2.104,1.738c0.687,1.074,1.137,3.113,1.353,4.684c0.063,0.449,0.233,0.836,0.644,0.879
	c0.174,0.021,0.43,0.064,1.248,0.064h2.229C300.894,20.985,300.933,20.899,300.933,20.792 M282.917,17.528
	c0-0.299,0-0.43-0.021-0.621c-0.104-0.068-0.149-0.068-0.321-0.068c-0.15,0-0.13,0-0.279,0.045
	c-0.473,1.568-1.287,2.729-2.211,3.287c-0.322,0.191-0.902,0.236-1.826,0.236h-2.404c-0.752-0.025-1.225-0.066-1.418-0.109
	c-0.322-0.064-0.666-0.578-0.816-0.924c-0.149-0.365-0.236-0.494-0.236-1.48v-4.896h0.689c0.686,0,1.245,0.043,1.825,0.299
	c0.537,0.24,0.944,0.582,1.158,0.927c0.194,0.301,0.258,1.479,0.303,1.78c0.104,0.065,0.17,0.088,0.345,0.088
	c0.168,0,0.192-0.021,0.344-0.106c0-0.582-0.131-2.148-0.131-3.008c0-1.072,0.151-2.385,0.215-3.156
	c-0.084-0.043-0.129-0.084-0.342-0.084c-0.15,0-0.218,0-0.347,0.064c-0.063,0.299-0.235,1.201-0.278,1.264
	c-0.32,0.539-1.072,0.967-1.654,1.139c-0.385,0.109-0.943,0.17-1.758,0.17h-0.344v-2.1c0-2.064,0.041-2.902,0.062-3.289
	c0.021-0.256,0.063-0.537,0.086-0.729c0.194-0.02,0.815-0.043,1.805-0.043c1.246,0,2.168,0.023,2.361,0.023
	c0.603,0.043,1.053,0.17,1.372,0.428c1.056,0.816,1.335,1.354,1.914,2.662c0.127,0.043,0.15,0.043,0.257,0.043
	c0.129,0,0.149-0.043,0.323-0.129c0-1.311-0.086-2.793-0.131-3.328c-0.02-0.215-0.063-0.279-0.492-0.279
	c-0.172,0-0.989-0.043-1.846-0.043c-1.225,0-1.721,0.021-3.588,0.021c-1.01,0-2.793,0.021-3.672,0.021
	c-1.291,0-1.568-0.043-2.127-0.043h-0.729c-0.066,0.086-0.109,0.172-0.109,0.258c0,0.107,0.043,0.215,0.109,0.301
	c0.258,0.088,1.266,0.064,1.563,0.236c0.304,0.258,0.582,0.32,0.774,1.354c0.043,0.449,0.064,1.91,0.064,2.896v4.424
	c0,0.902-0.021,2.385-0.043,2.922c-0.043,0.838-0.344,1.894-0.473,2.084c-0.193,0.15-1.072,0.277-1.934,0.318
	c-0.064,0.131-0.105,0.217-0.105,0.344c0,0.131,0.041,0.195,0.105,0.303h0.709c0.688,0,2.405-0.063,2.983-0.063
	c0.537,0,1.269,0.043,2.513,0.043c0.688,0,2.705,0.13,7.045,0.13c0.172,0,0.364,0.021,0.582-0.044
	c0.062-0.106,0.062-0.149,0.084-0.344C282.917,20.319,282.917,19.269,282.917,17.528 M267.027,5.806
	c0-0.086-0.022-0.217-0.106-0.238h-0.73c-0.516,0-1.332,0.043-1.697,0.043c-1.738,0-2.359-0.107-2.619-0.107h-0.387
	c-0.041,0.107-0.107,0.172-0.107,0.277c0,0.088,0.043,0.152,0.043,0.238c0.537,0.064,1.011,0.172,1.482,0.324
	c0.26,0.254,0.537,0.77,0.537,1.352c0,0.215-0.215,1.223-0.516,1.953l-3.457,8.503l-4.252-10.759
	c0.062-0.516,0.342-1.008,0.707-1.201c0.367-0.043,0.816-0.172,1.396-0.172c0.044-0.086,0.087-0.213,0.087-0.299
	c0-0.088-0.021-0.217-0.107-0.238h-0.537c-0.664,0-1.674,0.086-2.814,0.086c-0.492,0-1.457-0.043-2.402-0.043h-0.838
	c-0.043,0.086-0.088,0.129-0.088,0.256c0,0.131,0.023,0.174,0.064,0.26c0.604,0.15,1.184,0.387,1.807,0.73
	c0.408,0.6,1.287,2.768,1.762,3.908l1.781,4.292c1.48,3.566,2.361,5.949,2.467,6.357c0.109,0.064,0,0.129,0.195,0.129
	c0.193,0,0.172-0.043,0.213-0.148l5.543-13.313c0.191-0.473,0.494-0.926,0.773-1.225c0.342-0.387,1.053-0.535,1.715-0.688
	C266.963,5.999,267.027,5.911,267.027,5.806 M248.213,20.769c0-0.106-0.02-0.211-0.063-0.297c-0.321-0.021-1.203-0.109-1.588-0.193
	c-0.345-0.405-0.582-0.881-0.729-1.655c-0.021-1.029-0.043-3.371-0.043-5.367V7.8c0-0.58,0.235-1.029,0.387-1.158
	c0.408-0.387,1.223-0.475,1.91-0.559c0.043-0.084,0.063-0.193,0.063-0.277c0-0.131-0.063-0.217-0.104-0.26h-0.625
	c-0.9,0-2.189,0.107-2.92,0.107c-0.451,0-1.738-0.064-2.684-0.086h-0.474c-0.064,0.086-0.108,0.086-0.108,0.279
	c0,0.086,0.024,0.172,0.044,0.279c1.053,0.086,1.525,0.191,1.676,0.301c0.258,0.195,0.623,0.666,0.707,1.826
	c0.023,0.406,0.045,1.502,0.066,3.477c0.02,1.074,0.043,2.534,0.043,3.781c0,0.623-0.043,2.232-0.064,2.982
	c-0.045,0.516-0.149,1.01-0.303,1.289c-0.256,0.217-0.512,0.6-2.08,0.711c-0.045,0.084-0.064,0.231-0.064,0.321
	c0,0.17,0.041,0.17,0.041,0.277h0.366c0.858,0,2.19-0.107,3.306-0.107c0.322,0,1.74,0.064,2.447,0.064h0.709
	C248.195,20.942,248.213,20.856,248.213,20.769 M238.507,5.761c0-0.086-0.02-0.15-0.062-0.215h-0.495
	c-1.073,0-1.545,0.043-3.478,0.043c-0.667,0-1.653-0.043-1.891-0.043h-0.558c-0.065,0.043-0.085,0.191-0.085,0.279
	c0,0.107,0.02,0.15,0.105,0.236c0.344,0.105,1.655,0.256,2.213,0.623c0.388,0.449,0.559,1.354,0.622,2.189
	c0.021,0.322,0.044,0.645,0.044,1.523v6.378c0,0.519-0.023,0.688-0.044,0.925c-0.363-0.406-0.988-1.203-1.825-2.189l-8.204-9.578
	c-0.062-0.086-0.19-0.195-0.319-0.279c-0.175,0-0.389-0.021-0.559-0.021c-1.377,0-2.577-0.064-2.943-0.064
	c-0.041,0.086-0.064,0.129-0.064,0.213c0,0.045,0.023,0.219,0.043,0.281c0.322,0.086,1.268,0.193,1.654,0.602
	c0.342,0.387,0.857,0.838,1.053,1.266c0.063,0.15,0.084,0.387,0.084,0.688c0,1.119-0.064,3.158-0.064,4.66v4.577
	c0,0.705-0.064,1.266-0.129,1.629c-0.449,0.473-1.139,0.815-2.254,1.096c-0.043,0.109-0.085,0.148-0.085,0.26
	c0,0.062,0.021,0.191,0.063,0.213h0.408c0.429,0,1.418-0.064,2.061-0.064c0.945,0,1.375,0.064,2.256,0.064h1.289
	c0.084-0.021,0.105-0.193,0.105-0.281c0-0.082-0.021-0.127-0.062-0.211c-0.752-0.194-1.848-0.367-2.577-1.332
	c-0.149-0.324-0.278-1.957-0.278-2.707c0-0.688-0.023-1.805-0.023-3.069c0-1.697,0.023-4.037,0.043-4.789
	c0.13,0.15,0.322,0.389,0.473,0.561l10.18,11.917c0.105,0.106,0.149,0.127,0.259,0.127c0.105,0,0.041,0,0.128-0.039
	c0.043-0.107,0.105-0.455,0.105-0.97c0-0.62-0.021-1.266-0.021-1.586V9.538c0-2.682,1.268-3.434,2.749-3.498
	C238.488,5.933,238.507,5.868,238.507,5.761 M218.624,5.868c0-0.088-0.043-0.215-0.108-0.279h-0.621
	c-0.666,0-1.568,0.043-2.341,0.043c-0.86,0-1.825-0.043-2.448-0.043h-0.774c-0.063,0.131-0.085,0.172-0.085,0.279
	c0,0.086,0.021,0.172,0.064,0.279c0.088,0,1.656,0.02,1.933,0.406c0.235,0.322,0.752,1.117,0.838,1.592
	c0.042,0.213,0.173,1.094,0.173,2.361c0,1.824,0,3.049-0.021,3.693c-0.042,1.2-0.173,2.146-0.387,2.854
	c-0.603,1.869-1.998,2.791-4.211,2.791c-0.943,0-1.759-0.191-2.512-0.537c-1.396-0.688-2.062-1.996-2.082-2.703l-0.109-6.442
	l-0.021-2.621c0-0.492,0.624-0.945,0.837-1.199c0.172-0.088,1.117-0.176,1.652-0.217c0.068-0.127,0.109-0.193,0.109-0.301
	c0-0.105-0.064-0.215-0.15-0.279l-0.815,0.021c-0.796,0.021-1.848,0.043-2.514,0.043c-1.028,0-1.825-0.021-2.468-0.021h-0.904
	c-0.085,0.064-0.105,0.191-0.105,0.301c0,0.11,0.021,0.193,0.084,0.258c0.688,0.088,1.139,0.15,1.439,0.215
	c0.365,0.215,0.623,0.58,0.754,0.945c0.02,0.279,0.062,0.965,0.062,2.318v5.151c0,1.332,0.062,2.277,0.215,2.877
	c0.281,1.121,0.879,2,1.868,2.644c1.052,0.688,2.362,1.031,3.93,1.031c1.439,0,2.663-0.302,3.693-0.879
	c1.075-0.578,1.741-1.525,2.126-2.857c0.215-0.793,0.344-1.651,0.344-2.555v-4.125c0-0.771,0.043-1.738,0.043-2.123
	c0.021-1.158,0.324-1.848,0.644-2.363c0.345-0.109,0.646-0.172,1.782-0.301C218.581,6.04,218.624,5.976,218.624,5.868"/>
</svg>
