<svg id="Layer_1" data-name="Layer 1" xmlns="http://www.w3.org/2000/svg" xmlns:xlink="http://www.w3.org/1999/xlink" viewBox="0 0 440.06 97" preserveAspectRatio="xMinYMid"><defs><style>.cls-1{fill:none;}.cls-2{fill:#ef7622;}.cls-3{clip-path:url(#clip-path);}.cls-4{fill:#fff;}</style><clipPath id="clip-path"><rect class="cls-1" x="3" y="0.91" width="90" height="90"/></clipPath></defs><title>Artboard 1</title><rect class="cls-2" width="96" height="97" rx="12.24" ry="12.24"/><g class="cls-3"><g class="cls-3"><path class="cls-4" d="M10.77,83.5V20.15a20.61,20.61,0,0,0,6.59-3.05V76.9l.41,0a16.4,16.4,0,0,0,3.53-.38,38,38,0,0,0,7.62-2.49c1.24-.54,2.45-1.13,3.67-1.71a17.37,17.37,0,0,1,5.72-1.71,11.78,11.78,0,0,1,6.16.85A7,7,0,0,1,46.74,73a4.24,4.24,0,0,1,1.11,2c0,.06,0,.11.06.2s.05-.07.05-.09A4.16,4.16,0,0,1,49.12,73a7.6,7.6,0,0,1,3.17-1.9,12,12,0,0,1,4.42-.55,16.49,16.49,0,0,1,6.44,1.73c2,1,4,1.89,6,2.66a33.85,33.85,0,0,0,6.22,1.74,14.33,14.33,0,0,0,2.69.23h.33l0,0,0,0v-.1s0,0,0-.07,0-.14,0-.21q0-29.6,0-59.2a.51.51,0,0,1,0-.07l0-.07A21.31,21.31,0,0,0,85,20V83.5Z"/><path class="cls-4" d="M24.83,32.7A70.14,70.14,0,0,1,25,17l.41.2a17.26,17.26,0,0,0,4.85,1.69,13.45,13.45,0,0,0,8.91-1.44,19.27,19.27,0,0,0,5-3.93,25.37,25.37,0,0,0,3.55-4.83l.12-.19.21.35a24.49,24.49,0,0,0,5.68,6.73,15.38,15.38,0,0,0,6.35,3.2,13.73,13.73,0,0,0,7.33-.4,19,19,0,0,0,2.91-1.22l.25-.13h.12a70.13,70.13,0,0,1,.16,15.56l-.05,0,0,0-45.62,0-.34,0"/><path class="cls-4" d="M35.7,60.37a50.22,50.22,0,0,1-5.26-8.68L47.86,34.26l17.37,17.4A46.75,46.75,0,0,1,60,60.35l-6.05-6-6.07-6.07L35.7,60.37"/></g></g><path class="cls-4" d="M118.7,28.26h-3V3.93h8.63q4,0,6,2.2a7.41,7.41,0,0,1,1.92,5,7,7,0,0,1-2.09,5.19,7.5,7.5,0,0,1-5.48,2h-5.9Zm0-12.4h5.6a4.75,4.75,0,0,0,3.48-1.29,4.56,4.56,0,0,0,1.32-3.41,5,5,0,0,0-1.18-3.24,4.16,4.16,0,0,0-3.4-1.43H118.7Z"/><path class="cls-4" d="M139.85,28.26h-2.8v-18h2.46v4.21a9,9,0,0,1,2.61-3.86,4.75,4.75,0,0,1,2.68-.88,11.06,11.06,0,0,1,1.1.07v2.67h-.57a4.93,4.93,0,0,0-3.85,1.73,7,7,0,0,0-1.64,4.54Z"/><path class="cls-4" d="M153.21,3.93V7h-3V3.93Zm-.09,6.33v18h-2.8v-18Z"/><path class="cls-4" d="M174.13,28.26h-2.62V16.69a4.67,4.67,0,0,0-1.09-3.51,3.72,3.72,0,0,0-2.64-1,4.53,4.53,0,0,0-3.59,1.71,6.73,6.73,0,0,0-1.45,4.51v9.87h-2.8v-18h2.6v3.32q2.19-3.81,5.69-3.81a5.63,5.63,0,0,1,3.43,1,5.54,5.54,0,0,1,1.94,2.34,14.25,14.25,0,0,1,.53,4.71Z"/><path class="cls-4" d="M191.6,21.95l2.53.45a8.06,8.06,0,0,1-2.37,4.67A7.16,7.16,0,0,1,181.51,26a11.29,11.29,0,0,1-2-6.71,11,11,0,0,1,2.06-6.82,6.66,6.66,0,0,1,5.61-2.72,6.41,6.41,0,0,1,4.71,1.76,7.86,7.86,0,0,1,2.2,4.54l-2.53.48q-.71-4.46-4.3-4.46a4,4,0,0,0-3.56,2,9.42,9.42,0,0,0-1.25,5.11,9.87,9.87,0,0,0,1.24,5.37,3.91,3.91,0,0,0,3.48,1.92Q190.68,26.44,191.6,21.95Z"/><path class="cls-4" d="M211.09,22.89l2.6.53a7.32,7.32,0,0,1-2.78,3.82A8,8,0,0,1,206,28.76a7.57,7.57,0,0,1-6-2.6,9.93,9.93,0,0,1-2.28-6.81,10,10,0,0,1,2.37-6.95,7.65,7.65,0,0,1,6-2.65,7.19,7.19,0,0,1,5.68,2.44q2.15,2.44,2.2,7.31H200.92q0,4.08,1.71,5.51a5.57,5.57,0,0,0,3.62,1.43Q209.69,26.44,211.09,22.89Zm-.16-5.47a7.83,7.83,0,0,0-.5-2.69,4.6,4.6,0,0,0-1.57-2,4.3,4.3,0,0,0-2.66-.83,4.74,4.74,0,0,0-3.54,1.5,6.19,6.19,0,0,0-1.63,4Z"/><path class="cls-4" d="M227.43,26.35v2.21a19.86,19.86,0,0,1-2.57.2q-5.22,0-5.22-5.46V12.45h-3.19V10.26h3.19l.13-4.53,2.6-.25v4.78h4v2.19h-4V23.76q0,2.78,2.89,2.78A13.69,13.69,0,0,0,227.43,26.35Z"/><path class="cls-4" d="M237.63,28.76A6.84,6.84,0,0,1,231.85,26a11,11,0,0,1-2.08-6.81,9.82,9.82,0,0,1,2.33-6.87,7.53,7.53,0,0,1,5.81-2.57,7.1,7.1,0,0,1,5.87,2.7,10.51,10.51,0,0,1,2.15,6.75,10.11,10.11,0,0,1-2.32,6.88A7.56,7.56,0,0,1,237.63,28.76Zm.21-2.32a4.45,4.45,0,0,0,3.58-1.76q1.44-1.77,1.44-5.49t-1.52-5.43a4.63,4.63,0,0,0-3.55-1.68,4.46,4.46,0,0,0-3.53,1.7q-1.44,1.7-1.45,5.39,0,3.9,1.45,5.59A4.51,4.51,0,0,0,237.85,26.44Z"/><path class="cls-4" d="M265.57,28.26H263V16.69a4.67,4.67,0,0,0-1.09-3.51,3.72,3.72,0,0,0-2.64-1,4.52,4.52,0,0,0-3.59,1.71,6.73,6.73,0,0,0-1.45,4.51v9.87h-2.8v-18H254v3.32q2.19-3.81,5.69-3.81a5.63,5.63,0,0,1,3.43,1A5.54,5.54,0,0,1,265,13.15a14.28,14.28,0,0,1,.53,4.71Z"/><path class="cls-4" d="M296.89,3.93h2.53V19.82q0,4.78-2.34,6.86a8.91,8.91,0,0,1-6.14,2.08q-4.22,0-6.26-2.14t-2-6.8V3.93h3V19.82a8.65,8.65,0,0,0,.66,4,3.93,3.93,0,0,0,2,1.71,7.24,7.24,0,0,0,2.8.55,5.75,5.75,0,0,0,4.28-1.48q1.46-1.48,1.46-4.78Z"/><path class="cls-4" d="M320.14,28.26h-2.62V16.69a4.67,4.67,0,0,0-1.09-3.51,3.72,3.72,0,0,0-2.64-1,4.52,4.52,0,0,0-3.59,1.71,6.73,6.73,0,0,0-1.45,4.51v9.87H306v-18h2.6v3.32q2.19-3.81,5.69-3.81a5.63,5.63,0,0,1,3.43,1,5.54,5.54,0,0,1,1.94,2.34,14.27,14.27,0,0,1,.53,4.71Z"/><path class="cls-4" d="M329.87,3.93V7h-3V3.93Zm-.09,6.33v18H327v-18Z"/><path class="cls-4" d="M349.79,10.26l-6.22,18h-2.88l-6.45-18h3.11l5,14.63,5-14.63Z"/><path class="cls-4" d="M365.61,22.89l2.6.53a7.32,7.32,0,0,1-2.78,3.82,8,8,0,0,1-4.87,1.51,7.57,7.57,0,0,1-6-2.6,9.93,9.93,0,0,1-2.28-6.81,10,10,0,0,1,2.37-6.95,7.65,7.65,0,0,1,6-2.65,7.19,7.19,0,0,1,5.68,2.44q2.15,2.44,2.2,7.31H355.43q0,4.08,1.71,5.51a5.57,5.57,0,0,0,3.62,1.43Q364.2,26.44,365.61,22.89Zm-.16-5.47a7.81,7.81,0,0,0-.5-2.69,4.61,4.61,0,0,0-1.57-2,4.31,4.31,0,0,0-2.66-.83,4.74,4.74,0,0,0-3.54,1.5,6.19,6.19,0,0,0-1.63,4Z"/><path class="cls-4" d="M376.76,28.26H374v-18h2.46v4.21A9,9,0,0,1,379,10.61a4.75,4.75,0,0,1,2.68-.88c.29,0,.65,0,1.11.07v2.67h-.57a4.93,4.93,0,0,0-3.85,1.73,7,7,0,0,0-1.64,4.54Z"/><path class="cls-4" d="M385,23.59,387.7,23q.89,3.4,5.63,3.4a5.34,5.34,0,0,0,3-.78,2.49,2.49,0,0,0,1.21-2.21q0-2.12-3.08-2.69L390.62,20a6.93,6.93,0,0,1-3.55-1.68,4.33,4.33,0,0,1-1.32-3.3,4.76,4.76,0,0,1,1.8-3.79,7.25,7.25,0,0,1,4.85-1.52q5.86,0,7.23,4.58l-2.57.55q-1.1-2.82-4.54-2.82a5.11,5.11,0,0,0-2.81.7,2.21,2.21,0,0,0-1.1,2q0,2,2.8,2.51l3.51.63q5.51,1,5.51,5.34a4.77,4.77,0,0,1-2,4,8.92,8.92,0,0,1-5.46,1.53Q386.54,28.76,385,23.59Z"/><path class="cls-4" d="M408.5,3.93V7h-3V3.93Zm-.09,6.33v18h-2.8v-18Z"/><path class="cls-4" d="M423.4,26.35v2.21a19.87,19.87,0,0,1-2.57.2q-5.22,0-5.22-5.46V12.45h-3.19V10.26h3.19l.13-4.53,2.6-.25v4.78h4v2.19h-4V23.76q0,2.78,2.89,2.78A13.7,13.7,0,0,0,423.4,26.35Z"/><path class="cls-4" d="M440.06,10.26l-7.22,20.11q-1.57,4.35-5,4.35a8.87,8.87,0,0,1-2.41-.37V32.14a8.57,8.57,0,0,0,1.87.25,3.33,3.33,0,0,0,2.24-.77q.9-.77,1.79-3.74L425.1,10.26h2.84l4.83,13.53,4.92-13.53Z"/><path class="cls-4" d="M116,43.11h7.42V84.2h22v6.51H116Z"/><path class="cls-4" d="M161.61,43.11H169v47.6h-7.35Z"/><path class="cls-4" d="M187.86,43.11h17.29c8.89,0,13.44,5.39,13.44,12a9,9,0,0,1-6.44,9.17c6.37,1.47,9.73,6,9.73,12.11,0,8.19-5.46,14.35-15.47,14.35H187.86Zm16.94,18.55c4.41,0,6.51-2.45,6.51-6s-2-6-6.65-6h-9.38v12ZM206,84.2c5.74,0,8.47-3.36,8.47-8.12S211.53,68,205.65,68H195.28V84.2Z"/><path class="cls-4" d="M270.68,90.71h-8.54l-8.54-12.53a38.3,38.3,0,0,1-4,.28h-4.48V90.71H237.7V43.11h11.9c13.16,0,20.51,6.86,20.51,17.78,0,7.35-3.29,12.39-9.52,15.12ZM249.32,72.09c9.45,0,13.23-4.13,13.23-11.2s-3.92-11.27-13.23-11.27h-4.2V72.09Z"/><path class="cls-4" d="M303.57,42.62h.84l20.86,48.09h-7.7L314.85,84H293.07l-2.73,6.72H283.2Zm8.61,35.14-6-14.84a71.79,71.79,0,0,1-2.38-7.07,64.14,64.14,0,0,1-2.31,7.07l-6,14.84Z"/><path class="cls-4" d="M373.22,90.71h-8.54l-8.54-12.53a38.3,38.3,0,0,1-4,.28h-4.48V90.71h-7.42V43.11h11.9c13.16,0,20.51,6.86,20.51,17.78,0,7.35-3.29,12.39-9.52,15.12ZM351.87,72.09c9.45,0,13.23-4.13,13.23-11.2s-3.92-11.27-13.23-11.27h-4.2V72.09Z"/><path class="cls-4" d="M402.41,75.66,384.35,43.11h8.19l10.78,19.6a50.68,50.68,0,0,1,2.87,6.86,63.32,63.32,0,0,1,2.87-6.86l10.43-19.6h7.63L409.83,75.24V90.71h-7.42Z"/></svg>