<?xml version="1.0" standalone="no"?>
<!DOCTYPE svg PUBLIC "-//W3C//DTD SVG 1.1//EN" "http://www.w3.org/Graphics/SVG/1.1/DTD/svg11.dtd" >
<svg xmlns="http://www.w3.org/2000/svg" xmlns:xlink="http://www.w3.org/1999/xlink" version="1.1">
<metadata></metadata>
<defs>
<font id="princetonmontidsosregular" horiz-adv-x="1533" >
<font-face units-per-em="2048" ascent="1516" descent="-532" />
<missing-glyph horiz-adv-x="557" />
<glyph horiz-adv-x="0" />
<glyph horiz-adv-x="682" />
<glyph unicode=" "  horiz-adv-x="557" />
<glyph unicode="&#x09;" horiz-adv-x="557" />
<glyph unicode="&#xa0;" horiz-adv-x="557" />
<glyph unicode="!" horiz-adv-x="667" d="M231 88q0 49 29 82t88 33q51 0 78 -30t27 -77q0 -53 -28 -87t-83 -34t-83 33t-28 80zM244 1319q0 63 10 94q29 68 88 68q51 0 78 -27q16 -14 23.5 -39.5t7.5 -54.5q0 -25 -2.5 -51.5t-6.5 -65.5t-11 -96t-17 -143q-20 -174 -28.5 -327t-18.5 -261q-4 -4 -13.5 -7 t-15.5 -3q-4 0 -12.5 2t-14.5 4q-2 23 -6 87t-9 149t-12.5 177.5t-15.5 169.5q-10 100 -17 185.5t-7 138.5z" />
<glyph unicode="&#x22;" horiz-adv-x="743" d="M90 1376q0 41 30 76t77 35t76.5 -35t29.5 -76q0 -20 -9 -75.5t-22.5 -127t-27 -150.5t-23.5 -149q0 -4 -11 -9t-15 -5t-15.5 5t-11.5 9q-8 68 -21.5 147t-25.5 149.5t-21.5 127t-9.5 78.5zM449 1376q0 41 29.5 76t76.5 35t77 -35t30 -76q0 -20 -9.5 -75.5t-23 -127 t-26.5 -150.5t-23 -149q0 -4 -11.5 -9t-15.5 -5t-15.5 5t-11.5 9q-8 68 -21 147t-25.5 149.5t-21.5 127t-9 78.5z" />
<glyph unicode="#" d="M231 422l25 131h289l37 217h-293l24 131h293l72 428h72l-78 -428h274l72 428h72l-78 -428h291l-25 -131h-289l-37 -217h293l-24 -131h-291l-74 -438h-72l78 438h-272l-74 -438h-72l78 438h-291zM610 553h277l37 217h-277z" />
<glyph unicode="$" horiz-adv-x="1150" d="M102 279q0 37 19.5 62.5t54.5 25.5q31 0 51.5 -21.5t36.5 -71.5q29 -84 81 -136t134 -64l51 553q-43 12 -97 31.5t-101 58.5q-66 53 -95.5 117.5t-29.5 154.5q0 76 33.5 140.5t88 111.5t123 74.5t136.5 32.5l8 161l37 21l33 -21l-4 -161q23 -2 78 -13.5t106 -36.5 q76 -35 109.5 -83t33.5 -105q0 -41 -16.5 -61.5t-40.5 -20.5q-23 0 -40.5 14.5t-43.5 67.5q-35 72 -86 119t-111 51l-41 -512q23 -8 54.5 -20.5t65.5 -25.5t63.5 -27.5t50.5 -28.5q84 -55 117.5 -128t33.5 -163q0 -201 -168 -305q-121 -68 -282 -74l-23 -246l-37 -29l-32 29 l20 256q-47 8 -103.5 19.5t-127.5 52.5q-76 43 -108 94t-32 107zM324 1044q0 -104 56 -167.5t167 -96.5q4 49 11 125t13 142q4 53 8.5 118.5t6.5 116.5q-43 0 -89 -12.5t-84 -40t-63.5 -72.5t-25.5 -113zM545 66q10 -2 22.5 -2.5t24.5 -0.5q125 0 194 76q41 43 58.5 82 t17.5 109q0 39 -7 73.5t-24 59.5q-23 35 -58.5 60.5t-72 44t-66.5 28.5t-42 12z" />
<glyph unicode="%" horiz-adv-x="1644" d="M102 864q0 193 144 361q66 74 139.5 109.5t138.5 35.5q92 0 193 -80q18 -14 30.5 -24.5t24.5 -16.5t28.5 -8t41.5 -2q68 0 119 7t95 24.5t84 48.5t87 76q16 16 30.5 20t30.5 4t19.5 -9t-0.5 -19l-822 -1403q-25 -35 -61 -35q-20 0 -31.5 11t-1.5 28l725 1229l-6 4 q-49 -23 -102.5 -38.5t-106.5 -15.5q-35 0 -74 4.5t-63 8.5q0 -84 -19.5 -163t-64.5 -159q-70 -129 -157 -188.5t-191 -59.5t-167 63.5t-63 186.5zM223 815q0 -66 36 -98.5t85 -32.5q90 0 179 77t143 238q12 41 20 80t8 64v47q-41 29 -75.5 58.5t-59.5 54.5 q-25 0 -48.5 -9.5t-33.5 -17.5q-47 -33 -85 -77t-83 -120q-45 -82 -65.5 -148.5t-20.5 -115.5zM918 233q0 127 69 254q59 106 153.5 177t211.5 71q111 0 168 -61.5t57 -159.5q0 -70 -19.5 -142.5t-53.5 -138t-79 -119t-98 -85.5q-92 -55 -176 -56q-109 0 -171 71t-62 189z M1040 170q0 -57 37 -91t92 -34q70 0 131.5 46t107.5 114.5t72.5 147.5t26.5 147q0 66 -34.5 114t-98.5 48q-47 0 -94 -35t-100 -103q-74 -98 -107 -187t-33 -167z" />
<glyph unicode="&#x26;" horiz-adv-x="1492" d="M123 395q0 129 58.5 239.5t144.5 182.5q8 6 20 17.5t23 17.5l-37 37q-74 74 -113 141.5t-39 159.5q0 68 23.5 123t66.5 94t101.5 60.5t126.5 21.5q63 0 119.5 -18.5t99.5 -54.5t67.5 -86t24.5 -113q0 -86 -46 -160t-149 -127q-18 -10 -30.5 -15.5t-22.5 -11.5 q23 -27 50.5 -52.5t54.5 -49.5q43 -41 94 -91.5t100 -99.5l91 -91t67 -64l45 -41q35 70 59.5 147.5t26.5 155.5q-8 29 -17.5 48t-20.5 32.5t-22.5 22.5t-25.5 22q-16 4 -49 11t-99 9q-4 8 -5 12.5t-1 14.5t3 13t8 11q49 4 109.5 6.5t144.5 2.5q33 0 78.5 -1t89.5 -2t77 -2.5 t39 -1.5q10 -10 10 -22q0 -4 -2 -11.5t-4 -13.5q-41 -8 -82 -17t-63 -26q-16 -12 -29.5 -25.5t-27.5 -56.5q-4 -12 -21.5 -59t-46.5 -123q-10 -27 -22.5 -55.5t-24.5 -54t-21.5 -46t-15.5 -30.5q6 -8 15.5 -19.5t25.5 -29t40.5 -40t63.5 -57.5q49 -45 91 -73.5t63 -28.5 q10 0 23.5 11.5t19.5 17.5q10 0 19.5 -1.5t13.5 -11.5q-2 -18 -11.5 -44.5t-27 -51t-46 -41t-69.5 -16.5q-33 0 -59.5 13t-61.5 40q-18 16 -45.5 42t-55.5 53.5t-53.5 54t-41.5 43.5q-94 -117 -203 -179.5t-244 -62.5q-88 0 -168 29.5t-141 83t-97 127t-36 161.5zM268 551 q0 -86 29 -164t84 -137.5t136 -95t185 -35.5q41 0 81 15.5t76 40t63.5 54t44.5 58.5l-551 526q-23 -14 -49.5 -39.5t-48 -58.5t-36 -74t-14.5 -90zM315 1264q0 -29 8.5 -65t30.5 -71q29 -41 57.5 -74.5t69.5 -76.5q8 -8 19.5 -16.5t21.5 -12.5q31 16 59.5 41t52 56.5 t38 68.5t14.5 78q0 109 -60.5 176.5t-148.5 67.5q-29 0 -57.5 -10.5t-52 -32t-38 -54t-14.5 -75.5z" />
<glyph unicode="'" horiz-adv-x="393" d="M90 1376q0 41 30 76t77 35t76.5 -35t29.5 -76q0 -20 -9 -75.5t-22.5 -127t-27 -150.5t-23.5 -149q0 -4 -11 -9t-15 -5t-15.5 5t-11.5 9q-8 68 -21.5 147t-25.5 149.5t-21.5 127t-9.5 78.5z" />
<glyph unicode="(" horiz-adv-x="811" d="M147 586q0 293 119 514q20 39 50 86t69 98t86 100.5t100 90.5q18 16 28.5 22t21.5 10q6 0 18 -1t18 -9q14 -20 17 -35q-10 -10 -19.5 -20t-17.5 -19q-35 -35 -77 -83t-83 -105q-78 -111 -123 -273.5t-45 -388.5q0 -217 52.5 -392t168.5 -322q33 -41 64 -71t53 -50 q19 -15 27 -29q-4 -25 -15 -35q-12 -12 -34 -14q-29 14 -56.5 37.5t-81.5 71.5q-96 94 -159.5 195.5t-104.5 199.5q-37 92 -56.5 197.5t-19.5 224.5z" />
<glyph unicode=")" horiz-adv-x="811" d="M137 -295q10 10 19.5 20.5t17.5 18.5q35 35 77 83t83 105q78 111 123 274t45 388q0 217 -52.5 392t-168.5 323q-33 41 -64 70.5t-53 50.5q-18 14 -27 28q4 25 15 35q12 12 34 14q29 -14 56.5 -37.5t81.5 -70.5q96 -94 159.5 -195.5t104.5 -199.5q76 -189 76 -422 q0 -293 -119 -514q-20 -39 -50 -86.5t-69 -98.5t-86 -100t-100 -90q-18 -16 -28.5 -22.5t-21.5 -10.5q-6 0 -18 1t-18 9q-14 20 -17 35z" />
<glyph unicode="*" horiz-adv-x="925" d="M123 995q0 16 12 54q12 41 90 67q16 6 63.5 20.5t129.5 34.5l20 5v8q-53 23 -107.5 53.5t-107.5 71.5q-66 45 -65 110q0 16 13 26.5t30 10.5q25 0 40 -3t23 -7q31 -18 92 -98q14 -16 28.5 -40t31.5 -55q6 -10 14 -23t12 -18q4 -6 15 -6l14 25l41 100q16 37 30.5 70 t30.5 61q10 18 26.5 23.5t47.5 5.5t41 -12q6 -8 6 -45q0 -31 -26 -70q-18 -23 -54 -53.5t-71 -65.5q-16 -16 -26.5 -24.5t-31.5 -28.5l-2 -12q29 2 40.5 0t21.5 -2q92 0 147.5 -7.5t75.5 -15.5q23 -6 33 -33q4 -10 9 -20.5t5 -18.5q0 -20 -27 -36q-23 -14 -47 -15 q-14 0 -35.5 8.5t-52.5 22.5q-53 29 -94 49.5t-70 38.5l-6 -2q6 -25 18.5 -71t28.5 -107q12 -41 16.5 -67.5t4.5 -43.5q0 -14 -5 -24.5t-14 -24.5q-10 -12 -21 -17.5t-19 -5.5q-18 0 -43 21q-10 14 -16.5 27.5t-6.5 35.5q0 25 3 61t7 76t8.5 76.5t8.5 61.5l-9 4 q-25 -29 -60.5 -57.5t-84.5 -67.5q-27 -25 -48.5 -35t-35.5 -14q-10 -4 -20.5 -5t-24.5 -1q-47 0 -47 24z" />
<glyph unicode="+" d="M176 457v104h537v537h106v-537h537v-104h-537v-537h-106v537h-537z" />
<glyph unicode="," horiz-adv-x="479" d="M109 111q0 43 26.5 73.5t79.5 30.5q37 0 68.5 -12.5t54.5 -40.5q29 -37 41 -73t12 -91q0 -141 -92 -266q-29 -35 -67.5 -69t-75.5 -50q-12 2 -22.5 11t-12.5 20q20 18 49 45.5t54.5 65.5t44 86t18.5 108q0 31 -23 49q-8 4 -17 7t-26 5q-53 4 -82.5 30t-29.5 71z" />
<glyph unicode="-" horiz-adv-x="636" d="M80 408v124h477v-124h-477z" />
<glyph unicode="." horiz-adv-x="479" d="M117 104q0 53 34.5 87t98.5 34q53 0 82.5 -32.5t29.5 -83.5q0 -61 -33.5 -95t-90.5 -34q-53 0 -87 34.5t-34 89.5z" />
<glyph unicode="/" horiz-adv-x="954" d="M-20 -360l968 1794q16 27 40 38t44 11q29 0 38 -16.5t-5 -41.5l-977 -1792q-29 -47 -65 -47q-25 0 -41.5 14.5t-1.5 39.5z" />
<glyph unicode="0" horiz-adv-x="1069" d="M78 455q0 100 31.5 189t103.5 161q76 72 156 104.5t166 32.5q59 0 115.5 -16.5t117.5 -53.5q109 -68 166 -174t57 -233q0 -98 -33.5 -187.5t-105.5 -162.5q-63 -66 -148.5 -104t-171.5 -38q-84 0 -162.5 32t-156.5 101q-72 74 -103.5 160t-31.5 189zM244 459 q0 -211 92 -324q37 -45 83 -72.5t118 -27.5q74 0 128 30.5t90 87t53 133.5t17 169q0 117 -26.5 197.5t-71.5 133.5q-39 47 -83 72t-116 25q-68 0 -111.5 -27t-78.5 -70q-49 -59 -71.5 -138t-22.5 -189z" />
<glyph unicode="1" horiz-adv-x="798" d="M84 893q0 10 12 29h84q53 0 111.5 -4.5t91.5 -4.5q90 0 159.5 2.5t98.5 2.5h64q4 -6 7 -13.5t3 -15.5q0 -14 -10 -35q-25 0 -53.5 -1t-57.5 -3t-51.5 -8t-34.5 -17q-18 -16 -27.5 -45.5t-9.5 -64.5v-447q0 -47 9 -93t22 -66q12 -20 37.5 -30.5t56.5 -16t60.5 -6.5 t48.5 -1q4 -10 7 -15t3 -13q0 -14 -8 -31q-104 0 -175 3t-131 3q-78 0 -157.5 -4t-145.5 -4q-4 10 -7 15t-3 16q0 8 2 15t6 17q27 2 57.5 3t60.5 5.5t54.5 16.5t36.5 35q8 14 14.5 58t6.5 85v275q0 82 -1 157.5t-22 114.5q-10 18 -23.5 27.5t-36 13.5t-59.5 6t-94 8 q-4 8 -5 16.5t-1 14.5z" />
<glyph unicode="2" horiz-adv-x="1060" d="M78 27q0 6 1 12t1 10q12 10 26.5 19.5t32.5 21.5q102 66 210 127.5t224 153.5q57 43 92 82t53.5 74.5t25 68.5t6.5 63q0 80 -67 127.5t-177 47.5q-53 0 -115.5 -17.5t-107.5 -50.5t-63.5 -67.5t-18.5 -61.5q0 -12 3 -30.5t15 -33.5q6 -8 17.5 -15t27.5 -7q14 0 26.5 4 t35.5 14q37 14 51 15q8 0 19.5 -5.5t15.5 -11.5q14 -20 14 -24v-12.5t-8 -20.5q-23 -29 -62 -54.5t-84 -25.5q-35 0 -61.5 9.5t-48.5 35.5q-16 18 -24.5 46t-8.5 63q0 31 10.5 67.5t29.5 71.5t47 67.5t60 57.5q61 47 132 74.5t137 27.5q88 0 147.5 -15t114.5 -61 q53 -43 76.5 -98t23.5 -121q0 -78 -39 -139t-98 -106q-109 -78 -212 -139.5t-208 -114.5v-13h223q111 0 176.5 4.5t81.5 8.5q12 4 23.5 21.5t21 42t17.5 52t14 47.5q16 6 33 7q10 0 15.5 -5.5t15.5 -9.5l-35 -198q-8 -41 -14.5 -63.5t-16.5 -41.5q-20 -4 -39.5 -5t-62.5 -1 h-719q-6 12 -6 25z" />
<glyph unicode="3" horiz-adv-x="1011" d="M41 -219q0 51 27 86q12 14 31.5 21.5t41.5 7.5q31 0 56.5 -18.5t35.5 -57.5q8 -25 11.5 -66t3.5 -110q35 -23 78 -33t82 -10q47 0 93 9t88 28.5t76.5 53.5t59.5 83q37 74 37 164q0 66 -31 124t-72 91q-47 37 -112 71q-16 10 -37 18.5t-25 10.5q-16 12 -16 22q0 6 6 17.5 t19 15.5q31 12 63.5 23.5t77.5 40.5q63 37 89 89t26 118q0 51 -21.5 94t-60.5 73.5t-91.5 48t-111.5 17.5q-55 0 -106.5 -17.5t-86.5 -50.5q-25 -23 -44 -57.5t-19 -69.5t7 -64.5t24 -45.5q10 -10 24.5 -16.5t30.5 -6.5q10 0 22.5 5.5t22.5 15.5q23 14 39 14q27 0 27 -33 q0 -14 -10.5 -28.5t-28.5 -38.5q-14 -18 -46 -28.5t-59 -10.5q-51 0 -90 32.5t-39 127.5q0 53 13.5 106t43.5 107q59 100 168 149q49 23 90 32t91 9q72 0 131 -20.5t104 -63.5q90 -86 90 -213q0 -121 -86 -229q-20 -20 -37.5 -38t-38.5 -34q-14 -10 -25 -16t-11 -15 q0 -4 12 -10t33 -18q41 -27 78.5 -56.5t62.5 -62.5q39 -53 57.5 -102t18.5 -121q0 -59 -12.5 -105.5t-41.5 -97.5q-33 -55 -84 -95t-112.5 -66.5t-131 -39t-138.5 -12.5q-150 0 -271 80q-47 35 -71.5 80t-24.5 92z" />
<glyph unicode="4" horiz-adv-x="1089" d="M12 59q23 35 46.5 68t47.5 63l357 447q92 117 156.5 205t78.5 110q10 4 15.5 7.5t15.5 3.5q12 0 15.5 -3.5t13.5 -9.5q-2 -33 -5 -90t-6.5 -117.5t-5.5 -115t-2 -82.5v-455h97q47 0 74.5 5t50.5 28q14 12 18 55t8 78q10 4 25 4q12 0 26 -6v-397q-10 -4 -15 -7.5t-13 -3.5 t-11.5 2t-13.5 7q-2 12 -4 29.5t-3 33.5t-3 29.5t-4 17.5q-18 35 -70.5 40t-163.5 5l4 -473h-155l6 473h-543q-16 2 -25.5 19.5t-11.5 29.5zM135 94h457v352l6 203q0 12 -8 13q-4 0 -22.5 -23t-30.5 -39z" />
<glyph unicode="5" horiz-adv-x="958" d="M23 -258q0 47 20 71.5t68 24.5q37 0 61.5 -18.5t42.5 -77.5q16 -49 24.5 -67.5t18.5 -32.5q35 -47 111 -48q43 0 89 14.5t74 37.5q74 55 115 146t41 202q0 72 -20.5 126t-55.5 95q-76 88 -182 88q-78 0 -123 -22.5t-80 -51.5l-22 -90q-6 -4 -13.5 -7t-15.5 -3 q-16 0 -24.5 7t-12.5 14l150 780q8 8 26 8q8 -2 21.5 -5t23.5 -7q84 -29 137.5 -46.5t89.5 -25.5t60.5 -10t46.5 -2q31 0 53.5 5t40 19.5t32 39t28.5 63.5q18 6 29 6q6 0 10 -4t14 -8q0 -41 -2 -74t-18 -62q-20 -41 -59.5 -64.5t-94.5 -35.5q-63 -12 -180 -12h-225l-82 -393 l8 -3q59 45 130 69t120 24q66 0 133 -26t112 -75q51 -63 80 -135t29 -160q0 -106 -38 -193t-105 -159q-72 -68 -169.5 -101.5t-201.5 -33.5q-63 0 -120.5 15.5t-100.5 44t-68.5 67.5t-25.5 86z" />
<glyph unicode="6" horiz-adv-x="1103" d="M113 526q0 117 23.5 226.5t82.5 220.5q70 137 139.5 216t147.5 126q57 35 116.5 51t112.5 16q78 0 126 -43t48 -110q0 -100 -98 -101q-29 0 -53.5 9.5t-40.5 36.5q-8 12 -13.5 37.5t-11.5 48.5q-4 16 -10 26t-16 10q-53 0 -104.5 -32.5t-95.5 -87t-78 -122t-52 -136.5 q-8 -29 -13.5 -54.5t-9.5 -50.5q49 35 117 56.5t129 21.5q104 0 188 -31t142 -94q121 -139 121 -336q0 -135 -60 -254q-25 -49 -65.5 -87t-91 -63.5t-106.5 -38t-112 -12.5q-135 0 -248.5 67t-168.5 212q-45 117 -45 272zM272 522q0 -174 47 -284q39 -92 112 -146.5 t169 -54.5q63 0 109.5 30.5t77 82t45 119t14.5 139.5q0 68 -16.5 126t-43 105t-59.5 83t-68 58q-23 16 -54.5 25.5t-72.5 9.5q-35 0 -74.5 -7t-80.5 -30q-39 -23 -60.5 -45t-31.5 -53q-8 -25 -10.5 -68t-2.5 -90z" />
<glyph unicode="7" horiz-adv-x="1007" d="M68 539q25 90 49 187t35 161q4 31 10 37t20 12q29 0 51.5 -19.5t63.5 -31.5q29 -10 88 -16.5t113 -6.5q90 0 163.5 6t133.5 23q47 14 91 33.5t75 36.5q16 -2 21 -6.5t9 -20.5q-4 -10 -13 -28.5t-28 -53.5q-53 -92 -83.5 -158.5t-59.5 -128.5l-150 -368q-12 -31 -26.5 -71 t-26.5 -89q-10 -39 -19.5 -86t-9.5 -101q0 -66 2.5 -112.5t2.5 -85.5q0 -76 -25 -115t-88 -39q-59 0 -77.5 41t-18.5 92q0 33 6 74t26 100q16 53 38 108.5t34 82.5l201 448q12 29 32.5 72l41 86t38 79t25.5 52h-512q-47 0 -85 -45t-87 -162q-6 -2 -13 -4t-14 -2q-12 0 -18 5 t-16 14z" />
<glyph unicode="8" horiz-adv-x="1105" d="M123 346q0 160 113 252q29 23 73.5 42t89.5 30q-57 37 -103 65.5t-83 83.5q-35 51 -48 103.5t-13 105.5q0 154 110 258q119 100 281 100q117 0 221 -55q92 -47 143 -127t51 -172q0 -47 -15 -90t-46 -90q-47 -68 -174 -133q41 -23 83 -41.5t77 -50.5q49 -47 78.5 -120 t29.5 -157t-27.5 -152.5t-84.5 -117.5q-125 -102 -330 -103q-184 0 -311 109q-59 53 -87 119.5t-28 140.5zM279 360q0 -158 73 -233q33 -43 82 -66.5t98 -23.5q125 0 218 86q79 72 79 215q0 129 -57 194.5t-178 92.5q-27 6 -58.5 9t-48.5 3h-41q-168 -66 -167 -277z M293 1051q0 -61 22.5 -114.5t71.5 -94.5q45 -41 99.5 -64.5t123.5 -23.5h62q59 55 97 125.5t38 160.5q0 127 -86 209q-37 41 -79 58.5t-95 17.5q-98 0 -170 -74q-84 -82 -84 -200z" />
<glyph unicode="9" horiz-adv-x="1112" d="M90 473q0 207 119 332q68 68 152.5 102.5t181.5 34.5q61 0 122.5 -18.5t115 -55.5t98.5 -92t71 -129q47 -123 47 -262q0 -236 -114 -471q-49 -104 -109.5 -177t-128 -119t-139.5 -66.5t-144 -20.5q-90 0 -141 48t-51 114q0 43 26.5 69.5t69.5 26.5q92 0 117 -123 q6 -31 22.5 -43t45.5 -12q37 0 77.5 18.5t78.5 53t71 84t55 110.5q16 45 30.5 96.5t14.5 94.5q0 10 -6 10t-28.5 -7.5t-49.5 -13.5q-94 -27 -188 -26q-92 0 -168 33.5t-131 94t-86 141.5t-31 173zM256 477q0 -174 92 -280q41 -49 90 -73t117 -24q86 0 158.5 33t109.5 92 q13 74 13 234q0 193 -103 315q-43 53 -98 81t-115 28q-74 0 -127 -47q-59 -47 -98 -140.5t-39 -218.5z" />
<glyph unicode=":" horiz-adv-x="647" d="M199 100q0 53 35.5 85t95.5 32q53 0 80.5 -33t27.5 -80q0 -61 -33.5 -94t-87.5 -33q-51 0 -84.5 35t-33.5 88zM199 752q0 53 35.5 84.5t95.5 31.5q53 0 80.5 -32.5t27.5 -79.5q0 -61 -33.5 -94t-87.5 -33q-51 0 -84.5 34.5t-33.5 88.5z" />
<glyph unicode=";" horiz-adv-x="647" d="M176 -332q10 10 28.5 27.5t43.5 42.5q53 53 81.5 115.5t28.5 107.5q0 23 -10 34t-20 13q-55 10 -79 35t-24 68q0 47 31 76.5t84 29.5q66 0 104.5 -46t38.5 -124q0 -96 -41 -170q-25 -47 -49 -83t-67 -79q-25 -25 -60 -49t-55 -31q-29 4 -35 33zM219 752q0 53 36 84.5 t95 31.5q53 0 81 -32.5t28 -79.5q0 -61 -34 -94t-87 -33q-51 0 -85 34.5t-34 88.5z" />
<glyph unicode="&#x3c;" d="M203 457v104l1114 461v-123l-983 -389l983 -391v-123z" />
<glyph unicode="=" d="M217 287v102h1100v-102h-1100zM217 629v104h1100v-104h-1100z" />
<glyph unicode="&#x3e;" d="M217 -4v123l983 391l-983 389v123l1114 -461v-104z" />
<glyph unicode="?" horiz-adv-x="901" d="M135 1194q0 68 26.5 121t70.5 89t103.5 55.5t127.5 19.5q80 0 148.5 -26t119.5 -77q49 -51 76 -118.5t27 -153.5q0 -121 -58 -221q-35 -53 -104.5 -112.5t-186.5 -121.5q-35 -20 -61.5 -42.5t-48.5 -47.5q-16 -14 -20.5 -26.5t-4.5 -28.5q0 -23 36 -49.5t99 -44.5 q4 -12 4 -25q0 -16 -7 -23.5t-19 -13.5q-37 0 -71 15.5t-70 44.5q-31 23 -42.5 55.5t-11.5 73.5q0 59 39 108q14 16 45 43t78 64q63 51 110.5 91t71.5 68q35 37 50.5 85t15.5 108q0 127 -74 201q-39 37 -88 58t-115 21q-102 0 -152 -53t-50 -137q0 -66 24 -96 q10 -12 18.5 -19.5t20.5 -7.5q4 0 12.5 2t8.5 4q4 16 6 31.5t12 28.5q25 33 74 32q49 0 71.5 -30.5t22.5 -69.5q0 -51 -36 -81t-85 -30q-88 0 -149 68q-63 68 -64 168zM309 88q0 102 113 102q53 0 78.5 -27.5t25.5 -70.5q0 -53 -26.5 -86t-81.5 -33q-47 0 -78 29t-31 86z " />
<glyph unicode="@" horiz-adv-x="2072" d="M201 440q0 170 78.5 336t216 299t324 215t399.5 82q162 0 285.5 -45t207.5 -125t127 -187.5t43 -230.5q0 -137 -51 -265t-134 -224t-189.5 -154.5t-217.5 -58.5q-25 0 -51.5 12t-38.5 35q-14 25 -14 69v113q-29 -45 -60.5 -86t-70.5 -72.5t-83 -50t-98 -18.5 q-49 0 -87.5 18.5t-67.5 50t-44.5 74.5t-15.5 90q0 150 95 314q51 86 113.5 147.5t140.5 110.5q49 27 93 42t83 15q72 0 107.5 -31.5t68.5 -87.5l24 78q4 12 8.5 20.5t14.5 12.5t34.5 6t47.5 2q20 0 20 -2q0 -4 -3 -12t-5 -14l-147 -441q-23 -66 -37 -132t-14 -103 q0 -90 63 -90q72 0 150.5 54t145.5 144t111 205t44 233q0 115 -44 209.5t-121 162t-181.5 105.5t-225.5 38q-205 0 -369.5 -76t-279.5 -201t-177.5 -284.5t-62.5 -329.5t54.5 -302.5t148.5 -223.5t222 -139t276 -48q147 0 260 26.5t202 72.5t157.5 106.5t129.5 126.5 q10 10 21.5 8t18.5 -9t9.5 -19.5t-8.5 -20.5q-74 -82 -156.5 -147.5t-180 -112.5t-215 -73t-263.5 -26q-143 0 -290.5 50.5t-267.5 150.5t-196.5 252t-76.5 356zM793 291q0 -72 31.5 -105.5t88.5 -33.5q35 0 67 12t63.5 42t64.5 80t70 126q37 72 62.5 149.5t41.5 161.5 q4 20 8 38t4 36q0 20 -11 39.5t-28 35.5q-16 14 -37.5 19.5t-48.5 5.5q-49 0 -103 -37t-112 -123q-33 -47 -64.5 -105.5t-58.5 -127.5q-23 -66 -30.5 -119t-7.5 -94z" />
<glyph unicode="A" horiz-adv-x="1507" d="M-2 23q0 6 2 12t4 14q66 18 123 40t80 77t35 88t26.5 68.5t34 89t53.5 151.5q72 201 124 338t85 217q41 98 64.5 153.5t27.5 65.5q16 47 33 81t31 46q18 20 41 21q16 0 23.5 -6t17.5 -19q4 -4 9 -19.5t9 -27.5l90 -223l295 -762q29 -72 50.5 -127t46.5 -117 q12 -31 26 -59.5t25 -36.5q4 -2 22.5 -9t43 -13.5t50 -12.5t46.5 -10q4 -6 7 -11.5t3 -11.5q0 -12 -10 -22q-49 0 -90.5 1t-79 2t-77.5 2t-87 1q-59 0 -109.5 -2t-77.5 -2h-92q-14 12 -14 27q0 10 12 24q117 6 158 27q29 33 28 94q-6 29 -21 80t-38 113q-12 37 -25.5 72.5 t-23.5 62.5q-6 10 -17.5 29.5t-23.5 29.5q-70 1 -138 1t-133 -1q-130 -2 -239 -6q-10 -16 -14 -29.5t-15 -46.5l-86 -276q6 -51 27.5 -83t44.5 -52q14 -6 49 -11.5t74 -9.5q4 -8 7 -12t3 -10q0 -10 -8 -27h-55q-55 0 -112.5 4t-117.5 4q-27 0 -58.5 -1t-62 -1t-56 -1 t-42.5 -1q-4 8 -6 11t-2 12zM453 618h286q43 0 97.5 1.5t85.5 7.5q-10 33 -17.5 56.5t-19.5 57.5q-12 35 -30.5 82t-38 97.5t-38 97.5t-33.5 82q-12 33 -27.5 73.5t-27.5 65.5q-25 -59 -55.5 -130t-69.5 -173q-20 -55 -39.5 -107.5t-35 -95.5t-24.5 -73.5t-13 -41.5z" />
<glyph unicode="B" horiz-adv-x="1435" d="M18 1450q0 10 2.5 12t6.5 11q8 2 22 2h27h416q92 0 172.5 3t138.5 3q154 0 235 -43q184 -96 185 -332q0 -98 -35 -166t-92 -96q-20 -10 -62.5 -22.5t-66.5 -20.5q-6 -2 -15.5 -6t-9.5 -11q0 -10 18.5 -12t34.5 -6q12 -2 32 -6t41.5 -9.5t39.5 -10.5t27 -9 q12 -6 31.5 -18.5t41 -30.5t41 -42t33.5 -52q23 -47 37 -98.5t14 -110.5q0 -88 -27.5 -160t-80.5 -125q-63 -66 -139 -83q-68 -15 -156 -15h-21l-563 8q-20 0 -51 -1t-62.5 -1t-62.5 -1t-53 -1h-53.5t-30.5 2q-6 12 -6 27q0 10 10 28q90 0 150.5 14.5t66.5 37.5 q10 33 18.5 81t12.5 97q0 20 1 64t2 103.5t1 129v141.5q0 66 -1 148.5t-3 158.5t-4 131.5t-2 63.5q-2 23 -5.5 47t-7.5 45q-8 29 -30.5 55.5t-65.5 32.5q-37 4 -80 9t-65 9q-4 10 -5.5 14.5t-1.5 10.5zM473 915q0 -96 10 -106q4 -4 23.5 -4h50.5q43 0 96.5 4t102.5 10 t87 14.5t50 16.5q10 6 21.5 17.5t23.5 27.5q82 100 82 211q0 51 -15.5 97t-43.5 87q-33 49 -82.5 77t-116.5 40q-57 12 -158 12q-29 0 -58.5 -1t-60.5 -1q-2 -25 -3 -80t-3 -110q-2 -66 -2 -142q-4 -57 -4 -99v-71zM475 285q0 -47 2 -68.5t6 -40.5q18 -41 44 -64.5t73 -48.5 q16 -4 56 -5t63 -1q59 0 102 5.5t76 15.5t59.5 26.5t57.5 38.5q51 45 77.5 112t26.5 161q0 90 -45 149q-29 43 -59.5 70t-67.5 45t-83 29.5t-105 21.5q-29 4 -74 9t-106 5q-90 0 -101 -10q-2 -4 -2 -73v-377z" />
<glyph unicode="C" horiz-adv-x="1363" d="M72 717q0 186 50 328.5t148 246.5q90 98 207 148.5t266 50.5q80 0 140.5 -12.5t108.5 -34t88 -50t81 -61.5q41 53 80 84q39 -2 55 -22q0 -29 -6 -76t-6 -94q0 -18 3 -53l6 -70t7.5 -64.5t4.5 -38.5q-6 -6 -11.5 -10t-15.5 -6q-12 -2 -21.5 0t-15.5 4q-25 82 -52.5 147.5 t-55.5 100.5q-63 82 -153.5 132t-193.5 50q-63 0 -125.5 -17.5t-119 -57t-104.5 -101t-85 -151.5q-29 -66 -45 -155t-16 -202q0 -119 19.5 -219t41.5 -152q23 -51 63 -104t97 -96t130 -71t157 -28q137 0 251.5 61.5t206.5 192.5q4 0 7.5 1t7.5 1q27 1 37 -32 q-10 -27 -18.5 -43.5t-35.5 -53.5q-66 -94 -193.5 -155.5t-289.5 -61.5q-137 0 -247.5 36t-188.5 97q-125 102 -194.5 257t-69.5 354z" />
<glyph unicode="D" horiz-adv-x="1632" d="M37 18q0 10 2 15.5t6 11.5q66 4 102.5 9t59.5 22q20 18 43.5 47t38.5 104q2 66 4 156t3 181t2 171t1 123q0 61 -2 121.5t-4 110t-4 83t-2 39.5q-4 41 -11.5 76t-31 60.5t-67.5 40t-122 14.5q-10 10 -10 27q0 8 10 24h82q47 0 85 -2t73 -2q16 0 50 1t75 3q104 8 194.5 11 t173.5 3q135 0 246 -24.5t185 -69.5q86 -51 148.5 -127t104 -167t62 -189.5t20.5 -196.5q0 -106 -29.5 -207.5t-86.5 -195.5q-94 -156 -248 -225.5t-395 -69.5q-25 0 -65 1t-84 1t-87 1t-76 1q-31 0 -80 -1t-101 -1t-96 -1t-65 -1q-10 0 -40.5 -1t-53.5 -1q-10 10 -10 24z M489 297q0 -127 46 -178q29 -37 69.5 -50.5t116.5 -13.5q276 0 436 181q88 98 130 222t42 271q0 186 -60.5 320.5t-181.5 228.5q-86 66 -197.5 97.5t-246.5 31.5q-84 0 -151 -12l-3 -23v-1075z" />
<glyph unicode="E" horiz-adv-x="1392" d="M41 31q0 10 3 15t7 15q61 4 115.5 12.5t69.5 18.5q4 6 11 26.5t14 48.5t12.5 58.5t7.5 61.5q0 18 1 53t2 76t1 82v73v422v77t-1 82t-2 72.5t-3 49.5q-6 37 -15.5 58.5t-18.5 33.5t-19.5 19.5t-20.5 15.5q-10 6 -31.5 9t-44.5 5t-43 4t-31 4q-10 14 -10 27q0 10 10 25h70 q20 0 36.5 -1t38 -1t52.5 -1.5t76 -1.5h76t92 1.5t93 1.5h83h112.5t81.5 1t71 1h77q61 0 107 -2.5t59 -2.5q31 0 38 -5t9 -21q2 -18 4 -53t4 -78t3 -91t1 -96q-12 -6 -16 -9t-15 -3h-10t-12 4q-20 47 -35.5 82t-34 63.5t-43 54t-61.5 54.5q-43 35 -131 41q-14 0 -75 1 t-151 1q-72 0 -112.5 -1t-55.5 -3q-2 -14 -4 -32.5t-4 -37.5q-2 -27 -4 -96t-2 -217v-201h35q121 0 180 17q41 12 80 35.5t61 62.5q2 2 5.5 18.5t7.5 38l8 43t6 31.5q10 4 15.5 5t15.5 1q16 0 21 -2t12 -6q-4 -55 -12.5 -139t-8.5 -162q0 -31 2 -72l4 -82t4 -76.5t2 -56.5 q-10 -6 -15 -8t-17 -2t-17.5 2t-13.5 6q-2 10 -4 36t-5 54.5t-8.5 54t-11.5 36.5q-16 25 -35.5 43t-58.5 34q-41 18 -89 23.5t-97 5.5h-68v-467q0 -35 1 -56.5t4 -35.5t7 -25.5t11 -23.5q10 -25 32.5 -54.5t44.5 -33.5q14 -4 46 -6.5t85 -4.5h226q66 0 108.5 4.5t65.5 18.5 q66 41 118 121t87 192q10 4 13 4h13q12 0 15.5 -1t11.5 -5q2 -14 2 -25v-34v-201t-4 -106q-2 -14 -3 -19.5t-5 -13.5q-16 -4 -29.5 -4h-26.5q-156 0 -268.5 2t-190 4t-125.5 4t-73 2q-90 0 -142.5 2t-91.5 2q-20 0 -58 -1t-80 -2t-82 -2t-64 -1h-68q-4 8 -7 13t-3 16z" />
<glyph unicode="F" horiz-adv-x="1214" d="M25 23q0 12 8 24q47 4 104.5 14.5t87.5 14.5q23 31 36 74t22 126v795q0 84 -2 133t-7 72q-6 37 -23.5 63.5t-45.5 55.5q-14 12 -65.5 16t-96.5 10q-6 10 -6 27q0 10 3 14t7 13q82 0 181.5 -2.5t170.5 -2.5h104.5t280.5 3q70 0 114 1t76 1h56.5h50.5q29 0 58.5 -1t44.5 -4 q4 -8 6 -13t4 -23l18 -320q-8 -4 -10 -7t-14 -3h-13.5t-13.5 2q-33 68 -63.5 116t-57 80.5t-51 54t-47.5 38.5q-25 18 -70 18l-356 2q-29 0 -34 -6t-5 -29v-583q25 -2 45.5 -2h57.5q25 0 55.5 3t60 10t56 21.5t43.5 34.5q14 20 22 46t11 52.5t5.5 50t4.5 38.5q6 2 10 4t14 2 t17.5 -2t13.5 -6q0 -35 -1 -78t-3 -84t-3 -76t-1 -53t1 -48t2 -63t2 -64.5t1 -52.5v-71q-8 -8 -29 -8h-12t-12 4q-2 10 -6.5 36.5t-8.5 61.5q-4 37 -24.5 76t-61.5 73q-16 14 -63 22.5t-115 8.5q-39 0 -70 -6q-2 -8 -4 -19.5t-4 -35t-3 -63.5t-3 -107q0 -39 -1 -84t-1 -88 v-77v-50q14 -59 41 -90t51 -43q8 -2 30.5 -4.5t48.5 -5.5t49.5 -5t35.5 -2q6 -14 6 -28q0 -6 -1 -11.5t-5 -13.5h-47q-57 0 -138 1t-141 1q-63 0 -128.5 -3t-155.5 -3h-84q-10 14 -10 27z" />
<glyph unicode="G" horiz-adv-x="1587" d="M72 719q0 342 204 559q98 104 216 157.5t284 53.5q127 0 220.5 -37t179.5 -102q16 29 29.5 51t33.5 41q10 2 15.5 3t23.5 -1q12 -2 22.5 -8t20.5 -15q-8 -47 -15.5 -104t-7.5 -100t16.5 -90.5t31.5 -86.5q0 -10 -14.5 -20t-35.5 -10q-25 18 -59 82q-76 133 -190 235 q-53 49 -122 77t-147 28q-147 0 -269 -97.5t-175 -290.5q-18 -68 -30.5 -143.5t-12.5 -155.5q0 -102 18.5 -205.5t59.5 -189.5q31 -66 85 -128t121 -113q31 -27 67 -45.5t46 -22.5q8 -2 39 -6t59 -4q123 0 242 53q104 47 158 164q33 63 33 135q0 127 -11 162 q-10 35 -33.5 51t-58.5 27q-10 2 -30.5 4t-44 4t-43 3t-25.5 3q-8 16 -8 29q0 10 3 15t7 13h67q41 0 95.5 -3t119.5 -3q35 0 65 1t60.5 2t66.5 2t83 1h55q4 -6 7 -12t3 -16t-4 -14.5t-10 -14.5q-8 0 -27.5 -2t-39 -5t-38 -6t-28.5 -8q-25 -10 -32 -20t-11 -43 q-4 -35 -6 -98.5t-2 -149.5q0 -59 13 -105t44 -94q-8 -35 -26 -34q-6 0 -19.5 7t-32 14t-38 14.5t-37.5 7.5q-49 0 -105 -19q-35 -12 -77 -33.5t-93 -41t-114.5 -34t-143.5 -14.5q-96 0 -183 20.5t-171 69.5q-68 39 -129.5 101.5t-109.5 146.5t-76.5 187.5t-28.5 220.5z" />
<glyph unicode="H" horiz-adv-x="1650" d="M41 23q0 10 8 24q102 12 148.5 33.5t62.5 71.5q14 45 19 151l8 291q2 53 2 101v91q0 86 -2 169t-5 151t-6.5 115t-3.5 61q-14 55 -33.5 79.5t-50.5 49.5q-20 4 -61 8t-68 6q-4 16 -4 23q0 18 8 27h48q66 0 129 -2.5t143 -2.5q35 0 103.5 1.5t129.5 1.5q16 0 44 -1.5 t40 -1.5q4 -4 6.5 -6t2.5 -12q0 -18 -9 -29q-43 -2 -79.5 -7t-65.5 -19.5t-48.5 -41t-27.5 -69.5q-4 -29 -7 -89t-3 -155q0 -78 3 -137t5 -100q23 0 78 -2t115.5 -3t113 -2t70.5 -1q92 0 182 3t135 5q2 18 3.5 47t2.5 57.5t2 52t1 35.5q0 221 -17 310q-6 33 -19.5 53 t-36 32.5t-57 19.5t-85.5 9q-6 10 -7 27q0 10 4.5 14t8.5 8q49 0 88 -1t73.5 -2t67.5 -1h72q41 0 101.5 2t113.5 2h98q8 -12 8 -22q0 -18 -8 -27q-111 -4 -163 -51t-52 -147l-2 -840q0 -59 3 -113.5t5 -85.5q8 -31 35 -68.5t62 -49.5q18 -4 49.5 -9.5t72.5 -5.5 q4 -8 6.5 -12t2.5 -8q0 -20 -9 -31h-65q-35 0 -63.5 1t-59.5 1t-66.5 1t-87.5 1h-75.5t-83.5 -1t-76 -1h-55q-6 16 -7 29q0 10 9 24q14 0 35.5 1t43 4t42 7.5t32.5 12.5q29 16 42.5 56t13.5 112v317q0 51 -2.5 96.5t-2.5 65.5h-31.5t-47 1t-51 1h-44.5h-370q-43 0 -88 -1 t-60 -1v-496q10 -63 29.5 -105t54.5 -63q45 -12 144 -18q4 -6 6 -12t2 -17q0 -6 -3 -12t-10 -8h-57q-35 0 -68.5 1t-69.5 3t-77 3t-90 1q-78 0 -130 -2t-112 -2h-49q-6 10 -6 23z" />
<glyph unicode="I" horiz-adv-x="751" d="M43 1450q0 14 3 17t7 10h45q35 0 73 -2t73 -3.5t64.5 -2.5t45.5 -1q53 0 131 5.5t144 5.5h59q4 -4 7 -9.5t3 -15.5q0 -12 -6 -24q-49 -6 -101 -15.5t-81 -38.5q-10 -10 -23.5 -37.5t-13.5 -68.5v-527v-147.5t1 -146t2 -129t1 -95.5q10 -55 27.5 -90t42.5 -63 q14 -2 34.5 -5.5t43 -6.5t42 -5t31.5 -2q7 -12 7 -26q0 -12 -9 -27h-67q-25 0 -61 1t-69.5 2t-61 2t-40.5 1q-80 0 -166 -5t-147 -5h-35q0 8 -2 10t-2 14q0 6 1 15.5t5 15.5q55 4 90 11.5t56.5 16.5t33 18t19.5 18q10 20 17 53t12 70q0 27 1 67.5t2 82.5t2 80t1 60 q0 90 -1 186.5t-3 174.5q-2 279 -7 338q-6 84 -27.5 119.5t-39.5 50.5q-10 8 -47 15t-113 13q-2 8 -3 13.5t-1 11.5z" />
<glyph unicode="J" horiz-adv-x="1050" d="M8 258q0 66 36 105.5t91 39.5q49 0 83 -27.5t34 -86.5q0 -55 -33 -83t-69 -32q-16 -2 -24.5 -14.5t-8.5 -22.5q0 -14 12 -32.5t33.5 -34t53.5 -26.5t71 -11q49 0 92 7t67 23q31 18 56.5 51t45 69t31 68t11.5 48v743q0 193 -12 281q-18 39 -47 59.5t-61 29.5t-63.5 11 t-54.5 4q-2 6 -3 11.5t-1 11.5q0 8 8 25q37 0 77 -1t78 -1t71.5 -1.5t58.5 -1.5q59 0 152.5 2.5t185.5 2.5h37q10 -7 10 -25q0 -6 -4 -11t-8 -14q-43 -2 -71 -6t-46 -8t-29.5 -9t-21.5 -11q-27 -27 -43.5 -59t-16.5 -58l2 -909q0 -135 -106 -261q-59 -63 -150.5 -100 t-189.5 -37q-78 0 -142.5 24.5t-113.5 67.5q-41 39 -59.5 86.5t-18.5 112.5z" />
<glyph unicode="K" horiz-adv-x="1503" d="M47 23q0 6 2 11t6 13q164 16 203 49q20 35 25.5 128t5.5 222l2 674q0 55 -1 103.5t-5 64.5q-10 43 -27.5 64.5t-48.5 42.5q-8 6 -27.5 9t-41 6t-42 5t-30.5 4q-6 8 -8.5 12.5t-2.5 14.5q0 20 11 29h38q55 0 108.5 -3.5t111.5 -3.5q49 0 101 1t134 1h119q4 -8 8 -12t4 -10 t-1 -12t-3 -15q-57 -8 -90 -15t-51 -11q-29 -25 -42 -45.5t-24 -55.5l-2 -532q23 23 54.5 51.5t66.5 58.5q72 66 133.5 125.5t108.5 110.5q72 72 115.5 118t60.5 62q6 10 11 22.5t5 22.5q0 37 -39 58q-12 6 -30.5 11t-37 9t-34.5 7t-23 5q-6 8 -6 13.5v13.5t2 11t6 12 q59 0 127 -3.5t113 -3.5q8 0 33.5 1t58.5 1t69 1t64 1h62q4 -2 7 -9t3 -13t-2 -13.5t-4 -11.5q-72 -16 -143.5 -45.5t-149.5 -103.5l-393 -385q-8 -8 -23.5 -22.5t-27.5 -24.5q14 -14 27.5 -28.5t45.5 -43.5q35 -33 87.5 -82t123.5 -115q86 -78 148.5 -141t109.5 -110 q47 -51 94.5 -99.5t94.5 -97.5q16 -18 55 -42t111 -32q4 -6 7 -12t3 -10q0 -10 -10 -27h-70h-64.5t-59.5 1t-62.5 1h-73.5q-53 0 -115.5 -4t-103.5 -4h-53q-10 10 -11 22q0 10 8 27q16 4 44 10t58 14.5t56.5 18.5t38.5 18q-14 16 -55 62.5t-103 105.5l-438 416q-4 6 -23.5 9 t-29.5 3q-6 0 -12.5 -1t-14.5 -3l8 -489q2 -59 22.5 -89t51.5 -48q10 -6 49 -14.5t88 -10.5q4 -4 8.5 -9t4.5 -15q0 -14 -9 -29h-71q-59 0 -119.5 4t-116.5 4q-72 0 -133 -3t-121 -3h-88q-4 8 -5 14t-1 13z" />
<glyph unicode="L" horiz-adv-x="1390" d="M63 18q0 8 2.5 13.5t4.5 11.5q37 10 93 25.5t95 33.5q25 45 29 160q0 27 1 102.5t1 198.5q0 49 -3 187.5t-7 343.5q0 39 -1.5 76.5t-3.5 68.5t-4 52.5t-4 29.5q-8 23 -22.5 44t-44.5 36q-25 6 -59 7t-70 11q-6 12 -7 29q0 10 3.5 13t7.5 9l610 3q8 -6 8 -25q0 -16 -8 -25 q-35 -2 -73 -4t-68.5 -15t-50 -44t-19.5 -88l-2 -256l14 -793q0 -29 21.5 -63.5t44.5 -53.5q31 -27 81 -38t116 -11q90 0 174 15.5t153 50.5q86 45 136.5 132t82.5 198q16 6 27 6q12 0 17.5 -2t15.5 -8q1 -30 1 -59.5t-1 -58.5q-2 -59 -2 -77q0 -45 -3 -92t-8 -94 q-4 -43 -8 -53.5t-33 -10.5q-16 0 -67 -1t-128 -2t-173 -2t-201 -1h-107.5t-92.5 1t-86 1h-91q-66 0 -128 -3t-115 -3h-41q-6 12 -7 24z" />
<glyph unicode="M" horiz-adv-x="1980" d="M14 27q0 10 6 22q31 4 65 12.5t63.5 16.5t51 16t27.5 12q4 4 11.5 22.5t13.5 46.5t11 61.5t5 66.5v930q0 35 -5 67.5t-11 40.5q-6 6 -15.5 19.5t-31 26t-60.5 21.5t-104 9l-7 10.5t-3 16.5q0 10 8 26q12 0 37.5 -1t56.5 -1t63.5 -1t63.5 -1q78 0 118 1t61.5 1h33.5h33 q8 -10 14 -16t10 -16l467 -1065l105 258q33 80 65.5 156.5t68.5 158.5t78 169t91 187q23 43 37 71l18 36q10 23 18.5 34t16.5 17t18.5 7t28.5 1l211 2l131 7h55q8 -8 9 -23q0 -16 -9 -27q-115 -4 -177 -43t-62 -141v-805q0 -252 35 -313q29 -45 81 -57.5t123 -18.5 q9 -8 9 -20q0 -10 -3 -14.5t-8 -12.5h-327h-61.5t-62.5 -1t-81 -2t-119 -1q-10 14 -10 24t3 15.5t7 13.5q55 2 96 8t69 24.5t41 53.5t13 94l11 918v205h-11q-43 -94 -82 -177t-76.5 -167t-77.5 -172t-85 -193q-31 -72 -54.5 -126t-48.5 -118q-47 -117 -77.5 -210t-42.5 -138 q-2 -12 -21 -12q-10 0 -12 5t-10 26q-18 47 -31 77.5t-20 51t-12 34t-11 25.5l-496 1112h-10v-250l14 -801q4 -143 73 -207.5t185 -70.5l4 -12t2 -11q0 -8 -10 -24h-63q-72 0 -140.5 4t-130.5 4q-31 0 -72.5 -1t-88.5 -1h-86q-10 10 -11 27z" />
<glyph unicode="N" horiz-adv-x="1654" d="M18 1458q0 6 1 9t6 10q27 0 103.5 -3.5t174.5 -3.5q12 0 26.5 -1t26.5 -1q23 -14 31 -26l750 -907q59 -72 103 -127.5t71 -83.5q2 16 3 33.5t1 54.5v612q0 63 -1 93t-3 52q-4 59 -17.5 114.5t-42.5 88.5q-20 12 -51 22.5t-62.5 16.5t-58 11t-39.5 10q-10 10 -10 20 q0 6 2 14.5t6 12.5h54q8 0 28.5 -1t46 -1t53 -1t52.5 -1q70 0 116 1t80.5 1t65.5 1t70 1h47q6 -9 6 -21q0 -10 -8 -24q-53 -2 -100.5 -17.5t-83 -52.5t-57.5 -99.5t-22 -158.5v-879q0 -23 1.5 -64.5t1.5 -86.5q0 -72 -9 -92q-6 -4 -5 -4t-7 0q-12 0 -25 12l-937 1138 q-10 12 -22.5 28t-23.5 26q0 -27 -1 -79t-2 -116.5t-1 -133.5v-130q0 -92 1 -171t1 -128q0 -27 2 -67t6.5 -77.5t8.5 -69.5t10 -44q27 -35 58.5 -55.5t64.5 -33.5t64.5 -20.5t58.5 -13.5q4 -6 5 -9t1 -9t-2 -15.5t-8 -11.5h-123q-31 0 -56.5 1t-49 2t-49 2t-60.5 1 q-23 0 -50.5 -1l-55 -2t-51 -2t-40.5 -1h-39q-4 2 -5 9t-1 11q0 8 2 11.5t6 11.5q80 20 131.5 43t83.5 57q4 27 8.5 66t4.5 90v442q0 53 1 115t2 122t2 115.5t1 94.5q0 47 -8 65q-14 31 -45 62t-56 59q-14 14 -35.5 24.5t-45 16.5t-44 10.5t-32.5 6.5q-2 4 -3.5 13t-1.5 13z " />
<glyph unicode="O" horiz-adv-x="1527" d="M68 709q0 221 104 411q41 76 105.5 144.5t144.5 120t174 82t197 30.5q176 0 350 -104q160 -98 238.5 -258t78.5 -373q0 -154 -44 -293t-134 -250q-53 -63 -115.5 -111.5t-140.5 -80.5q-135 -59 -281 -60q-233 0 -417 148q-121 100 -190.5 257.5t-69.5 336.5zM287 719 q0 -74 9 -150.5t26.5 -149.5t44 -135.5t59.5 -107.5q53 -72 136 -108.5t188 -36.5q150 0 256 78q53 37 96 105.5t74.5 159.5t49 200.5t17.5 228.5q0 322 -135 483q-55 68 -143 108t-187 40q-63 0 -126.5 -19.5t-125.5 -64.5q-117 -84 -178 -248t-61 -383z" />
<glyph unicode="P" horiz-adv-x="1304" d="M41 18q0 14 1 17.5t3 11.5q33 4 64.5 10t54.5 11q51 16 80.5 55t36.5 86q4 37 6 223t2 512q0 117 -3 202t-7 138q-10 45 -19.5 67.5t-36.5 45.5q-31 8 -72.5 15t-70.5 18q-4 8 -5 14t-1 12q0 8 10 25q47 0 109.5 -4t119.5 -4q82 0 174.5 6t176.5 6q133 0 222 -12.5 t140 -34.5q98 -43 159.5 -137t61.5 -209q0 -117 -63.5 -210.5t-173.5 -133.5q-47 -16 -105.5 -26.5t-130.5 -10.5q-111 0 -295 12l6 -496q0 -47 12.5 -74.5t28.5 -46.5q14 -16 38 -27t50.5 -17.5t54 -9.5t50.5 -7q4 -8 4 -22q0 -16 -6 -25h-51q-29 0 -57.5 1t-64.5 3t-85 3 t-117 1q-27 0 -68 -1t-82.5 -3t-80.5 -3t-64 -1q-4 8 -5 8t-1 12zM479 797q0 -10 33 -15q14 -2 49 -3t76 -1q98 0 166.5 14.5t109.5 43.5q66 45 98.5 114.5t32.5 149.5q0 55 -14 106t-41 92q-82 129 -344 129q-57 0 -98 -4t-66 -6z" />
<glyph unicode="Q" horiz-adv-x="1531" d="M68 709q0 100 20.5 196t64.5 184.5t116.5 167t176.5 142.5q160 98 345 98q178 0 352 -104q160 -98 238.5 -256t78.5 -375q0 -113 -25.5 -218.5t-73.5 -196.5t-119 -162.5t-163 -118.5q16 -61 45 -131t68 -130q35 -57 89 -81.5t99 -24.5q35 0 72 19.5t57 35.5 q10 -2 19.5 -13.5t9.5 -21.5q-12 -29 -41 -53t-68.5 -41.5t-86 -28t-89.5 -10.5q-45 0 -88 13.5t-84 44.5q-41 33 -67.5 74.5t-48.5 101.5q-10 23 -26.5 75t-29.5 97q-41 -10 -82 -16.5t-84 -6.5q-121 0 -223 38t-196 112q-115 96 -185.5 247.5t-70.5 342.5zM287 725 q0 -113 15 -209t42 -176q70 57 147.5 92t163.5 35q61 0 111.5 -14.5t107.5 -55.5q49 -35 96.5 -100.5t82.5 -151.5q37 37 75.5 108t61.5 136q29 94 41 196.5t12 217.5q0 168 -33.5 285.5t-101.5 199.5q-55 66 -142 106t-186 40q-63 0 -127.5 -18.5t-126.5 -63.5 q-111 -78 -175 -233.5t-64 -393.5zM358 291q51 -123 149.5 -193.5t244.5 -70.5h6q68 0 137 22q-16 51 -35.5 96t-44.5 80q-45 68 -101.5 105t-138.5 37q-53 0 -106 -20.5t-111 -55.5z" />
<glyph unicode="R" horiz-adv-x="1470" d="M53 1446q0 6 3 11t7 16q4 0 19.5 -1.5t34 -1.5t37 -1t30.5 -1q27 0 57.5 -1t59.5 -1t51.5 -1t34.5 -1q78 0 165 7.5t204 7.5q166 0 243 -23q55 -18 102.5 -55t81.5 -86t53 -108.5t19 -121.5q0 -84 -36.5 -150.5t-98.5 -113.5q-14 -12 -30.5 -22.5t-41 -20.5t-59.5 -18 t-84 -15q-29 -4 -45 -6t-39 -6q18 -8 39 -15t45 -18q53 -18 93 -36.5t55 -30.5q37 -35 76.5 -100.5t72.5 -143.5q47 -117 86 -258q6 -10 16.5 -25.5t18.5 -25.5q12 -8 31.5 -13.5t40 -8.5t38 -4t25.5 -1q10 -14 10 -28t-12 -27h-213q-59 0 -81.5 2t-35.5 4q-29 4 -43 27.5 t-18 56.5q-8 55 -19.5 117.5t-28 123t-36.5 114t-45 92.5q-37 57 -89 98t-112 67q-41 18 -82 23.5t-82 5.5h-45.5t-46.5 -2l2 -518q0 -53 24.5 -88t63.5 -53q16 -4 50 -10.5t65 -10.5q4 -6 6 -12t2 -17q0 -6 -2 -11t-6 -11q-43 0 -73.5 1t-60.5 2t-62.5 2t-81.5 1 q-25 0 -75 -1t-103.5 -2t-97.5 -2t-54 -1q-8 20 -8 24q0 10 10 27q31 2 63.5 6t53.5 8q45 18 62 56.5t22 77.5q4 29 6 90t2 138v163v164q0 217 -2 356t-11 188q-16 35 -32.5 56.5t-53.5 50.5q-25 4 -64.5 9t-66.5 9q-4 16 -4 27zM475 973l2 -180q12 -2 29.5 -3.5t36 -1.5h35 h24.5q135 0 213 17q45 10 86 41t72 73t49 92t18 99q0 109 -57 190q-27 37 -57.5 60.5t-71.5 37t-95 17.5t-126 4q-18 0 -42 -1t-45.5 -3t-36.5 -4t-20 -4q-14 -10 -14 -47v-387z" />
<glyph unicode="S" horiz-adv-x="1243" d="M104 70q4 25 13.5 65.5t9.5 116.5q0 16 -1 46t-3 61.5t-3 58t-1 37.5q18 12 35 12h14t14 -4q8 -31 23.5 -69t35 -75.5t41 -72.5t40.5 -60q31 -41 75.5 -69.5t93 -47t95.5 -26.5t84 -8q68 0 127 23.5t100 72.5q45 53 68.5 103.5t23.5 103.5q0 55 -12 94t-40 68.5t-72 53.5 t-105 48q-14 6 -63.5 21.5t-108 34t-112.5 37t-77 26.5q-129 53 -196 149q-37 57 -57.5 113.5t-20.5 114.5q0 84 31.5 155.5t89 125t137.5 84t174 30.5q39 0 80 -4t84 -16.5t90 -37t98 -65.5q18 20 38 40t42 34q20 0 32.5 -5t25.5 -24q-4 -29 -11.5 -74t-7.5 -86 q0 -47 6 -96t10 -88q-8 -8 -17 -14t-23 -6q-8 0 -21 4q-20 49 -35.5 80.5t-30 57.5t-29 47.5t-32.5 47.5q-45 61 -118.5 100t-166.5 39q-57 0 -110 -19t-92 -53t-62.5 -78t-23.5 -93t12 -88t30.5 -67t39 -46t36.5 -29q51 -29 127 -57.5t170 -54.5q162 -45 226 -82 q119 -63 177 -148.5t58 -208.5q0 -106 -37 -187t-102.5 -134t-156.5 -81t-199 -28q-74 0 -160 18.5t-187 84.5q-27 18 -49 18q-10 0 -39.5 -18.5t-62.5 -46.5q-18 0 -37.5 12t-24.5 29z" />
<glyph unicode="T" horiz-adv-x="1474" d="M31 1065v371q0 23 7 28.5t28 5.5h151q86 0 211 -2t315 -2q123 0 232.5 1t197 4t146.5 3.5t82 0.5t33 -8.5t10 -30.5v-398q-8 -8 -23 -8h-15t-15 4q-23 74 -39.5 124t-53.5 99q-20 29 -39.5 51.5t-44 41t-57.5 35t-80 28.5h-59.5h-72.5h-66.5h-40.5v-230.5t-1 -176 t-1 -145v-138.5v-105.5t1 -105.5t2 -119.5t1 -148.5q0 -53 7 -93t11 -57q23 -16 54.5 -24.5t64.5 -11.5t58.5 -3h33.5l6 -12t2 -14q0 -8 -1 -15.5t-5 -15.5h-57q-94 0 -172 3t-123 3q-55 0 -124 -4t-126 -4h-80q-2 8 -2 24q0 12 1 17.5t5 15.5q92 4 140.5 13.5t71 22.5 t26.5 31.5t6 39.5q6 49 6 495v216v146.5t-1 110t-1 103.5q-2 66 -3 115t-3 65h-53t-90.5 -1t-95.5 -3t-68 -4q-51 -27 -85 -58.5t-60.5 -72.5t-49 -92.5t-53.5 -118.5q-8 -4 -25 -4q-14 0 -24 8z" />
<glyph unicode="U" horiz-adv-x="1662" d="M35 1446q0 20 10 29h86q47 0 104.5 -1t131.5 -1q47 0 113.5 1t123.5 3l78 2q14 -10 14 -27q0 -8 -3 -12t-7 -15q-18 -2 -44 -4t-48.5 -5t-40.5 -5t-25 -6q-23 -16 -51 -46t-28 -65l2 -256l10 -622q0 -25 13 -59.5t38 -70.5t61.5 -70t85.5 -58q53 -25 111.5 -39.5 t126.5 -14.5q313 0 399 269q31 102 37 272q2 47 2 138v223q0 92 -6 153.5t-10 77.5q-2 16 -12.5 37.5t-22.5 42t-24.5 38t-20.5 29.5q-10 14 -39 21.5t-60.5 11.5t-56 5t-28.5 1q-6 16 -6 25q0 10 8 27h73q45 0 109 -2.5t125 -2.5q55 0 114.5 2.5t106.5 2.5h60 q10 -11 10 -27q0 -8 -2 -12t-6 -11q-41 -4 -68 -8t-45 -7t-31.5 -6t-25.5 -7q-23 -37 -41.5 -87t-20.5 -134q0 -14 -1 -38t-1 -52.5t-1 -59.5t-1 -59v-394q0 -66 -8 -126t-25 -117q-29 -96 -76 -164t-124 -109q-150 -84 -351 -84q-219 0 -370 99q-137 90 -178 252 q-20 82 -21 274v492q0 98 -2 152t-4 75q-20 55 -72 86q-23 4 -55.5 9t-81.5 11q-8 8 -8 23z" />
<glyph unicode="V" horiz-adv-x="1513" d="M-16 1456q0 10 2 14.5t6 10.5h80q68 0 129 -2t96 -2q82 0 150.5 4t115.5 4h51q6 -2 8.5 -9.5t2.5 -13.5q0 -10 -9 -26q-41 0 -73.5 -6.5t-59.5 -10.5q-27 -14 -46 -42.5t-23 -65.5l409 -1030l330 806q10 27 19.5 58t16.5 58.5t11 48t4 28.5q0 41 -17.5 73.5t-35.5 51.5 q-70 23 -141 31q0 6 -2 10t-2 10q0 8 3 13.5t7 13.5h37q18 0 71.5 -5t178.5 -5q27 0 75.5 2t85.5 2h70q6 -2 8 -9.5t2 -13.5q0 -8 -3 -13t-5 -11q-47 -10 -93 -23.5t-71 -42.5q-20 -23 -38.5 -50.5t-33.5 -62.5l-530 -1271q-4 -8 -4 -11.5t-14 -3.5t-12.5 4t-6.5 8 q-8 29 -67.5 188t-165.5 415l-170 409q-16 41 -40 97.5t-47.5 112.5t-46 103.5t-36.5 67.5q-45 25 -86 39t-84 25q-4 6 -5 9t-1 13z" />
<glyph unicode="W" horiz-adv-x="2236" d="M2 1448q0 12 2 13t6 9q31 0 69 1.5t62 1.5q37 0 73 -1.5t97 -1.5q47 0 100.5 2.5t88.5 2.5h67q2 -4 4 -11.5t2 -13.5q0 -8 -3 -12t-5 -13q-86 -10 -119.5 -37.5t-33.5 -84.5l348 -996l325 963q-4 14 -12 32.5t-16 32.5q-18 31 -39 46.5t-44.5 22.5t-49 9t-52.5 8 q-6 12 -6 23q0 14 11 31h133q41 0 79.5 -1t55.5 -1q16 0 57 1t88 2t90 2t62 1q14 -10 14 -29q0 -10 -2 -13t-4 -10q-29 -4 -60.5 -7t-57 -12t-43 -29.5t-17.5 -61.5q0 -12 6 -46t16 -65l303 -915l330 956q-2 59 -21.5 95t-54.5 63q-16 4 -51 9t-74 9q-6 16 -6 27q0 14 9 23 h51q53 0 98 -2.5t80 -2.5q25 0 58.5 1t69.5 2.5t71.5 2.5t62.5 1q4 -6 8 -11.5t4 -13.5t-3 -13t-5 -12q-8 -2 -25.5 -8t-36 -12t-36 -12.5t-25.5 -12.5q-25 -16 -44 -41.5t-29 -50.5l-472 -1302q-4 -14 -11 -17.5t-17 -3.5q-14 0 -15.5 8.5t-7.5 26.5l-383 1159l-397 -1159 q-6 -16 -9 -24.5t-20 -8.5q-16 0 -20 11.5t-21 62.5l-383 1075q-45 123 -72.5 182.5t-43.5 79.5q-10 10 -54.5 21.5t-93.5 23.5q-6 16 -6 25z" />
<glyph unicode="X" horiz-adv-x="1488" d="M10 23q0 8 1 11t5 9q47 8 104.5 27.5t86.5 40.5q37 43 94 118.5t120.5 162.5l127 174t110.5 151l-342 477q-53 76 -99 129t-64 66q-6 4 -21.5 9t-35 10t-39 9t-35.5 6q-4 8 -6.5 13.5t-2.5 17.5q0 8 11 21q49 0 101 -1t77 -4q66 -4 106.5 -5t83.5 -1q47 0 81 1t73 1h82 q4 -6 6 -10t2 -10q0 -10 -4 -15.5t-8 -15.5q-18 -2 -47 -4t-54.5 -5t-45 -10t-19.5 -24q0 -14 6 -39.5t35 -66.5q12 -20 25.5 -41t31.5 -49.5t44 -68.5t65 -99q39 -57 65.5 -89t44.5 -53q25 31 59.5 80t71.5 100.5t69 97.5t50 70q6 6 13.5 20.5t13.5 30t11 31t5 27.5 q0 31 -12 43q-8 6 -28.5 14.5t-44 16.5t-48.5 15t-43 13q-4 4 -5 12.5t-1 12.5q0 6 2 11t6 12h96q55 0 106.5 -1.5t84.5 -1.5q8 0 36.5 1.5t63.5 1.5t68.5 1t54.5 1h47q6 -2 9 -10.5t3 -14.5q0 -10 -4 -15t-8 -16q-166 0 -229 -80l-400 -518l539 -723q10 -14 47 -29.5 t96 -19.5q4 -8 6 -14t2 -12q0 -4 -2 -9.5t-4 -13.5h-149q-35 0 -64.5 -1t-63.5 -3t-78 -3t-105 -1h-146q-6 12 -6 24t8 29q16 2 41 6t52.5 10.5t55 16.5t50.5 26q-16 31 -35.5 63t-42.5 66q-8 12 -40 59.5t-91 133.5q-57 86 -104.5 146.5t-79.5 95.5q-41 -53 -98.5 -138.5 t-118.5 -175.5q-57 -82 -88 -137t-31 -78t19.5 -42t58.5 -27l122 -23q4 -10 7.5 -13t3.5 -11t-1 -12.5t-5 -12.5l-60 -2q-29 0 -66.5 1t-73.5 3t-65.5 3t-42.5 1q-12 0 -36.5 -1t-52 -2t-56.5 -2t-51 -1l-60 2q-4 8 -4 23z" />
<glyph unicode="Y" horiz-adv-x="1419" d="M-2 1446q0 10 3 15t9 16q6 0 29.5 -1t57.5 -2t74 -2.5t77 -1.5q88 0 131 1.5t68.5 2.5t50 2t75.5 1h37q4 -8 8.5 -9.5t4.5 -11.5q0 -12 -7 -29q-66 -8 -110.5 -13t-59.5 -34q-8 -16 -8 -53q0 -14 2 -31.5t6 -23.5l121 -258q10 -23 36 -74t55.5 -109.5t59.5 -113.5t50 -90 q25 35 70 124t116 232q41 86 71 148.5t44 101.5q8 20 10 38.5t2 37.5q0 25 -5 39t-15 34q-6 10 -23.5 19.5t-41 15.5t-49 12.5t-48.5 10.5q-4 12 -4 22q0 8 2 11.5t6 13.5q20 0 53 -1t72 -3t81 -3t81 -1q33 0 103.5 3t133.5 3q4 -6 8.5 -10.5t4.5 -14.5q0 -6 -2 -11t-6 -13 q-31 -8 -71 -17.5t-63 -23.5q-31 -18 -68.5 -55t-60.5 -78l-317 -631q-6 -12 -12 -26.5t-11 -31.5q-2 -4 -6 -18t-2 -31l17 -313q2 -31 6 -49.5t10 -31.5t15.5 -23.5t21.5 -22.5q8 -8 27.5 -14.5t45 -11.5t53 -8t52.5 -7q8 -14 8 -25q0 -8 -3 -14t-7 -12q-29 0 -67.5 1 t-92.5 3q-92 2 -143 3t-84 1q-47 0 -122 -1t-152 -1q-2 6 -4.5 10t-2.5 12q0 10 11 29q18 2 43.5 5t50 7.5t44 8.5t25.5 6q27 16 46.5 52t19.5 101q0 53 -1 92t-2 68t-4 52.5t-9 43.5q-8 29 -23.5 67t-42.5 87l-360 704q-10 20 -49 38t-142 42q-8 14 -8 23z" />
<glyph unicode="Z" horiz-adv-x="1306" d="M47 29l258 374l668 1002l-203 4h-34.5t-47 1t-48.5 1h-40q-102 0 -141 -20q-31 -16 -59.5 -36t-67.5 -65q-68 -76 -115 -180q-12 -6 -31 -6q-4 0 -14 3t-14 7q0 12 1 26.5t2 34t4 49t9 72.5q2 12 8 57.5t13 92.5q6 10 11 17t19 7h457q145 0 239.5 1.5t151.5 2.5t83 2 t34 1q14 -4 20 -25q-8 -16 -14 -28.5t-16 -26.5l-879 -1329q16 -2 58 -3.5t75 -1.5h123q127 0 220 7.5t132 25.5t76 53t69.5 79t61.5 93.5t51 96.5q6 4 13.5 4h13.5t14.5 -2t16.5 -10l-27 -287q-4 -29 -8 -59.5t-8 -40.5t-8.5 -16.5t-28.5 -6.5l-123 2q-106 2 -215 2h-219 q-61 0 -137 -1t-189 -5q-45 -2 -94 -3t-109 -1q-8 8 -10 17t-2 18z" />
<glyph unicode="[" horiz-adv-x="780" d="M184 -258l13 479q2 59 3 166t1 266v349t-2 131l-6 135q-2 47 -3.5 85t-1.5 66q0 43 11 58q10 10 47 10q27 0 77 -3t142 -9h96h98l19 -35l-19 -39q-39 2 -76.5 3t-76.5 1q-59 0 -98 -1t-52 -5q-10 -4 -12 -17q-2 -8 -2 -24.5t-4 -44.5q0 -23 -1 -53.5t-1 -73.5v-1354 q0 -29 31 -35q14 -4 59 -5t113 -1h53.5t62.5 4l19 -43l-19 -33h-213h-23.5t-47.5 -2q-53 -2 -79 -3t-48 -1q-35 0 -47 6q-12 2 -13 23z" />
<glyph unicode="\" horiz-adv-x="972" d="M-95 1466.5q9 16.5 38 16.5q20 0 43.5 -11.5t40.5 -37.5l968 -1794q14 -25 -2 -39.5t-41 -14.5q-37 0 -65 47l-977 1792q-14 25 -5 41.5z" />
<glyph unicode="]" horiz-adv-x="780" d="M102 1440l17 35h100h107q92 6 137 9t72 3q37 0 47 -10q10 -14 10 -58q0 -29 -1 -66.5t-3 -84.5l-6 -135q-2 -8 -2 -130v-350q0 -160 1 -266t3 -166l12 -479q0 -20 -14 -23q-12 -6 -45 -6q-23 0 -48.5 1t-78.5 3q-29 2 -43.5 2h-18.5h-225l-17 33l17 43q35 -4 64.5 -4 h54.5q68 0 112.5 1t59.5 5q31 6 30 35v1352q0 43 -1 74.5t-1 54.5q-4 29 -4 45t-2 24q-2 12 -12 17q-12 4 -51 5t-99 1q-39 0 -77.5 -1t-77.5 -3z" />
<glyph unicode="^" d="M260 651l461 819h96l461 -819h-119l-389 705l-391 -705h-119z" />
<glyph unicode="_" horiz-adv-x="1060" d="M-6 -219h1073v-70h-1073v70z" />
<glyph unicode="`" horiz-adv-x="520" d="M55 1391q0 29 15.5 50t50.5 21q33 0 56.5 -16t58.5 -57q12 -14 39.5 -47t62.5 -74t71.5 -85t69.5 -83q2 -2 2 -7.5v-7.5q0 -10 -14 -13t-25 3q-100 68 -180 118t-133 89q-27 18 -42 32.5t-22.5 27t-8.5 23.5t-1 26z" />
<glyph unicode="a" horiz-adv-x="907" d="M68 184q0 49 17 98.5t58 88.5q47 43 125 83t176 76l156 60q0 66 -2 117t-6 79q-14 31 -66.5 61t-109.5 30q-25 0 -50.5 -5.5t-50 -14.5t-44 -21.5t-29.5 -26.5q23 -27 36 -46.5t13 -60.5t-25.5 -61t-72.5 -20q-102 0 -103 104q0 39 21.5 76t56.5 61q47 33 110.5 54.5 t145.5 21.5q322 0 321 -256l3 -545q0 -39 20 -52t43 -13t44.5 13t37.5 30q18 -2 24.5 -10.5t8.5 -18.5q-12 -31 -33 -52.5t-45.5 -33.5t-50 -17.5t-47.5 -5.5q-35 0 -74 18.5t-53 57.5q-8 18 -13.5 47t-5.5 56q-25 -35 -61.5 -68t-77.5 -57.5t-87 -39t-89 -14.5 q-100 0 -160.5 55.5t-60.5 151.5zM213 246q0 -68 42 -111t126 -43q59 0 116.5 33t102.5 86v156q0 35 2 78.5t4 76.5q-14 -6 -52 -20.5t-97 -36.5q-135 -53 -189.5 -105.5t-54.5 -113.5z" />
<glyph unicode="b" horiz-adv-x="1079" d="M8 1417q0 12 8 29q51 0 85 3t59.5 8t51.5 13.5t62 18.5q18 -2 35 -16v-394v-52t-1 -80t-1 -81v-57q43 49 109.5 89t150.5 40q61 0 122 -13.5t114 -44t97 -78.5t75 -116q25 -53 35 -110t10 -123q0 -111 -31 -199t-96 -152q-63 -66 -150.5 -98.5t-191.5 -32.5 q-27 0 -49.5 1t-47 7.5t-53 16.5t-67.5 29q-25 12 -48.5 24t-39.5 19q-6 -10 -17.5 -25.5t-33.5 -40.5q-14 -6 -27 -6q-10 0 -14 5t-15 11q4 29 6 55.5t2 43.5v352q0 33 1.5 80t3.5 117.5t3 171t1 237.5q0 70 -1 140.5t-3 123.5q-20 25 -54.5 36t-81.5 28q-4 8 -6 11t-2 9z M291 303q0 -51 5 -90t7 -45q6 -18 26.5 -41t50.5 -42t67.5 -32.5t78.5 -13.5q94 0 170 57q84 55 121 139t37 211q0 72 -10 130.5t-33 111.5q-37 82 -109.5 124t-164.5 42q-111 0 -183 -70q-23 -20 -34 -38.5t-19 -47.5q-8 -25 -9 -70.5t-1 -107.5v-217z" />
<glyph unicode="c" horiz-adv-x="851" d="M59 453q0 137 57.5 253.5t184.5 180.5q98 49 231 49q66 0 121.5 -23.5t96.5 -58.5q20 -18 36.5 -48t16.5 -73t-21.5 -71.5t-68.5 -28.5q-41 0 -73 16.5t-32 55.5q0 49 9.5 71.5t9.5 30.5q0 39 -44 54.5t-102 15.5q-49 0 -94 -29t-76 -74q-39 -55 -62.5 -123.5 t-23.5 -158.5q0 -102 21.5 -182.5t66.5 -135.5q43 -57 95.5 -85t123.5 -28q78 0 143.5 42t119.5 147q18 0 32.5 -1.5t22.5 -17.5q0 -29 -35 -88q-51 -86 -137 -128t-191 -42q-119 0 -229 68q-98 59 -148.5 168.5t-50.5 243.5z" />
<glyph unicode="d" horiz-adv-x="1103" d="M61 463q0 154 64 264q133 215 375 215q72 0 142.5 -28.5t137.5 -94.5l-4 150l-2 395q-55 12 -112.5 31.5t-94.5 38.5q-2 8 -2 20q0 10 13 25q12 -2 38.5 -4t57.5 -4.5t59.5 -4.5t46.5 -2q20 0 55 8.5t70 20.5l27 -16v-34v-59.5t-1 -69.5t-1 -65q-2 -78 -2 -120v-52 l4 -971q37 -12 80 -22t84 -25q4 -10 6 -14t2 -8q0 -8 -2 -13.5t-6 -15.5h-82q-59 0 -97 -11t-94 -42q-10 -2 -15 2t-15 10l2 168q-47 -66 -124 -116t-182 -50q-92 0 -168.5 34t-136.5 101q-61 72 -92 158t-31 201zM229 475q0 -106 25 -182t78 -135q84 -98 211 -99 q82 0 143.5 43t99.5 107l-2 426l-4 104q-45 63 -108.5 95t-130.5 32q-125 0 -215 -104q-47 -53 -72 -123t-25 -164z" />
<glyph unicode="e" horiz-adv-x="878" d="M55 432q0 213 123 367q121 139 295 139q86 0 160 -34t123 -97q75 -105 75 -204q0 -50 -26 -58q-8 -4 -57 -4h-529q-2 -14 -3 -37t-1 -51q0 -98 15.5 -166t43.5 -111q35 -59 88.5 -92t124.5 -33q92 0 166 46t129 153q18 0 33 -1.5t23 -17.5q0 -25 -33 -88 q-51 -86 -138 -128t-188 -42q-88 0 -165.5 32t-137.5 97q-121 131 -121 330zM227 608h164q29 0 62.5 1t62.5 2t51.5 2t30.5 1q16 2 29.5 5.5t17.5 7.5q12 10 19.5 28.5t7.5 53.5q0 37 -14.5 61.5t-39.5 46.5q-31 29 -64.5 44.5t-76.5 15.5q-55 0 -100 -24t-79 -61.5 t-52.5 -86t-18.5 -97.5z" />
<glyph unicode="f" horiz-adv-x="583" d="M4 868q0 16 8 39h125q16 0 31.5 2t19.5 6v62q0 70 1 118t4 76q10 152 98 232t223 80q96 0 162.5 -46t66.5 -118q0 -41 -21.5 -71.5t-68.5 -30.5q-41 0 -68.5 18t-27.5 55q0 18 4 33.5t10 38.5q2 8 2 14v8q0 16 -25.5 28.5t-62.5 12.5q-35 0 -62.5 -16t-43.5 -39 q-16 -27 -31.5 -84t-15.5 -166q0 -66 2 -129t2 -84h237q4 -8 9.5 -17t5.5 -20q0 -8 -4 -17t-9 -19h-233v-674q0 -39 8 -58.5t28.5 -27.5t52.5 -10.5t79 -8.5q4 -10 7 -14t3 -8q0 -14 -10 -31h-242q-31 0 -54.5 -1t-48 -2t-53 -2t-69.5 -1q-4 4 -6 12t-2 15q0 8 2 13t6 11 q39 6 66.5 10t46 15.5t26.5 31t8 56.5v674h-180q-6 18 -6 34z" />
<glyph unicode="g" horiz-adv-x="1079" d="M74 -274q0 66 33.5 92t70.5 26q45 0 71.5 -24.5t26.5 -67.5q0 -25 -12 -51.5t-57 -54.5q33 -45 110.5 -78t192.5 -33q98 0 166.5 21.5t116.5 50.5q41 25 61 58.5t20 68.5q0 49 -23.5 86t-76.5 59q-72 31 -266 51q-59 6 -101 10.5t-69 8.5q-129 20 -188.5 62t-59.5 120 q0 66 44 117t142 80q-100 45 -144 113.5t-44 166.5q0 139 94 232q51 51 120 75.5t151 24.5q63 0 120.5 -12.5t112.5 -46.5q29 -20 50.5 -42t37.5 -42q29 49 86 96q51 33 92 33q63 0 92 -31q14 -18 23.5 -38.5t9.5 -45.5q0 -45 -22 -68q-22 -22 -57 -22h-3q-31 0 -53 31 q-4 6 -10 17t-12 24q-8 14 -21.5 18t-26.5 4q-29 0 -46 -23.5t-17 -58.5q0 -14 3 -28.5t11 -49.5q6 -29 10.5 -49t4.5 -35q0 -51 -20.5 -110.5t-55.5 -95.5q-41 -41 -110.5 -65t-164.5 -24q-47 0 -96 3.5t-69 3.5q-49 0 -90.5 -22.5t-41.5 -59.5q0 -76 93 -95 q12 -4 79.5 -12t184.5 -18q59 -6 101 -11.5t67 -9.5q72 -14 122 -37.5t83 -64.5q55 -70 55 -166q0 -70 -27.5 -126t-79.5 -97q-41 -23 -77.5 -40.5t-77.5 -27.5q-49 -10 -99.5 -17t-105.5 -7q-88 0 -154.5 13t-111.5 32q-86 35 -127 89t-41 120zM311 414q37 -39 79 -57.5 t95 -18.5q49 0 82 16.5t62 51.5q57 63 57 200q0 72 -16.5 121t-44.5 82q-31 35 -70 53.5t-92 18.5q-51 0 -88 -19.5t-72 -60.5q-65 -69 -65 -184q0 -126 73 -203z" />
<glyph unicode="h" horiz-adv-x="1099" d="M10 1417v12.5t4 14.5q53 4 90 8t67 10t55.5 15.5t58.5 19.5q31 0 30 -27v-686q61 78 144.5 116t169.5 38q92 0 155.5 -37t98.5 -102q25 -47 37 -122t14 -151l8 -360q2 -63 32 -85t89 -34q4 -8 7 -14.5t3 -12.5t-4 -11t-8 -11q-82 0 -134.5 4t-92.5 4q-23 0 -50.5 -1 t-54.5 -2t-46 -2t-26 -1q-8 16 -8 27q0 6 2 11t6 11q39 8 63.5 13.5t40 13.5t21.5 21.5t6 35.5v105v108t-1 104.5t-2 89.5t-3 60q-4 51 -9 79t-11 48q-25 57 -79 86t-116 29q-80 0 -142.5 -34t-100.5 -69v-25.5t-1 -30.5t-2.5 -42t-1.5 -59v-273v-80.5t1.5 -54t3.5 -38 t6 -34.5q4 -25 49 -37t98 -18q4 -6 7 -11t3 -13t-4 -12.5t-8 -12.5q-68 0 -130 3t-85 3q-14 0 -47 -1t-68.5 -1t-67.5 -1t-44 -1q-4 10 -5 13t-1 14q0 8 2 14l4 12q37 4 64.5 5t44 9.5t24.5 29t8 61.5v342l-4 530q0 57 -2 110.5t-5 96.5t-5 69.5t-6 30.5q-23 25 -60 36 t-67 22q-14 4 -15 22z" />
<glyph unicode="i" horiz-adv-x="520" d="M25 883q-6 27 4 47q37 -4 80 -4h73q47 0 82 6t60 6q12 -4 17 -8t11 -21q-2 -23 -3 -54.5t-3 -65t-3 -63.5t-1 -48v-541q0 -29 8 -44t25.5 -23.5t46.5 -13.5t70 -11q4 -6 6 -11.5t2 -13.5q0 -12 -13 -24q-39 0 -71.5 1t-67.5 3q-29 2 -65.5 3t-67.5 1h-168q-8 16 -8 27 q0 16 12 28q47 4 74 7.5t41 10.5t20.5 20.5t10.5 37.5v453q0 25 -1 57.5t-1 65t-1 62.5t-1 48q-55 14 -102.5 32.5t-65.5 29.5zM141 1366q0 53 35 84t86 31q53 0 82 -34t29 -81q0 -49 -31 -80t-86 -31t-85 31t-30 80z" />
<glyph unicode="j" horiz-adv-x="520" d="M-137 -360q0 49 22.5 65t63.5 16q63 0 82 -69q8 -27 14 -45.5t16 -28.5q24 -24 57 -24h3q27 0 51.5 15t36.5 40q8 18 14 52t6 81v811v98t-4 74q-4 39 -10 50t-37 30q-14 8 -48 19.5t-62 21.5q-6 10 -9.5 15t-3.5 16q0 12 11 26q72 4 116.5 10.5t74.5 14.5t50.5 15 t40.5 11l25 -12q2 -10 3 -23.5t1 -27.5q0 -27 -2 -61.5t-2 -45.5l4 -653v-158q0 -219 -27 -290q-37 -102 -125 -150q-78 -45 -170 -45q-39 0 -74.5 10t-64.5 33q-53 41 -53 109zM154 1376q0 53 34.5 84t85.5 31q53 0 82 -34t29 -81q0 -49 -30.5 -79.5t-86.5 -30.5 q-55 0 -84.5 30.5t-29.5 79.5z" />
<glyph unicode="k" horiz-adv-x="1056" d="M16 1442q0 10 3.5 13t9.5 11q27 -4 68.5 -9t72.5 -5q45 0 77 17.5t60 27.5q12 0 18.5 -4t16.5 -10q0 -59 -3 -96t-3 -54v-882q10 8 32.5 27.5t50 44t59.5 53t61 57.5q27 27 52 53.5t42 44.5q10 12 19.5 25.5t9.5 25.5q0 23 -14.5 35t-33.5 19q-16 4 -58 10t-69 10 q-4 10 -5 14t-1 13q0 12 8 26h289l228 13q4 -8 6 -11.5t2 -11.5q0 -10 -4 -14t-9 -13q-55 -12 -95 -27.5t-70 -37.5q-33 -25 -51.5 -38t-37 -28.5t-45 -39l-79.5 -70.5l-99 -86l158 -183l195 -237q35 -45 84 -64.5t106 -29.5q4 -6 6 -11.5t2 -13.5t-4 -12t-10 -12 q-43 0 -86 4t-68 6q-20 2 -44.5 3t-57.5 2t-78 1h-111q-4 8 -6 9t-2 11t6 23q35 10 61.5 18.5t37.5 20.5q-18 33 -41 63.5t-62 77.5l-57 72q-47 59 -74.5 87t-50.5 44q-35 10 -60.5 -6.5t-33.5 -28.5q-2 -23 -3 -64.5t-1 -84.5q0 -37 1 -73t3 -65q2 -27 32.5 -38t77.5 -17 q4 -6 7.5 -10t3.5 -14q0 -6 -4.5 -12.5t-8.5 -12.5h-44.5t-59.5 2q-41 4 -70.5 5t-54.5 1q-23 0 -74 -3t-98 -3q-4 10 -5 12t-1 13q0 10 8 24q49 10 78 23.5t43 31t18 39t4 45.5v822q0 31 -1 75.5t-2 92t-2 90.5t-3 69q-47 23 -89 42.5t-64 35.5q-4 10 -6.5 13.5t-2.5 13.5z " />
<glyph unicode="l" horiz-adv-x="505" d="M23 31q0 16 10 30q55 0 86 8.5t46 26t19 44t4 63.5v43t1 84t1 103v104v411q0 47 -1 111.5t-2 128t-4 112t-7 60.5q-29 16 -73 30.5t-68 22.5q-4 10 -4 21q0 4 2 11t6 17h125q55 0 90 17.5t53 17.5q10 0 21.5 -5t11.5 -26v-1321q0 -29 6 -45t21.5 -25t42 -13.5t69.5 -10.5 q8 -16 8 -26q0 -4 -2 -11.5t-4 -13.5q-6 0 -25.5 1t-46 1t-53 1t-45.5 1h-278q-4 4 -7 10t-3 17z" />
<glyph unicode="m" horiz-adv-x="1660" d="M43 862q0 10 12 27q4 0 16.5 -2t29 -4t34 -4t31.5 -2q39 0 60.5 19t43.5 48q4 2 5 2h12q10 0 14 -3t12 -7v-205q27 61 62 101t74.5 64t82.5 33t82 9q98 0 167 -43t100 -152q31 100 106.5 147.5t190.5 47.5q100 0 169.5 -34t104.5 -105q31 -61 41 -172q2 -16 2 -50v-88 v-327q0 -35 5 -55.5t19.5 -30.5t39 -15.5t63.5 -9.5q4 -6 7 -10t3 -14q0 -8 -3 -14.5t-7 -12.5h-72q-37 0 -76.5 2t-84.5 2q-84 0 -122 -1t-48 -1q-2 6 -3.5 11t-1.5 16q0 10 7 24q31 4 54 5t39.5 8.5t26 25t9.5 49.5v498q0 49 -11 86q-8 23 -26.5 45.5t-45 40.5t-60 30.5 t-70.5 12.5q-45 0 -86 -13.5t-72 -40t-48.5 -66.5t-17.5 -95l2 -498q0 -33 4.5 -49t17.5 -24.5t38.5 -9.5t68.5 -1q8 -16 9 -24q0 -10 -3 -16.5t-8 -12.5q-4 0 -25.5 1t-49 1t-54 1t-43.5 1q-12 0 -38.5 -1t-58.5 -1t-65.5 -1t-60.5 -1q-2 8 -3 14.5t-1 12.5q0 14 6 26 q27 2 48.5 3t37 5.5t24.5 17.5t9 40v358v88t-4 70q-12 94 -67.5 147.5t-141.5 53.5q-88 0 -144.5 -53.5t-78.5 -129.5l2 -491q0 -37 7 -57.5t22.5 -31.5t39 -15.5t58.5 -10.5q4 -6 7 -9t3 -13t-4 -15.5t-8 -13.5q-29 0 -76 2t-102 2q-68 0 -124.5 -2t-84.5 -2q-10 12 -11 27 q0 10 9 26q31 4 54 7t37.5 11.5t21.5 24t7 45.5v467q0 47 -4 92t-8 70q-41 18 -70.5 33.5t-62.5 36.5q-2 10 -2 22z" />
<glyph unicode="n" horiz-adv-x="1097" d="M39 842q0 10 3 19t13 26q16 -4 50 -9.5t69 -5.5q41 0 61.5 18.5t55.5 55.5q27 6 47 -8l-8 -176q53 86 135 131t170 45q86 0 152.5 -32t101.5 -99q43 -80 43 -258v-414q0 -47 34.5 -62.5t88.5 -27.5q6 -12 6 -20q0 -14 -10 -25h-414q-4 6 -6 11t-2 14q0 10 2 15t6 11 q78 0 111.5 23.5t33.5 70.5l2 342q0 70 -5 135.5t-19 100.5q-23 55 -66 84t-114 29q-66 0 -120 -26t-102 -73q-16 -12 -16 -22t-2 -33q0 -14 -1 -40t-1 -60v-414q0 -63 28.5 -90t106.5 -27q12 -14 12 -26q0 -10 -3 -12.5t-7 -12.5h-420q-10 10 -10 23q0 10 8 26 q78 4 106.5 24.5t33.5 76.5q2 23 3 98.5t1 173.5q0 121 -2 195.5t-7 99.5q-4 31 -12 45t-20 20q-31 16 -55.5 26.5t-61.5 33.5z" />
<glyph unicode="o" horiz-adv-x="976" d="M59 453q0 100 32 188t97 160q68 72 145 104.5t154 32.5q53 0 106.5 -16.5t113.5 -53.5q100 -68 155.5 -173t55.5 -232q0 -98 -34 -183t-102 -165q-141 -141 -297 -142q-78 0 -151.5 32t-145.5 101q-66 78 -97.5 161t-31.5 186zM221 457q0 -209 78 -318q35 -49 79 -76.5 t109 -27.5q133 0 198 108.5t65 309.5q0 225 -82 325q-35 47 -80 73t-109 26q-59 0 -101 -26t-77 -73q-80 -106 -80 -321z" />
<glyph unicode="p" horiz-adv-x="1099" d="M14 -494q0 12 6 29q63 4 97.5 13.5t50.5 22.5t19 34.5t3 50.5v256l-8 774q0 43 -3 60.5t-19 27.5q-33 20 -54.5 30.5t-58.5 33.5q-4 10 -4 22q0 6 3 13.5t7 13.5q14 0 45 -2t76 -2q27 0 53.5 13t63.5 50q18 4 26.5 0t18.5 -8l-8 -145q61 82 138 113.5t142 31.5 q125 0 226.5 -64.5t156.5 -193.5q23 -53 34 -115t11 -121q0 -102 -29.5 -184t-84.5 -149q-47 -55 -123 -87t-172 -32q-37 0 -77 6t-79 18.5t-71.5 32t-57.5 43.5v-123q0 -150 2 -248t14 -139q8 -23 40 -35t65 -12h59q6 -10 9.5 -14t3.5 -13q0 -6 -3.5 -12t-7.5 -12 q-16 -2 -58 -2h-75h-368q-4 6 -6.5 11t-2.5 13zM330 578q0 -84 3 -164t7 -158q2 -39 5 -62.5t13 -37.5q12 -18 36 -35t53.5 -30t62.5 -20.5t61 -7.5q37 0 76 13.5t74 40.5q76 51 111.5 130t35.5 212q0 98 -21.5 173t-68.5 124q-41 47 -96 73.5t-121 26.5q-68 0 -122 -34 t-105 -97q-2 -31 -3 -71t-1 -76z" />
<glyph unicode="q" horiz-adv-x="1079" d="M63 434q0 205 115 346q59 72 151.5 115t196.5 43q63 0 123 -16.5t127 -55.5q23 -12 27 -20t20 -15q18 16 29.5 41t26.5 43q33 6 47 -8l2 -876q0 -145 2 -263t6 -169q2 -37 28.5 -47.5t112.5 -14.5q4 -4 8.5 -10t4.5 -16q0 -4 -11 -25q-12 -2 -38.5 -2h-53.5q-41 0 -80 1 t-80 1q-29 0 -84 -1t-151 -1q-4 6 -5 15t-1 14q0 8 8 22q61 2 98 7t55.5 15.5t24.5 28t6 45.5l2 469q-76 -76 -153.5 -100.5t-141.5 -24.5q-115 0 -229 68q-98 59 -145.5 158.5t-47.5 232.5zM227 453q0 -63 10.5 -118.5t34.5 -111.5q41 -82 106.5 -124t164.5 -42 q82 0 141 32t96 85l-2 455q0 37 -5 71.5t-15 57.5q-8 16 -22.5 34.5t-45.5 38.5q-35 23 -71.5 33t-81.5 10q-66 0 -117 -28.5t-92 -85.5q-100 -125 -101 -307z" />
<glyph unicode="r" horiz-adv-x="765" d="M31 864q0 12 4 17.5t8 9.5q35 -10 64.5 -15.5t68.5 -5.5q25 0 55.5 13.5t59.5 60.5q10 4 24 4q8 0 10.5 -3t8.5 -7q2 -14 2 -22.5v-26.5l-6 -201q63 106 141 174t156 68q53 0 85.5 -38t32.5 -93q0 -43 -18 -74t-61 -31q-12 0 -27.5 4t-24.5 13q-20 23 -31.5 45t-21.5 32 q-14 20 -45 21q-16 0 -40.5 -16.5t-51.5 -51.5q-23 -29 -44.5 -60.5t-37.5 -64.5q0 -23 -1 -43t-1 -43q0 -145 1 -251.5t3 -147.5q2 -43 36 -56.5t130 -17.5q4 -10 8 -14t4 -12q0 -10 -3 -16.5t-7 -12.5q-53 0 -105.5 1t-87.5 1q-47 0 -115.5 -3t-148.5 -3q-4 10 -6 13 t-2 14q0 10 4 26q47 6 77 8t45 10.5t20.5 27t5.5 55.5v356q0 236 -19 256q-41 25 -82 42t-65 32q-2 8 -2 26z" />
<glyph unicode="s" horiz-adv-x="790" d="M63 31q10 23 18.5 59.5t8.5 65.5q0 45 -6 76.5t-14 66.5q16 23 51 16q6 -12 14 -34.5t20.5 -47t26 -49t27.5 -43.5q47 -57 102.5 -82.5t110.5 -25.5q74 0 131 45t57 119q0 45 -22.5 77.5t-57.5 55.5q-27 18 -67.5 35.5t-97.5 37.5q-127 43 -187 89q-39 29 -67.5 81 t-28.5 111q0 55 20.5 102.5t57.5 81t89 53t116 19.5q72 0 132 -25.5t89 -54.5q25 23 43 36t37 24q29 0 41 -27q-10 -33 -19.5 -61.5t-9.5 -51.5q0 -53 11 -84.5t22 -54.5q-2 -16 -13.5 -22.5t-27.5 -6.5q-27 31 -54.5 76t-54.5 94q-37 53 -98.5 77t-118.5 24q-59 0 -104 -37 t-45 -96q0 -72 53 -119q14 -10 36.5 -22.5t63.5 -28.5q88 -35 152.5 -60.5t111.5 -58.5q53 -37 87 -89t34 -122q0 -63 -24.5 -115.5t-65.5 -87.5q-92 -76 -227 -76q-59 0 -122 16.5t-128 51.5l-62 -39q-16 -4 -27 6t-14 25z" />
<glyph unicode="t" horiz-adv-x="638" d="M16 858q0 10 4.5 17.5t8.5 17.5q39 6 65.5 17.5t46 26.5t32.5 33.5t26 37.5q16 27 31.5 81t25.5 111q16 8 31 8q10 0 30 -10v-291h244q20 -20 21 -41q0 -16 -17 -43l-256 2l-2 -616q20 -59 50 -95t87 -36q49 0 81 29.5t55 82.5q4 2 12 4.5t18 -1.5q12 -4 9.5 -6.5 t7.5 -8.5q-2 -37 -18.5 -69.5t-45.5 -67.5q-27 -31 -69.5 -46t-92.5 -15q-35 0 -70.5 10t-64.5 28q-53 35 -77.5 93.5t-24.5 136.5l6 575h-143q-4 6 -7.5 15.5t-3.5 19.5z" />
<glyph unicode="u" horiz-adv-x="1085" d="M2 881q0 8 2 14t6 14h232q43 0 51 -4q14 -10 14 -43v-592q0 -90 51 -139q66 -72 164 -72q41 0 79 13.5t69.5 35t56.5 48t41 53.5v305v140.5t-2 97.5t-6 45t-20.5 29.5t-49.5 17.5t-92 8q-6 10 -7 16t-1 13q0 10 12 28h281q23 0 26 -2q12 -4 13 -22q0 -10 -4.5 -50 t-4.5 -112v-539q0 -41 7 -71q12 -4 31.5 -9.5t39 -10.5t36.5 -10t30 -9q4 -6 6 -11.5t2 -15.5t-3 -15t-5 -12q-2 0 -13.5 -1t-25.5 -1t-29.5 -1t-25.5 -1q-41 -4 -77 -19t-81 -26q-16 4 -21.5 9.5t-9.5 17.5v147q-53 -94 -136 -134t-167 -40q-78 0 -141.5 23.5t-108.5 73.5 q-29 31 -44 74.5t-17 95.5l-4 485q0 45 -6.5 69.5t-21.5 37t-44 15.5t-76 7q-6 16 -6 29z" />
<glyph unicode="v" horiz-adv-x="989" d="M-10 887q0 14 12 26q29 0 91.5 -2t137.5 -2h30h50.5t60 1t60.5 3q12 -12 12 -26q0 -10 -3 -15.5t-7 -13.5q-43 0 -67.5 -5t-36 -12t-14.5 -15.5t-3 -14.5q0 -16 7.5 -42t21.5 -64l174 -467q2 -6 8 -24.5t11 -29.5q6 16 16 40t16 40l107 271q41 102 59.5 165.5t18.5 92.5 q0 18 -12.5 32.5t-22.5 18.5q-16 4 -46 7t-53 5q-8 14 -8 27q0 10 3 14t8 12h372q4 -6 7.5 -11t3.5 -11q0 -10 -2.5 -13.5t-6.5 -13.5q-59 -8 -111.5 -50t-84.5 -122l-113 -297q-6 -18 -24.5 -60t-41 -92.5t-44 -102.5t-35.5 -91q-20 -55 -31.5 -66.5t-28.5 -11.5 q-14 0 -24 15q-10 23 -18.5 49t-12.5 37l-211 553q-31 82 -50.5 124.5t-29.5 57.5q-16 25 -48 39t-91 20q-4 8 -5 13.5t-1 11.5z" />
<glyph unicode="w" horiz-adv-x="1548" d="M2 883q0 12 8 28q10 0 37 -1t59.5 -1t67.5 -1t62 -1q57 0 106 4q33 3 65 3l33 -1q12 -12 13 -26q0 -12 -3.5 -14.5t-7.5 -12.5q-80 -2 -101.5 -17.5t-21.5 -33.5q0 -20 11 -51l172 -510q4 -16 12 -43t12 -41q4 10 10.5 32.5t10.5 30.5l205 549l-21 64q-2 6 -14 10 t-28.5 6t-34 3t-29.5 1q-4 8 -7.5 12.5t-3.5 14.5q0 4 3.5 11t7.5 13q29 0 61.5 -1t62 -1h50h26.5h55.5t54.5 1t43 1h19q4 -6 7.5 -11t3.5 -11q0 -12 -7 -25q-45 -8 -75.5 -12t-30.5 -33q0 -12 5 -36.5t15 -57.5l150 -473q4 -14 10 -35.5t10 -38.5q25 61 60 151.5t69 176.5 q39 98 80 205q16 39 17 96q0 16 -16.5 25.5t-38 14.5t-44 8t-36.5 5q-6 12 -7 21q0 8 2.5 14t6.5 14q37 0 74.5 -2t82.5 -2q12 0 47 1t74 3q45 2 96 2q4 -6 7.5 -12t3.5 -16q0 -8 -3.5 -12.5t-7.5 -14.5q-23 0 -48 -9t-52 -30.5t-53.5 -59.5t-50.5 -98l-246 -604 q-10 -23 -18.5 -38t-16.5 -25t-16.5 -18.5t-18.5 -8.5q-25 0 -35 29l-213 686q-6 -16 -16 -42t-14 -40l-193 -500q-14 -35 -29.5 -71.5t-23.5 -51.5q-8 -4 -12 -7t-15 -3q-12 0 -26 15l-11.5 23t-15.5 38l-254 700q-14 37 -28.5 59.5t-24.5 30.5q-12 10 -44 16.5t-67 10.5 q-8 16 -8 25z" />
<glyph unicode="x" horiz-adv-x="970" d="M4 25q0 10 8 26q70 16 114 45t81 76l211 274l-189 277q-35 49 -58.5 72.5t-39.5 33.5q-8 6 -43 13.5t-61 11.5q-10 10 -11 29q0 12 13 26q35 0 87 -3t93 -3q23 0 87 3t150 3q8 -16 9 -22q0 -8 -1 -12.5t-5 -12.5q-14 -2 -33 -5t-34 -8t-25.5 -12.5t-10.5 -17.5t27 -51 l137 -213l125 186q10 14 17 30.5t7 33.5q0 29 -24.5 38t-61.5 17q-6 8 -7 13.5t-1 13.5q0 10 6 22q55 0 122 -1t126 -1h111q4 -8 8 -12t4 -12t-4 -12.5t-8 -14.5q-57 -4 -107.5 -31.5t-74.5 -58.5l-201 -254l266 -385q25 -35 58.5 -51.5t89.5 -26.5q4 -6 7 -13t3 -11 q0 -6 -2 -11.5t-6 -13.5q-25 0 -58 1t-66.5 1t-62 1t-47.5 1q-43 0 -97 -2t-83 -2q-4 6 -6 10t-2 15q0 8 3 12t7 12q31 4 62.5 11.5t31.5 33.5q0 20 -12 44t-41 65l-133 198l-146 -208q-8 -10 -15 -23.5t-7 -30.5q0 -25 13 -40t32.5 -24t44.5 -14.5t45 -7.5q10 -14 10 -28 q0 -8 -2 -12.5t-6 -10.5q-37 0 -98.5 2t-136.5 2q-20 0 -47 -1t-53.5 -2t-48 -2t-32.5 -1q-4 6 -6 10t-2 15z" />
<glyph unicode="y" horiz-adv-x="989" d="M-12 889q0 10 6 24h51q53 0 118.5 -3t112.5 -3l146 2l8 -12t4 -12q0 -14 -12 -27q-27 -2 -47.5 -5t-35.5 -9t-23.5 -18.5t-8.5 -34.5q0 -20 12 -56l125 -325q31 -78 56.5 -137.5t42.5 -96.5q27 66 58.5 146.5t63 161.5t57.5 152t40 114q-10 41 -16.5 56t-22.5 34 q-12 4 -49 7t-60 7q-6 8 -7 13t-1 14q0 12 8 26q43 0 100.5 -2t110.5 -2q12 0 32 1t39 3t37.5 3t29.5 1h19t17 -2q4 -8 7.5 -13t3.5 -13q0 -10 -3 -12.5t-8 -12.5q-59 -2 -103 -43t-75 -113l-174 -426q-12 -27 -34.5 -88t-51.5 -134.5t-57.5 -148.5t-52.5 -130 q-35 -86 -69 -141.5t-65 -94.5q-31 -31 -71.5 -46t-81.5 -15q-61 0 -98 29.5t-37 84.5q0 39 23.5 73t68.5 34q23 0 45 -6t39 -25q6 -10 12 -42t19 -52q33 29 63.5 73t59 97t54 112.5t48.5 116.5q-55 145 -132 339t-165 407q-6 14 -14.5 31.5t-16.5 34t-14 28.5t-10 16 q-4 6 -18.5 11.5t-33 9.5t-36 7t-29.5 5q-2 10 -3 15.5t-1 11.5z" />
<glyph unicode="z" horiz-adv-x="860" d="M31 23v6t4 12l201 262q78 104 156.5 219t156.5 228q12 18 21.5 30.5t17.5 22.5t16 20.5t19 24.5l-357 -2q-10 0 -20 -12q-18 -23 -32.5 -45.5t-37.5 -61.5t-37 -62.5t-37 -50.5q-18 0 -20 5.5t-12 9.5q0 47 1 81.5t3 63.5t3 55.5t1 59.5q0 29 22 29q4 0 20.5 -1.5 t37 -2.5l41 -2t30.5 -1q37 0 87.5 -2t108.5 -3t122.5 -3t130.5 -2q31 0 60.5 2t39.5 2q10 -2 18.5 -8t6.5 -29l-238 -338q-35 -51 -62.5 -92t-52 -78.5t-50 -75.5t-58.5 -81q-29 -39 -60.5 -78t-52.5 -62h134.5t121 1.5t92 4.5t50.5 7q12 4 25.5 19.5t23.5 31.5 q25 37 50.5 87t45.5 79q10 4 11 5t12 1q12 0 12 -2t10 -8q0 -66 -3 -127.5t-3 -114.5q0 -25 -4 -32t-21 -11q-10 -2 -44.5 -3t-69.5 -1q-68 0 -139.5 1t-136 2t-119 2t-87.5 1q-45 0 -87 -3t-58 -3q-6 4 -10 5t-4 18z" />
<glyph unicode="{" horiz-adv-x="847" d="M49 596q0 25 8 41q135 12 207 70.5t72 193.5v199q0 209 96 294t297 85q4 -10 8 -16.5t4 -16.5q0 -16 -12 -39q-43 0 -87 -9t-80 -34t-57.5 -69t-21.5 -113v-201q0 -100 -23.5 -168t-66.5 -111t-101.5 -66.5t-127.5 -37.5v-8q70 -14 128 -38t101 -67t66.5 -109.5 t23.5 -168.5v-201q0 -70 21.5 -114t56.5 -68.5t79 -33.5t89 -9q4 -10 8 -16.5t4 -16.5q0 -20 -12 -39q-201 0 -297 85t-96 294v199q0 135 -71.5 194.5t-207.5 69.5q-6 10 -7 21.5t-1 23.5z" />
<glyph unicode="|" horiz-adv-x="972" d="M438 -414v1899h97v-1899h-97z" />
<glyph unicode="}" horiz-adv-x="847" d="M106 -252q0 10 3.5 16.5t7.5 16.5q45 0 89 9t80 33.5t57.5 69t21.5 113.5v201q0 102 23.5 168.5t66.5 109.5t101 66.5t128 38.5v8q-70 14 -128 37.5t-101 66.5t-66.5 111t-23.5 168v201q0 70 -23 113.5t-57.5 68.5t-79.5 34t-88 9q-10 18 -11 35q0 16 11 37 q201 0 298 -85t97 -294v-199q0 -135 70.5 -193.5t205.5 -70.5q11 -21 11 -41q0 -27 -11 -45q-135 -10 -205.5 -69.5t-70.5 -194.5v-199q0 -209 -97.5 -294t-297.5 -85q-10 14 -11 39z" />
<glyph unicode="~" d="M176 377q12 61 46 118.5t84 101.5t111.5 70.5t129.5 26.5q47 0 118.5 -28.5t149.5 -61.5q88 -35 157.5 -61.5t104.5 -26.5q43 0 76 18.5t57.5 47t41 62.5t28.5 65q4 10 17.5 18t27.5 8t24.5 -8.5t6.5 -26.5q-12 -61 -46 -118.5t-83 -102.5t-110.5 -71.5t-129.5 -26.5 q-47 0 -109.5 25.5t-156.5 66.5q-39 18 -79 33.5t-75 28t-63.5 19.5t-46.5 7q-43 0 -75 -18.5t-56.5 -47t-42 -62.5t-29.5 -64q-4 -12 -17.5 -20.5t-27.5 -8.5t-25.5 10t-7.5 27z" />
<glyph unicode="&#xa1;" horiz-adv-x="667" d="M215 897q0 53 27.5 87t83.5 34q55 0 82.5 -33t27.5 -80q0 -49 -28.5 -81.5t-88.5 -32.5q-51 0 -77.5 29.5t-26.5 76.5zM217 -360q0 25 2 51t6 65t11.5 96.5t17.5 143.5q20 174 28.5 326.5t18.5 261.5q4 4 13.5 7t15.5 3q4 0 12 -2t14 -4q2 -23 6.5 -87.5t9.5 -149.5 t12 -177t15 -170q10 -100 17.5 -185t7.5 -138q0 -63 -10 -95q-29 -68 -88 -67q-51 0 -78 26q-16 14 -23.5 40t-7.5 55z" />
<glyph unicode="&#xa2;" horiz-adv-x="1028" d="M131 479q0 137 57.5 254t184.5 180q94 47 231 48q59 0 111 -19l86 238q10 27 21.5 32t23.5 5q18 0 21 -17.5t-1 -30.5l-92 -254q12 -10 23.5 -17t21.5 -17q20 -18 37.5 -48t17.5 -73t-21.5 -72t-68.5 -29q-29 0 -52 9.5t-38 25.5l-106 -291q-20 -55 -39 -107t-34 -93 t-25 -67l-9 -25q55 -25 123 -25q78 0 120 24.5t81 67.5q12 14 22.5 31.5t24.5 40.5q18 27 33 26q28 1 28 -28q0 -23 -30 -78q-53 -86 -136 -128t-188 -42q-55 0 -110 16l-101 -274q-8 -23 -16 -28t-21 -5q-18 0 -24 13.5t-2 27.5l104 289q-14 8 -28.5 15t-28.5 18 q-98 59 -149.5 166.5t-51.5 240.5zM291 518q0 -102 22.5 -186t67.5 -139q10 -14 22.5 -26.5t22.5 -23.5l262 723q-16 20 -52 28.5t-83 8.5q-49 0 -96 -28.5t-78 -73.5q-39 -55 -63.5 -124t-24.5 -159z" />
<glyph unicode="&#xa3;" horiz-adv-x="1275" d="M74 141q0 78 62.5 120t146.5 42q45 0 92 -13.5t90 -35.5q4 18 6 54t2 54q0 47 -4 82t-12 66t-17.5 59.5t-19.5 61.5h-223q-29 0 -38 6t-9 29t9 29.5t38 6.5h209q-10 45 -15.5 105.5t-5.5 126.5q0 150 51 246q51 98 141.5 152t208.5 54q70 0 128.5 -21.5t105.5 -61.5 q43 -39 63.5 -90.5t20.5 -110.5q0 -43 -11.5 -79t-33.5 -58q-63 -51 -137 -52q-29 0 -55.5 10.5t-59.5 32.5q-18 23 -27.5 34t-9.5 22q0 16 4 24t21 8q4 0 7 -1t13 -5q16 -8 42 -14t36 -6q45 0 82 39q20 23 26.5 46t6.5 52q0 61 -62 113q-63 53 -162 53q-49 0 -95 -15.5 t-83 -48t-58.5 -83t-21.5 -119.5q0 -63 6.5 -112.5t15.5 -91.5t18 -77t16 -72h286q29 0 38 -4t9 -26q0 -23 -8 -32t-39 -9h-278q4 -23 5 -47.5t1 -61.5q0 -63 -12.5 -141t-40.5 -158q39 -14 80 -29.5t88 -29.5q66 -18 106.5 -24.5t73.5 -6.5q168 0 239 150q25 53 44 53 q18 0 23 -7.5t5 -27.5q0 -35 -28 -90q-113 -229 -316 -229q-47 0 -84 12t-80 33q-35 16 -88 45.5t-102 56.5q-47 -78 -102.5 -115t-133.5 -37q-88 0 -141 44.5t-53 119.5zM131 141q0 -41 29.5 -68.5t83.5 -27.5q68 0 115 38t63 91q-39 16 -86 33.5t-98 17.5q-49 0 -78 -22.5 t-29 -61.5z" />
<glyph unicode="&#xa4;" horiz-adv-x="1181" d="M51 545q0 23 9.5 29t37.5 6h140q-4 27 -4.5 49t-0.5 49v25.5t3 25.5h-138q-29 0 -38 6t-9 29t9.5 29t37.5 6h142q25 156 78 267.5t126.5 182t162.5 103t188 32.5q68 0 127 -19t102 -51t67.5 -74t24.5 -85t-20.5 -77t-73.5 -34q-43 0 -72.5 21.5t-29.5 62.5q0 31 3 50.5 t13 54.5q0 37 -47 61.5t-105 24.5q-74 0 -141.5 -41t-121.5 -111.5t-89 -165t-43 -202.5h485q29 0 37.5 -6.5t8.5 -28.5q0 -23 -8.5 -29t-37.5 -6h-489q-2 -16 -2 -31.5v-31.5v-43.5t2 -42.5h367q29 0 37 -6.5t8 -28.5q0 -23 -8.5 -29t-36.5 -6h-361q27 -215 119 -331 t238 -116q96 0 150 23t95 68q12 14 33 44.5t33 53.5q12 4 20 4q27 0 39 -25q0 -23 -35 -86q-53 -86 -143 -129t-192 -43q-117 0 -205 39t-149.5 110t-98.5 170t-51 218h-146q-29 0 -38 6t-9 29z" />
<glyph unicode="&#xa5;" horiz-adv-x="1320" d="M47 1329q0 16 7 24.5t18 8.5q12 0 66.5 -2t121.5 -2h71.5t49 1t36 1h32.5q68 4 83 3t21 -1q23 2 22 -23q0 -4 -2 -13t-6 -13t-15 -5t-28 -3q-68 -4 -96.5 -18.5t-28.5 -55.5q0 -14 5.5 -31.5t11.5 -30.5l278 -604l168 344q33 66 55.5 120t40.5 101q8 18 14.5 41t6.5 39 q0 29 -8 45.5t-26.5 24.5t-47.5 13t-68 12q-16 4 -19 14t-3 20q0 23 18 23q12 0 39 -1t63 -1t74.5 -1t73.5 -1q8 0 27.5 1t45.5 1t53.5 1t49.5 1q29 0 29 -27q0 -8 -3 -17t-13 -11q-27 -4 -54.5 -12.5t-54.5 -26t-52.5 -44t-45.5 -67.5l-205 -420h227q14 0 19.5 -6t5.5 -29 t-4 -28.5t-21 -5.5h-266l-76 -156h342q14 0 19.5 -6t5.5 -29t-4 -29t-21 -6h-346v-260q0 -23 3 -37t9.5 -23t15.5 -17.5t23 -18.5q16 -14 65.5 -23.5t94.5 -17.5q8 -14 8 -27q0 -8 -3 -14t-7 -12q-63 0 -142 4t-179 4h-248q-2 6 -4 13t-2 16q0 10 10 28q16 0 37.5 2t43 4.5 t39 5.5t25.5 9q29 18 47.5 42.5t18.5 80.5v161q0 29 -1 45.5t-7 34.5h-347q-18 0 -22 6.5t-4 28.5q0 23 5 29t21 6h336l-73 156h-263q-16 0 -21 6t-5 28q0 23 5 29t21 6h226l-240 502q-6 14 -17.5 21.5t-28.5 13.5t-43 12t-62 19q-12 4 -16.5 11t-4.5 13z" />
<glyph unicode="&#xa6;" horiz-adv-x="972" d="M438 358h97v-772h-97v772zM438 733v752h97v-752h-97z" />
<glyph unicode="&#xa7;" horiz-adv-x="1003" d="M147 643q0 104 46.5 184t140.5 156q-27 35 -45.5 62.5t-29.5 53t-15 51.5t-4 56q0 63 24.5 116.5t65.5 92.5t97 60.5t120 21.5q53 0 101 -12t85 -36t58.5 -56.5t21.5 -75.5q0 -41 -22.5 -72t-69.5 -31q-41 0 -67.5 18.5t-26.5 59.5q0 23 7 45.5t11 34.5q-16 31 -53 46.5 t-84 15.5q-78 0 -120 -51.5t-42 -114.5q0 -33 8 -61.5t26.5 -59.5t50.5 -68t79 -86l135 -139q100 -109 163.5 -204t63.5 -210q0 -111 -44 -190.5t-138 -138.5q35 -45 52.5 -82t26.5 -67t10 -55.5t1 -51.5q0 -63 -23.5 -116.5t-64.5 -92.5t-95 -60.5t-116 -21.5 q-53 0 -103 10t-88 32.5t-60.5 57.5t-22.5 84q0 37 22.5 69.5t69.5 32.5q41 0 66.5 -20t25.5 -61q0 -23 -7 -36.5t-17 -27.5q8 -41 53 -59.5t92 -18.5q43 0 74.5 15.5t52 40t30 53t9.5 53.5q0 37 -8 71t-27.5 67.5t-51.5 72.5t-79 88l-135 139q-100 109 -165 205t-65 211z M248 737q0 -55 17.5 -103t50 -97.5t80.5 -102.5t110 -121q27 -29 66.5 -70.5t80.5 -82.5q53 25 86 69.5t33 114.5q0 55 -17.5 102.5t-50 96.5t-81 102t-109.5 121q-27 29 -64.5 72t-78.5 84q-53 -27 -88 -71t-35 -114z" />
<glyph unicode="&#xa8;" horiz-adv-x="520" d="M-29 1247q0 41 28 72t75 31q41 0 69.5 -29t28.5 -74q0 -41 -26.5 -70.5t-73.5 -29.5q-45 0 -73 29.5t-28 70.5zM348 1247q0 45 31 74t72 29q45 0 72.5 -31t27.5 -72q0 -43 -29.5 -71.5t-70.5 -28.5q-45 0 -74 29.5t-29 70.5z" />
<glyph unicode="&#xa9;" horiz-adv-x="1929" d="M80 514q0 182 69.5 342t190.5 279.5t282.5 189.5t344.5 70q182 0 341.5 -70t280.5 -189.5t190.5 -279.5t69.5 -342t-69.5 -344t-190.5 -281.5t-280.5 -189.5t-341.5 -70t-344 70t-283 189.5t-190.5 281.5t-69.5 344zM158 514q0 -170 63.5 -318.5t172 -259t257 -174 t316.5 -63.5t314 63.5t256 174t172.5 259t62.5 318.5q0 168 -62.5 315.5t-172.5 257t-256 173t-314 63.5t-316.5 -63.5t-257 -173t-172 -257t-63.5 -315.5zM504 508q0 104 34.5 195.5t96 160t144.5 108.5t177 40q82 0 152 -21.5t137 -72.5q16 23 27.5 35t27.5 26 q8 -2 18.5 -5t16.5 -9q-4 -31 -5 -76t-1 -74q0 -12 2 -31.5t4 -40t5 -40t3 -33.5q-8 -10 -20 -11q-4 0 -10 1.5t-10 1.5q-8 29 -20.5 57.5t-24 53t-20.5 43t-15 24.5q-47 51 -100.5 79.5t-125.5 28.5q-63 0 -121.5 -27.5t-103.5 -83t-70.5 -136t-25.5 -187.5 q0 -88 20.5 -166t62.5 -135t106.5 -90t154.5 -33q80 0 155.5 40t139.5 130q2 2 16 2q6 0 11.5 -12.5t5.5 -18.5q0 -16 -31 -57q-53 -66 -138 -112t-196 -46q-123 0 -213 41t-149.5 110t-88 158t-28.5 183z" />
<glyph unicode="&#xaa;" horiz-adv-x="874" d="M135 868q0 35 14.5 73t43.5 63q37 33 87 57t121 47q29 10 46.5 16t29.5 10.5t21.5 7.5t21.5 7v28.5v40t-2 41t-6 27.5q-10 23 -44 36t-73 13q-51 0 -92 -20q-18 -10 -18 -19q0 -8 13 -21t13 -48q0 -68 -73 -68q-84 0 -84 88q0 31 15 51.5t42 38.5q39 23 83 36t105 13 q121 0 177.5 -44t56.5 -136v-362q0 -23 6 -36t23 -13q25 0 45 20q6 6 16 0q8 -4 12 -1t4 -13q0 -29 -24 -47q-18 -14 -46 -22.5t-51 -8.5q-16 0 -36.5 8t-30.5 19q-16 14 -21.5 32.5t-13.5 40.5q-37 -43 -95.5 -71.5t-119.5 -28.5q-74 0 -120 40t-46 105zM170 408q0 16 5 27 t15 11h494q8 0 13 -10t5 -26t-5 -28.5t-13 -12.5h-494q-10 0 -15 12t-5 27zM258 913q0 -41 30.5 -71.5t76.5 -30.5q31 0 68.5 13.5t62.5 35.5q4 4 12 10.5t10 14.5q2 12 2 46v62v97q-10 -4 -17 -6.5t-16.5 -3.5t-25 -6t-39.5 -15q-164 -63 -164 -146z" />
<glyph unicode="&#xab;" horiz-adv-x="1013" d="M127 469v23l45 36l117 113l125 125q27 27 42 37t23 10q16 0 21.5 -6.5t5.5 -22.5q0 -10 -10 -30l-88 -125l-121 -152l110 -133l92 -129q14 -25 15 -41q0 -16 -3 -23.5t-18 -7.5q-12 0 -24.5 6.5t-32.5 24.5l-102 109l-152 145zM469 469v23l45 36l117 113l125 125 q27 27 42 37t23 10q16 0 21.5 -6.5t5.5 -22.5q0 -10 -10 -30l-88 -125l-121 -152l110 -133l92 -129q14 -25 15 -41q0 -16 -3 -23.5t-18 -7.5q-12 0 -24.5 6.5t-32.5 24.5l-102 109l-152 145z" />
<glyph unicode="&#xac;" d="M176 496v104h1141v-641h-113v537h-1028z" />
<glyph unicode="&#xad;" horiz-adv-x="636" d="M80 408v124h477v-124h-477z" />
<glyph unicode="&#xae;" horiz-adv-x="1247" d="M109 975q0 104 40.5 197.5t110.5 163t163 109.5t200 40q104 0 198 -40t165 -109.5t112 -163t41 -197.5q0 -106 -41 -199.5t-112 -163t-165 -110.5t-198 -41q-106 0 -199.5 41t-163.5 110.5t-110.5 162.5t-40.5 200zM162 975q0 -96 35.5 -181t98 -148.5t146.5 -100.5 t181 -37q96 0 179 37t146.5 100.5t99 148.5t35.5 181q0 94 -35.5 178t-99 147.5t-146.5 100.5t-179 37t-180.5 -37t-147 -100.5t-98 -147.5t-35.5 -178zM336 1262q0 6 3 9l7 7q39 0 89 -1t69 -1q33 0 65.5 1t77.5 1q35 0 64.5 -2t48.5 -6q57 -16 82.5 -57.5t25.5 -88.5 q0 -51 -33.5 -88t-119.5 -47v-8q61 -12 84 -37q16 -14 30.5 -34.5t24.5 -51.5q16 -41 35 -90q4 -14 12 -16q6 -2 30.5 -7.5t33.5 -7.5q4 -8 4 -14q0 -4 -2 -9t-4 -9h-162q-16 0 -22.5 10t-10.5 26q-8 41 -21.5 90.5t-33.5 75.5q-10 16 -27.5 35t-40.5 27q-18 6 -38.5 6 h-37.5h-14v-150q0 -23 4 -36t10 -23q10 -14 29.5 -18.5t48.5 -8.5q6 -8 6 -18q0 -6 -1 -9t-5 -7h-299q-8 8 -8 18q0 4 2 7t4 7q16 4 45 8.5t37 12.5q14 16 16 43q2 10 3.5 36.5t1.5 41.5v182q0 51 -2.5 84t-6.5 43q-6 27 -27.5 38t-68.5 15q-8 10 -8 21zM555 1020 q10 -2 29 -2q29 0 54.5 1t41.5 5q35 6 52.5 37.5t17.5 66.5q0 39 -19 66q-23 29 -51.5 35t-85.5 6q-27 0 -33 -2t-6 -12v-201z" />
<glyph unicode="&#xaf;" horiz-adv-x="520" d="M-49 1247q0 14 7 29.5t17 15.5h564q14 0 19 -14.5t5 -30.5t-5 -31.5t-19 -15.5h-564q-12 0 -18 15.5t-6 31.5z" />
<glyph unicode="&#xb0;" horiz-adv-x="868" d="M113 1114q0 68 23.5 128.5t66.5 104.5t100 69.5t125 25.5q57 0 115.5 -19.5t105.5 -59.5t77 -101.5t30 -145.5q0 -66 -23.5 -124t-65.5 -101t-100.5 -67.5t-126.5 -24.5q-63 0 -121.5 20.5t-104.5 60.5t-73.5 98t-27.5 136zM238 1122q0 -119 51 -186.5t147 -67.5 q78 0 136.5 60.5t58.5 183.5q0 131 -52.5 195.5t-144.5 64.5t-144 -67.5t-52 -182.5z" />
<glyph unicode="&#xb1;" horiz-adv-x="1689" d="M4 868q0 16 8 39h125q16 0 31.5 2t19.5 6v71.5t9 150.5q8 106 62 183t134 116q43 20 86 30.5t96 10.5t101.5 -11.5t97.5 -33.5q16 -8 48 -31t48 -43q23 27 51.5 47t63.5 37q45 23 92 34t101 11q70 0 142.5 -19.5t111.5 -37.5l59 38l22 -8v-129l-2 -426l5 -760 q0 -31 6 -47t21.5 -23t42 -10.5t69.5 -7.5q4 -10 7 -15t3 -11q0 -8 -3 -14.5t-7 -12.5h-209q-66 0 -123 -2t-90 -2q-4 4 -7 10t-3 17q0 14 10 28q59 4 87 12.5t39 25t10 42t-1 62.5v389v52t-1 70.5t-1 71.5v54h-436v-676q0 -39 6 -58.5t23.5 -28t45 -10.5t70.5 -6 q4 -10 7 -14t3 -8q0 -14 -10 -31h-39.5t-64.5 1t-78 1h-76q-31 0 -47 -1t-32.5 -1t-38 -1t-62.5 -1q-4 4 -6 12t-2 15q0 10 8 26q45 10 72.5 15.5t43 12.5t21.5 24.5t6 52.5v676h-438v-674q0 -39 8 -58.5t28.5 -27.5t52.5 -10.5t79 -8.5q4 -10 7 -14t3 -8q0 -14 -10 -31 h-242q-31 0 -54.5 -1t-48 -2t-53 -2t-69.5 -1q-4 4 -6 12t-2 15q0 8 2 13t6 11q39 6 66.5 10t46 15.5t26.5 31t8 56.5v674h-180q-6 18 -6 34zM334 907h444q0 92 3.5 178.5t17.5 133.5q-39 10 -71 37.5t-32 74.5v29q0 23 -41 39t-88 16q-66 0 -105.5 -28.5t-68.5 -77.5 q-20 -35 -32.5 -79t-18.5 -89t-7 -83t-1 -61v-90zM924 907h442v336q-41 16 -59.5 38t-18.5 79q0 4 1 10t1 16q-2 6 -15 11.5t-24 11.5q-37 16 -84 16q-68 0 -111.5 -25.5t-72.5 -70.5q-23 -37 -35 -80t-17 -86t-6 -83t-1 -74v-99z" />
<glyph unicode="&#xb2;" horiz-adv-x="833" d="M131 696q0 10 4 14.5t8 14.5q27 20 69 49t91 62.5t102.5 73.5t100.5 81q84 68 109.5 123t25.5 107q0 53 -42 97t-128 44q-41 0 -84 -11.5t-80 -37.5q-31 -20 -50 -46t-19 -44q0 -16 2 -32.5t12 -27.5q4 -4 11 -9t20 -5q20 0 41.5 12.5t44.5 12.5q16 0 31.5 -11.5 t15.5 -29.5q0 -6 -1 -20.5t-5 -18.5q-51 -57 -119 -58q-29 0 -50.5 6.5t-43.5 28.5q-12 16 -18.5 36.5t-6.5 55.5q0 51 32 111.5t81 107.5q37 29 100.5 52.5t114.5 23.5q129 0 206.5 -61.5t77.5 -190.5q0 -68 -29.5 -111.5t-64.5 -70.5q-23 -20 -69 -49t-100 -59.5 t-106.5 -58.5t-86.5 -46v-16h188q82 0 129 1t80 5q10 2 20.5 18.5t19.5 39t17.5 47t14.5 42.5l41 -8l-29 -168q-4 -23 -7 -43t-11 -35q-4 -14 -13.5 -14h-23.5h-590q-33 0 -33 16z" />
<glyph unicode="&#xb3;" horiz-adv-x="802" d="M158 815q0 35 20.5 62.5t61.5 27.5q23 0 42 -11t29 -42q4 -14 5 -40t1 -64q10 -8 36 -15.5t53 -7.5q92 0 153.5 44t61.5 128q0 35 -17.5 63.5t-44.5 45.5q-27 16 -61.5 27t-44.5 16q-10 4 -12.5 11t-2.5 13q0 4 5.5 12.5t15.5 12.5q27 8 47 16t37 16q72 41 71 113 q0 53 -51 85t-119 32q-31 0 -61.5 -7t-55 -19.5t-40 -30t-15.5 -37.5q0 -25 14.5 -39.5t32.5 -14.5q8 0 25 9q10 4 19.5 7t13.5 3q16 0 21 -7t5 -18q0 -23 -27.5 -53.5t-74.5 -30.5q-55 0 -75.5 30t-20.5 69q0 31 15.5 62.5t37.5 59.5q35 47 98.5 77t135.5 30q47 0 90 -11.5 t75.5 -33t52 -53t19.5 -72.5q0 -70 -36 -107.5t-89 -64.5q-12 -8 -12 -10q0 -4 5 -5t13 -6q78 -31 115 -72.5t37 -113.5q0 -80 -45 -130t-113 -75q-41 -14 -97 -23t-104 -9q-98 0 -182 51q-35 20 -49 45.5t-14 54.5z" />
<glyph unicode="&#xb4;" horiz-adv-x="520" d="M55 1085v8.5t2 6.5q33 39 70 83t71.5 85t62.5 73.5t40 47.5q35 39 58.5 56t56.5 17q35 0 50 -21t15 -50t-10 -50.5t-63 -58.5q-53 -39 -133 -89t-181 -118q-10 -6 -24.5 -3t-14.5 13z" />
<glyph unicode="&#xb5;" horiz-adv-x="1114" d="M137 -401q0 27 5 69.5t11.5 87.5t13.5 86t9 66q8 66 10 150.5t0 179.5l-4 651q0 20 19 20h108q12 0 18.5 -7t6.5 -42v-573q0 -94 49 -148q33 -37 68.5 -54t89.5 -17q49 0 86 13t65.5 34.5t49 49.5t34.5 54v295v93.5v116.5t-1 106.5t-1 60.5q0 18 19 18h114q12 0 15.5 -7 t3.5 -17v-746q0 -45 22.5 -59t44.5 -14q29 0 48.5 14t35.5 31q18 -2 22.5 -10.5t8.5 -18.5q-14 -31 -36.5 -51.5t-49.5 -32.5t-54.5 -16.5t-52.5 -4.5q-37 0 -67.5 18.5t-46.5 57.5q-8 18 -13.5 49t-5.5 52q-27 -47 -62.5 -80t-74.5 -54.5t-79 -32t-77 -10.5 q-59 0 -127.5 28t-111.5 99v-122q0 -51 9 -102.5t20.5 -99.5t20.5 -92t9 -83q0 -53 -29.5 -80t-64.5 -27t-56.5 28t-21.5 73z" />
<glyph unicode="&#xb6;" horiz-adv-x="1142" d="M84 1022q0 70 22.5 148.5t73.5 145t136 110.5t208 44h82v-888q-156 0 -257 41t-160.5 104.5t-82 142t-22.5 152.5zM532 -350l19 45q39 -2 62.5 -2h39.5q66 0 90 6q4 2 8.5 5t4.5 11v1755h291l18 -34l-18 -45q-39 2 -62.5 2h-40.5q-66 0 -90 -7q-4 -2 -8 -5t-4 -11v-1755 h-291z" />
<glyph unicode="&#xb7;" horiz-adv-x="591" d="M178 696q0 53 35 87t98 34q53 0 83 -33t30 -84q0 -61 -34 -95t-91 -34q-53 0 -87 35t-34 90z" />
<glyph unicode="&#xb8;" horiz-adv-x="520" d="M41 -406q2 14 11 22.5t22 12.5q35 -29 69.5 -47t69.5 -18q66 0 102.5 32.5t36.5 86.5q0 41 -28.5 70.5t-75.5 29.5q-20 0 -40 -5t-36 -11l-8 14l94 219h57l-71 -168q29 12 45 15t28 3q74 0 118 -41.5t44 -111.5q0 -90 -66.5 -142.5t-172.5 -52.5q-45 0 -80 11.5t-60.5 26 t-40 29.5t-18.5 25z" />
<glyph unicode="&#xb9;" horiz-adv-x="671" d="M195 676v63q23 0 48 1t48.5 5.5t43 14.5t30.5 31q12 25 12 112v295q0 49 -3 75.5t-14 49.5q-16 33 -55 41t-108 12v58q59 0 118.5 -2t124.5 -2q63 0 125 2t121 2v-64q-23 0 -48.5 -1t-49 -5t-43 -14.5t-29.5 -30.5q-12 -25 -12 -113v-62.5v-79.5v-82v-71q0 -49 3 -75.5 t13 -49.5q16 -33 55 -41t109 -12v-57q-59 0 -118.5 2t-125.5 2q-63 0 -124.5 -2t-120.5 -2z" />
<glyph unicode="&#xba;" horiz-adv-x="864" d="M119 1057q0 68 22.5 131t69.5 110q53 49 107.5 72t113.5 23q41 0 81 -10.5t81 -36.5q78 -49 114.5 -123t36.5 -160q0 -70 -23.5 -131.5t-72.5 -110.5q-47 -49 -102 -73.5t-115 -24.5q-59 0 -117.5 22.5t-103.5 69.5q-47 49 -69.5 109.5t-22.5 132.5zM166 408q0 16 5 27 t15 11h494q8 0 13 -10t5 -26t-5 -28.5t-13 -12.5h-494q-10 0 -15 12t-5 27zM256 1059q0 -70 14.5 -125t38.5 -90q47 -66 123 -66q82 0 128 69t46 210q0 156 -57 219q-23 29 -51.5 45t-71.5 16q-37 0 -63.5 -16t-51.5 -45q-55 -68 -55 -217z" />
<glyph unicode="&#xbb;" horiz-adv-x="1013" d="M166 784q0 16 5 22.5t22 6.5q8 0 23 -10t42 -37l125 -125l117 -113l45 -36v-23l-45 -41l-152 -145l-102 -109q-20 -18 -32.5 -24.5t-25.5 -6.5q-14 0 -17 7.5t-3 23.5t14 41l92 129l111 133l-121 152l-88 125q-10 20 -10 30zM508 784q0 16 5 22.5t22 6.5q8 0 23 -10 t42 -37l125 -125l117 -113l45 -36v-23l-45 -41l-152 -145l-102 -109q-20 -18 -32.5 -24.5t-25.5 -6.5q-14 0 -17 7.5t-3 23.5t14 41l92 129l111 133l-121 152l-88 125q-10 20 -10 30z" />
<glyph unicode="&#xbc;" horiz-adv-x="1236" d="M96 440v78h1049v-78h-1049zM231 -240q0 16 14.5 31.5t43.5 52.5l274 295q61 72 91 110t40 52q14 18 24.5 21.5t20.5 3.5q29 0 29 -31q0 -6 -2 -29.5t-3 -54.5t-3 -66.5t-2 -68.5v-283h51q25 0 46.5 3t33.5 14q6 6 10 33.5t4 52.5h49v-263h-49q0 23 -3 47.5t-7 30.5 q-10 16 -44 17.5t-93 1.5l6 -238h-129l6 238h-367q-23 0 -32 9t-9 21zM350 -201l2 -4h285v189l8 137h-4zM381 676v63q23 0 48.5 1t49 5.5t43 14.5t29.5 31q12 25 12 112v295q0 49 -3 75.5t-13 49.5q-16 33 -55 41t-109 12v58q59 0 118.5 -2t125.5 -2q63 0 124.5 2t120.5 2 v-64q-23 0 -48 -1t-48.5 -5t-43 -14.5t-30.5 -30.5q-12 -25 -12 -113v-62.5v-79.5v-82v-71q0 -49 3 -75.5t14 -49.5q16 -33 55 -41t108 -12v-57q-59 0 -118.5 2t-124.5 2q-63 0 -125 -2t-121 -2z" />
<glyph unicode="&#xbd;" horiz-adv-x="1236" d="M96 440v78h1049v-78h-1049zM274 -473q0 10 4.5 14t8.5 15q27 20 68.5 48.5t91 62.5t102.5 74t100 81q84 68 109.5 122t25.5 105q0 53 -42 97t-128 44q-41 0 -84 -11t-79 -38q-31 -20 -50.5 -45.5t-19.5 -44.5q0 -16 2 -32.5t12 -26.5q4 -4 11.5 -9.5t19.5 -5.5 q20 0 41.5 12.5t44.5 12.5q16 0 31.5 -11t15.5 -30q0 -6 -1 -20.5t-5 -18.5q-51 -57 -119 -57q-29 0 -50.5 6t-43.5 29q-12 16 -18.5 36.5t-6.5 55.5q0 51 32 111.5t81 107.5q37 29 100.5 52.5t114.5 23.5q129 0 207 -61.5t78 -190.5q0 -68 -30 -112t-64 -70 q-23 -20 -69 -49t-100.5 -59t-106.5 -57.5t-87 -45.5v-17h188q82 0 129.5 1t79.5 5q10 2 20.5 18.5t20 40t17.5 48t14 41.5l41 -8l-29 -168q-4 -23 -7 -43.5t-11 -34.5q-4 -14 -13.5 -14h-23.5h-590q-33 0 -33 16zM381 676v63q23 0 48.5 1t49 5.5t43 14.5t29.5 31 q12 25 12 112v295q0 49 -3 75.5t-13 49.5q-16 33 -55 41t-109 12v58q59 0 118.5 -2t125.5 -2q63 0 124.5 2t120.5 2v-64q-23 0 -48 -1t-48.5 -5t-43 -14.5t-30.5 -30.5q-12 -25 -12 -113v-62.5v-79.5v-82v-71q0 -49 3 -75.5t14 -49.5q16 -33 55 -41t108 -12v-57 q-59 0 -118.5 2t-124.5 2q-63 0 -125 -2t-121 -2z" />
<glyph unicode="&#xbe;" horiz-adv-x="1236" d="M96 440v78h1049v-78h-1049zM231 -240q0 16 14.5 31.5t43.5 52.5l274 295q61 72 91 111t40 51q14 20 24.5 23.5t20.5 3.5q29 0 29 -33q0 -6 -2 -28.5t-3 -54.5t-3 -67.5t-2 -66.5v-283h51q25 0 46.5 3t33.5 14q6 6 10 33.5t4 52.5h49v-263h-49q0 23 -3 46.5t-7 29.5 q-10 16 -44 17.5t-93 1.5l6 -238h-129l6 238h-367q-23 0 -32 10t-9 20zM315 815q0 35 20.5 62.5t61.5 27.5q23 0 42.5 -11t29.5 -42q4 -14 5 -40t1 -64q10 -8 36 -15.5t52 -7.5q92 0 153.5 44t61.5 128q0 35 -17.5 63.5t-43.5 45.5q-27 16 -61.5 27t-45.5 16q-10 4 -12 11 t-2 13q0 4 5 12.5t15 12.5q27 8 47.5 16t36.5 16q72 41 72 113q0 53 -51 85t-119 32q-31 0 -61.5 -7t-55 -19.5t-40 -30t-15.5 -37.5q0 -25 14.5 -39.5t32.5 -14.5q8 0 25 9q10 4 19 7t14 3q16 0 21 -7t5 -18q0 -23 -27.5 -53.5t-74.5 -30.5q-55 0 -76 30t-21 69 q0 31 15.5 62.5t38.5 59.5q35 47 98.5 77t134.5 30q47 0 90 -11.5t76 -33t52.5 -53t19.5 -72.5q0 -70 -36 -107.5t-89 -64.5q-12 -8 -12 -10q0 -4 5 -5t13 -6q78 -31 115 -72.5t37 -113.5q0 -80 -45.5 -130t-112.5 -75q-41 -14 -97.5 -23t-103.5 -9q-98 0 -182 51 q-35 20 -49.5 45.5t-14.5 54.5zM350 -201l2 -4h285v191l8 135h-4z" />
<glyph unicode="&#xbf;" horiz-adv-x="901" d="M68 -109q0 121 57 222q35 53 104.5 112.5t186.5 120.5q35 20 61.5 43t48.5 47q16 14 20.5 26.5t4.5 29.5q0 23 -36 49t-99 45q-4 12 -4 24q0 16 7 23.5t19 13.5q37 0 71 -15.5t71 -43.5q31 -23 42 -55.5t11 -73.5q0 -59 -39 -109q-27 -29 -123 -106q-63 -51 -110.5 -91 t-71.5 -69q-35 -37 -50.5 -85t-15.5 -108q0 -127 74 -200q39 -37 88 -58.5t115 -21.5q102 0 152 53t50 137q0 66 -24 97q-10 12 -18.5 19t-20.5 7q-4 0 -12.5 -2t-8.5 -4q-4 -16 -6 -31.5t-12 -27.5q-25 -33 -74 -33t-71.5 30.5t-22.5 69.5q0 51 36 81t85 30q88 0 149 -68 q64 -68 64 -168q0 -68 -26.5 -121t-70.5 -88.5t-103.5 -55t-127.5 -19.5q-80 0 -148.5 25.5t-119.5 76.5q-49 51 -75.5 118.5t-26.5 153.5zM375 897q0 53 26.5 86t81.5 33q47 0 78 -29t31 -86q0 -102 -113 -102q-53 0 -78.5 27.5t-25.5 70.5z" />
<glyph unicode="&#xc0;" horiz-adv-x="1507" d="M-2 23q0 6 2 12t4 14q66 18 123 40t80 77t35 88t26.5 68.5t34 89t53.5 151.5q72 201 124 338t85 217q41 98 64.5 153.5t27.5 65.5q16 47 33 81t31 46q18 20 41 21q16 0 23.5 -6t17.5 -19q4 -4 9 -19.5t9 -27.5l90 -223l295 -762q29 -72 50.5 -127t46.5 -117 q12 -31 26 -59.5t25 -36.5q4 -2 22.5 -9t43 -13.5t50 -12.5t46.5 -10q4 -6 7 -11.5t3 -11.5q0 -12 -10 -22q-49 0 -90.5 1t-79 2t-77.5 2t-87 1q-59 0 -109.5 -2t-77.5 -2h-92q-14 12 -14 27q0 10 12 24q117 6 158 27q29 33 28 94q-6 29 -21 80t-38 113q-12 37 -25.5 72.5 t-23.5 62.5q-6 10 -17.5 29.5t-23.5 29.5q-141 2 -271 0t-239 -6q-10 -16 -14 -29.5t-15 -46.5l-86 -276q6 -51 27.5 -83t44.5 -52q14 -6 49 -11.5t74 -9.5q4 -8 7 -12t3 -10q0 -10 -8 -27h-55q-55 0 -112.5 4t-117.5 4q-27 0 -58.5 -1t-62 -1t-56 -1t-42.5 -1q-4 8 -6 11 t-2 12zM453 618h286q43 0 97.5 1.5t85.5 7.5q-10 33 -17.5 56.5t-19.5 57.5q-12 35 -30.5 82t-38 97.5t-38 97.5t-33.5 82q-12 33 -27.5 73.5t-27.5 65.5q-25 -59 -55.5 -130t-69.5 -173q-20 -55 -39.5 -107.5t-35 -95.5t-24.5 -73.5t-13 -41.5zM506 1882q0 29 15.5 50.5 t49.5 21.5q33 0 56.5 -16.5t58.5 -57.5q12 -14 40 -47t62.5 -74t71.5 -85t70 -83q2 -2 2 -7v-7q0 -10 -14.5 -13t-24.5 3q-100 68 -180 118t-133 89q-27 18 -42.5 32.5t-22.5 26.5t-8 23.5t-1 25.5z" />
<glyph unicode="&#xc1;" horiz-adv-x="1507" d="M-2 23q0 6 2 12t4 14q66 18 123 40t80 77t35 88t26.5 68.5t34 89t53.5 151.5q72 201 124 338t85 217q41 98 64.5 153.5t27.5 65.5q16 47 33 81t31 46q18 20 41 21q16 0 23.5 -6t17.5 -19q4 -4 9 -19.5t9 -27.5l90 -223l295 -762q29 -72 50.5 -127t46.5 -117 q12 -31 26 -59.5t25 -36.5q4 -2 22.5 -9t43 -13.5t50 -12.5t46.5 -10q4 -6 7 -11.5t3 -11.5q0 -12 -10 -22q-49 0 -90.5 1t-79 2t-77.5 2t-87 1q-59 0 -109.5 -2t-77.5 -2h-92q-14 12 -14 27q0 10 12 24q117 6 158 27q29 33 28 94q-6 29 -21 80t-38 113q-12 37 -25.5 72.5 t-23.5 62.5q-6 10 -17.5 29.5t-23.5 29.5q-141 2 -271 0t-239 -6q-10 -16 -14 -29.5t-15 -46.5l-86 -276q6 -51 27.5 -83t44.5 -52q14 -6 49 -11.5t74 -9.5q4 -8 7 -12t3 -10q0 -10 -8 -27h-55q-55 0 -112.5 4t-117.5 4q-27 0 -58.5 -1t-62 -1t-56 -1t-42.5 -1q-4 8 -6 11 t-2 12zM453 618h286q43 0 97.5 1.5t85.5 7.5q-10 33 -17.5 56.5t-19.5 57.5q-12 35 -30.5 82t-38 97.5t-38 97.5t-33.5 82q-12 33 -27.5 73.5t-27.5 65.5q-25 -59 -55.5 -130t-69.5 -173q-20 -55 -39.5 -107.5t-35 -95.5t-24.5 -73.5t-13 -41.5zM547 1577v8t2 6 q33 39 69.5 83t71.5 85t62.5 74t40.5 47q35 39 58 56.5t56 17.5q35 0 50.5 -21.5t15.5 -50.5t-10.5 -50.5t-63.5 -57.5q-53 -39 -133 -89.5t-180 -117.5q-10 -6 -24.5 -3t-14.5 13z" />
<glyph unicode="&#xc2;" horiz-adv-x="1507" d="M-2 23q0 6 2 12t4 14q66 18 123 40t80 77t35 88t26.5 68.5t34 89t53.5 151.5q72 201 124 338t85 217q41 98 64.5 153.5t27.5 65.5q16 47 33 81t31 46q18 20 41 21q16 0 23.5 -6t17.5 -19q4 -4 9 -19.5t9 -27.5l90 -223l295 -762q29 -72 50.5 -127t46.5 -117 q12 -31 26 -59.5t25 -36.5q4 -2 22.5 -9t43 -13.5t50 -12.5t46.5 -10q4 -6 7 -11.5t3 -11.5q0 -12 -10 -22q-49 0 -90.5 1t-79 2t-77.5 2t-87 1q-59 0 -109.5 -2t-77.5 -2h-92q-14 12 -14 27q0 10 12 24q117 6 158 27q29 33 28 94q-6 29 -21 80t-38 113q-12 37 -25.5 72.5 t-23.5 62.5q-6 10 -17.5 29.5t-23.5 29.5q-141 2 -271 0t-239 -6q-10 -16 -14 -29.5t-15 -46.5l-86 -276q6 -51 27.5 -83t44.5 -52q14 -6 49 -11.5t74 -9.5q4 -8 7 -12t3 -10q0 -10 -8 -27h-55q-55 0 -112.5 4t-117.5 4q-27 0 -58.5 -1t-62 -1t-56 -1t-42.5 -1q-4 8 -6 11 t-2 12zM430 1577l209 301q45 66 98 66q35 0 56.5 -18.5t44.5 -47.5l204 -301q6 -10 -9 -18.5t-25 0.5l-269 245l-274 -245q-10 -8 -24.5 0t-10.5 18zM453 618h286q43 0 97.5 1.5t85.5 7.5q-10 33 -17.5 56.5t-19.5 57.5q-12 35 -30.5 82t-38 97.5t-38 97.5t-33.5 82 q-12 33 -27.5 73.5t-27.5 65.5q-25 -59 -55.5 -130t-69.5 -173q-20 -55 -39.5 -107.5t-35 -95.5t-24.5 -73.5t-13 -41.5z" />
<glyph unicode="&#xc3;" horiz-adv-x="1507" d="M-2 23q0 6 2 12t4 14q66 18 123 40t80 77t35 88t26.5 68.5t34 89t53.5 151.5q72 201 124 338t85 217q41 98 64.5 153.5t27.5 65.5q16 47 33 81t31 46q18 20 41 21q16 0 23.5 -6t17.5 -19q4 -4 9 -19.5t9 -27.5l90 -223l295 -762q29 -72 50.5 -127t46.5 -117 q12 -31 26 -59.5t25 -36.5q4 -2 22.5 -9t43 -13.5t50 -12.5t46.5 -10q4 -6 7 -11.5t3 -11.5q0 -12 -10 -22q-49 0 -90.5 1t-79 2t-77.5 2t-87 1q-59 0 -109.5 -2t-77.5 -2h-92q-14 12 -14 27q0 10 12 24q117 6 158 27q29 33 28 94q-6 29 -21 80t-38 113q-12 37 -25.5 72.5 t-23.5 62.5q-6 10 -17.5 29.5t-23.5 29.5q-141 2 -271 0t-239 -6q-10 -16 -14 -29.5t-15 -46.5l-86 -276q6 -51 27.5 -83t44.5 -52q14 -6 49 -11.5t74 -9.5q4 -8 7 -12t3 -10q0 -10 -8 -27h-55q-55 0 -112.5 4t-117.5 4q-27 0 -58.5 -1t-62 -1t-56 -1t-42.5 -1q-4 8 -6 11 t-2 12zM412 1642q6 43 24.5 81t46 67t61.5 45t70 16q55 0 142 -45q51 -27 81.5 -38t51.5 -11q51 0 75.5 29t39.5 74q4 16 24 16q8 0 14.5 -6.5t4.5 -16.5q-6 -43 -24.5 -80.5t-46.5 -66.5t-61.5 -45t-70.5 -16q-27 0 -56.5 9t-82.5 38q-49 27 -82 38t-54 11q-51 0 -75.5 -29 t-38.5 -74q-4 -18 -25 -18q-8 0 -14 6t-4 16zM453 618h286q43 0 97.5 1.5t85.5 7.5q-10 33 -17.5 56.5t-19.5 57.5q-12 35 -30.5 82t-38 97.5t-38 97.5t-33.5 82q-12 33 -27.5 73.5t-27.5 65.5q-25 -59 -55.5 -130t-69.5 -173q-20 -55 -39.5 -107.5t-35 -95.5t-24.5 -73.5 t-13 -41.5z" />
<glyph unicode="&#xc4;" horiz-adv-x="1507" d="M-2 23q0 6 2 12t4 14q66 18 123 40t80 77t35 88t26.5 68.5t34 89t53.5 151.5q72 201 124 338t85 217q41 98 64.5 153.5t27.5 65.5q16 47 33 81t31 46q18 20 41 21q16 0 23.5 -6t17.5 -19q4 -4 9 -19.5t9 -27.5l90 -223l295 -762q29 -72 50.5 -127t46.5 -117 q12 -31 26 -59.5t25 -36.5q4 -2 22.5 -9t43 -13.5t50 -12.5t46.5 -10q4 -6 7 -11.5t3 -11.5q0 -12 -10 -22q-49 0 -90.5 1t-79 2t-77.5 2t-87 1q-59 0 -109.5 -2t-77.5 -2h-92q-14 12 -14 27q0 10 12 24q117 6 158 27q29 33 28 94q-6 29 -21 80t-38 113q-12 37 -25.5 72.5 t-23.5 62.5q-6 10 -17.5 29.5t-23.5 29.5q-141 2 -271 0t-239 -6q-10 -16 -14 -29.5t-15 -46.5l-86 -276q6 -51 27.5 -83t44.5 -52q14 -6 49 -11.5t74 -9.5q4 -8 7 -12t3 -10q0 -10 -8 -27h-55q-55 0 -112.5 4t-117.5 4q-27 0 -58.5 -1t-62 -1t-56 -1t-42.5 -1q-4 8 -6 11 t-2 12zM451 1733q0 41 27.5 71.5t74.5 30.5q41 0 69.5 -28.5t28.5 -73.5q0 -41 -26.5 -71t-73.5 -30q-45 0 -72.5 30t-27.5 71zM453 618h286q43 0 97.5 1.5t85.5 7.5q-10 33 -17.5 56.5t-19.5 57.5q-12 35 -30.5 82t-38 97.5t-38 97.5t-33.5 82q-12 33 -27.5 73.5 t-27.5 65.5q-25 -59 -55.5 -130t-69.5 -173q-20 -55 -39.5 -107.5t-35 -95.5t-24.5 -73.5t-13 -41.5zM887 1733q0 45 30.5 73.5t71.5 28.5q45 0 73 -30.5t28 -71.5q0 -43 -30 -72t-71 -29q-45 0 -73.5 30t-28.5 71z" />
<glyph unicode="&#xc5;" horiz-adv-x="1507" d="M-2 23q0 6 2 12t4 14q66 18 123 40t80 77t35 88t26.5 68.5t34 89t53.5 151.5q72 201 124 338t85 217q41 98 64.5 153.5t27.5 65.5q16 47 33 81t31 46q18 20 41 21q16 0 23.5 -6t17.5 -19q4 -4 9 -19.5t9 -27.5l90 -223l295 -762q29 -72 50.5 -127t46.5 -117 q12 -31 26 -59.5t25 -36.5q4 -2 22.5 -9t43 -13.5t50 -12.5t46.5 -10q4 -6 7 -11.5t3 -11.5q0 -12 -10 -22q-49 0 -90.5 1t-79 2t-77.5 2t-87 1q-59 0 -109.5 -2t-77.5 -2h-92q-14 12 -14 27q0 10 12 24q117 6 158 27q29 33 28 94q-6 29 -21 80t-38 113q-12 37 -25.5 72.5 t-23.5 62.5q-6 10 -17.5 29.5t-23.5 29.5q-141 2 -271 0t-239 -6q-10 -16 -14 -29.5t-15 -46.5l-86 -276q6 -51 27.5 -83t44.5 -52q14 -6 49 -11.5t74 -9.5q4 -8 7 -12t3 -10q0 -10 -8 -27h-55q-55 0 -112.5 4t-117.5 4q-27 0 -58.5 -1t-62 -1t-56 -1t-42.5 -1q-4 8 -6 11 t-2 12zM453 618h286q43 0 97.5 1.5t85.5 7.5q-10 33 -17.5 56.5t-19.5 57.5q-12 35 -30.5 82t-38 97.5t-38 97.5t-33.5 82q-12 33 -27.5 73.5t-27.5 65.5q-25 -59 -55.5 -130t-69.5 -173q-20 -55 -39.5 -107.5t-35 -95.5t-24.5 -73.5t-13 -41.5zM520 1757q0 41 15.5 84 t54.5 76q43 35 80 47t78 12q61 0 116 -30q55 -29 83 -79.5t28 -103.5q0 -45 -15.5 -88t-52.5 -76q-39 -35 -79 -47t-83 -12q-39 0 -83 12.5t-72 42.5q-39 37 -54.5 78t-15.5 84zM621 1761q0 -41 11 -74.5t25 -52.5q16 -20 38 -31.5t50 -11.5q61 0 93 45t32 125t-39 129 q-31 41 -90 41q-53 0 -84 -41q-37 -47 -36 -129z" />
<glyph unicode="&#xc6;" horiz-adv-x="2093" d="M-76 25q0 10 2 15t6 13q12 2 35 7.5t45.5 13.5t41 15t24.5 11q23 16 44 40t50 71q41 66 83 134.5t81 133.5l430 738q25 41 36 76.5t11 47.5q0 39 -45 58q-10 4 -33.5 8t-51.5 6t-54.5 4t-44.5 4q-10 10 -11 27q0 12 3.5 14t9.5 11q129 0 245.5 -4.5t208.5 -4.5 q76 0 160 2t172 3t176 3.5t170 2.5q61 0 107.5 -2.5t58.5 -2.5q31 0 38 -5t9 -21q2 -18 4 -53t4.5 -78t3.5 -91t1 -96q-12 -6 -16.5 -9t-14.5 -3h-10t-13 4q-20 47 -35.5 82t-34 63.5t-43 54t-61.5 54.5q-43 35 -131 41q-14 0 -59 1t-135 1q-72 0 -114 -1t-56 -3 q-2 -14 -3 -32.5t-4 -37.5q-2 -27 -4 -95t-2 -216v-201h35q59 0 92 4.5t62 12.5q41 12 83 38.5t64 65.5q4 6 7 22.5t7.5 37t7.5 41t5 30.5q10 4 15 5t16 1q16 0 21 -2t11 -6q-2 -27 -6 -64.5t-7 -78.5t-5 -83t-2 -81q0 -31 2 -70.5t4 -79.5t4 -76t2 -57q-10 -6 -15 -8 t-18 -2q-12 0 -17 2t-13 6q-2 10 -4.5 35t-5.5 52.5t-8 52t-11 35.5q-16 25 -38.5 44t-61.5 35q-41 18 -76 23.5t-84 5.5h-68v-457q0 -72 5.5 -110.5t17.5 -63.5q12 -23 35.5 -43t46.5 -24q14 -4 46 -6.5t85 -4.5h186q66 0 109 4.5t65 18.5q66 41 118 121t87 192q10 4 13 4 h14q12 0 15 -1t11 -5q2 -14 2 -25v-34v-201t-4 -106q-2 -14 -3 -19.5t-5 -13.5q-16 -4 -29.5 -4h-25.5q-156 0 -263.5 2t-179 4t-113.5 4t-67 2q-90 0 -151.5 2t-100.5 2q-20 0 -53 -1t-71 -2t-74.5 -2t-67.5 -1h-68q-10 12 -10 29q0 10 2 16t6 12q61 2 114.5 9.5t70.5 23.5 q16 18 28.5 75.5t16.5 180.5q4 88 5 176t1 148h-166h-95t-91 -1t-78 -1h-58q-20 -29 -70 -113t-114 -219q-18 -39 -40.5 -86t-31.5 -70q-12 -33 -12 -47q0 -23 10.5 -35t34.5 -26q14 -8 58.5 -14.5t103.5 -10.5q6 -8 6 -24q0 -10 -10 -25q-4 0 -45 2t-93.5 3t-102.5 3t-68 2 q-35 0 -92.5 -3t-98.5 -3h-37q-6 10 -6 21zM567 739q23 -4 56.5 -6t68.5 -2q55 0 109.5 1t99.5 2t78 2t45 3v36t1 50.5t1 53.5v45q0 35 -1 97t-1 112q0 61 -2 124.5t-6 112.5q-2 16 -13.5 26.5t-25.5 10.5q-12 0 -25.5 -9t-27.5 -34z" />
<glyph unicode="&#xc7;" horiz-adv-x="1363" d="M72 717q0 186 50 328.5t148 246.5q90 98 207 148.5t266 50.5q80 0 140.5 -12.5t108.5 -34t88 -50t81 -61.5q41 53 80 84q39 -2 55 -22q0 -29 -6 -76t-6 -94q0 -18 3 -53l6 -70t7.5 -64.5t4.5 -38.5q-6 -6 -11.5 -10t-15.5 -6q-12 -2 -21.5 0t-15.5 4q-25 82 -52.5 147.5 t-55.5 100.5q-63 82 -153.5 132t-193.5 50q-63 0 -125.5 -17.5t-119 -57t-104.5 -101t-85 -151.5q-29 -66 -45 -155t-16 -202q0 -119 19.5 -219t41.5 -152q23 -51 63 -104t97 -96t130 -71t157 -28q137 0 251.5 61.5t206.5 192.5q4 0 7.5 1t7.5 1q27 1 37 -32 q-10 -27 -18.5 -43.5t-35.5 -53.5q-63 -90 -185 -151.5t-275 -65.5l-60 -143q29 12 46.5 15t29.5 3q74 0 120 -43t46 -114q0 -90 -68.5 -141.5t-175.5 -51.5q-45 0 -80 11.5t-60.5 25.5t-40.5 29.5t-20 25.5q2 14 11.5 22.5t21.5 12.5q35 -29 71 -47t71 -18q66 0 103.5 32.5 t37.5 85.5q0 41 -30 72t-77 31q-20 0 -40.5 -5t-36.5 -12l-13 17l86 192q-125 4 -226 40t-175 93q-125 102 -194.5 257t-69.5 354z" />
<glyph unicode="&#xc8;" horiz-adv-x="1392" d="M41 31q0 10 3 15t7 15q61 4 115.5 12.5t69.5 18.5q4 6 11 26.5t14 48.5t12.5 58.5t7.5 61.5q0 18 1 53t2 76t1 82v73v422v77t-1 82t-2 72.5t-3 49.5q-6 37 -15.5 58.5t-18.5 33.5t-19.5 19.5t-20.5 15.5q-10 6 -31.5 9t-44.5 5t-43 4t-31 4q-10 14 -10 27q0 10 10 25h70 q20 0 36.5 -1t38 -1t52.5 -1.5t76 -1.5h76t92 1.5t93 1.5h83h112.5t81.5 1t71 1h77q61 0 107 -2.5t59 -2.5q31 0 38 -5t9 -21q2 -18 4 -53t4 -78t3 -91t1 -96q-12 -6 -16 -9t-15 -3h-10t-12 4q-20 47 -35.5 82t-34 63.5t-43 54t-61.5 54.5q-43 35 -131 41q-14 0 -75 1 t-151 1q-72 0 -112.5 -1t-55.5 -3q-2 -14 -4 -32.5t-4 -37.5q-2 -27 -4 -96t-2 -217v-201h35q121 0 180 17q41 12 80 35.5t61 62.5q2 2 5.5 18.5t7.5 38l8 43t6 31.5q10 4 15.5 5t15.5 1q16 0 21 -2t12 -6q-4 -55 -12.5 -139t-8.5 -162q0 -31 2 -72l4 -82t4 -76.5t2 -56.5 q-10 -6 -15 -8t-17 -2t-17.5 2t-13.5 6q-2 10 -4 36t-5 54.5t-8.5 54t-11.5 36.5q-16 25 -35.5 43t-58.5 34q-41 18 -89 23.5t-97 5.5h-68v-467q0 -35 1 -56.5t4 -35.5t7 -25.5t11 -23.5q10 -25 32.5 -54.5t44.5 -33.5q14 -4 46 -6.5t85 -4.5h226q66 0 108.5 4.5t65.5 18.5 q66 41 118 121t87 192q10 4 13 4h13q12 0 15.5 -1t11.5 -5q2 -14 2 -25v-34v-201t-4 -106q-2 -14 -3 -19.5t-5 -13.5q-16 -4 -29.5 -4h-26.5q-156 0 -268.5 2t-190 4t-125.5 4t-73 2q-90 0 -142.5 2t-91.5 2q-20 0 -58 -1t-80 -2t-82 -2t-64 -1h-68q-4 8 -7 13t-3 16z M471 1882q0 29 15.5 50.5t50.5 21.5q33 0 56 -16.5t58 -57.5q12 -14 40 -47t62.5 -74t71.5 -85t70 -83q2 -2 2 -7v-7q0 -10 -14.5 -13t-24.5 3q-100 68 -180 118t-133 89q-27 18 -42.5 32.5t-22.5 26.5t-8 23.5t-1 25.5z" />
<glyph unicode="&#xc9;" horiz-adv-x="1392" d="M41 31q0 10 3 15t7 15q61 4 115.5 12.5t69.5 18.5q4 6 11 26.5t14 48.5t12.5 58.5t7.5 61.5q0 18 1 53t2 76t1 82v73v422v77t-1 82t-2 72.5t-3 49.5q-6 37 -15.5 58.5t-18.5 33.5t-19.5 19.5t-20.5 15.5q-10 6 -31.5 9t-44.5 5t-43 4t-31 4q-10 14 -10 27q0 10 10 25h70 q20 0 36.5 -1t38 -1t52.5 -1.5t76 -1.5h76t92 1.5t93 1.5h83h112.5t81.5 1t71 1h77q61 0 107 -2.5t59 -2.5q31 0 38 -5t9 -21q2 -18 4 -53t4 -78t3 -91t1 -96q-12 -6 -16 -9t-15 -3h-10t-12 4q-20 47 -35.5 82t-34 63.5t-43 54t-61.5 54.5q-43 35 -131 41q-14 0 -75 1 t-151 1q-72 0 -112.5 -1t-55.5 -3q-2 -14 -4 -32.5t-4 -37.5q-2 -27 -4 -96t-2 -217v-201h35q121 0 180 17q41 12 80 35.5t61 62.5q2 2 5.5 18.5t7.5 38l8 43t6 31.5q10 4 15.5 5t15.5 1q16 0 21 -2t12 -6q-4 -55 -12.5 -139t-8.5 -162q0 -31 2 -72l4 -82t4 -76.5t2 -56.5 q-10 -6 -15 -8t-17 -2t-17.5 2t-13.5 6q-2 10 -4 36t-5 54.5t-8.5 54t-11.5 36.5q-16 25 -35.5 43t-58.5 34q-41 18 -89 23.5t-97 5.5h-68v-467q0 -35 1 -56.5t4 -35.5t7 -25.5t11 -23.5q10 -25 32.5 -54.5t44.5 -33.5q14 -4 46 -6.5t85 -4.5h226q66 0 108.5 4.5t65.5 18.5 q66 41 118 121t87 192q10 4 13 4h13q12 0 15.5 -1t11.5 -5q2 -14 2 -25v-34v-201t-4 -106q-2 -14 -3 -19.5t-5 -13.5q-16 -4 -29.5 -4h-26.5q-156 0 -268.5 2t-190 4t-125.5 4t-73 2q-90 0 -142.5 2t-91.5 2q-20 0 -58 -1t-80 -2t-82 -2t-64 -1h-68q-4 8 -7 13t-3 16z M543 1577v8t2 6q33 39 69.5 83t71.5 85t62.5 74t39.5 47q35 39 58.5 56.5t56.5 17.5q35 0 50.5 -21.5t15.5 -50.5t-10.5 -50.5t-63.5 -57.5q-53 -39 -133 -89.5t-180 -117.5q-10 -6 -24.5 -3t-14.5 13z" />
<glyph unicode="&#xca;" horiz-adv-x="1392" d="M41 31q0 10 3 15t7 15q61 4 115.5 12.5t69.5 18.5q4 6 11 26.5t14 48.5t12.5 58.5t7.5 61.5q0 18 1 53t2 76t1 82v73v422v77t-1 82t-2 72.5t-3 49.5q-6 37 -15.5 58.5t-18.5 33.5t-19.5 19.5t-20.5 15.5q-10 6 -31.5 9t-44.5 5t-43 4t-31 4q-10 14 -10 27q0 10 10 25h70 q20 0 36.5 -1t38 -1t52.5 -1.5t76 -1.5h76t92 1.5t93 1.5h83h112.5t81.5 1t71 1h77q61 0 107 -2.5t59 -2.5q31 0 38 -5t9 -21q2 -18 4 -53t4 -78t3 -91t1 -96q-12 -6 -16 -9t-15 -3h-10t-12 4q-20 47 -35.5 82t-34 63.5t-43 54t-61.5 54.5q-43 35 -131 41q-14 0 -75 1 t-151 1q-72 0 -112.5 -1t-55.5 -3q-2 -14 -4 -32.5t-4 -37.5q-2 -27 -4 -96t-2 -217v-201h35q121 0 180 17q41 12 80 35.5t61 62.5q2 2 5.5 18.5t7.5 38l8 43t6 31.5q10 4 15.5 5t15.5 1q16 0 21 -2t12 -6q-4 -55 -12.5 -139t-8.5 -162q0 -31 2 -72l4 -82t4 -76.5t2 -56.5 q-10 -6 -15 -8t-17 -2t-17.5 2t-13.5 6q-2 10 -4 36t-5 54.5t-8.5 54t-11.5 36.5q-16 25 -35.5 43t-58.5 34q-41 18 -89 23.5t-97 5.5h-68v-467q0 -35 1 -56.5t4 -35.5t7 -25.5t11 -23.5q10 -25 32.5 -54.5t44.5 -33.5q14 -4 46 -6.5t85 -4.5h226q66 0 108.5 4.5t65.5 18.5 q66 41 118 121t87 192q10 4 13 4h13q12 0 15.5 -1t11.5 -5q2 -14 2 -25v-34v-201t-4 -106q-2 -14 -3 -19.5t-5 -13.5q-16 -4 -29.5 -4h-26.5q-156 0 -268.5 2t-190 4t-125.5 4t-73 2q-90 0 -142.5 2t-91.5 2q-20 0 -58 -1t-80 -2t-82 -2t-64 -1h-68q-4 8 -7 13t-3 16z M383 1589l209 301q45 66 98 66q35 0 56.5 -18.5t44.5 -47.5l204 -301q6 -10 -9 -18t-25 0l-269 246l-274 -246q-10 -8 -24.5 0t-10.5 18z" />
<glyph unicode="&#xcb;" horiz-adv-x="1392" d="M41 31q0 10 3 15t7 15q61 4 115.5 12.5t69.5 18.5q4 6 11 26.5t14 48.5t12.5 58.5t7.5 61.5q0 18 1 53t2 76t1 82v73v422v77t-1 82t-2 72.5t-3 49.5q-6 37 -15.5 58.5t-18.5 33.5t-19.5 19.5t-20.5 15.5q-10 6 -31.5 9t-44.5 5t-43 4t-31 4q-10 14 -10 27q0 10 10 25h70 q20 0 36.5 -1t38 -1t52.5 -1.5t76 -1.5h76t92 1.5t93 1.5h83h112.5t81.5 1t71 1h77q61 0 107 -2.5t59 -2.5q31 0 38 -5t9 -21q2 -18 4 -53t4 -78t3 -91t1 -96q-12 -6 -16 -9t-15 -3h-10t-12 4q-20 47 -35.5 82t-34 63.5t-43 54t-61.5 54.5q-43 35 -131 41q-14 0 -75 1 t-151 1q-72 0 -112.5 -1t-55.5 -3q-2 -14 -4 -32.5t-4 -37.5q-2 -27 -4 -96t-2 -217v-201h35q121 0 180 17q41 12 80 35.5t61 62.5q2 2 5.5 18.5t7.5 38l8 43t6 31.5q10 4 15.5 5t15.5 1q16 0 21 -2t12 -6q-4 -55 -12.5 -139t-8.5 -162q0 -31 2 -72l4 -82t4 -76.5t2 -56.5 q-10 -6 -15 -8t-17 -2t-17.5 2t-13.5 6q-2 10 -4 36t-5 54.5t-8.5 54t-11.5 36.5q-16 25 -35.5 43t-58.5 34q-41 18 -89 23.5t-97 5.5h-68v-467q0 -35 1 -56.5t4 -35.5t7 -25.5t11 -23.5q10 -25 32.5 -54.5t44.5 -33.5q14 -4 46 -6.5t85 -4.5h226q66 0 108.5 4.5t65.5 18.5 q66 41 118 121t87 192q10 4 13 4h13q12 0 15.5 -1t11.5 -5q2 -14 2 -25v-34v-201t-4 -106q-2 -14 -3 -19.5t-5 -13.5q-16 -4 -29.5 -4h-26.5q-156 0 -268.5 2t-190 4t-125.5 4t-73 2q-90 0 -142.5 2t-91.5 2q-20 0 -58 -1t-80 -2t-82 -2t-64 -1h-68q-4 8 -7 13t-3 16z M403 1743q0 41 28 71.5t75 30.5q41 0 69.5 -28.5t28.5 -73.5q0 -41 -26.5 -71t-73.5 -30q-45 0 -73 30t-28 71zM840 1743q0 45 30.5 73.5t71.5 28.5q45 0 72.5 -30.5t27.5 -71.5q0 -43 -29.5 -72t-70.5 -29q-45 0 -73.5 30t-28.5 71z" />
<glyph unicode="&#xcc;" horiz-adv-x="751" d="M43 1450q0 14 3 17t7 10h45q35 0 73 -2t73 -3.5t64.5 -2.5t45.5 -1q53 0 131 5.5t144 5.5h59q4 -4 7 -9.5t3 -15.5q0 -12 -6 -24q-49 -6 -101 -15.5t-81 -38.5q-10 -10 -23.5 -37.5t-13.5 -68.5v-527v-147.5t1 -146t2 -129t1 -95.5q10 -55 27.5 -90t42.5 -63 q14 -2 34.5 -5.5t43 -6.5t42 -5t31.5 -2q7 -12 7 -26q0 -12 -9 -27h-67q-25 0 -61 1t-69.5 2t-61 2t-40.5 1q-80 0 -166 -5t-147 -5h-35q0 8 -2 10t-2 14q0 6 1 15.5t5 15.5q55 4 90 11.5t56.5 16.5t33 18t19.5 18q10 20 17 53t12 70q0 27 1 67.5t2 82.5t2 80t1 60 q0 90 -1 186.5t-3 174.5q-2 279 -7 338q-6 84 -27.5 119.5t-39.5 50.5q-10 8 -47 15t-113 13q-2 8 -3 13.5t-1 11.5zM160 1882q0 29 15 50.5t50 21.5q33 0 56.5 -16.5t58.5 -57.5q12 -14 40 -47t62.5 -74t71.5 -85t70 -83q2 -2 2 -7v-7q0 -10 -14.5 -13t-24.5 3 q-100 68 -180 118t-134 89q-27 18 -42 32.5t-22 26.5t-8 23.5t-1 25.5z" />
<glyph unicode="&#xcd;" horiz-adv-x="751" d="M43 1450q0 14 3 17t7 10h45q35 0 73 -2t73 -3.5t64.5 -2.5t45.5 -1q53 0 131 5.5t144 5.5h59q4 -4 7 -9.5t3 -15.5q0 -12 -6 -24q-49 -6 -101 -15.5t-81 -38.5q-10 -10 -23.5 -37.5t-13.5 -68.5v-527v-147.5t1 -146t2 -129t1 -95.5q10 -55 27.5 -90t42.5 -63 q14 -2 34.5 -5.5t43 -6.5t42 -5t31.5 -2q7 -12 7 -26q0 -12 -9 -27h-67q-25 0 -61 1t-69.5 2t-61 2t-40.5 1q-80 0 -166 -5t-147 -5h-35q0 8 -2 10t-2 14q0 6 1 15.5t5 15.5q55 4 90 11.5t56.5 16.5t33 18t19.5 18q10 20 17 53t12 70q0 27 1 67.5t2 82.5t2 80t1 60 q0 90 -1 186.5t-3 174.5q-2 279 -7 338q-6 84 -27.5 119.5t-39.5 50.5q-10 8 -47 15t-113 13q-2 8 -3 13.5t-1 11.5zM168 1577v8t2 6q33 39 69.5 83t71.5 85t62.5 74t40.5 47q35 39 58.5 56.5t55.5 17.5q35 0 50.5 -21.5t15.5 -50.5t-10.5 -50.5t-63.5 -57.5 q-53 -39 -133 -89.5t-180 -117.5q-10 -6 -24.5 -3t-14.5 13z" />
<glyph unicode="&#xce;" horiz-adv-x="751" d="M43 1450q0 14 3 17t7 10h45q35 0 73 -2t73 -3.5t64.5 -2.5t45.5 -1q53 0 131 5.5t144 5.5h59q4 -4 7 -9.5t3 -15.5q0 -12 -6 -24q-49 -6 -101 -15.5t-81 -38.5q-10 -10 -23.5 -37.5t-13.5 -68.5v-527v-147.5t1 -146t2 -129t1 -95.5q10 -55 27.5 -90t42.5 -63 q14 -2 34.5 -5.5t43 -6.5t42 -5t31.5 -2q7 -12 7 -26q0 -12 -9 -27h-67q-25 0 -61 1t-69.5 2t-61 2t-40.5 1q-80 0 -166 -5t-147 -5h-35q0 8 -2 10t-2 14q0 6 1 15.5t5 15.5q55 4 90 11.5t56.5 16.5t33 18t19.5 18q10 20 17 53t12 70q0 27 1 67.5t2 82.5t2 80t1 60 q0 90 -1 186.5t-3 174.5q-2 279 -7 338q-6 84 -27.5 119.5t-39.5 50.5q-10 8 -47 15t-113 13q-2 8 -3 13.5t-1 11.5zM74 1589l209 301q45 66 98 66q35 0 56.5 -18.5t43.5 -47.5l205 -301q6 -10 -9 -18t-26 0l-268 246l-274 -246q-10 -8 -24.5 0t-10.5 18z" />
<glyph unicode="&#xcf;" horiz-adv-x="751" d="M43 1450q0 14 3 17t7 10h45q35 0 73 -2t73 -3.5t64.5 -2.5t45.5 -1q53 0 131 5.5t144 5.5h59q4 -4 7 -9.5t3 -15.5q0 -12 -6 -24q-49 -6 -101 -15.5t-81 -38.5q-10 -10 -23.5 -37.5t-13.5 -68.5v-527v-147.5t1 -146t2 -129t1 -95.5q10 -55 27.5 -90t42.5 -63 q14 -2 34.5 -5.5t43 -6.5t42 -5t31.5 -2q7 -12 7 -26q0 -12 -9 -27h-67q-25 0 -61 1t-69.5 2t-61 2t-40.5 1q-80 0 -166 -5t-147 -5h-35q0 8 -2 10t-2 14q0 6 1 15.5t5 15.5q55 4 90 11.5t56.5 16.5t33 18t19.5 18q10 20 17 53t12 70q0 27 1 67.5t2 82.5t2 80t1 60 q0 90 -1 186.5t-3 174.5q-2 279 -7 338q-6 84 -27.5 119.5t-39.5 50.5q-10 8 -47 15t-113 13q-2 8 -3 13.5t-1 11.5zM70 1743q0 41 27.5 71.5t74.5 30.5q41 0 69.5 -28.5t28.5 -73.5q0 -41 -26.5 -71t-73.5 -30q-45 0 -72.5 30t-27.5 71zM489 1743q0 45 31 73.5t72 28.5 q45 0 72.5 -30.5t27.5 -71.5q0 -43 -29.5 -72t-70.5 -29q-45 0 -74 30t-29 71z" />
<glyph unicode="&#xd0;" horiz-adv-x="1632" d="M37 18q0 10 2 15.5t6 11.5q66 4 102.5 9t59.5 22q20 18 43.5 47t38.5 104q0 47 1 109.5t3 130.5t3 135.5t1 124.5h-193q-27 0 -36 7t-9 28q0 23 8.5 30t36.5 7h195v59q0 61 -2 121.5t-4 110t-4 83t-2 39.5q-4 41 -11.5 76t-31 60.5t-67.5 40t-122 14.5q-10 10 -10 27 q0 8 10 24h82q47 0 85 -2t73 -2q16 0 50 1t75 3q104 8 194.5 11t173.5 3q135 0 246 -24.5t185 -69.5q86 -51 148.5 -127t104 -167t62 -189.5t20.5 -196.5q0 -106 -29.5 -207.5t-86.5 -195.5q-94 -156 -248 -225.5t-395 -69.5q-25 0 -65 1t-84 1t-87 1t-76 1q-31 0 -80 -1 t-101 -1t-96 -1t-65 -1q-10 0 -40.5 -1t-53.5 -1q-10 10 -10 24zM489 297q0 -127 46 -178q29 -37 69.5 -50.5t116.5 -13.5q276 0 436 181q88 98 130 222t42 271q0 186 -60.5 320.5t-181.5 228.5q-86 66 -197.5 97.5t-246.5 31.5q-84 0 -151 -12l-3 -23v-573h369 q29 0 37 -5.5t8 -25.5q0 -23 -8 -32t-37 -9h-369v-430z" />
<glyph unicode="&#xd1;" horiz-adv-x="1654" d="M18 1458q0 6 1 9t6 10q27 0 103.5 -3.5t174.5 -3.5q12 0 26.5 -1t26.5 -1q23 -14 31 -26l750 -907q59 -72 103 -127.5t71 -83.5q2 16 3 33.5t1 54.5v612q0 63 -1 93t-3 52q-4 59 -17.5 114.5t-42.5 88.5q-20 12 -51 22.5t-62.5 16.5t-58 11t-39.5 10q-10 10 -10 20 q0 6 2 14.5t6 12.5h54q8 0 28.5 -1t46 -1t53 -1t52.5 -1q70 0 116 1t80.5 1t65.5 1t70 1h47q6 -9 6 -21q0 -10 -8 -24q-53 -2 -100.5 -17.5t-83 -52.5t-57.5 -99.5t-22 -158.5v-879q0 -23 1.5 -64.5t1.5 -86.5q0 -72 -9 -92q-6 -4 -5 -4t-7 0q-12 0 -25 12l-937 1138 q-10 12 -22.5 28t-23.5 26q0 -27 -1 -79t-2 -116.5t-1 -133.5v-130q0 -92 1 -171t1 -128q0 -27 2 -67t6.5 -77.5t8.5 -69.5t10 -44q27 -35 58.5 -55.5t64.5 -33.5t64.5 -20.5t58.5 -13.5q4 -6 5 -9t1 -9t-2 -15.5t-8 -11.5h-123q-31 0 -56.5 1t-49 2t-49 2t-60.5 1 q-23 0 -50.5 -1l-55 -2t-51 -2t-40.5 -1h-39q-4 2 -5 9t-1 11q0 8 2 11.5t6 11.5q80 20 131.5 43t83.5 57q4 27 8.5 66t4.5 90v442q0 53 1 115t2 122t2 115.5t1 94.5q0 47 -8 65q-14 31 -45 62t-56 59q-14 14 -35.5 24.5t-45 16.5t-44 10.5t-32.5 6.5q-2 4 -3.5 13t-1.5 13z M532 1651q6 43 24.5 80.5t46.5 66.5t61.5 45.5t70.5 16.5q55 0 142 -45q51 -27 81.5 -38.5t51.5 -11.5q51 0 75.5 29t38.5 74q4 16 25 16q8 0 14 -6t4 -16q-6 -43 -24.5 -81t-46 -66.5t-61.5 -45t-70 -16.5q-27 0 -56.5 9t-83.5 38q-49 27 -81.5 38t-53.5 11 q-51 0 -75.5 -28.5t-39.5 -73.5q-4 -18 -24 -19q-8 0 -14.5 6t-4.5 17z" />
<glyph unicode="&#xd2;" horiz-adv-x="1527" d="M68 709q0 221 104 411q41 76 105.5 144.5t144.5 120t174 82t197 30.5q176 0 350 -104q160 -98 238.5 -258t78.5 -373q0 -154 -44 -293t-134 -250q-53 -63 -115.5 -111.5t-140.5 -80.5q-135 -59 -281 -60q-233 0 -417 148q-121 100 -190.5 257.5t-69.5 336.5zM287 719 q0 -74 9 -150.5t26.5 -149.5t44 -135.5t59.5 -107.5q53 -72 136 -108.5t188 -36.5q150 0 256 78q53 37 96 105.5t74.5 159.5t49 200.5t17.5 228.5q0 322 -135 483q-55 68 -143 108t-187 40q-63 0 -126.5 -19.5t-125.5 -64.5q-117 -84 -178 -248t-61 -383zM569 1882 q0 29 15.5 50.5t50.5 21.5q33 0 56.5 -16.5t58.5 -57.5q12 -14 39.5 -47t62.5 -74t72 -85t69 -83q2 -2 2 -7v-7q0 -10 -14 -13t-25 3q-100 68 -180 118t-133 89q-27 18 -42 32.5t-22.5 26.5t-8.5 23.5t-1 25.5z" />
<glyph unicode="&#xd3;" horiz-adv-x="1527" d="M68 709q0 221 104 411q41 76 105.5 144.5t144.5 120t174 82t197 30.5q176 0 350 -104q160 -98 238.5 -258t78.5 -373q0 -154 -44 -293t-134 -250q-53 -63 -115.5 -111.5t-140.5 -80.5q-135 -59 -281 -60q-233 0 -417 148q-121 100 -190.5 257.5t-69.5 336.5zM287 719 q0 -74 9 -150.5t26.5 -149.5t44 -135.5t59.5 -107.5q53 -72 136 -108.5t188 -36.5q150 0 256 78q53 37 96 105.5t74.5 159.5t49 200.5t17.5 228.5q0 322 -135 483q-55 68 -143 108t-187 40q-63 0 -126.5 -19.5t-125.5 -64.5q-117 -84 -178 -248t-61 -383zM582 1577v8t2 6 q33 39 69.5 83t71.5 85t62.5 74t39.5 47q35 39 58.5 56.5t56.5 17.5q35 0 50.5 -21.5t15.5 -50.5t-10.5 -50.5t-63.5 -57.5q-53 -39 -133 -89.5t-180 -117.5q-10 -6 -24.5 -3t-14.5 13z" />
<glyph unicode="&#xd4;" horiz-adv-x="1527" d="M68 709q0 221 104 411q41 76 105.5 144.5t144.5 120t174 82t197 30.5q176 0 350 -104q160 -98 238.5 -258t78.5 -373q0 -154 -44 -293t-134 -250q-53 -63 -115.5 -111.5t-140.5 -80.5q-135 -59 -281 -60q-233 0 -417 148q-121 100 -190.5 257.5t-69.5 336.5zM287 719 q0 -74 9 -150.5t26.5 -149.5t44 -135.5t59.5 -107.5q53 -72 136 -108.5t188 -36.5q150 0 256 78q53 37 96 105.5t74.5 159.5t49 200.5t17.5 228.5q0 322 -135 483q-55 68 -143 108t-187 40q-63 0 -126.5 -19.5t-125.5 -64.5q-117 -84 -178 -248t-61 -383zM469 1589l209 301 q45 66 98 66q35 0 56.5 -18.5t44.5 -47.5l204 -301q6 -10 -9 -18t-25 0l-269 246l-274 -246q-10 -8 -24.5 0t-10.5 18z" />
<glyph unicode="&#xd5;" horiz-adv-x="1527" d="M68 709q0 221 104 411q41 76 105.5 144.5t144.5 120t174 82t197 30.5q176 0 350 -104q160 -98 238.5 -258t78.5 -373q0 -154 -44 -293t-134 -250q-53 -63 -115.5 -111.5t-140.5 -80.5q-135 -59 -281 -60q-233 0 -417 148q-121 100 -190.5 257.5t-69.5 336.5zM287 719 q0 -74 9 -150.5t26.5 -149.5t44 -135.5t59.5 -107.5q53 -72 136 -108.5t188 -36.5q150 0 256 78q53 37 96 105.5t74.5 159.5t49 200.5t17.5 228.5q0 322 -135 483q-55 68 -143 108t-187 40q-63 0 -126.5 -19.5t-125.5 -64.5q-117 -84 -178 -248t-61 -383zM449 1651 q6 43 24.5 80.5t46 66.5t61 45.5t70.5 16.5q55 0 142 -45q51 -27 81.5 -38.5t51.5 -11.5q51 0 75.5 29t38.5 74q4 16 25 16q8 0 14 -6t4 -16q-6 -43 -24.5 -81t-46 -66.5t-61 -45t-70.5 -16.5q-27 0 -56.5 9t-83.5 38q-49 27 -81.5 38t-53.5 11q-51 0 -75.5 -28.5 t-38.5 -73.5q-4 -18 -25 -19q-8 0 -14.5 6t-3.5 17z" />
<glyph unicode="&#xd6;" horiz-adv-x="1527" d="M68 709q0 221 104 411q41 76 105.5 144.5t144.5 120t174 82t197 30.5q176 0 350 -104q160 -98 238.5 -258t78.5 -373q0 -154 -44 -293t-134 -250q-53 -63 -115.5 -111.5t-140.5 -80.5q-135 -59 -281 -60q-233 0 -417 148q-121 100 -190.5 257.5t-69.5 336.5zM287 719 q0 -74 9 -150.5t26.5 -149.5t44 -135.5t59.5 -107.5q53 -72 136 -108.5t188 -36.5q150 0 256 78q53 37 96 105.5t74.5 159.5t49 200.5t17.5 228.5q0 322 -135 483q-55 68 -143 108t-187 40q-63 0 -126.5 -19.5t-125.5 -64.5q-117 -84 -178 -248t-61 -383zM444 1743 q0 41 28 71.5t75 30.5q41 0 69.5 -28.5t28.5 -73.5q0 -41 -26.5 -71t-73.5 -30q-45 0 -73 30t-28 71zM881 1743q0 45 30.5 73.5t71.5 28.5q45 0 72.5 -30.5t27.5 -71.5q0 -43 -29.5 -72t-70.5 -29q-45 0 -73.5 30t-28.5 71z" />
<glyph unicode="&#xd7;" d="M221 41l473 469l-473 469l74 74l469 -473l473 475l72 -76l-473 -469l471 -469l-72 -76l-471 473l-469 -473z" />
<glyph unicode="&#xd8;" horiz-adv-x="1527" d="M68 709q0 221 104 411q41 76 105.5 144.5t144.5 120t174 82t197 30.5q90 0 168.5 -25.5t164.5 -76.5l109 170q4 6 15.5 11t25.5 -1q12 -4 15 -17.5t-3 -23.5l-108 -172q280 -203 280 -600q0 -154 -44 -293t-134 -250q-53 -63 -115.5 -111.5t-140.5 -80.5 q-135 -59 -281 -60q-106 0 -195 31t-173 90l-150 -235q-12 -18 -39 -9q-10 4 -16 16.5t4 28.5l150 236q-119 100 -188.5 255t-69.5 329zM283 719q0 -63 6 -132t19.5 -134.5t32.5 -126t46 -107.5l694 1104q-57 53 -136 82t-167 29q-63 0 -126.5 -19.5t-125.5 -64.5 q-117 -84 -180 -248t-63 -383zM426 168q53 -70 137 -103.5t187 -33.5q150 0 256 78q53 37 97 105.5t75.5 159.5t50 200.5t18.5 228.5q0 156 -29.5 276.5t-91.5 200.5z" />
<glyph unicode="&#xd9;" horiz-adv-x="1662" d="M35 1446q0 20 10 29h86q47 0 104.5 -1t131.5 -1q47 0 113.5 1t123.5 3l78 2q14 -10 14 -27q0 -8 -3 -12t-7 -15q-18 -2 -44 -4t-48.5 -5t-40.5 -5t-25 -6q-23 -16 -51 -46t-28 -65l2 -256l10 -622q0 -25 13 -59.5t38 -70.5t61.5 -70t85.5 -58q53 -25 111.5 -39.5 t126.5 -14.5q313 0 399 269q31 102 37 272q2 47 2 138v223q0 92 -6 153.5t-10 77.5q-2 16 -12.5 37.5t-22.5 42t-24.5 38t-20.5 29.5q-10 14 -39 21.5t-60.5 11.5t-56 5t-28.5 1q-6 16 -6 25q0 10 8 27h73q45 0 109 -2.5t125 -2.5q55 0 114.5 2.5t106.5 2.5h60 q10 -11 10 -27q0 -8 -2 -12t-6 -11q-41 -4 -68 -8t-45 -7t-31.5 -6t-25.5 -7q-23 -37 -41.5 -87t-20.5 -134q0 -14 -1 -38t-1 -52.5t-1 -59.5t-1 -59v-394q0 -66 -8 -126t-25 -117q-29 -96 -76 -164t-124 -109q-150 -84 -351 -84q-219 0 -370 99q-137 90 -178 252 q-20 82 -21 274v492q0 98 -2 152t-4 75q-20 55 -72 86q-23 4 -55.5 9t-81.5 11q-8 8 -8 23zM631 1882q0 29 15.5 50.5t49.5 21.5q33 0 56.5 -16.5t58.5 -57.5q12 -14 40 -47t62.5 -74t71.5 -85t70 -83q2 -2 2 -7v-7q0 -10 -14.5 -13t-24.5 3q-100 68 -180 118t-133 89 q-27 18 -42.5 32.5t-22.5 26.5t-8 23.5t-1 25.5z" />
<glyph unicode="&#xda;" horiz-adv-x="1662" d="M35 1446q0 20 10 29h86q47 0 104.5 -1t131.5 -1q47 0 113.5 1t123.5 3l78 2q14 -10 14 -27q0 -8 -3 -12t-7 -15q-18 -2 -44 -4t-48.5 -5t-40.5 -5t-25 -6q-23 -16 -51 -46t-28 -65l2 -256l10 -622q0 -25 13 -59.5t38 -70.5t61.5 -70t85.5 -58q53 -25 111.5 -39.5 t126.5 -14.5q313 0 399 269q31 102 37 272q2 47 2 138v223q0 92 -6 153.5t-10 77.5q-2 16 -12.5 37.5t-22.5 42t-24.5 38t-20.5 29.5q-10 14 -39 21.5t-60.5 11.5t-56 5t-28.5 1q-6 16 -6 25q0 10 8 27h73q45 0 109 -2.5t125 -2.5q55 0 114.5 2.5t106.5 2.5h60 q10 -11 10 -27q0 -8 -2 -12t-6 -11q-41 -4 -68 -8t-45 -7t-31.5 -6t-25.5 -7q-23 -37 -41.5 -87t-20.5 -134q0 -14 -1 -38t-1 -52.5t-1 -59.5t-1 -59v-394q0 -66 -8 -126t-25 -117q-29 -96 -76 -164t-124 -109q-150 -84 -351 -84q-219 0 -370 99q-137 90 -178 252 q-20 82 -21 274v492q0 98 -2 152t-4 75q-20 55 -72 86q-23 4 -55.5 9t-81.5 11q-8 8 -8 23zM676 1577v8t2 6q33 39 69.5 83t71.5 85t62.5 74t40.5 47q35 39 58.5 56.5t55.5 17.5q35 0 50.5 -21.5t15.5 -50.5t-10.5 -50.5t-63.5 -57.5q-53 -39 -133 -89.5t-180 -117.5 q-10 -6 -24.5 -3t-14.5 13z" />
<glyph unicode="&#xdb;" horiz-adv-x="1662" d="M35 1446q0 20 10 29h86q47 0 104.5 -1t131.5 -1q47 0 113.5 1t123.5 3l78 2q14 -10 14 -27q0 -8 -3 -12t-7 -15q-18 -2 -44 -4t-48.5 -5t-40.5 -5t-25 -6q-23 -16 -51 -46t-28 -65l2 -256l10 -622q0 -25 13 -59.5t38 -70.5t61.5 -70t85.5 -58q53 -25 111.5 -39.5 t126.5 -14.5q313 0 399 269q31 102 37 272q2 47 2 138v223q0 92 -6 153.5t-10 77.5q-2 16 -12.5 37.5t-22.5 42t-24.5 38t-20.5 29.5q-10 14 -39 21.5t-60.5 11.5t-56 5t-28.5 1q-6 16 -6 25q0 10 8 27h73q45 0 109 -2.5t125 -2.5q55 0 114.5 2.5t106.5 2.5h60 q10 -11 10 -27q0 -8 -2 -12t-6 -11q-41 -4 -68 -8t-45 -7t-31.5 -6t-25.5 -7q-23 -37 -41.5 -87t-20.5 -134q0 -14 -1 -38t-1 -52.5t-1 -59.5t-1 -59v-394q0 -66 -8 -126t-25 -117q-29 -96 -76 -164t-124 -109q-150 -84 -351 -84q-219 0 -370 99q-137 90 -178 252 q-20 82 -21 274v492q0 98 -2 152t-4 75q-20 55 -72 86q-23 4 -55.5 9t-81.5 11q-8 8 -8 23zM561 1589l209 301q45 66 98 66q35 0 56.5 -18.5t44.5 -47.5l205 -301q6 -10 -9.5 -18t-25.5 0l-269 246l-274 -246q-10 -8 -24.5 0t-10.5 18z" />
<glyph unicode="&#xdc;" horiz-adv-x="1662" d="M35 1446q0 20 10 29h86q47 0 104.5 -1t131.5 -1q47 0 113.5 1t123.5 3l78 2q14 -10 14 -27q0 -8 -3 -12t-7 -15q-18 -2 -44 -4t-48.5 -5t-40.5 -5t-25 -6q-23 -16 -51 -46t-28 -65l2 -256l10 -622q0 -25 13 -59.5t38 -70.5t61.5 -70t85.5 -58q53 -25 111.5 -39.5 t126.5 -14.5q313 0 399 269q31 102 37 272q2 47 2 138v223q0 92 -6 153.5t-10 77.5q-2 16 -12.5 37.5t-22.5 42t-24.5 38t-20.5 29.5q-10 14 -39 21.5t-60.5 11.5t-56 5t-28.5 1q-6 16 -6 25q0 10 8 27h73q45 0 109 -2.5t125 -2.5q55 0 114.5 2.5t106.5 2.5h60 q10 -11 10 -27q0 -8 -2 -12t-6 -11q-41 -4 -68 -8t-45 -7t-31.5 -6t-25.5 -7q-23 -37 -41.5 -87t-20.5 -134q0 -14 -1 -38t-1 -52.5t-1 -59.5t-1 -59v-394q0 -66 -8 -126t-25 -117q-29 -96 -76 -164t-124 -109q-150 -84 -351 -84q-219 0 -370 99q-137 90 -178 252 q-20 82 -21 274v492q0 98 -2 152t-4 75q-20 55 -72 86q-23 4 -55.5 9t-81.5 11q-8 8 -8 23zM547 1743q0 41 27.5 71.5t74.5 30.5q41 0 70 -28.5t29 -73.5q0 -41 -27 -71t-74 -30q-45 0 -72.5 30t-27.5 71zM983 1743q0 45 30.5 73.5t71.5 28.5q45 0 73 -30.5t28 -71.5 q0 -43 -30 -72t-71 -29q-45 0 -73.5 30t-28.5 71z" />
<glyph unicode="&#xdd;" horiz-adv-x="1419" d="M-2 1446q0 10 3 15t9 16q6 0 29.5 -1t57.5 -2t74 -2.5t77 -1.5q88 0 131 1.5t68.5 2.5t50 2t75.5 1h37q4 -8 8.5 -9.5t4.5 -11.5q0 -12 -7 -29q-66 -8 -110.5 -13t-59.5 -34q-8 -16 -8 -53q0 -14 2 -31.5t6 -23.5l121 -258q10 -23 36 -74t55.5 -109.5t59.5 -113.5t50 -90 q25 35 70 124t116 232q41 86 71 148.5t44 101.5q8 20 10 38.5t2 37.5q0 25 -5 39t-15 34q-6 10 -23.5 19.5t-41 15.5t-49 12.5t-48.5 10.5q-4 12 -4 22q0 8 2 11.5t6 13.5q20 0 53 -1t72 -3t81 -3t81 -1q33 0 103.5 3t133.5 3q4 -6 8.5 -10.5t4.5 -14.5q0 -6 -2 -11t-6 -13 q-31 -8 -71 -17.5t-63 -23.5q-31 -18 -68.5 -55t-60.5 -78l-317 -631q-6 -12 -12 -26.5t-11 -31.5q-2 -4 -6 -18t-2 -31l17 -313q2 -31 6 -49.5t10 -31.5t15.5 -23.5t21.5 -22.5q8 -8 27.5 -14.5t45 -11.5t53 -8t52.5 -7q8 -14 8 -25q0 -8 -3 -14t-7 -12q-29 0 -67.5 1 t-92.5 3q-92 2 -143 3t-84 1q-47 0 -122 -1t-152 -1q-2 6 -4.5 10t-2.5 12q0 10 11 29q18 2 43.5 5t50 7.5t44 8.5t25.5 6q27 16 46.5 52t19.5 101q0 53 -1 92t-2 68t-4 52.5t-9 43.5q-8 29 -23.5 67t-42.5 87l-360 704q-10 20 -49 38t-142 42q-8 14 -8 23zM545 1577v8t2 6 q33 39 69.5 83t71.5 85t62.5 74t40.5 47q35 39 58 56.5t56 17.5q35 0 50.5 -21.5t15.5 -50.5t-10.5 -50.5t-63.5 -57.5q-53 -39 -133 -89.5t-180 -117.5q-10 -6 -24.5 -3t-14.5 13z" />
<glyph unicode="&#xde;" horiz-adv-x="1312" d="M41 18q0 14 1 17.5t3 11.5q129 14 178 46t58 85q6 49 8 244.5t2 521.5q0 162 -6 264.5t-17 137.5q-12 45 -58 54t-138 17q-2 8 -3 14.5t-1 12.5q0 14 3 17t7 9h45q68 -2 136.5 -5t100.5 -3q53 0 131 4t144 4h59q4 -4 7.5 -9t3.5 -15q0 -12 -7 -25q-49 -6 -100 -9t-82 -34 q-10 -10 -22.5 -52t-12.5 -146q41 2 87 4t98 2q123 0 213 -16.5t149 -41.5q104 -45 162.5 -137t58.5 -207q0 -117 -62.5 -215t-172.5 -139q-47 -16 -106.5 -27.5t-131.5 -11.5q-51 0 -129 4t-164 8l4 -165q2 -61 12.5 -88t26.5 -46q14 -16 38 -26t51.5 -16.5t55 -9.5 t50.5 -7q4 -8 4 -22q0 -16 -6 -25h-51q-29 0 -59.5 1t-70.5 3t-92.5 3t-119.5 1q-27 0 -65 -1t-78 -3t-75.5 -3t-60.5 -1q-4 8 -5 8t-1 12zM481 479q0 -14 33 -14q12 0 48 -2t77 -2q193 0 274 57q68 47 99.5 118t31.5 157q0 113 -55 200q-82 131 -342 131q-57 0 -99 -4 t-67 -6v-635z" />
<glyph unicode="&#xdf;" horiz-adv-x="1101" d="M33 27q0 14 6 26q47 4 76.5 6t46 11.5t21.5 29t5 58.5v911q0 178 93 283q117 131 286 131q82 0 153 -21.5t123 -64.5t81.5 -106.5t29.5 -145.5q0 -113 -57 -189.5t-166 -107.5q-4 -4 -12 -3t-8 -7q0 -4 9 -3t15 -1q49 -10 86 -29t72 -49q59 -49 101 -138.5t42 -193.5 q0 -96 -25.5 -173t-84.5 -151q-98 -117 -264 -116q-98 0 -153.5 50t-55.5 120q0 51 28.5 76.5t71.5 25.5q39 0 63.5 -24.5t24.5 -63.5q0 -23 -10 -47q-14 -25 -15 -45q0 -23 25 -31t45 -8q70 0 123 76q35 47 49 119.5t14 183.5q0 61 -5 107t-17 82t-30.5 65.5t-45.5 58.5 q-23 25 -55.5 38t-72.5 20.5t-83 9.5t-86 6q-6 10 -7 15t-1 13t4 16.5t8 18.5q12 0 39 2t57.5 5.5t56 7.5t34.5 6q135 51 135 256q0 129 -56.5 203.5t-171.5 74.5q-80 0 -135 -41t-90 -149q-8 -29 -13 -63.5t-5 -73.5v-1094q-35 -2 -63.5 -2h-57.5h-61.5t-44 1t-35 2 t-31.5 1q-6 12 -6 25z" />
<glyph unicode="&#xe0;" horiz-adv-x="907" d="M68 184q0 49 17 98.5t58 88.5q47 43 125 83t176 76l156 60q0 66 -2 117t-6 79q-14 31 -66.5 61t-109.5 30q-25 0 -50.5 -5.5t-50 -14.5t-44 -21.5t-29.5 -26.5q23 -27 36 -46.5t13 -60.5t-25.5 -61t-72.5 -20q-102 0 -103 104q0 39 21.5 76t56.5 61q47 33 110.5 54.5 t145.5 21.5q322 0 321 -256l3 -545q0 -39 20 -52t43 -13t44.5 13t37.5 30q18 -2 24.5 -10.5t8.5 -18.5q-12 -31 -33 -52.5t-45.5 -33.5t-50 -17.5t-47.5 -5.5q-35 0 -74 18.5t-53 57.5q-8 18 -13.5 47t-5.5 56q-25 -35 -61.5 -68t-77.5 -57.5t-87 -39t-89 -14.5 q-100 0 -160.5 55.5t-60.5 151.5zM201 1391q0 29 15 50t50 21q33 0 56.5 -16t58.5 -57q12 -14 40 -47t62.5 -74t71.5 -85t70 -83q2 -2 2 -7.5v-7.5q0 -10 -14.5 -13t-24.5 3q-100 68 -180 118t-134 89q-27 18 -42 32.5t-22 27t-8 23.5t-1 26zM213 246q0 -68 42 -111t126 -43 q59 0 116.5 33t102.5 86v156q0 35 2 78.5t4 76.5q-14 -6 -52 -20.5t-97 -36.5q-135 -53 -189.5 -105.5t-54.5 -113.5z" />
<glyph unicode="&#xe1;" horiz-adv-x="907" d="M68 184q0 49 17 98.5t58 88.5q47 43 125 83t176 76l156 60q0 66 -2 117t-6 79q-14 31 -66.5 61t-109.5 30q-25 0 -50.5 -5.5t-50 -14.5t-44 -21.5t-29.5 -26.5q23 -27 36 -46.5t13 -60.5t-25.5 -61t-72.5 -20q-102 0 -103 104q0 39 21.5 76t56.5 61q47 33 110.5 54.5 t145.5 21.5q322 0 321 -256l3 -545q0 -39 20 -52t43 -13t44.5 13t37.5 30q18 -2 24.5 -10.5t8.5 -18.5q-12 -31 -33 -52.5t-45.5 -33.5t-50 -17.5t-47.5 -5.5q-35 0 -74 18.5t-53 57.5q-8 18 -13.5 47t-5.5 56q-25 -35 -61.5 -68t-77.5 -57.5t-87 -39t-89 -14.5 q-100 0 -160.5 55.5t-60.5 151.5zM213 246q0 -68 42 -111t126 -43q59 0 116.5 33t102.5 86v156q0 35 2 78.5t4 76.5q-14 -6 -52 -20.5t-97 -36.5q-135 -53 -189.5 -105.5t-54.5 -113.5zM258 1085v8.5t2 6.5q33 39 70 83t71.5 85t62.5 73.5t40 47.5q35 39 58.5 56t55.5 17 q35 0 50.5 -21t15.5 -50t-10 -50.5t-64 -58.5q-53 -39 -133 -89t-180 -118q-10 -6 -24.5 -3t-14.5 13z" />
<glyph unicode="&#xe2;" horiz-adv-x="907" d="M68 184q0 49 17 98.5t58 88.5q47 43 125 83t176 76l156 60q0 66 -2 117t-6 79q-14 31 -66.5 61t-109.5 30q-25 0 -50.5 -5.5t-50 -14.5t-44 -21.5t-29.5 -26.5q23 -27 36 -46.5t13 -60.5t-25.5 -61t-72.5 -20q-102 0 -103 104q0 39 21.5 76t56.5 61q47 33 110.5 54.5 t145.5 21.5q322 0 321 -256l3 -545q0 -39 20 -52t43 -13t44.5 13t37.5 30q18 -2 24.5 -10.5t8.5 -18.5q-12 -31 -33 -52.5t-45.5 -33.5t-50 -17.5t-47.5 -5.5q-35 0 -74 18.5t-53 57.5q-8 18 -13.5 47t-5.5 56q-25 -35 -61.5 -68t-77.5 -57.5t-87 -39t-89 -14.5 q-100 0 -160.5 55.5t-60.5 151.5zM109 1098l208 301q45 66 99 65q35 0 56.5 -18.5t43.5 -46.5l205 -301q6 -10 -9.5 -18.5t-25.5 -0.5l-268 246l-275 -246q-10 -8 -24.5 0t-9.5 19zM213 246q0 -68 42 -111t126 -43q59 0 116.5 33t102.5 86v156q0 35 2 78.5t4 76.5 q-14 -6 -52 -20.5t-97 -36.5q-135 -53 -189.5 -105.5t-54.5 -113.5z" />
<glyph unicode="&#xe3;" horiz-adv-x="907" d="M68 184q0 49 17 98.5t58 88.5q47 43 125 83t176 76l156 60q0 66 -2 117t-6 79q-14 31 -66.5 61t-109.5 30q-25 0 -50.5 -5.5t-50 -14.5t-44 -21.5t-29.5 -26.5q23 -27 36 -46.5t13 -60.5t-25.5 -61t-72.5 -20q-102 0 -103 104q0 39 21.5 76t56.5 61q47 33 110.5 54.5 t145.5 21.5q322 0 321 -256l3 -545q0 -39 20 -52t43 -13t44.5 13t37.5 30q18 -2 24.5 -10.5t8.5 -18.5q-12 -31 -33 -52.5t-45.5 -33.5t-50 -17.5t-47.5 -5.5q-35 0 -74 18.5t-53 57.5q-8 18 -13.5 47t-5.5 56q-25 -35 -61.5 -68t-77.5 -57.5t-87 -39t-89 -14.5 q-100 0 -160.5 55.5t-60.5 151.5zM109 1159q6 43 24.5 81t46 66.5t61 45t70.5 16.5q55 0 142 -45q51 -27 81.5 -38t51.5 -11q51 0 75.5 28.5t38.5 73.5q4 16 25 17q8 0 14 -6.5t4 -16.5q-6 -43 -24.5 -81t-46 -66.5t-61 -45t-70.5 -16.5q-27 0 -56.5 9.5t-83.5 37.5 q-49 27 -81.5 38t-53.5 11q-51 0 -75.5 -28.5t-38.5 -73.5q-4 -18 -25 -18q-8 0 -14.5 6t-3.5 16zM213 246q0 -68 42 -111t126 -43q59 0 116.5 33t102.5 86v156q0 35 2 78.5t4 76.5q-14 -6 -52 -20.5t-97 -36.5q-135 -53 -189.5 -105.5t-54.5 -113.5z" />
<glyph unicode="&#xe4;" horiz-adv-x="907" d="M68 184q0 49 17 98.5t58 88.5q47 43 125 83t176 76l156 60q0 66 -2 117t-6 79q-14 31 -66.5 61t-109.5 30q-25 0 -50.5 -5.5t-50 -14.5t-44 -21.5t-29.5 -26.5q23 -27 36 -46.5t13 -60.5t-25.5 -61t-72.5 -20q-102 0 -103 104q0 39 21.5 76t56.5 61q47 33 110.5 54.5 t145.5 21.5q322 0 321 -256l3 -545q0 -39 20 -52t43 -13t44.5 13t37.5 30q18 -2 24.5 -10.5t8.5 -18.5q-12 -31 -33 -52.5t-45.5 -33.5t-50 -17.5t-47.5 -5.5q-35 0 -74 18.5t-53 57.5q-8 18 -13.5 47t-5.5 56q-25 -35 -61.5 -68t-77.5 -57.5t-87 -39t-89 -14.5 q-100 0 -160.5 55.5t-60.5 151.5zM125 1247q0 41 27.5 72t74.5 31q41 0 70 -29t29 -74q0 -41 -27 -70.5t-74 -29.5q-45 0 -72.5 29.5t-27.5 70.5zM213 246q0 -68 42 -111t126 -43q59 0 116.5 33t102.5 86v156q0 35 2 78.5t4 76.5q-14 -6 -52 -20.5t-97 -36.5 q-135 -53 -189.5 -105.5t-54.5 -113.5zM502 1247q0 45 30.5 74t71.5 29q45 0 73 -31t28 -72q0 -43 -30 -71.5t-71 -28.5q-45 0 -73.5 29.5t-28.5 70.5z" />
<glyph unicode="&#xe5;" horiz-adv-x="907" d="M68 184q0 49 17 98.5t58 88.5q47 43 125 83t176 76l156 60q0 66 -2 117t-6 79q-14 31 -66.5 61t-109.5 30q-25 0 -50.5 -5.5t-50 -14.5t-44 -21.5t-29.5 -26.5q23 -27 36 -46.5t13 -60.5t-25.5 -61t-72.5 -20q-102 0 -103 104q0 39 21.5 76t56.5 61q47 33 110.5 54.5 t145.5 21.5q322 0 321 -256l3 -545q0 -39 20 -52t43 -13t44.5 13t37.5 30q18 -2 24.5 -10.5t8.5 -18.5q-12 -31 -33 -52.5t-45.5 -33.5t-50 -17.5t-47.5 -5.5q-35 0 -74 18.5t-53 57.5q-8 18 -13.5 47t-5.5 56q-25 -35 -61.5 -68t-77.5 -57.5t-87 -39t-89 -14.5 q-100 0 -160.5 55.5t-60.5 151.5zM184 1270q0 41 15.5 84t54.5 76q43 35 80 47t78 12q61 0 116 -31q55 -29 83 -79t28 -103q0 -45 -15.5 -88t-52.5 -76q-39 -35 -78.5 -47t-82.5 -12q-39 0 -83 12t-73 43q-39 37 -54.5 78t-15.5 84zM213 246q0 -68 42 -111t126 -43 q59 0 116.5 33t102.5 86v156q0 35 2 78.5t4 76.5q-14 -6 -52 -20.5t-97 -36.5q-135 -53 -189.5 -105.5t-54.5 -113.5zM285 1274q0 -41 11 -75t26 -52q16 -20 37.5 -31.5t50.5 -11.5q61 0 93 45t32 125t-39 129q-31 41 -90 41q-53 0 -84 -41q-37 -47 -37 -129z" />
<glyph unicode="&#xe6;" horiz-adv-x="1404" d="M68 184q0 49 17 98.5t58 88.5q47 43 125 83t176 76l158 60q0 66 -1 121t-5 84q-6 16 -24.5 30.5t-43 25.5t-54.5 18.5t-58 7.5q-25 0 -52.5 -6.5t-52 -16.5t-41 -22.5t-16.5 -22.5q0 -14 14 -33q10 -10 16.5 -29.5t6.5 -44.5q0 -41 -25.5 -61t-72.5 -20q-102 0 -103 104 q0 39 21.5 76t56.5 61q47 33 110.5 54.5t145.5 21.5q113 0 190.5 -36t104.5 -95q57 66 130 98.5t152 32.5q86 0 159 -34t122 -97q76 -106 76 -207q0 -47 -27 -55q-8 -4 -57 -4h-524q-2 -14 -3.5 -37t-1.5 -51q0 -98 15.5 -166t44.5 -111q35 -59 87 -92t124 -33 q92 0 164.5 46t128.5 153q18 0 32.5 -1.5t22.5 -17.5q0 -25 -33 -88q-51 -86 -137 -128t-186 -42q-109 0 -207.5 47.5t-157.5 145.5q-27 -33 -66.5 -68t-86 -61.5t-96.5 -44t-99 -17.5q-100 0 -163.5 56.5t-63.5 152.5zM213 246q0 -68 42 -112t126 -44q66 0 123 34t98 77 v321q-14 -6 -50 -20.5t-95 -36.5q-135 -53 -189.5 -105.5t-54.5 -113.5zM752 606h168q29 0 61.5 1t62 2t51 2t29.5 1q16 2 29.5 5.5t17.5 7.5q27 21 27 84q0 37 -14.5 61.5t-38.5 46.5q-31 29 -63.5 44.5t-75.5 15.5q-55 0 -101.5 -24t-80 -61.5t-53 -87t-19.5 -98.5z" />
<glyph unicode="&#xe7;" horiz-adv-x="851" d="M59 453q0 137 57.5 253.5t184.5 180.5q98 49 231 49q66 0 121.5 -23.5t96.5 -58.5q20 -18 36.5 -48t16.5 -73t-21.5 -71.5t-68.5 -28.5q-41 0 -73 16.5t-32 55.5q0 49 9.5 71.5t9.5 30.5q0 39 -44 54.5t-102 15.5q-49 0 -94 -29t-76 -74q-39 -55 -62.5 -123.5 t-23.5 -158.5q0 -102 21.5 -182.5t66.5 -135.5q43 -57 95.5 -85t123.5 -28q78 0 143.5 42t119.5 147q18 0 32.5 -1.5t22.5 -17.5q0 -29 -35 -88q-49 -82 -131 -124t-180 -46l-60 -141q29 12 45.5 15t28.5 3q74 0 118 -41.5t44 -111.5q0 -90 -66.5 -142.5t-173.5 -52.5 q-45 0 -79.5 11.5t-60.5 26t-40 29.5t-18 25q2 14 11 22.5t21 12.5q35 -29 70 -47t70 -18q66 0 102.5 32.5t36.5 86.5q0 41 -28.5 70.5t-75.5 29.5q-20 0 -40 -5t-36 -11l-8 14l84 194q-96 8 -191 66q-98 59 -148.5 168.5t-50.5 243.5z" />
<glyph unicode="&#xe8;" horiz-adv-x="878" d="M55 432q0 213 123 367q121 139 295 139q86 0 160 -34t123 -97q76 -106 75 -207q0 -47 -26 -55q-8 -4 -57 -4h-529q-2 -14 -3 -37t-1 -51q0 -98 15.5 -166t43.5 -111q35 -59 88.5 -92t124.5 -33q92 0 166 46t129 153q18 0 33 -1.5t23 -17.5q0 -25 -33 -88 q-51 -86 -138 -128t-188 -42q-88 0 -165.5 32t-137.5 97q-121 131 -121 330zM227 608h164q29 0 62.5 1t62.5 2t51.5 2t30.5 1q16 2 29.5 5.5t17.5 7.5q12 10 19.5 28.5t7.5 53.5q0 37 -14.5 61.5t-39.5 46.5q-31 29 -64.5 44.5t-76.5 15.5q-55 0 -100 -24t-79 -61.5 t-52.5 -86t-18.5 -97.5zM242 1391q0 29 15 50t50 21q33 0 56.5 -16t58.5 -57q12 -14 39.5 -47t62.5 -74t72 -85t70 -83q2 -2 2 -7.5v-7.5q0 -10 -14.5 -13t-24.5 3q-100 68 -180 118t-134 89q-27 18 -42 32.5t-22 27t-8 23.5t-1 26z" />
<glyph unicode="&#xe9;" horiz-adv-x="878" d="M55 432q0 213 123 367q121 139 295 139q86 0 160 -34t123 -97q76 -106 75 -207q0 -47 -26 -55q-8 -4 -57 -4h-529q-2 -14 -3 -37t-1 -51q0 -98 15.5 -166t43.5 -111q35 -59 88.5 -92t124.5 -33q92 0 166 46t129 153q18 0 33 -1.5t23 -17.5q0 -25 -33 -88 q-51 -86 -138 -128t-188 -42q-88 0 -165.5 32t-137.5 97q-121 131 -121 330zM227 608h164q29 0 62.5 1t62.5 2t51.5 2t30.5 1q16 2 29.5 5.5t17.5 7.5q12 10 19.5 28.5t7.5 53.5q0 37 -14.5 61.5t-39.5 46.5q-31 29 -64.5 44.5t-76.5 15.5q-55 0 -100 -24t-79 -61.5 t-52.5 -86t-18.5 -97.5zM307 1085v8.5t2 6.5q33 39 70 83t71.5 85t62.5 73.5t40 47.5q35 39 58.5 56t56.5 17q35 0 50 -21t15 -50t-10 -50.5t-64 -58.5q-53 -39 -133 -89t-180 -118q-10 -6 -24.5 -3t-14.5 13z" />
<glyph unicode="&#xea;" horiz-adv-x="878" d="M55 432q0 213 123 367q121 139 295 139q86 0 160 -34t123 -97q76 -106 75 -207q0 -47 -26 -55q-8 -4 -57 -4h-529q-2 -14 -3 -37t-1 -51q0 -98 15.5 -166t43.5 -111q35 -59 88.5 -92t124.5 -33q92 0 166 46t129 153q18 0 33 -1.5t23 -17.5q0 -25 -33 -88 q-51 -86 -138 -128t-188 -42q-88 0 -165.5 32t-137.5 97q-121 131 -121 330zM158 1098l209 301q45 66 98 65q35 0 56.5 -18.5t43.5 -46.5l205 -301q6 -10 -9.5 -18.5t-25.5 -0.5l-268 246l-274 -246q-10 -8 -24.5 0t-10.5 19zM227 608h164q29 0 62.5 1t62.5 2t51.5 2t30.5 1 q16 2 29.5 5.5t17.5 7.5q12 10 19.5 28.5t7.5 53.5q0 37 -14.5 61.5t-39.5 46.5q-31 29 -64.5 44.5t-76.5 15.5q-55 0 -100 -24t-79 -61.5t-52.5 -86t-18.5 -97.5z" />
<glyph unicode="&#xeb;" horiz-adv-x="878" d="M55 432q0 213 123 367q121 139 295 139q86 0 160 -34t123 -97q76 -106 75 -207q0 -47 -26 -55q-8 -4 -57 -4h-529q-2 -14 -3 -37t-1 -51q0 -98 15.5 -166t43.5 -111q35 -59 88.5 -92t124.5 -33q92 0 166 46t129 153q18 0 33 -1.5t23 -17.5q0 -25 -33 -88 q-51 -86 -138 -128t-188 -42q-88 0 -165.5 32t-137.5 97q-121 131 -121 330zM178 1247q0 41 27.5 72t75.5 31q41 0 69.5 -29t28.5 -74q0 -41 -26.5 -70.5t-73.5 -29.5q-45 0 -73 29.5t-28 70.5zM227 608h164q29 0 62.5 1t62.5 2t51.5 2t30.5 1q16 2 29.5 5.5t17.5 7.5 q12 10 19.5 28.5t7.5 53.5q0 37 -14.5 61.5t-39.5 46.5q-31 29 -64.5 44.5t-76.5 15.5q-55 0 -100 -24t-79 -61.5t-52.5 -86t-18.5 -97.5zM555 1247q0 45 30.5 74t71.5 29q45 0 73 -31t28 -72q0 -43 -30 -71.5t-71 -28.5q-45 0 -73.5 29.5t-28.5 70.5z" />
<glyph unicode="&#xec;" horiz-adv-x="524" d="M0 1391q0 29 15.5 50t50.5 21q33 0 56 -16t58 -57q12 -14 40 -47t62.5 -74t71.5 -85t70 -83q2 -2 2 -7.5v-7.5q0 -10 -14.5 -13t-24.5 3q-100 68 -180 118t-133 89q-27 18 -42.5 32.5t-22.5 27t-8 23.5t-1 26zM27 883q-6 27 4 47q37 -4 80 -4h73q47 0 82 6t60 6 q12 -4 17 -8t11 -21q-2 -23 -3 -54.5t-3 -65t-3 -63.5t-1 -48v-541q0 -29 8 -44t25.5 -23.5t46.5 -13.5t70 -11q4 -6 6 -11.5t2 -13.5q0 -12 -13 -24q-39 0 -71.5 1t-67.5 3q-29 2 -65.5 3t-67.5 1h-168q-8 16 -8 27q0 16 12 28q47 4 74 7.5t41 10.5t20.5 20.5t10.5 37.5 v453q0 25 -1 57.5t-1 65t-1 62.5t-1 48q-55 14 -102.5 32.5t-65.5 29.5z" />
<glyph unicode="&#xed;" horiz-adv-x="524" d="M27 883q-6 27 4 47q37 -4 80 -4h73q47 0 82 6t60 6q12 -4 17 -8t11 -21q-2 -23 -3 -54.5t-3 -65t-3 -63.5t-1 -48v-541q0 -29 8 -44t25.5 -23.5t46.5 -13.5t70 -11q4 -6 6 -11.5t2 -13.5q0 -12 -13 -24q-39 0 -71.5 1t-67.5 3q-29 2 -65.5 3t-67.5 1h-168q-8 16 -8 27 q0 16 12 28q47 4 74 7.5t41 10.5t20.5 20.5t10.5 37.5v453q0 25 -1 57.5t-1 65t-1 62.5t-1 48q-55 14 -102.5 32.5t-65.5 29.5zM47 1085v8.5t2 6.5q33 39 70 83t71.5 85t62.5 73.5t40 47.5q35 39 58.5 56t56.5 17q35 0 50 -21t15 -50t-10 -50.5t-64 -58.5q-53 -39 -133 -89 t-180 -118q-10 -6 -24.5 -3t-14.5 13z" />
<glyph unicode="&#xee;" horiz-adv-x="528" d="M-29 1094l181 295q37 66 88 65q35 0 54 -18.5t36 -46.5l178 -295q4 -10 -5 -19.5t-20 0.5l-241 250l-248 -250q-8 -10 -17.5 -1t-5.5 20zM29 885q-6 27 4 47q37 -4 80 -5t73 -1q47 0 82 6t60 6q12 -4 17 -8t11 -21q-2 -23 -3 -54.5t-3 -65t-3 -63.5t-1 -48v-541 q0 -29 8 -44t25.5 -23.5t46.5 -13.5t70 -11q4 -6 6 -11.5t2 -13.5q0 -12 -12 -24q-39 0 -72 1t-68 3q-29 2 -65.5 3t-67.5 1h-168q-8 16 -8 27q0 16 12 28q47 4 74 7.5t41 10.5t20.5 20.5t10.5 37.5v453q0 25 -1 57.5t-1 65t-1 62.5t-1 48q-55 14 -102.5 33.5t-65.5 30.5z " />
<glyph unicode="&#xef;" horiz-adv-x="528" d="M-29 1247q0 41 29 70t70 29q35 0 64.5 -26t29.5 -73q0 -41 -26.5 -68.5t-69.5 -27.5q-41 0 -69 27.5t-28 68.5zM29 885q-6 27 4 47q37 -4 80 -5t73 -1q47 0 82 6t60 6q12 -4 17 -8t11 -21q-2 -23 -3 -54.5t-3 -65t-3 -63.5t-1 -48v-541q0 -29 8 -44t25.5 -23.5 t46.5 -13.5t70 -11q4 -6 6 -11.5t2 -13.5q0 -12 -12 -24q-39 0 -72 1t-68 3q-29 2 -65.5 3t-67.5 1h-168q-8 16 -8 27q0 16 12 28q47 4 74 7.5t41 10.5t20.5 20.5t10.5 37.5v453q0 25 -1 57.5t-1 65t-1 62.5t-1 48q-55 14 -102.5 33.5t-65.5 30.5zM319 1247q0 47 32 73 t67 26q41 0 68.5 -29t27.5 -70q0 -39 -27.5 -67.5t-68.5 -28.5q-43 0 -71 27.5t-28 68.5z" />
<glyph unicode="&#xf0;" horiz-adv-x="983" d="M59 465q0 109 37 197t97.5 149t137.5 94t158 33q63 0 134 -24.5t127 -77.5q-41 141 -91.5 242.5t-103.5 172.5l-240 -149q-12 -8 -28.5 1t-16.5 23q0 6 1 14.5t10 12.5l235 145q-41 45 -84 80t-86 64q-12 10 -1 32.5t30 22.5h10t10 -4q18 -12 72.5 -50t120.5 -102 l196 123q14 10 28.5 0t14.5 -24v-14.5t-8 -12.5l-186 -115q51 -55 102 -127.5t92 -161.5t67 -195.5t26 -231.5q0 -135 -30 -247t-86 -192t-137 -125t-186 -45q-80 0 -156.5 33t-135 95.5t-94.5 154.5t-36 209zM221 475q0 -199 66.5 -318.5t204.5 -119.5q76 0 129 40 t85.5 114.5t47 180t14.5 236.5q0 35 -3 70t-7 70q-33 39 -66 61t-65.5 34.5t-62 16.5t-56.5 4q-74 0 -128 -33.5t-90 -89t-52.5 -125t-16.5 -141.5z" />
<glyph unicode="&#xf1;" horiz-adv-x="1097" d="M39 842q0 10 3 19t13 26q16 -4 50 -9.5t69 -5.5q41 0 61.5 18.5t55.5 55.5q27 6 47 -8l-8 -176q53 86 135 131t170 45q86 0 152.5 -32t101.5 -99q43 -80 43 -258v-414q0 -47 34.5 -62.5t88.5 -27.5q6 -12 6 -20q0 -14 -10 -25h-414q-4 6 -6 11t-2 14q0 10 2 15t6 11 q78 0 111.5 23.5t33.5 70.5l2 342q0 70 -5 135.5t-19 100.5q-23 55 -66 84t-114 29q-66 0 -120 -26t-102 -73q-16 -12 -16 -22t-2 -33q0 -14 -1 -40t-1 -60v-414q0 -63 28.5 -90t106.5 -27q12 -14 12 -26q0 -10 -3 -12.5t-7 -12.5h-420q-10 10 -10 23q0 10 8 26 q78 4 106.5 24.5t33.5 76.5q2 23 3 98.5t1 173.5q0 121 -2 195.5t-7 99.5q-4 31 -12 45t-20 20q-31 16 -55.5 26.5t-61.5 33.5zM221 1159q6 43 24.5 81t46 66.5t61.5 45t71 16.5q55 0 141 -45q51 -27 82 -38t51 -11q51 0 76 28.5t39 73.5q4 16 25 17q8 0 14 -6.5t4 -16.5 q-6 -43 -24.5 -81t-46 -66.5t-61.5 -45t-71 -16.5q-27 0 -56.5 9.5t-82.5 37.5q-49 27 -82 38t-53 11q-51 0 -75.5 -28.5t-39.5 -73.5q-4 -18 -24 -18q-8 0 -14.5 6t-4.5 16z" />
<glyph unicode="&#xf2;" horiz-adv-x="976" d="M57 453q0 100 32 188t97 160q68 72 145 104.5t154 32.5q53 0 106.5 -16.5t113.5 -53.5q100 -68 155 -173t55 -232q0 -98 -33.5 -183t-101.5 -165q-141 -141 -297 -142q-78 0 -151.5 32t-145.5 101q-66 78 -97.5 161t-31.5 186zM219 457q0 -209 78 -318q35 -49 79 -76.5 t109 -27.5q133 0 198 108.5t65 309.5q0 225 -82 325q-35 47 -80 73t-109 26q-59 0 -101 -26t-77 -73q-80 -106 -80 -321zM266 1391q0 29 15.5 50t50.5 21q33 0 56.5 -16t57.5 -57q12 -14 40 -47t63 -74t71.5 -85t69.5 -83q2 -2 2 -7.5v-7.5q0 -10 -14 -13t-25 3 q-100 68 -180 118t-133 89q-27 18 -42 32.5t-22.5 27t-8.5 23.5t-1 26z" />
<glyph unicode="&#xf3;" horiz-adv-x="976" d="M57 453q0 100 32 188t97 160q68 72 145 104.5t154 32.5q53 0 106.5 -16.5t113.5 -53.5q100 -68 155 -173t55 -232q0 -98 -33.5 -183t-101.5 -165q-141 -141 -297 -142q-78 0 -151.5 32t-145.5 101q-66 78 -97.5 161t-31.5 186zM219 457q0 -209 78 -318q35 -49 79 -76.5 t109 -27.5q133 0 198 108.5t65 309.5q0 225 -82 325q-35 47 -80 73t-109 26q-59 0 -101 -26t-77 -73q-80 -106 -80 -321zM297 1085v8.5t2 6.5q33 39 70 83t71.5 85t62 73.5t40.5 47.5q35 39 58.5 56t55.5 17q35 0 50.5 -21t15.5 -50t-10.5 -50.5t-63.5 -58.5 q-53 -39 -133 -89t-180 -118q-10 -6 -24.5 -3t-14.5 13z" />
<glyph unicode="&#xf4;" horiz-adv-x="976" d="M57 453q0 100 32 188t97 160q68 72 145 104.5t154 32.5q53 0 106.5 -16.5t113.5 -53.5q100 -68 155 -173t55 -232q0 -98 -33.5 -183t-101.5 -165q-141 -141 -297 -142q-78 0 -151.5 32t-145.5 101q-66 78 -97.5 161t-31.5 186zM182 1098l209 301q45 66 98 65 q35 0 56.5 -18.5t44.5 -46.5l205 -301q6 -10 -9.5 -18.5t-25.5 -0.5l-268 246l-275 -246q-10 -8 -24.5 0t-10.5 19zM219 457q0 -209 78 -318q35 -49 79 -76.5t109 -27.5q133 0 198 108.5t65 309.5q0 225 -82 325q-35 47 -80 73t-109 26q-59 0 -101 -26t-77 -73 q-80 -106 -80 -321z" />
<glyph unicode="&#xf5;" horiz-adv-x="976" d="M57 453q0 100 32 188t97 160q68 72 145 104.5t154 32.5q53 0 106.5 -16.5t113.5 -53.5q100 -68 155 -173t55 -232q0 -98 -33.5 -183t-101.5 -165q-141 -141 -297 -142q-78 0 -151.5 32t-145.5 101q-66 78 -97.5 161t-31.5 186zM170 1159q6 43 24.5 81t46 66.5t61.5 45 t71 16.5q55 0 141 -45q51 -27 82 -38t51 -11q51 0 76 28.5t39 73.5q4 16 24 17q8 0 14.5 -6.5t4.5 -16.5q-6 -43 -24.5 -81t-46 -66.5t-61.5 -45t-71 -16.5q-27 0 -56.5 9.5t-82.5 37.5q-49 27 -82 38t-53 11q-51 0 -76 -28.5t-39 -73.5q-4 -18 -25 -18q-8 0 -14 6t-4 16z M219 457q0 -209 78 -318q35 -49 79 -76.5t109 -27.5q133 0 198 108.5t65 309.5q0 225 -82 325q-35 47 -80 73t-109 26q-59 0 -101 -26t-77 -73q-80 -106 -80 -321z" />
<glyph unicode="&#xf6;" horiz-adv-x="976" d="M57 453q0 100 32 188t97 160q68 72 145 104.5t154 32.5q53 0 106.5 -16.5t113.5 -53.5q100 -68 155 -173t55 -232q0 -98 -33.5 -183t-101.5 -165q-141 -141 -297 -142q-78 0 -151.5 32t-145.5 101q-66 78 -97.5 161t-31.5 186zM203 1247q0 41 27.5 72t74.5 31 q41 0 69.5 -29t28.5 -74q0 -41 -26.5 -70.5t-73.5 -29.5q-45 0 -72.5 29.5t-27.5 70.5zM219 457q0 -209 78 -318q35 -49 79 -76.5t109 -27.5q133 0 198 108.5t65 309.5q0 225 -82 325q-35 47 -80 73t-109 26q-59 0 -101 -26t-77 -73q-80 -106 -80 -321zM580 1247 q0 45 30.5 74t71.5 29q45 0 72.5 -31t27.5 -72q0 -43 -29.5 -71.5t-70.5 -28.5q-45 0 -73.5 29.5t-28.5 70.5z" />
<glyph unicode="&#xf7;" d="M176 457v104h1180v-104h-1180zM645 100q0 51 34 85t83 34q51 0 85 -34t34 -85q0 -49 -34 -82.5t-85 -33.5q-49 0 -83 33.5t-34 82.5zM645 915q0 49 34 83t83 34q51 0 85 -34t34 -83q0 -51 -34 -84.5t-85 -33.5q-49 0 -83 33.5t-34 84.5z" />
<glyph unicode="&#xf8;" horiz-adv-x="976" d="M59 453q0 100 32 188t97 160q68 72 145 104.5t154 32.5q102 0 218 -70l100 158q4 6 15 11t26 -1q14 -4 12 -18t-8 -25l-102 -162q80 -68 125 -162.5t45 -205.5q0 -98 -34 -183t-102 -165q-141 -141 -297 -142q-121 0 -229 78l-119 -190q-12 -16 -37 -6q-29 10 -6 47 l119 188q-72 66 -113 160t-41 203zM217 457q0 -180 53 -281l392 623q-68 78 -183 78q-59 0 -101 -26t-77 -73q-43 -57 -63.5 -134t-20.5 -187zM301 123q72 -88 186 -88q135 0 201 108.5t66 309.5q0 197 -60 299z" />
<glyph unicode="&#xf9;" horiz-adv-x="1085" d="M2 881q0 8 2 14t6 14h232q43 0 51 -4q14 -10 14 -43v-592q0 -90 51 -139q66 -72 164 -72q41 0 79 13.5t69.5 35t56.5 48t41 53.5v305v140.5t-2 97.5t-6 45t-20.5 29.5t-49.5 17.5t-92 8q-6 10 -7 16t-1 13q0 10 12 28h281q23 0 26 -2q12 -4 13 -22q0 -10 -4.5 -50 t-4.5 -112v-539q0 -41 7 -71q12 -4 31.5 -9.5t39 -10.5t36.5 -10t30 -9q4 -6 6 -11.5t2 -15.5t-3 -15t-5 -12q-2 0 -13.5 -1t-25.5 -1t-29.5 -1t-25.5 -1q-41 -4 -77 -19t-81 -26q-16 4 -21.5 9.5t-9.5 17.5v147q-53 -94 -136 -134t-167 -40q-78 0 -141.5 23.5t-108.5 73.5 q-29 31 -44 74.5t-17 95.5l-4 485q0 45 -6.5 69.5t-21.5 37t-44 15.5t-76 7q-6 16 -6 29zM307 1391q0 29 15.5 50t50.5 21q33 0 56.5 -16t57.5 -57q12 -14 40 -47t63 -74t71.5 -85t69.5 -83q2 -2 2 -7.5v-7.5q0 -10 -14 -13t-25 3q-100 68 -180 118t-133 89q-27 18 -42 32.5 t-22.5 27t-8.5 23.5t-1 26z" />
<glyph unicode="&#xfa;" horiz-adv-x="1085" d="M2 881q0 8 2 14t6 14h232q43 0 51 -4q14 -10 14 -43v-592q0 -90 51 -139q66 -72 164 -72q41 0 79 13.5t69.5 35t56.5 48t41 53.5v305v140.5t-2 97.5t-6 45t-20.5 29.5t-49.5 17.5t-92 8q-6 10 -7 16t-1 13q0 10 12 28h281q23 0 26 -2q12 -4 13 -22q0 -10 -4.5 -50 t-4.5 -112v-539q0 -41 7 -71q12 -4 31.5 -9.5t39 -10.5t36.5 -10t30 -9q4 -6 6 -11.5t2 -15.5t-3 -15t-5 -12q-2 0 -13.5 -1t-25.5 -1t-29.5 -1t-25.5 -1q-41 -4 -77 -19t-81 -26q-16 4 -21.5 9.5t-9.5 17.5v147q-53 -94 -136 -134t-167 -40q-78 0 -141.5 23.5t-108.5 73.5 q-29 31 -44 74.5t-17 95.5l-4 485q0 45 -6.5 69.5t-21.5 37t-44 15.5t-76 7q-6 16 -6 29zM334 1085v8.5t2 6.5q33 39 69.5 83t71.5 85t62.5 73.5t40.5 47.5q35 39 58.5 56t55.5 17q35 0 50.5 -21t15.5 -50t-10.5 -50.5t-63.5 -58.5q-53 -39 -133 -89t-180 -118 q-10 -6 -24.5 -3t-14.5 13z" />
<glyph unicode="&#xfb;" horiz-adv-x="1085" d="M2 881q0 8 2 14t6 14h232q43 0 51 -4q14 -10 14 -43v-592q0 -90 51 -139q66 -72 164 -72q41 0 79 13.5t69.5 35t56.5 48t41 53.5v305v140.5t-2 97.5t-6 45t-20.5 29.5t-49.5 17.5t-92 8q-6 10 -7 16t-1 13q0 10 12 28h281q23 0 26 -2q12 -4 13 -22q0 -10 -4.5 -50 t-4.5 -112v-539q0 -41 7 -71q12 -4 31.5 -9.5t39 -10.5t36.5 -10t30 -9q4 -6 6 -11.5t2 -15.5t-3 -15t-5 -12q-2 0 -13.5 -1t-25.5 -1t-29.5 -1t-25.5 -1q-41 -4 -77 -19t-81 -26q-16 4 -21.5 9.5t-9.5 17.5v147q-53 -94 -136 -134t-167 -40q-78 0 -141.5 23.5t-108.5 73.5 q-29 31 -44 74.5t-17 95.5l-4 485q0 45 -6.5 69.5t-21.5 37t-44 15.5t-76 7q-6 16 -6 29zM205 1098l209 301q45 66 98 65q35 0 56.5 -18.5t43.5 -46.5l205 -301q6 -10 -9 -18.5t-26 -0.5l-268 246l-274 -246q-10 -8 -24.5 0t-10.5 19z" />
<glyph unicode="&#xfc;" horiz-adv-x="1085" d="M2 881q0 8 2 14t6 14h232q43 0 51 -4q14 -10 14 -43v-592q0 -90 51 -139q66 -72 164 -72q41 0 79 13.5t69.5 35t56.5 48t41 53.5v305v140.5t-2 97.5t-6 45t-20.5 29.5t-49.5 17.5t-92 8q-6 10 -7 16t-1 13q0 10 12 28h281q23 0 26 -2q12 -4 13 -22q0 -10 -4.5 -50 t-4.5 -112v-539q0 -41 7 -71q12 -4 31.5 -9.5t39 -10.5t36.5 -10t30 -9q4 -6 6 -11.5t2 -15.5t-3 -15t-5 -12q-2 0 -13.5 -1t-25.5 -1t-29.5 -1t-25.5 -1q-41 -4 -77 -19t-81 -26q-16 4 -21.5 9.5t-9.5 17.5v147q-53 -94 -136 -134t-167 -40q-78 0 -141.5 23.5t-108.5 73.5 q-29 31 -44 74.5t-17 95.5l-4 485q0 45 -6.5 69.5t-21.5 37t-44 15.5t-76 7q-6 16 -6 29zM223 1247q0 41 28 72t75 31q41 0 69.5 -29t28.5 -74q0 -41 -26.5 -70.5t-73.5 -29.5q-45 0 -73 29.5t-28 70.5zM600 1247q0 45 31 74t71 29q45 0 73 -31t28 -72q0 -43 -30 -71.5 t-71 -28.5q-45 0 -73.5 29.5t-28.5 70.5z" />
<glyph unicode="&#xfd;" horiz-adv-x="989" d="M-12 889q0 10 6 24h51q53 0 118.5 -3t112.5 -3l146 2l8 -12t4 -12q0 -14 -12 -27q-27 -2 -47.5 -5t-35.5 -9t-23.5 -18.5t-8.5 -34.5q0 -20 12 -56l125 -325q31 -78 56.5 -137.5t42.5 -96.5q27 66 58.5 146.5t63 161.5t57.5 152t40 114q-10 41 -16.5 56t-22.5 34 q-12 4 -49 7t-60 7q-6 8 -7 13t-1 14q0 12 8 26q43 0 100.5 -2t110.5 -2q12 0 32 1t39 3t37.5 3t29.5 1h19t17 -2q4 -8 7.5 -13t3.5 -13q0 -10 -3 -12.5t-8 -12.5q-59 -2 -103 -43t-75 -113l-174 -426q-12 -27 -34.5 -88t-51.5 -134.5t-57.5 -148.5t-52.5 -130 q-35 -86 -69 -141.5t-65 -94.5q-31 -31 -71.5 -46t-81.5 -15q-61 0 -98 29.5t-37 84.5q0 39 23.5 73t68.5 34q23 0 45 -6t39 -25q6 -10 12 -42t19 -52q33 29 63.5 73t59 97t54 112.5t48.5 116.5q-55 145 -132 339t-165 407q-6 14 -14.5 31.5t-16.5 34t-14 28.5t-10 16 q-4 6 -18.5 11.5t-33 9.5t-36 7t-29.5 5q-2 10 -3 15.5t-1 11.5zM334 1085v8.5t2 6.5q33 39 69.5 83t71.5 85t62.5 73.5t40.5 47.5q35 39 58.5 56t55.5 17q35 0 50.5 -21t15.5 -50t-10.5 -50.5t-63.5 -58.5q-53 -39 -133 -89t-180 -118q-10 -6 -24.5 -3t-14.5 13z" />
<glyph unicode="&#xfe;" horiz-adv-x="1071" d="M-16 -494q0 12 6 29q63 4 97 13.5t50.5 22.5t19.5 34.5t3 50.5v256v440v189.5t-1 191.5t-1 180v156t-1 140.5t-3 123.5q-20 25 -54 36t-82 28q-4 8 -6 11t-2 9q0 12 8 29q51 0 85 3t59.5 8t51.5 13.5t62 18.5q18 -2 35 -16v-394q0 -23 -1 -64.5t-2 -84.5t-2 -82t-1 -55 q61 82 135 113.5t140 31.5q125 0 226 -64.5t157 -193.5q23 -53 34 -115t11 -121q0 -102 -30 -184t-85 -149q-47 -55 -123 -87t-172 -32q-37 0 -77 6t-79 18.5t-71.5 32t-57.5 43.5v-123q0 -150 1 -248t14 -139q8 -23 39.5 -35t64.5 -12h60q6 -10 9 -14t3 -13q0 -6 -3 -12 t-7 -12q-16 -2 -58.5 -2h-75.5h-368q-4 6 -6 11t-2 13zM307 414q0 -80 4 -158q2 -39 5 -62.5t14 -37.5q12 -18 35.5 -35t53.5 -30t62.5 -20.5t61.5 -7.5q37 0 75.5 13.5t73.5 40.5q76 51 112 130t36 212q0 98 -21.5 173t-68.5 124q-41 47 -96.5 73.5t-121.5 26.5 q-68 0 -119 -34t-102 -97q-2 -31 -3 -71t-1 -76v-164z" />
<glyph unicode="&#xff;" horiz-adv-x="989" d="M-12 889q0 10 6 24h51q53 0 118.5 -3t112.5 -3l146 2l8 -12t4 -12q0 -14 -12 -27q-27 -2 -47.5 -5t-35.5 -9t-23.5 -18.5t-8.5 -34.5q0 -20 12 -56l125 -325q31 -78 56.5 -137.5t42.5 -96.5q27 66 58.5 146.5t63 161.5t57.5 152t40 114q-10 41 -16.5 56t-22.5 34 q-12 4 -49 7t-60 7q-6 8 -7 13t-1 14q0 12 8 26q43 0 100.5 -2t110.5 -2q12 0 32 1t39 3t37.5 3t29.5 1h19t17 -2q4 -8 7.5 -13t3.5 -13q0 -10 -3 -12.5t-8 -12.5q-59 -2 -103 -43t-75 -113l-174 -426q-12 -27 -34.5 -88t-51.5 -134.5t-57.5 -148.5t-52.5 -130 q-35 -86 -69 -141.5t-65 -94.5q-31 -31 -71.5 -46t-81.5 -15q-61 0 -98 29.5t-37 84.5q0 39 23.5 73t68.5 34q23 0 45 -6t39 -25q6 -10 12 -42t19 -52q33 29 63.5 73t59 97t54 112.5t48.5 116.5q-55 145 -132 339t-165 407q-6 14 -14.5 31.5t-16.5 34t-14 28.5t-10 16 q-4 6 -18.5 11.5t-33 9.5t-36 7t-29.5 5q-2 10 -3 15.5t-1 11.5zM223 1247q0 41 28 72t75 31q41 0 69.5 -29t28.5 -74q0 -41 -26.5 -70.5t-73.5 -29.5q-45 0 -73 29.5t-28 70.5zM600 1247q0 45 31 74t71 29q45 0 73 -31t28 -72q0 -43 -30 -71.5t-71 -28.5q-45 0 -73.5 29.5 t-28.5 70.5z" />
<glyph unicode="&#x152;" horiz-adv-x="2189" d="M68 684q0 365 229 592q59 57 118.5 96t126 63.5t144.5 35t172 10.5q18 0 59 -2t95.5 -5.5t114 -5.5t110.5 -2q76 0 159 1t161.5 3.5t146.5 3.5t111 1q61 0 107 -2.5t58 -2.5q45 0 48 -26q2 -18 3 -53t3 -78t3 -91t3 -96q-12 -6 -16.5 -9t-14.5 -3h-10t-12 4 q-20 47 -36 82t-34.5 63.5t-43 54t-61.5 54.5q-43 35 -131 41q-14 0 -62 1t-138 1q-72 0 -114 -1t-56 -3q-2 -14 -3 -32.5t-3 -37.5q-2 -27 -4.5 -96t-2.5 -217v-201h35q59 0 95 4.5t65 12.5q41 12 83 40.5t64 67.5q2 2 5.5 18.5t7.5 38t8 42t6 30.5q10 4 15.5 5t15.5 1 q16 0 21 -2t12 -6q-2 -27 -6.5 -64.5t-7.5 -78.5t-5 -84t-2 -82q0 -31 2 -71t4 -79.5t4 -75.5t2 -57q-10 -6 -15 -8t-17 -2t-17.5 2t-13.5 6q-2 10 -4 34t-5 49.5t-8.5 49t-11.5 33.5q-16 25 -38.5 48.5t-61.5 39.5q-41 18 -86 23.5t-94 5.5h-54v-467q0 -41 1 -83t12 -64 q14 -31 40.5 -54.5t49.5 -27.5q14 -4 57 -7.5t72 -3.5h196q61 0 106.5 4.5t67.5 18.5q66 41 118 121t87 192q10 4 13.5 4h13.5q12 0 15 -1t12 -5q2 -14 2 -25v-34v-201t-5 -106q-2 -14 -3 -19.5t-5 -13.5q-16 -4 -29.5 -4h-25.5q-156 0 -264.5 1t-181 3t-115.5 3t-68 1h-225 q-39 0 -123 -4t-188 -8q-37 -2 -76 -3t-64 -1q-164 0 -291.5 48t-228.5 142q-49 49 -86 102.5t-59 110.5q-53 135 -53 297zM287 698q0 -170 36.5 -296t108.5 -216q55 -70 145.5 -107.5t200.5 -37.5q129 0 205 31.5t109 105.5q10 25 14 100.5t4 194.5v711q0 53 -8 100t-37 76 q-35 35 -90 50t-141 15q-160 0 -285 -84t-193 -258q-33 -82 -51 -178t-18 -207z" />
<glyph unicode="&#x153;" horiz-adv-x="1560" d="M59 453q0 100 32 188t97 160q68 72 145 104.5t154 32.5q88 0 180.5 -47t159.5 -148q53 86 142.5 140.5t187.5 54.5q86 0 159 -34t122 -97q76 -106 75 -207q0 -47 -26 -55q-8 -4 -57 -4h-529q-2 -14 -2 -40v-48q0 -98 15.5 -166t43.5 -111q35 -59 88.5 -92t124.5 -33 q92 0 165 46t128 153q18 0 33 -1.5t23 -17.5q0 -25 -33 -88q-51 -86 -137 -128t-187 -42q-106 0 -197.5 50.5t-150.5 142.5q-61 -92 -149 -142.5t-181 -50.5q-78 0 -151.5 32t-145.5 101q-66 78 -97.5 161t-31.5 186zM221 457q0 -209 78 -318q35 -49 79 -76.5t109 -27.5 q133 0 198 108.5t65 309.5q0 225 -82 325q-35 47 -80 73t-109 26q-59 0 -101 -26t-77 -73q-80 -106 -80 -321zM907 608h168q29 0 61.5 1t62.5 2t51.5 2t29.5 1q39 4 51 13q23 16 23 82q0 35 -15.5 62.5t-38.5 49.5q-31 29 -63.5 42.5t-75.5 13.5q-55 0 -100 -24t-79 -61.5 t-53.5 -86t-21.5 -97.5z" />
<glyph unicode="&#x178;" horiz-adv-x="1419" d="M-2 1446q0 10 3 15t9 16q6 0 29.5 -1t57.5 -2t74 -2.5t77 -1.5q88 0 131 1.5t68.5 2.5t50 2t75.5 1h37q4 -8 8.5 -9.5t4.5 -11.5q0 -12 -7 -29q-66 -8 -110.5 -13t-59.5 -34q-8 -16 -8 -53q0 -14 2 -31.5t6 -23.5l121 -258q10 -23 36 -74t55.5 -109.5t59.5 -113.5t50 -90 q25 35 70 124t116 232q41 86 71 148.5t44 101.5q8 20 10 38.5t2 37.5q0 25 -5 39t-15 34q-6 10 -23.5 19.5t-41 15.5t-49 12.5t-48.5 10.5q-4 12 -4 22q0 8 2 11.5t6 13.5q20 0 53 -1t72 -3t81 -3t81 -1q33 0 103.5 3t133.5 3q4 -6 8.5 -10.5t4.5 -14.5q0 -6 -2 -11t-6 -13 q-31 -8 -71 -17.5t-63 -23.5q-31 -18 -68.5 -55t-60.5 -78l-317 -631q-6 -12 -12 -26.5t-11 -31.5q-2 -4 -6 -18t-2 -31l17 -313q2 -31 6 -49.5t10 -31.5t15.5 -23.5t21.5 -22.5q8 -8 27.5 -14.5t45 -11.5t53 -8t52.5 -7q8 -14 8 -25q0 -8 -3 -14t-7 -12q-29 0 -67.5 1 t-92.5 3q-92 2 -143 3t-84 1q-47 0 -122 -1t-152 -1q-2 6 -4.5 10t-2.5 12q0 10 11 29q18 2 43.5 5t50 7.5t44 8.5t25.5 6q27 16 46.5 52t19.5 101q0 53 -1 92t-2 68t-4 52.5t-9 43.5q-8 29 -23.5 67t-42.5 87l-360 704q-10 20 -49 38t-142 42q-8 14 -8 23zM426 1743 q0 41 27.5 71.5t74.5 30.5q41 0 70 -28.5t29 -73.5q0 -41 -27 -71t-74 -30q-45 0 -72.5 30t-27.5 71zM862 1743q0 45 31 73.5t72 28.5q45 0 72.5 -30.5t27.5 -71.5q0 -43 -29.5 -72t-70.5 -29q-45 0 -74 30t-29 71z" />
<glyph unicode="&#x2c6;" horiz-adv-x="520" d="M-45 1098l209 301q45 66 98 65q35 0 56.5 -18.5t43.5 -46.5l205 -301q6 -10 -9 -18.5t-26 -0.5l-268 246l-274 -246q-10 -8 -24.5 0t-10.5 19z" />
<glyph unicode="&#x2dc;" horiz-adv-x="520" d="M-57 1159q6 43 24.5 81t46 66.5t61.5 45t70 16.5q55 0 142 -45q51 -27 81.5 -38t51.5 -11q51 0 75.5 28.5t39.5 73.5q4 16 24 17q8 0 14.5 -6.5t4.5 -16.5q-6 -43 -24.5 -81t-46.5 -66.5t-61.5 -45t-70.5 -16.5q-27 0 -56.5 9.5t-82.5 37.5q-49 27 -82 38t-54 11 q-51 0 -75.5 -28.5t-38.5 -73.5q-4 -18 -25 -18q-8 0 -14 6t-4 16z" />
<glyph unicode="&#x2000;" horiz-adv-x="988" />
<glyph unicode="&#x2001;" horiz-adv-x="1976" />
<glyph unicode="&#x2002;" horiz-adv-x="988" />
<glyph unicode="&#x2003;" horiz-adv-x="1976" />
<glyph unicode="&#x2004;" horiz-adv-x="658" />
<glyph unicode="&#x2005;" horiz-adv-x="494" />
<glyph unicode="&#x2006;" horiz-adv-x="329" />
<glyph unicode="&#x2007;" horiz-adv-x="329" />
<glyph unicode="&#x2008;" horiz-adv-x="247" />
<glyph unicode="&#x2009;" horiz-adv-x="395" />
<glyph unicode="&#x200a;" horiz-adv-x="109" />
<glyph unicode="&#x2010;" horiz-adv-x="636" d="M80 408v124h477v-124h-477z" />
<glyph unicode="&#x2011;" horiz-adv-x="636" d="M80 408v124h477v-124h-477z" />
<glyph unicode="&#x2012;" horiz-adv-x="636" d="M80 408v124h477v-124h-477z" />
<glyph unicode="&#x2013;" horiz-adv-x="1142" d="M164 418v104h815v-104h-815z" />
<glyph unicode="&#x2014;" horiz-adv-x="2007" d="M217 418v104h1573v-104h-1573z" />
<glyph unicode="&#x2018;" horiz-adv-x="520" d="M90 1104q0 121 47 205t131 155q16 12 30.5 17.5t23.5 5.5q4 0 14 -4t10 -13q0 -14 -7 -26t-36 -41q-59 -61 -87 -123.5t-28 -122.5q0 -18 3.5 -31.5t15.5 -23.5q12 -6 51 -8q59 -4 88 -32t29 -75t-26.5 -76.5t-78.5 -29.5q-72 0 -126 58t-54 165z" />
<glyph unicode="&#x2019;" horiz-adv-x="417" d="M53 1380q0 43 28 75t87 32q78 0 126 -58.5t48 -162.5q0 -78 -20.5 -150t-67.5 -139q-35 -51 -63.5 -80t-45.5 -29q-4 0 -18 4.5t-14 16.5q0 10 4 20.5t26 38.5q47 63 68.5 117.5t21.5 128.5q0 33 -5 49.5t-9 24.5q-8 18 -37 18h-43q-37 0 -61.5 26.5t-24.5 67.5z" />
<glyph unicode="&#x201a;" horiz-adv-x="466" d="M88 113q0 43 27.5 74.5t87.5 31.5q78 0 126 -58.5t48 -162.5q0 -78 -20.5 -149.5t-67.5 -139.5q-35 -51 -63.5 -79.5t-45.5 -28.5q-4 0 -18.5 4t-14.5 16q0 10 4.5 20.5t26.5 39.5q47 63 68.5 117.5t21.5 127.5q0 33 -5 49.5t-9 24.5q-8 18 -37 18h-43q-37 0 -61.5 27 t-24.5 68z" />
<glyph unicode="&#x201c;" horiz-adv-x="913" d="M90 1104q0 121 47 205t131 155q16 12 30.5 17.5t23.5 5.5q4 0 14 -4t10 -13q0 -14 -7 -26t-36 -41q-59 -61 -87 -123.5t-28 -122.5q0 -18 3.5 -31.5t15.5 -23.5q12 -6 51 -8q59 -4 88 -32t29 -75t-26.5 -76.5t-78.5 -29.5q-72 0 -126 58t-54 165zM477 1104q0 121 47 205 t131 155q16 12 30.5 17.5t23.5 5.5q4 0 14 -4t10 -13q0 -14 -7 -26t-36 -41q-59 -61 -87 -123.5t-28 -122.5q0 -18 3.5 -31.5t15.5 -23.5q12 -6 51 -8q59 -4 88 -32t29 -75t-26.5 -76.5t-78.5 -29.5q-72 0 -126 58t-54 165z" />
<glyph unicode="&#x201d;" horiz-adv-x="806" d="M63 1380q0 43 28 75t87 32q78 0 126 -58.5t48 -162.5q0 -78 -20.5 -150t-67.5 -139q-35 -51 -63.5 -80t-44.5 -29q-4 0 -18.5 4.5t-14.5 16.5q0 10 4 20.5t27 38.5q47 63 68.5 117.5t21.5 128.5q0 33 -5.5 49.5t-9.5 24.5q-8 18 -36 18h-43q-37 0 -62 26.5t-25 67.5z M461 1380q0 43 27.5 75t86.5 32q78 0 126.5 -58.5t48.5 -162.5q0 -78 -20.5 -150t-67.5 -139q-35 -51 -64 -80t-45 -29q-4 0 -18.5 4.5t-14.5 16.5q0 10 4 20.5t27 38.5q47 63 68.5 117.5t21.5 128.5q0 33 -5 49.5t-9 24.5q-8 18 -37 18h-43q-37 0 -61.5 26.5t-24.5 67.5z " />
<glyph unicode="&#x201e;" horiz-adv-x="856" d="M88 106q0 43 27.5 75t87.5 32q78 0 126 -58.5t48 -162.5q0 -78 -20.5 -149.5t-67.5 -139.5q-35 -51 -63.5 -80t-45.5 -29q-4 0 -18.5 4.5t-14.5 16.5q0 10 4.5 20.5t26.5 38.5q47 63 68.5 117.5t21.5 128.5q0 33 -5 49.5t-9 24.5q-8 18 -37 18h-43q-37 0 -61.5 27 t-24.5 67zM485 106q0 43 28 75t87 32q78 0 126 -58.5t48 -162.5q0 -78 -20.5 -149.5t-67.5 -139.5q-35 -51 -63.5 -80t-44.5 -29q-4 0 -18.5 4.5t-14.5 16.5q0 10 4 20.5t26 38.5q47 63 69 117.5t22 128.5q0 33 -5.5 49.5t-9.5 24.5q-8 18 -37 18h-43q-37 0 -61.5 27 t-24.5 67z" />
<glyph unicode="&#x2022;" horiz-adv-x="843" d="M143 717q0 57 22.5 107t60.5 88t88.5 60.5t107.5 22.5t107.5 -22.5t88 -60.5t60 -88t22.5 -107t-22.5 -107.5t-60 -87.5t-88 -58.5t-107.5 -21.5t-107.5 21.5t-88.5 58.5t-60.5 87t-22.5 108z" />
<glyph unicode="&#x2026;" horiz-adv-x="2142" d="M238 102q0 57 36.5 87t94.5 30q55 0 81.5 -33t26.5 -80q0 -63 -33.5 -94.5t-87.5 -31.5q-53 0 -85.5 34.5t-32.5 87.5zM952 102q0 57 37 87t94 30q55 0 82 -33t27 -80q0 -63 -34 -94.5t-87 -31.5t-86 34.5t-33 87.5zM1667 102q0 57 36 87t93 30q55 0 82 -33t27 -80 q0 -63 -34 -94.5t-87 -31.5t-85 34.5t-32 87.5z" />
<glyph unicode="&#x202f;" horiz-adv-x="395" />
<glyph unicode="&#x2039;" horiz-adv-x="671" d="M127 469v23l45 36l117 113l125 125q27 27 42 37t23 10q16 0 21.5 -6.5t5.5 -22.5q0 -10 -10 -30l-88 -125l-121 -152l110 -133l92 -129q14 -25 15 -41q0 -16 -3 -23.5t-18 -7.5q-12 0 -24.5 6.5t-32.5 24.5l-102 109l-152 145z" />
<glyph unicode="&#x203a;" horiz-adv-x="671" d="M166 784q0 16 5 22.5t22 6.5q8 0 23 -10t42 -37l125 -125l117 -113l45 -36v-23l-45 -41l-152 -145l-102 -109q-20 -18 -32.5 -24.5t-25.5 -6.5q-14 0 -17 7.5t-3 23.5t14 41l92 129l111 133l-121 152l-88 125q-10 20 -10 30z" />
<glyph unicode="&#x205f;" horiz-adv-x="494" />
<glyph unicode="&#x20ac;" horiz-adv-x="1181" d="M51 545q0 23 9.5 29t37.5 6h140q-4 27 -4.5 49t-0.5 49v25.5t3 25.5h-138q-29 0 -38 6t-9 29t9.5 29t37.5 6h142q25 156 78 267.5t126.5 182t162.5 103t188 32.5q68 0 127 -19t102 -51t67.5 -74t24.5 -85t-20.5 -77t-73.5 -34q-43 0 -72.5 21.5t-29.5 62.5q0 31 3 50.5 t13 54.5q0 37 -47 61.5t-105 24.5q-74 0 -141.5 -41t-121.5 -111.5t-89 -165t-43 -202.5h485q29 0 37.5 -6.5t8.5 -28.5q0 -23 -8.5 -29t-37.5 -6h-489q-2 -16 -2 -31.5v-31.5v-43.5t2 -42.5h367q29 0 37 -6.5t8 -28.5q0 -23 -8.5 -29t-36.5 -6h-361q27 -215 119 -331 t238 -116q96 0 150 23t95 68q12 14 33 44.5t33 53.5q12 4 20 4q27 0 39 -25q0 -23 -35 -86q-53 -86 -143 -129t-192 -43q-117 0 -205 39t-149.5 110t-98.5 170t-51 218h-146q-29 0 -38 6t-9 29z" />
<glyph unicode="&#x2122;" horiz-adv-x="1640" d="M84 1290v162q0 20 22 21h66q14 0 73.5 -1.5t137.5 -1.5q109 0 180.5 2.5t91.5 2.5q25 0 31 -7q2 -4 2 -11v-13l-2 -164q-6 -10 -16 -10q-6 0 -19 6q-10 29 -21.5 52.5t-21.5 37.5q-18 25 -39.5 39t-66.5 18q-10 2 -26.5 2h-26.5l-3 -268v-73t3 -113q0 -27 6 -41.5 t18 -21.5t30.5 -10t43.5 -7q4 -6 7 -11.5t3 -9.5t-3 -9t-5 -9l-25 -2q-16 0 -37.5 1t-43 1t-39 1t-27.5 1h-24.5t-42 -1t-46 -1h-39.5l-6 6t-2 12q0 4 2 9.5t4 9.5q66 6 84.5 20.5t20.5 34.5q2 16 2 69.5v114.5v228v39.5t-4 29.5q-16 0 -47 -1t-41 -5q-37 -14 -64 -45 t-53 -86q-8 -8 -19 -8q-12 0 -18 10zM727 870q0 2 2 6.5t4 8.5q6 2 18.5 5t26 8t25.5 10t16 10q8 10 14.5 30.5t6.5 67.5l2 145l-2 170q0 37 -5.5 54.5t-23.5 27.5q-8 4 -30.5 9t-45.5 10q-8 8 -8 20q0 4 8 21q16 0 46 -1.5t61 -1.5h139q8 -6 14 -14l174 -409l29 71 q18 51 49 123t72 156q10 16 21.5 39.5t17.5 33.5l221 3q2 -4 6 -8.5t4 -8.5t-3 -10t-7 -10q-16 -4 -44 -8.5t-40 -30.5q-4 -8 -7 -21.5t-3 -50.5v-297q0 -41 4 -65.5t10 -38t12.5 -18.5t10.5 -7q4 -4 24.5 -7t34.5 -3q8 -9 8 -19t-3 -13t-5 -7h-233l-70 2q-2 4 -4 10t-2 10 t10 19q10 0 27.5 1t29.5 5q31 14 31 70v432l-117 -279q-10 -25 -21 -49t-22 -51q-23 -51 -35 -85t-16 -56q-4 -10 -12 -11.5t-12 -1.5q-8 0 -12.5 3t-8.5 16q-10 29 -18.5 47t-14.5 31l-190 442v-105l4 -286q2 -66 29.5 -96.5t76.5 -30.5q8 -8 9 -19q0 -8 -9 -18 q-2 0 -11 -1t-19 -1q-4 0 -35 2t-78 2q-14 0 -37.5 -1t-46.5 -1l-41 2q-2 4 -4 9t-2 9z" />
<glyph unicode="&#x25fc;" horiz-adv-x="911" d="M0 0v911h911v-911h-911z" />
<glyph unicode="&#xfb01;" horiz-adv-x="1093" d="M6 870q0 16 8 39h176q0 12 -1 33t-1 43.5t-1 44t-1 33.5q0 160 47 242q25 45 63 79.5t93 59.5q92 41 195 41q68 0 121 -13.5t102 -46.5q31 -20 48 -56t17 -77q0 -49 -28 -78q-25 -27 -76 -26q-45 0 -70 29q-16 23 -23 43t-7 49q0 4 1 15t3 30v8q0 57 -113 57 q-35 0 -67.5 -10t-47.5 -23q-27 -18 -59.5 -58t-40.5 -128q-4 -39 -6 -102.5t-2 -134.5v-56h182q96 0 187.5 3t181.5 20q14 -4 20 -7t17 -16q0 -10 -1 -28.5t-1 -38t-1 -39t-1 -29.5l-2 -113v-524q0 -27 7 -40t23.5 -21t44 -12.5t68.5 -10.5q8 -16 8 -26q0 -12 -12 -25 q-39 0 -70 1t-65 1q-43 0 -68 -1t-66 -1h-157q-8 16 -8 25q0 14 12 28q47 6 72.5 9.5t38 11.5t16.5 20t8 37v586q0 33 -1 64.5t-1 52.5h-428v-676q0 -39 10 -59.5t29.5 -29t47.5 -9.5t60 -5q10 -20 11 -24q0 -12 -11 -29q-23 0 -84 1t-133 1q-31 0 -53 -1t-47 -2t-53.5 -2 t-69.5 -1q-4 4 -6 12t-2 15q0 10 8 26q41 6 68.5 10.5t44 13.5t23.5 27.5t7 55.5v676h-178q-6 18 -6 36z" />
<glyph unicode="&#xfb02;" horiz-adv-x="1099" d="M4 868q0 16 8 39h176v25q0 72 2.5 126t6.5 89q4 47 14 85t27 68q55 94 157 142q45 23 92.5 34t100.5 11q70 0 141.5 -19.5t110.5 -37.5l57 38l23 -8v-129v-426l6 -760q0 -31 6 -47t21.5 -23t42 -10.5t69.5 -7.5q4 -10 7 -15t3 -11q0 -8 -3 -14.5t-7 -12.5h-209 q-66 0 -123 -2t-90 -2q-4 4 -7 10t-3 17q0 14 10 28q59 4 87 12.5t39 25t10 42t-1 62.5v389v52t-1 70.5t-1 71.5v54h-438l2 -676q0 -39 6 -58.5t23.5 -28t45 -10.5t70.5 -6q4 -10 7.5 -14t3.5 -8q0 -14 -11 -31h-39.5t-64.5 1t-78 1h-76q-31 0 -47 -1t-32.5 -1t-38 -1 t-62.5 -1q-4 4 -6 12t-2 15q0 10 8 26q45 10 72.5 15.5t43 12.5t21.5 24.5t6 52.5v676h-180q-6 18 -6 34zM332 907h444v336q-41 16 -59.5 38t-18.5 79q0 4 1 10t1 16q-2 6 -15 11.5t-23 11.5q-37 16 -84 16q-68 0 -112 -25.5t-73 -70.5q-23 -37 -35 -80t-18 -86t-7 -83 t-1 -74v-99z" />
</font>
</defs>
</svg>
