<?xml version="1.0" standalone="no"?>
<!DOCTYPE svg PUBLIC "-//W3C//DTD SVG 1.1//EN" "http://www.w3.org/Graphics/SVG/1.1/DTD/svg11.dtd" >
<svg xmlns="http://www.w3.org/2000/svg" xmlns:xlink="http://www.w3.org/1999/xlink" version="1.1">
<metadata></metadata>
<defs>
<font id="princetonmontidsositalic" horiz-adv-x="1003" >
<font-face units-per-em="2048" ascent="1516" descent="-532" />
<missing-glyph horiz-adv-x="528" />
<glyph horiz-adv-x="0" />
<glyph horiz-adv-x="682" />
<glyph unicode=" "  horiz-adv-x="528" />
<glyph unicode="&#x09;" horiz-adv-x="528" />
<glyph unicode="&#xa0;" horiz-adv-x="528" />
<glyph unicode="!" horiz-adv-x="645" d="M106 104q0 55 33 84t86 29q45 0 77 -28.5t32 -73.5q0 -53 -26.5 -89t-80.5 -36q-51 0 -86 31.5t-35 82.5zM262 412q14 70 29.5 132t30 125.5t27.5 132t26 150.5q14 98 24.5 169t20.5 124q16 88 51 118t72 30q53 0 72.5 -33t19.5 -82q0 -25 -6 -49q-6 -25 -14.5 -47.5 t-21.5 -55t-33.5 -82t-53.5 -129.5q-66 -160 -107 -287.5t-75 -226.5q-10 -4 -14.5 -8t-16.5 -4t-19.5 7t-11.5 16z" />
<glyph unicode="&#x22;" horiz-adv-x="835" d="M256 856q10 66 20.5 146.5t20.5 155.5t18.5 133.5t14.5 78.5q10 41 40.5 72t71.5 31q51 0 65.5 -30t12.5 -77q0 -20 -8 -51t-25 -70q-16 -39 -37.5 -88t-45 -103.5t-47 -108.5t-44.5 -103q-4 -10 -15 -14.5t-17 -4.5t-16.5 10.5t-8.5 22.5zM641 856q10 66 20.5 147.5 t20.5 157.5t18.5 135.5t14.5 79.5q10 41 40.5 69t71.5 28q51 0 65.5 -30t12.5 -77q0 -20 -7 -50t-26 -71q-16 -37 -37.5 -87t-45 -104.5t-47 -108.5t-44.5 -103q-4 -10 -15 -14.5t-17 -4.5t-16.5 10.5t-8.5 22.5z" />
<glyph unicode="#" horiz-adv-x="1515" d="M201 424l37 113h301l96 262h-305l39 112h305l155 453h76l-160 -453h281l156 453h75l-159 -453h301l-39 -112h-301l-96 -262h305l-37 -113h-303l-162 -463h-76l166 463h-281l-161 -463h-76l166 463h-303zM608 537h285l96 262h-284z" />
<glyph unicode="$" horiz-adv-x="1089" d="M70 303q0 55 22.5 84t63.5 29q35 0 47 -19.5t20 -91.5q4 -35 11.5 -70.5t24.5 -66.5t48 -54.5t78 -35.5l160 577q-129 59 -189.5 134t-60.5 184q0 82 31.5 150.5t87 118.5t131.5 78t164 28h20l43 161l43 21l33 -21l-45 -172q51 -10 91 -30.5t87 -55.5q94 -76 94 -170 q0 -43 -24.5 -71.5t-53.5 -28.5q-27 0 -46 8t-21 49t-7 78t-20.5 66.5t-43.5 51t-75 34.5l-139 -510q74 -31 123 -61.5t94 -75.5q88 -88 88 -234q0 -88 -36.5 -159.5t-99 -122t-146.5 -77t-181 -26.5h-43l-67 -252l-37 -29l-41 31l70 262q-129 27 -214 103t-85 186z M416 1020q0 -88 42 -138.5t124 -90.5l133 487h-33q-63 0 -113.5 -21.5t-84 -57.5t-51 -82t-17.5 -97zM457 66q10 0 22.5 -1.5t22.5 -1.5q74 0 131 26t98 68t62.5 97.5t21.5 114.5q0 82 -48 146.5t-159 107.5z" />
<glyph unicode="%" horiz-adv-x="1783" d="M164 809q0 104 41 208.5t131 201.5q72 76 158 113.5t161 37.5q96 0 193 -84q18 -14 30.5 -24.5t24.5 -16.5t28.5 -9t43.5 -3q72 0 126 7t102 25.5t94 50.5t100 79q23 16 35 20t28 4q18 0 23.5 -11t-0.5 -22l-965 -1439q-10 -16 -28.5 -26.5t-36.5 -10.5q-23 0 -33 11 t0 30l848 1261l-4 7q-55 -25 -117 -41.5t-117 -16.5q-35 0 -75 5t-66 10q-8 -88 -36 -170t-81 -168q-84 -131 -181 -193.5t-204 -62.5q-104 0 -163.5 58t-59.5 169zM299 778q0 -51 33 -87t82 -36q43 0 91 19.5t95 60.5t90 102.5t78 145.5q25 59 36 99.5t15 99.5 q-41 31 -83 62.5t-64 58.5q-25 0 -48.5 -9.5t-33.5 -19.5q-51 -33 -95 -80t-98 -125q-59 -86 -78.5 -155.5t-19.5 -135.5zM1012 172q0 72 26.5 145.5t73.5 149.5q35 53 80 100t97 82t108.5 55.5t111.5 20.5q113 0 168.5 -56.5t55.5 -150.5q0 -68 -23.5 -144.5t-65.5 -150 t-98.5 -136t-124.5 -99.5q-100 -57 -194 -58q-109 0 -162 65.5t-53 176.5zM1151 123q0 -53 31.5 -84t85.5 -31q70 0 140.5 50.5t126.5 125t92 160.5t36 156q0 59 -34 103t-93 44q-47 0 -106.5 -33.5t-118.5 -107.5q-90 -109 -125 -207t-35 -176z" />
<glyph unicode="&#x26;" horiz-adv-x="1804" d="M209 485q0 123 62.5 216.5t170.5 121.5q-109 53 -149.5 118t-40.5 165q0 80 29.5 148.5t80 118.5t116 79t134.5 29q90 0 153.5 -38t63.5 -97q0 -35 -19 -63t-65 -28q-43 0 -79.5 38t-36.5 98q0 6 2 15t2 15q0 4 -25 4q-39 0 -79 -23.5t-70.5 -66.5t-50 -101t-19.5 -128 q0 -63 10.5 -108.5t26.5 -76t35.5 -48t40.5 -25.5q16 2 47 4t47 2q47 0 75.5 -29.5t28.5 -76.5q0 -45 -26.5 -72t-73.5 -27q-41 0 -78 30t-49 77q-2 14 -20 14q-49 0 -92.5 -58.5t-43.5 -156.5q0 -88 35 -174t101 -139q78 -66 180 -105t229 -39q66 0 132.5 12.5t126 33 t107.5 47t79 55.5q78 74 116.5 172t38.5 188q0 143 -86 244q-78 82 -168 82q-49 0 -91 -13.5t-72.5 -35t-48 -48t-17.5 -55.5q0 -14 7 -27.5t15 -17.5q10 -6 26.5 -11t39.5 -11q72 -16 94.5 -40t22.5 -65t-27 -70.5t-80 -29.5q-37 0 -67.5 21.5t-51 56.5t-32 79t-11.5 87 q0 53 21.5 103t60.5 91t90.5 65.5t110.5 24.5q14 0 35.5 -2t50.5 -6q98 -14 173 -28.5t116 -14.5q131 0 185 62.5t54 156.5q0 66 -33.5 115t-111.5 90q-12 -51 -27.5 -83t-31 -47t-31.5 -20.5t-33 -5.5q-33 0 -57.5 25t-24.5 63q0 53 40 91t100 38q57 0 112 -27.5 t99.5 -72.5t72 -104.5t27.5 -122.5q0 -127 -75 -196.5t-204 -69.5q-57 0 -108 12t-107 31q-20 10 -26 10q-10 0 -11 -10q0 -8 21 -25q78 -59 107.5 -140t29.5 -192q0 -244 -160 -401q-203 -217 -544 -217q-207 0 -344.5 84t-217.5 215q-31 51 -48 113.5t-17 127.5z" />
<glyph unicode="'" horiz-adv-x="450" d="M256 856q10 66 20.5 146.5t20.5 155.5t18.5 133.5t14.5 78.5q10 41 40.5 72t71.5 31q51 0 65.5 -30t12.5 -77q0 -20 -8 -51t-25 -70q-16 -39 -37.5 -88t-45 -103.5t-47 -108.5t-44.5 -103q-4 -10 -15 -14.5t-17 -4.5t-16.5 10.5t-8.5 22.5z" />
<glyph unicode="(" horiz-adv-x="796" d="M184 369q0 129 26 248.5t73 232.5q72 174 203.5 329.5t324.5 284.5q29 16 41 25.5t16 9.5q20 0 29 -12q4 -8 8 -13.5t4 -9.5q0 -8 -26.5 -30.5t-57.5 -51.5q-102 -90 -180 -185t-133 -188.5t-91 -180.5t-56 -160q-16 -61 -26.5 -120t-16 -117t-7.5 -119.5t-2 -131.5 q0 -57 8.5 -120.5t20.5 -126t28.5 -122t32.5 -108.5q2 -6 4.5 -15.5t2.5 -13.5q0 -23 -39 -22q-20 0 -41 45q-35 76 -62.5 160t-46 171t-28 174t-9.5 167z" />
<glyph unicode=")" horiz-adv-x="796" d="M-113 -313q0 8 27 30.5t57 51.5q102 90 180 185t133.5 188.5t91.5 180.5t56 160q16 61 26.5 120t15.5 117t7 119.5t2 131.5q0 57 -8 120.5t-20.5 126t-28.5 122t-33 108.5q-2 6 -4 15.5t-2 13.5q0 23 39 22q20 0 41 -45q35 -76 62.5 -160t46 -171t27.5 -174t9 -167 q0 -129 -25.5 -248.5t-72.5 -232.5q-72 -174 -204 -329.5t-324 -284.5q-29 -16 -41.5 -25.5t-16.5 -9.5q-20 0 -28 12q-4 8 -8.5 13.5t-4.5 9.5z" />
<glyph unicode="*" horiz-adv-x="966" d="M334 1016q0 16 10 53q14 43 94 70q14 6 59.5 14t123.5 25l14 4l6 14q-47 18 -97 44t-104 65q-35 23 -50 51t-15 59q0 20 13 31.5t34 11.5q27 0 41 -4t24 -8q14 -8 37 -30.5t51 -63.5q14 -18 26.5 -40t29.5 -50q8 -14 14 -23.5t10 -13.5t7 -4l12 18l39 94q16 37 30.5 68 t26.5 57q16 33 76 33q33 0 45 -12q4 -4 6 -18.5t2 -30.5q0 -18 -5 -36t-22 -36q-18 -25 -49.5 -52.5t-72.5 -62.5q-12 -10 -26.5 -21.5t-31.5 -21.5l-4 -18q18 4 31.5 4h23.5q178 0 215 -15q25 -6 37 -36q4 -10 8.5 -19.5t4.5 -19.5t-6.5 -22.5t-22.5 -18.5 q-12 -6 -23.5 -10.5t-25.5 -4.5t-36 8.5t-50 22.5q-51 27 -87 45.5t-63 34.5l-6 -4q4 -12 18.5 -53t30.5 -103q12 -41 16.5 -66.5t4.5 -39.5q0 -27 -21 -54q-8 -10 -21.5 -16t-23.5 -6t-21.5 4t-23.5 16q-25 27 -24 68q0 23 3 57.5t7 72.5t9 73t7 55l-4 2q-18 -23 -50 -52.5 t-83 -64.5q-29 -20 -48.5 -32.5t-31.5 -16.5q-10 -4 -20.5 -5t-26.5 -1q-29 0 -40 9.5t-11 21.5z" />
<glyph unicode="+" horiz-adv-x="1556" d="M197 461v96h559v561h100v-561h561v-96h-561v-561h-100v561h-559z" />
<glyph unicode="," horiz-adv-x="528" d="M-66 -307q0 14 15 22q154 66 220.5 137.5t66.5 131.5q0 16 -9 22q-6 4 -20 9t-29.5 11.5t-30 12.5t-18.5 12q-33 31 -33 76q0 47 30 79t83 32q61 0 103 -49.5t42 -133.5q0 -104 -72.5 -198.5t-232.5 -159.5q-35 -16 -59.5 -21.5t-38.5 -5.5q-16 0 -17 23z" />
<glyph unicode="-" horiz-adv-x="692" d="M119 410v120h475v-120h-475z" />
<glyph unicode="." horiz-adv-x="528" d="M100 104q0 55 37 92t90 37q47 0 80 -28.5t33 -89.5t-38 -95t-93 -34q-53 0 -81 35.5t-28 82.5z" />
<glyph unicode="/" horiz-adv-x="974" d="M-98.5 -400.5q-12.5 13.5 4.5 38.5l1155 1796q18 27 42.5 38t45.5 11q27 0 37 -13.5t-6 -37.5l-1164 -1797q-35 -49 -79 -49q-23 0 -35.5 13.5z" />
<glyph unicode="0" horiz-adv-x="1089" d="M94 377q0 131 51.5 257t169.5 212q70 49 142.5 71.5t144.5 22.5q90 0 162 -29.5t122 -83t77.5 -129.5t27.5 -166q0 -131 -52 -250.5t-169 -203.5q-70 -49 -145.5 -76t-147.5 -27q-82 0 -152.5 28t-121.5 80t-80 126t-29 168zM236 309q0 -131 59 -202.5t166 -71.5 q86 0 157.5 51t123 134t80 186.5t28.5 207.5q0 55 -13.5 103.5t-41 84.5t-70.5 57.5t-102 21.5q-86 0 -158 -53.5t-122 -137.5t-78.5 -184t-28.5 -197z" />
<glyph unicode="1" horiz-adv-x="847" d="M-12 29q0 10 3 15t7 13q53 4 96 8.5t72 14.5q16 6 44 24.5t44 51.5q12 25 24.5 59.5t25.5 72.5t25.5 78t20.5 74l60 228q10 39 13 62.5t3 39.5q0 37 -22.5 54.5t-56.5 25.5t-76 9t-81 5q-2 6 -5 13.5t-3 11.5q0 8 4 16t9 13h51q23 0 57.5 -2.5t71.5 -3.5t72.5 -3t56.5 -2 q49 0 102 1t101.5 3t84 3t48.5 1q4 -6 7 -11t3 -15t-3 -15.5t-7 -13.5q-53 -4 -95.5 -8t-70.5 -14q-16 -6 -46 -23.5t-44 -52.5q-23 -51 -43.5 -121t-44.5 -160l-66 -231q-18 -70 -18 -103q0 -37 22.5 -55t56 -26.5t75.5 -10.5t81 -6q2 -6 5 -13t3 -11q0 -8 -4 -16.5 t-8 -12.5h-51q-20 0 -55 2t-72 4t-71 4t-56 2q-49 0 -105.5 -1t-105.5 -2t-85 -2t-44 -1q-4 6 -7 11t-3 16z" />
<glyph unicode="2" horiz-adv-x="1052" d="M6 33q0 6 2 14t4 12q14 10 29.5 19.5t38.5 19.5q96 47 218 116t251 155q74 51 121 93t72.5 79t34.5 71.5t9 67.5q0 63 -59 114.5t-172 51.5q-68 0 -126 -17.5t-101 -45t-69 -61.5t-28 -67q-4 -53 27 -81.5t78 -28.5q51 0 84 32.5t47 57.5q4 8 12 7t13 -1q14 0 15 -8 t1 -21q0 -25 -15.5 -55.5t-42 -57t-62.5 -45t-75 -18.5q-84 0 -120.5 49.5t-34.5 120.5q2 66 38.5 127.5t98 110.5t143.5 78.5t172 29.5q150 0 241 -70.5t91 -187.5q0 -102 -48 -168.5t-118 -113.5q-31 -20 -87 -53t-123.5 -70t-138.5 -72t-128 -61l-2 -11q6 0 21.5 2.5 t33 3.5t33.5 2t25 1q12 0 57 -1t98 -12q57 -10 95 -15t71 -5q61 0 88 20q18 14 41 49t43 82q4 8 9.5 9.5t15.5 1.5q24 0 24 -29q0 -20 -30 -92q-23 -55 -42.5 -87t-43.5 -67q-20 -31 -62 -31q-29 0 -81 5.5t-140 21.5q-74 12 -156 22.5t-168 10.5q-68 0 -115.5 -15.5 t-76.5 -15.5q-18 0 -24.5 7t-6.5 20z" />
<glyph unicode="3" horiz-adv-x="1028" d="M-61 -215q0 72 36.5 122t96.5 50q41 0 66.5 -23.5t25.5 -64.5q0 -45 -45 -105q-16 -23 -25.5 -37t-9.5 -30q0 -23 17.5 -40t46 -31.5t65.5 -21.5t78 -7q80 0 148.5 26.5t118.5 73.5t79 110.5t29 137.5q0 51 -19.5 95t-53.5 78t-80 55.5t-97 27.5q-20 4 -24.5 10t-4.5 16 q0 14 6 22.5t25 12.5q10 4 50 14.5t85 28.5q111 45 168 116t57 163q0 113 -62.5 185.5t-191.5 72.5q-61 0 -113.5 -16.5t-90 -46t-60 -68.5t-22.5 -84q0 -41 24.5 -77t71.5 -36q41 0 80 31q8 4 14 4h10t9.5 -6t5.5 -13q0 -14 -10.5 -32.5t-32.5 -36.5q-27 -23 -53.5 -34 t-67.5 -11q-66 0 -101.5 43t-35.5 114q0 72 36.5 138.5t98 119t140.5 84t163 31.5q68 0 127 -20.5t104 -60.5t71 -98t26 -132q0 -51 -15.5 -99.5t-53.5 -94.5t-100.5 -90t-154.5 -87q41 -14 82 -38.5t73.5 -61.5t54 -89t21.5 -124q0 -111 -73 -219q-63 -94 -178 -148.5 t-263 -54.5q-82 0 -150.5 21.5t-117.5 56.5t-76.5 82t-27.5 96z" />
<glyph unicode="4" horiz-adv-x="1038" d="M-43 53q0 10 4 23.5t19 34.5q10 16 35.5 43.5t62.5 68.5q59 68 153.5 159t200.5 185q61 53 114.5 98.5t86.5 73.5q92 78 143 128.5t76 78.5q10 12 24.5 16.5t26.5 4.5q10 0 19.5 -5.5t9.5 -21.5q0 -6 -4 -20.5t-13 -38.5q-20 -55 -46.5 -143.5t-55.5 -194t-58.5 -222 t-58.5 -229.5q59 0 115.5 4t101.5 15q16 4 24.5 4h12.5q18 0 24.5 -12t6.5 -37q0 -23 -16.5 -31t-59.5 -15q-86 -12 -136 -11t-93 1q-6 -18 -13.5 -44.5t-15.5 -57.5t-16 -63.5t-17 -63.5q-12 -49 -25.5 -97.5t-25.5 -101.5q-12 -57 -61 -45l-58 12q-23 6 -22 33v9.5t2 11.5 q29 100 53 184q23 72 42.5 140.5t25.5 92.5q-41 6 -106.5 12.5t-145.5 6.5q-43 0 -87 -5t-84 -11.5t-71 -11.5t-45 -5q-29 0 -39 13.5t-10 33.5zM74 98q53 6 116.5 15.5t135.5 9.5q51 0 111.5 -5t121.5 -16l39 136q31 109 58.5 213t48.5 172q6 20 17 52t15 44l-8 4 q-27 -23 -66.5 -57.5t-89.5 -75.5q-25 -23 -78 -68t-130 -123q-33 -33 -62 -59.5t-60.5 -58t-71.5 -74.5t-97 -109z" />
<glyph unicode="5" horiz-adv-x="892" d="M-121 -240q0 59 34 97.5t75 38.5q39 0 66.5 -26t27.5 -73q0 -23 -3 -48t-13 -54q-4 -6 -3.5 -11.5t0.5 -7.5q0 -10 13.5 -24t37 -26.5t56.5 -22t70 -9.5q74 0 140 35t115.5 96.5t79 143.5t29.5 174q0 72 -22.5 123t-59.5 83t-84 46t-96 14q-10 0 -31.5 -3t-47 -12 t-52.5 -25.5t-47 -43.5q-4 -6 -16.5 -12t-22.5 -6q-18 0 -24.5 8t-6.5 18t2 19l195 692h20q31 -12 97.5 -37.5t164.5 -50.5q47 -12 84 -18.5t56 -6.5q45 0 80 41q6 8 17 28t19 32q10 12 27 12q25 0 25 -29q0 -6 -5.5 -27.5t-17.5 -49.5q-20 -49 -36.5 -74t-33.5 -39 q-16 -10 -40.5 -17.5t-55.5 -7.5q-35 0 -93 13.5t-142 36.5q-49 14 -79 24t-48 19l-135 -463q41 27 95 52.5t130 25.5q154 0 242 -91.5t88 -250.5q0 -156 -80 -293q-59 -104 -172 -174t-260 -70q-74 0 -139.5 16.5t-115 47t-77 73.5t-27.5 94z" />
<glyph unicode="6" horiz-adv-x="1058" d="M96 434q0 129 32 255t97 247q55 98 123 181t142.5 141.5t155.5 91t161 32.5q104 0 170.5 -41.5t66.5 -119.5q0 -41 -23.5 -73t-76.5 -32q-51 0 -78.5 29t-27.5 74q0 10 3 28.5t3 26.5q0 23 -17.5 34t-40.5 11q-106 0 -210.5 -89t-182.5 -237q-23 -47 -49.5 -106.5 t-36.5 -95.5q53 35 136 66.5t167 31.5q78 0 142.5 -29t110.5 -81t73 -125.5t27 -164.5q0 -113 -40 -206t-106.5 -158.5t-152.5 -101t-181 -35.5q-84 0 -155.5 30.5t-122.5 88t-80 140.5t-29 187zM223 377q0 -68 16.5 -128.5t49.5 -104.5t79 -69.5t103 -25.5q106 0 184 67.5 t119 164.5q39 91 39 204q0 70 -17.5 130.5t-50 105.5t-80 70.5t-106.5 25.5q-41 0 -97 -14.5t-97 -42.5q-47 -33 -66 -58q-23 -29 -43 -84q-18 -53 -25.5 -114.5t-7.5 -126.5z" />
<glyph unicode="7" horiz-adv-x="966" d="M82 578q0 2 5 21t14.5 47t19.5 61.5t18 66.5q10 39 17.5 67.5t17.5 69.5q8 37 35 37q10 0 20.5 -5t18.5 -15q12 -10 45 -10q27 0 62.5 2t76.5 2q23 0 43.5 -1t50 -3.5t74.5 -7.5t119 -13q20 -4 44.5 -4h45.5q43 0 83 10t73 37q23 14 32 15t13 1q26 1 26 -22 q0 -14 -35 -66q-16 -23 -70 -97.5t-149 -209.5q-94 -133 -165.5 -235.5t-108.5 -169.5q-35 -63 -81 -146.5t-69 -187.5q-27 -117 -38 -186.5t-27 -92.5q-20 -33 -74 -32q-43 0 -60.5 27.5t-17.5 72.5q0 59 40 165.5t112 219.5q49 78 111.5 162t111.5 151q98 133 187.5 256 t152.5 211q-16 -2 -31.5 -3t-25.5 -1q-39 0 -85 4t-93.5 9.5t-93.5 9.5t-85 4q-61 0 -113.5 -9.5t-80.5 -19.5q-12 -4 -22.5 -15.5t-18.5 -23.5q-6 -8 -13.5 -27.5t-15.5 -42t-16 -46t-17 -40.5q-4 -8 -10 -13t-22 -5q-14 0 -22.5 7t-8.5 14z" />
<glyph unicode="8" horiz-adv-x="1015" d="M78 328q0 74 30.5 139t83 117.5t123 87.5t152.5 49q-109 76 -155 142.5t-46 144.5q0 84 32 153.5t87 118.5t129 76.5t158 27.5q74 0 139.5 -21.5t114.5 -62t77.5 -97t28.5 -128.5q0 -121 -87 -220t-236 -138q41 -31 78.5 -63.5t67.5 -71.5t48.5 -85t18.5 -106 q0 -98 -36 -175t-95.5 -128t-139.5 -77.5t-170 -26.5q-88 0 -161.5 25.5t-128 70.5t-84 108.5t-29.5 139.5zM213 295q0 -57 20.5 -103.5t53 -79t77 -51t89.5 -18.5q61 0 120.5 24.5t104.5 69.5t72.5 109.5t27.5 142.5q0 57 -24.5 105.5t-61.5 80.5q-25 23 -56.5 42.5 t-55.5 33.5l-45 23q-66 -8 -124.5 -42t-102.5 -84t-69.5 -115.5t-25.5 -137.5zM406 1028q0 -86 43 -142.5t137 -105.5q18 -10 37.5 -17t29.5 -9q49 27 95.5 58.5t80 71.5t54 88t20.5 107q0 113 -61.5 179.5t-155.5 66.5q-57 0 -108.5 -22.5t-89 -62.5t-60 -94t-22.5 -118z " />
<glyph unicode="9" horiz-adv-x="1036" d="M2 -272q0 51 29.5 78.5t70.5 27.5q43 0 75 -33.5t32 -76.5q0 -2 -1 -12.5t-1 -24t-1 -25.5t-1 -20q0 -27 22.5 -41.5t59.5 -14.5q55 0 112.5 37t111.5 97.5t99 135t76 148.5q14 35 26.5 76t20.5 65q-20 -12 -54 -29.5t-75 -32.5t-87 -26.5t-93 -11.5q-166 0 -248 97.5 t-82 271.5q0 113 33 203t109 176q59 66 146 107.5t177 41.5q82 0 151.5 -31.5t120 -91t79 -145t28.5 -189.5q0 -102 -21.5 -214.5t-64.5 -213.5q-111 -254 -259.5 -391t-334.5 -137q-61 0 -109.5 17.5t-80 45t-49 63.5t-17.5 73zM238 420q0 -68 17 -123t47 -95t69 -61.5 t82 -21.5q78 0 159.5 28.5t159.5 106.5q10 27 15.5 50.5t11.5 53.5q12 59 14 115.5t2 99.5q0 90 -38 171t-115 118q-45 20 -89 21q-68 0 -132 -38t-119 -122q-43 -63 -63.5 -144t-20.5 -159z" />
<glyph unicode=":" horiz-adv-x="655" d="M150 109q0 55 36.5 92t89.5 37q47 0 80 -29t33 -90t-38 -95t-93 -34q-53 0 -80.5 35.5t-27.5 83.5zM311 735q0 55 37 92t90 37q47 0 80 -29t33 -90t-38 -95t-93 -34q-53 0 -81 36t-28 83z" />
<glyph unicode=";" horiz-adv-x="655" d="M10 -246q0 16 15 21q55 27 103 57.5t77 61.5q33 35 46 62.5t13 47.5q0 16 -28 25q-47 12 -64.5 36.5t-17.5 59.5q0 55 32.5 84t79.5 29q53 0 90 -39t37 -109q0 -98 -69.5 -188t-206.5 -146q-29 -12 -52.5 -18t-37.5 -6q-16 0 -17 22zM311 735q0 55 37 92t90 37 q47 0 80 -29t33 -90t-38 -95t-93 -34q-53 0 -81 36t-28 83z" />
<glyph unicode="&#x3c;" horiz-adv-x="1556" d="M219 457v104l1161 479v-114l-1028 -416l1028 -418v-115z" />
<glyph unicode="=" horiz-adv-x="1556" d="M184 283v96h1188v-96h-1188zM184 639v96h1188v-96h-1188z" />
<glyph unicode="&#x3e;" horiz-adv-x="1556" d="M233 -23v115l1029 418l-1029 416v114l1162 -481v-100z" />
<glyph unicode="?" horiz-adv-x="872" d="M199 104q0 55 32.5 84t85.5 29q45 0 77 -28.5t32 -73.5q0 -53 -26.5 -89t-80.5 -36q-51 0 -85.5 31.5t-34.5 82.5zM258 522q0 76 39 126t104 102q117 88 201 158.5t133 138.5q41 53 53.5 103t12.5 103q0 72 -51.5 118t-128.5 46q-72 0 -119 -26.5t-47 -61.5q0 -20 26 -35 q41 -23 53.5 -49t12.5 -45q0 -43 -27.5 -66.5t-73.5 -23.5q-63 0 -92.5 40t-29.5 95q0 45 19 87t55 75t86.5 52.5t111.5 19.5q72 0 132 -18.5t104.5 -56.5t69 -94t24.5 -130q0 -117 -68 -209q-55 -74 -150.5 -136.5t-211.5 -119.5q-164 -82 -164 -170q0 -47 26.5 -71.5 t61.5 -24.5q33 0 54.5 14t37.5 30.5t32.5 31t39.5 14.5q29 0 45 -15.5t16 -40.5q0 -31 -9 -46t-26 -27q-33 -23 -75.5 -36.5t-96.5 -13.5q-78 0 -129 46.5t-51 115.5z" />
<glyph unicode="@" horiz-adv-x="2072" d="M211 440q0 176 78 345t214 302.5t320.5 215t399.5 81.5q164 0 289.5 -46t211.5 -128t130 -190.5t44 -235.5q0 -141 -53 -270t-139 -227.5t-194.5 -156.5t-221.5 -58q-29 0 -54.5 14t-39.5 37q-16 27 -16 67.5v85.5q-23 -35 -52.5 -70.5t-66.5 -65t-82 -48t-100 -18.5 q-102 0 -157.5 71.5t-55.5 171.5q0 156 96 320q51 86 111.5 148.5t138.5 111.5q49 29 94 44t86 15q76 0 112.5 -30.5t59.5 -73.5l18 55q4 16 9.5 25.5t19.5 15.5q10 4 30.5 6t45.5 2q29 0 29 -12q0 -4 -2.5 -14t-4.5 -17l-151 -440q-23 -63 -38 -131t-15 -104q0 -80 55 -80 q78 0 157.5 54t145.5 143t107.5 203t41.5 230q0 111 -44 205t-119.5 163t-178 106.5t-221.5 37.5q-207 0 -372.5 -74.5t-281.5 -199.5t-178.5 -284.5t-62.5 -329.5t56.5 -302.5t152.5 -223.5t225.5 -138t274.5 -47t259 26.5t203 72.5t158.5 105.5t128.5 125.5q12 12 26.5 11 t24 -10t10.5 -23.5t-11 -26.5q-76 -82 -159 -148.5t-181.5 -114t-216 -73t-265.5 -25.5q-145 0 -292.5 49t-267.5 150.5t-194.5 255t-74.5 364.5zM811 291q0 -66 34 -97.5t87 -31.5q66 0 127 54t131 200q35 72 59.5 145.5t44.5 165.5q4 20 8.5 37t4.5 35q0 43 -34 69.5 t-83 26.5q-47 0 -104.5 -39t-112.5 -121q-33 -47 -66 -106.5t-57 -128.5q-23 -66 -31 -117t-8 -92z" />
<glyph unicode="A" horiz-adv-x="1409" d="M-96 23q0 16 8 30q86 6 139 38t82 69q29 35 56.5 81t50.5 87q57 117 118.5 236.5t124.5 242.5q31 59 67 125.5t72.5 134.5t71.5 132.5t62 115.5l49 37l104 139q6 6 27 6q4 0 11 -2t9 -8q4 -20 9.5 -55t7.5 -58q2 -33 20.5 -148.5t46.5 -318.5q16 -106 31.5 -212.5 t32 -207t32 -189.5t29.5 -159q6 -29 21.5 -44t38 -22t54.5 -11.5t71 -8.5q2 -6 5 -13t3 -11q0 -8 -4 -16.5t-8 -12.5h-52q-20 0 -50 1t-60.5 2t-59 2t-51.5 1q-98 0 -175 -3t-93 -3q-4 6 -7 11t-3 16q0 10 3 15t7 13q18 2 45 6.5t53.5 7.5t49 7t32.5 6v53q0 35 -4 78t-10 90 q-16 109 -24.5 167t-14.5 89h-457l-41 -10q-20 -37 -127 -273q-33 -76 -33 -114q0 -33 12.5 -53.5t35 -30.5t54.5 -15.5t73 -9.5q2 -6 5 -13t3 -11q0 -8 -4 -16.5t-9 -12.5h-51q-20 0 -50 1t-61.5 3t-60 3t-51.5 1q-98 0 -170 -4t-88 -4l-6 9t-2 14zM479 639q33 -4 83 -7 t110 -3q78 0 140 1t103 7q-6 55 -16 142t-27 188q-20 133 -30.5 193.5t-14.5 78.5q-4 8 -5 16.5t-9 8.5t-14 -13.5t-13 -23.5q-16 -29 -47.5 -86.5t-71.5 -136t-88.5 -172t-99.5 -193.5z" />
<glyph unicode="B" horiz-adv-x="1308" d="M-88 18q0 16 8 31q57 4 95 11.5t67 30t51.5 66.5t46.5 124q8 29 34 117.5t62.5 215.5t79.5 284t88 323q4 20 13.5 55t9.5 57q0 31 -12.5 49.5t-44.5 30.5q-6 2 -28 4t-46.5 4t-47 3t-32.5 1q-4 16 -4 25q0 20 8 29h53q20 0 51 -2t66 -4.5t72 -4.5t67 -2q78 0 146.5 3.5 t132.5 3.5q207 0 319 -87q105 -88 105 -233q0 -86 -35 -151.5t-100 -114.5q-68 -49 -149 -69.5t-202 -37.5q80 -23 137.5 -45t102.5 -53q147 -102 148 -272q0 -119 -57.5 -220.5t-168.5 -150.5q-47 -20 -126 -31.5t-191 -11.5q-18 0 -67.5 1t-109 2l-119 2t-99.5 1 q-47 0 -99.5 -1t-97.5 -2t-78 -2t-41 -1l-6 9t-2 13zM326 186q0 -25 8 -52.5t37 -45.5q23 -16 67.5 -24.5t96.5 -8.5q119 0 203.5 28t133.5 79q55 59 88 136t33 155q0 88 -49 157q-14 23 -46 49.5t-79 49.5q-63 33 -124.5 44t-143.5 11q-20 0 -39.5 -1t-38.5 -3l-127 -467 q-8 -27 -14 -59.5t-6 -47.5zM492 836l42.5 -8.5t47.5 -4.5q117 0 208 16.5t148 55.5q168 109 168 289q0 66 -28.5 111.5t-82.5 76.5q-68 39 -213 39q-23 0 -58.5 -2t-59.5 -6z" />
<glyph unicode="C" horiz-adv-x="1355" d="M94 514q0 139 36 268t101 252q53 98 129 183.5t167 146.5t193.5 96t207.5 35q66 0 116 -13.5t92 -34t75.5 -46t66.5 -51.5q27 25 53.5 49t48.5 45q6 6 23 6q20 0 20 -16q0 -4 -2 -15.5t-6 -21.5l-112 -398q-2 -8 -8.5 -11t-12.5 -3q-20 0 -25 12q-2 10 -6 39t-7 64 t-7 67.5t-6 51.5q-6 45 -33 83.5t-67.5 66.5t-92 44.5t-106.5 16.5q-98 0 -190.5 -46.5t-172.5 -132.5t-144.5 -207.5t-107.5 -275.5q-33 -111 -44 -206t-11 -185q0 -156 84 -248t238 -92q59 0 113.5 15.5t113.5 45.5q59 31 144 117t169 197q6 8 27 8q18 0 18 -14 q2 -4 0 -11q-2 -4 -3 -10t-5 -16l-129 -414q-4 -14 -22 -14q-23 0 -25 10q-12 35 -25.5 75t-29.5 58q-31 -16 -67 -36.5t-80 -38t-97 -29t-115 -11.5q-92 0 -178 34t-152.5 101.5t-106.5 170t-40 239.5z" />
<glyph unicode="D" horiz-adv-x="1533" d="M-82 23q0 16 8 30q115 10 169.5 53.5t76.5 126.5l281 1033q4 10 10 39.5t6 46.5q0 31 -29 49q-6 4 -30.5 8t-53 7t-54.5 4t-36 1q-4 16 -4 25q0 20 8 29h54q18 0 54 -1t72.5 -1t67.5 -1.5t39 -1.5q10 0 41 1.5t69 2.5t77.5 2t68.5 1q125 0 222.5 -18.5t173 -55.5 t133 -94.5t100.5 -134.5q39 -70 57.5 -150t18.5 -166q0 -113 -27 -219.5t-74 -208.5q-29 -61 -86 -134t-127 -126q-49 -37 -105.5 -68.5t-126 -55t-155.5 -37t-194 -13.5q-29 0 -121 2t-232 4h-117.5h-105.5t-80 -1t-41 -1l-6 9t-2 14zM330 209q0 -33 20.5 -70t67.5 -59 q23 -10 63.5 -17.5t81.5 -7.5q217 0 387 98.5t279 315.5q112 229 112 473q0 78 -17 144.5t-52 113.5q-78 109 -189.5 162t-289.5 53q-47 0 -83 -4t-48 -14q-16 -10 -29 -58l-289 -1060q-4 -12 -9 -33t-5 -37z" />
<glyph unicode="E" horiz-adv-x="1325" d="M-90 18q0 16 8 31q57 4 97 14.5t68 31t47.5 53t33.5 81.5l280 985q12 45 17 86q-2 37 -27 82q-6 10 -30.5 17.5t-57.5 9.5q-35 2 -57.5 2t-28.5 2q-4 2 -6 10.5t-2 16.5q0 20 10 24q8 4 21.5 3t40.5 -1q18 0 82.5 -2t132.5 -2q49 0 99 2t108.5 3t130 3.5t159.5 2.5 q111 0 180.5 -1.5t77.5 -5.5t10.5 -11t2.5 -17l2 -314q0 -6 -5.5 -12t-21.5 -6q-18 0 -25 8q-4 6 -10 23.5t-13 37t-13.5 40t-12.5 32.5q-25 55 -61.5 96t-77.5 54q-16 4 -51 7q-21 2 -45 2q-16 0 -33 -1l-266 -6q-6 -14 -15.5 -36t-17.5 -46.5t-16.5 -48t-14.5 -43.5 l-121 -410q35 -4 92.5 -8t98.5 -4q76 0 118 16.5t81 59.5q4 6 15 21t23.5 33.5t25.5 37t22 33.5q6 8 26 8q23 0 23 -15q0 -10 -16.5 -59t-45.5 -121l-20 -57.5t-25.5 -76.5t-27 -88t-25.5 -91q-2 -12 -29 -12q-10 0 -17 6t-7 10q0 33 7 78t7 65q0 33 -11 47.5t-34 28.5 q-6 4 -30.5 7t-55.5 5l-215 6l-94 -348q-14 -53 -22.5 -103t-8.5 -81q0 -86 66.5 -119t207.5 -33q104 0 188.5 13.5t137.5 44.5q31 18 59.5 39.5t56 54.5t57.5 78t65 112q2 6 10 9.5t18 3.5q16 0 21.5 -7.5t3.5 -11.5l-86 -366q-6 -25 -25 -27q-10 -2 -39.5 -3t-72.5 -1 q-45 0 -172 2t-295 2q-195 0 -356.5 -1t-270.5 -7l-6 9t-2 13z" />
<glyph unicode="F" horiz-adv-x="1185" d="M-88 18q0 16 8 31q57 4 97 13.5t68 30t47.5 53t33.5 85.5l278 979l15 95q0 47 -7.5 70.5t-21.5 27.5q-14 6 -41 9t-52.5 5t-48 3t-32.5 1q-4 16 -4 25q0 20 8 29h47q10 0 37 -1t60.5 -3.5t72.5 -3.5t76 -1q41 0 71.5 1t59.5 1t59.5 1t69.5 1h92.5t149.5 -2q55 0 104 -1 t92 -1q39 0 48.5 -14t9.5 -51q0 -63 -9.5 -152.5t-27.5 -165.5q0 -2 -4 -7t-19 -5q-12 0 -21 4t-9 10q-8 92 -35 168t-62 117q-20 27 -53 33q-16 4 -70.5 4h-130.5h-127t-57 -2q-16 -4 -22.5 -10t-16.5 -35l-160 -551q18 -4 65.5 -8t96.5 -4q55 0 95 9t83 56q23 29 50.5 70 t44.5 69q2 10 26 11q12 0 18.5 -6.5t6.5 -10.5q0 -8 -12.5 -54t-34.5 -124q-31 -104 -46.5 -165.5t-23.5 -95.5t-11 -46t-7 -18q-4 -8 -11.5 -10.5t-17.5 -2.5q-20 0 -24.5 7.5t-4.5 17.5q0 27 8.5 58.5t8.5 55.5q0 29 -20.5 63t-67.5 44q-8 2 -39 4t-70 4t-76 4t-55 2 l-129 -485q-10 -35 -10 -80q0 -33 19.5 -56.5t50 -39t68.5 -23.5t75 -8q2 -6 5 -12t3 -10q0 -8 -4 -16.5t-8 -12.5h-52q-20 0 -53 1t-68.5 3t-67.5 3t-54 1q-47 0 -100.5 -1t-100.5 -3t-80 -3t-41 -1l-6 9t-2 13z" />
<glyph unicode="G" horiz-adv-x="1470" d="M100 582q0 127 34 245.5t99 231.5q59 102 136 183t165.5 137.5t184.5 86t192 29.5q109 0 196 -30.5t157 -114.5q20 -27 41 -27q14 0 37.5 25.5t50.5 70.5q6 8 26 8q16 0 19.5 -9t3.5 -13q0 -10 -8.5 -36t-24.5 -60q-12 -27 -23.5 -63t-20.5 -76t-16.5 -78.5t-13.5 -71.5 q-2 -8 -10 -12t-16 -4q-16 0 -21.5 6t-7.5 16q-2 33 -9 67.5t-15.5 67.5t-17.5 59.5t-19 43.5q-37 66 -103.5 116t-169.5 50q-135 0 -237.5 -66t-198.5 -182q-111 -135 -169 -305t-58 -357q0 -104 24.5 -193t73.5 -153.5t120.5 -101.5t166.5 -37q53 0 114.5 15.5t118.5 43 t104.5 68.5t71.5 92q18 41 29.5 94t11.5 78q0 41 -2 76t-16 49q-12 12 -43 23.5t-66 19.5t-65.5 13t-40.5 5q-4 16 -4 21q0 8 2 17t6 14h53q68 0 137.5 -9.5t112.5 -9.5h70t96 1t89 1h48q4 -6 7 -9t3 -13q0 -16 -10 -33q-117 -14 -164 -56t-65 -126q-10 -45 -12.5 -87 t-2.5 -71q0 -20 3 -46t8 -50q-4 -2 -36 -6.5t-85 -12.5q-27 -4 -69 -26.5t-93 -51.5q-102 -55 -184 -73.5t-174 -18.5q-106 0 -201.5 45t-166.5 126t-112 194.5t-41 249.5z" />
<glyph unicode="H" horiz-adv-x="1556" d="M-88 18q0 16 8 31q57 4 97 13.5t68 29t47.5 53t33.5 86.5q4 16 16.5 59.5t28.5 98.5t33.5 117.5t35 120t31 105.5t19.5 73q10 37 31.5 112.5t44 156.5t40 148.5t17.5 88.5q0 25 -17.5 50t-31.5 34q-6 4 -26.5 6t-46.5 3t-48.5 2t-32.5 1q-4 16 -4 27q0 18 8 26h271 q23 0 71.5 2t102 4t96.5 5t51 2q4 -6 7 -9.5t3 -13.5q0 -14 -10 -31q-57 -4 -97 -15t-67.5 -30.5t-45 -47.5t-30.5 -66q-14 -45 -32.5 -112t-44.5 -159l-45 -158q59 -2 140 -4t193 -2q147 0 238.5 1t132.5 1l96 324q12 41 20.5 83t8.5 64q0 25 -9 44.5t-21.5 33t-25 22.5 t-16.5 11t-21.5 4t-39 4t-41 3t-29.5 1q-4 16 -4 25q0 20 8 29h54q68 0 145.5 -4.5t120.5 -4.5q23 0 65.5 1t87.5 2t82 2.5t45 1.5q4 -6 7.5 -9.5t3.5 -13.5q0 -14 -11 -31q-57 -4 -96 -15t-65.5 -29.5t-44 -46.5t-29.5 -68q-12 -39 -27.5 -95.5t-34 -122t-39 -136 t-42.5 -142.5q-12 -45 -30 -104.5t-35 -123t-34.5 -126t-32.5 -115.5q-16 -57 -25 -95t-9 -46q0 -18 14 -44t31 -36q6 -4 28.5 -8.5t48 -7.5t50 -6t37.5 -3q2 -6 5 -13t3 -11q0 -8 -4 -16.5t-9 -12.5h-51q-20 0 -52 1t-64.5 3t-63.5 3t-53 1q-49 0 -101.5 -1t-98.5 -3 t-77.5 -3t-40.5 -1l-6 9t-2 13q0 16 8 31q57 4 96.5 15.5t68 34t48 57t35.5 86.5q12 41 28.5 97t41.5 136l84 279h-711q-10 -31 -24.5 -80t-28.5 -102.5t-27.5 -103.5t-19.5 -83q-14 -63 -27.5 -129t-13.5 -111q14 -41 66.5 -67.5t127.5 -28.5q2 -6 5.5 -13t3.5 -11 q0 -8 -4.5 -16.5t-8.5 -12.5h-51q-43 0 -107.5 4t-107.5 4q-49 0 -104.5 -1t-104.5 -3t-84 -3t-43 -1l-6 9t-2 13z" />
<glyph unicode="I" horiz-adv-x="700" d="M-84 18q0 18 8 33q57 4 93 10.5t63 16.5q6 4 17.5 15t23.5 26.5t22.5 32t14.5 30.5q4 18 17 63.5t30.5 107t38 130t38 132t33 115.5t21.5 77q10 37 31.5 112.5t44 155.5t40 147.5t17.5 88.5q0 25 -17.5 53.5t-31.5 36.5q-6 4 -27.5 6t-47.5 3t-48.5 2t-32.5 1 q-4 16 -4 25q0 20 8 28h54q68 0 136 -1t111 -1q23 0 68 1t92 3t85 3.5t46 1.5q4 -6 7 -9.5t3 -13.5q0 -14 -10 -31q-57 -4 -96 -15t-66.5 -31.5t-45 -48.5t-29.5 -67q-6 -23 -21.5 -76t-36 -123.5t-42 -149.5t-42.5 -152q-29 -109 -57.5 -207t-44.5 -164q-6 -27 -14.5 -62.5 t-15.5 -70.5t-11 -63.5t-4 -43.5q0 -31 16.5 -49t44 -28.5t63.5 -14.5t72 -4q2 -6 5.5 -13t3.5 -11q0 -8 -4.5 -16.5t-8.5 -12.5h-51q-43 0 -106.5 4t-106.5 4q-49 0 -104.5 -1t-104.5 -3t-85 -3t-44 -1l-6 9t-2 13z" />
<glyph unicode="J" horiz-adv-x="944" d="M2 168q0 68 37 111t90 43q43 0 71.5 -25t28.5 -74q0 -29 -12 -57.5t-41 -54.5q-33 -25 -33 -50q0 -29 31 -48t72 -19q59 0 104 41t68 112q6 18 20.5 70.5t40.5 159.5l185 735q27 104 36 150.5t9 56.5q0 31 -15.5 51.5t-38.5 30.5q-6 4 -27.5 7t-47 5t-48 4t-32.5 2 q-4 16 -4 25q0 20 8 29h57q68 0 132.5 -2.5t107.5 -2.5q23 0 67.5 2.5t93 4.5t87 4t47.5 2q4 -6 7 -9.5t3 -13.5q0 -14 -10 -31q-113 -8 -163 -48t-69 -113l-272 -1080q-10 -35 -31.5 -77.5t-75.5 -83.5q-63 -45 -118.5 -66.5t-110.5 -21.5q-111 0 -182.5 60t-71.5 171z" />
<glyph unicode="K" horiz-adv-x="1431" d="M-88 14q0 18 8 33q57 6 95 14.5t63.5 28t44 54t37.5 92.5l114 362l172 627q12 43 13 84q0 41 -15.5 62.5t-29.5 29.5q-6 4 -26.5 6t-46.5 5t-48.5 4t-32.5 1q-4 16 -4 25q0 20 8 28h256q23 0 75 2.5t107.5 4.5t100.5 4t53 2q4 -6 7 -9.5t3 -13.5q0 -16 -10 -33 q-113 -8 -162 -43.5t-71 -113.5l-131 -443q18 -6 47 -6q35 0 75.5 8.5t71.5 30.5q47 33 97.5 74t101.5 85t99 89t87 86q55 53 88 92t33 57q0 12 -11.5 37t-25.5 31q-2 0 -20.5 2t-42 4t-45 4t-31.5 2q-2 6 -2 13.5v11.5q0 20 8 29h33q6 0 38.5 -2t73.5 -3.5t81 -3.5t63 -2 q12 0 48 1t76 1t72.5 1t40.5 1q4 -6 8.5 -10t4.5 -14t-5.5 -14.5t-9.5 -12.5q-39 -2 -76.5 -13t-67.5 -24.5t-50.5 -28t-28.5 -22.5l-336 -317q-23 -20 -59.5 -52t-75.5 -63t-76 -58.5t-61 -41.5l305 -512q96 -164 178 -207q8 -4 54 -16.5t110 -16.5q2 -6 5 -12t3 -10 q0 -8 -4 -16.5t-8 -12.5h-51q-20 0 -52 1t-66 2t-65.5 2t-54.5 1q-43 0 -83 -3l-80 -6t-83 -6t-94 -3q-4 4 -7 10t-3 16t3 14.5t7 12.5q59 8 97 12t60.5 11.5t32 19.5t9.5 37q0 10 -6.5 24.5t-14.5 28.5l-295 502q-31 47 -56.5 65.5t-51.5 18.5q-25 0 -33 -18.5t-18 -53.5 l-127 -489q-4 -10 -6.5 -24.5t-2.5 -31.5q0 -18 16.5 -34.5t43 -29t62.5 -20.5t73 -8q2 -6 5 -12t3 -10q0 -8 -4 -16.5t-8 -12.5h-51q-20 0 -52 1t-66 3t-64.5 3t-53.5 1q-49 0 -99 -2t-92 -4t-72 -4t-38 -2l-6 9t-2 13z" />
<glyph unicode="L" horiz-adv-x="1292" d="M-88 18q0 16 8 31q57 4 96 13.5t67 29t47.5 53t35.5 88.5l270 945q10 41 18.5 75.5t8.5 59.5q0 35 -14.5 58.5t-34.5 33.5q-8 4 -30 6t-46.5 4t-46 3t-31.5 1q-4 16 -4 23q0 8 2 17t6 14h53q35 0 73 -1.5t73 -2.5t60.5 -2t33.5 -1t41 1t77 2t95 2.5t98 1.5q4 -6 7.5 -9.5 t3.5 -13.5q0 -14 -11 -31q-23 -2 -49 -7t-51 -10t-44 -12.5t-26 -13.5q-14 -14 -33.5 -48t-38 -79t-37 -98t-34.5 -109l-229 -829q4 -37 17 -66.5t43 -49t81 -30t129 -10.5q98 0 164.5 8.5t115 26t84 44t74.5 61.5q41 39 74 88t68 114q6 14 24 15q14 0 23.5 -7.5t5.5 -17.5 l-86 -373q-4 -12 -21.5 -16t-79.5 -4l-442 4q-43 0 -100.5 1t-111.5 1t-96 1t-52 1q-49 0 -101.5 -1t-98.5 -3t-79 -3t-41 -1l-6 9t-2 13z" />
<glyph unicode="M" horiz-adv-x="1808" d="M-117 16q0 14 8 29q59 6 99.5 15.5t68 27.5t46 50t36.5 83l361 1073q4 16 4 31q0 25 -14.5 48.5t-34.5 33.5q-6 4 -27.5 6t-46.5 4t-46.5 3t-31.5 1q-4 16 -4 25q0 20 8 29h53q35 0 83.5 -1t101.5 -2.5t106.5 -2.5t96.5 -1q12 0 21 -4t14.5 -20.5t7.5 -49t4 -89.5 l24 -1029l709 1131q12 20 20.5 32.5t20.5 18.5t30.5 8t49.5 2q16 0 51 1t80 3t95 2.5t95 2.5q4 -6 8.5 -12.5t4.5 -12.5q0 -10 -4.5 -15t-8.5 -14q-43 -2 -81 -10t-52 -16q-41 -25 -64.5 -61t-43.5 -107l-211 -760q-12 -49 -24.5 -98t-21 -92t-13.5 -76t-5 -49q0 -57 43 -82 q6 -2 25.5 -6.5t43 -7.5t46 -5t35.5 -2q2 -6 5 -12t3 -10q0 -8 -4 -16.5t-8 -12.5h-54q-20 0 -50 1t-59.5 1t-58 1t-51.5 1h-91t-85 -1t-89 -2t-99 -1q-4 6 -6.5 9t-2.5 14q0 18 9 32q78 0 128 10.5t89 51.5q29 29 46 71.5t36 108.5l286 1001q2 6 4 17.5t2 15.5q0 18 -12 19 q-10 0 -14 -6.5t-8 -12.5l-693 -1102q-39 -59 -65.5 -100t-48.5 -72q-12 -16 -27.5 -24t-21.5 -8q-8 0 -17.5 7t-13.5 27q-4 10 -4 31t-2 43l-31 1094q-1 27 -1 52v25q1 36 -1 44q-6 20 -16 20t-14.5 -6t-10.5 -16q-10 -20 -25.5 -64.5t-25.5 -75.5l-258 -790 q-12 -37 -22.5 -74t-17.5 -70.5t-12.5 -63.5t-5.5 -48q0 -43 15.5 -59.5t38.5 -28.5q10 -4 51 -15.5t100 -13.5q2 -6 5 -12t3 -11q0 -10 -4 -17t-8 -11h-51q-20 0 -50 1t-61.5 3t-60.5 3t-51 1q-98 0 -174 -4t-93 -4q-4 6 -6 11t-2 13z" />
<glyph unicode="N" horiz-adv-x="1538" d="M-98 14q0 10 1 16.5t5 14.5q59 6 98 14.5t66.5 29t47 58t40.5 101.5l282 913q6 20 14.5 51t8.5 48q0 25 -8 46t-18.5 37.5t-20.5 27.5t-17 15q-12 10 -34.5 17.5t-45 11.5t-43 5t-30.5 1q-4 16 -4 23q0 20 8 29h53q18 0 46 -1.5t58.5 -2.5t60.5 -3t52 -2q31 -2 43.5 -7 t22.5 -34l483 -1183l244 809q27 86 38 151.5t11 104.5q0 43 -15.5 59t-39.5 29q-10 4 -53.5 15t-102.5 13q-2 6 -5 10.5t-3 12.5t3 16t7 13h53q23 0 51.5 -1.5t60.5 -3.5t61.5 -3t50.5 -1q98 0 172.5 4.5t91.5 4.5q4 -6 7 -11.5t3 -11.5q0 -16 -8 -31q-59 -6 -98 -16 t-67 -30.5t-46.5 -56.5t-36.5 -93l-367 -1182q-14 -45 -22 -56.5t-25 -11.5q-10 0 -20 7.5t-17 21.5l-479 1176l-227 -762q-23 -78 -36 -146.5t-13 -107.5q0 -43 16 -59.5t41 -28.5q10 -4 51 -15.5t101 -13.5q2 -6 6 -13t4 -12q0 -10 -4 -17t-8 -11h-52q-20 0 -50 1t-61.5 3 t-60 3t-51.5 1q-98 0 -174 -4t-92 -4q-4 6 -6 11t-2 11z" />
<glyph unicode="O" horiz-adv-x="1400" d="M98 596q0 119 28 243t83 236q96 195 266 309.5t385 114.5q139 0 238.5 -51t163 -137t93 -201t29.5 -242q0 -113 -28.5 -230.5t-93.5 -240.5q-51 -94 -121 -174t-153 -137t-175 -89t-184 -32q-76 0 -144.5 20.5t-140.5 67.5q-127 86 -186.5 230.5t-59.5 312.5zM238 438 q0 -100 30.5 -170.5t65.5 -115.5q27 -33 90 -66t141 -33q94 0 179 38t171 122q72 70 129.5 160t98.5 191.5t62.5 209t21.5 213.5q0 217 -80 328.5t-227 111.5q-70 0 -151 -30.5t-167 -102.5q-86 -70 -153.5 -166t-114.5 -208.5t-71.5 -235.5t-24.5 -246z" />
<glyph unicode="P" horiz-adv-x="1224" d="M-88 18q0 18 8 33q57 4 96 12.5t67 27t47.5 51t35.5 87.5l268 945q8 27 16.5 67.5t8.5 63.5q0 45 -31 75q-10 10 -34.5 17.5t-52.5 10.5t-51.5 4t-33.5 1q-4 16 -4 23q0 8 2 17t6 13h53q68 0 120 -1t106 -1q16 0 50 2t81 3t101 3.5t110 2.5q100 0 182 -21.5t135 -69.5 q105 -92 105 -256q0 -98 -33 -174.5t-103 -142.5q-82 -76 -196.5 -103.5t-239.5 -27.5q-59 0 -135 7t-137 22l-125 -478q-4 -12 -7 -30.5t-3 -28.5q0 -43 13 -67.5t48 -38.5q16 -6 61.5 -10.5t83.5 -8.5q2 -6 5.5 -12t3.5 -10q0 -8 -4.5 -16.5t-8.5 -12.5h-51q-20 0 -50 1 t-59.5 3t-58 3t-51.5 1q-49 0 -104.5 -1t-104.5 -3t-84 -3t-43 -1l-6 9t-2 13zM485 807l25 -45q16 -4 58 -8t91 -4q104 0 188.5 24.5t151.5 85.5q61 53 93 130t32 157q0 63 -17 109.5t-58 86.5q-76 74 -226 74q-33 0 -77 -3t-84 -11z" />
<glyph unicode="Q" horiz-adv-x="1413" d="M106 598q0 135 27 255t88 239q100 195 261 301t376 106q139 0 239.5 -51t164 -137t93 -201t29.5 -242q0 -125 -29.5 -239.5t-92.5 -237.5q-27 -51 -68 -103t-90 -99.5t-104.5 -87.5t-108.5 -64q10 -59 33.5 -121.5t56.5 -114.5q33 -51 81 -72.5t89 -21.5q25 0 48.5 7 t43 17.5t34.5 19.5t21 16q31 0 31 -27q0 -12 -17.5 -31.5t-51.5 -38.5q-39 -23 -77 -36t-93 -13q-72 0 -123.5 25.5t-98.5 72.5q-33 35 -65.5 111t-48.5 154q-29 -6 -63 -12.5t-62 -6.5q-76 0 -146.5 19.5t-138.5 66.5q-129 86 -183.5 223.5t-54.5 323.5zM238 436 q0 -23 3 -52.5t7 -49.5q47 78 112.5 112.5t143.5 34.5q109 0 190.5 -57t128.5 -174q4 -10 15.5 -41t19.5 -55q90 72 158.5 167t115 205.5t71 228t24.5 232.5q0 223 -80 331.5t-227 108.5q-70 0 -151 -31.5t-167 -103.5q-88 -72 -155.5 -169t-113.5 -208.5t-70.5 -233.5 t-24.5 -245zM264 281q10 -39 31.5 -79t58.5 -74t89.5 -55.5t125.5 -21.5q47 0 87 8.5t75 22.5q-10 70 -30.5 127t-53.5 99t-81 65.5t-115 23.5q-29 0 -60 -10t-56.5 -26.5t-45 -37t-25.5 -42.5z" />
<glyph unicode="R" horiz-adv-x="1447" d="M-88 18q0 16 8 31q57 4 97 13.5t68 28t47.5 51t33.5 85.5l283 1012q4 12 6 32.5t2 33.5q0 41 -17.5 59t-33.5 33q-6 4 -27 9t-45.5 8t-46 5t-31.5 2q-4 16 -4 25q0 20 8 29h33q18 0 46 -1t58.5 -3.5t60 -3.5t52.5 -1q98 0 175 7.5t167 7.5q117 0 206 -22.5t150 -69.5 q104 -82 105 -254q0 -213 -199 -328q-70 -39 -144.5 -52.5t-142.5 -23.5l183 -379q14 -27 37.5 -64.5t52 -75.5t58.5 -69.5t54 -48.5q29 -18 74 -26.5t117 -12.5q2 -6 5 -12t3 -10q0 -8 -4 -16.5t-8 -12.5q-139 0 -213 -4t-90 -4q-23 0 -48.5 13.5t-41.5 35.5 q-35 57 -64 110.5t-55 110.5l-178 377l-66 74q-12 4 -49 8t-70 4q-31 0 -61 -6l-121 -463q-4 -14 -8 -42t-4 -50q0 -80 59 -102q16 -6 59.5 -11.5t77.5 -7.5q2 -6 5.5 -12t3.5 -10q0 -8 -4.5 -16.5t-8.5 -12.5q-86 2 -161.5 5t-118.5 3q-49 0 -102.5 -1t-99.5 -3t-79 -3 t-41 -1l-6 9t-2 13zM483 801q35 -8 65 -13.5t77 -5.5q82 0 167 14.5t150 43.5q100 51 150.5 125.5t50.5 183.5q0 80 -30 134t-95 93q-35 23 -103.5 33t-148.5 10q-76 0 -92 -14l-33 -70z" />
<glyph unicode="S" horiz-adv-x="1181" d="M78 76q0 41 15.5 114.5t37.5 208.5q8 47 13.5 78t9.5 43q2 10 12 13.5t20 3.5q20 0 25 -15q2 -4 2 -15t2 -22q8 -98 39 -175t72 -132q47 -66 117.5 -101.5t150.5 -35.5q61 0 116.5 21.5t96.5 58.5t64.5 88t23.5 110q0 57 -18.5 107.5t-59.5 101.5q-35 41 -89 83t-116 81 q-72 45 -122 87t-72 71q-45 55 -67.5 113.5t-22.5 134.5q0 82 31.5 154.5t87 126t131 85t163.5 31.5q96 0 174 -30.5t134 -110.5q10 -12 21 -25.5t20 -13.5q10 0 20 18q6 10 20.5 34t24.5 40q6 10 13.5 10h17.5q20 1 20 -24q0 -10 -6 -39q-16 -57 -32.5 -130t-32.5 -159 q-6 -31 -9.5 -48.5l-5.5 -27.5t-18 -10q-8 0 -18.5 4t-10.5 12q0 4 -1 22.5t-3 45.5q-2 41 -9 80t-16 61q-14 45 -40.5 86t-63.5 72t-84 48t-104 17q-61 0 -111.5 -20.5t-86.5 -57t-55.5 -86t-19.5 -104.5q0 -59 18.5 -107t47.5 -79q18 -23 56 -52.5t99 -68.5 q53 -33 110.5 -75t92.5 -77q72 -72 105.5 -150.5t33.5 -168.5q0 -94 -32.5 -170t-91 -129t-137.5 -83t-173 -30q-49 0 -94 6.5t-89 27t-88 56t-93 97.5q-23 29 -33 28q-18 0 -41 -34q-14 -23 -27.5 -46.5t-17.5 -33.5q-2 -6 -9 -9.5t-12 -3.5q-27 0 -26 19z" />
<glyph unicode="T" horiz-adv-x="1337" d="M188 1137q0 10 8.5 58t19.5 103.5t22.5 102.5t17.5 53q14 16 37 16q78 0 173 -1t206 -3q182 -2 326.5 -3t285.5 -3q86 -2 146.5 -3t68.5 -5q23 -6 23 -33q0 -53 -14.5 -139t-34.5 -184q-2 -12 -25 -13q-20 0 -25 13q-6 25 -14 65.5t-18.5 82.5t-24.5 77t-37 47 q-29 14 -67.5 23.5t-71.5 9.5l-209 2l-309 -1114q-8 -29 -12.5 -64t-4.5 -55q0 -59 61.5 -90t141.5 -33q2 -6 5 -12t3 -10q0 -8 -4 -16.5t-8 -12.5h-51q-43 0 -108.5 4t-108.5 4q-49 0 -105.5 -1t-107.5 -3t-87 -3t-44 -1q-4 6 -6.5 10t-2.5 14q0 14 9 29q57 4 97 12.5 t68.5 28t48 52t36.5 87.5l272 955q25 84 36 131t19 90l-309 -2q-63 -14 -136 -88t-147 -182q-2 -2 -9 -5.5t-13 -3.5q-12 0 -14.5 4.5t-2.5 8.5z" />
<glyph unicode="U" horiz-adv-x="1542" d="M215 362q0 61 13.5 133t37.5 160l172 586q16 53 17 92q0 53 -39 68q-12 4 -36 8t-48.5 6t-45 3t-30.5 1q-4 16 -4 25q0 20 8 29h246q23 0 75 2t107 4t100.5 4t53.5 2q4 -6 7 -9t3 -14q0 -14 -10 -30q-113 -8 -169.5 -48.5t-80.5 -128.5l-172 -616q-53 -190 -53 -289 q0 -76 30.5 -130t79.5 -88t111.5 -49t126.5 -15q131 0 241.5 66.5t176.5 223.5q10 23 24 67t35 112l96 342q10 37 21.5 90t21.5 112.5t16.5 119t6.5 108.5q0 41 -17.5 58t-44.5 30q-16 8 -58 16t-97 12q-2 6 -5.5 11.5t-3.5 13.5t3.5 16.5t7.5 12.5h32q23 0 53.5 -2 t64.5 -4.5t69 -4.5t65 -2q49 0 96.5 2t87.5 3.5t66.5 3.5t34.5 2q4 -6 7 -11.5t3 -15.5t-2 -14t-6 -13q-59 -6 -98 -16t-64.5 -31.5t-43 -57.5t-34.5 -91q-49 -168 -92 -320q-18 -63 -37.5 -129.5t-38 -128t-34 -112t-25.5 -84.5q-29 -86 -55.5 -147.5t-57.5 -102.5 q-86 -119 -200.5 -177.5t-274.5 -58.5q-102 0 -184 29t-138.5 81t-87 124.5t-30.5 160.5z" />
<glyph unicode="V" horiz-adv-x="1402" d="M186 1444q0 20 9 29h47q68 0 132 -4.5t107 -4.5q23 0 66 2t88 5.5t81 5.5t44 2q4 -6 7 -9.5t3 -13.5q0 -14 -10 -31q-57 -6 -95 -14t-60.5 -25.5t-32 -44t-9.5 -69.5v-1063l512 725q45 61 82 116.5t84 135.5q18 33 30.5 69.5t12.5 55.5q0 35 -13.5 54t-36 29.5t-55 14.5 t-73.5 8q-2 6 -4 13.5t-2 11.5q0 8 3 16t7 12q35 -2 63.5 -4t60.5 -3t69.5 -2t91.5 -1q41 0 83 2t77.5 3t61 3t34.5 2q4 -6 7 -9t3 -13q0 -14 -10 -31q-86 -6 -137.5 -36.5t-79.5 -67.5q-29 -35 -60 -79t-59 -85q-154 -223 -356.5 -511t-466.5 -654q-6 -8 -18.5 -17.5 t-20.5 -9.5q-12 0 -24.5 7t-14.5 22q-2 8 -4 49t-2 78v291v275t-2.5 275.5t-6.5 288.5q-2 39 -7 64.5t-13 43t-18.5 28l-20.5 20.5q-6 6 -26.5 9t-45 6t-46 4t-32.5 1q-4 16 -4 25z" />
<glyph unicode="W" horiz-adv-x="2043" d="M195 1448q0 8 3 16.5t7 12.5h39q68 0 134 -4.5t109 -4.5q23 0 62 1t80 3.5t73.5 3.5t40.5 1q4 -6 8.5 -10.5t4.5 -14.5t-4 -15t-9 -14q-51 -6 -88 -15t-58.5 -25.5t-31.5 -44t-10 -68.5v-1055l547 897l16 35v125q0 72 -11 96.5t-30 34.5q-6 4 -26.5 8t-45 6t-46 4 t-31.5 2q-4 16 -4 25q0 8 3 16.5t7 12.5h39q68 0 128 -4.5t103 -4.5q23 0 64 1t84 3.5t76.5 3.5t41.5 1q4 -6 8.5 -10.5t4.5 -14.5t-4 -15t-9 -14q-51 -6 -89 -10t-60.5 -16.5t-33.5 -35t-11 -65.5v-1081l440 727q39 59 73 118.5t66 131.5q33 72 33 119q0 33 -15 51 t-42 29.5t-61.5 16.5t-75.5 9q-6 12 -6 27q0 18 8 26q35 -2 63.5 -3t60 -2t69.5 -1h91q41 0 83 2t79 3t62.5 3.5t33.5 2.5q4 -6 7.5 -10.5t3.5 -14.5t-3 -15t-8 -14q-86 -6 -131 -38.5t-71 -69.5q-23 -35 -51.5 -79t-53.5 -85q-131 -223 -311 -511t-412 -654 q-4 -8 -15 -18.5t-28 -10.5q-12 0 -22 7t-15 26q-4 29 -4 54.5v59.5v912l-319 -535q-35 -59 -94.5 -149t-143.5 -219q-76 -115 -90 -131q-10 -10 -22.5 -13.5t-22.5 -3.5t-19.5 10.5t-9.5 30.5l-10 1247q0 72 -15.5 105t-35.5 45q-6 4 -25.5 8t-43 7t-44 5t-30.5 2 q-4 16 -4 25z" />
<glyph unicode="X" horiz-adv-x="1404" d="M-125 23q0 10 3 14t7 12q76 4 135.5 32t90.5 56q61 53 140 139t171 185l262 278l-168 420q-43 104 -76.5 156.5t-52.5 62.5q-6 4 -25.5 9.5t-44 10.5t-46 9t-31.5 4q-4 16 -4 23q0 20 8 28h47q68 0 125 -4t100 -4q23 0 65 2t85 5t77.5 5t42.5 2q4 -6 7.5 -9t3.5 -13 q0 -14 -11 -31q-57 -6 -89.5 -12t-50 -14.5t-23 -20.5t-5.5 -31q0 -16 13.5 -56t30.5 -79l141 -346l166 186q29 31 63.5 72t67.5 81t58.5 74t33.5 48q0 23 -10.5 44t-22.5 32q-6 4 -23.5 8t-38 7t-39 5t-28.5 2q-4 16 -4 23q0 20 8 28h33q6 0 39 -1t75 -2t83 -2t63 -1 q12 0 48 1t76 1t72.5 1t41.5 1q4 -6 8 -10t4 -14t-4 -14.5t-8 -12.5q-76 -4 -134.5 -31.5t-89.5 -56.5q-31 -27 -68.5 -63.5t-78.5 -79.5t-84 -89t-84 -92l-197 -217l185 -487q35 -90 66.5 -145.5t54.5 -69.5q8 -6 27.5 -12.5t42 -11.5t43 -8t28.5 -3l4 -12t2 -10 q0 -18 -10 -29h-39q-68 0 -123 4t-98 4q-20 0 -68.5 -1t-98.5 -3t-90 -3t-48 -1q-4 6 -6.5 9t-2.5 13q0 16 9 31q57 6 95 11.5t61.5 12.5t33.5 18t10 30q0 16 -12 55t-27 76l-157 412l-226 -248q-6 -8 -28.5 -33t-50 -57.5t-57.5 -67.5t-50 -61q-25 -31 -33 -49.5t-8 -32.5 q0 -20 10.5 -28.5t22.5 -14.5q6 -2 25.5 -7.5t42 -8.5t44 -6t29.5 -3l4 -12t2 -10q0 -18 -10 -29h-31q-6 0 -40.5 1t-79 2t-87.5 2t-65 1q-12 0 -49 -1t-77 -1t-72.5 -1t-41.5 -1q-4 6 -7 10t-3 15z" />
<glyph unicode="Y" horiz-adv-x="1312" d="M139 1141q0 18 15.5 45.5t42.5 68.5q47 66 92 111t89 71.5t89 38t92 11.5q68 0 114 -27.5t72.5 -75t38 -110t11.5 -129.5q0 -45 -2 -85t-6.5 -80t-11.5 -83t-17 -98l8 -4q49 92 95 174t94.5 153.5t101.5 136t117 121.5q72 66 122 87.5t93 21.5q41 0 78.5 -26.5 t37.5 -92.5q0 -43 -26.5 -83t-81.5 -40q-37 0 -58.5 9.5t-36 23.5t-21.5 30.5t-17 28.5q-29 -16 -72 -51t-84 -82q-16 -18 -50 -61t-100 -144q-88 -133 -172 -309q-20 -43 -42.5 -111.5t-38.5 -127.5q-43 -147 -59.5 -226.5t-16.5 -109.5q0 -20 14 -28.5t31 -12.5 q8 -2 26.5 -6t42 -8.5t46 -7.5t40.5 -3q10 0 11 -22q0 -8 -4.5 -18.5t-8.5 -10.5q-35 0 -113.5 2t-181.5 2q-152 0 -222 -2t-91 -2q-6 0 -12 7t-6 20q0 10 3 17t7 7q16 2 46 6t60.5 9.5t57 11.5t35.5 12q27 20 45 72q47 135 83.5 275.5t73.5 293.5q29 121 36 227.5t7 184.5 q0 117 -44 178t-122 61q-63 0 -138 -60t-161 -192q-8 -12 -28 -12q-8 0 -15.5 8.5t-7.5 14.5z" />
<glyph unicode="Z" horiz-adv-x="1251" d="M10 23q0 8 4 13t11 15l1077 1358h-369q-29 0 -60.5 -3t-67.5 -13.5t-73.5 -32t-78.5 -55.5q-45 -37 -87 -88.5t-83 -100.5q-10 -10 -31 -10q-14 0 -19.5 6t-5.5 12q0 8 5.5 26.5t9.5 27.5l86 258q8 25 18 29.5t39 4.5h881q37 0 37 -14q0 -10 -11.5 -26.5t-21.5 -32.5 l-1047 -1327h461q59 0 97 10t71 31q35 20 69.5 52t67.5 69.5t64.5 79.5t58.5 83q8 8 23 8q27 0 26 -22q0 -4 -2 -15.5t-6 -21.5l-98 -317q-6 -25 -37 -25h-969q-20 0 -29.5 3t-9.5 18z" />
<glyph unicode="[" horiz-adv-x="854" d="M-39 -258l141 479q16 53 47 163t74 269q31 113 57.5 212.5t50 191.5t44 181t41.5 181q4 23 11 37t13 21q14 10 49 10q12 0 45 -2t71 -4t74 -4t56 -2h195l8 -35l-29 -43q-39 2 -76.5 3t-76.5 1q-59 0 -100.5 -1t-53.5 -5q-8 -2 -18 -17q-2 -6 -6.5 -17t-11.5 -32.5 t-17 -54.5t-23 -84l-364 -1354q-6 -29 22 -35q12 -4 49 -5t105 -1q25 0 63.5 1t73.5 3l8 -45l-28 -35h-213q-27 0 -59.5 -1t-64.5 -2t-59.5 -2t-46.5 -1q-33 0 -45 6q-12 2 -6 23z" />
<glyph unicode="\" horiz-adv-x="1028" d="M211 1432q-12 51 41 51q45 0 61 -49l492 -1796q6 -25 -6.5 -38.5t-34.5 -13.5q-37 0 -53 49z" />
<glyph unicode="]" horiz-adv-x="854" d="M-109 -246l29 39q39 -2 77 -3t77 -1q59 0 100 1t53 5q8 2 19 17l6 18t11 33.5t17.5 54.5t22.5 84l365 1360q6 29 -23 35q-12 4 -58 5t-95 1q-25 0 -64 -2t-74 -2l-8 41l29 35h213q29 0 60.5 1t63 3t59.5 3t46 1q33 0 45 -6q12 -2 6 -23l-141 -481q-16 -53 -47 -163 t-74 -269q-31 -113 -57.5 -212.5t-50 -191.5t-44 -181t-40.5 -181q-8 -41 -25 -58q-14 -10 -49 -10q-12 0 -45 2t-71 4t-73.5 4t-56.5 2h-194z" />
<glyph unicode="^" horiz-adv-x="1597" d="M346 616l479 854h101l479 -854h-121l-407 740l-410 -740h-121z" />
<glyph unicode="_" horiz-adv-x="1134" d="M-139 -219h1147v-72h-1147v72z" />
<glyph unicode="`" horiz-adv-x="569" d="M336 1382q0 41 26.5 62.5t51.5 21.5q33 0 54 -19.5t44 -53.5q10 -14 29.5 -47t44 -73t51.5 -83t51 -78q4 -4 4 -16q0 -10 -12 -18.5t-29 3.5q-86 68 -146.5 122t-105.5 89q-39 29 -51 48.5t-12 41.5z" />
<glyph unicode="a" d="M29 248q0 80 26.5 169t79.5 181q43 72 99.5 132.5t118 104.5t126 68.5t123.5 24.5q72 0 112 -29t62 -70l21 60q8 25 32 31q12 4 17.5 6t34.5 2q37 0 37 -21q0 -4 -2.5 -14t-6.5 -23l-155 -467q-20 -59 -33.5 -127.5t-13.5 -121.5q0 -41 13 -54.5t30 -13.5q23 0 52 25.5 t83 109.5q12 18 27.5 44t31.5 26q10 0 17.5 -5.5t7.5 -21.5t-25.5 -64t-64.5 -102q-55 -76 -93 -97t-86 -21q-31 0 -54 15t-40 54q-10 25 -14 65t-8 74q-29 -43 -63 -80.5t-73.5 -67.5t-86 -47.5t-99.5 -17.5q-102 0 -167.5 76t-65.5 197zM172 203q0 -59 35 -101.5t88 -42.5 q80 0 157.5 64.5t147.5 222.5q35 80 65.5 164t51.5 180q6 35 6 74q0 41 -35 72.5t-94 31.5q-61 0 -124.5 -40t-123.5 -130q-39 -55 -71.5 -118.5t-59.5 -139.5q-23 -63 -33 -126.5t-10 -110.5z" />
<glyph unicode="b" horiz-adv-x="901" d="M51 209q0 41 17.5 107.5t42.5 142.5l266 811q6 16 11 40.5t5 41.5q0 31 -49 45q-12 4 -33.5 6t-38.5 2q-10 0 -17 4t-7 25q0 39 22 39q6 0 25.5 -1.5t44.5 -3.5t51.5 -3t44.5 -1h28.5t16.5 1t11.5 1h15.5q27 0 38 -9t11 -21q0 -16 -11 -53t-34 -109q-6 -18 -19.5 -58 t-30 -89.5t-34.5 -104.5t-35.5 -107.5t-33 -95.5t-23.5 -67q55 53 101 87.5t84 54t71 27t63 7.5q98 0 156.5 -66.5t58.5 -189.5q0 -129 -48 -250t-156 -234q-203 -213 -428 -213q-98 0 -142.5 61.5t-44.5 172.5zM168 170q10 -63 27.5 -95t48.5 -42q47 0 102 20.5t110.5 63.5 t105.5 108.5t89 153.5q16 41 30.5 85t25 87t16.5 81.5t6 69.5q0 66 -31.5 105t-85.5 39q-37 0 -82 -23.5t-90 -59.5t-83 -78t-60 -79q-25 -45 -76 -186q-53 -156 -53 -250z" />
<glyph unicode="c" horiz-adv-x="765" d="M37 276q0 170 96 342q90 168 229 248q113 66 203 66q53 0 87 -12.5t75 -47.5q55 -47 55 -139q0 -53 -28.5 -84t-75.5 -31q-41 0 -66.5 24t-25.5 71q0 29 14 54.5t37 47.5q8 6 8 14q0 14 -28.5 25.5t-63.5 11.5q-100 0 -182 -85t-138 -259q-49 -154 -49 -278 q0 -180 131 -181q113 0 234 132q20 23 33.5 36t23.5 13q23 0 25 -8.5t2 -24.5q0 -20 -47 -80q-66 -76 -145 -113.5t-156 -37.5q-57 0 -102.5 22.5t-78 62t-50 94t-17.5 117.5z" />
<glyph unicode="d" horiz-adv-x="1019" d="M27 211q0 86 23.5 171t74.5 171q51 84 112.5 152.5t127 117.5t135 76t135.5 27q43 0 80 -16.5t69 -57.5l123 403q10 33 14.5 57.5t4.5 41.5q0 25 -36 37t-93 16q-14 2 -20.5 6t-6.5 23q0 39 23 39q6 0 26.5 -2.5t46 -3.5t53 -3t46.5 -2h29.5t18.5 1t13 1h16q27 0 38.5 -9 t11.5 -21q0 -16 -13.5 -52t-36.5 -108q-10 -33 -34.5 -114t-57 -186.5t-68.5 -224t-71 -229.5q-20 -68 -36.5 -125t-33.5 -116q-16 -61 -21 -102.5t-5 -65.5q0 -18 10 -29.5t25 -11.5q23 0 60.5 34.5t84.5 112.5q20 35 33.5 54.5t29.5 19.5q23 0 23 -25t-23.5 -71.5 t-83.5 -118.5q-49 -59 -90 -78.5t-79 -19.5q-104 0 -105 120q0 27 5 58.5t11 58.5q-90 -113 -180 -175t-211 -62q-92 0 -145 60t-53 171zM170 225q0 -72 36 -109.5t95 -37.5q55 0 118.5 34.5t137.5 131.5q23 29 36 46t19 32l29 69l92 301q6 18 10.5 37t4.5 27 q0 12 -6.5 30.5t-18.5 36t-31.5 29.5t-46.5 12q-55 0 -109.5 -23.5t-105.5 -65.5t-95 -99.5t-79 -124.5q-45 -90 -65.5 -168t-20.5 -158z" />
<glyph unicode="e" horiz-adv-x="757" d="M37 256q0 111 27.5 210t93.5 202q76 117 192.5 190.5t243.5 73.5q86 0 127 -50t41 -124q0 -98 -83 -154.5t-224 -81.5q-98 -18 -154.5 -34.5t-85.5 -34.5q-16 -55 -31.5 -121t-15.5 -123q0 -59 35 -102.5t100 -43.5q74 0 137.5 42t118.5 116l18.5 18.5t20.5 8.5 q16 0 20.5 -7.5t4.5 -23.5q0 -10 -11.5 -29.5t-29.5 -44.5q-66 -84 -137.5 -123.5t-174.5 -39.5q-106 0 -169.5 72.5t-63.5 203.5zM225 522l170 47q117 33 179.5 82t62.5 123q0 41 -29.5 65.5t-87.5 24.5q-49 0 -102 -31.5t-99 -97.5q-35 -49 -58 -104.5t-36 -108.5z" />
<glyph unicode="f" horiz-adv-x="604" d="M-383 -360q0 41 26.5 68.5t73.5 27.5q41 0 68 -23.5t29 -77.5q4 -49 13 -69.5t50 -20.5t74 39t53 84q10 25 37 97.5t55 195.5l199 819h-195q-23 0 -22 25q0 18 12 34.5t31 16.5h194l33 133q23 88 45.5 147.5t34.5 84.5q61 129 154.5 193.5t197.5 64.5q78 0 135.5 -42 t57.5 -114q0 -43 -25.5 -73.5t-73.5 -30.5q-47 0 -71.5 25.5t-24.5 72.5q0 8 2 31.5t2 31.5q0 16 -26.5 23.5t-42.5 7.5q-78 0 -135 -119q-18 -39 -36 -84t-28 -86q-23 -86 -38 -143t-32 -123h191q16 0 25.5 -4t9.5 -27q0 -45 -49 -45h-193l-217 -843q-12 -49 -25.5 -90.5 t-28 -76t-31.5 -68.5t-40 -71q-93 -149 -260 -149h-2q-111 0 -159 48t-48 110z" />
<glyph unicode="g" horiz-adv-x="976" d="M-104 -258q0 66 38.5 105.5t100.5 39.5q63 0 91 -23.5t28 -66.5q0 -70 -52 -84q-12 -4 -29.5 -3t-45.5 -3q-37 -4 -37 -31q0 -16 6 -35.5t41 -35.5q51 -25 113.5 -38t140.5 -13q104 0 178 18t123 51q33 20 52.5 53t19.5 74q0 70 -46.5 111t-128.5 63q-88 25 -172 45.5 t-124 42.5q-59 35 -93 79t-34 99q0 86 62 137.5t155 67.5q-66 47 -98.5 97.5t-32.5 119.5q0 141 90 226q47 47 107.5 68.5t133.5 21.5q86 0 143.5 -29t100.5 -76q57 53 100 88t84 35q55 0 97.5 -28.5t42.5 -81.5q0 -33 -17.5 -56.5t-56.5 -23.5q-27 0 -55 24q-55 53 -93 54 q-20 0 -35.5 -20.5t-19.5 -39.5q8 -23 21.5 -65.5t13.5 -83.5q0 -68 -35 -142q-86 -182 -309 -182q-59 0 -102.5 15.5t-69.5 15.5q-43 0 -80 -19.5t-37 -68.5q0 -59 62 -97q23 -12 55.5 -22t87.5 -25q104 -25 174 -46t113 -52q59 -41 86.5 -90t27.5 -113q0 -72 -29.5 -124 t-74.5 -87q-59 -47 -154.5 -76.5t-236.5 -29.5q-80 0 -147.5 14.5t-121.5 38.5q-68 33 -95 84t-27 123zM276 565q0 -39 12.5 -74.5t33 -62.5t47 -42t55.5 -15q43 0 93 20.5t87 65.5q37 43 60.5 111t23.5 134q0 39 -15.5 68t-35.5 49q-41 41 -109 41q-59 0 -122.5 -39 t-98.5 -116q-31 -70 -31 -140z" />
<glyph unicode="h" horiz-adv-x="999" d="M-8 31q0 10 11 36.5t28 77.5q37 115 73.5 235t83.5 269q27 88 54.5 182.5t52 178.5t43 148.5t24.5 88.5q12 49 15.5 68.5t3.5 36.5q0 31 -49 45q-12 4 -30.5 6t-35.5 2q-10 0 -15 5t-5 26q0 23 6 30t16 7q12 0 53 -4.5t80 -4.5t60.5 1t44.5 1q27 0 38 -9t11 -21 q0 -16 -11.5 -53t-31.5 -109q-10 -33 -28.5 -92.5t-38 -121t-37 -113.5t-23.5 -75q-25 -74 -36 -109.5t-21 -70.5q61 72 111 118t93 72.5t80 36t70 9.5q86 0 129 -54.5t43 -123.5q0 -53 -10 -105.5t-27 -105.5q-8 -31 -21.5 -68t-26.5 -75t-25.5 -74.5t-22.5 -65.5 q-20 -55 -27.5 -83t-7.5 -42q0 -10 8 -24.5t29 -14.5q25 0 53.5 24.5t55 56.5t47 62.5t28.5 45.5q10 12 29 12q8 0 15 -8.5t7 -20.5q0 -20 -27.5 -66t-64.5 -87q-53 -53 -106 -92t-109 -39q-49 0 -75.5 31.5t-26.5 86.5q0 35 10 70t33 108q23 72 49.5 142.5t46.5 148.5 q12 47 21.5 89t9.5 89q0 43 -26.5 68t-69.5 25q-80 0 -185 -107q-45 -47 -87 -98t-56 -80q-12 -25 -45 -118t-80 -234q-8 -25 -15.5 -51.5t-13.5 -51t-11 -44t-7 -29.5q-4 -16 -17.5 -24.5t-27.5 -8.5q-12 0 -26.5 3t-33.5 7q-18 6 -22 12t-4 17z" />
<glyph unicode="i" horiz-adv-x="632" d="M70 664q0 8 9 29.5t32 49.5q39 47 71.5 82t73.5 64q35 25 60.5 33t54.5 8q37 0 65.5 -24.5t28.5 -96.5q0 -45 -17.5 -111.5t-46.5 -144.5l-114 -311q-10 -27 -15.5 -52.5t-5.5 -42.5q0 -53 43 -53q31 0 70 39t76 94q23 31 34 47.5t27 16.5q25 0 25 -25q0 -12 -10.5 -34.5 t-29 -49t-42 -55.5t-49.5 -55q-41 -41 -81 -66.5t-87 -25.5q-49 0 -79 35.5t-30 95.5q0 66 25 141l135 371q35 98 35 151q0 43 -29 43q-39 0 -106 -74q-16 -16 -29.5 -33.5t-30.5 -41.5q-16 -23 -23.5 -27t-17.5 -4q-23 0 -22 27zM346 1343q0 47 31 74t82 27q47 0 76.5 -29 t29.5 -76t-28.5 -75.5t-85.5 -28.5t-81 31.5t-24 76.5z" />
<glyph unicode="j" horiz-adv-x="522" d="M-301 -381q0 47 25.5 76t72.5 29q45 0 69.5 -25t24.5 -64q0 -18 -3 -37.5t-3 -29.5q0 -27 33 -27q29 0 59.5 26.5t53.5 74.5q12 27 25.5 61.5t27.5 84.5t31.5 116.5t42.5 158.5q27 98 53.5 210t48 213.5t34.5 179t13 108.5q0 18 -14 19q-12 0 -29.5 -12.5t-40.5 -35.5 t-49.5 -57.5t-50.5 -71.5q-18 -25 -33 -24q-14 0 -19 8t-5 18q0 29 63 121q39 49 78 89t84 69q59 33 94 33t49.5 -20.5t14.5 -51.5q0 -41 -18.5 -154.5t-65.5 -306.5q-37 -162 -74 -309t-70 -250q-59 -184 -140 -270t-208 -86q-78 0 -126 39t-48 98zM330 1346q0 55 34.5 91 t94.5 36q90 -1 90 -91q0 -59 -37 -92t-88 -33q-41 0 -67.5 20.5t-26.5 68.5z" />
<glyph unicode="k" horiz-adv-x="890" d="M-4 20q0 4 3 16.5t7 22.5l385 1241q4 16 7 37t3 31q0 12 -13 19.5t-33.5 11.5t-41 6t-37.5 4q-10 2 -12 10t-2 19q0 35 23 35q4 0 22.5 -1.5t41 -3.5t46 -3t39.5 -1q23 0 38 1t44 1q45 0 45 -28q0 -8 -4 -25.5t-8 -30.5l-168 -542q63 31 135 59.5t123 28.5 q94 0 146.5 -58.5t52.5 -150.5q0 -123 -97 -182q-43 -25 -103 -53.5t-146 -53.5q12 -39 26 -79t27.5 -73.5t24 -59t16.5 -38.5q16 -35 33.5 -54.5t46.5 -19.5q16 0 44.5 19.5t57.5 54.5q31 39 51 39q16 0 19.5 -9.5t3.5 -23.5q0 -27 -103 -129q-51 -51 -77.5 -64t-55.5 -13 t-46 10t-34 33q-20 27 -51 104l-104 262q-12 0 -32 -2t-41.5 -5t-40.5 -8t-32 -14l-102 -327q-6 -25 -20.5 -32t-30.5 -7h-33q-43 0 -43 26zM254 446q10 -2 20.5 -2h20.5q23 0 72 11.5t84 23.5q29 10 65.5 26.5t70.5 37t61.5 43t37.5 45.5q14 31 14 78q0 59 -34.5 94 t-73.5 35q-49 0 -98.5 -15.5t-96.5 -38.5q-39 -20 -51 -51z" />
<glyph unicode="l" horiz-adv-x="493" d="M37 88q0 16 4 39t8 41l328 1137q6 23 6 49q0 16 -9 26.5t-24.5 15.5t-35 7t-38.5 4q-23 2 -25.5 12.5t-2.5 22.5q0 31 35 31q10 0 41.5 -4.5t72.5 -4.5q6 0 38 2t54 2q54 0 54 -43q0 -6 -2 -17t-6 -24l-347 -1204q-4 -12 -7 -26.5t-3 -22.5q0 -23 23 -22q41 0 149 131 q33 37 44.5 49t27.5 12q14 0 17 -7t3 -18q0 -20 -47 -86q-47 -59 -88 -97t-76 -66q-57 -43 -110 -43q-35 0 -59.5 27.5t-24.5 76.5z" />
<glyph unicode="m" horiz-adv-x="1527" d="M49 643q0 16 11.5 40t27.5 56q117 190 242 191q39 0 61.5 -25.5t28.5 -50.5q8 -31 9 -55.5t1 -63.5q0 -16 -1 -33.5t-3 -39.5q96 143 189.5 204.5t164.5 61.5q129 0 129 -170q0 -20 -2 -34.5t-4 -35.5q57 70 105.5 116t92.5 73.5t84 39t81 11.5q61 0 98 -37t37 -121 q0 -45 -15.5 -104.5t-44.5 -137.5q-8 -20 -24.5 -60t-44.5 -108q-25 -57 -37 -93t-18 -58q-10 -31 -11 -59q0 -49 39 -50q20 0 55 21.5t89 99.5q16 23 32.5 47.5t34.5 24.5q14 0 18.5 -9.5t4.5 -19.5q0 -8 -11.5 -33.5t-31.5 -56.5q-66 -92 -122.5 -141t-129.5 -49 q-53 0 -83 32.5t-30 85.5q0 39 11.5 82t39.5 117q47 127 82 213t53 145q8 23 13.5 46.5t5.5 46.5q0 77 -80 77h-2q-39 0 -79 -24.5t-79 -63.5t-73.5 -89t-63.5 -99q-49 -86 -91 -193.5t-71 -209.5q-8 -27 -14 -49.5l-10 -37.5q-14 -55 -31.5 -66t-40.5 -11q-66 0 -66 45 q0 31 42 148.5t126 342.5q57 152 58 223q0 33 -21.5 59.5t-54.5 26.5q-109 0 -268 -237q-33 -47 -58.5 -89t-50.5 -108q-47 -123 -75.5 -208t-39.5 -138q-6 -35 -22 -51q-10 -4 -18.5 -7t-36.5 -3q-59 0 -60 43q0 10 17.5 62t52.5 153q59 162 92 251t41 117q10 37 14 68 t4 55q0 39 -10 64.5t-39 25.5q-25 0 -63.5 -39.5t-85.5 -125.5q-10 -18 -19.5 -34t-25.5 -16q-12 0 -18.5 5.5t-6.5 23.5z" />
<glyph unicode="n" horiz-adv-x="1112" d="M35 641q0 27 33 86q35 63 59.5 94t48.5 56q23 23 53.5 37t65.5 14q41 0 65.5 -24.5t36.5 -67.5q9 -35 15 -81q4 -34 5 -65q0 -11 -1 -22q111 141 197.5 200.5t179.5 59.5q86 0 133 -43t47 -115q0 -66 -34 -181.5t-99 -299.5q-41 -117 -41 -146q0 -49 43 -49q25 0 66.5 39 t88.5 115q20 29 29.5 37t20.5 8q8 0 15 -6.5t7 -20.5q0 -10 -13.5 -38.5t-35.5 -63.5q-55 -78 -111.5 -131t-122.5 -53q-122 0 -122 141q0 70 90 309q37 98 62.5 186.5t25.5 141.5q0 41 -28 64.5t-66 23.5q-33 0 -68 -14.5t-64 -36.5q-76 -59 -155 -168q-27 -35 -44.5 -69 t-33.5 -69q-14 -33 -32.5 -82t-45.5 -124q-66 -188 -69 -215q-12 -55 -39 -70q-10 -4 -22.5 -6t-24.5 -2q-47 0 -58 8q-10 8 -10 20q0 8 22.5 70t65.5 178q47 123 73.5 200t39.5 120q8 27 13 57.5t5 58.5q0 125 -55 125q-23 0 -44.5 -20.5t-39.5 -46.5q-53 -76 -74 -127 q-8 -20 -33 -19q-10 2 -15 6.5t-5 20.5z" />
<glyph unicode="o" horiz-adv-x="884" d="M35 299q0 88 17.5 163t58.5 152q35 66 84 124.5t107 101.5t124 68.5t133 25.5q135 0 211 -87t76 -241q0 -129 -43 -239.5t-137 -214.5q-82 -92 -173.5 -134.5t-177.5 -42.5q-127 0 -203.5 88.5t-76.5 235.5zM158 205q0 -80 42 -125t111 -45q59 0 123 39t117 121 q86 131 128 256t42 254q0 88 -45 128.5t-109 40.5q-66 0 -139.5 -51t-132.5 -159q-63 -115 -100 -235t-37 -224z" />
<glyph unicode="p" horiz-adv-x="987" d="M-213 -485q0 6 3 11t7 15q51 4 84 11.5t51.5 19.5t28.5 30.5t19 45.5l333 1120q-53 -16 -103 -51t-89 -76q-20 -20 -35 -20q-27 0 -27 28q0 31 78 92q35 29 69 48.5t68 35.5q23 12 40.5 22.5t27.5 18.5q14 16 30.5 65.5t43.5 141.5q16 66 51 66q31 0 44 -7.5t30 -13.5 q-4 -23 -17.5 -67.5t-30 -98t-36 -111t-35.5 -106.5q98 100 174 144.5t162 44.5q98 0 147 -68.5t49 -193.5q0 -96 -24.5 -185.5t-69.5 -173.5q-49 -92 -111.5 -150.5t-134.5 -99.5q-47 -27 -102 -41t-104 -14q-115 0 -177 82l-108 -385q-6 -20 -12.5 -54t-6.5 -55 q0 -23 24 -33t54 -10h68q4 -10 9 -17t5 -15t-6 -14.5t-10 -14.5h-457q-4 6 -4 14v19zM272 197q0 -57 34 -95.5t87 -42.5q9 -1 17 -1q43 0 88 16q53 20 96 65q47 49 94 127t84 197q23 72 33 134.5t10 111.5q0 57 -31.5 92t-85.5 35q-51 0 -116.5 -40t-130.5 -112 q-39 -45 -76 -130t-62 -177l-34 -135q-2 -8 -4.5 -22.5t-2.5 -22.5z" />
<glyph unicode="q" horiz-adv-x="894" d="M23 281q0 111 57 240.5t176 240.5q94 86 180 126t160 40q59 0 99 -22.5t75 -76.5q8 23 20.5 60t20.5 47q6 6 11 9t38 3q53 0 53 -20t-19.5 -85t-55.5 -177q-25 -66 -42.5 -111t-31.5 -83t-28.5 -77t-33.5 -92q-33 -92 -60.5 -173t-51 -156.5t-45 -149.5t-43.5 -152 q-6 -20 -11.5 -44.5t-5.5 -41.5q0 -23 25 -34t53 -11h62q4 -10 9 -16t5 -14t-5 -14.5t-9 -14.5h-461q-4 6 -4 14v19q0 6 3 11t7 15q53 4 86 11.5t52.5 19.5t30.5 30.5t19 45.5q10 27 25.5 80t36 116.5t42 132t40.5 127.5q-68 -49 -126.5 -76.5t-119.5 -27.5q-49 0 -91 16.5 t-74 50t-50 87t-18 127.5zM166 225q0 -78 41 -111.5t94 -33.5q100 0 199 110q41 47 71.5 105.5t57.5 130.5q41 98 59.5 174.5t18.5 144.5q0 123 -95 123q-41 0 -88 -18.5t-94 -55t-92 -93t-82 -130.5q-47 -96 -68.5 -179t-21.5 -167z" />
<glyph unicode="r" horiz-adv-x="763" d="M68 635q0 10 10 34.5t26 55.5q59 106 122 154.5t110 48.5q37 0 54.5 -30t17.5 -67q0 -49 -8.5 -99t-26.5 -136l6 -2q6 12 22.5 38.5t37 58.5t43 63.5t42.5 54.5q59 66 99.5 93.5t83.5 27.5q49 0 76.5 -30t27.5 -83q0 -49 -26.5 -82t-61.5 -33q-49 0 -70.5 26t-36.5 65 q-23 -14 -47 -37t-50.5 -55.5t-56.5 -77.5t-63 -109q-37 -72 -68.5 -162t-64.5 -194q-18 -55 -25.5 -90t-11.5 -45q-12 -33 -69 -33q-10 0 -21.5 2t-17.5 4q-23 6 -23 22q0 41 68 226q33 90 55.5 161.5t38.5 139.5q4 12 11.5 44t13.5 66.5t11 67.5t5 49t-6 28.5t-25 12.5 q-10 0 -20 -6t-19 -14q-10 -10 -29.5 -34t-47.5 -69q-25 -37 -36.5 -57.5t-31.5 -20.5q-6 0 -12 4.5t-6 18.5z" />
<glyph unicode="s" horiz-adv-x="753" d="M29 223q0 109 92 109q41 0 65.5 -21.5t24.5 -58.5q0 -35 -18.5 -72t-18.5 -59q0 -12 10.5 -26.5t28.5 -28t43 -22.5t55 -9q41 0 76 15.5t60.5 42t40 62t14.5 74.5q0 29 -12.5 57.5t-28.5 47.5q-10 12 -31.5 29.5t-62.5 46.5q-47 35 -81 62.5t-48 43.5q-51 61 -52 154 q0 66 23.5 115t62.5 81.5t87.5 50t99.5 17.5q59 0 103 -14.5t83 -49.5q70 -63 70 -145q0 -45 -23.5 -78t-70.5 -33q-37 0 -58.5 20.5t-21.5 51.5q0 12 5 29.5t12 36t12 35t5 24.5q0 18 -29.5 38.5t-88.5 20.5q-41 0 -72 -16t-51.5 -39.5t-30.5 -51.5t-10 -52q0 -29 10 -58.5 t33 -50.5q23 -20 41 -32.5t59 -41.5q88 -63 119 -100q35 -41 50.5 -78t15.5 -90q0 -72 -27 -125t-70 -89t-98 -53.5t-115 -17.5q-123 0 -202.5 69t-79.5 179z" />
<glyph unicode="t" horiz-adv-x="643" d="M102 133q0 49 12.5 98.5t32.5 114.5l148 477h-127q-16 0 -23.5 8.5t-7.5 18.5q0 20 8 37q10 12 23 12h154l63 211q6 16 10 27.5t11 15.5q23 18 69 18q20 0 28.5 -2t11.5 -7t2 -11t-1 -12q0 -10 -2 -19l-70 -221h205q21 0 21 -20q0 -33 -8.5 -44.5t-24.5 -11.5h-207 l-170 -522q-45 -137 -45 -176q0 -29 13.5 -42t35.5 -13q47 0 103.5 59t121.5 170q18 29 27.5 32t18.5 3q23 0 22 -29q0 -23 -41 -94q-37 -61 -69.5 -105.5t-71.5 -72.5q-31 -25 -65 -39t-66 -14q-66 0 -104 40.5t-38 112.5z" />
<glyph unicode="u" horiz-adv-x="1112" d="M53 678q0 8 13.5 34.5t29.5 47.5q41 53 75 85t60 48q25 16 54.5 27.5t58.5 11.5q59 0 80.5 -37t21.5 -90q0 -57 -24 -129l-115 -326q-20 -59 -28.5 -106t-8.5 -94q0 -41 23.5 -66t64.5 -25q47 0 94.5 29t86.5 70q37 41 78.5 92t64.5 96q33 70 73 181.5t76 246.5 q16 55 24.5 86t16.5 41q12 16 35 17q10 0 30.5 -1.5t35.5 -3.5q10 -2 21.5 -7t11.5 -15q0 -6 -5.5 -19.5t-9.5 -25.5l-155 -457q-10 -25 -19.5 -75t-9.5 -101q0 -47 1 -79t5 -42q6 -16 27 -16q10 0 23.5 7t28.5 24.5t35.5 48t47.5 77.5q20 37 28.5 48.5t24.5 11.5t20.5 -9.5 t4.5 -19.5q0 -25 -39 -96q-59 -111 -115 -154q-25 -20 -45 -27t-49 -7q-121 0 -121 172v45t2 41q-43 -55 -86 -106.5t-123 -104.5q-39 -25 -79 -36t-81 -11q-86 0 -132 43t-46 131q0 47 17.5 116.5t50.5 167.5l74 217q2 6 7 21.5t10 33t9 33t4 21.5q0 53 -39 53 q-29 0 -60.5 -28.5t-72.5 -83.5q-10 -16 -19 -28.5t-14 -17.5q-10 -12 -26 -12q-27 0 -27 31z" />
<glyph unicode="v" horiz-adv-x="1042" d="M4 729q0 29 17.5 63.5t44.5 69.5q45 57 110 58q27 0 58.5 -14.5t62.5 -31.5q41 -23 69.5 -37t51.5 -14q29 0 51.5 16.5t50.5 51.5q18 20 27.5 30.5t27.5 10.5q16 0 24.5 -9.5t8.5 -19.5q0 -14 -8 -31q-63 -117 -108.5 -191.5t-61.5 -109.5q-25 -59 -49.5 -128.5 t-24.5 -141.5q0 -117 50.5 -168t111.5 -51q33 0 62.5 9t60.5 34t64.5 65.5t72.5 104.5q25 41 45.5 88t33.5 95t20.5 92t7.5 77q0 14 -6.5 21.5t-20.5 23.5q-47 47 -68.5 80t-21.5 68q0 47 26.5 68.5t67.5 21.5q63 0 95 -47.5t32 -108.5q0 -51 -10 -121.5t-33 -148.5 q-33 -96 -72.5 -177t-97.5 -155q-80 -100 -160.5 -148.5t-177.5 -48.5q-45 0 -87 18.5t-72.5 53.5t-49 85t-18.5 114q0 86 33 170q23 55 66.5 124.5t107.5 155.5q23 29 36 50.5t23 37.5q-41 -25 -84 -44t-84 -19q-45 0 -100 33q-33 18 -51.5 27.5t-30.5 9.5 q-20 0 -35.5 -14.5t-36.5 -45.5q-8 -10 -14 -19.5t-16 -9.5q-20 0 -21 27z" />
<glyph unicode="w" horiz-adv-x="1484" d="M4 739q0 10 5 25.5t14 32.5q20 41 63 77.5t107 36.5q25 0 59.5 -12t75.5 -29q31 -12 59.5 -22t50.5 -10q33 0 61.5 18t57.5 53q14 16 24.5 19.5t16.5 3.5q29 0 29 -27q0 -18 -47 -104q-37 -61 -73 -116.5t-61 -100.5q-68 -123 -96 -213t-28 -172q0 -72 27.5 -102.5 t62.5 -30.5q74 0 154.5 94t181.5 278q33 59 53 118.5t20 78.5q0 6 -2 27.5t-3 48t-3 54.5t-2 48q0 53 30.5 84t80.5 31q45 0 66.5 -24.5t21.5 -63.5q0 -37 -36 -97.5t-83 -126.5q-6 -16 -13.5 -47.5t-15.5 -69.5t-13 -80t-5 -79q0 -143 31.5 -199.5t78.5 -56.5q43 0 87 31.5 t84 80t76 109t61.5 116.5t41 103t15.5 70q0 10 -8 25.5t-23 37.5q-25 43 -38 81t-13 79q0 49 23.5 81t62.5 32q45 0 81 -38t36 -116q0 -20 -1 -39.5t-6.5 -42t-13.5 -50.5t-20 -64q-45 -123 -99.5 -231.5t-119 -190.5t-138 -130t-153.5 -48q-86 0 -128 73.5t-46 212.5 q-88 -137 -168 -214t-180 -77q-90 0 -142.5 63.5t-52.5 164.5q0 123 59 229q16 33 49 79t80 99q45 47 86 102.5t62 88.5q-20 -8 -48 -21.5t-56.5 -24t-57.5 -18.5t-51 -8q-25 0 -56.5 9.5t-64.5 27.5q-33 20 -51 20q-16 0 -30.5 -13t-33.5 -36q-10 -10 -17 -16t-17 -6 q-20 0 -21 24z" />
<glyph unicode="x" horiz-adv-x="972" d="M-6 106q0 43 6 87.5t20 82.5q8 16 15.5 22.5t17.5 6.5t14.5 -3t10.5 -21q2 -4 3 -17.5t1 -38.5q2 -70 16.5 -93t42.5 -23q12 0 22.5 7l16.5 11q12 10 44 49t71 88t77 99.5t62 82.5q-14 55 -29.5 106.5t-31 94.5t-30.5 76t-28 51q-14 25 -45 25q-35 0 -56 -33t-40 -92 q-4 -16 -12 -20.5t-19 -4.5q-29 0 -28 31q0 20 20 76q68 170 178 170q55 0 99 -60q35 -43 61.5 -115.5t54.5 -179.5q18 27 49 69t60 83q35 49 72 102q41 57 80.5 79t87.5 22q47 0 71.5 -31t24.5 -70q0 -25 -1 -56.5t-9 -72.5q-4 -29 -11.5 -45t-11.5 -22q-4 -4 -11 -7.5 t-11 -3.5q-8 0 -16.5 5.5t-8.5 17.5v57q-2 43 -6 62.5t-8 30.5q-14 29 -41 28q-27 0 -53.5 -23.5t-51.5 -58.5q-43 -59 -80 -110q-31 -43 -60.5 -85t-41.5 -63q4 -35 20.5 -96t38.5 -137q16 -49 40 -87t57 -38q10 0 26.5 19.5t28.5 41.5q16 29 27.5 47.5t23.5 18.5 t21.5 -7.5t9.5 -21.5q0 -8 -7.5 -26.5t-23.5 -49.5q-83 -163 -163 -163h-1q-33 0 -61.5 24.5t-50.5 77.5q-29 70 -50.5 143.5t-37.5 132.5q-16 -23 -48 -64.5t-65 -82.5q-37 -49 -78 -105q-47 -59 -83 -92.5t-83 -33.5q-98 0 -98 126z" />
<glyph unicode="y" d="M41 674q0 27 35 74q35 45 69.5 78.5t73.5 56.5q41 25 69.5 35t55.5 10q59 0 80.5 -28t21.5 -87q0 -25 -10 -68t-24 -90q-8 -29 -35 -107.5t-76 -217.5q-25 -74 -34 -121t-9 -76q0 -23 16.5 -43t44.5 -20q66 0 138.5 51t146.5 143q53 68 96 142.5t68 156.5 q16 47 31.5 107.5t27.5 124.5q18 90 33 106q12 16 49 17q25 0 30 -2.5l13 -6.5q6 -4 13.5 -12t7.5 -18q0 -14 -5 -35t-10 -37l-84 -301q-39 -147 -68.5 -253t-52 -183.5t-41 -135t-36.5 -106.5q-63 -180 -165.5 -262t-225.5 -82q-98 0 -163 45t-65 115q0 45 28 77.5t71 32.5 q55 0 78.5 -31.5t23.5 -80.5q0 -16 -6 -40t-6 -34q0 -14 16.5 -19.5t30.5 -5.5q66 0 117 43t90 119q37 72 77.5 182.5t73.5 227.5q23 78 31 110.5t14 57.5q-39 -47 -74.5 -91.5t-82.5 -87.5q-63 -59 -123 -83.5t-115 -24.5q-78 0 -119 42t-41 120q0 53 14.5 113.5 t39.5 131.5q10 29 25.5 74t33.5 98q29 74 45 126.5t16 80.5q0 45 -34 45q-35 0 -73 -34.5t-91 -100.5q-14 -18 -26.5 -30.5t-22.5 -12.5t-18.5 7.5t-8.5 17.5z" />
<glyph unicode="z" horiz-adv-x="872" d="M-2 55q0 31 20 49l629 615q-23 0 -51.5 3t-56 7t-52 10t-43.5 13q-12 4 -52 22.5t-101 46.5q-14 4 -29.5 9.5t-32.5 5.5q-53 0 -53 -39q0 -25 20.5 -55.5t20.5 -65.5q0 -29 -19.5 -48.5t-56.5 -19.5t-61.5 29t-24.5 74q0 37 18.5 72.5t59.5 70.5q47 35 101.5 52.5 t109.5 17.5q78 0 152 -45q23 -12 44 -30t42.5 -32t43 -24.5t42.5 -10.5q29 0 51 18.5t51 51.5q14 14 25.5 19.5t17.5 5.5q16 0 31.5 -13.5t15.5 -27.5q0 -10 -8 -23.5t-31 -38.5l-604 -586q55 -6 113.5 -15t89.5 -19q8 -4 21.5 -10.5t39.5 -18.5q53 -29 88 -40t66 -11 q35 0 55.5 10t20.5 33q0 12 -8.5 19t-19.5 16.5t-19.5 22.5t-8.5 40q0 37 22.5 57.5t57.5 20.5q41 0 63.5 -24.5t22.5 -65.5q0 -76 -52 -135.5t-118 -81.5q-27 -8 -59.5 -16.5t-69.5 -8.5q-53 0 -95 23.5t-87 56.5q-35 27 -55.5 43t-32.5 24.5t-20.5 10.5t-20.5 2 q-23 0 -54.5 -20.5t-66.5 -53.5q-18 -18 -28.5 -26.5t-22.5 -8.5q-16 0 -28.5 11.5t-12.5 31.5z" />
<glyph unicode="{" horiz-adv-x="880" d="M37 621q0 10 8 27.5t16 27.5q72 6 131.5 21.5t106.5 44t81 75.5t52 115l53 201q27 96 70 162.5t104.5 107.5t141.5 58.5t180 17.5q2 -7 2 -23q0 -27 -22 -49q-43 0 -89.5 -4t-86.5 -23.5t-72.5 -58.5t-50.5 -111l-54 -198q-27 -100 -73 -167t-105 -109t-128 -64.5 t-140 -36.5l-4 -8q53 -12 100 -33t82 -52.5t54.5 -75.5t19.5 -104q0 -29 -3 -59.5t-14 -64.5l-53 -199q-10 -45 -10 -78q0 -59 16.5 -95t43 -54.5t61 -24.5t71.5 -6q2 -6 2 -11.5v-9.5q0 -33 -22 -51q-74 0 -131.5 21.5t-96 58.5t-59 85t-20.5 101q0 31 4 67t14 75l53 200 q12 47 13 84q0 92 -65.5 137.5t-176.5 55.5q-4 16 -4 27z" />
<glyph unicode="|" horiz-adv-x="976" d="M500 -414v1899h96v-1899h-96z" />
<glyph unicode="}" horiz-adv-x="880" d="M-131 -268q0 27 22 49q43 0 89.5 4t86 23.5t72.5 58.5t51 110l54 199q27 100 72.5 167t105 109t128 64.5t140.5 36.5l4 8q-53 12 -100 32.5t-82 52.5t-54.5 77t-19.5 102q0 29 3 59.5t14 65.5l53 199q10 45 10 78q0 59 -16.5 95t-43 54.5t-61.5 24.5t-71 6q-2 6 -2 11v9 q0 33 22 52q74 0 130 -21.5t96 -58.5t60.5 -85t20.5 -102q0 -31 -4 -66.5t-14 -74.5l-53 -201q-12 -45 -13 -84q0 -92 65.5 -137t176.5 -55q4 -17 4 -27t-8 -27.5t-16 -27.5q-70 -6 -130.5 -21.5t-107.5 -44t-81 -75.5t-52 -115l-53 -201q-29 -104 -76 -170.5t-110.5 -105.5 t-142.5 -54.5t-167 -15.5q-2 6 -2 23z" />
<glyph unicode="~" horiz-adv-x="1556" d="M207 387q12 66 45 123t81 100t110.5 69t131.5 26q49 0 126 -30t159 -65q92 -37 162 -65.5t106 -28.5q43 0 79 18.5t62.5 48t45 65.5t31.5 69q4 10 17 19t28 9q14 0 24 -9t6 -27q-12 -63 -45 -122t-81 -103t-109.5 -69.5t-132.5 -25.5q-47 0 -115 26.5t-166 69.5 q-84 37 -159.5 66t-112.5 29q-43 0 -78 -18.5t-61.5 -47.5t-46 -64.5t-31.5 -70.5q-10 -29 -45 -29q-14 0 -24.5 10.5t-6.5 26.5z" />
<glyph unicode="&#xa1;" horiz-adv-x="645" d="M-23 -305q0 25 7 49q6 25 14 47.5t21.5 55t34 81.5t52.5 129q66 160 107 288t76 226q10 4 14 8.5t16 4.5t19.5 -7.5t11.5 -15.5q-14 -70 -29.5 -132t-30 -125.5t-27.5 -132.5t-25 -151q-14 -98 -24.5 -168.5t-20.5 -123.5q-16 -88 -51.5 -118t-71.5 -30q-53 0 -73 33 t-20 82zM279 858q0 53 26.5 89t79.5 36q51 0 86 -32t35 -83q0 -55 -33 -83.5t-86 -28.5q-45 0 -76.5 28.5t-31.5 73.5z" />
<glyph unicode="&#xa2;" horiz-adv-x="864" d="M66 303q0 84 23.5 171t72.5 175q86 162 227 246q78 43 156 59l65 244l43 21l33 -21l-63 -237q47 -2 83.5 -15.5t71.5 -44.5q25 -23 41.5 -57.5t16.5 -81.5q0 -113 -99 -113q-41 0 -65.5 25.5t-24.5 68.5q0 57 45 101q8 6 8 14q0 14 -29.5 25.5t-64.5 11.5l-221 -813 q63 4 112.5 40t102.5 95q20 23 32.5 36t22.5 13q18 0 23.5 -9t5.5 -26q0 -20 -47 -79q-111 -133 -272 -148l-72 -268l-43 -29l-35 31l72 266q-106 16 -163.5 99t-57.5 200zM201 281q0 -76 35.5 -124t76.5 -65l219 795q-37 -12 -76.5 -39t-78.5 -69t-73 -97t-56 -127 q-25 -80 -36 -144.5t-11 -129.5z" />
<glyph unicode="&#xa3;" horiz-adv-x="1097" d="M0 141q0 80 55.5 117t130.5 37q29 0 71 -8t85 -23q35 78 51.5 172t22.5 195h-209q-16 0 -24.5 5t-8.5 26q0 29 10.5 37t26.5 8h215q12 145 46 256.5t91 201.5q72 111 157 164t171 53q47 0 90 -15t76 -45t51 -71t18 -92q0 -72 -39.5 -117t-105.5 -45q-33 0 -66.5 13.5 t-62.5 44.5q-43 43 -43 67q0 10 8 17.5t14 7.5q2 0 17 -6q25 -12 46 -23.5t40 -11.5q45 0 63.5 26.5t18.5 67.5q0 47 -41 84t-96 37q-68 0 -118 -41t-93 -131q-23 -47 -47.5 -152.5t-55.5 -289.5h281q25 0 24 -27q0 -29 -6 -39t-18 -10h-295q-29 -113 -60.5 -205t-87.5 -184 q55 -27 106.5 -51.5t90.5 -38.5q66 -25 129 -25q86 0 147.5 34t102.5 113q10 18 17.5 22.5t17.5 4.5q25 0 24 -25q0 -23 -34 -86q-59 -104 -140.5 -154t-171.5 -50q-72 0 -174 51q-47 25 -90 52.5t-78 47.5q-47 -72 -90 -109.5t-104 -37.5q-70 0 -113 40t-43 111zM68 137 q0 -33 24.5 -55.5t59.5 -22.5q49 0 87 36t54 81q-37 23 -64.5 34t-56.5 11q-45 0 -74.5 -24.5t-29.5 -59.5z" />
<glyph unicode="&#xa4;" horiz-adv-x="1163" d="M53 539q0 23 13.5 31t42.5 8h149q4 41 11 77.5t18 75.5h-137q-25 0 -32 5t-7 26q0 23 14 30t43 7h137q37 121 99.5 227.5t143.5 186t178 125.5t204 46q141 0 223 -61.5t82 -159.5q0 -49 -24.5 -87t-82.5 -38q-47 0 -73.5 24.5t-26.5 65.5q0 29 8 53.5t21 53.5 q4 41 -33 66.5t-100 25.5q-82 0 -155 -43t-134.5 -114.5t-109.5 -168t-81 -202.5h500q35 0 35 -29q0 -25 -12.5 -32t-40.5 -7h-500q-10 -39 -17.5 -76t-11.5 -77h365q23 0 30 -6.5t7 -24.5q0 -23 -13.5 -30t-42.5 -7h-352q-2 -18 -2 -33.5v-32.5q0 -184 68.5 -284.5 t214.5 -100.5q82 0 137 25t98 61q16 14 44 43t44 52q4 2 19 2q14 0 23.5 -9.5t13.5 -21.5q-2 -23 -56 -82q-70 -76 -151.5 -115t-179.5 -39q-201 0 -306.5 126t-105.5 356v26.5t2 26.5h-164q-23 0 -30 6t-7 23z" />
<glyph unicode="&#xa5;" horiz-adv-x="1294" d="M162 477q0 23 10 28t27 5h364l-41 160h-270q-16 0 -22.5 5t-6.5 27q0 23 9.5 29t25.5 6h246l-111 498q-6 29 -35.5 46t-109.5 26q-10 2 -12.5 10t-2.5 14q0 16 8.5 22.5t18.5 6.5q6 0 28.5 -1t53.5 -1t66.5 -1t68.5 -1q61 0 103.5 1t69 2t43 2t26.5 1q14 0 16 -3t2 -18 q0 -20 -16 -26q-4 -4 -16.5 -4t-28.5 -2q-82 -6 -103.5 -35t-21.5 -72q0 -16 5 -50t9 -56l109 -512l250 325q20 27 43.5 57.5t45 60.5t39 55.5t29.5 43.5q29 43 40.5 71t11.5 46q0 35 -34 44t-93 20q-8 2 -10.5 12t-2.5 20q0 20 23 21h40.5t65.5 -1t78 -1h76q8 0 29.5 1 t49 1t56.5 1t51 1q16 0 19.5 -4.5t3.5 -20.5q0 -8 -6 -17t-19 -11q-66 -8 -132 -44t-128 -114l-319 -414h235q14 0 18.5 -6t4.5 -29t-8.5 -27.5t-24.5 -4.5h-281l-125 -160h353q14 0 19 -5t5 -28t-8 -29t-25 -6h-352l-67 -254q-8 -27 -9 -47q0 -31 12.5 -48t35 -26.5 t57.5 -13.5t78 -10q6 -12 6 -25q0 -10 -7 -16t-12 -10q-63 0 -131.5 3t-169.5 3l-258 2q-2 8 -3 13t-1 14q0 10 4 14t13 14q35 2 84 6.5t69 14.5q31 18 57.5 48t43.5 83l41 155q6 27 11 43.5t3 36.5h-359q-18 0 -23 6.5t-5 28.5z" />
<glyph unicode="&#xa6;" horiz-adv-x="976" d="M500 358h96v-772h-96v772zM500 733v752h96v-752h-96z" />
<glyph unicode="&#xa7;" horiz-adv-x="937" d="M59 -260q0 41 23.5 65.5t58.5 24.5q8 0 25 -4q29 -94 85 -145.5t109 -51.5q37 0 70 13.5t58.5 38t41 56.5t15.5 68q0 96 -84 261l-142 276q-31 61 -52 108.5t-34.5 84t-18.5 69.5t-5 68q0 106 51 191t170 145q-16 33 -27.5 74.5t-11.5 80.5q0 66 20.5 125.5t59.5 104.5 t95.5 71.5t129.5 26.5q102 0 166 -40t64 -103q0 -41 -19.5 -60.5t-42.5 -19.5q-20 0 -37 10q-45 84 -78.5 116.5t-86.5 32.5q-70 0 -122.5 -43t-52.5 -114q0 -47 19.5 -97.5t54.5 -117.5l170 -330q41 -80 60.5 -153.5t19.5 -145.5q0 -121 -45 -211t-156 -147 q14 -47 22.5 -88t8.5 -78q0 -51 -17.5 -109.5t-56.5 -109t-100 -83t-150 -32.5q-53 0 -100 14.5t-82 38t-55.5 54t-20.5 65.5zM305 754q0 -25 4 -45.5t15.5 -47t30 -64.5t44.5 -97l185 -391q53 20 92 71t39 135q0 53 -16.5 109.5t-55.5 136.5l-192 406q-20 -6 -45 -20.5 t-47.5 -40t-38 -62.5t-15.5 -90z" />
<glyph unicode="&#xa8;" horiz-adv-x="479" d="M221 1247q0 41 27.5 72t75.5 31q41 0 69.5 -29t28.5 -74q0 -41 -26.5 -70.5t-73.5 -29.5q-45 0 -73 29.5t-28 70.5zM598 1247q0 45 30.5 74t71.5 29q45 0 73 -31t28 -72q0 -43 -30 -71.5t-71 -28.5q-45 0 -73.5 29.5t-28.5 70.5z" />
<glyph unicode="&#xa9;" horiz-adv-x="1929" d="M111 514q0 182 69.5 342t190.5 279.5t282.5 189.5t343.5 70t342 -70t281 -189.5t190.5 -279.5t69.5 -342t-69.5 -344t-190.5 -281.5t-280.5 -189.5t-342.5 -70q-182 0 -343.5 70t-282.5 189.5t-190.5 281.5t-69.5 344zM188 514q0 -170 63.5 -318.5t172 -259t257 -174 t316.5 -63.5t314.5 63.5t256 174t172 259t62.5 318.5q0 168 -62.5 315.5t-172 257t-256 173t-314.5 63.5t-316.5 -63.5t-257 -173t-172 -257t-63.5 -315.5zM535 508q0 104 34.5 195.5t96 160t144.5 108.5t177 40q82 0 151.5 -21.5t137.5 -72.5q16 23 27.5 35t27.5 26 q8 -2 18.5 -5t16.5 -9q-4 -31 -5 -76t-1 -74q0 -12 2 -31.5t4 -40t5 -40t3 -33.5q-8 -10 -20 -11q-4 0 -10.5 1.5t-10.5 1.5q-8 29 -20.5 57.5t-23.5 53t-20 43t-16 24.5q-47 51 -100 79.5t-125 28.5q-63 0 -121.5 -27.5t-103.5 -83t-70.5 -136t-25.5 -187.5 q0 -88 20.5 -166t62 -135t106.5 -90t155 -33q80 0 155.5 40t139.5 130q2 2 16 2q6 0 11 -12.5t5 -18.5q0 -16 -30 -57q-53 -66 -138.5 -112t-195.5 -46q-123 0 -213 41t-149.5 110t-88 158t-28.5 183z" />
<glyph unicode="&#xaa;" horiz-adv-x="962" d="M163 370.5q-3 12.5 1 28.5t11 27.5t18 11.5h538q10 0 13 -10.5t-1 -26.5t-11 -29.5t-17 -13.5h-539q-10 0 -13 12.5zM225 897q0 59 17.5 122.5t58.5 131.5q31 53 73 97t88 75t95 48.5t94 17.5q51 0 82 -19.5t51 -44.5q0 2 2 4q4 4 5 10l4 17q10 23 28 26q18 6 54 7 q35 0 34 -23q0 -10 -6 -29l-112 -333q-14 -41 -22.5 -88.5t-8.5 -86.5q0 -45 26 -45q16 0 37 19.5t58 79.5q10 16 23.5 35.5t25.5 19.5q29 0 29 -29q0 -10 -19.5 -47t-50.5 -76q-41 -57 -75 -72.5t-73 -15.5q-25 0 -47 11.5t-37 42.5q-8 14 -11 37.5t-5 48.5 q-45 -59 -101.5 -101.5t-133.5 -42.5q-80 0 -131.5 56.5t-51.5 146.5zM354 864q0 -39 27 -66.5t61 -27.5q49 0 105.5 42t107.5 153q25 57 45.5 117.5t36.5 129.5q2 12 2 25v27q0 29 -25.5 48t-60.5 19q-41 0 -86 -26.5t-90 -87.5q-51 -72 -87 -162t-36 -191z" />
<glyph unicode="&#xab;" horiz-adv-x="995" d="M113 471v14l372 303q39 27 58 27q18 0 18 -20q0 -12 -33.5 -56.5t-97.5 -107.5l-168 -164q10 -16 31.5 -50t50.5 -89q35 -72 57.5 -119t22.5 -62q0 -4 -4 -12t-14 -8q-14 0 -27.5 11.5t-26.5 27.5zM471 467v14l373 303q39 27 57 27q19 0 19 -20q0 -12 -34 -56.5 t-98 -107.5l-167 -164q10 -16 31.5 -50t49.5 -89q35 -72 57.5 -119t22.5 -62q0 -4 -4 -12t-14 -8q-14 0 -27.5 11t-25.5 28z" />
<glyph unicode="&#xac;" horiz-adv-x="1556" d="M213 506v96h1145v-665h-105v569h-1040z" />
<glyph unicode="&#xad;" horiz-adv-x="692" d="M119 410v120h475v-120h-475z" />
<glyph unicode="&#xae;" horiz-adv-x="1208" d="M236 975q0 104 40.5 197.5t110.5 163t163 109.5t200 40q104 0 198 -40t165 -109.5t112 -163t41 -197.5q0 -106 -41 -199.5t-112 -163t-165 -110.5t-198 -41q-106 0 -199.5 41t-163.5 110.5t-110.5 162.5t-40.5 200zM289 975q0 -96 35.5 -181t98 -148.5t146.5 -100.5 t181 -37q96 0 179 37t146.5 100.5t99 148.5t35.5 181q0 94 -35.5 178t-99 147.5t-146.5 100.5t-179 37t-180.5 -37t-147 -100.5t-98 -147.5t-35.5 -178zM463 1262q0 6 3 9l7 7q39 0 89 -1t69 -1q33 0 65.5 1t77.5 1q35 0 64.5 -2t48.5 -6q57 -16 82.5 -57.5t25.5 -88.5 q0 -51 -33.5 -88t-119.5 -47v-8q61 -12 84 -37q16 -14 30.5 -34.5t24.5 -51.5q16 -41 35 -90q4 -14 12 -16q6 -2 30.5 -7.5t33.5 -7.5q4 -8 4 -14q0 -4 -2 -9t-4 -9h-162q-16 0 -22.5 10t-10.5 26q-8 41 -21.5 90.5t-33.5 75.5q-10 16 -27.5 35t-40.5 27q-18 6 -38.5 6 h-37.5h-14v-150q0 -23 4 -36t10 -23q10 -14 29.5 -18.5t48.5 -8.5q6 -8 6 -18q0 -6 -1 -9t-5 -7h-299q-8 8 -8 18q0 4 2 7t4 7q16 4 45 8.5t37 12.5q14 16 16 43q2 10 3 36.5t1 41.5v182q0 51 -2 84t-6 43q-6 27 -27.5 38t-68.5 15q-8 10 -8 21zM682 1020q10 -2 29 -2 q29 0 54.5 1t41.5 5q35 6 52.5 37.5t17.5 66.5q0 39 -19 66q-23 29 -51.5 35t-85.5 6q-27 0 -33 -2t-6 -12v-201z" />
<glyph unicode="&#xaf;" horiz-adv-x="479" d="M217 1223q0 23 18.5 45t49.5 22h549q34 0 34 -35q0 -23 -18.5 -45t-48.5 -22h-549q-35 0 -35 35z" />
<glyph unicode="&#xb0;" horiz-adv-x="845" d="M193 1145q0 68 23.5 128t66.5 104t100 70t125 26q57 0 115.5 -19.5t105.5 -59.5t77 -101.5t30 -145.5q0 -66 -24 -124t-65.5 -101t-100 -68t-126.5 -25q-63 0 -121.5 20.5t-104.5 60.5t-73.5 98.5t-27.5 136.5zM317 1153q0 -119 51.5 -186.5t147.5 -67.5q78 0 136.5 60.5 t58.5 183.5q0 131 -52.5 195.5t-144.5 64.5t-144.5 -67.5t-52.5 -182.5z" />
<glyph unicode="&#xb1;" horiz-adv-x="1640" d="M-383 -365q0 43 25.5 72t74.5 29q41 0 67 -25.5t30 -79.5q4 -53 13 -69.5t50 -16.5t74 39t53 84q10 25 37 97.5t55 195.5l199 819h-195q-23 0 -22 25q0 18 11 34.5t34 16.5h190l13 49q68 283 183.5 423t309.5 140q49 0 86 -12t64.5 -30.5t46 -41t28.5 -43.5 q119 137 332 138q70 0 110 -18.5t48 -18.5q4 0 21.5 5t33.5 5q27 0 35 -10t8 -33q0 -6 -2 -17.5t-6 -23.5l-344 -1188q-4 -12 -7 -26.5t-3 -22.5q0 -10 7 -16t17 -6q23 0 59 33.5t91 99.5q31 37 44 48t30 11q16 0 17 -7t1 -18q0 -18 -47 -86q-47 -59 -81 -97t-73 -66 q-57 -43 -116 -43q-37 0 -61.5 27.5t-24.5 76.5q0 16 3 40t7 40l178 612h-371l-184 -725q-35 -139 -77 -244.5t-97 -176t-129 -106.5t-172 -36q-80 0 -139.5 32t-90.5 77q-47 -53 -99 -86t-138 -33q-104 0 -155.5 44t-51.5 109zM145 -250q29 -10 45.5 -32.5t26.5 -71.5 t37 -67.5t80 -18.5q49 0 94 31.5t92 113.5q41 72 74 181.5t61 224.5l162 669h-389l-217 -843q-16 -59 -31.5 -103.5t-34.5 -83.5zM444 856h390q31 115 59 206t65 157q-57 14 -77 96q-10 41 -30 63.5t-77 22.5q-113 0 -194 -137q-37 -66 -69 -163t-67 -245zM967 856h376 l130 440q4 12 -6.5 32t-32 37t-53 30.5t-68.5 13.5q-74 0 -144.5 -66.5t-124.5 -212.5q-23 -59 -40 -124.5t-37 -149.5z" />
<glyph unicode="&#xb2;" horiz-adv-x="942" d="M215 721q0 4 2 13t19 24q6 6 25.5 21.5t45.5 31.5l268 174q55 37 88 63.5t50 41.5q41 37 65.5 78.5t24.5 91.5q0 66 -48 105.5t-126 39.5q-49 0 -94.5 -12.5t-81 -33t-56 -48t-20.5 -60.5q0 -47 29.5 -70.5t68.5 -23.5q43 0 63.5 21.5t32.5 40.5q4 6 11.5 6h9.5 q16 0 16 -25q0 -16 -11 -38.5t-22 -35.5q-18 -23 -45.5 -40t-62.5 -17q-72 0 -107.5 47t-35.5 111q0 49 25.5 96t69.5 85t104.5 60.5t127.5 22.5q135 0 211 -64.5t76 -173.5q0 -47 -19.5 -95t-60.5 -85q-29 -25 -64.5 -49.5t-111.5 -62.5q-121 -61 -205 -103.5t-102 -52.5 l2 -6q23 4 60.5 9t49.5 5q16 0 55.5 -2t75.5 -6q37 -4 64 -6t55 -2q18 0 37 3t25 7q14 8 26.5 27.5t28.5 48.5q4 14 25 14q14 0 17 -6t3 -14q0 -10 -8 -36t-19 -48q-16 -35 -29.5 -54.5t-27.5 -36.5q-8 -8 -20.5 -14t-28.5 -6q-29 0 -65.5 4t-100.5 12q-14 2 -39.5 5.5 t-55.5 6.5t-60.5 5t-57.5 2q-47 0 -81 -10.5t-56 -10.5q-35 0 -35 25z" />
<glyph unicode="&#xb3;" horiz-adv-x="921" d="M229 831q0 43 25 75t80 32q25 0 45 -13.5t20 -41.5q0 -27 -7 -42.5t-16 -24.5t-15.5 -18.5t-6.5 -25.5q0 -12 15.5 -21.5t35 -15.5t41 -9t33.5 -3q49 0 93 15.5t77 42t52.5 64.5t19.5 83q0 29 -14.5 57.5t-36.5 42.5q-25 16 -52.5 27.5t-44.5 15.5q-10 2 -11 7t-1 16 q0 10 10.5 14t20.5 8q29 8 52.5 15.5t41.5 17.5q47 27 62.5 62.5t15.5 74.5q0 47 -41 82t-113 35q-39 0 -73.5 -10.5t-61 -26.5t-43 -37.5t-16.5 -46.5q4 -53 65 -53q20 0 43 14t27 14q16 0 16 -20q0 -12 -9 -26.5t-26.5 -28t-40 -22.5t-47.5 -9q-49 0 -74.5 29.5 t-25.5 64.5q0 39 16.5 70t51.5 65q45 49 112.5 80t147.5 31q98 0 151.5 -43t53.5 -115q0 -86 -46.5 -135t-123.5 -84q72 -23 112.5 -60.5t40.5 -103.5q0 -70 -31.5 -123t-84 -89t-119 -53t-138.5 -17q-45 0 -91 8t-83 27.5t-60.5 51t-23.5 76.5z" />
<glyph unicode="&#xb4;" horiz-adv-x="479" d="M371 1092v8t2 6q35 37 73.5 79t75.5 80t65.5 69.5t43.5 45.5q35 37 60.5 53.5t58.5 14.5q35 -2 49 -24.5t12 -51.5q-2 -27 -13.5 -48t-66.5 -56t-137 -81t-186 -108q-10 -6 -24.5 -2t-12.5 15z" />
<glyph unicode="&#xb5;" horiz-adv-x="1118" d="M-80 -373q0 25 14.5 63t35 81t42 85t33.5 74q20 49 36.5 99.5t33.5 101.5q55 184 102 342t86 301q16 55 24.5 86t16.5 41q12 16 35 17h25.5t37.5 -5q10 -2 21.5 -5t11.5 -13q0 -6 -5 -22.5t-9 -26.5l-166 -531q-10 -29 -13 -74.5t-3 -70.5q0 -59 28.5 -84t61.5 -25 q49 0 98 27t93 69t79 93t55 98q29 70 67 180.5t77 245.5q29 111 41 127t34 17h25.5t38.5 -5q10 -2 21.5 -5t11.5 -13q0 -6 -5.5 -22.5t-9.5 -26.5l-153 -457q-10 -29 -21.5 -82t-11.5 -104q0 -45 4 -73t8 -38q6 -16 25 -16q23 0 55.5 31.5t83.5 125.5q20 37 27.5 48.5 t23.5 11.5t19.5 -9.5t3.5 -19.5q0 -25 -39 -96q-31 -57 -58.5 -92t-56.5 -58q-47 -39 -102 -38q-66 0 -90.5 44t-24.5 128q0 23 2 44t4 40q-27 -43 -60.5 -88.5t-75.5 -83t-93 -61t-113 -23.5q-18 0 -43.5 9t-50.5 28.5t-46.5 49t-31.5 70.5l-22 -98q-16 -68 -23.5 -118 t-17.5 -116q-2 -12 -3 -34.5t-2 -48t-3.5 -49t-6.5 -38.5q-14 -53 -40.5 -75.5t-65.5 -22.5q-31 0 -53.5 18.5t-22.5 71.5z" />
<glyph unicode="&#xb6;" horiz-adv-x="1097" d="M152 930q0 80 28.5 174t92 175t166 136t251.5 55h119l-238 -884q-129 0 -209.5 29.5t-128 77.5t-64.5 110.5t-17 126.5zM248 -348l28 37q39 -2 64 -2h41h53.5t36.5 4q4 0 8 3t6 9l473 1767h289l13 -34l-31 -39q-37 2 -60.5 2h-40.5h-55t-37 -4q-10 0 -14 -13l-475 -1767 h-291z" />
<glyph unicode="&#xb7;" horiz-adv-x="528" d="M193 694q0 55 36.5 92t89.5 37q47 0 80 -28.5t33 -89.5t-38 -95.5t-93 -34.5q-53 0 -80.5 36t-27.5 83z" />
<glyph unicode="&#xb8;" horiz-adv-x="479" d="M8 -412q0 35 39 39q41 -29 74 -44t69 -15q59 0 95.5 31.5t36.5 81.5q0 43 -28 68.5t-71 25.5q-23 0 -40 -7.5t-36 -15.5l-12 21l88 227h51l-55 -150q31 10 55 11q84 0 132.5 -45t48.5 -123q0 -94 -74 -146.5t-184 -52.5q-47 0 -81 11.5t-56.5 26.5t-35 30.5t-16.5 25.5z " />
<glyph unicode="&#xb9;" horiz-adv-x="798" d="M227 713q0 8 5.5 12t9.5 10q14 0 36.5 2t45 5t42 7.5t29.5 10.5q8 4 19.5 15t19.5 28q16 31 27.5 68.5t21.5 78.5l86 326q4 20 7.5 40.5t3.5 31.5q0 18 -17.5 27t-42 13.5t-54.5 6.5t-54 4q-4 8 -4 13v9q0 6 4 14.5t8 12.5h37q14 0 40.5 -1t57.5 -2t61.5 -2t51.5 -1 q29 0 66.5 1t72.5 1t62.5 1t33.5 1q4 -8 6 -12.5t2 -12.5t-5 -13t-9 -11q-14 0 -33.5 -2t-40 -5.5t-38 -7.5t-27.5 -10q-8 -4 -18.5 -15t-20.5 -28q-16 -29 -25.5 -62.5t-23.5 -86.5l-88 -334q-4 -16 -7.5 -33.5t-3.5 -28.5q0 -18 15.5 -27t40 -13.5t52.5 -6.5t52 -4 q4 -10 4 -20q0 -6 -4 -14.5t-8 -12.5l-37 -2h-31.5t-48 2t-53.5 3t-47 1h-72t-85 -1t-74.5 -1h-38.5q-4 8 -6.5 12.5t-2.5 12.5z" />
<glyph unicode="&#xba;" horiz-adv-x="843" d="M132 370.5q-3 12.5 1 28.5t11.5 27.5t17.5 11.5h538q10 0 13.5 -10.5t-0.5 -26.5t-11.5 -29.5t-17.5 -13.5h-539q-10 0 -13 12.5zM233 944q0 68 11.5 116t38.5 97q25 49 60.5 91t80.5 75t96 51.5t107 18.5q111 0 171 -64.5t60 -185.5q0 -94 -28.5 -169t-98.5 -153 q-66 -72 -130 -100.5t-140 -28.5q-111 0 -169.5 67.5t-58.5 184.5zM342 868q0 -51 33 -85.5t82 -34.5q43 0 90 26.5t84 85.5q59 92 85.5 170t26.5 174q0 63 -32.5 97t-77.5 34q-47 0 -100.5 -34.5t-94.5 -110.5q-45 -86 -70.5 -166t-25.5 -156z" />
<glyph unicode="&#xbb;" horiz-adv-x="995" d="M72 160q0 12 33.5 56t97.5 108l168 163q-10 16 -32 50t-50 90q-35 72 -57.5 119t-22.5 61q0 4 4 12t14 8q14 0 27.5 -11t26.5 -28l239 -305v-14l-373 -303q-39 -27 -57 -27t-18 21zM430 156q0 12 34 56t97 107l168 164q-10 16 -31.5 50t-50.5 90q-35 72 -57.5 118.5 t-22.5 61.5q0 4 4 12t15 8q14 0 27.5 -11t25.5 -28l240 -305v-14l-373 -303q-39 -27 -57 -27t-19 21z" />
<glyph unicode="&#xbc;" horiz-adv-x="1228" d="M94 477q0 18 10.5 31.5t20.5 13.5h1042q19 0 19 -35q0 -16 -10.5 -31.5t-20.5 -15.5h-1042q-10 0 -14.5 10.5t-4.5 26.5zM127 -252q0 8 2 17.5t12 21.5q8 10 25.5 26.5t40.5 39.5q43 41 102.5 94t130.5 116q41 37 80 72t64 58q41 35 70.5 63.5t52.5 46.5q8 8 26.5 13.5 t28.5 5.5t22.5 -5.5t14.5 -21.5q0 -4 -11 -39q-12 -39 -28.5 -93t-32.5 -117.5t-33.5 -131.5t-31.5 -131q37 2 72.5 5t64.5 9q12 4 22 5t15 1q18 0 23 -11.5t5 -31.5q0 -16 -13 -26t-50 -17q-55 -6 -92 -8t-66 -2q-4 -16 -7 -30.5t-11 -45.5t-16.5 -61.5t-16.5 -58.5 q-12 -43 -55 -31l-41 10q-27 6 -27 29q0 4 1 8l3 12l49 172q-29 4 -70.5 7t-89.5 3q-59 0 -114 -9t-74 -9q-29 0 -38 14.5t-9 30.5zM240 -215q31 4 72.5 8t82.5 4q33 0 68 -3t74 -7l30 113q12 49 22.5 82.5t17.5 62.5t15.5 54.5t16.5 58.5q-18 -16 -36.5 -32.5t-42 -38 t-55.5 -51.5t-79 -73q-37 -35 -63.5 -58.5t-47 -44l-38 -38zM449 713q0 8 5 12t9 10q14 0 36.5 2t45 5t42 7.5t29.5 10.5q8 4 19.5 15t19.5 28q16 31 27.5 68.5t22.5 78.5l86 326q4 20 7 40.5t3 31.5q0 18 -17.5 27t-42 13.5t-54.5 6.5t-54 4q-4 8 -4 13v9q0 6 4 14.5 t8 12.5h37q14 0 40.5 -1t57.5 -2t61.5 -2t51.5 -1q29 0 66.5 1t72.5 1t62.5 1t33.5 1q4 -8 6.5 -12.5t2.5 -12.5t-5.5 -13t-9.5 -11q-14 0 -33.5 -2t-40 -5.5t-38 -7.5t-27.5 -10q-8 -4 -18.5 -15t-20.5 -28q-16 -29 -25.5 -62.5t-23.5 -86.5l-88 -334q-4 -16 -7 -33.5 t-3 -28.5q0 -18 15 -27t39.5 -13.5t52.5 -6.5t52 -4q4 -10 4 -20q0 -6 -4 -14.5t-8 -12.5l-37 -2h-31.5t-48 2t-53 3t-47.5 1h-72t-85 -1t-74.5 -1h-38.5q-4 8 -6 12.5t-2 12.5z" />
<glyph unicode="&#xbd;" horiz-adv-x="1228" d="M94 477q0 18 10.5 31.5t20.5 13.5h1042q19 0 19 -35q0 -16 -10.5 -31.5t-20.5 -15.5h-1042q-10 0 -14.5 10.5t-4.5 26.5zM127 -489q0 4 2 13t18 23q6 6 26 21.5t46 32.5l275 174q55 37 91 63.5t52 40.5q41 37 66.5 79t25.5 91q0 66 -52 106t-130 40q-49 0 -95 -12.5 t-83 -33t-58.5 -48t-21.5 -60.5q0 -47 29.5 -70.5t68.5 -23.5q43 0 63.5 21.5t32.5 39.5q4 6 11.5 6h9.5q16 0 16 -24q0 -16 -11 -39t-22 -35q-18 -23 -45.5 -40t-62.5 -17q-72 0 -107.5 47t-35.5 110q0 49 26.5 96.5t71.5 85.5t106.5 60.5t128.5 22.5q135 0 215 -64.5 t80 -173.5q0 -47 -20.5 -95t-61.5 -85q-29 -25 -67.5 -49.5t-114.5 -63.5q-121 -61 -208 -103t-105 -53l2 -6q12 2 29.5 4t35 4.5l31.5 4.5t21 2q16 0 55 -2t76 -7q37 -4 66.5 -6t58.5 -2q18 0 37.5 3t25.5 8q14 8 26.5 27.5t28.5 47.5q4 14 25 15q14 0 17 -6.5t3 -14.5 q0 -10 -8 -35.5t-18 -48.5q-16 -35 -29.5 -54.5t-28.5 -35.5q-8 -8 -20 -14t-29 -6q-29 0 -69.5 4t-104.5 12q-14 2 -40.5 5t-57.5 6t-62.5 5t-58.5 2q-47 0 -81 -10t-56 -10q-35 0 -35 25zM449 713q0 8 5 12t9 10q14 0 36.5 2t45 5t42 7.5t29.5 10.5q8 4 19.5 15t19.5 28 q16 31 27.5 68.5t22.5 78.5l86 326q4 20 7 40.5t3 31.5q0 18 -17.5 27t-42 13.5t-54.5 6.5t-54 4q-4 8 -4 13v9q0 6 4 14.5t8 12.5h37q14 0 40.5 -1t57.5 -2t61.5 -2t51.5 -1q29 0 66.5 1t72.5 1t62.5 1t33.5 1q4 -8 6.5 -12.5t2.5 -12.5t-5.5 -13t-9.5 -11q-14 0 -33.5 -2 t-40 -5.5t-38 -7.5t-27.5 -10q-8 -4 -18.5 -15t-20.5 -28q-16 -29 -25.5 -62.5t-23.5 -86.5l-88 -334q-4 -16 -7 -33.5t-3 -28.5q0 -18 15 -27t39.5 -13.5t52.5 -6.5t52 -4q4 -10 4 -20q0 -6 -4 -14.5t-8 -12.5l-37 -2h-31.5t-48 2t-53 3t-47.5 1h-72t-85 -1t-74.5 -1h-38.5 q-4 8 -6 12.5t-2 12.5z" />
<glyph unicode="&#xbe;" horiz-adv-x="1228" d="M94 477q0 18 10.5 31.5t20.5 13.5h1042q19 0 19 -35q0 -16 -10.5 -31.5t-20.5 -15.5h-1042q-10 0 -14.5 10.5t-4.5 26.5zM127 -252q0 8 2 17.5t12 21.5q8 10 25.5 26.5t40.5 39.5q43 41 102.5 94t130.5 116q41 37 80 72t64 58q41 35 70.5 63.5t52.5 46.5q8 8 26.5 13.5 t28.5 5.5t22.5 -5.5t14.5 -21.5q0 -4 -11 -39q-12 -39 -28.5 -93t-32.5 -117.5t-33.5 -131.5t-31.5 -131q37 2 72.5 5t64.5 9q12 4 22 5t15 1q18 0 23 -11.5t5 -31.5q0 -16 -13 -26t-50 -17q-55 -6 -92 -8t-66 -2q-4 -16 -7 -30.5t-11 -45.5t-16.5 -61.5t-16.5 -58.5 q-12 -43 -55 -31l-41 10q-27 6 -27 29q0 4 1 8l3 12l49 172q-29 4 -70.5 7t-89.5 3q-59 0 -114 -9t-74 -9q-29 0 -38 14.5t-9 30.5zM240 -215q31 4 72.5 8t82.5 4q33 0 68 -3t74 -7l30 113q12 49 22.5 82.5t17.5 62.5t15.5 54.5t16.5 58.5q-18 -16 -36.5 -32.5t-42 -38 t-55.5 -51.5t-79 -73q-37 -35 -63.5 -58.5t-47 -44l-38 -38zM408 831q0 43 24.5 75t79.5 32q25 0 45.5 -13.5t20.5 -41.5q0 -27 -7.5 -42.5t-16.5 -24.5t-15.5 -18.5t-6.5 -25.5q0 -12 15.5 -21.5t35 -15.5t41 -9t33.5 -3q49 0 93.5 15.5t77 42t52 64.5t19.5 83 q0 29 -14.5 57.5t-36.5 42.5q-25 16 -52.5 27.5t-43.5 15.5q-10 2 -11.5 7t-1.5 16q0 10 10.5 14t20.5 8q29 8 52.5 15.5t41.5 17.5q47 27 62.5 62.5t15.5 74.5q0 47 -41 82t-113 35q-39 0 -73.5 -10.5t-61 -26.5t-43 -37.5t-16.5 -46.5q4 -53 65 -53q20 0 43 14t27 14 q16 0 16 -20q0 -12 -9 -26.5t-26.5 -28t-40 -22.5t-46.5 -9q-49 0 -75 29.5t-26 64.5q0 39 16.5 70t51.5 65q45 49 112.5 80t147.5 31q98 0 151.5 -43t53.5 -115q0 -86 -46 -135t-124 -84q72 -23 112.5 -60.5t40.5 -103.5q0 -70 -31.5 -123t-84 -89t-119 -53t-137.5 -17 q-45 0 -91.5 8t-83 27.5t-60 51t-23.5 76.5z" />
<glyph unicode="&#xbf;" horiz-adv-x="872" d="M-59 -205q0 117 67 209q55 74 150.5 136.5t212.5 119.5q164 82 164 170q0 47 -27 71.5t-62 24.5q-33 0 -54 -14t-37.5 -30.5t-33 -31t-38.5 -14.5q-29 0 -45.5 15.5t-16.5 40.5q0 31 9.5 46t25.5 27q33 23 76 36t96 13q78 0 129 -45.5t51 -115.5q0 -76 -39 -126.5 t-104 -101.5q-117 -88 -201 -158.5t-133 -138.5q-41 -53 -53 -103t-12 -104q0 -72 51 -117.5t129 -45.5q72 0 119 26.5t47 61.5q0 20 -27 35q-41 23 -53.5 49t-12.5 45q0 43 28 66.5t73 23.5q63 0 93 -40t30 -95q0 -45 -19.5 -87t-55.5 -75t-86 -52.5t-112 -19.5 q-72 0 -132 18.5t-104 56.5t-68.5 94t-24.5 130zM440 860q0 53 27 89t80 36q51 0 86 -32t35 -83q0 -55 -33 -83.5t-86 -28.5q-45 0 -77 28.5t-32 73.5z" />
<glyph unicode="&#xc0;" horiz-adv-x="1409" d="M-96 23q0 16 8 30q86 6 139 38t82 69q29 35 56.5 81t50.5 87q57 117 118.5 236.5t124.5 242.5q31 59 67 125.5t72.5 134.5t71.5 132.5t62 115.5l49 37l104 139q6 6 27 6q4 0 11 -2t9 -8q4 -20 9.5 -55t7.5 -58q2 -33 20.5 -148.5t46.5 -318.5q16 -106 31.5 -212.5 t32 -207t32 -189.5t29.5 -159q6 -29 21.5 -44t38 -22t54.5 -11.5t71 -8.5q2 -6 5 -13t3 -11q0 -8 -4 -16.5t-8 -12.5h-52q-20 0 -50 1t-60.5 2t-59 2t-51.5 1q-98 0 -175 -3t-93 -3q-4 6 -7 11t-3 16q0 10 3 15t7 13q18 2 45 6.5t53.5 7.5t49 7t32.5 6v53q0 35 -4 78t-10 90 q-16 109 -24.5 167t-14.5 89h-457l-41 -10q-20 -37 -127 -273q-33 -76 -33 -114q0 -33 12.5 -53.5t35 -30.5t54.5 -15.5t73 -9.5q2 -6 5 -13t3 -11q0 -8 -4 -16.5t-9 -12.5h-51q-20 0 -50 1t-61.5 3t-60 3t-51.5 1q-98 0 -170 -4t-88 -4l-6 9t-2 14zM479 639q33 -4 83 -7 t110 -3q78 0 140 1t103 7q-6 55 -16 142t-27 188q-20 133 -30.5 193.5t-14.5 78.5q-4 8 -5 16.5t-9 8.5t-14 -13.5t-13 -23.5q-16 -29 -47.5 -86.5t-71.5 -136t-88.5 -172t-99.5 -193.5zM711 1874q0 41 26.5 62.5t50.5 21.5q33 0 54.5 -19.5t44.5 -54.5q10 -14 29.5 -47 t44 -73t51 -83t51.5 -77q4 -5 4 -17q0 -10 -12.5 -18t-28.5 4q-86 68 -146.5 122t-105.5 89q-39 29 -51 48t-12 42z" />
<glyph unicode="&#xc1;" horiz-adv-x="1409" d="M-96 23q0 16 8 30q86 6 139 38t82 69q29 35 56.5 81t50.5 87q57 117 118.5 236.5t124.5 242.5q31 59 67 125.5t72.5 134.5t71.5 132.5t62 115.5l49 37l104 139q6 6 27 6q4 0 11 -2t9 -8q4 -20 9.5 -55t7.5 -58q2 -33 20.5 -148.5t46.5 -318.5q16 -106 31.5 -212.5 t32 -207t32 -189.5t29.5 -159q6 -29 21.5 -44t38 -22t54.5 -11.5t71 -8.5q2 -6 5 -13t3 -11q0 -8 -4 -16.5t-8 -12.5h-52q-20 0 -50 1t-60.5 2t-59 2t-51.5 1q-98 0 -175 -3t-93 -3q-4 6 -7 11t-3 16q0 10 3 15t7 13q18 2 45 6.5t53.5 7.5t49 7t32.5 6v53q0 35 -4 78t-10 90 q-16 109 -24.5 167t-14.5 89h-457l-41 -10q-20 -37 -127 -273q-33 -76 -33 -114q0 -33 12.5 -53.5t35 -30.5t54.5 -15.5t73 -9.5q2 -6 5 -13t3 -11q0 -8 -4 -16.5t-9 -12.5h-51q-20 0 -50 1t-61.5 3t-60 3t-51.5 1q-98 0 -170 -4t-88 -4l-6 9t-2 14zM479 639q33 -4 83 -7 t110 -3q78 0 140 1t103 7q-6 55 -16 142t-27 188q-20 133 -30.5 193.5t-14.5 78.5q-4 8 -5 16.5t-9 8.5t-14 -13.5t-13 -23.5q-16 -29 -47.5 -86.5t-71.5 -136t-88.5 -172t-99.5 -193.5zM760 1583v8t2 6q35 37 73.5 79t75.5 80t66 70t43 46q35 37 60.5 53.5t58.5 13.5 q35 -2 49 -24t12 -51q-2 -27 -13 -48.5t-67 -56.5q-55 -35 -137 -81t-186 -107q-10 -6 -24.5 -2t-12.5 14z" />
<glyph unicode="&#xc2;" horiz-adv-x="1409" d="M-96 23q0 16 8 30q86 6 139 38t82 69q29 35 56.5 81t50.5 87q57 117 118.5 236.5t124.5 242.5q31 59 67 125.5t72.5 134.5t71.5 132.5t62 115.5l49 37l104 139q6 6 27 6q4 0 11 -2t9 -8q4 -20 9.5 -55t7.5 -58q2 -33 20.5 -148.5t46.5 -318.5q16 -106 31.5 -212.5 t32 -207t32 -189.5t29.5 -159q6 -29 21.5 -44t38 -22t54.5 -11.5t71 -8.5q2 -6 5 -13t3 -11q0 -8 -4 -16.5t-8 -12.5h-52q-20 0 -50 1t-60.5 2t-59 2t-51.5 1q-98 0 -175 -3t-93 -3q-4 6 -7 11t-3 16q0 10 3 15t7 13q18 2 45 6.5t53.5 7.5t49 7t32.5 6v53q0 35 -4 78t-10 90 q-16 109 -24.5 167t-14.5 89h-457l-41 -10q-20 -37 -127 -273q-33 -76 -33 -114q0 -33 12.5 -53.5t35 -30.5t54.5 -15.5t73 -9.5q2 -6 5 -13t3 -11q0 -8 -4 -16.5t-9 -12.5h-51q-20 0 -50 1t-61.5 3t-60 3t-51.5 1q-98 0 -170 -4t-88 -4l-6 9t-2 14zM479 639q33 -4 83 -7 t110 -3q78 0 140 1t103 7q-6 55 -16 142t-27 188q-20 133 -30.5 193.5t-14.5 78.5q-4 8 -5 16.5t-9 8.5t-14 -13.5t-13 -23.5q-16 -29 -47.5 -86.5t-71.5 -136t-88.5 -172t-99.5 -193.5zM630 1566.5q-1 10.5 11 26.5l248 283q29 31 51.5 49.5t54.5 18.5q39 0 55.5 -18.5 t32.5 -53.5l125 -279q6 -12 5 -24.5t-17 -12.5q-12 0 -22 9l-189 239l-315 -241q-12 -6 -23 -7q-16 0 -17 10.5z" />
<glyph unicode="&#xc3;" horiz-adv-x="1409" d="M-96 23q0 16 8 30q86 6 139 38t82 69q29 35 56.5 81t50.5 87q57 117 118.5 236.5t124.5 242.5q31 59 67 125.5t72.5 134.5t71.5 132.5t62 115.5l49 37l104 139q6 6 27 6q4 0 11 -2t9 -8q4 -20 9.5 -55t7.5 -58q2 -33 20.5 -148.5t46.5 -318.5q16 -106 31.5 -212.5 t32 -207t32 -189.5t29.5 -159q6 -29 21.5 -44t38 -22t54.5 -11.5t71 -8.5q2 -6 5 -13t3 -11q0 -8 -4 -16.5t-8 -12.5h-52q-20 0 -50 1t-60.5 2t-59 2t-51.5 1q-98 0 -175 -3t-93 -3q-4 6 -7 11t-3 16q0 10 3 15t7 13q18 2 45 6.5t53.5 7.5t49 7t32.5 6v53q0 35 -4 78t-10 90 q-16 109 -24.5 167t-14.5 89h-457l-41 -10q-20 -37 -127 -273q-33 -76 -33 -114q0 -33 12.5 -53.5t35 -30.5t54.5 -15.5t73 -9.5q2 -6 5 -13t3 -11q0 -8 -4 -16.5t-9 -12.5h-51q-20 0 -50 1t-61.5 3t-60 3t-51.5 1q-98 0 -170 -4t-88 -4l-6 9t-2 14zM479 639q33 -4 83 -7 t110 -3q78 0 140 1t103 7q-6 55 -16 142t-27 188q-20 133 -30.5 193.5t-14.5 78.5q-4 8 -5 16.5t-9 8.5t-14 -13.5t-13 -23.5q-16 -29 -47.5 -86.5t-71.5 -136t-88.5 -172t-99.5 -193.5zM596 1655q29 92 90.5 146t138.5 54q29 0 67 -14t79 -37q47 -25 72.5 -36t43.5 -11 q47 0 73 32t44 71q4 12 16.5 19t22.5 7q33 0 21 -37q-29 -92 -90.5 -147t-139.5 -55q-29 0 -61.5 12t-83.5 41q-76 47 -117 47q-47 0 -72.5 -32t-44.5 -70q-4 -12 -16 -19.5t-23 -7.5q-33 0 -20 37z" />
<glyph unicode="&#xc4;" horiz-adv-x="1409" d="M-96 23q0 16 8 30q86 6 139 38t82 69q29 35 56.5 81t50.5 87q57 117 118.5 236.5t124.5 242.5q31 59 67 125.5t72.5 134.5t71.5 132.5t62 115.5l49 37l104 139q6 6 27 6q4 0 11 -2t9 -8q4 -20 9.5 -55t7.5 -58q2 -33 20.5 -148.5t46.5 -318.5q16 -106 31.5 -212.5 t32 -207t32 -189.5t29.5 -159q6 -29 21.5 -44t38 -22t54.5 -11.5t71 -8.5q2 -6 5 -13t3 -11q0 -8 -4 -16.5t-8 -12.5h-52q-20 0 -50 1t-60.5 2t-59 2t-51.5 1q-98 0 -175 -3t-93 -3q-4 6 -7 11t-3 16q0 10 3 15t7 13q18 2 45 6.5t53.5 7.5t49 7t32.5 6v53q0 35 -4 78t-10 90 q-16 109 -24.5 167t-14.5 89h-457l-41 -10q-20 -37 -127 -273q-33 -76 -33 -114q0 -33 12.5 -53.5t35 -30.5t54.5 -15.5t73 -9.5q2 -6 5 -13t3 -11q0 -8 -4 -16.5t-9 -12.5h-51q-20 0 -50 1t-61.5 3t-60 3t-51.5 1q-98 0 -170 -4t-88 -4l-6 9t-2 14zM479 639q33 -4 83 -7 t110 -3q78 0 140 1t103 7q-6 55 -16 142t-27 188q-20 133 -30.5 193.5t-14.5 78.5q-4 8 -5 16.5t-9 8.5t-14 -13.5t-13 -23.5q-16 -29 -47.5 -86.5t-71.5 -136t-88.5 -172t-99.5 -193.5zM598 1735q0 23 7 43t24 34q31 31 78 31q39 0 75 -31q16 -14 23.5 -34t7.5 -43 q0 -20 -7 -41t-24 -35q-31 -31 -77 -31q-45 0 -76 31q-16 14 -23.5 34.5t-7.5 41.5zM1014 1735q0 23 8 43t25 34q37 31 77 31q45 0 76 -31q16 -14 23.5 -34t7.5 -43q0 -20 -7 -41t-24 -35q-31 -31 -76 -31q-47 0 -77 31q-16 14 -24.5 34.5t-8.5 41.5z" />
<glyph unicode="&#xc5;" horiz-adv-x="1409" d="M-96 23q0 16 8 30q86 6 139 38t82 69q29 35 56.5 81t50.5 87q57 117 118.5 236.5t124.5 242.5q31 59 67 125.5t72.5 134.5t71.5 132.5t62 115.5l49 37l104 139q6 6 27 6q4 0 11 -2t9 -8q4 -20 9.5 -55t7.5 -58q2 -33 20.5 -148.5t46.5 -318.5q16 -106 31.5 -212.5 t32 -207t32 -189.5t29.5 -159q6 -29 21.5 -44t38 -22t54.5 -11.5t71 -8.5q2 -6 5 -13t3 -11q0 -8 -4 -16.5t-8 -12.5h-52q-20 0 -50 1t-60.5 2t-59 2t-51.5 1q-98 0 -175 -3t-93 -3q-4 6 -7 11t-3 16q0 10 3 15t7 13q18 2 45 6.5t53.5 7.5t49 7t32.5 6v53q0 35 -4 78t-10 90 q-16 109 -24.5 167t-14.5 89h-457l-41 -10q-20 -37 -127 -273q-33 -76 -33 -114q0 -33 12.5 -53.5t35 -30.5t54.5 -15.5t73 -9.5q2 -6 5 -13t3 -11q0 -8 -4 -16.5t-9 -12.5h-51q-20 0 -50 1t-61.5 3t-60 3t-51.5 1q-98 0 -170 -4t-88 -4l-6 9t-2 14zM479 639q33 -4 83 -7 t110 -3q78 0 140 1t103 7q-6 55 -16 142t-27 188q-20 133 -30.5 193.5t-14.5 78.5q-4 8 -5 16.5t-9 8.5t-14 -13.5t-13 -23.5q-16 -29 -47.5 -86.5t-71.5 -136t-88.5 -172t-99.5 -193.5zM711 1737q0 49 20.5 93t56 76.5t84 52t103.5 19.5q98 0 147 -59t49 -143 q0 -43 -18 -86t-53 -77t-84 -55.5t-111 -21.5q-96 0 -145 56.5t-49 144.5zM813 1710q0 -66 25.5 -96.5t68.5 -30.5q63 0 111.5 62.5t48.5 160.5q0 53 -23.5 89t-70.5 36q-31 0 -59.5 -19.5t-51 -51t-36 -71.5t-13.5 -79z" />
<glyph unicode="&#xc6;" horiz-adv-x="2074" d="M-174 23q0 14 8 28q72 4 137.5 37t104.5 70q41 35 83 83t79 91q178 231 385 477q49 59 94 113.5t90 107.5t92 109.5t98 120.5q16 20 30.5 43.5t14.5 52.5q0 16 -11 26.5t-28.5 16.5t-38 9t-38.5 5q-35 4 -59.5 4t-30.5 2q-4 2 -6.5 9.5t-2.5 15.5q0 18 11 22q8 4 21 3 t40 -1q10 0 56 -1t104.5 -3t118 -3t92.5 -1q49 0 98 2t106.5 3t127 3t157.5 2h181.5t78.5 -4q12 -4 13 -26l2 -326q0 -6 -6.5 -12t-22.5 -6t-23 8q-4 6 -10 24.5t-13 41t-13.5 44t-12.5 33.5q-25 55 -61.5 97t-77.5 57q-16 6 -51 8t-80 2h-129q-31 0 -50.5 -1t-32.5 -7 t-22.5 -18.5t-15.5 -34.5l-160 -555q35 -2 67 -2h73q88 0 130 18t81 61q4 6 15 21.5t23.5 34t24.5 37t21 32.5q6 8 26 9q23 0 23 -15q0 -10 -16.5 -59t-45.5 -121q-8 -23 -20.5 -57.5t-25.5 -76.5t-26.5 -88t-25.5 -91q-2 -12 -29 -13q-10 0 -17 6.5t-7 10.5q0 33 7 78t7 65 q0 31 -7 46.5t-30 25.5q-8 4 -37.5 7t-54.5 3h-176l-96 -330q-16 -53 -23.5 -103t-7.5 -81q0 -86 58.5 -121t199.5 -35q104 0 178 14.5t127 45.5q31 18 59.5 40.5t56 54.5t57.5 78t65 113q4 12 26 13q16 0 22.5 -7.5t4.5 -11.5l-86 -370q-6 -27 -25 -29q-10 -2 -40.5 -2 h-73.5q-45 0 -150.5 3t-273.5 3h-364t-277 -4l-6 9t-2 13q0 14 8 29q63 10 105 16.5t69.5 22.5t45 49t36.5 92l125 428h-459q-23 -27 -57.5 -70.5t-74.5 -96t-81 -108.5t-74 -110q-35 -53 -53.5 -95t-18.5 -62q0 -23 14.5 -34t38 -17.5t55.5 -8.5t67 -6q2 -6 5 -12t3 -10 q0 -10 -5 -17.5t-10 -11.5h-84q-43 0 -105 3t-106 3q-98 0 -177 -2t-95 -2l-6 9t-2 14zM643 721h424l143 491q12 41 21.5 84.5t9.5 63.5q0 27 -12 26q-8 0 -21.5 -9t-27 -23.5t-26.5 -28.5t-24 -27q-78 -86 -203.5 -232t-283.5 -345z" />
<glyph unicode="&#xc7;" horiz-adv-x="1355" d="M94 514q0 139 36 268t101 252q53 98 129 183.5t167 146.5t193.5 96t207.5 35q66 0 116 -13.5t92 -34t75.5 -46t66.5 -51.5l102 94q6 6 23 6q20 0 20 -16q0 -4 -2 -15.5t-6 -21.5l-112 -398q-2 -8 -8.5 -11t-12.5 -3q-20 0 -25 12q-2 10 -6 39t-7 64t-7 67.5t-6 51.5 q-6 45 -33 83.5t-67.5 66.5t-92 44.5t-106.5 16.5q-98 0 -190.5 -46.5t-172.5 -132.5t-144.5 -207.5t-107.5 -275.5q-33 -111 -44 -206t-11 -185q0 -156 84 -248t238 -92q59 0 113.5 15.5t113.5 45.5q59 31 144 117t169 197q6 8 27 8q18 0 18 -14q2 -4 0 -11q-2 -4 -3 -10 t-5 -16l-129 -414q-4 -14 -22 -14q-23 0 -25 10q-12 35 -25.5 75t-29.5 58q-53 -31 -130 -66.5t-182 -46.5l-75 -121q14 4 25.5 7.5t25.5 3.5q84 0 132 -45t48 -123q0 -94 -73.5 -146.5t-184.5 -52.5q-47 0 -82 11.5t-58.5 26.5t-37.5 30.5t-19 25.5q0 35 39 39 q82 -59 152 -59q59 0 95 31.5t36 81.5q0 43 -27.5 68.5t-70.5 25.5q-23 0 -44.5 -7.5t-39.5 -15.5l-13 21l121 196q-92 0 -177 34t-150.5 101.5t-105.5 170t-40 239.5z" />
<glyph unicode="&#xc8;" horiz-adv-x="1325" d="M-90 18q0 16 8 31q57 4 97 14.5t68 31t47.5 53t33.5 81.5l280 985q12 45 17 86q-2 37 -27 82q-6 10 -30.5 17.5t-57.5 9.5q-35 2 -57.5 2t-28.5 2q-4 2 -6 10.5t-2 16.5q0 20 10 24q8 4 21.5 3t40.5 -1q18 0 82.5 -2t132.5 -2q49 0 99 2t108.5 3t130 3.5t159.5 2.5 q111 0 180.5 -1.5t77.5 -5.5t10.5 -11t2.5 -17l2 -314q0 -6 -5.5 -12t-21.5 -6q-18 0 -25 8q-4 6 -10 23.5t-13 37t-13.5 40t-12.5 32.5q-25 55 -61.5 96t-77.5 54q-16 4 -51 7t-78 1l-266 -6q-6 -14 -15.5 -36t-17.5 -46.5t-16.5 -48t-14.5 -43.5l-121 -410q35 -4 92.5 -8 t98.5 -4q76 0 118 16.5t81 59.5q4 6 15 21t23.5 33.5t25.5 37t22 33.5q6 8 26 8q23 0 23 -15q0 -10 -16.5 -59t-45.5 -121l-20 -57.5t-25.5 -76.5t-27 -88t-25.5 -91q-2 -12 -29 -12q-10 0 -17 6t-7 10q0 33 7 78t7 65q0 33 -11 47.5t-34 28.5q-6 4 -30.5 7t-55.5 5l-215 6 l-94 -348q-14 -53 -22.5 -103t-8.5 -81q0 -86 66.5 -119t207.5 -33q104 0 188.5 13.5t137.5 44.5q31 18 59.5 39.5t56 54.5t57.5 78t65 112q2 6 10 9.5t18 3.5q16 0 21.5 -7.5t3.5 -11.5l-86 -366q-6 -25 -25 -27q-10 -2 -39.5 -3t-72.5 -1q-45 0 -172 2t-295 2 q-195 0 -356.5 -1t-270.5 -7l-6 9t-2 13zM664 1874q0 41 26.5 62.5t50.5 21.5q33 0 54.5 -19.5t44.5 -54.5q10 -14 29.5 -47t44 -73t51 -83t51.5 -77q4 -5 4 -17q0 -10 -12.5 -18t-28.5 4q-86 68 -146.5 122t-105.5 89q-39 29 -51 48t-12 42z" />
<glyph unicode="&#xc9;" horiz-adv-x="1325" d="M-90 18q0 16 8 31q57 4 97 14.5t68 31t47.5 53t33.5 81.5l280 985q12 45 17 86q-2 37 -27 82q-6 10 -30.5 17.5t-57.5 9.5q-35 2 -57.5 2t-28.5 2q-4 2 -6 10.5t-2 16.5q0 20 10 24q8 4 21.5 3t40.5 -1q18 0 82.5 -2t132.5 -2q49 0 99 2t108.5 3t130 3.5t159.5 2.5 q111 0 180.5 -1.5t77.5 -5.5t10.5 -11t2.5 -17l2 -314q0 -6 -5.5 -12t-21.5 -6q-18 0 -25 8q-4 6 -10 23.5t-13 37t-13.5 40t-12.5 32.5q-25 55 -61.5 96t-77.5 54q-16 4 -51 7t-78 1l-266 -6q-6 -14 -15.5 -36t-17.5 -46.5t-16.5 -48t-14.5 -43.5l-121 -410q35 -4 92.5 -8 t98.5 -4q76 0 118 16.5t81 59.5q4 6 15 21t23.5 33.5t25.5 37t22 33.5q6 8 26 8q23 0 23 -15q0 -10 -16.5 -59t-45.5 -121l-20 -57.5t-25.5 -76.5t-27 -88t-25.5 -91q-2 -12 -29 -12q-10 0 -17 6t-7 10q0 33 7 78t7 65q0 33 -11 47.5t-34 28.5q-6 4 -30.5 7t-55.5 5l-215 6 l-94 -348q-14 -53 -22.5 -103t-8.5 -81q0 -86 66.5 -119t207.5 -33q104 0 188.5 13.5t137.5 44.5q31 18 59.5 39.5t56 54.5t57.5 78t65 112q2 6 10 9.5t18 3.5q16 0 21.5 -7.5t3.5 -11.5l-86 -366q-6 -25 -25 -27q-10 -2 -39.5 -3t-72.5 -1q-45 0 -172 2t-295 2 q-195 0 -356.5 -1t-270.5 -7l-6 9t-2 13zM776 1583v8t2 6q35 37 74 79t76 80t65.5 70t42.5 46q35 37 60.5 53.5t58.5 13.5q35 -2 49.5 -24t12.5 -51q-2 -27 -13.5 -48.5t-66.5 -56.5t-137 -81t-187 -107q-10 -6 -24.5 -2t-12.5 14z" />
<glyph unicode="&#xca;" horiz-adv-x="1325" d="M-90 18q0 16 8 31q57 4 97 14.5t68 31t47.5 53t33.5 81.5l280 985q12 45 17 86q-2 37 -27 82q-6 10 -30.5 17.5t-57.5 9.5q-35 2 -57.5 2t-28.5 2q-4 2 -6 10.5t-2 16.5q0 20 10 24q8 4 21.5 3t40.5 -1q18 0 82.5 -2t132.5 -2q49 0 99 2t108.5 3t130 3.5t159.5 2.5 q111 0 180.5 -1.5t77.5 -5.5t10.5 -11t2.5 -17l2 -314q0 -6 -5.5 -12t-21.5 -6q-18 0 -25 8q-4 6 -10 23.5t-13 37t-13.5 40t-12.5 32.5q-25 55 -61.5 96t-77.5 54q-16 4 -51 7t-78 1l-266 -6q-6 -14 -15.5 -36t-17.5 -46.5t-16.5 -48t-14.5 -43.5l-121 -410q35 -4 92.5 -8 t98.5 -4q76 0 118 16.5t81 59.5q4 6 15 21t23.5 33.5t25.5 37t22 33.5q6 8 26 8q23 0 23 -15q0 -10 -16.5 -59t-45.5 -121l-20 -57.5t-25.5 -76.5t-27 -88t-25.5 -91q-2 -12 -29 -12q-10 0 -17 6t-7 10q0 33 7 78t7 65q0 33 -11 47.5t-34 28.5q-6 4 -30.5 7t-55.5 5l-215 6 l-94 -348q-14 -53 -22.5 -103t-8.5 -81q0 -86 66.5 -119t207.5 -33q104 0 188.5 13.5t137.5 44.5q31 18 59.5 39.5t56 54.5t57.5 78t65 112q2 6 10 9.5t18 3.5q16 0 21.5 -7.5t3.5 -11.5l-86 -366q-6 -25 -25 -27q-10 -2 -39.5 -3t-72.5 -1q-45 0 -172 2t-295 2 q-195 0 -356.5 -1t-270.5 -7l-6 9t-2 13zM603.5 1579q-1.5 10 10.5 27l248 282q29 31 51.5 49.5t55.5 18.5q39 0 55 -18.5t33 -53.5l125 -278q6 -12 5 -24.5t-18 -12.5q-12 0 -22 8l-189 240l-315 -242q-12 -6 -22 -6q-16 0 -17.5 10z" />
<glyph unicode="&#xcb;" horiz-adv-x="1325" d="M-90 18q0 16 8 31q57 4 97 14.5t68 31t47.5 53t33.5 81.5l280 985q12 45 17 86q-2 37 -27 82q-6 10 -30.5 17.5t-57.5 9.5q-35 2 -57.5 2t-28.5 2q-4 2 -6 10.5t-2 16.5q0 20 10 24q8 4 21.5 3t40.5 -1q18 0 82.5 -2t132.5 -2q49 0 99 2t108.5 3t130 3.5t159.5 2.5 q111 0 180.5 -1.5t77.5 -5.5t10.5 -11t2.5 -17l2 -314q0 -6 -5.5 -12t-21.5 -6q-18 0 -25 8q-4 6 -10 23.5t-13 37t-13.5 40t-12.5 32.5q-25 55 -61.5 96t-77.5 54q-16 4 -51 7t-78 1l-266 -6q-6 -14 -15.5 -36t-17.5 -46.5t-16.5 -48t-14.5 -43.5l-121 -410q35 -4 92.5 -8 t98.5 -4q76 0 118 16.5t81 59.5q4 6 15 21t23.5 33.5t25.5 37t22 33.5q6 8 26 8q23 0 23 -15q0 -10 -16.5 -59t-45.5 -121l-20 -57.5t-25.5 -76.5t-27 -88t-25.5 -91q-2 -12 -29 -12q-10 0 -17 6t-7 10q0 33 7 78t7 65q0 33 -11 47.5t-34 28.5q-6 4 -30.5 7t-55.5 5l-215 6 l-94 -348q-14 -53 -22.5 -103t-8.5 -81q0 -86 66.5 -119t207.5 -33q104 0 188.5 13.5t137.5 44.5q31 18 59.5 39.5t56 54.5t57.5 78t65 112q2 6 10 9.5t18 3.5q16 0 21.5 -7.5t3.5 -11.5l-86 -366q-6 -25 -25 -27q-10 -2 -39.5 -3t-72.5 -1q-45 0 -172 2t-295 2 q-195 0 -356.5 -1t-270.5 -7l-6 9t-2 13zM555 1747q0 23 8 43t25 35q29 31 78 30q37 0 75 -30q14 -14 21.5 -34.5t7.5 -43.5q0 -20 -7 -40.5t-22 -35.5q-33 -31 -77 -31q-47 0 -76 31q-16 14 -24.5 34.5t-8.5 41.5zM991 1747q0 47 31 78q41 31 78 30q49 0 76 -30 q16 -14 24 -34.5t8 -43.5q0 -20 -8 -40.5t-24 -35.5q-14 -16 -34 -23.5t-42 -7.5q-43 0 -78 31q-31 31 -31 76z" />
<glyph unicode="&#xcc;" horiz-adv-x="700" d="M-84 18q0 18 8 33q57 4 93 10.5t63 16.5q6 4 17.5 15t23.5 26.5t22.5 32t14.5 30.5q4 18 17 63.5t30.5 107t38 130t38 132t33 115.5t21.5 77q10 37 31.5 112.5t44 155.5t40 147.5t17.5 88.5q0 25 -17.5 53.5t-31.5 36.5q-6 4 -27.5 6t-47.5 3t-48.5 2t-32.5 1 q-4 16 -4 25q0 20 8 28h54q68 0 136 -1t111 -1q23 0 68 1t92 3t85 3.5t46 1.5q4 -6 7 -9.5t3 -13.5q0 -14 -10 -31q-57 -4 -96 -15t-66.5 -31.5t-45 -48.5t-29.5 -67q-6 -23 -21.5 -76t-36 -123.5t-42 -149.5t-42.5 -152q-29 -109 -57.5 -207t-44.5 -164q-6 -27 -14.5 -62.5 t-15.5 -70.5t-11 -63.5t-4 -43.5q0 -31 16.5 -49t44 -28.5t63.5 -14.5t72 -4q2 -6 5.5 -13t3.5 -11q0 -8 -4.5 -16.5t-8.5 -12.5h-51q-43 0 -106.5 4t-106.5 4q-49 0 -104.5 -1t-104.5 -3t-85 -3t-44 -1l-6 9t-2 13zM420 1874q0 41 26.5 62.5t51.5 21.5q33 0 54 -19.5 t44 -54.5q10 -14 29.5 -47t44 -73t51.5 -83t51 -77q4 -5 4 -17q0 -10 -12 -18t-29 4q-86 68 -146.5 122t-105.5 89q-39 29 -51 48t-12 42z" />
<glyph unicode="&#xcd;" horiz-adv-x="700" d="M-84 18q0 18 8 33q57 4 93 10.5t63 16.5q6 4 17.5 15t23.5 26.5t22.5 32t14.5 30.5q4 18 17 63.5t30.5 107t38 130t38 132t33 115.5t21.5 77q10 37 31.5 112.5t44 155.5t40 147.5t17.5 88.5q0 25 -17.5 53.5t-31.5 36.5q-6 4 -27.5 6t-47.5 3t-48.5 2t-32.5 1 q-4 16 -4 25q0 20 8 28h54q68 0 136 -1t111 -1q23 0 68 1t92 3t85 3.5t46 1.5q4 -6 7 -9.5t3 -13.5q0 -14 -10 -31q-57 -4 -96 -15t-66.5 -31.5t-45 -48.5t-29.5 -67q-6 -23 -21.5 -76t-36 -123.5t-42 -149.5t-42.5 -152q-29 -109 -57.5 -207t-44.5 -164q-6 -27 -14.5 -62.5 t-15.5 -70.5t-11 -63.5t-4 -43.5q0 -31 16.5 -49t44 -28.5t63.5 -14.5t72 -4q2 -6 5.5 -13t3.5 -11q0 -8 -4.5 -16.5t-8.5 -12.5h-51q-43 0 -106.5 4t-106.5 4q-49 0 -104.5 -1t-104.5 -3t-85 -3t-44 -1l-6 9t-2 13zM469 1583v8t2 6q35 37 74 79t75.5 80t65.5 70t43 46 q35 37 60.5 53.5t58.5 13.5q35 -2 49 -24t12 -51q-2 -27 -13 -48.5t-67 -56.5q-55 -35 -137 -81t-186 -107q-10 -6 -24.5 -2t-12.5 14z" />
<glyph unicode="&#xce;" horiz-adv-x="700" d="M-84 18q0 18 8 33q57 4 93 10.5t63 16.5q6 4 17.5 15t23.5 26.5t22.5 32t14.5 30.5q4 18 17 63.5t30.5 107t38 130t38 132t33 115.5t21.5 77q10 37 31.5 112.5t44 155.5t40 147.5t17.5 88.5q0 25 -17.5 53.5t-31.5 36.5q-6 4 -27.5 6t-47.5 3t-48.5 2t-32.5 1 q-4 16 -4 25q0 20 8 28h54q68 0 136 -1t111 -1q23 0 68 1t92 3t85 3.5t46 1.5q4 -6 7 -9.5t3 -13.5q0 -14 -10 -31q-57 -4 -96 -15t-66.5 -31.5t-45 -48.5t-29.5 -67q-6 -23 -21.5 -76t-36 -123.5t-42 -149.5t-42.5 -152q-29 -109 -57.5 -207t-44.5 -164q-6 -27 -14.5 -62.5 t-15.5 -70.5t-11 -63.5t-4 -43.5q0 -31 16.5 -49t44 -28.5t63.5 -14.5t72 -4q2 -6 5.5 -13t3.5 -11q0 -8 -4.5 -16.5t-8.5 -12.5h-51q-43 0 -106.5 4t-106.5 4q-49 0 -104.5 -1t-104.5 -3t-85 -3t-44 -1l-6 9t-2 13zM314.5 1579q-1.5 10 11.5 27l247 282q29 31 51.5 49.5 t55.5 18.5q39 0 55.5 -18.5t32.5 -53.5l125 -278q6 -12 5 -24.5t-17 -12.5q-12 0 -23 8l-188 240l-316 -242q-12 -6 -22 -6q-16 0 -17.5 10z" />
<glyph unicode="&#xcf;" horiz-adv-x="700" d="M-84 18q0 18 8 33q57 4 93 10.5t63 16.5q6 4 17.5 15t23.5 26.5t22.5 32t14.5 30.5q4 18 17 63.5t30.5 107t38 130t38 132t33 115.5t21.5 77q10 37 31.5 112.5t44 155.5t40 147.5t17.5 88.5q0 25 -17.5 53.5t-31.5 36.5q-6 4 -27.5 6t-47.5 3t-48.5 2t-32.5 1 q-4 16 -4 25q0 20 8 28h54q68 0 136 -1t111 -1q23 0 68 1t92 3t85 3.5t46 1.5q4 -6 7 -9.5t3 -13.5q0 -14 -10 -31q-57 -4 -96 -15t-66.5 -31.5t-45 -48.5t-29.5 -67q-6 -23 -21.5 -76t-36 -123.5t-42 -149.5t-42.5 -152q-29 -109 -57.5 -207t-44.5 -164q-6 -27 -14.5 -62.5 t-15.5 -70.5t-11 -63.5t-4 -43.5q0 -31 16.5 -49t44 -28.5t63.5 -14.5t72 -4q2 -6 5.5 -13t3.5 -11q0 -8 -4.5 -16.5t-8.5 -12.5h-51q-43 0 -106.5 4t-106.5 4q-49 0 -104.5 -1t-104.5 -3t-85 -3t-44 -1l-6 9t-2 13zM301 1747q0 23 7 43t24 35q31 31 78 30q39 0 75 -30 q16 -14 23.5 -34.5t7.5 -43.5q0 -20 -7 -40.5t-24 -35.5q-31 -31 -77 -31q-45 0 -76 31q-16 14 -23.5 34.5t-7.5 41.5zM717 1747q0 23 8 43t25 35q37 31 77 30q45 0 76 -30q16 -14 23.5 -34.5t7.5 -43.5q0 -20 -7 -40.5t-24 -35.5q-31 -31 -76 -31q-47 0 -77 31 q-16 14 -24.5 34.5t-8.5 41.5z" />
<glyph unicode="&#xd0;" horiz-adv-x="1533" d="M-82 23q0 16 8 30q115 10 169.5 53.5t76.5 126.5l139 515h-198q-27 0 -32 9t-5 29q0 23 4 31t33 8h219l121 441q4 10 10 39.5t6 46.5q0 31 -29 49q-6 4 -30.5 8t-53 7t-54.5 4t-36 1q-4 16 -4 25q0 20 8 29h54q18 0 54 -1t72.5 -1t67.5 -1.5t39 -1.5q10 0 41 1.5t69 2.5 t77.5 2t68.5 1q125 0 222.5 -18.5t173 -55.5t133 -94.5t100.5 -134.5q39 -70 57.5 -150t18.5 -166q0 -113 -27 -219.5t-74 -208.5q-29 -61 -86 -134t-127 -126q-49 -37 -105.5 -68.5t-126 -55t-155.5 -37t-194 -13.5q-29 0 -121 2t-232 4h-117.5h-105.5t-80 -1t-41 -1l-6 9 t-2 14zM330 209q0 -33 20.5 -70t67.5 -59q23 -10 63.5 -17.5t81.5 -7.5q217 0 387 98.5t279 315.5q112 229 112 473q0 78 -17 144.5t-52 113.5q-78 109 -189.5 162t-289.5 53q-47 0 -83 -4t-48 -14q-16 -10 -29 -58l-139 -514h380q29 0 33 -6t4 -26q0 -23 -4 -34t-33 -11 h-403l-127 -469q-4 -12 -9 -33t-5 -37z" />
<glyph unicode="&#xd1;" horiz-adv-x="1619" d="M-98 14q0 10 1 16.5t5 14.5q59 6 98 14.5t66.5 29t47 58t40.5 101.5l282 913q6 20 14.5 51t8.5 48q0 25 -8 46t-18.5 37.5t-20.5 27.5t-17 15q-12 10 -34.5 17.5t-45 11.5t-43 5t-30.5 1q-4 16 -4 23q0 20 8 29h53q18 0 46 -1.5t58.5 -2.5t60.5 -3t52 -2q31 -2 43.5 -7 t22.5 -34l483 -1183l244 809q27 86 38 151.5t11 104.5q0 43 -15.5 59t-39.5 29q-10 4 -53.5 15t-102.5 13q-2 6 -5 10.5t-3 12.5t3 16t7 13h53q23 0 51.5 -1.5t60.5 -3.5t61.5 -3t50.5 -1q98 0 172.5 4.5t91.5 4.5q4 -6 7 -11.5t3 -11.5q0 -16 -8 -31q-59 -6 -98 -16 t-67 -30.5t-46.5 -56.5t-36.5 -93l-367 -1182q-14 -45 -22 -56.5t-25 -11.5q-10 0 -20 7.5t-17 21.5l-479 1176l-227 -762q-23 -78 -36 -146.5t-13 -107.5q0 -43 16 -59.5t41 -28.5q10 -4 51 -15.5t101 -13.5q2 -6 6 -13t4 -12q0 -10 -4 -17t-8 -11h-52q-20 0 -50 1t-61.5 3 t-60 3t-51.5 1q-98 0 -174 -4t-92 -4q-4 6 -6 11t-2 11zM723 1663q29 92 90 146.5t139 54.5q29 0 67 -14.5t79 -37.5q47 -25 72.5 -36t43.5 -11q47 0 73 32t44 71q4 12 16.5 19t22.5 7q33 1 21 -36q-29 -92 -90.5 -147.5t-139.5 -55.5q-29 0 -61.5 12t-83.5 41 q-76 47 -117 47q-47 0 -72.5 -31.5t-44.5 -70.5q-4 -12 -16 -19.5t-23 -7.5q-33 0 -20 37z" />
<glyph unicode="&#xd2;" horiz-adv-x="1400" d="M98 596q0 119 28 243t83 236q96 195 266 309.5t385 114.5q139 0 238.5 -51t163 -137t93 -201t29.5 -242q0 -113 -28.5 -230.5t-93.5 -240.5q-51 -94 -121 -174t-153 -137t-175 -89t-184 -32q-76 0 -144.5 20.5t-140.5 67.5q-127 86 -186.5 230.5t-59.5 312.5zM238 438 q0 -100 30.5 -170.5t65.5 -115.5q27 -33 90 -66t141 -33q94 0 179 38t171 122q72 70 129.5 160t98.5 191.5t62.5 209t21.5 213.5q0 217 -80 328.5t-227 111.5q-70 0 -151 -30.5t-167 -102.5q-86 -70 -153.5 -166t-114.5 -208.5t-71.5 -235.5t-24.5 -246zM793 1874 q0 41 26.5 62.5t50.5 21.5q33 0 54.5 -19.5t44.5 -54.5q10 -14 29.5 -47t44 -73t51 -83t51.5 -77q4 -5 4 -17q0 -10 -12.5 -18t-28.5 4q-86 68 -146.5 122t-105.5 89q-39 29 -51 48t-12 42z" />
<glyph unicode="&#xd3;" horiz-adv-x="1400" d="M98 596q0 119 28 243t83 236q96 195 266 309.5t385 114.5q139 0 238.5 -51t163 -137t93 -201t29.5 -242q0 -113 -28.5 -230.5t-93.5 -240.5q-51 -94 -121 -174t-153 -137t-175 -89t-184 -32q-76 0 -144.5 20.5t-140.5 67.5q-127 86 -186.5 230.5t-59.5 312.5zM238 438 q0 -100 30.5 -170.5t65.5 -115.5q27 -33 90 -66t141 -33q94 0 179 38t171 122q72 70 129.5 160t98.5 191.5t62.5 209t21.5 213.5q0 217 -80 328.5t-227 111.5q-70 0 -151 -30.5t-167 -102.5q-86 -70 -153.5 -166t-114.5 -208.5t-71.5 -235.5t-24.5 -246zM774 1583v8t2 6 q35 37 74 79t76 80t65.5 70t42.5 46q35 37 60.5 53.5t58.5 13.5q35 -2 49 -24t12 -51q-2 -27 -13 -48.5t-66 -56.5t-137.5 -81t-186.5 -107q-10 -6 -24.5 -2t-12.5 14z" />
<glyph unicode="&#xd4;" horiz-adv-x="1400" d="M98 596q0 119 28 243t83 236q96 195 266 309.5t385 114.5q139 0 238.5 -51t163 -137t93 -201t29.5 -242q0 -113 -28.5 -230.5t-93.5 -240.5q-51 -94 -121 -174t-153 -137t-175 -89t-184 -32q-76 0 -144.5 20.5t-140.5 67.5q-127 86 -186.5 230.5t-59.5 312.5zM238 438 q0 -100 30.5 -170.5t65.5 -115.5q27 -33 90 -66t141 -33q94 0 179 38t171 122q72 70 129.5 160t98.5 191.5t62.5 209t21.5 213.5q0 217 -80 328.5t-227 111.5q-70 0 -151 -30.5t-167 -102.5q-86 -70 -153.5 -166t-114.5 -208.5t-71.5 -235.5t-24.5 -246zM626 1579 q-1 10 11 27l248 282q29 31 51 49.5t55 18.5q39 0 55.5 -18.5t32.5 -53.5l125 -278q6 -12 5 -24.5t-17 -12.5q-12 0 -23 8l-188 240l-315 -242q-12 -6 -23 -6q-16 0 -17 10z" />
<glyph unicode="&#xd5;" horiz-adv-x="1400" d="M98 596q0 119 28 243t83 236q96 195 266 309.5t385 114.5q139 0 238.5 -51t163 -137t93 -201t29.5 -242q0 -113 -28.5 -230.5t-93.5 -240.5q-51 -94 -121 -174t-153 -137t-175 -89t-184 -32q-76 0 -144.5 20.5t-140.5 67.5q-127 86 -186.5 230.5t-59.5 312.5zM238 438 q0 -100 30.5 -170.5t65.5 -115.5q27 -33 90 -66t141 -33q94 0 179 38t171 122q72 70 129.5 160t98.5 191.5t62.5 209t21.5 213.5q0 217 -80 328.5t-227 111.5q-70 0 -151 -30.5t-167 -102.5q-86 -70 -153.5 -166t-114.5 -208.5t-71.5 -235.5t-24.5 -246zM610 1663 q29 92 90.5 146.5t139.5 54.5q29 0 66.5 -14.5t78.5 -37.5q47 -25 72.5 -36t44.5 -11q47 0 72.5 32t44.5 71q4 12 16 19t22 7q33 1 21 -36q-29 -92 -90.5 -147.5t-138.5 -55.5q-29 0 -62 12t-84 41q-76 47 -117 47q-47 0 -72.5 -31.5t-43.5 -70.5q-4 -12 -16.5 -19.5 t-22.5 -7.5q-33 0 -21 37z" />
<glyph unicode="&#xd6;" horiz-adv-x="1400" d="M98 596q0 119 28 243t83 236q96 195 266 309.5t385 114.5q139 0 238.5 -51t163 -137t93 -201t29.5 -242q0 -113 -28.5 -230.5t-93.5 -240.5q-51 -94 -121 -174t-153 -137t-175 -89t-184 -32q-76 0 -144.5 20.5t-140.5 67.5q-127 86 -186.5 230.5t-59.5 312.5zM238 438 q0 -100 30.5 -170.5t65.5 -115.5q27 -33 90 -66t141 -33q94 0 179 38t171 122q72 70 129.5 160t98.5 191.5t62.5 209t21.5 213.5q0 217 -80 328.5t-227 111.5q-70 0 -151 -30.5t-167 -102.5q-86 -70 -153.5 -166t-114.5 -208.5t-71.5 -235.5t-24.5 -246zM604 1747 q0 23 8.5 43t24.5 35q29 31 78 30q37 0 76 -30q14 -14 21 -34.5t7 -43.5q0 -20 -7 -40.5t-21 -35.5q-33 -31 -78 -31q-47 0 -76 31q-16 14 -24.5 34.5t-8.5 41.5zM1040 1747q0 47 31 78q41 31 78 30q49 0 76 -30q16 -14 24 -34.5t8 -43.5q0 -20 -8 -40.5t-24 -35.5 q-14 -16 -34 -23.5t-42 -7.5q-43 0 -78 31q-31 31 -31 76z" />
<glyph unicode="&#xd7;" horiz-adv-x="1556" d="M250 20l491 490l-111.5 111.5t-134 133t-134 133l-111.5 111.5l69 70l490 -494l491 496l70 -72l-493 -489q47 -45 111.5 -109.5l134 -134t135 -134t110.5 -112.5l-70 -71l-489 491q-45 -47 -110.5 -111.5t-134 -134t-133 -134t-112.5 -111.5z" />
<glyph unicode="&#xd8;" horiz-adv-x="1400" d="M98 596q0 119 28 243t83 236q96 195 266 309.5t385 114.5q84 0 151.5 -18.5t123.5 -53.5l86 138q4 6 18 10t29 -2q10 -4 15 -16.5t-1 -22.5l-92 -145q102 -88 148 -224.5t46 -296.5q0 -113 -28.5 -230.5t-93.5 -240.5q-51 -94 -121 -174t-153 -137t-175 -89t-184 -32 q-76 0 -144.5 20.5t-140.5 67.5l-127 -200q-6 -10 -20.5 -10.5t-24.5 3.5t-17.5 15.5t3.5 25.5l131 207q-98 90 -144.5 221t-46.5 281zM238 438q0 -98 28.5 -166.5t63.5 -113.5l766 1210q-72 59 -176 59q-70 0 -151 -30.5t-167 -102.5q-86 -70 -153.5 -166t-114.5 -208.5 t-71.5 -235.5t-24.5 -246zM379 109q35 -23 83 -39.5t103 -16.5q94 0 179 38t171 122q72 70 129.5 160t98.5 191.5t62.5 209t21.5 213.5q0 217 -82 330z" />
<glyph unicode="&#xd9;" horiz-adv-x="1542" d="M215 362q0 61 13.5 133t37.5 160l172 586q16 53 17 92q0 53 -39 68q-12 4 -36 8t-48.5 6t-45 3t-30.5 1q-4 16 -4 25q0 20 8 29h246q23 0 75 2t107 4t100.5 4t53.5 2q4 -6 7 -9t3 -14q0 -14 -10 -30q-113 -8 -169.5 -48.5t-80.5 -128.5l-172 -616q-53 -190 -53 -289 q0 -76 30.5 -130t79.5 -88t111.5 -49t126.5 -15q131 0 241.5 66.5t176.5 223.5q10 23 24 67t35 112l96 342q10 37 21.5 90t21.5 112.5t16.5 119t6.5 108.5q0 41 -17.5 58t-44.5 30q-16 8 -58 16t-97 12q-2 6 -5.5 11.5t-3.5 13.5t3.5 16.5t7.5 12.5h32q23 0 53.5 -2 t64.5 -4.5t69 -4.5t65 -2q49 0 96.5 2t87.5 3.5t66.5 3.5t34.5 2q4 -6 7 -11.5t3 -15.5t-2 -14t-6 -13q-59 -6 -98 -16t-64.5 -31.5t-43 -57.5t-34.5 -91q-49 -168 -92 -320q-18 -63 -37.5 -129.5t-38 -128t-34 -112t-25.5 -84.5q-29 -86 -55.5 -147.5t-57.5 -102.5 q-86 -119 -200.5 -177.5t-274.5 -58.5q-102 0 -184 29t-138.5 81t-87 124.5t-30.5 160.5zM825 1874q0 41 27 62.5t51 21.5q33 0 54.5 -19.5t43.5 -54.5q10 -14 30 -47t44.5 -73t51 -83t51.5 -77q4 -5 4 -17q0 -10 -12.5 -18t-28.5 4q-86 68 -146.5 122t-105.5 89 q-39 29 -51.5 48t-12.5 42z" />
<glyph unicode="&#xda;" horiz-adv-x="1542" d="M215 362q0 61 13.5 133t37.5 160l172 586q16 53 17 92q0 53 -39 68q-12 4 -36 8t-48.5 6t-45 3t-30.5 1q-4 16 -4 25q0 20 8 29h246q23 0 75 2t107 4t100.5 4t53.5 2q4 -6 7 -9t3 -14q0 -14 -10 -30q-113 -8 -169.5 -48.5t-80.5 -128.5l-172 -616q-53 -190 -53 -289 q0 -76 30.5 -130t79.5 -88t111.5 -49t126.5 -15q131 0 241.5 66.5t176.5 223.5q10 23 24 67t35 112l96 342q10 37 21.5 90t21.5 112.5t16.5 119t6.5 108.5q0 41 -17.5 58t-44.5 30q-16 8 -58 16t-97 12q-2 6 -5.5 11.5t-3.5 13.5t3.5 16.5t7.5 12.5h32q23 0 53.5 -2 t64.5 -4.5t69 -4.5t65 -2q49 0 96.5 2t87.5 3.5t66.5 3.5t34.5 2q4 -6 7 -11.5t3 -15.5t-2 -14t-6 -13q-59 -6 -98 -16t-64.5 -31.5t-43 -57.5t-34.5 -91q-49 -168 -92 -320q-18 -63 -37.5 -129.5t-38 -128t-34 -112t-25.5 -84.5q-29 -86 -55.5 -147.5t-57.5 -102.5 q-86 -119 -200.5 -177.5t-274.5 -58.5q-102 0 -184 29t-138.5 81t-87 124.5t-30.5 160.5zM915 1583v8t3 6q35 37 73.5 79t75.5 80t65.5 70t43.5 46q35 37 60.5 53.5t57.5 13.5q35 -2 49.5 -24t12.5 -51q-2 -27 -13.5 -48.5t-66.5 -56.5t-137 -81t-187 -107q-10 -6 -24.5 -2 t-12.5 14z" />
<glyph unicode="&#xdb;" horiz-adv-x="1542" d="M215 362q0 61 13.5 133t37.5 160l172 586q16 53 17 92q0 53 -39 68q-12 4 -36 8t-48.5 6t-45 3t-30.5 1q-4 16 -4 25q0 20 8 29h246q23 0 75 2t107 4t100.5 4t53.5 2q4 -6 7 -9t3 -14q0 -14 -10 -30q-113 -8 -169.5 -48.5t-80.5 -128.5l-172 -616q-53 -190 -53 -289 q0 -76 30.5 -130t79.5 -88t111.5 -49t126.5 -15q131 0 241.5 66.5t176.5 223.5q10 23 24 67t35 112l96 342q10 37 21.5 90t21.5 112.5t16.5 119t6.5 108.5q0 41 -17.5 58t-44.5 30q-16 8 -58 16t-97 12q-2 6 -5.5 11.5t-3.5 13.5t3.5 16.5t7.5 12.5h32q23 0 53.5 -2 t64.5 -4.5t69 -4.5t65 -2q49 0 96.5 2t87.5 3.5t66.5 3.5t34.5 2q4 -6 7 -11.5t3 -15.5t-2 -14t-6 -13q-59 -6 -98 -16t-64.5 -31.5t-43 -57.5t-34.5 -91q-49 -168 -92 -320q-18 -63 -37.5 -129.5t-38 -128t-34 -112t-25.5 -84.5q-29 -86 -55.5 -147.5t-57.5 -102.5 q-86 -119 -200.5 -177.5t-274.5 -58.5q-102 0 -184 29t-138.5 81t-87 124.5t-30.5 160.5zM757 1579q-1 10 11 27l248 282q29 31 51.5 49.5t54.5 18.5q39 0 55.5 -18.5t32.5 -53.5l125 -278q6 -12 5 -24.5t-17 -12.5q-12 0 -23 8l-188 240l-315 -242q-12 -6 -23 -6 q-16 0 -17 10z" />
<glyph unicode="&#xdc;" horiz-adv-x="1542" d="M215 362q0 61 13.5 133t37.5 160l172 586q16 53 17 92q0 53 -39 68q-12 4 -36 8t-48.5 6t-45 3t-30.5 1q-4 16 -4 25q0 20 8 29h246q23 0 75 2t107 4t100.5 4t53.5 2q4 -6 7 -9t3 -14q0 -14 -10 -30q-113 -8 -169.5 -48.5t-80.5 -128.5l-172 -616q-53 -190 -53 -289 q0 -76 30.5 -130t79.5 -88t111.5 -49t126.5 -15q131 0 241.5 66.5t176.5 223.5q10 23 24 67t35 112l96 342q10 37 21.5 90t21.5 112.5t16.5 119t6.5 108.5q0 41 -17.5 58t-44.5 30q-16 8 -58 16t-97 12q-2 6 -5.5 11.5t-3.5 13.5t3.5 16.5t7.5 12.5h32q23 0 53.5 -2 t64.5 -4.5t69 -4.5t65 -2q49 0 96.5 2t87.5 3.5t66.5 3.5t34.5 2q4 -6 7 -11.5t3 -15.5t-2 -14t-6 -13q-59 -6 -98 -16t-64.5 -31.5t-43 -57.5t-34.5 -91q-49 -168 -92 -320q-18 -63 -37.5 -129.5t-38 -128t-34 -112t-25.5 -84.5q-29 -86 -55.5 -147.5t-57.5 -102.5 q-86 -119 -200.5 -177.5t-274.5 -58.5q-102 0 -184 29t-138.5 81t-87 124.5t-30.5 160.5zM735 1747q0 23 8.5 43t24.5 35q29 31 78 30q37 0 76 -30q14 -14 21 -34.5t7 -43.5q0 -20 -7 -40.5t-21 -35.5q-33 -31 -78 -31q-47 0 -76 31q-16 14 -24.5 34.5t-8.5 41.5zM1171 1747 q0 47 31 78q41 31 78 30q49 0 76 -30q16 -14 24.5 -34.5t8.5 -43.5q0 -20 -8.5 -40.5t-24.5 -35.5q-14 -16 -33.5 -23.5t-42.5 -7.5q-43 0 -78 31q-31 31 -31 76z" />
<glyph unicode="&#xdd;" horiz-adv-x="1312" d="M139 1141q0 18 15.5 45.5t42.5 68.5q47 66 92 111t89 71.5t89 38t92 11.5q68 0 114 -27.5t72.5 -75t38 -110t11.5 -129.5q0 -45 -2 -85t-6.5 -80t-11.5 -83t-17 -98l8 -4q49 92 95 174t94.5 153.5t101.5 136t117 121.5q72 66 122 87.5t93 21.5q41 0 78.5 -26.5 t37.5 -92.5q0 -43 -26.5 -83t-81.5 -40q-37 0 -58.5 9.5t-36 23.5t-21.5 30.5t-17 28.5q-29 -16 -72 -51t-84 -82q-16 -18 -50 -61t-100 -144q-88 -133 -172 -309q-20 -43 -42.5 -111.5t-38.5 -127.5q-43 -147 -59.5 -226.5t-16.5 -109.5q0 -20 14 -28.5t31 -12.5 q8 -2 26.5 -6t42 -8.5t46 -7.5t40.5 -3q10 0 11 -22q0 -8 -4.5 -18.5t-8.5 -10.5q-35 0 -113.5 2t-181.5 2q-152 0 -222 -2t-91 -2q-6 0 -12 7t-6 20q0 10 3 17t7 7q16 2 46 6t60.5 9.5t57 11.5t35.5 12q27 20 45 72q47 135 83.5 275.5t73.5 293.5q29 121 36 227.5t7 184.5 q0 117 -44 178t-122 61q-63 0 -138 -60t-161 -192q-8 -12 -28 -12q-8 0 -15.5 8.5t-7.5 14.5zM854 1583v8t2 6q35 37 74 79t75.5 80t65.5 70t43 46q35 37 60.5 53.5t58.5 13.5q35 -2 49 -24t12 -51q-2 -27 -13 -48.5t-67 -56.5q-55 -35 -137 -81t-186 -107q-10 -6 -24.5 -2 t-12.5 14z" />
<glyph unicode="&#xde;" horiz-adv-x="1224" d="M-88 18q0 18 8 33q57 4 96 12.5t67 27t47.5 52t35.5 88.5l268 940q8 27 16.5 69t8.5 65q0 45 -31 75q-10 10 -34.5 17.5t-52.5 10.5t-51.5 4t-33.5 1q-4 16 -4 23q0 8 2 17t6 13h53h46.5t45 -1t51 -1h66.5q53 0 109.5 2t104.5 3t81 3.5t41 2.5q4 -6 6 -9.5t2 -13.5 q0 -18 -8 -33q-57 -4 -96 -11t-66.5 -25.5t-47 -52.5t-36.5 -91l-24 -82q39 4 85 6t115 2q100 0 186.5 -23.5t139.5 -70.5q103 -90 103 -254q0 -98 -33 -175t-103 -142q-82 -76 -196.5 -104.5t-239.5 -28.5q-59 0 -134 8t-136 22l-41 -164q-4 -12 -7 -30.5t-3 -28.5 q0 -43 13 -68.5t48 -39.5q16 -6 61.5 -10.5t83.5 -8.5q2 -6 5.5 -12t3.5 -10q0 -8 -4.5 -16.5t-8.5 -12.5h-51q-20 0 -50 1t-59.5 3t-58 3t-51.5 1q-49 0 -104.5 -1t-104.5 -3t-84 -3t-43 -1l-6 9t-2 13zM393 463q8 -4 28.5 -8t46.5 -8.5t54.5 -6.5t52.5 -2 q104 0 188.5 25.5t151.5 87.5q61 53 92 128t31 155q0 63 -17 110t-58 88q-41 39 -100.5 56.5t-131.5 17.5q-33 0 -77 -3t-85 -11z" />
<glyph unicode="&#xdf;" horiz-adv-x="989" d="M-438 -360q0 41 26.5 68.5t73.5 27.5q41 0 67.5 -23.5t28.5 -77.5q4 -49 13.5 -69.5t50.5 -20.5t73.5 39t53.5 84q10 25 36.5 97.5t55.5 195.5l238 967q29 123 63.5 212t89.5 167t124 125t169 47q135 0 208 -80t73 -215q0 -123 -74 -226.5t-232 -156.5q104 -35 164 -110 t60 -177q0 -164 -69 -293t-181 -194q-43 -25 -95.5 -37.5t-101.5 -12.5q-78 0 -125 40t-47 96q0 35 21.5 65.5t64.5 30.5q18 0 34.5 -4t30 -17.5t21.5 -37t8 -62.5q0 -27 14.5 -39t37.5 -12q29 0 68.5 29.5t72.5 89.5q41 78 68.5 186.5t27.5 208.5q0 150 -84 199 q-23 16 -74 24t-112 8l14 64q29 0 53.5 -1t30.5 -1q72 0 103 14q39 18 70.5 62.5t53 99.5t33.5 114.5t12 108.5q0 74 -39.5 124t-113.5 50q-57 0 -99 -25.5t-74 -70.5t-54.5 -104.5t-40.5 -126.5l-297 -1153q-12 -49 -25.5 -90.5t-28 -76t-32 -68.5t-39.5 -71 q-94 -150 -262 -149q-111 0 -159 48t-48 110z" />
<glyph unicode="&#xe0;" d="M29 248q0 80 26.5 169t79.5 181q43 72 99.5 132.5t118 104.5t126 68.5t123.5 24.5q72 0 112 -29t62 -70l21 60q8 25 32 31q12 4 17.5 6t34.5 2q37 0 37 -21q0 -4 -2.5 -14t-6.5 -23l-155 -467q-20 -59 -33.5 -127.5t-13.5 -121.5q0 -41 13 -54.5t30 -13.5q23 0 52 25.5 t83 109.5q12 18 27.5 44t31.5 26q10 0 17.5 -5.5t7.5 -21.5t-25.5 -64t-64.5 -102q-55 -76 -93 -97t-86 -21q-31 0 -54 15t-40 54q-10 25 -14 65t-8 74q-29 -43 -63 -80.5t-73.5 -67.5t-86 -47.5t-99.5 -17.5q-102 0 -167.5 76t-65.5 197zM172 203q0 -59 35 -101.5t88 -42.5 q80 0 157.5 64.5t147.5 222.5q35 80 65.5 164t51.5 180q6 35 6 74q0 41 -35 72.5t-94 31.5q-61 0 -124.5 -40t-123.5 -130q-39 -55 -71.5 -118.5t-59.5 -139.5q-23 -63 -33 -126.5t-10 -110.5zM416 1382q0 41 26.5 62.5t51.5 21.5q33 0 54 -19.5t44 -53.5q10 -14 29.5 -47 t44 -73t51 -83t51.5 -78q4 -4 4 -16q0 -10 -12 -18.5t-29 3.5q-86 68 -146.5 122t-105.5 89q-39 29 -51 48.5t-12 41.5z" />
<glyph unicode="&#xe1;" d="M29 248q0 80 26.5 169t79.5 181q43 72 99.5 132.5t118 104.5t126 68.5t123.5 24.5q72 0 112 -29t62 -70l21 60q8 25 32 31q12 4 17.5 6t34.5 2q37 0 37 -21q0 -4 -2.5 -14t-6.5 -23l-155 -467q-20 -59 -33.5 -127.5t-13.5 -121.5q0 -41 13 -54.5t30 -13.5q23 0 52 25.5 t83 109.5q12 18 27.5 44t31.5 26q10 0 17.5 -5.5t7.5 -21.5t-25.5 -64t-64.5 -102q-55 -76 -93 -97t-86 -21q-31 0 -54 15t-40 54q-10 25 -14 65t-8 74q-29 -43 -63 -80.5t-73.5 -67.5t-86 -47.5t-99.5 -17.5q-102 0 -167.5 76t-65.5 197zM172 203q0 -59 35 -101.5t88 -42.5 q80 0 157.5 64.5t147.5 222.5q35 80 65.5 164t51.5 180q6 35 6 74q0 41 -35 72.5t-94 31.5q-61 0 -124.5 -40t-123.5 -130q-39 -55 -71.5 -118.5t-59.5 -139.5q-23 -63 -33 -126.5t-10 -110.5zM475 1092v8t2 6q35 37 74 79t76 80t65.5 69.5t42.5 45.5q35 37 60.5 53.5 t58.5 14.5q35 -2 49 -24.5t12 -51.5q-2 -27 -13 -48t-66 -56t-137.5 -81t-186.5 -108q-10 -6 -24.5 -2t-12.5 15z" />
<glyph unicode="&#xe2;" d="M29 248q0 80 26.5 169t79.5 181q43 72 99.5 132.5t118 104.5t126 68.5t123.5 24.5q72 0 112 -29t62 -70l21 60q8 25 32 31q12 4 17.5 6t34.5 2q37 0 37 -21q0 -4 -2.5 -14t-6.5 -23l-155 -467q-20 -59 -33.5 -127.5t-13.5 -121.5q0 -41 13 -54.5t30 -13.5q23 0 52 25.5 t83 109.5q12 18 27.5 44t31.5 26q10 0 17.5 -5.5t7.5 -21.5t-25.5 -64t-64.5 -102q-55 -76 -93 -97t-86 -21q-31 0 -54 15t-40 54q-10 25 -14 65t-8 74q-29 -43 -63 -80.5t-73.5 -67.5t-86 -47.5t-99.5 -17.5q-102 0 -167.5 76t-65.5 197zM172 203q0 -59 35 -101.5t88 -42.5 q80 0 157.5 64.5t147.5 222.5q35 80 65.5 164t51.5 180q6 35 6 74q0 41 -35 72.5t-94 31.5q-61 0 -124.5 -40t-123.5 -130q-39 -55 -71.5 -118.5t-59.5 -139.5q-23 -63 -33 -126.5t-10 -110.5zM355.5 1087.5q-1.5 10.5 11.5 26.5l247 283q29 31 51.5 49t55.5 18 q39 0 55.5 -18.5t32.5 -52.5l125 -279q6 -12 5 -24.5t-17 -12.5q-12 0 -23 8l-188 240l-316 -242q-12 -6 -22 -6q-16 0 -17.5 10.5z" />
<glyph unicode="&#xe3;" d="M29 248q0 80 26.5 169t79.5 181q43 72 99.5 132.5t118 104.5t126 68.5t123.5 24.5q72 0 112 -29t62 -70l21 60q8 25 32 31q12 4 17.5 6t34.5 2q37 0 37 -21q0 -4 -2.5 -14t-6.5 -23l-155 -467q-20 -59 -33.5 -127.5t-13.5 -121.5q0 -41 13 -54.5t30 -13.5q23 0 52 25.5 t83 109.5q12 18 27.5 44t31.5 26q10 0 17.5 -5.5t7.5 -21.5t-25.5 -64t-64.5 -102q-55 -76 -93 -97t-86 -21q-31 0 -54 15t-40 54q-10 25 -14 65t-8 74q-29 -43 -63 -80.5t-73.5 -67.5t-86 -47.5t-99.5 -17.5q-102 0 -167.5 76t-65.5 197zM172 203q0 -59 35 -101.5t88 -42.5 q80 0 157.5 64.5t147.5 222.5q35 80 65.5 164t51.5 180q6 35 6 74q0 41 -35 72.5t-94 31.5q-61 0 -124.5 -40t-123.5 -130q-39 -55 -71.5 -118.5t-59.5 -139.5q-23 -63 -33 -126.5t-10 -110.5zM332 1171q29 92 90 146.5t139 54.5q29 0 67 -14.5t79 -36.5q47 -25 72.5 -36 t43.5 -11q47 0 73 31.5t44 70.5q4 12 16.5 19.5t22.5 7.5q32 0 20 -37q-29 -92 -90 -147.5t-139 -55.5q-29 0 -61.5 12.5t-83.5 41.5q-76 47 -117 47q-47 0 -72.5 -32t-44.5 -71q-4 -12 -16.5 -19t-22.5 -7q-33 0 -20 36z" />
<glyph unicode="&#xe4;" d="M29 248q0 80 26.5 169t79.5 181q43 72 99.5 132.5t118 104.5t126 68.5t123.5 24.5q72 0 112 -29t62 -70l21 60q8 25 32 31q12 4 17.5 6t34.5 2q37 0 37 -21q0 -4 -2.5 -14t-6.5 -23l-155 -467q-20 -59 -33.5 -127.5t-13.5 -121.5q0 -41 13 -54.5t30 -13.5q23 0 52 25.5 t83 109.5q12 18 27.5 44t31.5 26q10 0 17.5 -5.5t7.5 -21.5t-25.5 -64t-64.5 -102q-55 -76 -93 -97t-86 -21q-31 0 -54 15t-40 54q-10 25 -14 65t-8 74q-29 -43 -63 -80.5t-73.5 -67.5t-86 -47.5t-99.5 -17.5q-102 0 -167.5 76t-65.5 197zM172 203q0 -59 35 -101.5t88 -42.5 q80 0 157.5 64.5t147.5 222.5q35 80 65.5 164t51.5 180q6 35 6 74q0 41 -35 72.5t-94 31.5q-61 0 -124.5 -40t-123.5 -130q-39 -55 -71.5 -118.5t-59.5 -139.5q-23 -63 -33 -126.5t-10 -110.5zM377 1247q0 41 27.5 72t74.5 31q41 0 70 -29t29 -74q0 -41 -27 -70.5t-74 -29.5 q-45 0 -72.5 29.5t-27.5 70.5zM754 1247q0 45 30.5 74t71.5 29q45 0 72.5 -31t27.5 -72q0 -43 -29.5 -71.5t-70.5 -28.5q-45 0 -73.5 29.5t-28.5 70.5z" />
<glyph unicode="&#xe5;" d="M29 248q0 80 26.5 169t79.5 181q43 72 99.5 132.5t118 104.5t126 68.5t123.5 24.5q72 0 112 -29t62 -70l21 60q8 25 32 31q12 4 17.5 6t34.5 2q37 0 37 -21q0 -4 -2.5 -14t-6.5 -23l-155 -467q-20 -59 -33.5 -127.5t-13.5 -121.5q0 -41 13 -54.5t30 -13.5q23 0 52 25.5 t83 109.5q12 18 27.5 44t31.5 26q10 0 17.5 -5.5t7.5 -21.5t-25.5 -64t-64.5 -102q-55 -76 -93 -97t-86 -21q-31 0 -54 15t-40 54q-10 25 -14 65t-8 74q-29 -43 -63 -80.5t-73.5 -67.5t-86 -47.5t-99.5 -17.5q-102 0 -167.5 76t-65.5 197zM172 203q0 -59 35 -101.5t88 -42.5 q80 0 157.5 64.5t147.5 222.5q35 80 65.5 164t51.5 180q6 35 6 74q0 41 -35 72.5t-94 31.5q-61 0 -124.5 -40t-123.5 -130q-39 -55 -71.5 -118.5t-59.5 -139.5q-23 -63 -33 -126.5t-10 -110.5zM430 1249q0 49 20.5 93t56.5 77t84 52.5t103 19.5q98 0 147.5 -59.5 t49.5 -143.5q0 -43 -18.5 -86t-53.5 -76.5t-84 -55t-110 -21.5q-96 0 -145.5 56t-49.5 144zM532 1223q0 -66 26 -96.5t69 -30.5q63 0 111 62.5t48 160.5q0 53 -23.5 89t-70.5 36q-31 0 -59.5 -19.5t-51 -51.5t-36 -71.5t-13.5 -78.5z" />
<glyph unicode="&#xe6;" horiz-adv-x="1282" d="M6 207q0 92 28.5 177t96.5 173q90 115 201.5 186.5t271.5 114.5q59 16 153.5 30.5t211.5 24.5q29 10 55.5 14.5t60.5 4.5q96 0 143.5 -49t47.5 -125q0 -39 -20.5 -82t-61.5 -70q-25 -16 -57.5 -30.5t-80.5 -30t-118 -32.5t-168 -42q-25 -6 -39 -14t-22 -35 q-12 -47 -21.5 -104.5t-9.5 -92.5q0 -72 35 -117t102 -45q51 0 100.5 27t100.5 74q18 16 32.5 34.5t28.5 39.5q16 25 33 24q33 0 33 -24q0 -12 -9.5 -35t-31.5 -51q-66 -86 -140.5 -129t-179.5 -43q-111 0 -170 67.5t-69 171.5q-76 -113 -163 -176t-190 -63q-84 0 -134 57 t-50 170zM147 195q0 -66 30 -92.5t71 -26.5q45 0 89 25.5t83 62.5t71.5 80t53.5 78q8 86 32.5 161.5t61.5 140t82 118t96 92.5q-84 -8 -168 -34t-160.5 -68t-142 -102.5t-113.5 -142.5q-45 -76 -65.5 -146.5t-20.5 -145.5zM733 522q29 10 69 17.5t86 19.5t92 30.5t87 49.5 q78 55 78 129q0 41 -26.5 68.5t-76.5 27.5q-111 0 -188.5 -93t-120.5 -249z" />
<glyph unicode="&#xe7;" horiz-adv-x="765" d="M8 -412q0 35 39 39q41 -29 74 -44t69 -15q59 0 95.5 31.5t36.5 81.5q0 43 -28 68.5t-71 25.5q-23 0 -40 -7.5t-36 -15.5l-16 21l121 209q-100 14 -157.5 96t-57.5 198q0 170 96 342q90 168 229 248q113 66 203 66q53 0 87 -12.5t75 -47.5q55 -47 55 -139q0 -53 -28.5 -84 t-75.5 -31q-41 0 -66.5 24t-25.5 71q0 29 14 54.5t37 47.5q8 6 8 14q0 14 -28.5 25.5t-63.5 11.5q-100 0 -182 -85t-138 -259q-49 -154 -49 -278q0 -180 131 -181q113 0 234 132q20 23 33.5 36t23.5 13q23 0 25 -8.5t2 -24.5q0 -20 -47 -80q-59 -70 -131 -106.5t-144 -42.5 l-75 -132q25 10 49 11q78 0 124 -45t46 -123q0 -94 -74 -146.5t-184 -52.5q-47 0 -81 11.5t-56.5 26.5t-35 30.5t-16.5 25.5z" />
<glyph unicode="&#xe8;" horiz-adv-x="757" d="M37 256q0 111 27.5 210t93.5 202q76 117 192.5 190.5t243.5 73.5q86 0 127 -50t41 -124q0 -98 -83 -154.5t-224 -81.5q-98 -18 -154.5 -34.5t-85.5 -34.5q-16 -55 -31.5 -121t-15.5 -123q0 -59 35 -102.5t100 -43.5q74 0 137.5 42t118.5 116l18.5 18.5t20.5 8.5 q16 0 20.5 -7.5t4.5 -23.5q0 -10 -11.5 -29.5t-29.5 -44.5q-66 -84 -137.5 -123.5t-174.5 -39.5q-106 0 -169.5 72.5t-63.5 203.5zM225 522l170 47q117 33 179.5 82t62.5 123q0 41 -29.5 65.5t-87.5 24.5q-49 0 -102 -31.5t-99 -97.5q-35 -49 -58 -104.5t-36 -108.5z M340 1382q0 41 26.5 62.5t51.5 21.5q33 0 54.5 -19.5t43.5 -53.5q10 -14 29.5 -47t44 -73t51.5 -83t51 -78q4 -4 4 -16q0 -10 -12 -18.5t-29 3.5q-86 68 -146 122t-106 89q-39 29 -51 48.5t-12 41.5z" />
<glyph unicode="&#xe9;" horiz-adv-x="757" d="M37 256q0 111 27.5 210t93.5 202q76 117 192.5 190.5t243.5 73.5q86 0 127 -50t41 -124q0 -98 -83 -154.5t-224 -81.5q-98 -18 -154.5 -34.5t-85.5 -34.5q-16 -55 -31.5 -121t-15.5 -123q0 -59 35 -102.5t100 -43.5q74 0 137.5 42t118.5 116l18.5 18.5t20.5 8.5 q16 0 20.5 -7.5t4.5 -23.5q0 -10 -11.5 -29.5t-29.5 -44.5q-66 -84 -137.5 -123.5t-174.5 -39.5q-106 0 -169.5 72.5t-63.5 203.5zM225 522l170 47q117 33 179.5 82t62.5 123q0 41 -29.5 65.5t-87.5 24.5q-49 0 -102 -31.5t-99 -97.5q-35 -49 -58 -104.5t-36 -108.5z M434 1092v8t2 6q35 37 74 79t76 80t65.5 69.5t42.5 45.5q35 37 60.5 53.5t58.5 14.5q35 -2 49 -24.5t12 -51.5q-2 -27 -13 -48t-66 -56t-137.5 -81t-186.5 -108q-10 -6 -24.5 -2t-12.5 15z" />
<glyph unicode="&#xea;" horiz-adv-x="757" d="M37 256q0 111 27.5 210t93.5 202q76 117 192.5 190.5t243.5 73.5q86 0 127 -50t41 -124q0 -98 -83 -154.5t-224 -81.5q-98 -18 -154.5 -34.5t-85.5 -34.5q-16 -55 -31.5 -121t-15.5 -123q0 -59 35 -102.5t100 -43.5q74 0 137.5 42t118.5 116l18.5 18.5t20.5 8.5 q16 0 20.5 -7.5t4.5 -23.5q0 -10 -11.5 -29.5t-29.5 -44.5q-66 -84 -137.5 -123.5t-174.5 -39.5q-106 0 -169.5 72.5t-63.5 203.5zM225 522l170 47q117 33 179.5 82t62.5 123q0 41 -29.5 65.5t-87.5 24.5q-49 0 -102 -31.5t-99 -97.5q-35 -49 -58 -104.5t-36 -108.5z M277.5 1087.5q-1.5 10.5 11.5 26.5l248 283q29 31 51 49t55 18q39 0 55.5 -18.5t32.5 -52.5l125 -279q6 -12 5 -24.5t-17 -12.5q-12 0 -23 8l-188 240l-316 -242q-12 -6 -22 -6q-16 0 -17.5 10.5z" />
<glyph unicode="&#xeb;" horiz-adv-x="757" d="M37 256q0 111 27.5 210t93.5 202q76 117 192.5 190.5t243.5 73.5q86 0 127 -50t41 -124q0 -98 -83 -154.5t-224 -81.5q-98 -18 -154.5 -34.5t-85.5 -34.5q-16 -55 -31.5 -121t-15.5 -123q0 -59 35 -102.5t100 -43.5q74 0 137.5 42t118.5 116l18.5 18.5t20.5 8.5 q16 0 20.5 -7.5t4.5 -23.5q0 -10 -11.5 -29.5t-29.5 -44.5q-66 -84 -137.5 -123.5t-174.5 -39.5q-106 0 -169.5 72.5t-63.5 203.5zM225 522l170 47q117 33 179.5 82t62.5 123q0 41 -29.5 65.5t-87.5 24.5q-49 0 -102 -31.5t-99 -97.5q-35 -49 -58 -104.5t-36 -108.5z M281 1247q0 41 27.5 72t74.5 31q41 0 69.5 -29t28.5 -74q0 -41 -26.5 -70.5t-73.5 -29.5q-45 0 -72.5 29.5t-27.5 70.5zM657 1247q0 45 31 74t72 29q45 0 72.5 -31t27.5 -72q0 -43 -29.5 -71.5t-70.5 -28.5q-45 0 -74 29.5t-29 70.5z" />
<glyph unicode="&#xec;" horiz-adv-x="636" d="M72 664q0 8 9 29.5t32 49.5q39 47 71.5 82t73.5 64q35 25 60.5 33t54.5 8q37 0 65.5 -24.5t28.5 -96.5q0 -45 -17.5 -111.5t-46.5 -144.5l-114 -311q-10 -27 -15.5 -52.5t-5.5 -42.5q0 -53 43 -53q31 0 70 39t76 94q23 31 34 47.5t27 16.5q25 0 25 -25q0 -12 -10.5 -34.5 t-29 -49t-42 -55.5t-49.5 -55q-41 -41 -81 -66.5t-87 -25.5q-49 0 -79 35.5t-30 95.5q0 66 25 141l135 371q35 98 35 151q0 43 -29 43q-39 0 -106 -74q-16 -16 -29.5 -33.5t-30.5 -41.5q-16 -23 -23.5 -27t-17.5 -4q-23 0 -22 27zM174 1382q0 41 26.5 62.5t51.5 21.5 q33 0 54.5 -19.5t43.5 -53.5q10 -14 29.5 -47t44.5 -73t51.5 -83t50.5 -78q4 -4 4 -16q0 -10 -12 -18.5t-29 3.5q-86 68 -146 122t-105 89q-39 29 -51.5 48.5t-12.5 41.5z" />
<glyph unicode="&#xed;" horiz-adv-x="636" d="M72 664q0 8 9 29.5t32 49.5q39 47 71.5 82t73.5 64q35 25 60.5 33t54.5 8q37 0 65.5 -24.5t28.5 -96.5q0 -45 -17.5 -111.5t-46.5 -144.5l-114 -311q-10 -27 -15.5 -52.5t-5.5 -42.5q0 -53 43 -53q31 0 70 39t76 94q23 31 34 47.5t27 16.5q25 0 25 -25q0 -12 -10.5 -34.5 t-29 -49t-42 -55.5t-49.5 -55q-41 -41 -81 -66.5t-87 -25.5q-49 0 -79 35.5t-30 95.5q0 66 25 141l135 371q35 98 35 151q0 43 -29 43q-39 0 -106 -74q-16 -16 -29.5 -33.5t-30.5 -41.5q-16 -23 -23.5 -27t-17.5 -4q-23 0 -22 27zM260 1092v8t2 6q35 37 74 79t76 80 t65.5 69.5t42.5 45.5q35 37 60.5 53.5t58.5 14.5q35 -2 49 -24.5t12 -51.5q-2 -27 -13 -48t-66 -56t-137.5 -81t-186.5 -108q-10 -6 -24.5 -2t-12.5 15z" />
<glyph unicode="&#xee;" horiz-adv-x="641" d="M74 664q0 8 9 29.5t32 49.5q39 47 71.5 82t73.5 64q35 25 60.5 33t54.5 8q37 0 65.5 -24.5t28.5 -96.5q0 -45 -17.5 -111.5t-45.5 -144.5l-115 -311q-10 -27 -15.5 -52.5t-5.5 -42.5q0 -53 43 -53q31 0 70 39t76 94q23 31 34 47.5t27 16.5q25 0 25 -25q0 -12 -10.5 -34.5 t-29 -49t-42 -55.5t-49.5 -55q-41 -41 -81 -66.5t-87 -25.5q-49 0 -79 35.5t-30 95.5q0 66 25 141l135 371q35 98 35 151q0 43 -29 43q-39 0 -106 -74q-16 -16 -29.5 -33.5t-30.5 -41.5q-16 -23 -23.5 -27t-17.5 -4q-23 0 -22 27zM97.5 1087.5q-1.5 10.5 11.5 26.5l227 283 q27 33 50.5 50t55.5 17q39 0 57.5 -18.5t30.5 -52.5l105 -279q4 -12 4 -24.5t-16 -12.5q-4 0 -11.5 1t-11.5 7l-168 240l-295 -242q-12 -6 -22 -6q-16 0 -17.5 10.5z" />
<glyph unicode="&#xef;" horiz-adv-x="641" d="M74 664q0 8 9 29.5t32 49.5q39 47 71.5 82t73.5 64q35 25 60.5 33t54.5 8q37 0 65.5 -24.5t28.5 -96.5q0 -45 -17.5 -111.5t-45.5 -144.5l-115 -311q-10 -27 -15.5 -52.5t-5.5 -42.5q0 -53 43 -53q31 0 70 39t76 94q23 31 34 47.5t27 16.5q25 0 25 -25q0 -12 -10.5 -34.5 t-29 -49t-42 -55.5t-49.5 -55q-41 -41 -81 -66.5t-87 -25.5q-49 0 -79 35.5t-30 95.5q0 66 25 141l135 371q35 98 35 151q0 43 -29 43q-39 0 -106 -74q-16 -16 -29.5 -33.5t-30.5 -41.5q-16 -23 -23.5 -27t-17.5 -4q-23 0 -22 27zM129 1247q0 41 27.5 72t74.5 31 q41 0 70 -29t29 -74q0 -41 -27 -70.5t-74 -29.5q-45 0 -72.5 29.5t-27.5 70.5zM473 1247q0 45 31 74t71 29q45 0 73 -31t28 -72q0 -43 -30 -71.5t-71 -28.5q-45 0 -73.5 29.5t-28.5 70.5z" />
<glyph unicode="&#xf0;" horiz-adv-x="884" d="M35 324q0 90 37 196.5t105.5 197.5t170 152.5t230.5 61.5q123 0 194 -101v37q0 109 -31.5 200t-72.5 159l-244 -146q-14 -8 -31.5 7.5t-17.5 31.5q0 6 1 14.5t9 12.5l242 143q-82 104 -142 137q-8 4 -8 14.5t5 21t15.5 18.5t24.5 8q6 0 15 -4q53 -35 95 -70t79 -76 l194 119q16 10 31.5 -6.5t15.5 -32.5v-14t-10 -12l-182 -109q27 -41 51.5 -92t42.5 -109.5t29.5 -121t11.5 -123.5q0 -184 -49 -342t-129 -275t-183.5 -182.5t-214.5 -65.5q-55 0 -107 17.5t-91 57.5t-62.5 107.5t-23.5 168.5zM158 209q0 -80 43 -127t112 -47q59 0 123 39 t115 121q74 117 129 248t78 270q-16 72 -60.5 115.5t-115.5 43.5q-66 0 -146 -51t-141 -157q-66 -113 -101.5 -232t-35.5 -223z" />
<glyph unicode="&#xf1;" horiz-adv-x="1185" d="M35 641q0 27 33 86q35 63 59.5 94t48.5 56q23 23 53.5 37t65.5 14q41 0 65.5 -24.5t36.5 -67.5q10 -35 15.5 -81t3.5 -87q111 141 197.5 200.5t179.5 59.5q86 0 133 -43t47 -115q0 -66 -34 -181.5t-99 -299.5q-41 -117 -41 -146q0 -49 43 -49q25 0 66.5 39t88.5 115 q20 29 29.5 37t20.5 8q8 0 15 -6.5t7 -20.5q0 -10 -13.5 -38.5t-35.5 -63.5q-55 -78 -111.5 -131t-122.5 -53q-123 0 -122 143q0 68 90 307q37 98 62.5 186.5t25.5 141.5q0 41 -28 64.5t-66 23.5q-33 0 -68 -14.5t-64 -36.5q-76 -59 -155 -168q-27 -35 -44.5 -69t-33.5 -69 q-14 -33 -32.5 -82t-45.5 -124q-66 -188 -69 -215q-12 -55 -39 -70q-10 -4 -22.5 -6t-24.5 -2q-47 0 -58 8q-10 8 -10 20q0 8 22.5 70t65.5 178q47 123 73.5 200t39.5 120q8 27 13 57.5t5 58.5q0 125 -55 125q-23 0 -44.5 -20.5t-39.5 -46.5q-53 -76 -74 -127 q-8 -20 -33 -19q-10 2 -15 6.5t-5 20.5zM379 1171q29 92 90 146.5t139 54.5q29 0 67 -14.5t79 -36.5q47 -25 72.5 -36t43.5 -11q47 0 73 31.5t44 70.5q4 12 16.5 19.5t22.5 7.5q33 0 21 -37q-29 -92 -90.5 -147.5t-139.5 -55.5q-29 0 -61.5 12.5t-83.5 41.5q-76 47 -117 47 q-47 0 -72.5 -32t-44.5 -71q-4 -12 -16 -19t-23 -7q-33 0 -20 36z" />
<glyph unicode="&#xf2;" horiz-adv-x="884" d="M35 299q0 88 17.5 163t58.5 152q35 66 84 124.5t107 101.5t124 68.5t133 25.5q135 0 211 -87t76 -241q0 -129 -43 -239.5t-137 -214.5q-82 -92 -173.5 -134.5t-177.5 -42.5q-127 0 -203.5 88.5t-76.5 235.5zM158 205q0 -80 42 -125t111 -45q59 0 123 39t117 121 q86 131 128 256t42 254q0 88 -45 128.5t-109 40.5q-66 0 -139.5 -51t-132.5 -159q-63 -115 -100 -235t-37 -224zM377 1382q0 41 26.5 62.5t51.5 21.5q33 0 54 -19.5t44 -53.5q10 -14 29.5 -47t44 -73t51.5 -83t51 -78q4 -4 4 -16q0 -10 -12 -18.5t-29 3.5q-86 68 -146.5 122 t-105.5 89q-39 29 -51 48.5t-12 41.5z" />
<glyph unicode="&#xf3;" horiz-adv-x="884" d="M35 299q0 88 17.5 163t58.5 152q35 66 84 124.5t107 101.5t124 68.5t133 25.5q135 0 211 -87t76 -241q0 -129 -43 -239.5t-137 -214.5q-82 -92 -173.5 -134.5t-177.5 -42.5q-127 0 -203.5 88.5t-76.5 235.5zM158 205q0 -80 42 -125t111 -45q59 0 123 39t117 121 q86 131 128 256t42 254q0 88 -45 128.5t-109 40.5q-66 0 -139.5 -51t-132.5 -159q-63 -115 -100 -235t-37 -224zM473 1092v8t2 6q35 37 74 79t76 80t65.5 69.5t42.5 45.5q35 37 60.5 53.5t58.5 14.5q35 -2 49 -24.5t12 -51.5q-2 -27 -13 -48t-66 -56t-137.5 -81t-186.5 -108 q-10 -6 -24.5 -2t-12.5 15z" />
<glyph unicode="&#xf4;" horiz-adv-x="884" d="M35 299q0 88 17.5 163t58.5 152q35 66 84 124.5t107 101.5t124 68.5t133 25.5q135 0 211 -87t76 -241q0 -129 -43 -239.5t-137 -214.5q-82 -92 -173.5 -134.5t-177.5 -42.5q-127 0 -203.5 88.5t-76.5 235.5zM158 205q0 -80 42 -125t111 -45q59 0 123 39t117 121 q86 131 128 256t42 254q0 88 -45 128.5t-109 40.5q-66 0 -139.5 -51t-132.5 -159q-63 -115 -100 -235t-37 -224zM306.5 1087.5q-1.5 10.5 10.5 26.5l248 283q29 31 51.5 49t55.5 18q39 0 55 -18.5t33 -52.5l125 -279q6 -12 5 -24.5t-18 -12.5q-12 0 -22 8l-188 240 l-316 -242q-12 -6 -22 -6q-16 0 -17.5 10.5z" />
<glyph unicode="&#xf5;" horiz-adv-x="884" d="M35 299q0 88 17.5 163t58.5 152q35 66 84 124.5t107 101.5t124 68.5t133 25.5q135 0 211 -87t76 -241q0 -129 -43 -239.5t-137 -214.5q-82 -92 -173.5 -134.5t-177.5 -42.5q-127 0 -203.5 88.5t-76.5 235.5zM158 205q0 -80 42 -125t111 -45q59 0 123 39t117 121 q86 131 128 256t42 254q0 88 -45 128.5t-109 40.5q-66 0 -139.5 -51t-132.5 -159q-63 -115 -100 -235t-37 -224zM293 1171q29 92 90 146.5t139 54.5q29 0 67 -14.5t79 -36.5q47 -25 72.5 -36t43.5 -11q47 0 73 31.5t44 70.5q4 12 16.5 19.5t22.5 7.5q33 0 21 -37 q-29 -92 -90.5 -147.5t-139.5 -55.5q-29 0 -61.5 12.5t-83.5 41.5q-76 47 -117 47q-47 0 -72.5 -32t-44.5 -71q-4 -12 -16 -19t-23 -7q-33 0 -20 36z" />
<glyph unicode="&#xf6;" horiz-adv-x="884" d="M35 299q0 88 17.5 163t58.5 152q35 66 84 124.5t107 101.5t124 68.5t133 25.5q135 0 211 -87t76 -241q0 -129 -43 -239.5t-137 -214.5q-82 -92 -173.5 -134.5t-177.5 -42.5q-127 0 -203.5 88.5t-76.5 235.5zM158 205q0 -80 42 -125t111 -45q59 0 123 39t117 121 q86 131 128 256t42 254q0 88 -45 128.5t-109 40.5q-66 0 -139.5 -51t-132.5 -159q-63 -115 -100 -235t-37 -224zM317 1247q0 41 28 72t75 31q41 0 69.5 -29t28.5 -74q0 -41 -26.5 -70.5t-73.5 -29.5q-45 0 -73 29.5t-28 70.5zM694 1247q0 45 31 74t72 29q45 0 72.5 -31 t27.5 -72q0 -43 -29.5 -71.5t-70.5 -28.5q-45 0 -74 29.5t-29 70.5z" />
<glyph unicode="&#xf7;" horiz-adv-x="1556" d="M213 461v96h1188v-96h-1188zM688 84q0 47 34 81t81 34t81 -34t34 -81t-34 -81t-81 -34t-81 34t-34 81zM688 932q0 47 34 81t81 34t81 -34t34 -81t-34 -81t-81 -34t-81 34t-34 81z" />
<glyph unicode="&#xf8;" horiz-adv-x="884" d="M34 -155.5q-9 12.5 1 30.5l102 162q-102 90 -102 262q0 88 17.5 163t58.5 152q35 66 84 124.5t107 101.5t124 68.5t133 25.5q68 0 127 -27l86 135q10 14 35 15q16 0 25.5 -12.5t-1.5 -26.5l-90 -144q105 -86 105 -268q0 -129 -43 -239.5t-137 -214.5 q-82 -92 -173.5 -134.5t-177.5 -42.5q-66 0 -125 27l-98 -158q-4 -8 -14 -10t-19 -2q-16 0 -25 12.5zM158 205q0 -57 22 -99l471 746q-39 23 -84 22q-66 0 -139.5 -51t-132.5 -159q-63 -115 -100 -235t-37 -224zM225 57q35 -23 86 -22q59 0 123 39t117 121q86 131 128 256 t42 254q0 31 -7 55t-18 45z" />
<glyph unicode="&#xf9;" horiz-adv-x="1112" d="M53 678q0 8 13.5 34.5t29.5 47.5q41 53 75 85t60 48q25 16 54.5 27.5t58.5 11.5q59 0 80.5 -37t21.5 -90q0 -57 -24 -129l-115 -326q-20 -59 -28.5 -106t-8.5 -94q0 -41 23.5 -66t64.5 -25q47 0 94.5 29t86.5 70q37 41 78.5 92t64.5 96q33 70 73 181.5t76 246.5 q16 55 24.5 86t16.5 41q12 16 35 17q10 0 30.5 -1.5t35.5 -3.5q10 -2 21.5 -7t11.5 -15q0 -6 -5.5 -19.5t-9.5 -25.5l-155 -457q-10 -25 -19.5 -75t-9.5 -101q0 -47 1 -79t5 -42q6 -16 27 -16q10 0 23.5 7t28.5 24.5t35.5 48t47.5 77.5q20 37 28.5 48.5t24.5 11.5t20.5 -9.5 t4.5 -19.5q0 -25 -39 -96q-59 -111 -115 -154q-25 -20 -45 -27t-49 -7q-121 0 -121 172v45t2 41q-43 -55 -86 -106.5t-123 -104.5q-39 -25 -79 -36t-81 -11q-86 0 -132 43t-46 131q0 47 17.5 116.5t50.5 167.5l74 217q2 6 7 21.5t10 33t9 33t4 21.5q0 53 -39 53 q-29 0 -60.5 -28.5t-72.5 -83.5q-10 -16 -19 -28.5t-14 -17.5q-10 -12 -26 -12q-27 0 -27 31zM481 1382q0 41 27 62.5t51 21.5q33 0 54.5 -19.5t43.5 -53.5q10 -14 30 -47t44.5 -73t51 -83t51.5 -78q4 -4 4 -16q0 -10 -12.5 -18.5t-28.5 3.5q-86 68 -146.5 122t-105.5 89 q-39 29 -51.5 48.5t-12.5 41.5z" />
<glyph unicode="&#xfa;" horiz-adv-x="1112" d="M53 678q0 8 13.5 34.5t29.5 47.5q41 53 75 85t60 48q25 16 54.5 27.5t58.5 11.5q59 0 80.5 -37t21.5 -90q0 -57 -24 -129l-115 -326q-20 -59 -28.5 -106t-8.5 -94q0 -41 23.5 -66t64.5 -25q47 0 94.5 29t86.5 70q37 41 78.5 92t64.5 96q33 70 73 181.5t76 246.5 q16 55 24.5 86t16.5 41q12 16 35 17q10 0 30.5 -1.5t35.5 -3.5q10 -2 21.5 -7t11.5 -15q0 -6 -5.5 -19.5t-9.5 -25.5l-155 -457q-10 -25 -19.5 -75t-9.5 -101q0 -47 1 -79t5 -42q6 -16 27 -16q10 0 23.5 7t28.5 24.5t35.5 48t47.5 77.5q20 37 28.5 48.5t24.5 11.5t20.5 -9.5 t4.5 -19.5q0 -25 -39 -96q-59 -111 -115 -154q-25 -20 -45 -27t-49 -7q-121 0 -121 172v45t2 41q-43 -55 -86 -106.5t-123 -104.5q-39 -25 -79 -36t-81 -11q-86 0 -132 43t-46 131q0 47 17.5 116.5t50.5 167.5l74 217q2 6 7 21.5t10 33t9 33t4 21.5q0 53 -39 53 q-29 0 -60.5 -28.5t-72.5 -83.5q-10 -16 -19 -28.5t-14 -17.5q-10 -12 -26 -12q-27 0 -27 31zM588 1092v8t2 6q35 37 73.5 79t75.5 80t66 69.5t43 45.5q35 37 60.5 53.5t58.5 14.5q35 -2 49 -24.5t12 -51.5q-2 -27 -13 -48t-67 -56q-55 -35 -137 -81t-186 -108 q-10 -6 -24.5 -2t-12.5 15z" />
<glyph unicode="&#xfb;" horiz-adv-x="1112" d="M53 678q0 8 13.5 34.5t29.5 47.5q41 53 75 85t60 48q25 16 54.5 27.5t58.5 11.5q59 0 80.5 -37t21.5 -90q0 -57 -24 -129l-115 -326q-20 -59 -28.5 -106t-8.5 -94q0 -41 23.5 -66t64.5 -25q47 0 94.5 29t86.5 70q37 41 78.5 92t64.5 96q33 70 73 181.5t76 246.5 q16 55 24.5 86t16.5 41q12 16 35 17q10 0 30.5 -1.5t35.5 -3.5q10 -2 21.5 -7t11.5 -15q0 -6 -5.5 -19.5t-9.5 -25.5l-155 -457q-10 -25 -19.5 -75t-9.5 -101q0 -47 1 -79t5 -42q6 -16 27 -16q10 0 23.5 7t28.5 24.5t35.5 48t47.5 77.5q20 37 28.5 48.5t24.5 11.5t20.5 -9.5 t4.5 -19.5q0 -25 -39 -96q-59 -111 -115 -154q-25 -20 -45 -27t-49 -7q-121 0 -121 172v45t2 41q-43 -55 -86 -106.5t-123 -104.5q-39 -25 -79 -36t-81 -11q-86 0 -132 43t-46 131q0 47 17.5 116.5t50.5 167.5l74 217q2 6 7 21.5t10 33t9 33t4 21.5q0 53 -39 53 q-29 0 -60.5 -28.5t-72.5 -83.5q-10 -16 -19 -28.5t-14 -17.5q-10 -12 -26 -12q-27 0 -27 31zM404.5 1087.5q-1.5 10.5 11.5 26.5l248 283q29 31 51 49t55 18q39 0 55.5 -18.5t32.5 -52.5l125 -279q6 -12 5 -24.5t-17 -12.5q-12 0 -23 8l-188 240l-316 -242q-12 -6 -22 -6 q-16 0 -17.5 10.5z" />
<glyph unicode="&#xfc;" horiz-adv-x="1112" d="M53 678q0 8 13.5 34.5t29.5 47.5q41 53 75 85t60 48q25 16 54.5 27.5t58.5 11.5q59 0 80.5 -37t21.5 -90q0 -57 -24 -129l-115 -326q-20 -59 -28.5 -106t-8.5 -94q0 -41 23.5 -66t64.5 -25q47 0 94.5 29t86.5 70q37 41 78.5 92t64.5 96q33 70 73 181.5t76 246.5 q16 55 24.5 86t16.5 41q12 16 35 17q10 0 30.5 -1.5t35.5 -3.5q10 -2 21.5 -7t11.5 -15q0 -6 -5.5 -19.5t-9.5 -25.5l-155 -457q-10 -25 -19.5 -75t-9.5 -101q0 -47 1 -79t5 -42q6 -16 27 -16q10 0 23.5 7t28.5 24.5t35.5 48t47.5 77.5q20 37 28.5 48.5t24.5 11.5t20.5 -9.5 t4.5 -19.5q0 -25 -39 -96q-59 -111 -115 -154q-25 -20 -45 -27t-49 -7q-121 0 -121 172v45t2 41q-43 -55 -86 -106.5t-123 -104.5q-39 -25 -79 -36t-81 -11q-86 0 -132 43t-46 131q0 47 17.5 116.5t50.5 167.5l74 217q2 6 7 21.5t10 33t9 33t4 21.5q0 53 -39 53 q-29 0 -60.5 -28.5t-72.5 -83.5q-10 -16 -19 -28.5t-14 -17.5q-10 -12 -26 -12q-27 0 -27 31zM408 1247q0 41 27.5 72t74.5 31q41 0 69.5 -29t28.5 -74q0 -41 -26.5 -70.5t-73.5 -29.5q-45 0 -72.5 29.5t-27.5 70.5zM784 1247q0 45 31 74t72 29q45 0 72.5 -31t27.5 -72 q0 -43 -29.5 -71.5t-70.5 -28.5q-45 0 -74 29.5t-29 70.5z" />
<glyph unicode="&#xfd;" d="M41 674q0 27 35 74q35 45 69.5 78.5t73.5 56.5q41 25 69.5 35t55.5 10q59 0 80.5 -28t21.5 -87q0 -25 -10 -68t-24 -90q-8 -29 -35 -107.5t-76 -217.5q-25 -74 -34 -121t-9 -76q0 -23 16.5 -43t44.5 -20q66 0 138.5 51t146.5 143q53 68 96 142.5t68 156.5 q16 47 31.5 107.5t27.5 124.5q18 90 33 106q12 16 49 17q25 0 30 -2.5l13 -6.5q6 -4 13.5 -12t7.5 -18q0 -14 -5 -35t-10 -37l-84 -301q-39 -147 -68.5 -253t-52 -183.5t-41 -135t-36.5 -106.5q-63 -180 -165.5 -262t-225.5 -82q-98 0 -163 45t-65 115q0 45 28 77.5t71 32.5 q55 0 78.5 -31.5t23.5 -80.5q0 -16 -6 -40t-6 -34q0 -14 16.5 -19.5t30.5 -5.5q66 0 117 43t90 119q37 72 77.5 182.5t73.5 227.5q23 78 31 110.5t14 57.5q-39 -47 -74.5 -91.5t-82.5 -87.5q-63 -59 -123 -83.5t-115 -24.5q-78 0 -119 42t-41 120q0 53 14.5 113.5 t39.5 131.5q10 29 25.5 74t33.5 98q29 74 45 126.5t16 80.5q0 45 -34 45q-35 0 -73 -34.5t-91 -100.5q-14 -18 -26.5 -30.5t-22.5 -12.5t-18.5 7.5t-8.5 17.5zM565 1092v8t2 6q35 37 74 79t76 80t65.5 69.5t42.5 45.5q35 37 60.5 53.5t58.5 14.5q35 -2 49.5 -24.5 t12.5 -51.5q-2 -27 -13.5 -48t-66.5 -56t-137 -81t-187 -108q-10 -6 -24.5 -2t-12.5 15z" />
<glyph unicode="&#xfe;" horiz-adv-x="919" d="M-281 -485q0 6 3.5 11t7.5 15q51 4 83.5 11.5t52 19.5t29 30.5t17.5 45.5l487 1657q6 23 7 49q0 16 -9.5 26.5t-25 15.5t-35 7t-37.5 4q-23 2 -26 12.5t-3 22.5q0 31 35 31q10 0 42 -4.5t73 -4.5q6 0 37.5 2t54.5 2q53 0 53 -43q0 -6 -2 -17t-6 -24q-8 -27 -33.5 -112.5 t-58.5 -189t-63.5 -201t-47.5 -146.5q98 100 174 144.5t162 44.5q98 0 147.5 -68.5t49.5 -193.5q0 -96 -24.5 -185.5t-69.5 -173.5q-49 -92 -112 -150.5t-134 -99.5q-47 -27 -102.5 -41t-104.5 -14q-115 0 -176 82l-109 -385q-6 -20 -12 -54t-6 -55q0 -23 23.5 -33t54.5 -10 h67q4 -10 9.5 -17t5.5 -15t-6.5 -14.5t-10.5 -14.5h-456q-4 6 -4.5 14t-0.5 19zM205 197q0 -57 33.5 -95.5t87.5 -42.5q51 -4 104 15.5t96 64.5q47 49 94.5 127t84.5 197q23 72 33 134.5t10 111.5q0 57 -32 92t-85 35q-51 0 -116.5 -40t-131.5 -112q-39 -45 -76 -130 t-61 -177l-35 -135q-2 -8 -4 -22.5t-2 -22.5z" />
<glyph unicode="&#xff;" d="M41 674q0 27 35 74q35 45 69.5 78.5t73.5 56.5q41 25 69.5 35t55.5 10q59 0 80.5 -28t21.5 -87q0 -25 -10 -68t-24 -90q-8 -29 -35 -107.5t-76 -217.5q-25 -74 -34 -121t-9 -76q0 -23 16.5 -43t44.5 -20q66 0 138.5 51t146.5 143q53 68 96 142.5t68 156.5 q16 47 31.5 107.5t27.5 124.5q18 90 33 106q12 16 49 17q25 0 30 -2.5l13 -6.5q6 -4 13.5 -12t7.5 -18q0 -14 -5 -35t-10 -37l-84 -301q-39 -147 -68.5 -253t-52 -183.5t-41 -135t-36.5 -106.5q-63 -180 -165.5 -262t-225.5 -82q-98 0 -163 45t-65 115q0 45 28 77.5t71 32.5 q55 0 78.5 -31.5t23.5 -80.5q0 -16 -6 -40t-6 -34q0 -14 16.5 -19.5t30.5 -5.5q66 0 117 43t90 119q37 72 77.5 182.5t73.5 227.5q23 78 31 110.5t14 57.5q-39 -47 -74.5 -91.5t-82.5 -87.5q-63 -59 -123 -83.5t-115 -24.5q-78 0 -119 42t-41 120q0 53 14.5 113.5 t39.5 131.5q10 29 25.5 74t33.5 98q29 74 45 126.5t16 80.5q0 45 -34 45q-35 0 -73 -34.5t-91 -100.5q-14 -18 -26.5 -30.5t-22.5 -12.5t-18.5 7.5t-8.5 17.5zM385 1247q0 41 27.5 72t74.5 31q41 0 70 -29t29 -74q0 -41 -27 -70.5t-74 -29.5q-45 0 -72.5 29.5t-27.5 70.5z M762 1247q0 45 30.5 74t71.5 29q45 0 73 -31t28 -72q0 -43 -30 -71.5t-71 -28.5q-45 0 -73.5 29.5t-28.5 70.5z" />
<glyph unicode="&#x152;" horiz-adv-x="2060" d="M100 598q0 344 183 586q117 152 283.5 225.5t383.5 73.5q86 0 177.5 -6.5t205.5 -6.5h434h181.5t79.5 -4q12 -4 12 -26l2 -326q0 -6 -6 -12t-23 -6q-16 0 -22 8q-4 6 -10.5 24.5t-13.5 41t-13 44t-12 33.5q-25 55 -62 97t-78 57q-16 6 -51 8t-80 2h-131q-31 0 -50.5 -1 t-32.5 -7t-22.5 -18.5t-15.5 -34.5l-157 -551q35 -2 66.5 -2h72.5q88 0 130 16t81 59q4 6 15 21.5t23.5 34l25 37t20.5 32.5q6 8 26 9q23 0 23 -15q0 -10 -16.5 -59t-45.5 -121l-20 -57.5t-25.5 -76.5t-27 -88t-25.5 -91q-2 -12 -29 -13q-10 0 -17 6.5t-7 10.5q0 33 7 78 t7 65q0 31 -9 47.5t-28 26.5q-16 8 -41.5 10t-50.5 2h-176l-96 -332q-18 -63 -26.5 -111t-8.5 -85q0 -86 64.5 -116t201.5 -30q104 0 176 14.5t125 45.5q31 18 59.5 40.5t56.5 54.5t57.5 78t64.5 113q4 12 27 13q16 0 22 -7.5t4 -11.5l-86 -374q-6 -25 -24 -27 q-10 -2 -41 -2h-74q-23 0 -84.5 2t-145 3t-180 3t-186.5 2q-156 0 -281 -9t-217 -9q-129 0 -230.5 44t-172 125t-108.5 193.5t-38 249.5zM262 543q0 -236 105.5 -366t289.5 -130q57 0 101.5 9.5t78 31t58.5 59t41 95.5l260 882q29 103 29 150q0 86 -62.5 116.5t-183.5 30.5 q-92 0 -185.5 -30.5t-177.5 -89t-154.5 -142.5t-113.5 -188q-41 -100 -63.5 -209t-22.5 -219z" />
<glyph unicode="&#x153;" horiz-adv-x="1370" d="M35 297q0 88 18.5 164t59.5 153q35 66 84 124.5t109.5 101.5t128 68.5t140.5 25.5q98 0 159 -54.5t91 -138.5q76 84 173.5 137.5t207.5 53.5q86 0 127 -50t41 -124q0 -98 -83 -154.5t-224 -81.5q-98 -18 -154.5 -34.5t-85.5 -34.5q-16 -55 -31.5 -121t-15.5 -123 q0 -59 35 -102.5t100 -43.5q74 0 137.5 42t118.5 116l18.5 18.5t20.5 8.5q16 0 20.5 -7.5t4.5 -23.5q0 -10 -11.5 -29.5t-29.5 -44.5q-66 -84 -137.5 -123.5t-173.5 -39.5q-168 0 -219 170q-78 -84 -162 -129.5t-176 -45.5q-133 0 -212 87.5t-79 234.5zM158 205 q0 -80 42 -125t111 -45q59 0 123 39t117 121q86 131 128 256t42 254q0 88 -45 128.5t-109 40.5q-66 0 -139.5 -51t-132.5 -159q-63 -115 -100 -235t-37 -224zM838 522l170 47q117 33 179 82t62 123q0 41 -29.5 65.5t-86.5 24.5q-49 0 -102.5 -31.5t-98.5 -97.5 q-35 -49 -58.5 -104.5t-35.5 -108.5z" />
<glyph unicode="&#x178;" horiz-adv-x="1312" d="M139 1141q0 18 15.5 45.5t42.5 68.5q47 66 92 111t89 71.5t89 38t92 11.5q68 0 114 -27.5t72.5 -75t38 -110t11.5 -129.5q0 -45 -2 -85t-6.5 -80t-11.5 -83t-17 -98l8 -4q49 92 95 174t94.5 153.5t101.5 136t117 121.5q72 66 122 87.5t93 21.5q41 0 78.5 -26.5 t37.5 -92.5q0 -43 -26.5 -83t-81.5 -40q-37 0 -58.5 9.5t-36 23.5t-21.5 30.5t-17 28.5q-29 -16 -72 -51t-84 -82q-16 -18 -50 -61t-100 -144q-88 -133 -172 -309q-20 -43 -42.5 -111.5t-38.5 -127.5q-43 -147 -59.5 -226.5t-16.5 -109.5q0 -20 14 -28.5t31 -12.5 q8 -2 26.5 -6t42 -8.5t46 -7.5t40.5 -3q10 0 11 -22q0 -8 -4.5 -18.5t-8.5 -10.5q-35 0 -113.5 2t-181.5 2q-152 0 -222 -2t-91 -2q-6 0 -12 7t-6 20q0 10 3 17t7 7q16 2 46 6t60.5 9.5t57 11.5t35.5 12q27 20 45 72q47 135 83.5 275.5t73.5 293.5q29 121 36 227.5t7 184.5 q0 117 -44 178t-122 61q-63 0 -138 -60t-161 -192q-8 -12 -28 -12q-8 0 -15.5 8.5t-7.5 14.5zM662 1749q0 23 8 43t24 35q29 31 78 31q37 0 76 -31q14 -14 21.5 -34.5t7.5 -43.5q0 -20 -7.5 -40.5t-21.5 -35.5q-33 -31 -78 -31q-47 0 -76 31q-16 14 -24 35t-8 41zM1098 1749 q0 47 30 78q41 31 78 31q49 0 76 -31q16 -14 24.5 -34.5t8.5 -43.5q0 -20 -8.5 -40.5t-24.5 -35.5q-14 -16 -33.5 -23.5t-42.5 -7.5q-43 0 -78 31q-31 31 -30 76z" />
<glyph unicode="&#x2c6;" horiz-adv-x="479" d="M257 1087.5q-1 10.5 11 26.5l248 283q29 31 51.5 49t55.5 18q39 0 55 -18.5t33 -52.5l125 -279q6 -12 5 -24.5t-18 -12.5q-12 0 -22 8l-189 240l-315 -242q-12 -6 -23 -6q-16 0 -17 10.5z" />
<glyph unicode="&#x2dc;" horiz-adv-x="479" d="M209 1171q29 92 90 146.5t139 54.5q29 0 67 -14.5t79 -36.5q47 -25 72.5 -36t43.5 -11q47 0 73 31.5t44 70.5q4 12 16.5 19.5t22.5 7.5q33 0 21 -37q-29 -92 -90.5 -147.5t-139.5 -55.5q-29 0 -61.5 12.5t-83.5 41.5q-76 47 -117 47q-47 0 -72.5 -32t-44.5 -71 q-4 -12 -16 -19t-23 -7q-33 0 -20 36z" />
<glyph unicode="&#x2000;" horiz-adv-x="989" />
<glyph unicode="&#x2001;" horiz-adv-x="1978" />
<glyph unicode="&#x2002;" horiz-adv-x="989" />
<glyph unicode="&#x2003;" horiz-adv-x="1978" />
<glyph unicode="&#x2004;" horiz-adv-x="659" />
<glyph unicode="&#x2005;" horiz-adv-x="494" />
<glyph unicode="&#x2006;" horiz-adv-x="329" />
<glyph unicode="&#x2007;" horiz-adv-x="329" />
<glyph unicode="&#x2008;" horiz-adv-x="247" />
<glyph unicode="&#x2009;" horiz-adv-x="395" />
<glyph unicode="&#x200a;" horiz-adv-x="109" />
<glyph unicode="&#x2010;" horiz-adv-x="692" d="M119 410v120h475v-120h-475z" />
<glyph unicode="&#x2011;" horiz-adv-x="692" d="M119 410v120h475v-120h-475z" />
<glyph unicode="&#x2012;" horiz-adv-x="692" d="M119 410v120h475v-120h-475z" />
<glyph unicode="&#x2013;" horiz-adv-x="1114" d="M199 422v102h786v-102h-786z" />
<glyph unicode="&#x2014;" horiz-adv-x="2031" d="M252 422v102h1597v-102h-1597z" />
<glyph unicode="&#x2018;" horiz-adv-x="528" d="M223 1100q0 104 73 198.5t232 159.5q35 16 59.5 21.5t39.5 5.5q16 0 16 -23q0 -14 -14 -22q-154 -66 -220.5 -137.5t-66.5 -131.5q0 -16 8 -22q6 -2 20.5 -8t30 -12.5t29.5 -12.5t19 -12q33 -31 32 -76q0 -47 -29.5 -78.5t-82.5 -31.5q-61 0 -103.5 49t-42.5 133z" />
<glyph unicode="&#x2019;" horiz-adv-x="528" d="M170 928q0 16 14 22q154 66 220.5 137.5t66.5 131.5q0 16 -8 22q-6 4 -20.5 9t-30 11.5t-29.5 12.5t-18 12q-33 31 -33 76q0 47 29.5 79t82.5 32q61 0 103.5 -49.5t42.5 -133.5q0 -104 -73 -198.5t-232 -159.5q-35 -16 -59.5 -21.5t-39.5 -5.5q-16 0 -16 23z" />
<glyph unicode="&#x201a;" horiz-adv-x="528" d="M-66 -307q0 14 15 22q154 66 220.5 137.5t66.5 131.5q0 16 -9 22q-6 4 -20 9t-29.5 11.5t-30 12.5t-18.5 12q-33 31 -33 76q0 47 30 79t83 32q61 0 103 -49.5t42 -133.5q0 -104 -72.5 -198.5t-232.5 -159.5q-35 -16 -59.5 -21.5t-38.5 -5.5q-16 0 -17 23z" />
<glyph unicode="&#x201c;" horiz-adv-x="909" d="M223 1100q0 104 73 198.5t232 159.5q35 16 59.5 21.5t39.5 5.5q16 0 16 -23q0 -14 -14 -22q-154 -66 -220.5 -137.5t-66.5 -131.5q0 -16 8 -22q6 -2 20.5 -8t30 -12.5t29.5 -12.5t19 -12q33 -31 32 -76q0 -47 -29.5 -78.5t-82.5 -31.5q-61 0 -103.5 49t-42.5 133z M606 1100q0 104 73 198.5t232 159.5q35 16 59.5 21.5t39.5 5.5q16 0 16 -23q0 -14 -14 -22q-154 -66 -220.5 -137.5t-66.5 -131.5q0 -16 8 -22q6 -2 20.5 -8t30 -12.5t29.5 -12.5t18 -12q33 -31 33 -76q0 -47 -29.5 -78.5t-82.5 -31.5q-61 0 -103.5 49t-42.5 133z" />
<glyph unicode="&#x201d;" horiz-adv-x="909" d="M170 928q0 16 14 22q154 66 220.5 137.5t66.5 131.5q0 16 -8 22q-6 4 -20.5 9t-30 11.5t-29.5 12.5t-18 12q-33 31 -33 76q0 47 29.5 79t82.5 32q61 0 103.5 -49.5t42.5 -133.5q0 -104 -73 -198.5t-232 -159.5q-35 -16 -59.5 -21.5t-39.5 -5.5q-16 0 -16 23zM555 928 q0 16 14 22q154 66 220.5 137.5t66.5 131.5q0 16 -8 22q-6 4 -20.5 9t-30 11.5t-29.5 12.5t-18 12q-33 31 -33 76q0 47 29.5 79t82.5 32q61 0 103.5 -49.5t42.5 -133.5q0 -104 -73 -198.5t-232 -159.5q-35 -16 -59.5 -21.5t-39.5 -5.5q-16 0 -16 23z" />
<glyph unicode="&#x201e;" horiz-adv-x="909" d="M-66 -307q0 14 15 22q154 66 220.5 137.5t66.5 131.5q0 16 -9 22q-6 4 -20 9t-29.5 11.5t-30 12.5t-18.5 12q-33 31 -33 76q0 47 30 79t83 32q61 0 103 -49.5t42 -133.5q0 -104 -72.5 -198.5t-232.5 -159.5q-35 -16 -59.5 -21.5t-38.5 -5.5q-16 0 -17 23zM317 -307 q0 14 15 22q154 66 220 137.5t66 131.5q0 16 -8 22q-6 4 -20.5 9t-29.5 11.5t-29.5 12.5t-18.5 12q-33 31 -33 76q0 47 30 79t83 32q61 0 103 -49.5t42 -133.5q0 -104 -72.5 -198.5t-232.5 -159.5q-35 -16 -59.5 -21.5t-38.5 -5.5q-16 0 -17 23z" />
<glyph unicode="&#x2022;" horiz-adv-x="774" d="M164 717q0 57 22.5 107t60.5 88t88 60.5t107 22.5t107.5 -22.5t88.5 -60.5t60.5 -88t22.5 -107t-22.5 -107.5t-60.5 -87.5t-88 -58.5t-108 -21.5q-57 0 -107 21.5t-88 58.5t-60.5 87t-22.5 108z" />
<glyph unicode="&#x2026;" horiz-adv-x="2070" d="M223 98q0 53 35 89t88 36q47 0 78 -27.5t31 -86.5t-37 -92t-90 -33q-51 0 -78 33.5t-27 80.5zM877 98q0 53 35.5 89t86.5 36q47 0 78 -27.5t31 -86.5t-37 -92t-90 -33q-51 0 -77.5 33.5t-26.5 80.5zM1530 98q0 53 36 89t87 36q47 0 77.5 -27.5t30.5 -86.5t-35.5 -92 t-91.5 -33q-51 0 -77.5 33.5t-26.5 80.5z" />
<glyph unicode="&#x202f;" horiz-adv-x="395" />
<glyph unicode="&#x2039;" horiz-adv-x="636" d="M113 471v14l372 303q39 27 58 27q18 0 18 -20q0 -12 -33.5 -56.5t-97.5 -107.5l-168 -164q10 -16 31.5 -50t50.5 -89q35 -72 57.5 -119t22.5 -62q0 -4 -4 -12t-14 -8q-14 0 -27.5 11.5t-26.5 27.5z" />
<glyph unicode="&#x203a;" horiz-adv-x="636" d="M72 160q0 12 33.5 56t97.5 108l168 163q-10 16 -32 50t-50 90q-35 72 -57.5 119t-22.5 61q0 4 4 12t14 8q14 0 27.5 -11t26.5 -28l239 -305v-14l-373 -303q-39 -27 -57 -27t-18 21z" />
<glyph unicode="&#x205f;" horiz-adv-x="494" />
<glyph unicode="&#x20ac;" horiz-adv-x="1163" d="M53 539q0 23 13.5 31t42.5 8h149q4 41 11 77.5t18 75.5h-137q-25 0 -32 5t-7 26q0 23 14 30t43 7h137q37 121 99.5 227.5t143.5 186t178 125.5t204 46q141 0 223 -61.5t82 -159.5q0 -49 -24.5 -87t-82.5 -38q-47 0 -73.5 24.5t-26.5 65.5q0 29 8 53.5t21 53.5 q4 41 -33 66.5t-100 25.5q-82 0 -155 -43t-134.5 -114.5t-109.5 -168t-81 -202.5h500q35 0 35 -29q0 -25 -12.5 -32t-40.5 -7h-500q-10 -39 -17.5 -76t-11.5 -77h365q23 0 30 -6.5t7 -24.5q0 -23 -13.5 -30t-42.5 -7h-352q-2 -18 -2 -33.5v-32.5q0 -184 68.5 -284.5 t214.5 -100.5q82 0 137 25t98 61q16 14 44 43t44 52q4 2 19 2q14 0 23.5 -9.5t13.5 -21.5q-2 -23 -56 -82q-70 -76 -151.5 -115t-179.5 -39q-201 0 -306.5 126t-105.5 356v26.5t2 26.5h-164q-23 0 -30 6t-7 23z" />
<glyph unicode="&#x2122;" horiz-adv-x="1628" d="M287 1290v162q0 20 22 21h66q14 0 73.5 -1.5t137.5 -1.5q109 0 180.5 2.5t91.5 2.5q25 0 31 -7q2 -4 2 -11v-13l-2 -164q-6 -10 -17 -10q-6 0 -18 6q-10 29 -21.5 52.5t-21.5 37.5q-18 25 -39.5 39t-66.5 18q-10 2 -26.5 2h-27.5l-2 -268v-73t2 -113q0 -27 6.5 -41.5 t18.5 -21.5t30.5 -10t43.5 -7q4 -6 7 -11.5t3 -9.5t-3 -9t-5 -9l-25 -2q-16 0 -37.5 1t-43 1t-39 1t-27.5 1h-24.5t-42.5 -1t-46.5 -1h-38.5l-6 6t-2 12q0 4 2 9.5t4 9.5q66 6 84 20.5t20 34.5q2 16 2 69.5v114.5v228v39.5t-4 29.5q-16 0 -46.5 -1t-41.5 -5 q-37 -14 -63.5 -45t-52.5 -86q-8 -8 -19 -8q-12 0 -18 10zM930 870q0 2 2 6.5t4 8.5q6 2 18.5 5t25.5 8t25.5 10t16.5 10q8 10 14 30.5t6 67.5l2 145l-2 170q0 37 -5 54.5t-23 27.5q-8 4 -30.5 9t-45.5 10q-8 8 -8 20q0 4 8 21q16 0 46 -1.5t60 -1.5h140q8 -6 14 -14 l174 -409l29 71q18 51 49 123t72 156q10 16 21 39.5t18 33.5l221 3q2 -4 6 -8.5t4 -8.5t-3 -10t-7 -10q-16 -4 -44 -8.5t-40 -30.5q-4 -8 -7 -21.5t-3 -50.5v-297q0 -41 4 -65.5t10 -38t12 -18.5t10 -7q4 -4 24.5 -7t35.5 -3q8 -9 8 -19t-3 -13t-5 -7h-234l-69 2q-2 4 -4 10 t-2 10t10 19q10 0 27.5 1t29.5 5q31 14 31 70v432l-117 -279q-10 -25 -21.5 -49t-21.5 -51q-23 -51 -35 -85t-16 -56q-4 -10 -12.5 -11.5t-12.5 -1.5q-8 0 -12 3t-8 16q-10 29 -18.5 47t-14.5 31l-190 442v-105l4 -286q2 -66 29.5 -96.5t76.5 -30.5q8 -8 8 -19q0 -8 -8 -18 q-2 0 -11 -1t-19 -1q-4 0 -35 2t-78 2q-14 0 -38 -1t-46 -1l-41 2q-2 4 -4 9t-2 9z" />
<glyph unicode="&#x25fc;" horiz-adv-x="921" d="M0 0v922h922v-922h-922z" />
<glyph unicode="&#xfb01;" horiz-adv-x="1105" d="M-383 -360q0 41 26.5 68.5t73.5 27.5q41 0 68 -23.5t29 -77.5q4 -49 13 -69.5t50 -20.5t74 39t53 84q10 25 37 97.5t55 195.5l199 819h-195q-23 0 -22 23q0 18 11 35.5t34 17.5h192l13 47q68 287 182.5 431.5t308.5 144.5q61 0 104.5 -15.5t69 -39t37.5 -53t12 -60.5 q0 -47 -26.5 -74t-67.5 -27q-35 0 -63.5 22.5t-28.5 90.5q0 37 -24.5 61.5t-59.5 24.5q-109 0 -188 -145q-35 -61 -70 -157.5t-70 -250.5h129q84 0 144.5 7t102.5 14.5t65.5 14.5t36.5 7q27 0 26 -29q0 -10 -6 -34l-178 -586q-14 -47 -18.5 -66.5t-4.5 -36.5q0 -53 43 -53 q59 0 148 135q20 31 32.5 47.5t28.5 16.5q23 0 23 -27q0 -12 -10.5 -35.5t-29 -52t-42 -59.5t-49.5 -58q-41 -41 -79 -61t-85 -20q-53 0 -82 35.5t-29 95.5q0 33 7.5 69.5t17.5 71.5l131 453q16 49 16 61q0 16 -41 16l-114 -2h-199l-217 -843q-12 -51 -25.5 -91.5t-28 -76 t-31.5 -68.5t-40 -70q-94 -150 -262 -149q-111 0 -159 48t-48 110z" />
<glyph unicode="&#xfb02;" horiz-adv-x="1118" d="M-383 -360q0 41 26.5 68.5t73.5 27.5q41 0 67 -23.5t30 -77.5q2 -49 12 -69.5t51 -20.5t74 39t53 84q10 25 37 97.5t55 195.5l199 819h-195q-23 0 -22 25q0 25 11 38t28 13h198q27 106 51.5 186t59.5 150q41 78 89 140.5t134 105.5q49 25 101.5 33t101.5 8 q70 0 111 -18.5t49 -18.5q4 0 21.5 5t33.5 5q27 0 35 -10t8 -33q0 -6 -2 -17.5t-6 -23.5l-344 -1188q-4 -12 -7 -26.5t-3 -22.5q0 -10 7 -16t17 -6q23 0 58.5 33.5t91.5 99.5q31 37 44 48t29 11t17.5 -7t1.5 -18q0 -18 -47 -86q-47 -59 -81 -97t-73 -66q-57 -43 -117 -43 q-37 0 -61.5 27.5t-24.5 76.5q0 16 3 40t8 40l178 612h-371l-217 -843q-12 -51 -25.5 -91.5t-28 -76t-31.5 -68.5t-40 -70q-94 -150 -262 -149q-111 0 -159 48t-48 110zM444 856h377l129 440q4 12 -6 32t-31.5 37t-53.5 30.5t-68 13.5q-74 0 -145 -66.5t-124 -212.5 q-23 -59 -40 -124.5t-38 -149.5z" />
</font>
</defs>
</svg>
