<?xml version="1.0" encoding="utf-8"?>
<!-- Generator: Adobe Illustrator 15.1.0, SVG Export Plug-In . SVG Version: 6.00 Build 0)  -->
<!DOCTYPE svg PUBLIC "-//W3C//DTD SVG 1.1//EN" "http://www.w3.org/Graphics/SVG/1.1/DTD/svg11.dtd">
<svg version="1.1" id="Layer_1" xmlns="http://www.w3.org/2000/svg" xmlns:xlink="http://www.w3.org/1999/xlink" x="0px" y="0px"
	 width="1175.441px" height="309.984px" viewBox="0 0 1175.441 309.984" enable-background="new 0 0 1175.441 309.984"
	 xml:space="preserve">
<g>
	<path d="M0.5,273.484c0,19.883,16.118,36,36,36h1102.441c19.883,0,36-16.117,36-36V36.5c0-19.882-16.117-36-36-36H36.5
		c-19.882,0-36,16.118-36,36V273.484z"/>
	<path fill="none" stroke="#000000" stroke-miterlimit="10" d="M0.5,273.484c0,19.883,16.118,36,36,36h1102.441
		c19.883,0,36-16.117,36-36V36.5c0-19.882-16.117-36-36-36H36.5c-19.882,0-36,16.118-36,36V273.484z"/>
</g>
<text transform="matrix(1 0 0 1 290.8794 227.457)" fill="#FFFFFF" font-family="'PrincetonMontiSCap-Regular'" font-size="205">Friends</text>
<g>
	<path fill="#FFFFFF" d="M243.82,91.946v-0.863h-0.211c-1.574-5.798-7.118-10.092-13.735-10.092v10.092h-0.025l0.346,145.937
		c0,0-20.566-6.64-39.146-14.727c-21.466-9.344-38.635,0.826-40.209,1.809v0.09c0,0-0.059-0.033-0.077-0.048
		c-0.022,0.015-0.08,0.048-0.08,0.048v-0.09c-1.571-0.982-18.736-11.152-40.207-1.809c-18.583,8.087-39.149,14.727-39.149,14.727
		l0.346-145.937H71.6V80.23c-6.539,0-11.978,4.667-13.188,10.853h-0.241v2.324c0,0.09-0.014,0.178-0.014,0.267
		s0.014,0.172,0.014,0.263v157.05H243.82V96.921c0.157-0.808,0.255-1.638,0.255-2.487C244.076,93.585,243.977,92.753,243.82,91.946z
		"/>
	<g>
		<path fill="#FFFFFF" d="M104.867,173.571c4.286,7.672,9.229,15.01,14.719,21.955l31.487-30.631l31.582,30.699
			c5.446-6.864,10.36-14.176,14.697-21.892l-46.279-44.538L104.867,173.571z"/>
		<path fill="#FFFFFF" d="M217.837,79.428c-5.417,1.65-11.187,2.551-17.161,2.551c-21.135,0-39.601-11.111-49.545-27.633
			c-9.974,16.521-28.433,27.633-49.556,27.633c-5.974,0-11.742-0.901-17.154-2.54c-1.411,16.12-0.395,32.039,2.817,47.348h127.69
			C218.257,110.823,219.179,94.91,217.837,79.428"/>
	</g>
</g>
</svg>
